<svg xmlns="http://www.w3.org/2000/svg" width="120" height="120" fill="none" xmlns:v="https://vecta.io/nano"><path fill-rule="evenodd" d="M60 0c33.115 0 60 26.885 60 60s-26.885 60-60 60S0 93.115 0 60 26.885 0 60 0zm0 10c27.596 0 50 22.404 50 50s-22.404 50-50 50-50-22.404-50-50 22.404-50 50-50z" fill="url(#A)"/><path d="M27.862 71.5c-.265 0-.52-.105-.707-.293s-.293-.442-.293-.707v-5.585c0-.205.063-.405.18-.573l15.321-21.915a1 1 0 0 1 .82-.427h8.029a1 1 0 0 1 1 1v20.1a1 1 0 0 0 1 1h2.1a1 1 0 0 1 1 1v5.4a1 1 0 0 1-1 1h-2.1a1 1 0 0 0-1 1V77a1 1 0 0 1-1 1h-6.55a1 1 0 0 1-1-1v-4.5a1 1 0 0 0-1-1h-14.8zm16.4-16.775a1 1 0 0 0-1.834-.552l-5.54 8.375a1 1 0 0 0 .834 1.552h5.54a1 1 0 0 0 1-1v-8.375z" fill="url(#B)"/><path d="M83.957 78a1 1 0 0 1-.795-.394l-9.705-12.747a1 1 0 0 0-1.795.605V77a1 1 0 0 1-1 1h-6.548a1 1 0 0 1-.999-1.003l.094-34a1 1 0 0 1 1-.997h6.547a1 1 0 0 1 1 1.006l-.076 12.317a1 1 0 0 0 1.793.614l10.389-13.546a1 1 0 0 1 .793-.391h7.483a1 1 0 0 1 .783 1.623L80.305 59.481a1 1 0 0 0-.003 1.241l12.335 15.659A1 1 0 0 1 91.851 78h-7.894z" fill="url(#B)"/><defs><linearGradient id="A" x1="17.915" y1="17.252" x2="102.751" y2="102.083" gradientUnits="userSpaceOnUse"><stop stop-color="#ff0cf5"/><stop offset="1" stop-color="#0575e6"/></linearGradient><linearGradient id="B" x1="33" y1="43" x2="96" y2="79" gradientUnits="userSpaceOnUse"><stop stop-color="#a83afe"/><stop offset="1" stop-color="#6e59fe"/></linearGradient></defs></svg>