<svg xmlns="http://www.w3.org/2000/svg" width="120" height="120" fill="none" xmlns:v="https://vecta.io/nano"><g clip-path="url(#E)" fill-rule="evenodd"><path d="M120 5a5 5 0 0 0-5-5H75a5 5 0 0 0-5 5v40a5 5 0 0 0 5 5h40a5 5 0 0 0 5-5V5zm-10 5v30H80V10h30z" fill="url(#A)"/><path d="M50 75a5 5 0 0 0-5-5H5a5 5 0 0 0-5 5v40a5 5 0 0 0 5 5h40a5 5 0 0 0 5-5V75zm-10 5v30H10V80h30z" fill="url(#B)"/><path d="M50 25C50 11.202 38.798 0 25 0S0 11.202 0 25s11.202 25 25 25 25-11.202 25-25zm-10 0a15.01 15.01 0 0 1-15 15 15.01 15.01 0 0 1-15-15 15.01 15.01 0 0 1 15-15 15.01 15.01 0 0 1 15 15z" fill="url(#C)"/><path d="M120 95c0-13.798-11.202-25-25-25S70 81.202 70 95s11.202 25 25 25 25-11.202 25-25zm-10 0a15.01 15.01 0 0 1-15 15 15.01 15.01 0 0 1-15-15 15.01 15.01 0 0 1 15-15 15.01 15.01 0 0 1 15 15z" fill="url(#D)"/></g><defs><linearGradient id="A" x1="75" y1="5" x2="115" y2="45" gradientUnits="userSpaceOnUse"><stop stop-color="#ff0cf5"/><stop offset="1" stop-color="#0575e6"/></linearGradient><linearGradient id="B" x1="5" y1="75" x2="45" y2="115" gradientUnits="userSpaceOnUse"><stop stop-color="#ff0cf5"/><stop offset="1" stop-color="#0575e6"/></linearGradient><linearGradient id="C" x1="5" y1="25" x2="45" y2="25" gradientUnits="userSpaceOnUse"><stop stop-color="#a83afe"/><stop offset="1" stop-color="#6e59fe"/></linearGradient><linearGradient id="D" x1="75" y1="95" x2="115" y2="95" gradientUnits="userSpaceOnUse"><stop stop-color="#a83afe"/><stop offset="1" stop-color="#6e59fe"/></linearGradient><clipPath id="E"><path fill="#fff" d="M0 0h120v120H0z"/></clipPath></defs></svg>