<svg xmlns="http://www.w3.org/2000/svg" width="38" height="36" fill="none" xmlns:v="https://vecta.io/nano"><path d="M20.948 29.532c1.258 2.246 2.515 4.491 4.222 6.378l-.09.09c-.359-.27-.719-.449-.988-.719-1.437-1.437-2.605-3.144-3.683-4.851-.09-.09-.18-.18-.18-.27-.898.359-1.707.898-2.605 1.168-.629.18-1.437.359-2.066.359-1.168 0-1.797-.898-1.527-2.066.09-.449.269-.898.449-1.437-.27.09-.539.27-.898.359-1.078.539-2.246.898-3.414.988-.539 0-.988 0-1.527-.09-1.258-.269-1.976-1.168-1.976-2.515 0-1.437.359-2.785.898-3.953l2.425-4.581a.7.7 0 0 0 .09-.719c-.808-1.976-1.437-3.953-1.707-6.109-2.605-.18-5.12 0-7.636.539 0 0 0-.09-.09-.09.359-.18.629-.449.988-.539a24.64 24.64 0 0 1 6.288-.809h.359c-.09-.898 0-1.707.09-2.515.09-.898.269-1.707.808-2.425.629-.898 1.617-1.078 2.425-.359.449.359.719.808 1.168 1.258.09-.719.09-1.437.27-2.156.18-1.168.449-2.336 1.168-3.324.808-1.078 1.976-1.437 3.234-.898 1.348.629 2.336 1.617 3.144 2.785l2.785 4.492c.09.18.269.359.449.359 2.066.269 4.132.719 6.019 1.527.269.09.359-.09.449-.269 1.168-2.066 2.336-4.132 3.054-6.378 0 0 0-.09.18-.09 0 .359 0 .719-.09 1.078-.539 1.886-1.258 3.503-1.886 5.21-.09.359-.27.629-.449.988.449.27.808.539 1.168.808.898.629 1.707 1.258 2.336 2.246.09.18.27.449.359.719.269.898 0 1.527-.898 1.886l-.898.27c-.269.09-.629.09-.988.09.539.359.988.719 1.437 1.078 1.078.808 1.976 1.797 2.515 3.054.629 1.437.27 2.605-1.168 3.413-1.078.629-2.246.988-3.503 1.078-1.797.18-3.683.18-5.48.27-.18 0-.449.09-.539.269-1.348 1.527-2.695 3.144-4.491 4.402zM10.078 11.656v.18.359c.269 2.336.808 4.491 1.797 6.647.719 1.707 1.707 3.234 3.234 4.492 1.078.808 1.078.898 2.156.09 2.964-1.976 5.569-4.491 7.995-7.097.09-.09.18-.27.359-.359.27.18.449.27.629.449s.359.269.539.449c-2.246 2.964-4.851 5.57-7.546 7.995.629 0 1.348 0 1.976-.09s1.258-.359 1.976-.539c-.629.539-1.258.809-1.976.988s-1.437.18-2.156.359c.359.809.809 1.617 1.168 2.335.09-.09.18-.09.18-.09 2.425-1.617 4.402-3.683 5.929-6.198.898-1.437 1.437-3.054 1.527-4.761 0-.27-.09-.449-.359-.629-2.695-1.437-5.569-2.425-8.444-3.234-.898-.269-1.886-.449-2.875-.718 0-.449.09-.898.09-1.437 3.683.539 7.276 1.347 10.87 2.695-.629-1.348-1.617-2.336-2.605-3.234 1.527.449 2.336 1.617 3.234 2.875.539-.719 1.078-1.437 1.527-2.156-.09-.09-.18-.09-.359-.18-2.246-1.078-4.581-1.707-7.007-1.976-1.886-.18-3.773 0-5.48.719-.988.449-.988.359-.988 1.437 0 .269 0 .539.09.808.18 2.695.808 5.21 1.527 7.815l.808 2.605c-.449.18-.808.359-1.258.539-1.617-3.324-2.425-6.917-3.144-10.6-.898 1.168-1.258 2.515-1.437 3.863-.359-1.527.18-2.875.898-4.312-1.078.09-1.976 0-2.875-.09zm5.3-2.425c2.066-1.168 4.222-1.527 6.648-1.437-.629-.808-1.168-1.617-1.797-2.246-.449-.539-.988-.988-1.527-1.347s-1.168-.269-1.617.09c-.269.269-.629.629-.809.988-.629 1.258-.808 2.515-.898 3.953zm0 15.271c-2.066-1.168-3.413-2.875-4.491-4.941-.269.629-.539 1.168-.808 1.707-.27.808-.539 1.617-.629 2.425-.18 1.168.359 1.886 1.527 1.976 1.527.18 2.964-.359 4.402-1.168zm13.205-7.635c0 2.336-.809 4.402-1.976 6.378.988.18 3.234-.27 4.222-.719 1.168-.539 1.527-1.437.898-2.605-.719-1.258-1.886-2.156-3.144-3.054zm-15.541-6.288c-.09-.719-.09-1.437-.18-2.246 0-.449-.629-1.168-1.078-1.258-.359-.09-.809.18-1.168.719-.449.808-.629 1.707-.539 2.695.988.09 1.976.09 2.964.09zm4.761 15.271c-.719.449-1.348.898-1.976 1.348-.359.27-.539 1.078-.449 1.437.18.449.629.629 1.258.629.898 0 1.797-.449 2.605-.808-.539-.898-.988-1.707-1.437-2.605zm10.78-11.678c.629.269 1.168.629 1.707.808.359.18.719.27 1.078.18.898-.09 1.348-.809.898-1.617-.449-.898-1.258-1.348-2.066-1.886-.629.898-1.078 1.707-1.617 2.515z" fill="#dcdcdc"/></svg>