<svg xmlns="http://www.w3.org/2000/svg" width="120" height="120" fill="none" xmlns:v="https://vecta.io/nano"><g fill-rule="evenodd"><path d="M106.328 98.112a4.99 4.99 0 0 0 .094 6.494l6.24 7.084c1.301 1.474 1.618 3.574.81 5.366a5 5 0 0 1-4.558 2.944H60C26.885 120 0 93.115 0 60S26.885 0 60 0s60 26.885 60 60c0 14.467-5.131 27.745-13.672 38.112zM97.956 110H60c-27.596 0-50-22.404-50-50s22.404-50 50-50 50 22.404 50 50c0 12.053-4.274 23.116-11.39 31.754l.035-.043c-4.397 5.279-4.607 12.803-.689 18.289z" fill="url(#A)"/><path d="M37 53h44c2.76 0 5-2.24 5-5s-2.24-5-5-5H37c-2.76 0-5 2.24-5 5s2.24 5 5 5z" fill="url(#B)"/><path d="M37 79h17c2.76 0 5-2.24 5-5s-2.24-5-5-5H37c-2.76 0-5 2.24-5 5s2.24 5 5 5z" fill="url(#C)"/></g><defs><linearGradient id="A" x1="18" y1="17" x2="120" y2="119" gradientUnits="userSpaceOnUse"><stop stop-color="#ff0cf5"/><stop offset="1" stop-color="#0575e6"/></linearGradient><linearGradient id="B" x1="37" y1="48" x2="81" y2="48" gradientUnits="userSpaceOnUse"><stop stop-color="#a83afe"/><stop offset="1" stop-color="#6e59fe"/></linearGradient><linearGradient id="C" x1="37" y1="74" x2="54" y2="74" gradientUnits="userSpaceOnUse"><stop stop-color="#a83afe"/><stop offset="1" stop-color="#6e59fe"/></linearGradient></defs></svg>