<svg xmlns="http://www.w3.org/2000/svg" width="33" height="36" fill="none" xmlns:v="https://vecta.io/nano"><g clip-path="url(#A)" fill="#dcdcdc"><path d="M28.879 0H3.547C1.481 0 .762.719.762 2.785v24.793.629c.09.449.09.898.449 1.347 0 .09.449.359.449.359.269.09.359.18.629.27l12.486 5.21c.629.27.898.449 1.348.359.449 0 .719-.09 1.348-.359l12.486-5.21c.27-.09.449-.18.629-.27l.449-.359c.449-.539.449-.898.449-1.347v-.629V2.785C31.754.719 30.945 0 28.879 0zM17.83 4.761h2.066v13.744H17.83V4.761zm-.718 18.505c.09-.09.09-.18.18-.269.09-.18.269-.359.359-.539.09-.09.09-.18.18-.27 0-.09.09-.09.09-.18h.09.09.719.18.09v.09.09.18.719.719.719.719.719.18H19h-.719-.18-.09-.09v-.18-.18-.719-.719-.719-.09c-.09.09-.18.18-.18.359-.09.09-.18.18-.18.359-.09.09-.18.18-.18.359-.09.09-.18.18-.18.359-.09.09-.18.18-.18.359 0 0 0 .09-.09 0 0 0 0-.09-.09-.09 0-.09-.09-.09-.09-.18-.18-.18-.269-.449-.449-.629-.09-.09-.18-.18-.18-.359 0-.09-.09-.09-.09-.18s-.09-.09-.09-.18c0 0 0-.09-.09-.09v1.078 1.078.269.09h-.09-.09-.539-.269-.09v-.09-.539-1.078-1.078-1.078-.09-.09-.09h.269.539.269.09.09l.09.09c.09.09.09.18.09.18.09.09.09.18.18.18l.539.898c0 .09.09.18.09.18 0-.09 0-.18.09-.27zM11.003 4.761h3.324c1.707 0 2.515.808 2.515 2.515v3.683c0 1.707-.808 2.515-2.515 2.515h-1.168v5.03h-2.066V4.761h-.09zm-5.659 0h4.671v1.886H7.41v3.863h2.425v1.886H7.41v4.132h2.605v1.886H5.344V4.761zm3.953 20.751c-.18.18-.359.27-.539.359-.09 0-.18.09-.269.09s-.18.09-.269.09c-.18.09-.359.09-.539.09H7.05c-.359-.09-.719-.18-.988-.449s-.539-.539-.629-.898c-.09-.18-.18-.359-.18-.539v-.27-.27c0-.18.09-.359.18-.539 0-.09.09-.18.09-.27.09-.09.09-.18.18-.27.09-.18.269-.27.449-.359l.539-.269c.18-.09.359-.09.539-.18h.27.18.18c.18 0 .359.09.539.09s.359.18.539.269c.09.09.18.09.27.18h.09s.09 0 0 .09l-.09.09c-.09.18-.27.269-.359.449-.09.09-.09.18-.18.18-.18-.09-.27-.18-.449-.27s-.359-.09-.539-.09c-.359 0-.719.18-.898.539s-.269.719-.09 1.078c.09.359.359.629.719.719a.57.57 0 0 0 .539 0c-.09 0 0 0 .09 0 0 0 .09 0 .09-.09 0 0 .09 0 .09-.09v-.09-.09-.18-.18-.09h-.09-.539-.18-.09v-.09-.27-.27-.18-.09h.09H8.58h.539.09v.09.18.27 1.168c.09.18.09.269.09.359 0 0 0-.09 0 0zm.449.539c.09-.269.27-.629.359-.898s.27-.629.359-.898c.09-.18.09-.27.18-.449 0-.09.09-.18.09-.27s.09-.18.09-.27c.09-.18.09-.269.18-.449s.09-.269.18-.449c0-.09.09-.18.09-.18 0-.09.09-.18.09-.269v-.09h.09.09.27.449.09.09v.09c0 .09.09.18.09.269.09.18.09.27.18.449s.09.27.18.449c.18.269.269.629.359.898s.27.629.359.898c.09.18.09.27.18.449 0 .09.09.18.09.269s.09.18.09.269.09.18.09.18h-.09-1.078-.09v-.09s0-.09-.09-.09c0-.09-.09-.18-.09-.269s-.09-.18-.09-.269v-.09h-.09-.18-1.078-.269-.09v.09c0 .09 0 .09-.09.09-.09.18-.18.359-.18.449v.09h-.09-.09-.27-.539c.269.09.18.09.18.09zm6.378 7.007l-5.839-1.976h12.037l-6.198 1.976zm7.186-7.007s-.09 0 0 0h-1.168-1.168-.539-.269-.09-.09v-.18-1.168-1.168-1.168-.269-.18-.09-.09h.539 1.168 1.168.269.09v.09.09.539.09.09h-.09-.269-.539-1.168-.18v.09.09.27.18.09h.09.09.09 1.168.27.18.09v.18.09.269.27h-.09-.18-.539-.539-.27-.18-.09-.09v.09.18.269.09.09h.09.27 1.168.539.09v.09.09.27.269c.18.269.18.359.18.449zm-2.246-9.971V7.186c0-1.707.809-2.515 2.515-2.515h.988c1.707 0 2.515.808 2.515 2.515v2.785h-2.066V7.276c0-.539-.27-.808-.809-.808h-.359c-.539 0-.808.269-.808.808v8.714c0 .539.27.808.808.808h.359c.539 0 .809-.27.809-.808v-3.144h2.066v3.234c0 1.707-.808 2.515-2.515 2.515h-1.078c-1.617.09-2.425-.808-2.425-2.515zm6.198 8.893c0 .18-.09.359-.18.449a.7.7 0 0 1-.359.359c-.269.18-.629.269-.988.359-.359 0-.719 0-1.078-.09s-.629-.269-.898-.449l-.09-.09h-.09v-.09l.18-.18c.09-.18.27-.27.359-.359l.09-.09c.269.18.539.359.898.449.18 0 .359.09.449.09.18 0 .359-.09.449-.18v-.27l-.18-.18c-.18-.09-.359-.09-.449-.18l-.898-.269c-.269-.18-.539-.449-.539-.719-.09-.359 0-.719.18-.988.09-.18.269-.27.359-.359.18-.09.27-.18.449-.18s.359-.09.539-.09h.539c.359.09.629.18.898.359.09.09.18.09.18.18h.09v.09l-.09.09c-.09.09-.09.18-.18.18-.09.09-.09.18-.18.18-.09.09-.09.18-.18.18-.27-.18-.629-.359-.898-.359h-.449c-.18.09-.27.27-.18.449 0 .09.09.09.18.18.09 0 .18.09.269.09.18.09.359.09.449.09.18.09.359.09.449.18.18.09.269.18.449.27.09.09.269.269.269.359.09.18.09.359.09.449.09 0 .09 0 .09.09zm-14.822-.539s0-.09 0 0c-.09-.18-.18-.359-.18-.539 0-.09-.09-.18-.09-.27s-.09-.18-.09-.18c0-.09-.09-.18-.09-.27-.09.18-.09.359-.18.449-.09.18-.09.359-.18.449 0 .09-.09.18-.09.27h.719c.09.09.18.09.18.09zm2.336-13.564V7.456c0-.539-.27-.808-.809-.808h-.898v5.03h.898c.539 0 .809-.269.809-.808z"/></g><defs><clipPath id="A"><path fill="#fff" transform="translate(.2)" d="M0 0h32.4v36H0z"/></clipPath></defs></svg>