<svg width="624" height="476" viewBox="0 0 624 476" fill="none" xmlns="http://www.w3.org/2000/svg">
<path d="M172.517 93.7841C201.761 65.2389 239.612 45.5791 281.8 38.9325" stroke="url(#paint0_linear_239_627)" stroke-width="10" stroke-miterlimit="10" stroke-linecap="round"/>
<path d="M118.014 287.794C107.869 248.194 109.759 205.586 125.081 165.707" stroke="url(#paint1_linear_239_627)" stroke-width="10" stroke-miterlimit="10" stroke-linecap="round"/>
<path d="M258.712 431.989C219.392 420.935 183.431 398.056 156.564 364.824" stroke="url(#paint2_linear_239_627)" stroke-width="10" stroke-miterlimit="10" stroke-linecap="round"/>
<path d="M453.981 382.174C424.736 410.72 386.885 430.38 344.697 437.026" stroke="url(#paint3_linear_239_627)" stroke-width="10" stroke-miterlimit="10" stroke-linecap="round"/>
<path d="M508.482 188.165C518.557 227.695 516.738 270.373 501.346 310.252" stroke="url(#paint4_linear_239_627)" stroke-width="10" stroke-miterlimit="10" stroke-linecap="round"/>
<path d="M367.715 43.9697C407.035 55.024 442.996 77.9022 469.862 111.135" stroke="url(#paint5_linear_239_627)" stroke-width="10" stroke-miterlimit="10" stroke-linecap="round"/>
<path d="M344.697 36.4837C344.697 53.9047 330.635 67.9674 313.214 67.9674C295.793 67.9674 281.73 53.9047 281.73 36.4837C281.73 19.0627 295.793 5 313.214 5" stroke="url(#paint6_linear_239_627)" stroke-width="10" stroke-miterlimit="10" stroke-linecap="round"/>
<path d="M154.466 109.946C169.508 118.621 174.685 137.861 166.01 152.974C157.334 168.086 138.024 173.193 122.982 164.518C107.94 155.842 102.762 136.532 111.438 121.49" stroke="url(#paint7_linear_239_627)" stroke-width="10" stroke-miterlimit="10" stroke-linecap="round"/>
<path d="M122.982 311.441C138.024 302.766 157.264 307.873 166.01 322.985C174.755 338.098 169.578 357.268 154.466 366.013C139.354 374.759 120.183 369.581 111.438 354.469" stroke="url(#paint8_linear_239_627)" stroke-width="10" stroke-miterlimit="10" stroke-linecap="round"/>
<path d="M281.73 439.475C281.73 422.054 295.793 407.991 313.214 407.991C330.635 407.991 344.697 422.054 344.697 439.475C344.697 456.896 330.635 470.958 313.214 470.958" stroke="url(#paint9_linear_239_627)" stroke-width="10" stroke-miterlimit="10" stroke-linecap="round"/>
<path d="M471.961 366.013C456.919 357.338 451.742 338.098 460.417 322.985C469.093 307.943 488.333 302.766 503.445 311.441C518.487 320.117 523.665 339.357 514.989 354.469" stroke="url(#paint10_linear_239_627)" stroke-width="10" stroke-miterlimit="10" stroke-linecap="round"/>
<path d="M343.971 254.828C334.815 270.705 314.507 276.169 298.557 267.013C282.68 257.856 277.215 237.548 286.372 221.598C295.529 205.721 315.836 200.256 331.787 209.413" stroke="url(#paint11_linear_239_627)" stroke-width="15" stroke-miterlimit="10" stroke-linecap="round"/>
<path d="M503.445 164.517C488.403 173.193 469.163 168.085 460.417 152.973C451.742 137.931 456.849 118.691 471.961 109.946C487.003 101.27 506.244 106.377 514.989 121.49" stroke="url(#paint12_linear_239_627)" stroke-width="10" stroke-miterlimit="10" stroke-linecap="round"/>
<path opacity="0.25" d="M90.8434 365.533L2 416.935" stroke="url(#paint13_linear_239_627)" stroke-width="3.17298" stroke-miterlimit="10" stroke-linecap="round"/>
<path opacity="0.25" d="M533.156 365.533L622 416.935" stroke="url(#paint14_linear_239_627)" stroke-width="3.17298" stroke-miterlimit="10" stroke-linecap="round"/>
<path opacity="0.25" d="M533.156 110.426L622 59.0233" stroke="url(#paint15_linear_239_627)" stroke-width="3.17298" stroke-miterlimit="10" stroke-linecap="round"/>
<path opacity="0.25" d="M90.8434 110.426L2 59.0233" stroke="url(#paint16_linear_239_627)" stroke-width="3.17298" stroke-miterlimit="10" stroke-linecap="round"/>
<path opacity="0.49" d="M312.952 91.3876V157.386" stroke="url(#paint17_linear_239_627)" stroke-width="3.17298" stroke-miterlimit="10" stroke-linecap="round"/>
<path opacity="0.49" d="M186.033 164.366L243.146 198" stroke="url(#paint18_linear_239_627)" stroke-width="3.17298" stroke-miterlimit="10" stroke-linecap="round"/>
<path opacity="0.49" d="M186.033 311.592L243.146 277.959" stroke="url(#paint19_linear_239_627)" stroke-width="3.17298" stroke-miterlimit="10" stroke-linecap="round"/>
<path opacity="0.49" d="M312.952 384.571V318.573" stroke="url(#paint20_linear_239_627)" stroke-width="3.17298" stroke-miterlimit="10" stroke-linecap="round"/>
<path opacity="0.49" d="M439.871 311.592L382.123 277.959" stroke="url(#paint21_linear_239_627)" stroke-width="3.17298" stroke-miterlimit="10" stroke-linecap="round"/>
<path opacity="0.49" d="M439.871 164.366L382.123 198" stroke="url(#paint22_linear_239_627)" stroke-width="3.17298" stroke-miterlimit="10" stroke-linecap="round"/>
<defs>
<linearGradient id="paint0_linear_239_627" x1="283.595" y1="38.9325" x2="177.667" y2="99.4762" gradientUnits="userSpaceOnUse">
<stop stop-color="#59FEF4"/>
<stop offset="1" stop-color="#9E3FFE"/>
</linearGradient>
<linearGradient id="paint1_linear_239_627" x1="131.901" y1="168.119" x2="125.299" y2="285.845" gradientUnits="userSpaceOnUse">
<stop stop-color="#7E50FE"/>
<stop offset="1" stop-color="#52E9F6"/>
</linearGradient>
<linearGradient id="paint2_linear_239_627" x1="263.286" y1="427.19" x2="156.564" y2="364.824" gradientUnits="userSpaceOnUse">
<stop stop-color="#6E59FE"/>
<stop offset="1" stop-color="#3FB0FC"/>
</linearGradient>
<linearGradient id="paint3_linear_239_627" x1="455.775" y1="382.174" x2="352.226" y2="445.274" gradientUnits="userSpaceOnUse">
<stop stop-color="#53EDF6"/>
<stop offset="1" stop-color="#A63AFE"/>
</linearGradient>
<linearGradient id="paint4_linear_239_627" x1="501.346" y1="300.976" x2="501.346" y2="188.165" gradientUnits="userSpaceOnUse">
<stop stop-color="#42BAFB"/>
<stop offset="1" stop-color="#9742FE"/>
</linearGradient>
<linearGradient id="paint5_linear_239_627" x1="472.905" y1="94.3095" x2="367.715" y2="43.9697" gradientUnits="userSpaceOnUse">
<stop stop-color="#7953FE"/>
<stop offset="1" stop-color="#CFC7FE"/>
</linearGradient>
<linearGradient id="paint6_linear_239_627" x1="344.697" y1="5" x2="281.73" y2="5" gradientUnits="userSpaceOnUse">
<stop stop-color="#3AA0FE"/>
<stop offset="1" stop-color="#59FEF4"/>
</linearGradient>
<linearGradient id="paint7_linear_239_627" x1="170.216" y1="109.946" x2="107.231" y2="109.946" gradientUnits="userSpaceOnUse">
<stop stop-color="#A83AFE"/>
<stop offset="1" stop-color="#6E59FE"/>
</linearGradient>
<linearGradient id="paint8_linear_239_627" x1="170.263" y1="307.22" x2="111.438" y2="307.22" gradientUnits="userSpaceOnUse">
<stop stop-color="#3AA0FE"/>
<stop offset="1" stop-color="#59FEF4"/>
</linearGradient>
<linearGradient id="paint9_linear_239_627" x1="344.697" y1="407.991" x2="281.73" y2="407.991" gradientUnits="userSpaceOnUse">
<stop stop-color="#A83AFE"/>
<stop offset="1" stop-color="#6E59FE"/>
</linearGradient>
<linearGradient id="paint10_linear_239_627" x1="519.196" y1="307.235" x2="456.211" y2="307.235" gradientUnits="userSpaceOnUse">
<stop stop-color="#3AA0FE"/>
<stop offset="1" stop-color="#59FEF4"/>
</linearGradient>
<linearGradient id="paint11_linear_239_627" x1="332.168" y1="196.266" x2="274.23" y2="268.94" gradientUnits="userSpaceOnUse">
<stop stop-color="#F63AFE"/>
<stop offset="1" stop-color="#6E59FF"/>
</linearGradient>
<linearGradient id="paint12_linear_239_627" x1="514.989" y1="105.724" x2="456.196" y2="105.724" gradientUnits="userSpaceOnUse">
<stop stop-color="#A83AFE"/>
<stop offset="1" stop-color="#6E59FE"/>
</linearGradient>
<linearGradient id="paint13_linear_239_627" x1="92.3025" y1="365.533" x2="2" y2="365.533" gradientUnits="userSpaceOnUse">
<stop stop-color="#E1DCFE"/>
<stop offset="1" stop-color="#7E67FD"/>
</linearGradient>
<linearGradient id="paint14_linear_239_627" x1="623.459" y1="365.533" x2="533.156" y2="365.533" gradientUnits="userSpaceOnUse">
<stop stop-color="#E1DCFE"/>
<stop offset="1" stop-color="#7E67FD"/>
</linearGradient>
<linearGradient id="paint15_linear_239_627" x1="623.459" y1="59.0233" x2="533.156" y2="59.0233" gradientUnits="userSpaceOnUse">
<stop stop-color="#E1DCFE"/>
<stop offset="1" stop-color="#7E67FD"/>
</linearGradient>
<linearGradient id="paint16_linear_239_627" x1="92.3025" y1="59.0233" x2="2" y2="59.0233" gradientUnits="userSpaceOnUse">
<stop stop-color="#E1DCFE"/>
<stop offset="1" stop-color="#7E67FD"/>
</linearGradient>
<linearGradient id="paint17_linear_239_627" x1="312.952" y1="159.5" x2="312.952" y2="91.3876" gradientUnits="userSpaceOnUse">
<stop stop-color="#8A54D0"/>
<stop offset="1" stop-color="#D71F7B"/>
</linearGradient>
<linearGradient id="paint18_linear_239_627" x1="244.084" y1="164.366" x2="186.033" y2="164.366" gradientUnits="userSpaceOnUse">
<stop stop-color="#E1DCFE"/>
<stop offset="1" stop-color="#7E67FD"/>
</linearGradient>
<linearGradient id="paint19_linear_239_627" x1="244.084" y1="277.959" x2="186.033" y2="277.959" gradientUnits="userSpaceOnUse">
<stop stop-color="#8A54D0"/>
<stop offset="1" stop-color="#D71F7B"/>
</linearGradient>
<linearGradient id="paint20_linear_239_627" x1="312.952" y1="385" x2="312.952" y2="318.573" gradientUnits="userSpaceOnUse">
<stop stop-color="#E1DCFE"/>
<stop offset="1" stop-color="#7E67FD"/>
</linearGradient>
<linearGradient id="paint21_linear_239_627" x1="440.819" y1="277.959" x2="382.123" y2="277.959" gradientUnits="userSpaceOnUse">
<stop stop-color="#8A54D0"/>
<stop offset="1" stop-color="#D71F7B"/>
</linearGradient>
<linearGradient id="paint22_linear_239_627" x1="440.819" y1="164.366" x2="382.123" y2="164.366" gradientUnits="userSpaceOnUse">
<stop stop-color="#E1DCFE"/>
<stop offset="1" stop-color="#7E67FD"/>
</linearGradient>
</defs>
</svg>
