<svg xmlns="http://www.w3.org/2000/svg" width="120" height="77" fill="none" xmlns:v="https://vecta.io/nano"><mask id="A" fill="#fff"><path fill-rule="evenodd" d="M10.247 55C12.756 29.733 34.073 10 60 10s47.244 19.733 49.753 45H95.656C93.222 37.484 78.186 24 60 24S26.778 37.484 24.344 55H10.247zM.205 55H0v5 5h29 5v-5c0-14.359 11.641-26 26-26s26 11.641 26 26v5h5 29v-5-5h-.205C117.254 24.202 91.453 0 60 0S2.746 24.202.205 55z"/></mask><path d="M10.247 55l-9.951-.988L-.795 65h11.042V55zm99.506 0v10h11.042l-1.091-10.988-9.951.988zm-14.097 0l-9.905 1.376L86.949 65h8.707V55zm-71.311 0v10h8.707l1.198-8.624L24.344 55zM0 55V45h-10v10H0zm.205 0v10h9.209l.757-9.178L.205 55zM0 65h-10v10H0V65zm34 0v10h10V65H34zm52 0H76v10h10V65zm34 0v10h10V65h-10zm0-10h10V45h-10v10zm-.205 0l-9.967.822.758 9.178h9.209V55zM60 0C28.882 0 3.307 23.681.296 54.012l19.902 1.976C22.204 35.785 39.265 20 60 20V0zm59.704 54.012C116.693 23.681 91.118 0 60 0v20c20.735 0 37.796 15.785 39.802 35.988l19.902-1.976zM95.656 65h14.097V45H95.656v20zM60 34c13.126 0 23.994 9.736 25.751 22.376l19.809-2.753C102.449 31.233 83.246 14 60 14v20zM34.249 56.376C36.006 43.736 46.874 34 60 34V14c-23.245 0-42.449 17.233-45.56 39.624l19.81 2.753zM10.247 65h14.098V45H10.247v20zM0 65h.205V45H0v20zm10-5v-5h-20v5h20zm0 5v-5h-20v5h20zm19-10H0v20h29V55zm5 0h-5v20h5V55zm-10 5v5h20v-5H24zm36-36c-19.882 0-36 16.118-36 36h20c0-8.837 7.163-16 16-16V24zm36 36c0-19.882-16.118-36-36-36v20c8.837 0 16 7.163 16 16h20zm0 5v-5H76v5h20zm-5-10h-5v20h5V55zm29 0H91v20h29V55zm-10 5v5h20v-5h-20zm0-5v5h20v-5h-20zm9.795 10H120V45h-.205v20zM60 10c26.206 0 47.712 20.168 49.828 45.822l19.933-1.644C126.796 18.237 96.701-10 60-10v20zM10.172 55.822C12.288 30.168 33.794 10 60 10v-20C23.3-10-6.796 18.237-9.761 54.178l19.932 1.644z" fill="url(#B)" mask="url(#A)"/><g stroke-width="10"><circle cx="60" cy="60" r="12" stroke="url(#C)"/><path d="M50 51L29.5 30.5" stroke="url(#D)" stroke-linecap="round"/></g><defs><linearGradient id="B" x1="121.971" y1="0" x2="0" y2="0" gradientUnits="userSpaceOnUse"><stop stop-color="#e1dcfe"/><stop offset="1" stop-color="#7e67fd"/></linearGradient><linearGradient id="C" x1="77.558" y1="43" x2="43" y2="43" gradientUnits="userSpaceOnUse"><stop stop-color="#8a54d0"/><stop offset="1" stop-color="#d71f7b"/></linearGradient><linearGradient id="D" x1="45" y1="46" x2="29.5" y2="30.5" gradientUnits="userSpaceOnUse"><stop stop-color="#c52b8e"/><stop offset="1" stop-color="#beb3ff"/></linearGradient></defs></svg>