<svg xmlns="http://www.w3.org/2000/svg" xmlns:xlink="http://www.w3.org/1999/xlink" width="624" height="476" fill="none" xmlns:v="https://vecta.io/nano"><style><![CDATA[.B{stroke-miterlimit:10}.C{stroke-linecap:round}.D{opacity:.49}.E{opacity:.25}]]></style><g stroke-width="10" class="B C"><path d="M172.517 93.7841C201.761 65.2389 239.612 45.5791 281.8 38.9325" stroke="url(#A)"/><path d="M118.014 287.794C107.869 248.194 109.759 205.586 125.081 165.707" stroke="url(#B)"/><path d="M258.712 431.989C219.392 420.935 183.431 398.056 156.564 364.824" stroke="url(#C)"/><path d="M453.981 382.174C424.736 410.72 386.885 430.38 344.697 437.026" stroke="url(#D)"/><path d="M508.482 188.165C518.557 227.695 516.738 270.373 501.346 310.252" stroke="url(#E)"/><path d="M367.715 43.9697C407.035 55.024 442.996 77.9022 469.862 111.135" stroke="url(#F)"/><path d="M344.697 36.4837C344.697 53.9047 330.635 67.9674 313.214 67.9674C295.793 67.9674 281.73 53.9047 281.73 36.4837C281.73 19.0627 295.793 5 313.214 5" stroke="url(#G)"/><path d="M154.466 109.946C169.508 118.621 174.685 137.861 166.01 152.974C157.334 168.086 138.024 173.193 122.982 164.518C107.94 155.842 102.762 136.532 111.438 121.49" stroke="url(#H)"/><path d="M122.982 311.441C138.024 302.766 157.264 307.873 166.01 322.985C174.755 338.098 169.578 357.268 154.466 366.013C139.354 374.759 120.183 369.581 111.438 354.469" stroke="url(#I)"/><path d="M281.73 439.475C281.73 422.054 295.793 407.991 313.214 407.991C330.635 407.991 344.697 422.054 344.697 439.475C344.697 456.896 330.635 470.958 313.214 470.958" stroke="url(#J)"/><path d="M471.961 366.013C456.919 357.338 451.742 338.098 460.417 322.985C469.093 307.943 488.333 302.766 503.445 311.441C518.487 320.117 523.665 339.357 514.989 354.469" stroke="url(#K)"/></g><path d="M343.971 254.828C334.815 270.705 314.507 276.169 298.557 267.013C282.68 257.856 277.215 237.548 286.372 221.598C295.529 205.721 315.836 200.256 331.787 209.413" stroke="url(#L)" stroke-width="15" class="B C"/><path d="M503.445 164.517C488.403 173.193 469.163 168.085 460.417 152.973C451.742 137.931 456.849 118.691 471.961 109.946C487.003 101.27 506.244 106.377 514.989 121.49" stroke="url(#M)" stroke-width="10" class="B C"/><g stroke-width="3.173" class="B C"><path d="M90.8434 365.533L2 416.935" stroke="url(#N)" class="E"/><path d="M533.156 365.533L622 416.935" stroke="url(#O)" class="E"/><path d="M533.156 110.426L622 59.0233" stroke="url(#P)" class="E"/><path d="M90.8434 110.426L2 59.0233" stroke="url(#Q)" class="E"/><path d="M312.952 91.3876V157.386" stroke="url(#R)" class="D"/><path d="M186.033 164.366L243.146 198" stroke="url(#S)" class="D"/><path d="M186.033 311.592L243.146 277.959" stroke="url(#T)" class="D"/><path d="M312.952 384.571V318.573" stroke="url(#U)" class="D"/><path d="M439.871 311.592L382.123 277.959" stroke="url(#V)" class="D"/><path d="M439.871 164.366L382.123 198" stroke="url(#W)" class="D"/></g><defs><linearGradient id="A" x1="283.595" y1="38.933" x2="177.667" y2="99.476" xlink:href="#X"><stop stop-color="#59fef4"/><stop offset="1" stop-color="#9e3ffe"/></linearGradient><linearGradient id="B" x1="131.901" y1="168.119" x2="125.299" y2="285.845" xlink:href="#X"><stop stop-color="#7e50fe"/><stop offset="1" stop-color="#52e9f6"/></linearGradient><linearGradient id="C" x1="263.286" y1="427.19" x2="156.564" y2="364.824" xlink:href="#X"><stop stop-color="#6e59fe"/><stop offset="1" stop-color="#3fb0fc"/></linearGradient><linearGradient id="D" x1="455.775" y1="382.174" x2="352.226" y2="445.274" xlink:href="#X"><stop stop-color="#53edf6"/><stop offset="1" stop-color="#a63afe"/></linearGradient><linearGradient id="E" x1="501.346" y1="300.976" x2="501.346" y2="188.165" xlink:href="#X"><stop stop-color="#42bafb"/><stop offset="1" stop-color="#9742fe"/></linearGradient><linearGradient id="F" x1="472.905" y1="94.31" x2="367.715" y2="43.97" xlink:href="#X"><stop stop-color="#7953fe"/><stop offset="1" stop-color="#cfc7fe"/></linearGradient><linearGradient id="G" x1="344.697" y1="5" x2="281.73" y2="5" xlink:href="#X"><stop stop-color="#3aa0fe"/><stop offset="1" stop-color="#59fef4"/></linearGradient><linearGradient id="H" x1="170.216" y1="109.946" x2="107.231" y2="109.946" xlink:href="#X"><stop stop-color="#a83afe"/><stop offset="1" stop-color="#6e59fe"/></linearGradient><linearGradient id="I" x1="170.263" y1="307.22" x2="111.438" y2="307.22" xlink:href="#X"><stop stop-color="#3aa0fe"/><stop offset="1" stop-color="#59fef4"/></linearGradient><linearGradient id="J" x1="344.697" y1="407.991" x2="281.73" y2="407.991" xlink:href="#X"><stop stop-color="#a83afe"/><stop offset="1" stop-color="#6e59fe"/></linearGradient><linearGradient id="K" x1="519.196" y1="307.235" x2="456.211" y2="307.235" xlink:href="#X"><stop stop-color="#3aa0fe"/><stop offset="1" stop-color="#59fef4"/></linearGradient><linearGradient id="L" x1="332.168" y1="196.266" x2="274.23" y2="268.94" xlink:href="#X"><stop stop-color="#f63afe"/><stop offset="1" stop-color="#6e59ff"/></linearGradient><linearGradient id="M" x1="514.989" y1="105.724" x2="456.196" y2="105.724" xlink:href="#X"><stop stop-color="#a83afe"/><stop offset="1" stop-color="#6e59fe"/></linearGradient><linearGradient id="N" x1="92.303" y1="365.533" x2="2" y2="365.533" xlink:href="#X"><stop stop-color="#e1dcfe"/><stop offset="1" stop-color="#7e67fd"/></linearGradient><linearGradient id="O" x1="623.459" y1="365.533" x2="533.156" y2="365.533" xlink:href="#X"><stop stop-color="#e1dcfe"/><stop offset="1" stop-color="#7e67fd"/></linearGradient><linearGradient id="P" x1="623.459" y1="59.023" x2="533.156" y2="59.023" xlink:href="#X"><stop stop-color="#e1dcfe"/><stop offset="1" stop-color="#7e67fd"/></linearGradient><linearGradient id="Q" x1="92.303" y1="59.023" x2="2" y2="59.023" xlink:href="#X"><stop stop-color="#e1dcfe"/><stop offset="1" stop-color="#7e67fd"/></linearGradient><linearGradient id="R" x1="312.952" y1="159.5" x2="312.952" y2="91.388" xlink:href="#X"><stop stop-color="#8a54d0"/><stop offset="1" stop-color="#d71f7b"/></linearGradient><linearGradient id="S" x1="244.084" y1="164.366" x2="186.033" y2="164.366" xlink:href="#X"><stop stop-color="#e1dcfe"/><stop offset="1" stop-color="#7e67fd"/></linearGradient><linearGradient id="T" x1="244.084" y1="277.959" x2="186.033" y2="277.959" xlink:href="#X"><stop stop-color="#8a54d0"/><stop offset="1" stop-color="#d71f7b"/></linearGradient><linearGradient id="U" x1="312.952" y1="385" x2="312.952" y2="318.573" xlink:href="#X"><stop stop-color="#e1dcfe"/><stop offset="1" stop-color="#7e67fd"/></linearGradient><linearGradient id="V" x1="440.819" y1="277.959" x2="382.123" y2="277.959" xlink:href="#X"><stop stop-color="#8a54d0"/><stop offset="1" stop-color="#d71f7b"/></linearGradient><linearGradient id="W" x1="440.819" y1="164.366" x2="382.123" y2="164.366" xlink:href="#X"><stop stop-color="#e1dcfe"/><stop offset="1" stop-color="#7e67fd"/></linearGradient><linearGradient id="X" gradientUnits="userSpaceOnUse"/></defs></svg>