<svg xmlns="http://www.w3.org/2000/svg" xmlns:xlink="http://www.w3.org/1999/xlink" width="624" height="476" fill="none" xmlns:v="https://vecta.io/nano"><style><![CDATA[.B{stroke-miterlimit:10}.C{stroke-linecap:round}.D{opacity:.49}.E{opacity:.25}]]></style><g stroke-width="10" class="B C"><path d="M172.516 93.7842C201.761 65.239 239.612 45.5792 281.8 38.9326" stroke="url(#A)"/><path d="M118.014 287.794C107.87 248.194 109.759 205.586 125.081 165.707" stroke="url(#B)"/><path d="M258.712 431.989C219.392 420.934 183.431 398.056 156.565 364.823" stroke="url(#C)"/><path d="M453.981 382.174C424.736 410.72 386.885 430.379 344.697 437.026" stroke="url(#D)"/><path d="M508.482 188.165C518.557 227.695 516.738 270.372 501.346 310.252" stroke="url(#E)"/><path d="M367.715 43.9697C407.035 55.024 442.996 77.9022 469.862 111.135" stroke="url(#F)"/><path d="M344.697 36.4837C344.697 53.9047 330.635 67.9674 313.214 67.9674C295.793 67.9674 281.73 53.9047 281.73 36.4837C281.73 19.0627 295.793 5 313.214 5" stroke="url(#G)"/><path d="M154.466 109.946C169.508 118.621 174.685 137.861 166.01 152.974C157.334 168.086 138.024 173.193 122.982 164.518C107.94 155.842 102.762 136.532 111.438 121.49" stroke="url(#H)"/><path d="M122.982 311.441C138.024 302.766 157.264 307.873 166.01 322.985C174.755 338.098 169.578 357.268 154.466 366.013C139.353 374.759 120.183 369.581 111.438 354.469" stroke="url(#I)"/><path d="M281.73 439.475C281.73 422.054 295.793 407.991 313.214 407.991C330.635 407.991 344.697 422.054 344.697 439.475C344.697 456.896 330.635 470.959 313.214 470.959" stroke="url(#J)"/><path d="M471.961 366.013C456.919 357.338 451.742 338.097 460.417 322.985C469.093 307.943 488.333 302.766 503.445 311.441C518.487 320.117 523.665 339.357 514.989 354.469" stroke="url(#K)"/></g><path d="M343.971 254.828C334.815 270.705 314.507 276.169 298.557 267.013C282.68 257.856 277.215 237.548 286.372 221.598C295.529 205.721 315.836 200.256 331.787 209.413" stroke="url(#L)" stroke-width="15" class="B C"/><path d="M503.445 164.517C488.403 173.193 469.163 168.085 460.417 152.973C451.742 137.931 456.849 118.691 471.961 109.946C487.003 101.27 506.243 106.377 514.989 121.49" stroke="url(#M)" stroke-width="10" class="B C"/><g stroke-width="3.173" class="B C"><path d="M90.8433 365.533L1.99994 416.935" stroke="url(#N)" class="E"/><path d="M533.156 365.533L622 416.935" stroke="url(#O)" class="E"/><path d="M533.156 110.426L622 59.0234" stroke="url(#P)" class="E"/><path d="M90.8433 110.426L1.99994 59.0234" stroke="url(#Q)" class="E"/><path d="M312.952 91.3877V157.386" stroke="url(#R)" class="D"/><path d="M186.033 164.366L243.146 198" stroke="url(#S)" class="D"/><path d="M186.033 311.593L243.146 277.959" stroke="url(#T)" class="D"/><path d="M312.952 384.571V318.573" stroke="url(#U)" class="D"/><path d="M439.871 311.593L382.122 277.959" stroke="url(#V)" class="D"/><path d="M439.871 164.366L382.122 198" stroke="url(#W)" class="D"/></g><defs><linearGradient id="A" x1="283.595" y1="38.933" x2="177.667" y2="99.476" xlink:href="#X"><stop stop-color="#59fef4"/><stop offset="1" stop-color="#9e3ffe"/></linearGradient><linearGradient id="B" x1="131.902" y1="168.119" x2="125.299" y2="285.845" xlink:href="#X"><stop stop-color="#7147ec"/><stop offset="1" stop-color="#52e9f6"/></linearGradient><linearGradient id="C" x1="263.286" y1="427.19" x2="156.565" y2="364.823" xlink:href="#X"><stop stop-color="#6e59fe"/><stop offset="1" stop-color="#3fb0fc"/></linearGradient><linearGradient id="D" x1="455.775" y1="382.174" x2="352.226" y2="445.274" xlink:href="#X"><stop stop-color="#53edf6"/><stop offset="1" stop-color="#2766e8"/></linearGradient><linearGradient id="E" x1="501.346" y1="300.976" x2="501.346" y2="188.165" xlink:href="#X"><stop stop-color="#42bafb"/><stop offset="1" stop-color="#9742fe"/></linearGradient><linearGradient id="F" x1="472.905" y1="94.31" x2="367.715" y2="43.97" xlink:href="#X"><stop stop-color="#e914f4"/><stop offset="1" stop-color="#cfc7fe"/></linearGradient><linearGradient id="G" x1="344.697" y1="5" x2="281.73" y2="5" xlink:href="#X"><stop stop-color="#3aa0fe"/><stop offset="1" stop-color="#59fef4"/></linearGradient><linearGradient id="H" x1="169.164" y1="155.121" x2="109.475" y2="117.754" xlink:href="#X"><stop stop-color="#0575e6"/><stop offset="1" stop-color="#ff0cf5"/></linearGradient><linearGradient id="I" x1="170.262" y1="307.22" x2="111.438" y2="307.22" xlink:href="#X"><stop stop-color="#3aa0fe"/><stop offset="1" stop-color="#59fef4"/></linearGradient><linearGradient id="J" x1="343.646" y1="456.374" x2="281.73" y2="420.192" xlink:href="#X"><stop stop-color="#0575e6"/><stop offset="1" stop-color="#ff0cf5"/></linearGradient><linearGradient id="K" x1="519.195" y1="307.235" x2="456.211" y2="307.235" xlink:href="#X"><stop stop-color="#3aa0fe"/><stop offset="1" stop-color="#59fef4"/></linearGradient><linearGradient id="L" x1="329.602" y1="206.084" x2="290.157" y2="269.075" xlink:href="#X"><stop stop-color="#0575e6"/><stop offset="1" stop-color="#ff0cf5"/></linearGradient><linearGradient id="M" x1="514.007" y1="154.143" x2="454.225" y2="121.549" xlink:href="#X"><stop stop-color="#0575e6"/><stop offset="1" stop-color="#ff0cf5"/></linearGradient><linearGradient id="N" x1="92.302" y1="365.533" x2="2" y2="365.533" xlink:href="#X"><stop stop-color="#e1dcfe"/><stop offset="1" stop-color="#7e67fd"/></linearGradient><linearGradient id="O" x1="623.459" y1="365.533" x2="533.156" y2="365.533" xlink:href="#X"><stop stop-color="#e1dcfe"/><stop offset="1" stop-color="#7e67fd"/></linearGradient><linearGradient id="P" x1="623.459" y1="59.023" x2="533.156" y2="59.023" xlink:href="#X"><stop stop-color="#e1dcfe"/><stop offset="1" stop-color="#7e67fd"/></linearGradient><linearGradient id="Q" x1="92.302" y1="59.023" x2="2" y2="59.023" xlink:href="#X"><stop stop-color="#e1dcfe"/><stop offset="1" stop-color="#7e67fd"/></linearGradient><linearGradient id="R" x1="312.952" y1="159.5" x2="312.952" y2="91.388" xlink:href="#X"><stop stop-color="#8a54d0"/><stop offset="1" stop-color="#d71f7b"/></linearGradient><linearGradient id="S" x1="244.084" y1="164.366" x2="186.033" y2="164.366" xlink:href="#X"><stop stop-color="#e1dcfe"/><stop offset="1" stop-color="#7e67fd"/></linearGradient><linearGradient id="T" x1="244.084" y1="277.959" x2="186.033" y2="277.959" xlink:href="#X"><stop stop-color="#8a54d0"/><stop offset="1" stop-color="#d71f7b"/></linearGradient><linearGradient id="U" x1="312.952" y1="385" x2="312.952" y2="318.573" xlink:href="#X"><stop stop-color="#e1dcfe"/><stop offset="1" stop-color="#7e67fd"/></linearGradient><linearGradient id="V" x1="440.819" y1="277.959" x2="382.122" y2="277.959" xlink:href="#X"><stop stop-color="#8a54d0"/><stop offset="1" stop-color="#d71f7b"/></linearGradient><linearGradient id="W" x1="440.819" y1="164.366" x2="382.122" y2="164.366" xlink:href="#X"><stop stop-color="#e1dcfe"/><stop offset="1" stop-color="#7e67fd"/></linearGradient><linearGradient id="X" gradientUnits="userSpaceOnUse"/></defs></svg>