<svg width="624" height="476" viewBox="0 0 624 476" fill="none" xmlns="http://www.w3.org/2000/svg">
<path d="M172.516 93.7842C201.761 65.239 239.612 45.5792 281.8 38.9326" stroke="url(#paint0_linear_5_51)" stroke-width="10" stroke-miterlimit="10" stroke-linecap="round"/>
<path d="M118.014 287.794C107.87 248.194 109.759 205.586 125.081 165.707" stroke="url(#paint1_linear_5_51)" stroke-width="10" stroke-miterlimit="10" stroke-linecap="round"/>
<path d="M258.712 431.989C219.392 420.934 183.431 398.056 156.565 364.823" stroke="url(#paint2_linear_5_51)" stroke-width="10" stroke-miterlimit="10" stroke-linecap="round"/>
<path d="M453.981 382.174C424.736 410.72 386.885 430.379 344.697 437.026" stroke="url(#paint3_linear_5_51)" stroke-width="10" stroke-miterlimit="10" stroke-linecap="round"/>
<path d="M508.482 188.165C518.557 227.695 516.738 270.372 501.346 310.252" stroke="url(#paint4_linear_5_51)" stroke-width="10" stroke-miterlimit="10" stroke-linecap="round"/>
<path d="M367.715 43.9697C407.035 55.024 442.996 77.9022 469.862 111.135" stroke="url(#paint5_linear_5_51)" stroke-width="10" stroke-miterlimit="10" stroke-linecap="round"/>
<path d="M344.697 36.4837C344.697 53.9047 330.635 67.9674 313.214 67.9674C295.793 67.9674 281.73 53.9047 281.73 36.4837C281.73 19.0627 295.793 5 313.214 5" stroke="url(#paint6_linear_5_51)" stroke-width="10" stroke-miterlimit="10" stroke-linecap="round"/>
<path d="M154.466 109.946C169.508 118.621 174.685 137.861 166.01 152.974C157.334 168.086 138.024 173.193 122.982 164.518C107.94 155.842 102.762 136.532 111.438 121.49" stroke="url(#paint7_linear_5_51)" stroke-width="10" stroke-miterlimit="10" stroke-linecap="round"/>
<path d="M122.982 311.441C138.024 302.766 157.264 307.873 166.01 322.985C174.755 338.098 169.578 357.268 154.466 366.013C139.353 374.759 120.183 369.581 111.438 354.469" stroke="url(#paint8_linear_5_51)" stroke-width="10" stroke-miterlimit="10" stroke-linecap="round"/>
<path d="M281.73 439.475C281.73 422.054 295.793 407.991 313.214 407.991C330.635 407.991 344.697 422.054 344.697 439.475C344.697 456.896 330.635 470.959 313.214 470.959" stroke="url(#paint9_linear_5_51)" stroke-width="10" stroke-miterlimit="10" stroke-linecap="round"/>
<path d="M471.961 366.013C456.919 357.338 451.742 338.097 460.417 322.985C469.093 307.943 488.333 302.766 503.445 311.441C518.487 320.117 523.665 339.357 514.989 354.469" stroke="url(#paint10_linear_5_51)" stroke-width="10" stroke-miterlimit="10" stroke-linecap="round"/>
<path d="M343.971 254.828C334.815 270.705 314.507 276.169 298.557 267.013C282.68 257.856 277.215 237.548 286.372 221.598C295.529 205.721 315.836 200.256 331.787 209.413" stroke="url(#paint11_linear_5_51)" stroke-width="15" stroke-miterlimit="10" stroke-linecap="round"/>
<path d="M503.445 164.517C488.403 173.193 469.163 168.085 460.417 152.973C451.742 137.931 456.849 118.691 471.961 109.946C487.003 101.27 506.243 106.377 514.989 121.49" stroke="url(#paint12_linear_5_51)" stroke-width="10" stroke-miterlimit="10" stroke-linecap="round"/>
<path opacity="0.25" d="M90.8433 365.533L1.99994 416.935" stroke="url(#paint13_linear_5_51)" stroke-width="3.17298" stroke-miterlimit="10" stroke-linecap="round"/>
<path opacity="0.25" d="M533.156 365.533L622 416.935" stroke="url(#paint14_linear_5_51)" stroke-width="3.17298" stroke-miterlimit="10" stroke-linecap="round"/>
<path opacity="0.25" d="M533.156 110.426L622 59.0234" stroke="url(#paint15_linear_5_51)" stroke-width="3.17298" stroke-miterlimit="10" stroke-linecap="round"/>
<path opacity="0.25" d="M90.8433 110.426L1.99994 59.0234" stroke="url(#paint16_linear_5_51)" stroke-width="3.17298" stroke-miterlimit="10" stroke-linecap="round"/>
<path opacity="0.49" d="M312.952 91.3877V157.386" stroke="url(#paint17_linear_5_51)" stroke-width="3.17298" stroke-miterlimit="10" stroke-linecap="round"/>
<path opacity="0.49" d="M186.033 164.366L243.146 198" stroke="url(#paint18_linear_5_51)" stroke-width="3.17298" stroke-miterlimit="10" stroke-linecap="round"/>
<path opacity="0.49" d="M186.033 311.593L243.146 277.959" stroke="url(#paint19_linear_5_51)" stroke-width="3.17298" stroke-miterlimit="10" stroke-linecap="round"/>
<path opacity="0.49" d="M312.952 384.571V318.573" stroke="url(#paint20_linear_5_51)" stroke-width="3.17298" stroke-miterlimit="10" stroke-linecap="round"/>
<path opacity="0.49" d="M439.871 311.593L382.122 277.959" stroke="url(#paint21_linear_5_51)" stroke-width="3.17298" stroke-miterlimit="10" stroke-linecap="round"/>
<path opacity="0.49" d="M439.871 164.366L382.122 198" stroke="url(#paint22_linear_5_51)" stroke-width="3.17298" stroke-miterlimit="10" stroke-linecap="round"/>
<defs>
<linearGradient id="paint0_linear_5_51" x1="283.595" y1="38.9326" x2="177.667" y2="99.4763" gradientUnits="userSpaceOnUse">
<stop stop-color="#59FEF4"/>
<stop offset="1" stop-color="#9E3FFE"/>
</linearGradient>
<linearGradient id="paint1_linear_5_51" x1="131.902" y1="168.119" x2="125.299" y2="285.845" gradientUnits="userSpaceOnUse">
<stop stop-color="#7147EC"/>
<stop offset="1" stop-color="#52E9F6"/>
</linearGradient>
<linearGradient id="paint2_linear_5_51" x1="263.286" y1="427.19" x2="156.565" y2="364.823" gradientUnits="userSpaceOnUse">
<stop stop-color="#6E59FE"/>
<stop offset="1" stop-color="#3FB0FC"/>
</linearGradient>
<linearGradient id="paint3_linear_5_51" x1="455.775" y1="382.174" x2="352.226" y2="445.274" gradientUnits="userSpaceOnUse">
<stop stop-color="#53EDF6"/>
<stop offset="1" stop-color="#2766E8"/>
</linearGradient>
<linearGradient id="paint4_linear_5_51" x1="501.346" y1="300.976" x2="501.346" y2="188.165" gradientUnits="userSpaceOnUse">
<stop stop-color="#42BAFB"/>
<stop offset="1" stop-color="#9742FE"/>
</linearGradient>
<linearGradient id="paint5_linear_5_51" x1="472.905" y1="94.3095" x2="367.715" y2="43.9697" gradientUnits="userSpaceOnUse">
<stop stop-color="#E914F4"/>
<stop offset="1" stop-color="#CFC7FE"/>
</linearGradient>
<linearGradient id="paint6_linear_5_51" x1="344.697" y1="5" x2="281.73" y2="5" gradientUnits="userSpaceOnUse">
<stop stop-color="#3AA0FE"/>
<stop offset="1" stop-color="#59FEF4"/>
</linearGradient>
<linearGradient id="paint7_linear_5_51" x1="169.164" y1="155.121" x2="109.475" y2="117.754" gradientUnits="userSpaceOnUse">
<stop stop-color="#0575E6"/>
<stop offset="1" stop-color="#FF0CF5"/>
</linearGradient>
<linearGradient id="paint8_linear_5_51" x1="170.262" y1="307.22" x2="111.438" y2="307.22" gradientUnits="userSpaceOnUse">
<stop stop-color="#3AA0FE"/>
<stop offset="1" stop-color="#59FEF4"/>
</linearGradient>
<linearGradient id="paint9_linear_5_51" x1="343.646" y1="456.374" x2="281.73" y2="420.192" gradientUnits="userSpaceOnUse">
<stop stop-color="#0575E6"/>
<stop offset="1" stop-color="#FF0CF5"/>
</linearGradient>
<linearGradient id="paint10_linear_5_51" x1="519.195" y1="307.235" x2="456.211" y2="307.235" gradientUnits="userSpaceOnUse">
<stop stop-color="#3AA0FE"/>
<stop offset="1" stop-color="#59FEF4"/>
</linearGradient>
<linearGradient id="paint11_linear_5_51" x1="329.602" y1="206.084" x2="290.157" y2="269.075" gradientUnits="userSpaceOnUse">
<stop stop-color="#0575E6"/>
<stop offset="1" stop-color="#FF0CF5"/>
</linearGradient>
<linearGradient id="paint12_linear_5_51" x1="514.007" y1="154.143" x2="454.225" y2="121.549" gradientUnits="userSpaceOnUse">
<stop stop-color="#0575E6"/>
<stop offset="1" stop-color="#FF0CF5"/>
</linearGradient>
<linearGradient id="paint13_linear_5_51" x1="92.3024" y1="365.533" x2="1.99994" y2="365.533" gradientUnits="userSpaceOnUse">
<stop stop-color="#E1DCFE"/>
<stop offset="1" stop-color="#7E67FD"/>
</linearGradient>
<linearGradient id="paint14_linear_5_51" x1="623.459" y1="365.533" x2="533.156" y2="365.533" gradientUnits="userSpaceOnUse">
<stop stop-color="#E1DCFE"/>
<stop offset="1" stop-color="#7E67FD"/>
</linearGradient>
<linearGradient id="paint15_linear_5_51" x1="623.459" y1="59.0234" x2="533.156" y2="59.0234" gradientUnits="userSpaceOnUse">
<stop stop-color="#E1DCFE"/>
<stop offset="1" stop-color="#7E67FD"/>
</linearGradient>
<linearGradient id="paint16_linear_5_51" x1="92.3024" y1="59.0234" x2="1.99994" y2="59.0234" gradientUnits="userSpaceOnUse">
<stop stop-color="#E1DCFE"/>
<stop offset="1" stop-color="#7E67FD"/>
</linearGradient>
<linearGradient id="paint17_linear_5_51" x1="312.952" y1="159.5" x2="312.952" y2="91.3877" gradientUnits="userSpaceOnUse">
<stop stop-color="#8A54D0"/>
<stop offset="1" stop-color="#D71F7B"/>
</linearGradient>
<linearGradient id="paint18_linear_5_51" x1="244.084" y1="164.366" x2="186.033" y2="164.366" gradientUnits="userSpaceOnUse">
<stop stop-color="#E1DCFE"/>
<stop offset="1" stop-color="#7E67FD"/>
</linearGradient>
<linearGradient id="paint19_linear_5_51" x1="244.084" y1="277.959" x2="186.033" y2="277.959" gradientUnits="userSpaceOnUse">
<stop stop-color="#8A54D0"/>
<stop offset="1" stop-color="#D71F7B"/>
</linearGradient>
<linearGradient id="paint20_linear_5_51" x1="312.952" y1="385" x2="312.952" y2="318.573" gradientUnits="userSpaceOnUse">
<stop stop-color="#E1DCFE"/>
<stop offset="1" stop-color="#7E67FD"/>
</linearGradient>
<linearGradient id="paint21_linear_5_51" x1="440.819" y1="277.959" x2="382.122" y2="277.959" gradientUnits="userSpaceOnUse">
<stop stop-color="#8A54D0"/>
<stop offset="1" stop-color="#D71F7B"/>
</linearGradient>
<linearGradient id="paint22_linear_5_51" x1="440.819" y1="164.366" x2="382.122" y2="164.366" gradientUnits="userSpaceOnUse">
<stop stop-color="#E1DCFE"/>
<stop offset="1" stop-color="#7E67FD"/>
</linearGradient>
</defs>
</svg>
