<svg xmlns="http://www.w3.org/2000/svg" xmlns:xlink="http://www.w3.org/1999/xlink" width="120" height="120" fill="none" xmlns:v="https://vecta.io/nano"><path fill-rule="evenodd" d="M35.059 103.337C20.088 94.693 10 78.516 10 60c0-27.596 22.404-50 50-50s50 22.404 50 50c0 18.493-10.063 34.654-25.005 43.305-2.389 1.383-3.205 4.445-1.822 6.833s4.444 3.204 6.832 1.821C107.932 101.58 120 82.188 120 60c0-33.115-26.885-60-60-60S0 26.885 0 60c0 22.214 12.097 41.626 30.059 51.997 2.39 1.38 5.451.559 6.831-1.83s.559-5.451-1.831-6.83z" fill="url(#A)"/><path d="M60 120a9 9 0 1 0 0-18 9 9 0 1 0 0 18z" fill="url(#B)"/><g fill-rule="evenodd"><path d="M51.392 88.201c2.628-1.182 5.542-1.838 8.608-1.838s5.98.656 8.608 1.838c2.516 1.133 5.479.009 6.611-2.508s.008-5.479-2.509-6.611c-3.88-1.746-8.182-2.719-12.71-2.719s-8.83.973-12.71 2.719c-2.517 1.132-3.641 4.094-2.509 6.611s4.095 3.641 6.611 2.508z" fill="url(#C)"/><path d="M44.766 68.222c4.643-2.118 9.802-3.296 15.234-3.296s10.591 1.178 15.234 3.296c2.511 1.145 5.479.036 6.624-2.475s.037-5.478-2.474-6.624C73.476 56.429 66.912 54.926 60 54.926s-13.476 1.503-19.384 4.197c-2.511 1.146-3.619 4.114-2.474 6.624s4.113 3.62 6.624 2.475z" fill="url(#D)"/><path d="M37.921 47.805C44.644 44.719 52.123 43 60 43s15.356 1.719 22.079 4.805c2.508 1.151 5.479.049 6.63-2.459s.049-5.478-2.459-6.629A62.77 62.77 0 0 0 60 33a62.77 62.77 0 0 0-26.25 5.717c-2.508 1.151-3.61 4.121-2.459 6.629s4.122 3.61 6.63 2.459z" fill="url(#E)"/></g><defs><linearGradient id="A" x1="17" y1="18" x2="99" y2="105" xlink:href="#F"><stop stop-color="#ff0cf5"/><stop offset="1" stop-color="#0575e6"/></linearGradient><linearGradient id="B" x1="51" y1="111" x2="69" y2="111" xlink:href="#F"><stop stop-color="#a83afe"/><stop offset="1" stop-color="#6e59fe"/></linearGradient><linearGradient id="C" x1="33.969" y1="107.394" x2="86.031" y2="107.394" xlink:href="#F"><stop stop-color="#a83afe"/><stop offset="1" stop-color="#6e59fe"/></linearGradient><linearGradient id="D" x1="28" y1="58" x2="90" y2="83" xlink:href="#F"><stop stop-color="#ff0cf5"/><stop offset="1" stop-color="#0575e6"/></linearGradient><linearGradient id="E" x1="36" y1="30" x2="80" y2="56" xlink:href="#F"><stop stop-color="#ff0cf5"/><stop offset="1" stop-color="#0575e6"/></linearGradient><linearGradient id="F" gradientUnits="userSpaceOnUse"/></defs></svg>