<svg xmlns="http://www.w3.org/2000/svg" width="120" height="120" fill="none" xmlns:v="https://vecta.io/nano"><g fill-rule="evenodd"><path d="M46.612 36.198H26.777a4.96 4.96 0 0 0-4.959 4.959 4.96 4.96 0 0 0 4.959 4.959h19.835a4.96 4.96 0 0 0 4.959-4.959 4.96 4.96 0 0 0-4.959-4.959z" fill="url(#A)"/><path d="M83.047 62.975L65.267 4.022A4.96 4.96 0 0 0 60.52.496H32.751a4.96 4.96 0 0 0-4.805 3.736L.178 113.323a4.96 4.96 0 0 0 .89 4.266 4.96 4.96 0 0 0 3.915 1.915h109.091a4.96 4.96 0 0 0 4.059-2.11c.928-1.323 1.153-3.015.604-4.536l-16.86-46.611a4.96 4.96 0 0 0-4.663-3.272H83.047zm-3.751 9.917H50.603a4.96 4.96 0 0 1-4.959-4.959 4.96 4.96 0 0 1 4.959-4.959h22.086L56.837 10.413h-20.23l-25.245 99.174h95.646L93.735 72.893H79.368l-.049.001-.023-.001z" fill="url(#B)"/></g><defs><linearGradient id="A" x1="18.843" y1="33.223" x2="69.422" y2="55.041" gradientUnits="userSpaceOnUse"><stop stop-color="#a83afe"/><stop offset="1" stop-color="#6e59fe"/></linearGradient><linearGradient id="B" x1="27.793" y1="3.471" x2="118.04" y2="118.512" gradientUnits="userSpaceOnUse"><stop stop-color="#ff0cf5"/><stop offset="1" stop-color="#0575e6"/></linearGradient></defs></svg>