<svg xmlns="http://www.w3.org/2000/svg" width="30" height="36" fill="none" xmlns:v="https://vecta.io/nano"><path d="M16.724 31.441c-1.348.09-2.605.09-3.952-.18-1.886-.359-3.683-1.078-5.3-2.246-2.425-1.707-4.132-4.043-5.12-6.827-.359-1.078-.629-2.156-.719-3.324-.269-2.875.539-5.39 1.886-7.905C5.854 6.558 9.358 3.324 13.49.719c.27-.18.629-.359.898-.539.18-.09.359-.18.629-.18s.359.18.27.359a1.24 1.24 0 0 1-.27.359c-.719 1.078-.988 2.336-1.258 3.593h2.246c2.605.09 4.941.988 7.007 2.425 2.425 1.707 4.132 4.042 5.031 6.827.988 2.964.988 5.929-.18 8.893-1.707 4.312-4.492 7.815-8.175 10.6-1.168.898-2.425 1.617-3.593 2.425l-.539.269c-.09 0-.359 0-.449-.09s0-.27.09-.359c.629-.988.988-2.066 1.258-3.144.09-.09.18-.359.27-.719zm-1.527-8.175a5.41 5.41 0 0 0 5.39-5.39c0-2.964-2.425-5.3-5.3-5.3-2.964 0-5.39 2.425-5.39 5.3 0 3.054 2.336 5.39 5.3 5.39z" fill="#dcdcdc"/></svg>