<svg xmlns="http://www.w3.org/2000/svg" width="38" height="34" fill="none" xmlns:v="https://vecta.io/nano"><g clip-path="url(#A)"><path d="M36.96 18.601v.359c-.09.27-.27.539-.359.808-.269.27-.539.629-.808.898-1.707 1.617-3.683 2.785-5.929 3.593-.09 0-.18.09-.27.18-.449.629-.808 1.348-1.258 1.976-.719 1.078-1.527 2.156-2.426 3.054-1.437 1.437-2.964 2.695-4.761 3.593h-.719c-.18-.09-.449-.09-.629-.18-.898-.359-1.617-.899-2.246-1.527l-1.797-1.976c-.27-.359-.629-.629-1.078-.719s-.898-.18-1.348-.359l-2.156-.629c-.449-.18-.719-.449-.809-.898 0-.18-.09-.27-.18-.449-.539-1.527-.988-3.054-1.707-4.492-1.078-2.426-2.426-4.671-3.953-6.827l-3.054-4.043a2.73 2.73 0 0 1-.449-.629v-.09c.09 0 .09 0 .18-.09l2.336-1.168c.988-.449 1.887-.898 2.695-1.527 1.527-1.168 3.054-2.426 4.402-3.863.988-.988 1.886-2.066 2.785-3.144 0 0 .09 0 .09.09l6.737 4.761c.09.09.18.09.27 0l2.426-1.797 2.515-1.797c.09 0 .09.09.18.09l9.163 6.109c.09.09.09.18.09.27l-.898 2.156c-.18.449-.27.898-.27 1.348 0 1.078.27 2.156.719 3.144.359.809.898 1.437 1.347 2.156.449.449.898.988 1.168 1.617zm-18.057 5.57c0-.09-.09-.09-.09-.09-.629-.719-1.168-1.617-1.527-2.515-.629-1.437-.988-2.875-1.258-4.402l-.269-1.976c.09.09.09.09.09.18.449 1.527 1.078 3.054 1.797 4.492.719 1.348 1.527 2.605 2.515 3.683.09.09.18.18.27.09l2.965-.898a4.38 4.38 0 0 1 .629-.27c-.898-1.078-1.707-2.156-2.156-3.414s-.719-2.605-.719-3.953c0 .09.09.09.09.18l.539 1.437c.809 1.976 2.066 3.593 3.504 5.121 0 0 .18.09.18 0 .539-.18 1.078-.449 1.527-.629l1.168-.629v-.09c-.988-1.258-1.527-2.695-1.707-4.222l-.27-2.066v-.449h.09c.449 2.336 1.437 4.492 2.875 6.378.27-.18.539-.27.719-.449.898-.449 1.797-.988 2.515-1.617.449-.449.539-.629.27-1.258-.09-.359-.27-.629-.449-.988-.449-1.168-.988-2.336-1.078-3.593-.09-.898 0-1.707.359-2.515.09-.09 0-.18-.09-.27l-2.605-2.156c-.359-.359-.809-.629-1.258-.988l-2.336 2.695c-.09-.09-.18-.09-.27-.18l-2.785-1.527c-.09-.09-.18-.09-.27 0l-1.527 1.348-1.348 1.168-5.57-4.492c-.09.09-.09.18-.18.18l-1.797 2.426-2.156 2.695c-.629.809-1.617 1.168-2.515 1.527-.18 0-.269 0-.359.09.09.09.09.18.09.18l2.156 2.875c1.617 2.066 3.054 4.222 4.043 6.648.359.719.719 1.437 1.258 2.066.449.449.898.719 1.527.809.359 0 .719 0 1.078-.09.809-.09 1.527-.359 2.336-.539zm-1.886 2.156l2.965 2.246c.09.09.269.18.449.18.359 0 .719-.18.988-.359.988-.719 2.066-1.527 2.965-2.426.539-.539.988-1.078 1.168-1.797 0-.09.09-.27.09-.449-2.785.988-5.659 2.066-8.624 2.605z" fill="#dcdcdc"/></g><defs><clipPath id="A"><path fill="#fff" transform="translate(.6 .4)" d="M0 0h37.2v33.6H0z"/></clipPath></defs></svg>