<svg xmlns="http://www.w3.org/2000/svg" width="37" height="36" fill="none" xmlns:v="https://vecta.io/nano"><g clip-path="url(#A)" fill="#dcdcdc"><path d="M19.914 13.295c0-2.515 2.066-4.581 4.581-4.581s4.491 2.066 4.491 4.581-2.066 4.581-4.581 4.492c-2.515.09-4.492-1.976-4.492-4.492zm4.581-3.414c-1.886 0-3.414 1.527-3.414 3.414s1.527 3.413 3.324 3.413a3.41 3.41 0 0 0 3.413-3.413c0-1.886-1.437-3.414-3.324-3.414zM9.673 26.499l2.156.898c1.707.718 3.414-.27 3.863-1.976.27-1.258-.359-2.695-1.617-3.234-.719-.359-1.527-.629-2.246-.898 1.258-.629 3.683-.27 4.671 1.797.988 1.976.18 4.312-1.797 5.3-1.886.808-4.222-.09-5.03-1.886zm26.5-11.767c-.449-2.246-1.168-4.222-2.336-6.109C30.783 3.414 25.034 0 18.566 0 9.044 0 1.319 7.276.6 16.529l9.342 3.863c.18.09.359 0 .539 0 .809-.449 1.707-.719 2.605-.719.18 0 .359-.09.449-.269l3.953-5.839c.09-.18.18-.359.18-.539.09-3.503 2.964-6.468 6.378-6.647 3.593-.18 6.648 2.425 7.097 5.929.539 3.953-2.515 7.546-6.558 7.725-.269 0-.449.09-.629.27l-5.48 3.953c-.18.18-.269.269-.269.539-.09 2.515-1.976 4.671-4.402 4.941-2.605.27-4.941-1.258-5.659-3.773 0-.09-.18-.269-.269-.359L1.23 22.819c2.156 7.636 9.073 13.115 17.337 13.115 7.276 0 13.564-4.312 16.439-10.51v-.09c1.437-3.324 1.886-7.007 1.168-10.6z"/></g><defs><clipPath id="A"><path fill="#fff" transform="translate(.6)" d="M0 0h36v36H0z"/></clipPath></defs></svg>