<svg xmlns="http://www.w3.org/2000/svg" width="38" height="36" fill="none" xmlns:v="https://vecta.io/nano"><g clip-path="url(#A)"><path d="M21.653 35.844h-4.312l-2.335-.527C5.843 32.857-.086 23.545 1.89 14.496 3.417 7.468 7.729 2.723 14.826.615 15.814.351 16.892.176 17.88 0h3.144c1.168.264 2.425.439 3.503.791 8.803 2.636 14.373 11.86 12.486 20.646-1.617 7.38-6.198 12.124-13.654 14.144l-1.707.264zM5.573 21.173c.09 0 .09.088.18.088 2.785-6.677 7.186-11.509 15.002-12.475-.629-.791-1.258-1.493-1.797-2.196 0-.088.09-.088.09-.176l6.737 2.108-4.761 4.656v-2.811c-.898.439-1.886.791-2.605 1.318-1.527 1.054-2.515 2.548-3.324 4.129-1.168 2.46-1.797 5.096-1.976 7.819-.09.966 0 2.021 0 2.987 3.863 0 9.432-3.953 9.612-6.94-.719.176-1.527.263-2.425.439l4.132-5.183c1.168 1.933 2.246 3.865 3.324 5.798-.09 0-.09.088-.18.088l-2.515-1.054c.988 4.041.719 7.907-.719 11.772.449-.176.719-.264.988-.439 6.198-2.811 9.522-9.488 8.085-16.253-1.617-7.731-9.342-12.651-17.158-10.894C9.076 5.623 4.226 12.739 5.393 19.943c0 .352.09.791.18 1.23z" fill="#dcdcdc"/></g><defs><clipPath id="A"><path fill="#fff" transform="translate(.4)" d="M0 0h37.2v36H0z"/></clipPath></defs></svg>