<svg xmlns="http://www.w3.org/2000/svg" xmlns:xlink="http://www.w3.org/1999/xlink" width="330" height="330" fill="none" xmlns:v="https://vecta.io/nano"><g clip-path="url(#N)"><g fill-rule="evenodd"><path d="M259.217 212.868c0-2.759 2.24-5 5-5s5 2.241 5 5v65.953c0 2.761 2.24 5 5 5h50.79c2.76 0 5 2.24 5 5s-2.24 5-5 5h-50.79a15 15 0 0 1-15-15v-65.953z" fill="url(#C)"/><path d="M217.25 235.285c0-2.759 2.24-5 5-5s5 2.241 5 5v34.729c0 2.76-2.24 5-5 5s-5-2.24-5-5v-34.729z" fill="url(#D)"/><path d="M119.375 242.873c0-2.76 2.242-5 5.002-5s5 2.24 5 5v35.948c0 8.284-6.72 15-15.002 15H7.686c-2.759 0-5-2.241-5-5s2.241-5 5-5h106.689a5 5 0 0 0 5-5v-35.948z" fill="url(#E)"/><path d="M7.677 281.142c4.3 0 7.699 3.44 7.699 7.67a7.66 7.66 0 0 1-7.699 7.68c-4.2 0-7.601-3.44-7.601-7.68 0-4.23 3.401-7.67 7.601-7.67zm314.699 0c4.2 0 7.7 3.44 7.7 7.67 0 4.24-3.5 7.68-7.7 7.68s-7.699-3.44-7.699-7.68c0-4.23 3.499-7.67 7.699-7.67zm-100.1-14.84c4.2 0 7.7 3.44 7.7 7.67 0 4.24-3.5 7.68-7.7 7.68s-7.7-3.44-7.7-7.68c0-4.23 3.5-7.67 7.7-7.67z" fill="#fff"/><path d="M48.282 200.757l114.488-57.244c1.41-.704 3.06-.704 4.47 0l114.49 57.244c1.69.847 2.76 2.578 2.76 4.472s-1.07 3.625-2.76 4.472l-114.49 57.243c-1.41.704-3.06.704-4.47 0L48.282 209.701a5 5 0 0 1 0-8.944zm13.416 4.472L165 256.882l103.31-51.653L165 153.576 61.698 205.229z" fill="url(#F)"/></g><g filter="url(#A)"><g filter="url(#B)"><path fill-rule="evenodd" d="M180.606 205.853c-.749 6.703-8.136 11.392-16.477 10.474-8.325-.916-14.487-7.086-13.74-13.777.749-6.703 8.136-11.392 16.477-10.474 4.589.505 8.643-2.085 9.049-5.781s-2.992-7.107-7.58-7.612c-17.513-1.928-33.001 7.941-34.573 22.015-1.574 14.086 11.37 27.094 28.899 29.023 17.512 1.927 33-7.942 34.572-22.016.413-3.695-2.977-7.11-7.565-7.621s-8.649 2.074-9.062 5.769z" fill="url(#G)" fill-opacity=".6"/></g></g><g fill-rule="evenodd"><path d="M186.432 145.626c-3.881 10.921-15.927 16.63-26.876 12.759-10.929-3.864-16.672-15.844-12.798-26.745 3.881-10.921 15.927-16.629 26.876-12.758 6.024 2.129 12.643-1.032 14.774-7.056s-1.033-12.643-7.056-14.773c-22.989-8.127-48.263 3.905-56.411 26.834-8.156 22.949 3.888 48.192 26.898 56.326 22.988 8.128 48.262-3.905 56.41-26.834 2.14-6.02-1.012-12.644-7.032-14.784s-12.645 1.011-14.785 7.031z" fill="url(#H)"/><path d="M50.518 205.23V90.743L165 147.986v114.487L50.518 205.23z" fill="url(#I)"/><path d="M50.518 205.23V90.743L165 147.986v114.487L50.518 205.23z" fill="url(#J)"/><path d="M165 262.473l114.49-57.243V90.743L165 147.986v114.487z" fill="url(#K)"/><path d="M50.518 205.229l114.489-57.243V33.499L50.518 90.742v114.487z" fill="url(#L)"/><path d="M165 33.5v114.486l114.49 57.244V90.743L165 33.5z" fill="url(#M)"/></g></g><defs><filter id="A" x="133.581" y="178.39" width="63.739" height="51.623" filterUnits="userSpaceOnUse" color-interpolation-filters="sRGB"><feFlood flood-opacity="0"/><feBlend in="SourceGraphic"/><feGaussianBlur stdDeviation=".026"/></filter><filter id="B" x="118.633" y="163.442" width="93.635" height="81.519" filterUnits="userSpaceOnUse" color-interpolation-filters="sRGB"><feFlood flood-opacity="0"/><feBlend in="SourceGraphic"/><feGaussianBlur stdDeviation="7.5"/></filter><linearGradient id="C" x1="335.007" y1="291.499" x2="264.215" y2="212.868" xlink:href="#O"><stop stop-color="#59fef4"/><stop offset="1" stop-color="#226aea"/></linearGradient><linearGradient id="D" x1="228.96" y1="280.014" x2="229.96" y2="247.33" xlink:href="#O"><stop stop-color="#52e8f6"/><stop offset="1" stop-color="#3162e9"/></linearGradient><linearGradient id="E" x1="5.008" y1="291.162" x2="142.375" y2="252.873" xlink:href="#O"><stop stop-color="#fff"/><stop offset="1" stop-color="#9839f1"/></linearGradient><linearGradient id="F" x1="50.518" y1="205.229" x2="279.49" y2="205.229" xlink:href="#O"><stop stop-color="#ff0cf5"/><stop offset="1" stop-color="#0575e6"/></linearGradient><linearGradient id="G" x1="150.795" y1="188.842" x2="171.807" y2="224.672" xlink:href="#O"><stop stop-color="#a60cf5"/><stop offset="1" stop-color="#051ae6"/></linearGradient><linearGradient id="H" x1="153.165" y1="108.99" x2="190.18" y2="161.028" xlink:href="#O"><stop stop-color="#ff0cf5"/><stop offset="1" stop-color="#0575e6"/></linearGradient><linearGradient id="I" x1="50.518" y1="90.743" x2="165.005" y2="262.473" xlink:href="#O"><stop stop-color="#a83afe" stop-opacity=".4"/><stop offset="1" stop-color="#6e59fe" stop-opacity=".08"/></linearGradient><linearGradient id="J" x1="50.518" y1="90.743" x2="165.005" y2="262.473" xlink:href="#O"><stop stop-color="#e09aff" stop-opacity=".4"/><stop offset="1" stop-color="#6e59fe" stop-opacity="0"/></linearGradient><linearGradient id="K" x1="165" y1="147.986" x2="279.487" y2="205.229" xlink:href="#O"><stop stop-color="#a83afe" stop-opacity=".4"/><stop offset="1" stop-color="#6e59fe" stop-opacity=".08"/></linearGradient><linearGradient id="L" x1="50.518" y1="90.742" x2="165.005" y2="147.985" xlink:href="#O"><stop stop-color="#a83afe" stop-opacity=".4"/><stop offset="1" stop-color="#6e59fe" stop-opacity=".08"/></linearGradient><linearGradient id="M" x1="279.49" y1="90.743" x2="165.003" y2="147.986" xlink:href="#O"><stop stop-color="#a83afe" stop-opacity=".2"/><stop offset="1" stop-color="#6e59fe" stop-opacity=".04"/></linearGradient><clipPath id="N"><path fill="#fff" d="M0 0h330v330H0z"/></clipPath><linearGradient id="O" gradientUnits="userSpaceOnUse"/></defs></svg>