<svg xmlns="http://www.w3.org/2000/svg" width="299" height="320" fill="none" xmlns:v="https://vecta.io/nano"><g clip-path="url(#D)" fill-rule="evenodd"><path d="M19.158 86.633v100.771c0 2.754 2.247 4.99 5.017 4.99s5.017-2.236 5.017-4.99v-80.473c0-13.707 8.382-25.8 22.1-35.58 22.145-15.787 57.926-25.402 98.211-25.402s76.061 9.903 98.205 25.747c13.711 9.81 22.107 21.826 22.107 35.235v85.451c0 2.405 1.714 4.415 3.993 4.886l.014.003.123.023.124.021.125.017.125.015.128.011.127.008.129.005.129.001.13-.001.128-.005.128-.008.127-.011.126-.015.125-.017.124-.021.123-.023.122-.027.12-.029.12-.032.118-.036.117-.038.117-.04.114-.044.114-.046.111-.049.11-.05.11-.054.107-.057.105-.059.105-.061.102-.064.102-.066.099-.069.097-.07.095-.073.095-.075.092-.078.089-.079.089-.082.086-.083.084-.086.083-.088.079-.089.078-.092.075-.094.074-.094.071-.097.069-.099.066-.101.064-.102.062-.103.059-.105.057-.107.054-.109.051-.109.05-.111.046-.113.044-.114.04-.116.038-.116.035-.118.033-.119.029-.12.028-.121.023-.122.021-.124.017-.124.014-.125.012-.126.008-.128.005-.128.001-.128V86.633c0-19.793-9.522-37.866-25.876-52.346C230.395 13.411 192.396 0 149.503 0S68.617 13.049 45.04 33.85C28.692 48.273 19.158 66.418 19.158 86.633zm249.937-8.548c-2.318-13.637-10.122-26.01-21.793-36.344-22.05-19.523-57.686-31.762-97.799-31.762S73.749 21.861 51.698 41.316C40.085 51.561 32.311 63.911 29.949 77.693c4.107-5.2 9.314-10.045 15.497-14.453 23.483-16.742 61.338-27.272 104.057-27.272s80.58 10.822 104.064 27.625c6.201 4.436 11.418 9.297 15.528 14.492z" fill="url(#A)"/><path d="M39.909 160.179a29.69 29.69 0 0 0-5.792 17.651v1.661h-9.941c-2.771 0-5.017 2.234-5.017 4.99v36.991c0 2.755 2.246 4.99 5.017 4.99h9.941v1.267c0 16.524 13.488 29.939 30.101 29.939h170.572c16.614 0 30.101-13.415 30.101-29.939v-1.596h9.942c2.771 0 5.017-2.234 5.017-4.99v-36.991c0-2.756-2.246-4.989-5.017-4.989h-9.942v-1.333c0-6.598-2.15-12.7-5.792-17.651l-28.962-53.514c-4.374-8.083-12.858-13.124-22.088-13.124h-23.972c-5.384 0-10.357 2.86-13.044 7.501l-6.915 11.948c-.896 1.547-2.554 2.5-4.348 2.5h-20.531c-1.794 0-3.453-.953-4.348-2.5l-6.916-11.948c-2.686-4.641-7.66-7.501-13.043-7.501H90.958c-9.229 0-17.712 5.041-22.087 13.124l-28.962 53.514zm210.877 5.606c-3.665-4.808-9.469-7.914-15.997-7.914H64.217c-6.528 0-12.331 3.106-15.997 7.914a4.9 4.9 0 0 1-.111.145 19.8 19.8 0 0 0-3.959 11.9v49.899c0 11.016 8.992 19.96 20.067 19.96h170.572c11.076 0 20.067-8.944 20.067-19.96V177.83c-.004-1.516-.17-3.028-.514-4.506-.616-2.648-1.786-5.146-3.402-7.337l-.043-.057-.111-.145zm-216.67 23.686h-4.925v27.011h4.925v-27.011zm230.774-.329v27.012h4.925v-27.012h-4.925zM159.769 125.47h-20.531c-5.383 0-10.357-2.861-13.043-7.501l-6.916-11.948c-.895-1.547-2.554-2.5-4.348-2.5H90.958c-5.538 0-10.628 3.024-13.252 7.874l-20.15 37.234a30.28 30.28 0 0 1 6.662-.738h170.572c2.29 0 4.519.255 6.663.738l-20.151-37.234c-2.625-4.85-7.715-7.874-13.253-7.874h-23.972a5.02 5.02 0 0 0-4.348 2.5l-6.916 11.948c-2.686 4.64-7.659 7.501-13.043 7.501z" fill="url(#B)"/><path d="M22.071 320c-2.769 0-5.017-2.235-5.017-4.99s2.247-4.99 5.017-4.99h271.912c2.769 0 5.017 2.237 5.017 4.99s-2.248 4.99-5.017 4.99H22.071z" fill="url(#C)"/><path d="M59.52 310.02c2.769 0 5.017 2.236 5.017 4.989s-2.248 4.99-5.017 4.99H5.017c-2.769 0-5.017-2.236-5.017-4.99s2.248-4.989 5.017-4.989H59.52z" fill="#fff"/></g><defs><linearGradient id="A" x1="27.465" y1="2.342" x2="30.32" y2="181.408" gradientUnits="userSpaceOnUse"><stop stop-color="#670cf5"/><stop offset="1" stop-color="#400092"/></linearGradient><linearGradient id="B" x1="59.523" y1="97.631" x2="263.646" y2="247.519" gradientUnits="userSpaceOnUse"><stop stop-color="#ff0cf5"/><stop offset="1" stop-color="#0575e6"/></linearGradient><linearGradient id="C" x1="17.823" y1="315.01" x2="283.786" y2="315.01" gradientUnits="userSpaceOnUse"><stop stop-color="#3aa0fe"/><stop offset="1" stop-color="#59fef4"/></linearGradient><clipPath id="D"><path fill="#fff" d="M0 0h299v320H0z"/></clipPath></defs></svg>