<svg xmlns="http://www.w3.org/2000/svg" xmlns:xlink="http://www.w3.org/1999/xlink" width="299" height="320" fill="none" xmlns:v="https://vecta.io/nano"><g clip-path="url(#H)"><g fill-rule="evenodd"><path d="M59.804 312.851a4.99 4.99 0 0 0 .52 4.648 5.01 5.01 0 0 0 4.141 2.185l229.528-.082c1.663 0 3.218-.826 4.15-2.202a5 5 0 0 0 .494-4.666l-28.835-71.466c-.764-1.895-2.606-3.135-4.653-3.132l-172.542.259a5.01 5.01 0 0 0-4.652 3.167l-28.151 71.289zm12.018-3.168l24.203-61.294 165.751-.249 24.799 61.466-214.753.077zm175.574-13.336h12.504a5.01 5.01 0 0 0 5.008-5 5.01 5.01 0 0 0-5.008-5h-12.504c-2.764 0-5.008 2.24-5.008 5s2.244 5 5.008 5zm-149.174 0h12.999c2.764 0 5.008-2.24 5.008-5s-2.244-5-5.008-5H98.223c-2.765 0-5.008 2.24-5.008 5s2.244 5 5.008 5zm34.166 0h94.366c2.765 0 5.009-2.24 5.009-5s-2.244-5-5.009-5h-94.366c-2.765 0-5.009 2.24-5.009 5s2.244 5 5.009 5zm-24.093-26.16h23.527c2.763 0 5.008-2.239 5.008-4.999a5.01 5.01 0 0 0-5.008-5h-23.527a5.01 5.01 0 0 0-5.009 5c0 2.76 2.245 4.999 5.009 4.999zm117.58 0h24.649c2.764 0 5.008-2.239 5.008-4.999a5.01 5.01 0 0 0-5.008-5h-24.649a5.01 5.01 0 0 0-5.009 5c0 2.76 2.245 4.999 5.009 4.999zm-72.662 0h50.467c2.764 0 5.008-2.239 5.008-4.999a5.01 5.01 0 0 0-5.008-5h-50.467c-2.765 0-5.008 2.241-5.008 5s2.243 4.999 5.008 4.999z" fill="url(#A)"/><path d="M27.334 80.255c0-.827.674-1.5 1.503-1.5s1.503.673 1.503 1.5v5.999a1.5 1.5 0 0 1-1.503 1.5c-.828 0-1.503-.672-1.503-1.5v-5.999zm0 14.999c0-.827.674-1.5 1.503-1.5s1.503.673 1.503 1.5v6a1.5 1.5 0 0 1-1.503 1.5c-.828 0-1.503-.672-1.503-1.5v-6zm0 14.999c0-.827.674-1.5 1.503-1.5s1.503.673 1.503 1.5v6a1.5 1.5 0 0 1-1.503 1.5c-.828 0-1.503-.672-1.503-1.5v-6zm0 14.999c0-.827.674-1.5 1.503-1.5s1.503.673 1.503 1.5v6a1.5 1.5 0 1 1-3.005 0v-6zm.003 15.021a1.5 1.5 0 0 1 1.48-1.521c.829-.012 1.513.65 1.525 1.478.028 1.922.29 3.788.759 5.571a1.5 1.5 0 0 1-1.071 1.831c-.802.21-1.625-.269-1.835-1.07-.53-2.011-.826-4.118-.858-6.289zm4.912 14.879a1.5 1.5 0 0 1 .343-2.093c.674-.483 1.614-.33 2.098.343 1.1 1.529 2.382 2.919 3.813 4.139a1.5 1.5 0 0 1 .168 2.114c-.538.63-1.487.704-2.119.168-1.616-1.376-3.062-2.945-4.304-4.671zm12.538 9.423a1.5 1.5 0 0 1-.914-1.916c.279-.78 1.138-1.188 1.919-.911 1.745.619 3.586 1.036 5.495 1.222a1.5 1.5 0 0 1 1.349 1.638c-.081.824-.817 1.428-1.642 1.348-2.157-.211-4.237-.682-6.209-1.381zm15.366 1.506a1.5 1.5 0 1 1 0-3h6.01a1.5 1.5 0 1 1 0 3h-6.01zm15.026 0c-.829 0-1.503-.672-1.503-1.5s.673-1.5 1.503-1.5h6.01c.829 0 1.503.672 1.503 1.5s-.673 1.5-1.503 1.5h-6.01zm15.025 0a1.5 1.5 0 1 1 0-3h3.009c.829 0 1.503.672 1.503 1.5s-.673 1.5-1.503 1.5h-3.009z" fill="url(#B)"/></g><path d="M265.235 97.723H93.213v123.94h172.022V97.723z" fill="url(#C)"/><g fill-rule="evenodd"><path d="M270.241 97.723c0-2.761-2.242-5-5.009-5H93.21c-2.766 0-5.008 2.239-5.008 5v123.941c0 2.76 2.243 4.999 5.008 4.999h172.022c2.767 0 5.009-2.239 5.009-4.999V97.723zm-10.017 4.999v113.941H98.218V102.722h162.006z" fill="url(#D)"/><path d="M128.663 131.692a5.05 5.05 0 0 1-5.009-5 5.05 5.05 0 0 1 5.009-5h32.856a4.98 4.98 0 1 1 0 10h-32.856zm0 43.996c-2.705 0-5.009-2.239-5.009-4.999a5.05 5.05 0 0 1 5.009-5h19.833a4.98 4.98 0 1 1 0 9.999h-19.833z" fill="#fff"/><path d="M128.663 153.69a5.05 5.05 0 0 1-5.009-5c0-2.759 2.304-4.999 5.009-4.999h101.773a4.98 4.98 0 1 1 0 9.999H128.663zm0 43.997a5.05 5.05 0 0 1-5.009-5c0-2.76 2.304-4.999 5.009-4.999h71.721a4.98 4.98 0 1 1 0 9.999h-71.721z" fill="url(#E)"/><path d="M143.939 24.866C143.939 11.142 132.777 0 119.028 0H24.91C11.162 0 0 11.142 0 24.866v31.218C0 69.808 11.162 80.95 24.91 80.95h94.118c13.749 0 24.911-11.142 24.911-24.866V24.866zm-10.017 0v31.218c0 8.205-6.674 14.867-14.894 14.867H24.91c-8.22 0-14.893-6.662-14.893-14.867V24.866c0-8.205 6.673-14.867 14.893-14.867h94.118c8.22 0 14.894 6.662 14.894 14.867zM72.21 22.247L62.1 57.478c-.761 2.653.778 5.424 3.435 6.184s5.433-.777 6.195-3.43l10.11-35.23a5 5 0 0 0-3.435-6.184c-2.658-.76-5.433.777-6.195 3.43zm-26.716 3.016L27.814 37.086a5 5 0 0 0 0 8.307l17.679 11.823a5.02 5.02 0 0 0 6.949-1.371 5 5 0 0 0-1.373-6.936L39.6 41.24l11.468-7.67c2.296-1.536 2.912-4.644 1.373-6.936a5.02 5.02 0 0 0-6.949-1.371zM92.87 33.57l11.468 7.67L92.87 48.91a5 5 0 0 0-1.373 6.936 5.02 5.02 0 0 0 6.949 1.371l17.679-11.823a5 5 0 0 0 2.221-4.154c0-1.668-.833-3.226-2.221-4.154L98.445 25.263a5.02 5.02 0 0 0-6.949 1.371c-1.539 2.292-.923 5.4 1.373 6.936z" fill="url(#F)"/><path d="M12.508 237.953a3 3 0 0 0-.881-2.122c-.563-.562-1.327-.878-2.125-.878H3.169a3.01 3.01 0 0 0-2.126.878 3 3 0 0 0-.879 2.122V317c0 .796.317 1.559.879 2.121a3.01 3.01 0 0 0 2.126.879h6.334c.797 0 1.562-.316 2.125-.879s.881-1.325.881-2.121v-79.047zm22.498 38.003c0-.796-.317-1.559-.881-2.121s-1.327-.879-2.125-.879h-6.334a3.01 3.01 0 0 0-2.126.879c-.563.562-.88 1.325-.88 2.121V317c0 .796.317 1.559.88 2.121a3.01 3.01 0 0 0 2.126.879h6.334c.797 0 1.562-.316 2.125-.879s.881-1.325.881-2.121v-41.044z" fill="url(#G)"/></g></g><defs><linearGradient id="A" x1="93.216" y1="237.505" x2="300.195" y2="317.294" xlink:href="#I"><stop stop-color="#ff0cf5"/><stop offset="1" stop-color="#0575e6"/></linearGradient><linearGradient id="B" x1="18.521" y1="79.482" x2="78.476" y2="168.984" xlink:href="#I"><stop stop-color="#a83afe"/><stop offset="1" stop-color="#6e59fe"/></linearGradient><linearGradient id="C" x1="174.826" y1="92.723" x2="174.826" y2="221.663" xlink:href="#I"><stop stop-color="#36ff78" stop-opacity=".8"/><stop offset="1" stop-color="#0cffff" stop-opacity=".15"/></linearGradient><linearGradient id="D" x1="179.303" y1="92.723" x2="179.303" y2="226.662" xlink:href="#I"><stop stop-color="#36ff78"/><stop offset="1" stop-color="#0cffff"/></linearGradient><linearGradient id="E" x1="123.754" y1="148.01" x2="235.487" y2="148.01" xlink:href="#I"><stop stop-color="#3aa0fe"/><stop offset="1" stop-color="#59fef4"/></linearGradient><linearGradient id="F" x1="18.979" y1=".023" x2="133.066" y2="76.724" xlink:href="#I"><stop stop-color="#a83afe"/><stop offset="1" stop-color="#6e59fe"/></linearGradient><linearGradient id="G" x1=".164" y1="236.099" x2="34.902" y2="318.899" xlink:href="#I"><stop stop-color="#3aa0fe"/><stop offset="1" stop-color="#59fef4"/></linearGradient><clipPath id="H"><path fill="#fff" d="M0 0h299v320H0z"/></clipPath><linearGradient id="I" gradientUnits="userSpaceOnUse"/></defs></svg>