<svg xmlns="http://www.w3.org/2000/svg" width="330" height="330" fill="none" xmlns:v="https://vecta.io/nano"><g clip-path="url(#D)" fill-rule="evenodd"><path d="M5.084 296.162c-2.76 0-5-2.24-5-5s2.24-5 5-5h320c2.76 0 5 2.241 5 5s-2.24 5-5 5h-320z" fill="url(#A)"/><path d="M54.41 286.163c2.76 0 5 2.24 5 4.999s-2.241 5.001-5 5.001H5.089c-2.76 0-5-2.241-5-5.001s2.241-4.999 5-4.999H54.41z" fill="#fff"/><path d="M149.38 237.328C141.176 244.589 130.391 249 118.584 249c-25.664 0-46.5-20.836-46.5-46.5s20.836-46.5 46.5-46.5h93c25.664 0 46.5 20.836 46.5 46.5s-20.836 46.5-46.5 46.5c-11.807 0-22.592-4.411-30.796-11.672-9.629-8.522-21.779-8.522-31.408 0z" fill="url(#B)"/><path d="M160.088 134.828h-11.34c-2.76 0-5 2.239-5 5V151h-25.16c-28.424 0-51.5 23.076-51.5 51.499s23.076 51.5 51.5 51.5c13.08 0 25.02-4.884 34.11-12.927 7.6-6.722 17.18-6.722 24.78 0 9.09 8.043 21.03 12.927 34.11 12.927 28.42 0 51.5-23.076 51.5-51.5S240.008 151 211.588 151h-25.16v-11.172c0-2.761-2.24-5-5-5h-11.34V117.5c0-8.284 6.72-15 15-15h30a25.01 25.01 0 0 0 17.68-7.323c4.69-4.689 7.32-11.048 7.32-17.678v-39c0-2.76-2.24-5-5-5s-5 2.24-5 5v39a15.01 15.01 0 0 1-4.39 10.607c-2.82 2.813-6.63 4.393-10.61 4.393h-30c-13.81 0-25 11.194-25 25.001v17.328zm-14.02 98.757c-7.32 6.48-16.94 10.414-27.48 10.414-22.904 0-41.5-18.595-41.5-41.5S95.684 161 118.588 161h93c22.9 0 41.5 18.596 41.5 41.499s-18.6 41.5-41.5 41.5c-10.54 0-20.16-3.934-27.48-10.414-11.66-10.32-26.38-10.32-38.04 0zm7.68-82.585h22.68v-6.172h-11.34-11.34V151z" fill="url(#C)"/><path d="M140.33 198.129c1.2 0 2.301.46 3.101 1.28.9.82 1.299 1.93 1.299 3.09s-.399 2.27-1.299 3.09c-.8.82-1.901 1.29-3.101 1.29h-14.199v14.27c0 1.15-.501 2.27-1.301 3.09s-1.9 1.28-3.1 1.28-2.299-.46-3.099-1.28-1.301-1.94-1.301-3.09v-14.27h-14.199c-1.2 0-2.301-.47-3.101-1.29-.9-.82-1.299-1.93-1.299-3.09s.4-2.27 1.299-3.09c.8-.82 1.901-1.28 3.101-1.28h14.199v-14.27c0-1.16.501-2.27 1.301-3.09s1.899-1.28 3.099-1.28 2.3.46 3.1 1.28 1.301 1.93 1.301 3.09v14.27h14.199zm71.7-18.64a7.66 7.66 0 0 1 7.7 7.68c0 4.23-3.4 7.67-7.7 7.67-4.2 0-7.599-3.44-7.599-7.67 0-4.24 3.399-7.68 7.599-7.68zm0 30.67a7.66 7.66 0 1 1 0 15.36c-4.2 0-7.599-3.44-7.599-7.68s3.399-7.68 7.599-7.68zm23-7.66c0 4.24-3.399 7.68-7.599 7.68a7.66 7.66 0 0 1-7.701-7.68c0-4.23 3.401-7.68 7.701-7.68 4.2 0 7.599 3.45 7.599 7.68zm-30.599 0c0 4.24-3.501 7.68-7.701 7.68s-7.7-3.44-7.7-7.68c0-4.23 3.5-7.68 7.7-7.68s7.701 3.45 7.701 7.68z" fill="#fff"/></g><defs><linearGradient id="A" x1=".084" y1="291.162" x2="313.084" y2="291.162" gradientUnits="userSpaceOnUse"><stop stop-color="#3aa0fe"/><stop offset="1" stop-color="#59fef4"/></linearGradient><linearGradient id="B" x1="98.616" y1="160.5" x2="229.648" y2="245.355" gradientUnits="userSpaceOnUse"><stop stop-color="#a83afe" stop-opacity=".2"/><stop offset="1" stop-color="#6e59fe" stop-opacity=".2"/></linearGradient><linearGradient id="C" x1="91.088" y1="76.5" x2="249.003" y2="237.873" gradientUnits="userSpaceOnUse"><stop stop-color="#ff0cf5"/><stop offset="1" stop-color="#0575e6"/></linearGradient><clipPath id="D"><path fill="#fff" d="M0 0h330v330H0z"/></clipPath></defs></svg>