<svg xmlns="http://www.w3.org/2000/svg" width="299" height="320" fill="none" xmlns:v="https://vecta.io/nano"><g clip-path="url(#C)" fill-rule="evenodd"><path d="M149.251 284.438l70.161 35.029c1.424.711 3.099.711 4.524 0l72.268-36.081a5.05 5.05 0 0 0 2.796-4.517v-72.163l-.022-.469a4.98 4.98 0 0 0-.558-1.878l-.157-.278a5.05 5.05 0 0 0-1.696-1.691l-.4-.219-72.231-36.063c-1.425-.711-3.1-.711-4.524 0l-69.663 34.78-70.161-35.029c-1.424-.711-3.1-.711-4.524 0L2.833 201.921l-.402.22a5.04 5.04 0 0 0-1.694 1.69l-.157.278c-.301.571-.496 1.206-.558 1.878l-.022.47v72.163a5.05 5.05 0 0 0 2.795 4.516l72.269 36.082c1.424.711 3.1.711 4.524 0l69.663-34.78zm5.402-8.595l67.02 33.461 67.212-33.556v-60.871l-64.949 32.427c-1.425.711-3.1.711-4.524 0l-64.759-32.332v60.871zm-10.306-61.12l-64.759 32.332c-1.424.711-3.1.711-4.524 0l-64.949-32.427v60.87l67.211 33.557 67.021-33.461v-60.871zm16.367-8.017l60.959-30.435 60.961 30.435-60.961 30.435-60.959-30.435zm-144.348-.249l60.96-30.435 60.961 30.435-60.961 30.435-60.96-30.435z" fill="url(#A)"/><path d="M75.864 36.233l-.077.038-.107.056-.04.023-.047.026-.018.01-.019.012-.04.022-.039.024-.01.006c-.695.421-1.266.999-1.677 1.674l-.005.008-.006.009-.016.027-.028.048-.012.02-.045.08-.014.025-.022.042-.008.016a4.96 4.96 0 0 0-.553 1.86l-.002.024-.002.021-.003.035-.001.021-.006.099-.001.007-.001.024-.002.057-.001.029-.001.019v.015l-.001.025v.089 71.447a5 5 0 0 0 2.768 4.473l71.552 35.723c1.41.704 3.069.704 4.479 0l71.553-35.723a5 5 0 0 0 2.768-4.473V40.724l-.001-.114-.001-.015v-.019l-.001-.029-.002-.057-.001-.024-.001-.007-.006-.099-.001-.021-.004-.035-.001-.021-.003-.024c-.061-.667-.253-1.295-.552-1.86l-.031-.058-.013-.025-.046-.08-.011-.02-.028-.048-.017-.027-.005-.009-.005-.008c-.412-.675-.983-1.253-1.679-1.674l-.049-.03-.039-.022-.019-.012-.018-.01-.047-.026-.04-.023-.107-.056-.077-.038L151.858.528c-1.41-.704-3.069-.704-4.479 0L75.864 36.233zm7.21 12.581v60.267l66.545 33.224 66.546-33.224V48.814L151.858 80.92a5.02 5.02 0 0 1-4.479 0L83.073 48.814zm6.189-8.09l60.356-30.134 60.357 30.134-60.357 30.133-60.356-30.133z" fill="url(#B)"/></g><defs><linearGradient id="A" x1="54.642" y1="173.001" x2="298.856" y2="295.288" gradientUnits="userSpaceOnUse"><stop stop-color="#ff0cf5"/><stop offset="1" stop-color="#0575e6"/></linearGradient><linearGradient id="B" x1="86.229" y1=".482" x2="200.697" y2="129.258" gradientUnits="userSpaceOnUse"><stop stop-color="#36ff78"/><stop offset="1" stop-color="#0cffff"/></linearGradient><clipPath id="C"><path fill="#fff" d="M0 0h299v320H0z"/></clipPath></defs></svg>