<svg xmlns="http://www.w3.org/2000/svg" xmlns:xlink="http://www.w3.org/1999/xlink" width="1286" height="724" fill="none" xmlns:v="https://vecta.io/nano"><style><![CDATA[.B{fill-rule:evenodd}]]></style><g opacity=".25"><path d="M25.885 340.347a10.47 10.47 0 0 0 10.467-10.466 10.47 10.47 0 0 0-10.467-10.467 10.47 10.47 0 0 0-10.467 10.467 10.47 10.47 0 0 0 10.467 10.466z" fill="url(#A)"/><path d="M268.564 304.225a6.98 6.98 0 0 0 6.977-6.977 6.98 6.98 0 0 0-6.977-6.978 6.98 6.98 0 0 0-6.978 6.978 6.98 6.98 0 0 0 6.978 6.977z" fill="url(#B)"/><use xlink:href="#y" fill="url(#C)"/><path d="M164.478 117.45a10.47 10.47 0 0 0 10.467-10.467 10.47 10.47 0 0 0-10.467-10.466 10.47 10.47 0 0 0-10.466 10.466 10.47 10.47 0 0 0 10.466 10.467z" fill="url(#D)"/><use xlink:href="#z" fill="url(#E)"/><use xlink:href="#z" x="226.412" y="48.516" fill="url(#E)"/><path d="M887.78 38.527a6.98 6.98 0 0 0 6.978-6.978 6.98 6.98 0 0 0-6.978-6.978 6.98 6.98 0 0 0-6.977 6.978 6.98 6.98 0 0 0 6.977 6.978z" fill="url(#F)"/><use xlink:href="#y" x="695.967" y="1.315" fill="url(#G)"/><path d="M1048.5 226.695a3.49 3.49 0 0 0 3.49-3.489 3.49 3.49 0 0 0-3.49-3.489c-1.92 0-3.49 1.562-3.49 3.489s1.57 3.489 3.49 3.489z" fill="url(#H)"/><path d="M1248.54 414.629a3.49 3.49 0 0 0 3.49-3.489 3.49 3.49 0 1 0-6.98 0 3.49 3.49 0 0 0 3.49 3.489z" fill="url(#I)"/><path d="M1206.2 519.733c3.85 0 6.98-3.124 6.98-6.977s-3.13-6.978-6.98-6.978c-3.86 0-6.98 3.124-6.98 6.978s3.12 6.977 6.98 6.977z" fill="url(#J)"/><path d="M1179.11 640.437c1.92 0 3.48-1.562 3.48-3.489s-1.56-3.489-3.48-3.489a3.49 3.49 0 0 0-3.49 3.489 3.49 3.49 0 0 0 3.49 3.489z" fill="url(#K)"/><path d="M1262.14 610.558c3.86 0 6.98-3.124 6.98-6.978s-3.12-6.977-6.98-6.977c-3.85 0-6.97 3.124-6.97 6.977s3.12 6.978 6.97 6.978z" fill="url(#L)"/><path d="M1015.87 630.1a17.45 17.45 0 0 0 17.45-17.445 17.45 17.45 0 0 0-17.45-17.444c-9.63 0-17.44 7.81-17.44 17.444s7.81 17.445 17.44 17.445z" fill="url(#M)"/><path d="M644.257 628.367a6.98 6.98 0 0 0 6.978-6.978 6.98 6.98 0 0 0-6.978-6.977 6.98 6.98 0 0 0-6.978 6.977 6.98 6.98 0 0 0 6.978 6.978z" fill="url(#N)"/><use xlink:href="#y" x="484.541" y="421.363" fill="url(#C)"/><use xlink:href="#AA" fill="url(#O)"/><use xlink:href="#AA" y="-184.805" fill="url(#P)"/><use xlink:href="#z" x="-158.631" y="569.834" fill="url(#E)"/><use xlink:href="#y" x="60.836" y="535.255" fill="url(#C)"/><use xlink:href="#z" x="696.67" y="299.967" fill="url(#Q)"/><path d="M1278.89 259.142c3.85 0 6.98-3.124 6.98-6.977s-3.13-6.978-6.98-6.978-6.98 3.124-6.98 6.978 3.13 6.977 6.98 6.977z" fill="url(#R)"/><path d="M1233.18 97.607c3.85 0 6.98-3.124 6.98-6.978s-3.13-6.978-6.98-6.978-6.98 3.124-6.98 6.978 3.13 6.978 6.98 6.978z" fill="url(#S)"/><path d="M1182.59 45.621c5.78 0 10.46-4.686 10.46-10.467s-4.68-10.466-10.46-10.466-10.47 4.686-10.47 10.467 4.69 10.467 10.47 10.467z" fill="url(#T)"/></g><g class="B"><path d="M533.494 262.282v87.015l53.95-26.418s7.639-31.568-1.123-42.17c-4.731-5.719-26.236-17.687-52.827-18.427z" fill="url(#U)"/><path d="M607.465 388.106c-13.983 26.577-41.875 44.719-73.969 44.719-46.099 0-83.526-37.428-83.526-83.528s37.427-83.527 83.526-83.527c19.847 0 38.09 6.938 52.422 18.518a3.49 3.49 0 0 0 4.905-.522c1.214-1.498.977-3.697-.516-4.907-15.539-12.548-35.304-20.067-56.811-20.067-49.95 0-90.504 40.555-90.504 90.505s40.554 90.506 90.504 90.506c34.773 0 64.989-19.649 80.145-48.448.9-1.704.244-3.815-1.466-4.712a3.49 3.49 0 0 0-4.71 1.463zm-76.462-37.428a2.83 2.83 0 0 0 .981 1.035l30.275 18.947c1.334.834 3.094.43 3.929-.904a2.85 2.85 0 0 0-.905-3.928l-28.936-18.11v-55.412a2.85 2.85 0 0 0-5.701 0v56.991a2.84 2.84 0 0 0 .357 1.381z" fill="url(#V)"/></g><path d="M526.514 349.297a6.98 6.98 0 0 0 6.977 6.978 6.98 6.98 0 0 0 6.978-6.978 6.98 6.98 0 0 0-6.978-6.977 6.98 6.98 0 0 0-6.977 6.977z" fill="#fff"/><g class="B"><path d="M753.585 211.027a2.09 2.09 0 0 1 .496 2.28c-.314.79-1.082 1.308-1.933 1.309l-15.442.012c-1.919 0-3.488 1.563-3.482 3.489a3.49 3.49 0 0 0 3.489 3.488l21.338-.002a10.47 10.47 0 0 1 8.492 4.347c2.54 3.605 4.926 7.423 7.117 11.44a3.48 3.48 0 0 1-.069 3.443c-.628 1.055-1.766 1.701-2.994 1.701l-16.998.005a3.49 3.49 0 0 0-3.488 3.488 3.49 3.49 0 0 0 3.488 3.489h18.687a10.47 10.47 0 0 1 9.859 6.953 146.59 146.59 0 0 1 2.98 9.582 3.47 3.47 0 0 1-.6 3.03 3.48 3.48 0 0 1-2.763 1.366l-19.28.003a3.49 3.49 0 0 0-3.489 3.488 3.49 3.49 0 0 0 3.489 3.489h19.384c3.447 0 6.378 2.519 6.894 5.927a156.04 156.04 0 0 1 1.131 9.726 4.92 4.92 0 0 1-1.277 3.704 4.89 4.89 0 0 1-3.594 1.574l-19.265.003a3.49 3.49 0 0 0-3.489 3.488 3.49 3.49 0 0 0 3.489 3.489h21.212c.935 0 1.828.373 2.484 1.035s1.019 1.56 1.005 2.491c-.035 3.302-.209 8.574-.872 14.328-.203 1.755-1.696 3.077-3.461 3.077l-22.015.003a3.49 3.49 0 0 0-3.489 3.488 3.49 3.49 0 0 0 3.489 3.489h19.775a3.49 3.49 0 0 1 2.707 1.294 3.5 3.5 0 0 1 .705 2.922l-1.396 6.325c-.362 1.437-.942 3.459-1.5 5.337-.858 2.992-3.593 5.054-6.705 5.054l-20.501.002a3.49 3.49 0 0 0-3.489 3.489 3.49 3.49 0 0 0 3.489 3.488h17.884a3.5 3.5 0 0 1 2.924 1.582c.642.986.746 2.231.272 3.31a124.9 124.9 0 0 1-6.483 12.634c-1.256 2.11-3.53 3.402-5.986 3.402l-22.413.006a3.49 3.49 0 0 0-3.489 3.489 3.49 3.49 0 0 0 3.489 3.488h17.2c.803 0 1.542.464 1.891 1.192a2.09 2.09 0 0 1-.265 2.219c-15.121 18.503-35.182 29.807-57.301 29.807h-25.043a3.49 3.49 0 0 0-3.489 3.489 3.49 3.49 0 0 0 3.489 3.489h25.043c27.332 0 52.054-15.903 69.051-41.208.335-.334.608-.735.782-1.182 5.429-8.295 10.041-17.566 13.662-27.593a3.56 3.56 0 0 0 .321-.904l.056-.153a152.36 152.36 0 0 0 4.103-13.787c1.117-4.555 2.024-9.16 2.721-13.797l.028-.158c.028-.136.049-.275.063-.417 1.131-7.656 1.724-15.574 1.724-23.679 0-1.538-.021-3.07-.07-4.6v-.079-.085c-.14-4.676-.468-9.346-1.005-13.993-.544-4.71-1.305-9.395-2.268-14.036l-.021-.087a2.74 2.74 0 0 0-.125-.583c-2.087-9.812-5.08-19.123-8.841-27.767-.091-.371-.244-.718-.454-1.031-4.549-10.246-10.194-19.534-16.704-27.589-.231-.455-.558-.852-.956-1.165-16.461-19.815-38.28-31.864-62.067-31.864h-32.363l-.042.002c-4.117.029-4.961 1.758-4.347 3.487-.607 1.729.23 3.457 4.347 3.488l.042.001h32.363c18.135 0 34.888 7.599 48.669 20.539z" fill="url(#W)"/><path d="M676.797 183.51c-50.742 0-92.504 54.824-92.504 122.879s41.762 122.878 92.504 122.878 92.511-54.824 92.511-122.878-41.769-122.879-92.511-122.879zm0 6.978c47.525 0 85.533 52.167 85.533 115.901s-38.008 115.9-85.533 115.9c-47.518 0-85.526-52.167-85.526-115.9s38.008-115.901 85.526-115.901zm0 22.434c-38.636 0-70.573 41.646-70.573 93.467s31.937 93.466 70.573 93.466c38.643 0 70.58-41.645 70.58-93.466s-31.937-93.467-70.58-93.467zm0 6.978c13.907 0 26.739 6.117 37.163 16.368 16.084 15.811 26.439 41.359 26.439 70.121s-10.355 54.309-26.439 70.119c-10.424 10.252-23.256 16.369-37.163 16.369-13.9 0-26.739-6.117-37.164-16.369-16.076-15.81-26.431-41.358-26.431-70.119s10.355-54.31 26.431-70.121c10.425-10.251 23.264-16.368 37.164-16.368z" fill="url(#X)"/><path d="M692.153 306.113c.166 10.946-6.591 19.937-15.069 20.08-8.462.142-15.476-8.603-15.641-19.528-.166-10.946 6.591-19.937 15.069-20.08 4.664-.078 8.37-5.04 8.272-11.074s-3.967-10.87-8.631-10.792c-17.801.299-31.962 19.212-31.614 42.194.349 23.002 15.087 41.445 32.904 41.146 17.801-.299 31.962-19.212 31.614-42.194-.091-6.034-3.953-10.877-8.617-10.809s-8.378 5.023-8.287 11.057z" fill="url(#Y)"/><path d="M678.485 493.343c-16.768 8.171-35.217 12.693-54.587 12.693-26.048 0-50.435-8.185-71.314-22.413a3.49 3.49 0 0 0-4.848.914c-1.084 1.591-.672 3.768.919 4.85 22.023 15.009 47.764 23.627 75.243 23.627 20.64 0 40.303-4.864 58.138-13.642l3.001 5.087c.732 1.249 2.065 2.03 3.516 2.065 1.452.028 2.812-.691 3.601-1.912l10.906-16.837c.865-1.34.9-3.049.084-4.424-.817-1.367-2.345-2.149-3.935-2.023l-19.873 1.605a4.2 4.2 0 0 0-3.384 2.246 4.19 4.19 0 0 0 .111 4.054l2.422 4.11z" fill="url(#Z)"/><path d="M528.116 183.797l-3.514-2.93a4.88 4.88 0 0 0-7.882 2.631l-4.017 17.047c-.427 1.811.212 3.707 1.648 4.89s3.419 1.448 5.115.683l15.871-7.163c1.533-.692 2.603-2.125 2.83-3.792s-.419-3.334-1.711-4.411l-2.953-2.462c24.373-23.697 55.925-38.032 90.395-38.032 7.641 0 15.128.702 22.433 2.054 1.891.351 3.713-.901 4.068-2.795.349-1.893-.907-3.715-2.798-4.066a130.16 130.16 0 0 0-23.703-2.171c-36.556 0-70.035 15.246-95.782 40.517z" fill="url(#a)"/><path d="M776.713 447.092c20.675 0 37.463 16.788 37.463 37.467s-16.788 37.468-37.463 37.468c-20.682 0-37.471-16.789-37.471-37.468s16.789-37.467 37.471-37.467zm0 6.978c-16.831 0-30.493 13.661-30.493 30.489s13.662 30.49 30.493 30.49c16.823 0 30.485-13.662 30.485-30.49s-13.662-30.489-30.485-30.489z" fill="url(#b)"/><path d="M789.723 481.508a3.05 3.05 0 0 1 3.05 3.051l.001.001c-.001.809-.322 1.584-.894 2.157s-1.348.893-2.157.894h-9.957v9.957c0 .808-.322 1.585-.894 2.157a3.05 3.05 0 0 1-2.156.893c-.811.001-1.587-.321-2.159-.893s-.894-1.348-.893-2.157v-9.957s-6.113-.001-9.957 0a3.05 3.05 0 0 1-2.158-.895c-.572-.571-.893-1.347-.893-2.156s.321-1.587.893-2.159a3.05 3.05 0 0 1 2.157-.893h9.958l-.001-9.957c.001-.809.322-1.585.894-2.157s1.348-.894 2.157-.894a3.05 3.05 0 0 1 3.052 3.052v9.956h9.957z" fill="#fff"/></g><path d="M471.22 304.455c12.199 0 22.089-9.89 22.089-22.09s-9.89-22.089-22.089-22.089-22.089 9.89-22.089 22.089 9.889 22.09 22.089 22.09z" fill="#151515"/><g class="B"><path d="M471.22 256.788c14.116 0 25.574 11.461 25.574 25.577s-11.458 25.578-25.574 25.578-25.579-11.461-25.579-25.578 11.462-25.577 25.579-25.577zm0 6.978c-10.266 0-18.603 8.334-18.603 18.599s8.337 18.601 18.603 18.601 18.598-8.335 18.598-18.601-8.333-18.599-18.598-18.599z" fill="url(#c)"/><path d="M463.946 285.802a3.49 3.49 0 0 1-3.489-3.488 3.49 3.49 0 0 1 3.489-3.489h14.549a3.49 3.49 0 0 1 3.489 3.489 3.49 3.49 0 0 1-3.489 3.488h-14.549z" fill="#fff"/></g><g opacity=".9" class="B"><path d="M1063.39 370.589l4.15 7.319c5.56 10.621 16.52 17.508 30.72 20.25 20.2 3.9 47.12-.642 73.12-14.186 26-13.551 45.14-33.019 53.52-51.81 5.9-13.23 6.52-26.18.97-36.835-.03-.063-.07-.126-.11-.189l-8.71-14.437v-.007c-5.8-9.699-16.35-16.028-29.81-18.623-20.2-3.894-47.12.642-73.12 14.193-26 13.543-45.14 33.011-53.52 51.802-5.9 13.23-6.52 26.181-.97 36.836a32.2 32.2 0 0 0 3.76 5.687zm5.63-4.131c5.15 6.126 13.09 10.055 22.68 11.904 18.96 3.656 44.18-.816 68.57-13.523 24.4-12.713 42.51-30.828 50.38-48.46 4.93-11.06 5.79-21.869 1.15-30.772-4.63-8.904-13.99-14.388-25.88-16.684-18.96-3.656-44.18.816-68.58 13.523-24.39 12.713-42.51 30.827-50.36 48.46-4.94 11.06-5.8 21.869-1.16 30.772.86 1.654 1.89 3.196 3.06 4.612.05.056.1.112.14.168zm54.11-72.918c-17.57 9.155-30.71 21.911-36.72 33.947-4.4 8.834-5.03 17.368-1.46 24.227 3.57 6.852 10.93 11.227 20.69 12.671 13.31 1.975 31.29-1.486 48.86-10.641 17.56-9.154 30.71-21.91 36.71-33.946 4.41-8.834 5.04-17.368 1.46-24.227-3.57-6.852-10.92-11.227-20.69-12.672-13.31-1.974-31.28 1.487-48.85 10.641zm3.22 6.19c16.05-8.367 32.45-11.737 44.61-9.93 7.22 1.068 12.89 3.929 15.52 9.002 2.65 5.065 1.75 11.345-1.52 17.877-5.48 11.004-17.63 22.51-33.69 30.876s-32.44 11.737-44.61 9.93c-7.22-1.068-12.88-3.929-15.53-9.002-2.64-5.066-1.74-11.346 1.52-17.877 5.49-11.004 17.64-22.51 33.7-30.876z" fill="url(#d)"/><path d="M930.536 41.964l-7.267 3.128c-10.503 4.104-18.074 13.641-22.095 26.634-5.722 18.489-4.253 44.135 5.736 69.834 9.994 25.703 26.228 45.609 42.935 55.372 11.765 6.876 23.81 8.795 34.343 4.698.063-.022.124-.053.19-.08l14.388-6.662.01-.001c9.664-4.422 16.674-13.635 20.484-25.956 5.72-18.485 4.25-44.125-5.74-69.828s-26.226-45.604-42.94-55.371c-11.755-6.877-23.804-8.791-34.343-4.698a31.39 31.39 0 0 0-5.701 2.931zm3.282 5.688c-6.256 4.186-10.746 11.206-13.461 19.981-5.367 17.35-3.787 41.392 5.592 65.513 9.373 24.117 24.446 42.916 40.128 52.083 9.824 5.749 19.849 7.671 28.648 4.245 8.795-3.416 14.895-11.604 18.265-22.483 5.37-17.346 3.78-41.391-5.59-65.508-9.38-24.122-24.453-42.921-40.129-52.084-9.834-5.748-19.849-7.67-28.654-4.249-1.634.636-3.176 1.436-4.627 2.39-.056.036-.11.081-.172.113zm62.608 58.094c-6.747-17.371-17.32-30.969-27.956-37.822-7.806-5.027-15.724-6.493-22.499-3.864-6.774 2.639-11.625 9.072-13.981 18.047-3.218 12.243-1.826 29.407 4.921 46.778 6.753 17.365 17.325 30.964 27.967 37.821 7.806 5.027 15.719 6.499 22.493 3.86 6.78-2.635 11.626-9.062 13.989-18.042 3.21-12.238 1.82-29.407-4.934-46.777zm-6.112 2.375c6.171 15.874 7.631 31.542 4.693 42.738-1.742 6.637-4.999 11.639-10.016 13.589-5.007 1.949-10.788.457-16.559-3.258-9.725-6.271-19.232-18.812-25.404-34.686s-7.631-31.543-4.692-42.729c1.747-6.642 5.004-11.644 10.011-13.593 5.017-1.95 10.798-.459 16.564 3.263 9.725 6.261 19.232 18.802 25.403 34.677z" fill="url(#e)"/><path d="M998.138 508.494l-.358 4.541c-.727 6.44 2.138 12.95 7.75 18.658 7.99 8.13 21.63 14.666 37.61 16.947 15.99 2.276 30.67-.227 40.25-5.845 6.75-3.952 11.01-9.46 11.76-15.915 0-.035 0-.079.01-.114l.47-9.118v-.007c.34-6.11-2.51-12.238-7.84-17.651-7.98-8.128-21.62-14.663-37.61-16.947-15.98-2.277-30.66.227-40.25 5.838-6.74 3.959-11.005 9.467-11.752 15.922a17.52 17.52 0 0 0-.04 3.691zm3.832-.028c.46 4.329 2.87 8.578 6.66 12.434 7.5 7.621 20.34 13.655 35.34 15.793s28.8-.096 37.79-5.371c5.63-3.304 9.35-7.791 9.98-13.184.62-5.389-1.95-10.77-6.66-15.552-7.49-7.625-20.34-13.656-35.33-15.791v-.003c-15-2.136-28.8.09-37.79 5.365-5.64 3.304-9.35 7.793-9.97 13.186-.13 1.002-.13 2.002-.03 2.999.01.04.01.08.01.124zm47-14.955c-10.8-1.54-20.69-.092-27.12 3.305-4.72 2.491-7.62 6.054-8.11 10.201-.48 4.157 1.52 8.416 5.52 12.15 5.45 5.086 14.69 9.269 25.48 10.807 10.81 1.541 20.7.088 27.13-3.311 4.72-2.491 7.62-6.047 8.11-10.201.47-4.15-1.53-8.41-5.52-12.144-5.45-5.092-14.69-9.266-25.49-10.807zm-.44 3.749c9.88 1.408 18.37 5.121 23.34 9.771 2.96 2.762 4.66 5.817 4.3 8.89-.35 3.069-2.69 5.551-6.18 7.392-5.88 3.106-14.94 4.319-24.81 2.912s-18.36-5.128-23.33-9.777c-2.96-2.762-4.66-5.817-4.3-8.884.36-3.073 2.7-5.555 6.18-7.398 5.88-3.1 14.94-4.317 24.8-2.906z" fill="url(#f)"/><path d="M241.802 226.393l4.873 5.457c6.677 8.01 17.262 11.862 29.839 11.59 17.896-.391 39.963-9.183 59.59-25.476 19.626-16.286 32.338-36.354 36.018-53.875 2.591-12.33.745-23.466-5.93-31.505a8.19 8.19 0 0 0-.126-.146l-10.053-10.676-.005-.007c-6.711-7.18-16.844-10.634-28.766-10.369-17.897.384-39.964 9.182-59.591 25.476-19.625 16.286-32.337 36.354-36.018 53.875-2.591 12.329-.745 23.459 5.93 31.504a28.98 28.98 0 0 0 4.239 4.152zm4.033-4.549c5.502 4.263 12.978 6.147 21.471 5.959 16.794-.363 37.428-8.792 55.845-24.074 18.417-15.288 30.501-34.016 33.954-50.456 2.165-10.306.918-19.656-4.66-26.376-5.578-6.726-14.543-9.671-25.071-9.441-16.794.363-37.428 8.792-55.845 24.074-18.417 15.288-30.501 34.016-33.955 50.456-2.165 10.306-.917 19.656 4.661 26.376a22.84 22.84 0 0 0 3.45 3.363c.051.035.101.077.15.119zm32.645-71.941c-13.263 11.011-22.1 24.269-25.001 35.607-2.128 8.318-1.098 15.694 3.197 20.871 4.295 5.171 11.356 7.543 19.924 6.985 11.68-.761 26.337-7.006 39.6-18.01 13.263-11.011 22.1-24.269 25-35.607 2.128-8.318 1.098-15.693-3.196-20.871-4.296-5.17-11.356-7.543-19.924-6.985-11.68.761-26.337 7.006-39.6 18.01zm3.877 4.675c12.122-10.062 25.443-15.93 36.118-16.628 6.337-.412 11.68.977 14.857 4.808s3.56 9.336 1.987 15.49c-2.651 10.362-10.874 22.371-22.996 32.433s-25.443 15.93-36.118 16.628c-6.338.412-11.68-.977-14.857-4.808s-3.56-9.336-1.987-15.49c2.651-10.362 10.874-22.371 22.996-32.433z" fill="url(#g)"/><path d="M63.259 397.628l-1.709 9.203c-2.881 13.028 1.509 26.753 11.631 39.264 14.404 17.807 40.581 33.242 72.427 40.352 31.845 7.104 62.103 4.257 82.71-5.728 14.507-7.034 24.325-17.619 27.236-30.668a4.09 4.09 0 0 0 .046-.237l2.933-18.533.001-.007c2.019-12.42-2.425-25.371-12.022-37.233-14.404-17.8-40.58-33.242-72.425-40.352-31.846-7.104-62.104-4.257-82.71 5.735-14.507 7.034-24.325 17.612-27.238 30.668a36.82 36.82 0 0 0-.88 7.536zm7.759.516c-.007 8.904 3.939 17.947 10.774 26.397 13.517 16.704 38.196 30.988 68.079 37.659 29.884 6.663 58.294 4.228 77.631-5.143 12.122-5.875 20.612-14.465 23.045-25.371s-1.6-22.287-10.074-32.761c-13.516-16.704-38.196-30.981-68.08-37.652s-58.292-4.235-77.63 5.136c-12.122 5.882-20.612 14.465-23.045 25.371-.453 2.024-.682 4.068-.7 6.12a3.52 3.52 0 0 1-.001.244zm98.344-23.285c-21.521-4.801-41.851-3.363-55.596 2.575-10.083 4.361-16.74 11.178-18.614 19.572-1.874 8.402 1.254 17.403 8.527 25.63 9.915 11.227 27.706 21.17 49.227 25.971s41.85 3.363 55.595-2.575c10.083-4.361 16.74-11.178 18.614-19.572 1.874-8.402-1.254-17.396-8.526-25.63-9.915-11.22-27.706-21.163-49.227-25.971zm-1.691 7.585c19.668 4.389 36.035 13.272 45.097 23.529 5.379 6.085 8.153 12.581 6.767 18.791s-6.659 10.913-14.116 14.137c-12.562 5.429-31.153 6.517-50.822 2.128s-36.036-13.278-45.098-23.536c-5.378-6.084-8.153-12.581-6.767-18.791s6.659-10.913 14.116-14.137c12.562-5.429 31.154-6.51 50.823-2.121z" fill="url(#h)"/><path d="M808.253 585.249c-7.802 5.454-12.491 14.703-13.863 26.174-2.064 17.213 3.366 39.573 16.316 60.616s30.46 35.964 46.764 41.876c11.471 4.163 22.396 3.913 31.021-1.392a28.21 28.21 0 0 0 4.558-3.501l5.895-3.931c8.598-5.311 13.728-14.938 15.184-27.04 2.064-17.214-3.374-39.575-16.316-60.616-12.95-21.042-30.467-35.966-46.765-41.876-11.478-4.164-22.403-3.915-31.028 1.391-.049.033-.099.073-.155.105l-11.603 8.189-.008.005zm80.984 119.284c4.839-4.697 7.661-11.607 8.639-19.78 1.935-16.152-3.33-37.089-15.481-56.83-12.156-19.75-28.473-33.886-43.766-39.437-9.59-3.482-18.728-3.556-25.933.88-7.204 4.43-11.255 12.628-12.466 22.753-1.943 16.156 3.329 37.095 15.48 56.836s28.466 33.885 43.766 39.437c9.584 3.474 18.728 3.556 25.933-.88a22.12 22.12 0 0 0 3.689-2.849c.045-.048.088-.09.139-.13zm-64.548-41.1c8.754 14.217 20.259 24.493 30.741 28.817 7.687 3.181 14.906 3.192 20.448-.216 5.551-3.421 8.789-9.869 9.42-18.157.859-11.306-3.135-26.216-11.882-40.432-8.754-14.216-20.265-24.501-30.74-28.824-7.688-3.174-14.906-3.192-20.456.222-5.542 3.415-8.781 9.863-9.413 18.158-.859 11.306 3.136 26.209 11.882 40.432zm5.011-3.082c-7.997-12.995-11.815-26.573-11.026-36.905.466-6.132 2.525-11.07 6.628-13.592 4.105-2.528 9.444-2.147 15.129.202 9.579 3.956 19.977 13.476 27.974 26.471s11.815 26.574 11.026 36.905c-.466 6.132-2.53 11.062-6.635 13.59-4.097 2.523-9.435 2.142-15.121-.207-9.58-3.949-19.978-13.469-27.975-26.464z" fill="url(#i)"/><path d="M363.793 658.382c7.337 6.004 17.465 7.993 28.825 6.214 17.055-2.676 37.011-13.917 53.673-32.006s26.231-38.906 27.496-56.124c.889-12.116-2.305-22.521-9.72-29.344a27.61 27.61 0 0 0-4.584-3.419l-5.359-4.591c-7.411-6.799-18.021-9.122-30.007-7.239-17.052 2.668-37.011 13.916-53.672 32.006s-26.231 38.905-27.494 56.116c-.891 12.123 2.305 22.521 9.717 29.351l.14.116 10.981 8.912.004.008zm92.419-109.813c-5.804-3.372-13.192-4.21-21.284-2.943-16.002 2.508-34.64 13.217-50.274 30.191s-24.776 36.43-25.961 52.581c-.746 10.131 1.65 18.911 7.846 24.614 6.193 5.708 15.14 7.374 25.174 5.798 16.002-2.509 34.637-13.212 50.272-30.185 15.636-16.981 24.776-36.431 25.964-52.588.743-10.124-1.653-18.905-7.849-24.607a21.88 21.88 0 0 0-3.726-2.774c-.055-.027-.108-.061-.162-.087zm-21.945 72.94c11.258-12.22 17.999-26.027 19.313-37.237.965-8.225-.969-15.138-5.738-19.534s-11.822-5.752-19.939-4.117c-11.065 2.232-24.269 10.08-35.529 22.305s-18.001 26.034-19.315 37.244c-.962 8.218.969 15.138 5.738 19.534 4.772 4.389 11.822 5.752 19.938 4.117 11.066-2.232 24.272-10.087 35.532-22.312zm-4.306-3.965c-10.293 11.177-22.269 18.498-32.381 20.535-6.002 1.209-11.289.569-14.816-2.683s-4.604-8.461-3.89-14.546c1.2-10.244 7.514-22.781 17.807-33.959 10.29-11.17 22.265-18.492 32.378-20.529 6.002-1.208 11.288-.568 14.816 2.684 3.53 3.244 4.604 8.461 3.89 14.546-1.2 10.243-7.515 22.781-17.804 33.952z" fill="url(#j)"/><path d="M19.765 237.823l5.051 2.114c7.092 3.258 15.48 2.449 23.884-1.786 11.958-6.036 24.023-19.092 32.024-36.417 8.001-17.319 10.115-34.973 6.953-47.986-2.226-9.162-7.061-16.084-14.161-19.364-.043-.021-.087-.035-.13-.056l-10.23-3.97h-.005c-6.847-2.686-14.8-1.751-22.767 2.268-11.959 6.036-24.024 19.084-32.024 36.41s-10.116 34.979-6.953 47.993c2.227 9.162 7.061 16.084 14.161 19.363a21.58 21.58 0 0 0 4.199 1.431zm1.258-4.368c5.089 1.102 10.744-.035 16.419-2.896 11.222-5.659 22.438-18.003 29.946-34.261s9.63-32.795 6.663-45.007c-1.86-7.661-5.719-13.578-11.651-16.313-5.932-2.743-12.937-1.843-19.973 1.702-11.222 5.666-22.438 18.003-29.946 34.261s-9.631 32.802-6.663 45.013c1.86 7.655 5.718 13.572 11.651 16.314a17.18 17.18 0 0 0 3.412 1.159c.047.007.094.014.14.028zm-1.148-59.095c-5.406 11.709-7.101 23.508-5.404 32.098 1.245 6.301 4.318 10.948 8.886 13.062 4.568 2.107 10.1 1.43 15.705-1.71 7.641-4.277 15.526-13.215 20.932-24.924s7.101-23.508 5.404-32.098c-1.245-6.308-4.317-10.955-8.885-13.062s-10.1-1.438-15.705 1.702c-7.641 4.278-15.526 13.223-20.932 24.932zm4.124 1.905c4.942-10.704 12.045-18.959 19.028-22.873 4.145-2.324 8.202-3.105 11.581-1.542s5.414 5.156 6.334 9.817c1.55 7.85-.13 18.61-5.071 29.314-4.942 10.697-12.044 18.958-19.028 22.866-4.145 2.324-8.202 3.105-11.581 1.549-3.379-1.563-5.413-5.156-6.334-9.818-1.551-7.857.129-18.616 5.071-29.313z" fill="url(#k)"/></g><g opacity=".7" class="B"><path d="M932.968 532.215a2.09 2.09 0 0 1 3.926 0l.335.908a2.1 2.1 0 0 0 1.237 1.236l.909.335c.82.303 1.366 1.087 1.366 1.965s-.546 1.658-1.366 1.962l-.909.334c-.573.214-1.024.665-1.237 1.237l-.335.907a2.09 2.09 0 0 1-3.926 0l-.335-.907a2.11 2.11 0 0 0-1.237-1.237l-.907-.334c-.822-.304-1.368-1.087-1.368-1.962s.546-1.662 1.368-1.965l.907-.335c.572-.213 1.023-.664 1.237-1.236l.335-.908z" fill="url(#l)"/><path d="M862.738 165.805c.306-.822 1.087-1.367 1.962-1.367s1.66.545 1.965 1.367l1.472 3.979a2.09 2.09 0 0 0 1.236 1.236l3.979 1.472c.823.306 1.368 1.087 1.368 1.965s-.545 1.657-1.368 1.962l-3.979 1.472a2.09 2.09 0 0 0-1.236 1.236l-1.472 3.979c-.305.823-1.087 1.368-1.965 1.368s-1.656-.545-1.962-1.368l-1.472-3.979a2.09 2.09 0 0 0-1.236-1.236l-3.978-1.472c-.823-.305-1.368-1.087-1.368-1.962s.545-1.659 1.368-1.965l3.978-1.472a2.09 2.09 0 0 0 1.236-1.236l1.472-3.979z" fill="url(#m)"/><path d="M1098.24 41.283a2.08 2.08 0 0 1 1.96-1.364c.88 0 1.66.544 1.97 1.364l.52 1.432a2.1 2.1 0 0 0 1.24 1.237l1.43.529a2.1 2.1 0 0 1 1.37 1.966c0 .875-.55 1.659-1.37 1.961l-1.43.531a2.1 2.1 0 0 0-1.24 1.237l-.52 1.43c-.31.823-1.09 1.367-1.97 1.367a2.08 2.08 0 0 1-1.96-1.367l-.53-1.43a2.1 2.1 0 0 0-1.24-1.237l-1.43-.531c-.82-.302-1.37-1.086-1.37-1.961a2.1 2.1 0 0 1 1.37-1.966l1.43-.529a2.1 2.1 0 0 0 1.24-1.237l.53-1.432z" fill="url(#n)"/><path d="M1165.46 231.946c.28-.745.99-1.239 1.78-1.239a1.91 1.91 0 0 1 1.79 1.239l.09.25c0 .019.02.033.04.04l.25.092a1.91 1.91 0 0 1 1.24 1.783 1.91 1.91 0 0 1-1.24 1.781l-.25.092c-.02.007-.04.021-.04.04a3.08 3.08 0 0 0-.09.25 1.91 1.91 0 0 1-1.79 1.239c-.79 0-1.5-.495-1.78-1.239l-.1-.28-.28-.102c-.75-.276-1.24-.988-1.24-1.781s.49-1.507 1.24-1.783l.28-.102.1-.28z" fill="url(#o)"/><path d="M697.588 539.882a1.9 1.9 0 0 1 3.564 0l.092.25c.007.019.023.033.042.04l.248.092c.745.276 1.241.988 1.241 1.783a1.9 1.9 0 0 1-1.241 1.781l-.248.092c-.019.007-.035.021-.042.04l-.092.25a1.9 1.9 0 0 1-3.564 0l-.102-.28-.28-.102a1.9 1.9 0 0 1-1.239-1.781c0-.795.495-1.507 1.239-1.783l.28-.102.102-.28z" fill="url(#p)"/><path d="M435.158 92.951c.306-.823 1.087-1.368 1.962-1.368s1.66.545 1.965 1.368l1.472 3.979a2.09 2.09 0 0 0 1.236 1.236l3.979 1.472c.823.306 1.368 1.087 1.368 1.965s-.545 1.656-1.368 1.962l-3.979 1.472a2.09 2.09 0 0 0-1.236 1.236l-1.472 3.978c-.305.823-1.087 1.368-1.965 1.368s-1.656-.545-1.962-1.368l-1.472-3.978a2.09 2.09 0 0 0-1.236-1.236l-3.979-1.472c-.822-.306-1.367-1.087-1.367-1.962s.545-1.66 1.367-1.965l3.979-1.472a2.09 2.09 0 0 0 1.236-1.236l1.472-3.979z" fill="url(#q)"/><path d="M603.475 116.954a1.9 1.9 0 0 1 1.781-1.239c.795 0 1.507.495 1.783 1.239l.092.25c.007.019.022.033.041.04l.249.092c.744.276 1.241.988 1.241 1.783s-.497 1.505-1.241 1.781l-.249.092c-.019.007-.034.021-.041.04l-.092.25a1.9 1.9 0 0 1-3.564 0l-.103-.279-.279-.103a1.9 1.9 0 0 1 0-3.564l.279-.102.103-.28z" fill="url(#r)"/><path d="M311.575 124.294a1.9 1.9 0 0 1 3.563 0l.092.25c.007.019.023.033.042.04l.248.092c.745.276 1.242.988 1.242 1.783s-.497 1.505-1.242 1.781l-.248.092c-.019.007-.035.021-.042.04l-.092.25a1.9 1.9 0 0 1-3.563 0l-.103-.28-.279-.102a1.9 1.9 0 0 1 0-3.564l.279-.102.103-.28z" fill="url(#s)"/><path d="M114.108 276.409a1.9 1.9 0 0 1 3.564 0l.092.25c.007.019.022.033.041.04l.249.092c.744.276 1.241.988 1.241 1.783s-.497 1.505-1.241 1.781l-.249.092c-.019.007-.034.021-.041.04l-.092.25c-.276.744-.988 1.239-1.783 1.239a1.9 1.9 0 0 1-1.781-1.239l-.103-.28-.279-.102a1.9 1.9 0 0 1 0-3.564l.279-.103.103-.279z" fill="url(#t)"/><path d="M415.305 388.983a1.9 1.9 0 0 1 3.564 0l.092.25c.007.019.022.033.042.04l.248.092c.745.276 1.241.988 1.241 1.783a1.9 1.9 0 0 1-1.241 1.781l-.248.092c-.02.007-.035.021-.042.04l-.092.25a1.9 1.9 0 0 1-3.564 0l-.102-.28-.28-.102a1.9 1.9 0 0 1 0-3.564l.28-.102.102-.28z" fill="url(#u)"/><path d="M1080.99 585.29c.28-.744.99-1.239 1.78-1.239.8 0 1.51.495 1.78 1.239l.1.25c0 .019.02.033.04.04l.25.092a1.91 1.91 0 0 1 1.24 1.783 1.91 1.91 0 0 1-1.24 1.781l-.25.092c-.02.007-.04.021-.04.04-.02.043-.05.13-.1.25-.27.745-.98 1.239-1.78 1.239-.79 0-1.5-.494-1.78-1.239l-.1-.28-.28-.102c-.75-.276-1.24-.988-1.24-1.781s.49-1.507 1.24-1.783l.28-.102.1-.28z" fill="url(#v)"/><path d="M461.395 432.477a2.1 2.1 0 0 1 3.928 0l2.413 6.528a2.09 2.09 0 0 0 1.237 1.236l6.527 2.414c.82.303 1.367 1.089 1.367 1.965s-.547 1.658-1.367 1.962l-6.527 2.413c-.573.213-1.025.664-1.237 1.237l-2.413 6.527c-.304.82-1.09 1.363-1.966 1.363s-1.658-.543-1.962-1.363l-2.413-6.527c-.212-.573-.664-1.024-1.237-1.237l-6.522-2.413a2.09 2.09 0 0 1 0-3.927l6.522-2.414a2.09 2.09 0 0 0 1.237-1.236l2.413-6.528z" fill="url(#w)"/><path d="M265.645 532.574a1.9 1.9 0 0 1 1.781-1.239c.795 0 1.507.495 1.783 1.239l.092.25c.007.02.022.033.041.04l.249.092c.744.276 1.241.988 1.241 1.783s-.497 1.505-1.241 1.781l-.249.092c-.019.007-.034.021-.041.04l-.092.25a1.9 1.9 0 0 1-3.564 0l-.103-.279-.279-.103a1.9 1.9 0 0 1 0-3.564l.279-.102.103-.28z" fill="url(#x)"/></g><defs><linearGradient id="A" x1="17.864" y1="321.342" x2="32.581" y2="339.484" xlink:href="#AB"><stop stop-color="#e1dcfe" stop-opacity=".6"/><stop offset="1" stop-color="#7e67fd" stop-opacity=".6"/></linearGradient><linearGradient id="B" x1="263.216" y1="291.556" x2="273.028" y2="303.65" xlink:href="#AB"><stop stop-color="#a83afe" stop-opacity=".6"/><stop offset="1" stop-color="#6e59fe" stop-opacity=".6"/></linearGradient><linearGradient id="C" x1="120.762" y1="80.885" x2="125.668" y2="86.932" xlink:href="#AB"><stop stop-color="#a83afe" stop-opacity=".6"/><stop offset="1" stop-color="#6e59fe" stop-opacity=".6"/></linearGradient><linearGradient id="D" x1="156.457" y1="98.445" x2="171.175" y2="116.586" xlink:href="#AB"><stop stop-color="#e1dcfe" stop-opacity=".6"/><stop offset="1" stop-color="#7e67fd" stop-opacity=".6"/></linearGradient><linearGradient id="E" x1="270.201" y1="1.979" x2="280.012" y2="14.073" xlink:href="#AB"><stop stop-color="#a83afe" stop-opacity=".6"/><stop offset="1" stop-color="#6e59fe" stop-opacity=".6"/></linearGradient><linearGradient id="F" x1="882.433" y1="25.857" x2="892.245" y2="37.951" xlink:href="#AB"><stop stop-color="#a83afe" stop-opacity=".6"/><stop offset="1" stop-color="#6e59fe" stop-opacity=".6"/></linearGradient><linearGradient id="G" x1="120.762" y1="80.885" x2="125.668" y2="86.933" xlink:href="#AB"><stop stop-color="#e1dcfe" stop-opacity=".6"/><stop offset="1" stop-color="#7e67fd" stop-opacity=".6"/></linearGradient><linearGradient id="H" x1="1045.83" y1="220.36" x2="1050.73" y2="226.407" xlink:href="#AB"><stop stop-color="#a83afe" stop-opacity=".6"/><stop offset="1" stop-color="#6e59fe" stop-opacity=".6"/></linearGradient><linearGradient id="I" x1="1245.87" y1="408.294" x2="1250.77" y2="414.341" xlink:href="#AB"><stop stop-color="#a83afe" stop-opacity=".6"/><stop offset="1" stop-color="#6e59fe" stop-opacity=".6"/></linearGradient><linearGradient id="J" x1="1200.85" y1="507.063" x2="1210.66" y2="519.158" xlink:href="#AB"><stop stop-color="#a83afe" stop-opacity=".6"/><stop offset="1" stop-color="#6e59fe" stop-opacity=".6"/></linearGradient><linearGradient id="K" x1="1176.43" y1="634.102" x2="1181.34" y2="640.149" xlink:href="#AB"><stop stop-color="#e1dcfe" stop-opacity=".6"/><stop offset="1" stop-color="#7e67fd" stop-opacity=".6"/></linearGradient><linearGradient id="L" x1="1256.8" y1="597.888" x2="1266.61" y2="609.982" xlink:href="#AB"><stop stop-color="#a83afe" stop-opacity=".6"/><stop offset="1" stop-color="#6e59fe" stop-opacity=".6"/></linearGradient><linearGradient id="M" x1="1002.51" y1="598.425" x2="1027.03" y2="628.66" xlink:href="#AB"><stop stop-color="#a83afe" stop-opacity=".6"/><stop offset="1" stop-color="#6e59fe" stop-opacity=".6"/></linearGradient><linearGradient id="N" x1="638.91" y1="615.697" x2="648.721" y2="627.791" xlink:href="#AB"><stop stop-color="#a83afe" stop-opacity=".6"/><stop offset="1" stop-color="#6e59fe" stop-opacity=".6"/></linearGradient><linearGradient id="O" x1="392.773" y1="644.273" x2="402.585" y2="656.368" xlink:href="#AB"><stop stop-color="#a83afe" stop-opacity=".6"/><stop offset="1" stop-color="#6e59fe" stop-opacity=".6"/></linearGradient><linearGradient id="P" x1="392.773" y1="644.273" x2="402.585" y2="656.367" xlink:href="#AB"><stop stop-color="#e1dcfe" stop-opacity=".6"/><stop offset="1" stop-color="#7e67fd" stop-opacity=".6"/></linearGradient><linearGradient id="Q" x1="270.201" y1="1.979" x2="280.012" y2="14.073" xlink:href="#AB"><stop stop-color="#e1dcfe" stop-opacity=".6"/><stop offset="1" stop-color="#7e67fd" stop-opacity=".6"/></linearGradient><linearGradient id="R" x1="1273.54" y1="246.473" x2="1283.35" y2="258.567" xlink:href="#AB"><stop stop-color="#e1dcfe" stop-opacity=".6"/><stop offset="1" stop-color="#7e67fd" stop-opacity=".6"/></linearGradient><linearGradient id="S" x1="1227.83" y1="84.937" x2="1237.64" y2="97.032" xlink:href="#AB"><stop stop-color="#a83afe" stop-opacity=".6"/><stop offset="1" stop-color="#6e59fe" stop-opacity=".6"/></linearGradient><linearGradient id="T" x1="1174.57" y1="26.616" x2="1189.28" y2="44.758" xlink:href="#AB"><stop stop-color="#a83afe" stop-opacity=".6"/><stop offset="1" stop-color="#6e59fe" stop-opacity=".6"/></linearGradient><linearGradient id="U" x1="533.857" y1="348.526" x2="552.025" y2="266.019" xlink:href="#AB"><stop stop-color="#a83afe" stop-opacity=".4"/><stop offset="1" stop-color="#6e59fe" stop-opacity=".08"/></linearGradient><linearGradient id="V" x1="462.977" y1="275.422" x2="599.539" y2="417.472" xlink:href="#AB"><stop stop-color="#3aa0fe"/><stop offset="1" stop-color="#59fef4"/></linearGradient><linearGradient id="W" x1="509.653" y1="222.816" x2="832.443" y2="384.211" xlink:href="#AB"><stop stop-color="#ff0cf5"/><stop offset="1" stop-color="#0575e6"/></linearGradient><linearGradient id="X" x1="589.54" y1="226.063" x2="829.198" y2="345.869" xlink:href="#AB"><stop stop-color="#ff0cf5"/><stop offset="1" stop-color="#0575e6"/></linearGradient><linearGradient id="Y" x1="659.977" y1="284.498" x2="707.032" y2="298.964" xlink:href="#AB"><stop stop-color="#ff0cf5"/><stop offset="1" stop-color="#0575e6"/></linearGradient><linearGradient id="Z" x1="547.131" y1="484.349" x2="669.425" y2="501.572" xlink:href="#AB"><stop stop-color="#e1dcfe"/><stop offset="1" stop-color="#7e67fd"/></linearGradient><linearGradient id="a" x1="650.455" y1="142.757" x2="536.243" y2="181.97" xlink:href="#AB"><stop stop-color="#e1dcfe"/><stop offset="1" stop-color="#7e67fd"/></linearGradient><linearGradient id="b" x1="796.02" y1="516.737" x2="748.629" y2="463.307" xlink:href="#AB"><stop stop-color="#e1dcfe"/><stop offset="1" stop-color="#7e67fd"/></linearGradient><linearGradient id="c" x1="492.666" y1="298.778" x2="455.083" y2="265.734" xlink:href="#AB"><stop stop-color="#e1dcfe"/><stop offset="1" stop-color="#7e67fd"/></linearGradient><linearGradient id="d" x1="1212.44" y1="358.245" x2="1079.25" y2="301.703" xlink:href="#AB"><stop stop-color="#3b0169"/><stop offset="1" stop-color="#5f47fe"/></linearGradient><linearGradient id="e" x1="941.42" y1="37.522" x2="969.539" y2="203.956" xlink:href="#AB"><stop stop-color="#670cf5"/><stop offset="1" stop-color="#400092"/></linearGradient><linearGradient id="f" x1="1076.83" y1="547.367" x2="1024.36" y2="487.478" xlink:href="#AB"><stop stop-color="#3b0169"/><stop offset="1" stop-color="#5f47fe"/></linearGradient><linearGradient id="g" x1="379.535" y1="181.812" x2="239.927" y2="158.535" xlink:href="#AB"><stop stop-color="#670cf5"/><stop offset="1" stop-color="#400092"/></linearGradient><linearGradient id="h" x1="87.108" y1="356.333" x2="223.973" y2="474.182" xlink:href="#AB"><stop stop-color="#3b0169"/><stop offset="1" stop-color="#5f47fe"/></linearGradient><linearGradient id="i" x1="915.916" y1="709.154" x2="818.869" y2="607.559" xlink:href="#AB"><stop stop-color="#3b0169"/><stop offset="1" stop-color="#5f47fe"/></linearGradient><linearGradient id="j" x1="454.124" y1="539.112" x2="343.265" y2="616.87" xlink:href="#AB"><stop stop-color="#a83afe"/><stop offset="1" stop-color="#6e59fe"/></linearGradient><linearGradient id="k" x1="80.056" y1="191.274" x2=".281" y2="182.432" xlink:href="#AB"><stop stop-color="#670cf5"/><stop offset="1" stop-color="#400092"/></linearGradient><linearGradient id="l" x1="927.46" y1="528.699" x2="941.168" y2="545.596" xlink:href="#AB"><stop stop-color="#3aa0fe"/><stop offset="1" stop-color="#59fef4"/></linearGradient><linearGradient id="m" x1="854.007" y1="163.063" x2="873.63" y2="187.251" xlink:href="#AB"><stop stop-color="#a83afe"/><stop offset="1" stop-color="#6e59fe"/></linearGradient><linearGradient id="n" x1="1092.18" y1="37.901" x2="1106.9" y2="56.042" xlink:href="#AB"><stop stop-color="#e1dcfe"/><stop offset="1" stop-color="#7e67fd"/></linearGradient><linearGradient id="o" x1="1161.9" y1="228.413" x2="1171.71" y2="240.508" xlink:href="#AB"><stop stop-color="#e1dcfe"/><stop offset="1" stop-color="#7e67fd"/></linearGradient><linearGradient id="p" x1="694.023" y1="536.349" x2="703.834" y2="548.444" xlink:href="#AB"><stop stop-color="#e1dcfe"/><stop offset="1" stop-color="#7e67fd"/></linearGradient><linearGradient id="q" x1="426.426" y1="90.208" x2="446.05" y2="114.397" xlink:href="#AB"><stop stop-color="#e1dcfe"/><stop offset="1" stop-color="#7e67fd"/></linearGradient><linearGradient id="r" x1="599.909" y1="113.422" x2="609.721" y2="125.516" xlink:href="#AB"><stop stop-color="#e1dcfe"/><stop offset="1" stop-color="#7e67fd"/></linearGradient><linearGradient id="s" x1="308.009" y1="120.761" x2="317.821" y2="132.856" xlink:href="#AB"><stop stop-color="#e1dcfe"/><stop offset="1" stop-color="#7e67fd"/></linearGradient><linearGradient id="t" x1="110.542" y1="272.876" x2="120.354" y2="284.971" xlink:href="#AB"><stop stop-color="#e1dcfe"/><stop offset="1" stop-color="#7e67fd"/></linearGradient><linearGradient id="u" x1="411.739" y1="385.45" x2="421.551" y2="397.545" xlink:href="#AB"><stop stop-color="#e1dcfe"/><stop offset="1" stop-color="#7e67fd"/></linearGradient><linearGradient id="v" x1="1077.42" y1="581.758" x2="1087.24" y2="593.852" xlink:href="#AB"><stop stop-color="#e1dcfe"/><stop offset="1" stop-color="#7e67fd"/></linearGradient><linearGradient id="w" x1="449.99" y1="430.377" x2="474.519" y2="460.613" xlink:href="#AB"><stop stop-color="#a83afe"/><stop offset="1" stop-color="#6e59fe"/></linearGradient><linearGradient id="x" x1="262.079" y1="529.042" x2="271.891" y2="541.136" xlink:href="#AB"><stop stop-color="#a83afe"/><stop offset="1" stop-color="#6e59fe"/></linearGradient><path id="y" d="M123.436 87.22a3.49 3.49 0 0 0 3.489-3.489 3.49 3.49 0 0 0-3.489-3.489 3.49 3.49 0 0 0-3.489 3.489 3.49 3.49 0 0 0 3.489 3.489z"/><path id="z" d="M275.548 14.649a6.98 6.98 0 0 0 6.978-6.978 6.98 6.98 0 0 0-6.978-6.978 6.98 6.98 0 0 0-6.978 6.978 6.98 6.98 0 0 0 6.978 6.978z"/><path id="AA" d="M398.12 656.943a6.98 6.98 0 0 0 6.978-6.978 6.98 6.98 0 0 0-6.978-6.977 6.98 6.98 0 0 0-6.977 6.977 6.98 6.98 0 0 0 6.977 6.978z"/><linearGradient id="AB" gradientUnits="userSpaceOnUse"/></defs></svg>