<svg xmlns="http://www.w3.org/2000/svg" xmlns:xlink="http://www.w3.org/1999/xlink" width="299" height="320" fill="none" xmlns:v="https://vecta.io/nano"><g clip-path="url(#J)" fill-rule="evenodd"><path d="M65.81 267.262a1.5 1.5 0 0 1-.693-2.005c.363-.745 1.264-1.054 2.01-.692l5.406 2.629a1.5 1.5 0 0 1 .693 2.006c-.364.744-1.264 1.054-2.011.691l-5.405-2.629zm13.515 6.572a1.5 1.5 0 0 1-.694-2.005c.364-.745 1.265-1.054 2.01-.692l5.405 2.629a1.5 1.5 0 0 1 .694 2.006c-.364.744-1.265 1.054-2.011.691l-5.405-2.629zm13.514 6.572a1.5 1.5 0 0 1-.693-2.005c.364-.745 1.264-1.054 2.011-.692l5.405 2.629a1.5 1.5 0 0 1 .693 2.006c-.363.744-1.264 1.054-2.01.691l-5.406-2.629zm13.514 6.572a1.5 1.5 0 0 1-.692-2.006c.363-.744 1.264-1.053 2.009-.691l5.407 2.629a1.5 1.5 0 0 1 .692 2.006c-.364.744-1.264 1.053-2.01.691l-5.406-2.629zm13.515 6.572a1.5 1.5 0 0 1-.694-2.006c.364-.744 1.265-1.054 2.011-.691l5.405 2.629a1.5 1.5 0 0 1 .694 2.006 1.51 1.51 0 0 1-2.011.691l-5.405-2.629zm13.514 6.572a1.5 1.5 0 0 1-.693-2.006c.364-.744 1.264-1.054 2.011-.691l.497.242a18.58 18.58 0 0 0 4.784 1.568 1.5 1.5 0 0 1 1.207 1.745c-.149.815-.933 1.355-1.749 1.206a21.62 21.62 0 0 1-5.56-1.822l-.497-.242zm15.663 1.643c-.8.22-1.629-.25-1.849-1.048a1.5 1.5 0 0 1 1.05-1.844c1.151-.317 2.279-.747 3.367-1.289l1.886-.941c.743-.371 1.646-.07 2.018.671a1.5 1.5 0 0 1-.673 2.012l-1.887.941a21.55 21.55 0 0 1-3.912 1.498zm13.867-6.464c-.742.37-1.646.07-2.017-.671a1.5 1.5 0 0 1 .672-2.012l5.379-2.683c.742-.371 1.646-.07 2.017.67a1.5 1.5 0 0 1-.672 2.013l-5.379 2.683zm13.447-6.708c-.743.37-1.646.07-2.018-.671a1.5 1.5 0 0 1 .673-2.012l5.379-2.684c.742-.37 1.646-.069 2.017.671a1.5 1.5 0 0 1-.672 2.013l-5.379 2.683zm13.446-6.708c-.741.37-1.645.069-2.016-.671a1.5 1.5 0 0 1 .672-2.013l5.379-2.683c.742-.37 1.646-.07 2.017.671a1.5 1.5 0 0 1-.672 2.012l-5.38 2.684zm13.448-6.709c-.743.371-1.646.07-2.018-.67a1.5 1.5 0 0 1 .673-2.013l3.209-1.601a1.51 1.51 0 0 1 2.018.671 1.5 1.5 0 0 1-.673 2.012l-3.209 1.601z" fill="url(#A)"/><path d="M87.562 157.232c0 .828-.673 1.5-1.503 1.5s-1.503-.672-1.503-1.5v-6c0-.828.674-1.5 1.503-1.5s1.503.672 1.503 1.5v6zm0-15c0 .828-.673 1.5-1.503 1.5s-1.503-.672-1.503-1.5v-6c0-.828.674-1.5 1.503-1.5s1.503.672 1.503 1.5v6zm0-15c0 .828-.673 1.5-1.503 1.5s-1.503-.672-1.503-1.5v-6c0-.828.674-1.5 1.503-1.5s1.503.672 1.503 1.5v6zm0-14.991c-.005.828-.682 1.496-1.512 1.491s-1.499-.681-1.494-1.509a21.45 21.45 0 0 1 .999-6.348c.25-.789 1.096-1.228 1.886-.979a1.5 1.5 0 0 1 .981 1.883 18.44 18.44 0 0 0-.86 5.462zm5.048-12.582c-.568.603-1.52.631-2.125.063a1.5 1.5 0 0 1-.063-2.12c1.462-1.548 3.164-2.89 5.069-3.965a1.51 1.51 0 0 1 2.05.567 1.5 1.5 0 0 1-.569 2.044c-1.639.925-3.103 2.08-4.361 3.411zm12.35-7.423c-.743.37-1.647.07-2.018-.671a1.5 1.5 0 0 1 .673-2.012l5.378-2.683c.743-.371 1.647-.07 2.018.671a1.5 1.5 0 0 1-.673 2.012l-5.378 2.683zm13.446-6.708c-.742.37-1.645.07-2.017-.671a1.5 1.5 0 0 1 .672-2.012l5.379-2.683c.742-.371 1.646-.07 2.017.67a1.5 1.5 0 0 1-.672 2.013l-5.379 2.683zm13.447-6.708c-.742.37-1.646.07-2.017-.671a1.5 1.5 0 0 1 .673-2.012l5.378-2.684a1.51 1.51 0 0 1 2.018.671 1.5 1.5 0 0 1-.673 2.013l-5.379 2.683zm13.447-6.708c-.742.37-1.646.069-2.017-.671a1.5 1.5 0 0 1 .672-2.013l5.379-2.683c.742-.37 1.646-.07 2.017.671a1.5 1.5 0 0 1-.673 2.012l-5.378 2.684zm13.447-6.709c-.742.371-1.646.07-2.017-.67a1.5 1.5 0 0 1 .672-2.013l5.379-2.683c.742-.37 1.646-.07 2.016.671a1.5 1.5 0 0 1-.671 2.012l-5.379 2.683zm13.446-6.708c-.742.371-1.646.07-2.016-.671a1.5 1.5 0 0 1 .672-2.012l5.378-2.683c.743-.371 1.647-.07 2.018.671a1.5 1.5 0 0 1-.673 2.012l-5.379 2.683z" fill="url(#B)"/><path d="M191.967 102.684l-14.957 7.461-.123.063c-.78.414-1.408 1.007-1.857 1.704l-.013.02c-.445.695-.715 1.498-.774 2.34l-.013.42v57.009a5 5 0 0 0 2.76 4.467l15.33 7.693-15.31 7.638-.123.063c-.78.414-1.408 1.007-1.857 1.703l-.013.021a4.98 4.98 0 0 0-.774 2.339l-.013.421v57.009a5 5 0 0 0 2.76 4.467l56.017 28.109c1.383.694 3.01.711 4.409.046l58.73-27.945a5 5 0 0 0 2.853-4.513v-57.173l-.012-.421a4.98 4.98 0 0 0-.775-2.339l-.013-.021a4.98 4.98 0 0 0-1.856-1.703l-.122-.063-15.551-7.757 15.476-7.364a5 5 0 0 0 2.853-4.513v-57.173l-.012-.42c-.059-.842-.33-1.645-.775-2.34l-.013-.02c-.449-.697-1.076-1.29-1.856-1.704l-.122-.063-15.188-7.576 15.113-7.191a5 5 0 0 0 2.853-4.513V33.692l-.012-.42c-.059-.842-.33-1.645-.775-2.34l-.013-.02c-.449-.697-1.076-1.29-1.856-1.704l-.122-.063L238.856.528a5.02 5.02 0 0 0-4.482 0L177.01 29.145l-.123.063c-.78.414-1.408 1.007-1.857 1.704l-.013.02c-.445.695-.715 1.498-.774 2.34l-.013.42v57.009a5 5 0 0 0 2.76 4.467l14.977 7.516zm39.645 125.008l.141 46.116-47.5-23.835v-45.907l47.359 23.626zm10.023-.009l47.341-23.617v45.998l-47.205 22.461-.136-44.842zM269.2 189.2l-31.784 15.123c-1.399.665-3.026.648-4.409-.046l-29.514-14.81-13.046 6.508 46.168 23.032 46.167-23.032L269.2 189.2zm-37.588-42.862l.141 46.116-47.5-23.835v-45.907l47.359 23.626zm10.023-.009l47.341-23.617v45.998l-47.205 22.462-.136-44.843zm27.927-38.302l-32.146 15.296c-1.399.665-3.026.648-4.409-.046L203.14 108.29l-12.693 6.332 46.168 23.031 46.167-23.031-13.22-6.595zm-37.95-42.689l.141 46.116-47.5-23.835V41.712l47.359 23.626zm10.023-.009l47.341-23.617V87.71l-47.205 22.462-.136-44.843zm-51.188-31.707l46.168 23.031 46.167-23.031-46.167-23.032-46.168 23.032z" fill="url(#C)"/><path d="M256.604 78.022c1.289-.643 2.335-.121 2.335 1.165s-1.046 2.851-2.335 3.494-2.334.121-2.334-1.165 1.046-2.852 2.334-3.495zm8.608-4.413c1.289-.643 2.335-.12 2.335 1.165s-1.046 2.851-2.335 3.494-2.335.121-2.335-1.165 1.046-2.852 2.335-3.494zm8.784-4.059c1.289-.643 2.335-.121 2.335 1.165s-1.046 2.852-2.335 3.495-2.335.121-2.335-1.165 1.047-2.852 2.335-3.495z" fill="url(#D)"/><path d="M256.604 240.375c1.289-.643 2.335-.122 2.335 1.164s-1.046 2.852-2.335 3.495-2.334.121-2.334-1.165 1.046-2.851 2.334-3.494zm8.608-4.414c1.289-.643 2.335-.12 2.335 1.165s-1.046 2.851-2.335 3.494-2.335.121-2.335-1.164 1.046-2.852 2.335-3.495zm8.784-4.059c1.289-.643 2.335-.121 2.335 1.165s-1.046 2.851-2.335 3.494-2.335.121-2.335-1.165 1.047-2.851 2.335-3.494z" fill="url(#E)"/><path d="M273.995 155.212c-1.289.643-2.335.121-2.335-1.165s1.046-2.851 2.335-3.494 2.335-.122 2.335 1.164-1.046 2.852-2.335 3.495zm-8.607 4.413c-1.289.643-2.335.12-2.335-1.164s1.046-2.852 2.335-3.495 2.334-.121 2.334 1.165-1.046 2.851-2.334 3.494zm-8.784 4.06c-1.289.643-2.335.121-2.335-1.165s1.046-2.852 2.335-3.495 2.335-.121 2.335 1.165-1.048 2.852-2.335 3.495z" fill="url(#F)"/><path d="M33.874 301.871l15.24 7.603a5.02 5.02 0 0 0 4.482 0l15.34-7.653c3.735-1.863 6.095-5.672 6.095-9.838V273.25a5.01 5.01 0 1 1 10.023 0v18.733c0 7.954-4.504 15.225-11.635 18.783l-15.34 7.652a15.06 15.06 0 0 1-13.446 0l-22.412-11.18a6 6 0 0 1 0-10.733l18.022-8.991a11.01 11.01 0 0 0 6.102-9.85v-18.726a5.01 5.01 0 1 1 10.023 0v18.726c0 7.959-4.507 15.235-11.642 18.794l-10.85 5.413z" fill="url(#G)"/><path d="M145.951 191.642L5.01 121.33v114.487l140.941 70.475v-114.65z" fill="url(#H)"/><path d="M148.193 187.17a5 5 0 0 1 2.77 4.472v114.65a5 5 0 0 1-2.378 4.255c-1.479.91-3.325.992-4.879.215L2.764 240.287a5 5 0 0 1-2.765-4.47V121.329a5 5 0 0 1 2.376-4.253 5.02 5.02 0 0 1 4.876-.219l140.941 70.313zm-7.253 7.562L10.022 129.42v103.31l130.918 65.464V194.732z" fill="url(#I)"/></g><defs><linearGradient id="A" x1="114.745" y1="287.788" x2="205.788" y2="287.788" xlink:href="#K"><stop stop-color="#a83afe"/><stop offset="1" stop-color="#6e59fe"/></linearGradient><linearGradient id="B" x1="149.498" y1="52.001" x2="91.704" y2="134.546" xlink:href="#K"><stop stop-color="#e1dcfe"/><stop offset="1" stop-color="#7e67fd"/></linearGradient><linearGradient id="C" x1="174.23" y1="30.532" x2="298.04" y2="255.693" xlink:href="#K"><stop stop-color="#ff0cf5"/><stop offset="1" stop-color="#0575e6"/></linearGradient><linearGradient id="D" x1="276.125" y1="69.86" x2="254.367" y2="82.104" xlink:href="#K"><stop stop-color="#36ff78"/><stop offset="1" stop-color="#00c441" stop-opacity=".1"/></linearGradient><linearGradient id="E" x1="276.125" y1="232.213" x2="254.367" y2="244.457" xlink:href="#K"><stop stop-color="#36ff78"/><stop offset="1" stop-color="#00c441" stop-opacity=".1"/></linearGradient><linearGradient id="F" x1="254.474" y1="163.374" x2="276.233" y2="151.129" xlink:href="#K"><stop stop-color="#36ff78"/><stop offset="1" stop-color="#00c441" stop-opacity=".1"/></linearGradient><linearGradient id="G" x1="66.308" y1="262.478" x2="39.34" y2="310.194" xlink:href="#K"><stop stop-color="#3aa0fe"/><stop offset="1" stop-color="#59fef4"/></linearGradient><linearGradient id="H" x1="75.481" y1="156.486" x2="38.718" y2="256.092" xlink:href="#K"><stop stop-color="#36ff78" stop-opacity=".8"/><stop offset="1" stop-color="#0cffff" stop-opacity=".15"/></linearGradient><linearGradient id="I" x1="91.07" y1="164.262" x2="33.887" y2="258.585" xlink:href="#K"><stop stop-color="#36ff78"/><stop offset="1" stop-color="#0cffff"/></linearGradient><clipPath id="J"><path fill="#fff" d="M0 0h299v320H0z"/></clipPath><linearGradient id="K" gradientUnits="userSpaceOnUse"/></defs></svg>