<svg xmlns="http://www.w3.org/2000/svg" xmlns:xlink="http://www.w3.org/1999/xlink" width="840" height="344" fill="none" xmlns:v="https://vecta.io/nano"><style><![CDATA[.B{fill-rule:evenodd}]]></style><g clip-path="url(#O)" class="B"><path d="M289.281 124.235c-.829 0-1.502-.675-1.502-1.507s.673-1.507 1.502-1.507h3.005c.829 0 1.502.675 1.502 1.507s-.673 1.507-1.502 1.507h-3.005zm12.019 0c-.829 0-1.502-.675-1.502-1.507s.673-1.507 1.502-1.507h6.009c.829 0 1.502.675 1.502 1.507s-.673 1.507-1.502 1.507H301.3zm15.022 0c-.829 0-1.502-.675-1.502-1.507s.673-1.507 1.502-1.507h6.01c.829 0 1.502.675 1.502 1.507s-.673 1.507-1.502 1.507h-6.01zm15.024 0c-.83 0-1.503-.675-1.503-1.507s.673-1.507 1.503-1.507h6.009c.828 0 1.501.675 1.501 1.507s-.673 1.507-1.501 1.507h-6.009zm15.022 0c-.829 0-1.502-.675-1.502-1.507s.673-1.507 1.502-1.507h6.009c.83 0 1.503.675 1.503 1.507s-.673 1.507-1.503 1.507h-6.009zm15.023 0c-.829 0-1.502-.675-1.502-1.507s.673-1.507 1.502-1.507h6.01c.829 0 1.502.675 1.502 1.507s-.673 1.507-1.502 1.507h-6.01zm15.024 0c-.83 0-1.503-.675-1.503-1.507s.673-1.507 1.503-1.507h6.009c.828 0 1.501.675 1.501 1.507s-.673 1.507-1.501 1.507h-6.009zm15.022 0c-.829 0-1.502-.675-1.502-1.507s.673-1.507 1.502-1.507h6.009c.83 0 1.503.675 1.503 1.507s-.673 1.507-1.503 1.507h-6.009zm15.022 0c-.828 0-1.501-.675-1.501-1.507s.673-1.507 1.501-1.507h6.01c.829 0 1.502.675 1.502 1.507s-.673 1.507-1.502 1.507h-6.01zm15.024 0c-.83 0-1.503-.675-1.503-1.507s.673-1.507 1.503-1.507h6.009c.828 0 1.501.675 1.501 1.507s-.673 1.507-1.501 1.507h-6.009zm15.022 0c-.828 0-1.502-.675-1.502-1.507s.674-1.507 1.502-1.507h6.009c.83 0 1.503.675 1.503 1.507s-.673 1.507-1.503 1.507h-6.009zm15.023 0c-.829 0-1.502-.675-1.502-1.507s.673-1.507 1.502-1.507h6.009c.829 0 1.502.675 1.502 1.507s-.673 1.507-1.502 1.507h-6.009zm15.023 0c-.83 0-1.503-.675-1.503-1.507s.673-1.507 1.503-1.507h6.009c.828 0 1.502.675 1.502 1.507s-.674 1.507-1.502 1.507h-6.009zm15.022 0c-.828 0-1.502-.675-1.502-1.507s.674-1.507 1.502-1.507h6.01c.829 0 1.502.675 1.502 1.507s-.673 1.507-1.502 1.507h-6.01zm15.023 0c-.829 0-1.502-.675-1.502-1.507s.673-1.507 1.502-1.507h6.009c.83 0 1.503.675 1.503 1.507s-.673 1.507-1.503 1.507h-6.009zm15.024 0c-.83 0-1.503-.675-1.503-1.507s.673-1.507 1.503-1.507h6.009c.828 0 1.501.675 1.501 1.507s-.673 1.507-1.501 1.507h-6.009zm15.022 0c-.829 0-1.502-.675-1.502-1.507s.673-1.507 1.502-1.507h6.009c.83 0 1.503.675 1.503 1.507s-.673 1.507-1.503 1.507h-6.009zm15.023 0c-.829 0-1.502-.675-1.502-1.507s.673-1.507 1.502-1.507h6.009c.83 0 1.503.675 1.503 1.507s-.673 1.507-1.503 1.507h-6.009zm15.023 0c-.829 0-1.502-.675-1.502-1.507s.673-1.507 1.502-1.507h6.009c.829 0 1.502.675 1.502 1.507s-.673 1.507-1.502 1.507h-6.009zm15.023 0c-.83 0-1.503-.675-1.503-1.507s.673-1.507 1.503-1.507h6.009c.83 0 1.503.675 1.503 1.507s-.673 1.507-1.503 1.507h-6.009zm15.023 0c-.829 0-1.502-.675-1.502-1.507s.673-1.507 1.502-1.507h6.009c.829 0 1.503.675 1.503 1.507s-.674 1.507-1.503 1.507h-6.009zm15.023 0c-.829 0-1.502-.675-1.502-1.507s.673-1.507 1.502-1.507h6.009c.829 0 1.502.675 1.502 1.507s-.673 1.507-1.502 1.507h-6.009zm15.023 0c-.83 0-1.503-.675-1.503-1.507s.673-1.507 1.503-1.507h6.009c.829 0 1.503.675 1.503 1.507s-.674 1.507-1.503 1.507h-6.009zm15.022 0c-.828 0-1.501-.675-1.501-1.507s.673-1.507 1.501-1.507h6.009c.83 0 1.503.675 1.503 1.507s-.673 1.507-1.503 1.507h-6.009z" fill="url(#A)"/><path d="M319.527 305.431c-.829 0-1.502-.676-1.502-1.508s.673-1.507 1.502-1.507h3.005c.83 0 1.502.675 1.502 1.507s-.672 1.508-1.502 1.508h-3.005zm12.019 0c-.829 0-1.502-.676-1.502-1.508s.673-1.507 1.502-1.507h6.009c.829 0 1.502.675 1.502 1.507s-.673 1.508-1.502 1.508h-6.009zm15.023 0c-.829 0-1.502-.676-1.502-1.508s.673-1.507 1.502-1.507h6.009c.83 0 1.503.675 1.503 1.507s-.673 1.508-1.503 1.508h-6.009zm15.022 0c-.829 0-1.501-.676-1.501-1.508s.672-1.507 1.501-1.507h6.009c.83 0 1.503.675 1.503 1.507s-.673 1.508-1.503 1.508h-6.009zm15.024 0c-.829 0-1.503-.676-1.503-1.508s.674-1.507 1.503-1.507h6.009c.829 0 1.502.675 1.502 1.507s-.673 1.508-1.502 1.508h-6.009zm15.023 0c-.83 0-1.503-.676-1.503-1.508s.673-1.507 1.503-1.507h6.009c.829 0 1.501.675 1.501 1.507s-.672 1.508-1.501 1.508h-6.009zm15.022 0c-.829 0-1.502-.676-1.502-1.508s.673-1.507 1.502-1.507h6.009c.83 0 1.503.675 1.503 1.507s-.673 1.508-1.503 1.508h-6.009zm15.024 0c-.83 0-1.503-.676-1.503-1.508s.673-1.507 1.503-1.507h6.009c.829 0 1.501.675 1.501 1.507s-.672 1.508-1.501 1.508h-6.009zm15.022 0c-.829 0-1.502-.676-1.502-1.508s.673-1.507 1.502-1.507h6.009c.829 0 1.503.675 1.503 1.507s-.674 1.508-1.503 1.508h-6.009zm15.023 0c-.829 0-1.502-.676-1.502-1.508s.673-1.507 1.502-1.507h6.009c.83 0 1.503.675 1.503 1.507s-.673 1.508-1.503 1.508h-6.009zm15.023 0c-.829 0-1.502-.676-1.502-1.508s.673-1.507 1.502-1.507h6.009c.829 0 1.502.675 1.502 1.507s-.673 1.508-1.502 1.508h-6.009zm15.023 0c-.829 0-1.503-.676-1.503-1.508s.674-1.507 1.503-1.507h6.009c.829 0 1.502.675 1.502 1.507s-.673 1.508-1.502 1.508h-6.009zm15.023 0c-.829 0-1.502-.676-1.502-1.508s.673-1.507 1.502-1.507h6.009c.829 0 1.502.675 1.502 1.507s-.673 1.508-1.502 1.508h-6.009zm15.023 0c-.83 0-1.503-.676-1.503-1.508s.673-1.507 1.503-1.507h6.009c.829 0 1.502.675 1.502 1.507s-.673 1.508-1.502 1.508h-6.009zm15.023 0c-.829 0-1.502-.676-1.502-1.508s.673-1.507 1.502-1.507h6.009c.829 0 1.502.675 1.502 1.507s-.673 1.508-1.502 1.508h-6.009zm15.023 0c-.83 0-1.503-.676-1.503-1.508s.673-1.507 1.503-1.507h6.009c.829 0 1.502.675 1.502 1.507s-.673 1.508-1.502 1.508h-6.009zm15.023 0c-.829 0-1.503-.676-1.503-1.508s.674-1.507 1.503-1.507h6.009c.829 0 1.502.675 1.502 1.507s-.673 1.508-1.502 1.508h-6.009zm15.022 0c-.829 0-1.501-.676-1.501-1.508s.672-1.507 1.501-1.507h6.009c.83 0 1.503.675 1.503 1.507s-.673 1.508-1.503 1.508h-6.009zm15.023 0c-.829 0-1.502-.676-1.502-1.508s.673-1.507 1.502-1.507h6.01c.829 0 1.502.675 1.502 1.507s-.673 1.508-1.502 1.508h-6.01zm15.023 0c-.828 0-1.502-.676-1.502-1.508s.674-1.507 1.502-1.507h6.01c.828 0 1.501.675 1.501 1.507s-.673 1.508-1.501 1.508h-6.01zm15.023 0c-.829 0-1.502-.676-1.502-1.508s.673-1.507 1.502-1.507h6.009c.83 0 1.503.675 1.503 1.507s-.673 1.508-1.503 1.508h-6.009z" fill="url(#B)"/><path d="M44.692 276.256c-1.405 3.103-1.146 6.71.687 9.58a10.01 10.01 0 0 0 8.389 4.625l222.682.922a10.01 10.01 0 0 0 8.474-4.627 10.08 10.08 0 0 0 .649-9.658l-5.141-11.096a15.02 15.02 0 0 0-13.623-8.719H62.958c-5.892 0-11.241 3.457-13.678 8.839l-4.587 10.134z" fill="url(#C)"/><path d="M286.28 113.993c0-13.874-11.21-25.121-25.038-25.121H69.269c-13.828 0-25.038 11.247-25.038 25.121v102.742c0 13.874 11.21 25.122 25.038 25.122h191.974c13.828 0 25.038-11.248 25.038-25.122V113.993z" fill="url(#D)"/><g clip-path="url(#P)"><path d="M176.687 168.898c-2.194 6.174-9.005 9.402-15.196 7.213-6.179-2.184-9.426-8.958-7.236-15.121 2.194-6.175 9.005-9.402 15.196-7.214a6.55 6.55 0 0 0 8.353-3.989 6.55 6.55 0 0 0-3.99-8.353c-12.998-4.595-27.287 2.208-31.894 15.172-4.612 12.976 2.198 27.248 15.208 31.847 12.998 4.595 27.287-2.208 31.894-15.172a6.55 6.55 0 0 0-3.976-8.359 6.55 6.55 0 0 0-8.359 3.976z" fill="url(#E)"/></g><path d="M47.859 240.234c-6.854 2.655-12.63 7.788-16.032 14.596L.529 317.472c-.264.529-.43 1.094-.496 1.665l-.033.576.001.073c.006.452.073.89.192 1.306l.017.056-.002-.006.02.07c3.833 13.374 16.11 22.636 30.08 22.636h269.887c13.985 0 26.272-9.28 30.108-22.734l.009-.03v.001a5.01 5.01 0 0 0-.337-3.613l-31.298-62.642c-3.402-6.808-9.178-11.941-16.032-14.596.284-.264.565-.533.84-.809a30.08 30.08 0 0 0 8.8-21.261V109.633c0-7.974-3.165-15.622-8.8-21.26s-13.277-8.807-21.245-8.807H68.264c-7.968 0-15.611 3.168-21.245 8.807a30.08 30.08 0 0 0-8.8 21.26v108.531a30.08 30.08 0 0 0 8.801 21.261c.275.276.556.545.84.809zm269.792 84.49H12.853c3.903 5.586 10.359 9.101 17.456 9.101h269.887c7.097 0 13.553-3.515 17.456-9.101zM68.264 248.232H262.24 68.264zm-55.154 66.47l27.674-55.39a20.03 20.03 0 0 1 17.916-11.08h213.103a20.03 20.03 0 0 1 17.916 11.08l27.675 55.39H13.11zm251.293-76.493H68.264c-5.312 0-10.407-2.112-14.164-5.871a20.05 20.05 0 0 1-5.867-14.174V109.633A20.05 20.05 0 0 1 54.1 95.46c3.757-3.759 8.852-5.871 14.164-5.871H262.24c5.312 0 10.406 2.113 14.163 5.871a20.05 20.05 0 0 1 5.867 14.173v108.531a20.05 20.05 0 0 1-5.867 14.174c-3.757 3.759-8.851 5.871-14.163 5.871h2.163z" fill="url(#F)"/><path d="M654.715 319.942h20.03a5.02 5.02 0 1 0 0-10.048h-20.03c-2.765 0-5.008 2.25-5.008 5.024a5.02 5.02 0 0 0 5.008 5.024z" fill="url(#G)"/><path d="M654.715 253.91h20.03a5.02 5.02 0 1 0 0-10.049h-20.03a5.02 5.02 0 1 0 0 10.049z" fill="url(#H)"/><path d="M630.085 156.576c-.232.539-.372 1.128-.401 1.747l-.002.047-.001.032-.001.033-.001.024v.018l-.001.022v.03.024.011 48.117c0 2.741 2.187 4.97 4.906 5.023l-4.499 11.134a5.02 5.02 0 0 0-.401 1.747l-.002.048-.001.031-.001.034-.001.024v.018l-.001.022v.03.024.012 48.116c0 2.71 2.138 4.918 4.814 5.02l-4.407 10.907c-.232.539-.372 1.128-.401 1.747l-.002.048-.001.031-.001.033-.001.024v.019l-.001.022v.029.024.011 48.118c0 2.774 2.242 5.023 5.007 5.023h200.306c2.764 0 5.008-2.249 5.008-5.024v-48.117-.011-.024-.029-.022-.019-.024-.033-.031l-.01-.048c-.03-.619-.161-1.208-.401-1.747l-4.407-10.907c2.684-.102 4.818-2.31 4.818-5.02v-48.116-.012-.024-.03-.022-.018-.024-.034-.031l-.01-.048c-.03-.618-.161-1.206-.401-1.747l-4.497-11.134c2.724-.053 4.908-2.282 4.908-5.023v-48.117-.011-.024-.03-.022-.018-.024-.033-.032l-.01-.047c-.03-.619-.161-1.208-.401-1.747l-30.006-74.26c-.761-1.895-2.594-3.136-4.637-3.136H664.731a5.01 5.01 0 0 0-4.641 3.136l-30.005 74.26zm9.608 139.308h190.29v38.067h-190.29v-38.067zm187.867-10.049l-3.185-7.867H645.298l-3.179 7.867H827.56zm-187.867-55.983h190.29v38.067h-190.29v-38.067zm184.592-18.147H645.391l-3.272 8.098H827.56l-3.275-8.098zm3.455-10.049h2.243v-38.067h-190.29v38.067h2.241a4.93 4.93 0 0 1 .172 0H827.57h.17zm-.18-48.116h-88.035-97.406l25.985-64.312H801.57l25.99 64.312z" fill="url(#I)"/><path d="M654.715 187.647h20.03a5.02 5.02 0 1 0 0-10.048h-20.03a5.02 5.02 0 1 0 0 10.048z" fill="url(#J)"/><path d="M809.953 310.396v9.044a5.02 5.02 0 0 0 5.008 5.025 5.02 5.02 0 0 0 5.008-5.025v-9.044a5.02 5.02 0 0 0-5.008-5.024 5.02 5.02 0 0 0-5.008 5.024zm-18.027 0v9.044a5.02 5.02 0 0 0 5.008 5.025 5.02 5.02 0 0 0 5.007-5.025v-9.044c0-2.773-2.243-5.024-5.007-5.024a5.02 5.02 0 0 0-5.008 5.024zm-18.028 0v9.044a5.02 5.02 0 0 0 5.008 5.025 5.02 5.02 0 0 0 5.008-5.025v-9.044a5.02 5.02 0 0 0-5.008-5.024 5.02 5.02 0 0 0-5.008 5.024zm18.028-66.033v9.044a5.02 5.02 0 0 0 5.008 5.025 5.02 5.02 0 0 0 5.007-5.025v-9.044a5.02 5.02 0 0 0-5.007-5.024 5.02 5.02 0 0 0-5.008 5.024zm-18.028 0v9.044a5.02 5.02 0 0 0 5.008 5.025 5.02 5.02 0 0 0 5.008-5.025v-9.044a5.02 5.02 0 0 0-5.008-5.024 5.02 5.02 0 0 0-5.008 5.024zm36.055 0v9.044a5.02 5.02 0 0 0 5.008 5.025 5.02 5.02 0 0 0 5.008-5.025v-9.044a5.02 5.02 0 0 0-5.008-5.024 5.02 5.02 0 0 0-5.008 5.024zm-18.027-66.262v9.044a5.02 5.02 0 0 0 5.008 5.024c2.764 0 5.007-2.251 5.007-5.024v-9.044c0-2.773-2.243-5.024-5.007-5.024a5.02 5.02 0 0 0-5.008 5.024zm-18.028 0v9.044a5.02 5.02 0 0 0 5.008 5.024 5.02 5.02 0 0 0 5.008-5.024v-9.044a5.02 5.02 0 0 0-5.008-5.024 5.02 5.02 0 0 0-5.008 5.024zm36.055 0v9.044a5.02 5.02 0 0 0 5.008 5.024 5.02 5.02 0 0 0 5.008-5.024v-9.044a5.02 5.02 0 0 0-5.008-5.024 5.02 5.02 0 0 0-5.008 5.024z" fill="url(#K)"/><path d="M714.936 115.793c-12.039-7.349-20.086-20.642-20.086-35.813 0-23.116 18.708-41.893 41.752-41.893s41.753 18.777 41.753 41.893c0 15.22-8.106 28.563-20.219 35.9" fill="#151515"/><g clip-path="url(#Q)"><path d="M744.948 81.65c-1.492 4.199-6.123 6.394-10.333 4.905-4.202-1.485-6.41-6.092-4.921-10.282 1.493-4.199 6.124-6.394 10.334-4.905 2.316.819 4.861-.397 5.68-2.713s-.397-4.861-2.713-5.68c-8.839-3.125-18.556 1.501-21.689 10.317-3.135 8.823 1.495 18.528 10.342 21.656 8.838 3.125 18.555-1.501 21.688-10.317.823-2.315-.389-4.862-2.703-5.684s-4.862.389-5.685 2.703z" fill="url(#L)"/></g><path d="M717.54 111.503c2.361 1.442 3.111 4.538 1.674 6.901-1.437 2.375-4.521 3.121-6.88 1.679-13.483-8.232-22.492-23.117-22.492-40.103 0-25.889 20.952-46.917 46.76-46.917s46.761 21.027 46.761 46.917c0 17.048-9.074 31.983-22.639 40.202-2.366 1.43-5.447.659-6.875-1.703a5.04 5.04 0 0 1 1.698-6.902c10.662-6.466 17.801-18.192 17.801-31.597 0-20.343-16.465-36.869-36.746-36.869s-36.745 16.526-36.745 36.869c0 13.355 7.087 25.044 17.683 31.523z" fill="url(#M)"/><path d="M694.039 120.822a5.02 5.02 0 1 1 0-10.049h85.135c2.759 0 5.002 2.252 5.002 5.024s-2.243 5.025-5.002 5.025h-85.135z" fill="url(#N)"/><path d="M777.877 14.068h-9.014a5.02 5.02 0 1 0 0 10.049h9.014v9.044c0 2.773 2.243 5.024 5.007 5.024a5.02 5.02 0 0 0 5.008-5.024v-9.044h9.014a5.02 5.02 0 1 0 0-10.049h-9.014V5.024A5.02 5.02 0 0 0 782.884 0c-2.764 0-5.007 2.251-5.007 5.024v9.044z" fill="#fff"/></g><defs><linearGradient id="A" x1="287.385" y1="122.728" x2="468.327" y2="122.728" xlink:href="#R"><stop stop-color="#3aa0fe"/><stop offset="1" stop-color="#59fef4"/></linearGradient><linearGradient id="B" x1="319.527" y1="283.826" x2="531.225" y2="283.826" xlink:href="#R"><stop stop-color="#ff0cf5"/><stop offset="1" stop-color="#0575e6"/></linearGradient><linearGradient id="C" x1="35.742" y1="273.091" x2="294.771" y2="273.091" xlink:href="#R"><stop stop-color="#670cf5"/><stop offset="1" stop-color="#400092"/></linearGradient><linearGradient id="D" x1="44.07" y1="89.43" x2="281.394" y2="239.272" xlink:href="#R"><stop stop-color="#a83afe" stop-opacity=".2"/><stop offset="1" stop-color="#6e59fe" stop-opacity=".04"/></linearGradient><linearGradient id="E" x1="157.877" y1="148.183" x2="178.806" y2="177.606" xlink:href="#R"><stop stop-color="#ff0cf5"/><stop offset="1" stop-color="#0575e6"/></linearGradient><linearGradient id="F" x1="1.002" y1="79.566" x2="330.088" y2="343.007" xlink:href="#R"><stop stop-color="#ff0cf5"/><stop offset="1" stop-color="#0575e6"/></linearGradient><linearGradient id="G" x1="654.715" y1="314.918" x2="674.745" y2="314.918" xlink:href="#R"><stop stop-color="#ff0cf5"/><stop offset="1" stop-color="#0575e6"/></linearGradient><linearGradient id="H" x1="654.715" y1="248.886" x2="674.745" y2="248.886" xlink:href="#R"><stop stop-color="#ff0cf5"/><stop offset="1" stop-color="#0575e6"/></linearGradient><linearGradient id="I" x1="664.731" y1="79.18" x2="830.758" y2="333.446" xlink:href="#R"><stop stop-color="#ff0cf5"/><stop offset="1" stop-color="#0575e6"/></linearGradient><linearGradient id="J" x1="654.715" y1="182.623" x2="674.745" y2="182.623" xlink:href="#R"><stop stop-color="#ff0cf5"/><stop offset="1" stop-color="#0575e6"/></linearGradient><linearGradient id="K" x1="773.898" y1="178.101" x2="820.249" y2="324.376" xlink:href="#R"><stop stop-color="#a83afe"/><stop offset="1" stop-color="#6e59fe"/></linearGradient><linearGradient id="L" x1="732.158" y1="67.565" x2="746.389" y2="87.572" xlink:href="#R"><stop stop-color="#ff0cf5"/><stop offset="1" stop-color="#0575e6"/></linearGradient><linearGradient id="M" x1="702.228" y1="39.704" x2="768.966" y2="115.477" xlink:href="#R"><stop stop-color="#ff0cf5"/><stop offset="1" stop-color="#0575e6"/></linearGradient><linearGradient id="N" x1="684.399" y1="102.134" x2="789.845" y2="130.486" xlink:href="#R"><stop stop-color="#3aa0fe"/><stop offset="1" stop-color="#59fef4"/></linearGradient><clipPath id="O"><path fill="#fff" d="M0 0h840v344H0z"/></clipPath><clipPath id="P"><path fill="#fff" transform="translate(140 140)" d="M0 0h50v50H0z"/></clipPath><clipPath id="Q"><path fill="#fff" transform="translate(720 62)" d="M0 0h34v34H0z"/></clipPath><linearGradient id="R" gradientUnits="userSpaceOnUse"/></defs></svg>