<svg xmlns="http://www.w3.org/2000/svg" xmlns:xlink="http://www.w3.org/1999/xlink" width="260" height="260" fill="none" xmlns:v="https://vecta.io/nano"><g clip-path="url(#G)"><path d="M130 260c71.797 0 130-58.203 130-130S201.797 0 130 0 0 58.203 0 130s58.203 130 130 130z" fill="url(#A)"/><g fill-rule="evenodd"><g fill="#fff"><path d="M152.75 148.85h10.4a3.25 3.25 0 1 0 0-6.5h-10.4a3.25 3.25 0 1 0 0 6.5zm0-19.5h36.4a3.25 3.25 0 1 0 0-6.5h-36.4a3.25 3.25 0 1 0 0 6.5z"/></g><path d="M3.25 214.5h208a3.25 3.25 0 1 0 0-6.5h-208a3.25 3.25 0 1 0 0 6.5z" fill="url(#B)"/><path d="M67.159 208H3.25a3.25 3.25 0 1 0 0 6.5h63.909c1.793 0 3.25-1.456 3.25-3.25s-1.457-3.25-3.25-3.25z" fill="#fff"/><path d="M130 178.1h9.75a3.25 3.25 0 0 1 3.25 3.25v12.786a9.75 9.75 0 0 0 18.054 5.109l12.06-19.598a3.25 3.25 0 0 1 2.768-1.547h28.868a9.75 9.75 0 0 0 9.75-9.75V100.1a9.75 9.75 0 0 0-9.75-9.75h-52a3.25 3.25 0 1 0 0 6.5h52a3.25 3.25 0 0 1 3.25 3.25v68.25a3.25 3.25 0 0 1-3.25 3.25h-28.868a9.75 9.75 0 0 0-8.304 4.64l-12.06 19.599a3.25 3.25 0 0 1-6.018-1.703V181.35a9.75 9.75 0 0 0-9.75-9.75H130a3.25 3.25 0 1 0 0 6.5z" fill="url(#C)"/><path d="M50.05 158.386l-1.16-82.198c-.037-2.61.974-5.125 2.806-6.983a9.75 9.75 0 0 1 6.943-2.905H143a9.75 9.75 0 0 1 9.75 9.75v82.336l-24.586 3.874-4.779 23.426-6.24.65L97.5 159.834l-47.45-1.448z" fill="url(#D)"/><path d="M156 154.05V72.8a9.75 9.75 0 0 0-9.75-9.75h-91a9.75 9.75 0 0 0-9.75 9.75v81.25a9.75 9.75 0 0 0 9.75 9.75h41.868a3.25 3.25 0 0 1 2.768 1.546c0 .001 12.061 19.599 12.061 19.599A9.75 9.75 0 0 0 130 179.836V167.05a3.25 3.25 0 0 1 3.25-3.25h13a9.75 9.75 0 0 0 9.75-9.75zm-6.5 0a3.25 3.25 0 0 1-3.25 3.25h-13a9.75 9.75 0 0 0-9.75 9.75v12.786a3.25 3.25 0 0 1-6.018 1.703l-12.06-19.599a9.75 9.75 0 0 0-8.304-4.64H55.25c-.862 0-1.689-.343-2.298-.952A3.25 3.25 0 0 1 52 154.05V72.8c0-.862.343-1.689.952-2.298s1.437-.952 2.298-.952h91a3.25 3.25 0 0 1 2.298.952c.609.61.952 1.437.952 2.298v81.25z" fill="url(#E)"/><path d="M111.6 116.612c-2.026 5.717-8.313 8.714-14.03 6.687a11 11 0 0 1-6.687-14.03 11 11 0 0 1 14.031-6.688 6.07 6.07 0 0 0 7.744-3.691 6.07 6.07 0 0 0-3.69-7.743c-12.029-4.264-25.255 2.04-29.519 14.068s2.04 25.256 14.069 29.519 25.255-2.04 29.518-14.069a6.07 6.07 0 0 0-3.69-7.744c-3.156-1.118-6.626.536-7.745 3.691z" fill="url(#F)"/></g></g><defs><linearGradient id="A" x1="45.696" y1="31.071" x2="227.707" y2="215.716" xlink:href="#H"><stop stop-color="#ff0cf5"/><stop offset="1" stop-color="#0575e6"/></linearGradient><linearGradient id="B" x1="0" y1="211.25" x2="203.45" y2="211.25" xlink:href="#H"><stop stop-color="#3aa0fe"/><stop offset="1" stop-color="#59fef4"/></linearGradient><linearGradient id="C" x1="94.25" y1="142.35" x2="211.25" y2="142.35" xlink:href="#H"><stop stop-color="#3aa0fe"/><stop offset="1" stop-color="#59fef4"/></linearGradient><linearGradient id="D" x1="-117.004" y1="80.961" x2="-117.004" y2="182.715" xlink:href="#H"><stop stop-color="#36ff78" stop-opacity=".8"/><stop offset="1" stop-color="#0cffff" stop-opacity=".15"/></linearGradient><linearGradient id="E" x1="58.5" y1="66.3" x2="149.5" y2="175.5" xlink:href="#H"><stop stop-color="#36ff78"/><stop offset="1" stop-color="#0cffff"/></linearGradient><linearGradient id="F" x1="94.219" y1="97.401" x2="113.707" y2="124.585" xlink:href="#H"><stop stop-color="#ff0cf5"/><stop offset="1" stop-color="#0575e6"/></linearGradient><clipPath id="G"><path fill="#fff" d="M0 0h260v260H0z"/></clipPath><linearGradient id="H" gradientUnits="userSpaceOnUse"/></defs></svg>