<svg width="299" height="320" viewBox="0 0 299 320" fill="none" xmlns="http://www.w3.org/2000/svg">
<path fill-rule="evenodd" clip-rule="evenodd" d="M65.6398 267.264C64.8958 266.901 64.5858 266.003 64.9488 265.259C65.3108 264.514 66.2098 264.205 66.9538 264.567L72.3478 267.196C73.0918 267.559 73.4018 268.458 73.0388 269.202C72.6758 269.946 71.7778 270.256 71.0328 269.893L65.6398 267.264ZM79.1238 273.836C78.3788 273.473 78.0698 272.576 78.4318 271.832C78.7948 271.087 79.6938 270.777 80.4378 271.139L85.8308 273.768C86.5758 274.131 86.8848 275.031 86.5228 275.775C86.1598 276.519 85.2608 276.828 84.5168 276.465L79.1238 273.836ZM92.6068 280.408C91.8628 280.045 91.5528 279.147 91.9158 278.403C92.2788 277.658 93.1768 277.349 93.9218 277.711L99.3148 280.34C100.059 280.703 100.369 281.601 100.006 282.346C99.6438 283.09 98.7448 283.401 98.0008 283.038L92.6068 280.408ZM106.091 286.981C105.347 286.618 105.037 285.719 105.4 284.974C105.762 284.23 106.661 283.921 107.405 284.283L112.799 286.913C113.543 287.276 113.853 288.174 113.49 288.919C113.127 289.663 112.229 289.971 111.484 289.609L106.091 286.981ZM119.575 293.552C118.83 293.189 118.521 292.292 118.883 291.547C119.246 290.803 120.145 290.493 120.889 290.856L126.282 293.484C127.027 293.847 127.336 294.746 126.974 295.491C126.611 296.235 125.712 296.544 124.968 296.182L119.575 293.552ZM133.058 300.125C132.314 299.762 132.004 298.864 132.367 298.119C132.73 297.375 133.628 297.064 134.373 297.427L134.869 297.67C136.398 298.415 138.005 298.938 139.642 299.237C140.456 299.387 140.996 300.169 140.847 300.983C140.698 301.798 139.916 302.338 139.102 302.189C137.199 301.84 135.332 301.233 133.554 300.367L133.058 300.125ZM148.686 301.768C147.888 301.988 147.061 301.518 146.841 300.72C146.621 299.922 147.091 299.095 147.889 298.875C149.037 298.558 150.163 298.128 151.248 297.586L153.13 296.646C153.871 296.275 154.772 296.576 155.143 297.317C155.513 298.057 155.212 298.959 154.472 299.329L152.589 300.27C151.328 300.901 150.021 301.4 148.686 301.768ZM162.522 295.304C161.781 295.674 160.879 295.374 160.509 294.633C160.139 293.893 160.439 292.991 161.18 292.621L166.546 289.937C167.287 289.566 168.189 289.868 168.559 290.608C168.929 291.349 168.629 292.251 167.888 292.621L162.522 295.304ZM175.938 288.596C175.197 288.966 174.296 288.665 173.925 287.924C173.555 287.184 173.856 286.283 174.596 285.913L179.963 283.229C180.703 282.859 181.605 283.16 181.975 283.9C182.346 284.641 182.045 285.542 181.305 285.913L175.938 288.596ZM189.354 281.887C188.614 282.257 187.712 281.956 187.342 281.216C186.972 280.475 187.272 279.574 188.013 279.203L193.379 276.52C194.12 276.15 195.022 276.451 195.392 277.192C195.762 277.932 195.461 278.833 194.721 279.203L189.354 281.887ZM202.771 275.179C202.03 275.55 201.129 275.249 200.758 274.509C200.388 273.768 200.689 272.866 201.429 272.496L204.631 270.894C205.372 270.524 206.273 270.825 206.644 271.565C207.014 272.305 206.713 273.207 205.973 273.577L202.771 275.179Z" fill="url(#paint0_linear_1669_944)"/>
<path fill-rule="evenodd" clip-rule="evenodd" d="M116.066 47.3309C116.218 46.517 117.002 45.9789 117.816 46.1301C118.63 46.2813 119.168 47.0657 119.016 47.8791C118.799 49.0501 118.693 50.2508 118.706 51.4636L118.729 53.5676C118.738 54.3962 118.073 55.0748 117.245 55.0843C116.417 55.0934 115.738 54.4282 115.729 53.6009L115.706 51.496C115.69 50.086 115.813 48.6924 116.066 47.3309ZM115.828 62.6005C115.819 61.7723 116.483 61.0924 117.311 61.0838C118.139 61.0747 118.819 61.739 118.827 62.5672L118.893 68.5663C118.902 69.3949 118.237 70.0744 117.41 70.0834C116.582 70.0921 115.902 69.4277 115.893 68.5996L115.828 62.6005ZM115.992 77.5992C115.983 76.771 116.647 76.092 117.476 76.0825C118.303 76.0734 118.982 76.7386 118.992 77.5659L119.058 83.5663C119.067 84.3936 118.402 85.073 117.574 85.0821C116.746 85.0916 116.067 84.4268 116.057 83.5991L115.992 77.5992Z" fill="url(#paint1_linear_1669_944)"/>
<path fill-rule="evenodd" clip-rule="evenodd" d="M87.3438 157.235C87.3438 158.063 86.6718 158.735 85.8438 158.735C85.0158 158.735 84.3438 158.063 84.3438 157.235V151.235C84.3438 150.407 85.0158 149.735 85.8438 149.735C86.6718 149.735 87.3438 150.407 87.3438 151.235V157.235ZM87.3438 142.235C87.3438 143.063 86.6718 143.735 85.8438 143.735C85.0158 143.735 84.3438 143.063 84.3438 142.235V136.235C84.3438 135.407 85.0158 134.735 85.8438 134.735C86.6718 134.735 87.3438 135.407 87.3438 136.235V142.235ZM87.3438 127.235C87.3438 128.063 86.6718 128.735 85.8438 128.735C85.0158 128.735 84.3438 128.063 84.3438 127.235V121.235C84.3438 120.407 85.0158 119.735 85.8438 119.735C86.6718 119.735 87.3438 120.407 87.3438 121.235V127.235ZM87.3438 112.244C87.3388 113.072 86.6628 113.74 85.8348 113.735C85.0068 113.73 84.3388 113.054 84.3438 112.226C84.3568 110.038 84.7018 107.902 85.3408 105.878C85.5898 105.089 86.4338 104.65 87.2228 104.899C88.0128 105.149 88.4508 105.992 88.2018 106.782C87.6518 108.523 87.3548 110.361 87.3438 112.244ZM92.3808 99.6623C91.8138 100.265 90.8638 100.293 90.2608 99.7253C89.6588 99.1583 89.6298 98.2083 90.1978 97.6053C91.6568 96.0573 93.3548 94.7153 95.2548 93.6403C95.9758 93.2333 96.8918 93.4873 97.2998 94.2073C97.7068 94.9283 97.4528 95.8443 96.7318 96.2513C95.0968 97.1763 93.6358 98.3313 92.3808 99.6623ZM104.703 92.2393C103.962 92.6093 103.06 92.3093 102.69 91.5683C102.32 90.8283 102.62 89.9263 103.361 89.5563L108.727 86.8733C109.468 86.5023 110.37 86.8032 110.74 87.5442C111.11 88.2842 110.809 89.1863 110.069 89.5563L104.703 92.2393ZM118.119 85.5312C117.378 85.9012 116.477 85.6013 116.106 84.8603C115.736 84.1203 116.037 83.2183 116.777 82.8483L122.144 80.1653C122.884 79.7943 123.786 80.0953 124.156 80.8353C124.526 81.5763 124.226 82.4783 123.485 82.8483L118.119 85.5312ZM131.535 78.8232C130.795 79.1932 129.893 78.8933 129.523 78.1523C129.153 77.4123 129.453 76.5102 130.194 76.1402L135.56 73.4563C136.301 73.0863 137.202 73.3872 137.573 74.1272C137.943 74.8682 137.642 75.7692 136.902 76.1402L131.535 78.8232ZM144.952 72.1153C144.211 72.4853 143.309 72.1842 142.939 71.4442C142.569 70.7032 142.87 69.8022 143.61 69.4312L148.977 66.7483C149.717 66.3783 150.619 66.6782 150.989 67.4192C151.359 68.1592 151.059 69.0612 150.318 69.4312L144.952 72.1153ZM158.368 65.4062C157.628 65.7772 156.726 65.4762 156.356 64.7362C155.985 63.9952 156.286 63.0932 157.026 62.7232L162.393 60.0402C163.133 59.6702 164.035 59.9702 164.405 60.7112C164.776 61.4512 164.475 62.3532 163.735 62.7232L158.368 65.4062ZM171.784 58.6982C171.044 59.0692 170.142 58.7682 169.772 58.0272C169.402 57.2872 169.702 56.3852 170.443 56.0152L175.809 53.3322C176.55 52.9612 177.452 53.2622 177.822 54.0032C178.192 54.7432 177.892 55.6452 177.151 56.0152L171.784 58.6982Z" fill="url(#paint2_linear_1669_944)"/>
<path fill-rule="evenodd" clip-rule="evenodd" d="M110.198 35.0043L98.6984 23.5443C96.7984 21.5943 96.7984 18.424 98.6984 16.474C100.698 14.524 103.8 14.524 105.8 16.474L117.198 27.934L128.698 16.474C130.698 14.524 133.8 14.524 135.8 16.474C137.7 18.424 137.7 21.5943 135.8 23.5443L124.3 35.0043L135.8 46.474C137.7 48.424 137.7 51.5943 135.8 53.5444C133.8 55.4944 130.698 55.4944 128.698 53.5444L117.198 42.0741L105.8 53.5444C103.8 55.4944 100.698 55.4944 98.6984 53.5444C96.7984 51.5943 96.7984 48.424 98.6984 46.474L110.198 35.0043Z" fill="url(#paint3_linear_1669_944)"/>
<path fill-rule="evenodd" clip-rule="evenodd" d="M191.512 102.687L176.589 110.148L176.467 110.211C175.688 110.625 175.062 111.218 174.614 111.915L174.601 111.935C174.157 112.63 173.887 113.433 173.828 114.275L173.816 114.695V171.704C173.816 173.594 174.881 175.322 176.569 176.171L191.865 183.864L176.589 191.502L176.467 191.565C175.688 191.979 175.062 192.572 174.614 193.268L174.601 193.289C174.157 193.984 173.887 194.786 173.828 195.628L173.816 196.049V253.058C173.816 254.948 174.881 256.676 176.569 257.525L232.459 285.634C233.839 286.328 235.463 286.345 236.858 285.68L295.455 257.735C297.195 256.905 298.302 255.149 298.302 253.222V196.049L298.29 195.628C298.231 194.786 297.961 193.984 297.517 193.289L297.504 193.268C297.056 192.572 296.43 191.979 295.652 191.565L295.53 191.502L280.015 183.745L295.455 176.381C297.195 175.552 298.302 173.796 298.302 171.868V114.695L298.29 114.275C298.231 113.433 297.961 112.63 297.517 111.935L297.504 111.915C297.056 111.218 296.43 110.625 295.652 110.211L295.53 110.148L280.377 102.572L295.455 95.3811C297.195 94.5521 298.302 92.7961 298.302 90.8681V33.695L298.29 33.275C298.231 32.433 297.961 31.63 297.517 30.935L297.504 30.915C297.056 30.218 296.43 29.625 295.652 29.211L295.53 29.148L238.295 0.530931C236.888 -0.173071 235.231 -0.173071 233.823 0.530931L176.589 29.148L176.467 29.211C175.688 29.625 175.062 30.218 174.614 30.915L174.601 30.935C174.157 31.63 173.887 32.433 173.828 33.275L173.816 33.695V90.7041C173.816 92.5941 174.881 94.3221 176.569 95.1711L191.512 102.687ZM231.068 227.695L231.208 273.811L183.816 249.976V204.069L231.068 227.695ZM241.068 227.686L288.302 204.069V250.067L241.204 272.528L241.068 227.686ZM268.57 189.203L236.858 204.326C235.463 204.991 233.839 204.974 232.459 204.28L203.012 189.47L189.996 195.978L236.059 219.01L282.122 195.978L268.57 189.203ZM231.068 146.341L231.208 192.457L183.816 168.622V122.715L231.068 146.341ZM241.068 146.332L288.302 122.715V168.713L241.204 191.175L241.068 146.332ZM268.932 108.03L236.858 123.326C235.463 123.991 233.839 123.974 232.459 123.28L202.66 108.293L189.996 114.625L236.059 137.656L282.122 114.625L268.932 108.03ZM231.068 65.341L231.208 111.457L183.816 87.6221V41.715L231.068 65.341ZM241.068 65.3321L288.302 41.715V87.7131L241.204 110.175L241.068 65.3321ZM189.996 33.625L236.059 56.656L282.122 33.625L236.059 10.593L189.996 33.625Z" fill="url(#paint4_linear_1669_944)"/>
<path fill-rule="evenodd" clip-rule="evenodd" d="M256.005 78.0245C257.291 77.3815 258.335 77.9033 258.335 79.1893C258.335 80.4752 257.291 82.0407 256.005 82.6837C254.719 83.3267 253.676 82.8049 253.676 81.5189C253.676 80.233 254.719 78.6675 256.005 78.0245ZM264.594 73.611C265.879 72.968 266.923 73.491 266.923 74.7758C266.923 76.0618 265.879 77.6273 264.594 78.2702C263.308 78.9132 262.264 78.3914 262.264 77.1054C262.264 75.8206 263.308 74.254 264.594 73.611ZM273.358 69.5516C274.644 68.9087 275.687 69.4305 275.687 70.7165C275.687 72.0024 274.644 73.5679 273.358 74.2109C272.073 74.8539 271.028 74.332 271.028 73.0461C271.028 71.7601 272.073 70.1946 273.358 69.5516Z" fill="url(#paint5_linear_1669_944)"/>
<path fill-rule="evenodd" clip-rule="evenodd" d="M256.005 240.378C257.291 239.735 258.335 240.257 258.335 241.543C258.335 242.829 257.291 244.394 256.005 245.037C254.719 245.68 253.676 245.158 253.676 243.872C253.676 242.586 254.719 241.021 256.005 240.378ZM264.594 235.965C265.879 235.322 266.923 235.845 266.923 237.129C266.923 238.415 265.879 239.981 264.594 240.624C263.308 241.267 262.264 240.745 262.264 239.459C262.264 238.174 263.308 236.607 264.594 235.965ZM273.358 231.905C274.644 231.262 275.687 231.784 275.687 233.07C275.687 234.356 274.644 235.921 273.358 236.564C272.073 237.207 271.028 236.686 271.028 235.4C271.028 234.114 272.073 232.548 273.358 231.905Z" fill="url(#paint6_linear_1669_944)"/>
<path fill-rule="evenodd" clip-rule="evenodd" d="M273.354 155.215C272.068 155.858 271.024 155.336 271.024 154.05C271.024 152.765 272.068 151.199 273.354 150.556C274.64 149.913 275.684 150.435 275.684 151.721C275.684 153.007 274.64 154.572 273.354 155.215ZM264.766 159.629C263.48 160.272 262.436 159.749 262.436 158.464C262.436 157.178 263.48 155.612 264.766 154.969C266.052 154.327 267.095 154.848 267.095 156.134C267.095 157.419 266.052 158.986 264.766 159.629ZM256.002 163.688C254.716 164.331 253.672 163.809 253.672 162.523C253.672 161.237 254.716 159.672 256.002 159.029C257.287 158.386 258.331 158.908 258.331 160.194C258.331 161.48 257.287 163.045 256.002 163.688Z" fill="url(#paint7_linear_1669_944)"/>
<path fill-rule="evenodd" clip-rule="evenodd" d="M33.7729 301.874L48.9779 309.477C50.3849 310.181 52.0419 310.181 53.4499 309.477C57.5309 307.436 63.6819 304.361 68.7549 301.824C72.4819 299.961 74.8359 296.152 74.8359 291.986V273.253C74.8359 270.493 77.0759 268.253 79.8359 268.253C82.5949 268.253 84.8359 270.493 84.8359 273.253V291.986C84.8359 299.94 80.3419 307.211 73.2269 310.769C68.1539 313.305 62.004 316.38 57.922 318.421C53.699 320.533 48.7289 320.533 44.506 318.421C38.09 315.213 26.5619 309.449 22.1449 307.241C20.1119 306.224 18.8279 304.147 18.8279 301.874C18.8279 299.602 20.1119 297.524 22.1449 296.508C25.6759 294.742 33.751 290.705 40.1259 287.517C43.8569 285.652 46.214 281.838 46.214 277.667C46.214 269.395 46.214 258.942 46.214 258.942C46.214 256.182 48.454 253.942 51.214 253.942C53.9729 253.942 56.2139 256.182 56.2139 258.942C56.2139 258.942 56.2139 269.395 56.2139 277.667C56.2139 285.626 51.7169 292.902 44.5979 296.461L33.7729 301.874Z" fill="url(#paint8_linear_1669_944)"/>
<path fill-rule="evenodd" clip-rule="evenodd" d="M145.598 191.645L4.97575 121.333V235.82L145.598 306.295V191.645Z" fill="url(#paint9_linear_1669_944)"/>
<path fill-rule="evenodd" clip-rule="evenodd" d="M147.834 187.173C149.528 188.02 150.598 189.751 150.598 191.645V306.295C150.598 308.029 149.7 309.639 148.225 310.55C146.75 311.46 144.908 311.542 143.358 310.765L2.73479 240.29C1.04379 239.442 -0.0242462 237.712 -0.0242462 235.82V121.333C-0.0242462 119.601 0.872787 117.991 2.34679 117.08C3.82079 116.169 5.66177 116.086 7.21178 116.861L147.834 187.173ZM140.598 194.735L9.97575 129.424V232.733L140.598 298.197V194.735Z" fill="url(#paint10_linear_1669_944)"/>
<defs>
<linearGradient id="paint0_linear_1669_944" x1="114.465" y1="287.791" x2="205.301" y2="287.791" gradientUnits="userSpaceOnUse">
<stop stop-color="#A83AFE"/>
<stop offset="1" stop-color="#6E59FE"/>
</linearGradient>
<linearGradient id="paint1_linear_1669_944" x1="143.603" y1="22.6703" x2="103.872" y2="104.357" gradientUnits="userSpaceOnUse">
<stop stop-color="#A83AFE"/>
<stop offset="1" stop-color="#6E59FE"/>
</linearGradient>
<linearGradient id="paint2_linear_1669_944" x1="149.14" y1="52.0042" x2="91.3012" y2="134.425" gradientUnits="userSpaceOnUse">
<stop stop-color="#E1DCFE"/>
<stop offset="1" stop-color="#7E67FD"/>
</linearGradient>
<linearGradient id="paint3_linear_1669_944" x1="137.881" y1="15.0115" x2="97.2734" y2="15.0115" gradientUnits="userSpaceOnUse">
<stop stop-color="#8A54D0"/>
<stop offset="1" stop-color="#D71F7B"/>
</linearGradient>
<linearGradient id="paint4_linear_1669_944" x1="173.816" y1="30.535" x2="297.776" y2="255.458" gradientUnits="userSpaceOnUse">
<stop stop-color="#FF0CF5"/>
<stop offset="1" stop-color="#0575E6"/>
</linearGradient>
<linearGradient id="paint5_linear_1669_944" x1="275.482" y1="69.8627" x2="253.749" y2="82.0652" gradientUnits="userSpaceOnUse">
<stop stop-color="#36FF78"/>
<stop offset="1" stop-color="#00C441" stop-opacity="0.1"/>
</linearGradient>
<linearGradient id="paint6_linear_1669_944" x1="275.482" y1="232.216" x2="253.749" y2="244.419" gradientUnits="userSpaceOnUse">
<stop stop-color="#36FF78"/>
<stop offset="1" stop-color="#00C441" stop-opacity="0.1"/>
</linearGradient>
<linearGradient id="paint7_linear_1669_944" x1="253.877" y1="163.377" x2="275.61" y2="151.175" gradientUnits="userSpaceOnUse">
<stop stop-color="#36FF78"/>
<stop offset="1" stop-color="#00C441" stop-opacity="0.1"/>
</linearGradient>
<linearGradient id="paint8_linear_1669_944" x1="66.1339" y1="262.482" x2="39.1339" y2="310.145" gradientUnits="userSpaceOnUse">
<stop stop-color="#3AA0FE"/>
<stop offset="1" stop-color="#59FEF4"/>
</linearGradient>
<linearGradient id="paint9_linear_1669_944" x1="75.2867" y1="156.489" x2="38.4606" y2="256.041" gradientUnits="userSpaceOnUse">
<stop stop-color="#36FF78" stop-opacity="0.8"/>
<stop offset="1" stop-color="#0CFFFF" stop-opacity="0.15"/>
</linearGradient>
<linearGradient id="paint10_linear_1669_944" x1="90.8407" y1="164.266" x2="33.5972" y2="258.473" gradientUnits="userSpaceOnUse">
<stop stop-color="#36FF78"/>
<stop offset="1" stop-color="#0CFFFF"/>
</linearGradient>
</defs>
</svg>
