<svg width="186" height="236" viewBox="0 0 186 236" fill="none" xmlns="http://www.w3.org/2000/svg">
<g clip-path="url(#clip0_1669_1010)">
<path fill-rule="evenodd" clip-rule="evenodd" d="M63.0309 222.729C62.4795 222.459 62.2498 221.793 62.5188 221.24C62.7878 220.688 63.4533 220.458 64.0053 220.727L64.3729 220.907C65.5059 221.46 66.6968 221.848 67.9099 222.07C68.5131 222.181 68.9132 222.761 68.8028 223.365C68.6924 223.97 68.1129 224.371 67.5097 224.26C66.0995 224.001 64.716 223.551 63.3984 222.908L63.0309 222.729ZM74.6118 223.948C74.0204 224.111 73.4076 223.762 73.2446 223.17C73.0815 222.578 73.4298 221.964 74.0211 221.802C74.8719 221.566 75.7063 221.247 76.5103 220.845L77.9049 220.147C78.454 219.871 79.1217 220.095 79.3966 220.645C79.6708 221.194 79.4478 221.863 78.8994 222.138L77.504 222.836C76.5696 223.305 75.601 223.675 74.6118 223.948ZM84.8647 219.151C84.3156 219.425 83.6472 219.203 83.373 218.653C83.0988 218.104 83.3212 217.434 83.8703 217.16L87.8467 215.168C88.3958 214.893 89.0642 215.117 89.3384 215.666C89.6126 216.216 89.3902 216.885 88.8411 217.16L84.8647 219.151ZM94.8065 214.173C94.2573 214.447 93.5897 214.224 93.3148 213.675C93.0406 213.125 93.2636 212.456 93.812 212.181L97.7891 210.189C98.3375 209.915 99.0059 210.138 99.2801 210.687C99.555 211.237 99.332 211.906 98.7836 212.181L94.8065 214.173ZM104.748 209.194C104.2 209.469 103.531 209.245 103.257 208.696C102.983 208.146 103.205 207.478 103.754 207.202L107.731 205.211C108.28 204.937 108.948 205.159 109.223 205.709C109.497 206.258 109.274 206.928 108.725 207.202L104.748 209.194ZM114.691 204.215C114.142 204.491 113.474 204.267 113.199 203.718C112.925 203.168 113.148 202.499 113.696 202.224L116.069 201.036C116.618 200.761 117.286 200.985 117.561 201.534C117.835 202.083 117.612 202.752 117.063 203.027L114.691 204.215Z" fill="url(#paint0_linear_1669_1010)"/>
<path fill-rule="evenodd" clip-rule="evenodd" d="M50.4313 35.1208C50.5431 34.5169 51.1244 34.1178 51.7276 34.2302C52.3309 34.3426 52.7301 34.9249 52.6175 35.5285C52.457 36.3975 52.3789 37.2885 52.3887 38.1885L52.4063 39.75C52.4136 40.365 51.921 40.8684 51.3068 40.8752C50.6936 40.8817 50.1898 40.3879 50.1829 39.7739L50.1655 38.2118C50.1533 37.1654 50.2441 36.1312 50.4313 35.1208ZM50.2583 46.4528C50.2517 45.8382 50.7439 45.3338 51.3578 45.3276C51.971 45.3211 52.4752 45.8143 52.4818 46.4289L52.5321 50.881C52.5394 51.496 52.0465 52 51.4333 52.0065C50.8194 52.0127 50.3152 51.5195 50.3086 50.9049L50.2583 46.4528ZM50.3841 57.5838C50.3775 56.9692 50.8694 56.4654 51.4836 56.4586C52.0969 56.4521 52.6007 56.9459 52.6076 57.5599L52.6583 62.013C52.6652 62.6269 52.1723 63.131 51.5591 63.1375C50.9449 63.1443 50.4417 62.6508 50.4341 62.0365L50.3841 57.5838Z" fill="url(#paint1_linear_1669_1010)"/>
<path fill-rule="evenodd" clip-rule="evenodd" d="M29.1528 83.2954C29.1491 83.9099 28.6482 84.4056 28.0346 84.4019C27.421 84.3982 26.926 83.8965 26.9297 83.282C26.9393 81.6582 27.195 80.073 27.6685 78.5709C27.853 77.9854 28.4785 77.6596 29.0632 77.8444C29.6486 78.0299 29.9732 78.6555 29.7886 79.2418C29.3811 80.5339 29.161 81.8979 29.1528 83.2954ZM32.8854 73.9578C32.4652 74.4053 31.7613 74.4261 31.3144 74.0045C30.8683 73.5837 30.8468 72.8787 31.2677 72.4312C32.3489 71.2824 33.6072 70.2864 35.0152 69.4886C35.5494 69.1866 36.2282 69.3751 36.5306 69.9094C36.8322 70.4445 36.6439 71.1243 36.1097 71.4263C34.8981 72.1128 33.8154 72.97 32.8854 73.9578ZM42.0165 68.4489C41.4673 68.7235 40.7989 68.5008 40.5247 67.9509C40.2506 67.4017 40.4729 66.7323 41.022 66.4577L44.9984 64.4666C45.5475 64.1912 46.2159 64.4146 46.4901 64.9645C46.7643 65.5137 46.5412 66.1831 45.9929 66.4577L42.0165 68.4489ZM51.9582 63.4706C51.4091 63.7452 50.7414 63.5226 50.4665 62.9726C50.1923 62.4235 50.4153 61.754 50.9637 61.4794L54.9408 59.4883C55.4892 59.213 56.1576 59.4363 56.4318 59.9855C56.706 60.5354 56.4837 61.2048 55.9346 61.4794L51.9582 63.4706ZM61.8999 58.4923C61.3515 58.7669 60.6831 58.5443 60.409 57.9944C60.1348 57.4452 60.3571 56.7758 60.9062 56.5012L64.8826 54.5093C65.4317 54.2347 66.0994 54.458 66.3743 55.0072C66.6485 55.5572 66.4254 56.2258 65.877 56.5012L61.8999 58.4923ZM71.8424 53.5141C71.2933 53.7887 70.6249 53.5653 70.3507 53.0161C70.0765 52.4662 70.2995 51.7975 70.8479 51.5222L74.825 49.531C75.3734 49.2564 76.0418 49.479 76.316 50.029C76.5902 50.5781 76.3679 51.2476 75.8188 51.5222L71.8424 53.5141ZM81.7841 48.535C81.2357 48.8104 80.5673 48.587 80.2932 48.0378C80.0182 47.4879 80.2413 46.8185 80.7896 46.5439L84.7668 44.5527C85.3152 44.2781 85.9836 44.5008 86.2578 45.0507C86.5327 45.5999 86.3096 46.2693 85.7612 46.5439L81.7841 48.535ZM91.7258 43.5567C91.1775 43.8321 90.509 43.6087 90.2349 43.0588C89.9607 42.5096 90.183 41.8402 90.7321 41.5656L94.7085 39.5745C95.2576 39.2991 95.926 39.5225 96.2002 40.0724C96.4744 40.6216 96.2521 41.291 95.703 41.5656L91.7258 43.5567Z" fill="url(#paint2_linear_1669_1010)"/>
<path fill-rule="evenodd" clip-rule="evenodd" d="M46.0896 25.9732L37.5677 17.4683C36.1597 16.0211 36.1597 13.6683 37.5677 12.2211C39.0498 10.7739 41.3481 10.7739 42.8302 12.2211L51.2768 20.726L59.7988 12.2211C61.2808 10.7739 63.5792 10.7739 65.0613 12.2211C66.4692 13.6683 66.4692 16.0211 65.0613 17.4683L56.5394 25.9732L65.0613 34.4853C66.4692 35.9325 66.4692 38.2853 65.0613 39.7325C63.5792 41.1796 61.2808 41.1796 59.7988 39.7325L51.2768 31.22L42.8302 39.7325C41.3481 41.1796 39.0498 41.1796 37.5677 39.7325C36.1597 38.2853 36.1597 35.9325 37.5677 34.4853L46.0896 25.9732Z" fill="url(#paint3_linear_1669_1010)"/>
<path fill-rule="evenodd" clip-rule="evenodd" d="M106.344 76.2029L95.2854 81.74L95.195 81.7868C94.6177 82.094 94.1538 82.5341 93.8218 83.0514L93.8122 83.0662C93.4832 83.582 93.2831 84.178 93.2394 84.8029L93.2305 85.1145V127.423C93.2305 128.826 94.0197 130.108 95.2705 130.738L106.605 136.448L95.2854 142.116L95.195 142.163C94.6177 142.47 94.1538 142.91 93.8218 143.427L93.8122 143.442C93.4832 143.958 93.2831 144.553 93.2394 145.178L93.2305 145.491V187.799C93.2305 189.202 94.0197 190.484 95.2705 191.114L136.687 211.975C137.71 212.49 138.913 212.503 139.947 212.009L183.369 191.27C184.659 190.654 185.479 189.351 185.479 187.921V145.491L185.47 145.178C185.426 144.553 185.226 143.958 184.897 143.442L184.888 143.427C184.556 142.91 184.092 142.47 183.515 142.163L183.425 142.116L171.928 136.359L183.369 130.894C184.659 130.279 185.479 128.976 185.479 127.545V85.1145L185.47 84.8029C185.426 84.178 185.226 83.582 184.897 83.0662L184.888 83.0514C184.556 82.5341 184.092 82.094 183.515 81.7868L183.425 81.74L172.196 76.1176L183.369 70.7808C184.659 70.1656 185.479 68.8624 185.479 67.4316V25.0012L185.47 24.6896C185.426 24.0647 185.226 23.4687 184.897 22.9529L184.888 22.9381C184.556 22.4208 184.092 21.9807 183.515 21.6735L183.425 21.6267L141.012 0.38892C139.969 -0.133546 138.741 -0.133546 137.698 0.38892L95.2854 21.6267L95.195 21.6735C94.6177 21.9807 94.1538 22.4208 93.8218 22.9381L93.8122 22.9529C93.4832 23.4687 93.2831 24.0647 93.2394 24.6896L93.2305 25.0012V67.3099C93.2305 68.7125 94.0197 69.9949 95.2705 70.625L106.344 76.2029ZM135.656 168.976L135.76 203.201L100.641 185.512V151.443L135.656 168.976ZM143.067 168.97L178.069 151.443V185.579L143.167 202.249L143.067 168.97ZM163.447 140.41L139.947 151.633C138.913 152.127 137.71 152.114 136.687 151.599L114.866 140.608L105.22 145.438L139.355 162.531L173.489 145.438L163.447 140.41ZM135.656 108.6L135.76 142.825L100.641 125.136V91.0665L135.656 108.6ZM143.067 108.594L178.069 91.0665V125.203L143.167 141.873L143.067 108.594ZM163.715 80.1682L139.947 91.5199C138.913 92.0135 137.71 92.0009 136.687 91.4858L114.605 80.3634L105.22 85.0626L139.355 102.155L173.489 85.0626L163.715 80.1682ZM135.656 48.487L135.76 82.7115L100.641 65.0226V30.9532L135.656 48.487ZM143.067 48.4803L178.069 30.9532V65.0901L143.167 81.7601L143.067 48.4803ZM105.22 24.9493L139.355 42.0415L173.489 24.9493L139.355 7.85634L105.22 24.9493Z" fill="url(#paint4_linear_1669_1010)"/>
<path fill-rule="evenodd" clip-rule="evenodd" d="M154.136 57.9C155.089 57.4228 155.863 57.8101 155.863 58.7645C155.863 59.7188 155.089 60.8807 154.136 61.3578C153.184 61.835 152.41 61.4477 152.41 60.4934C152.41 59.539 153.184 58.3772 154.136 57.9ZM160.501 54.6246C161.454 54.1474 162.227 54.5356 162.227 55.4891C162.227 56.4434 161.454 57.6052 160.501 58.0824C159.548 58.5596 158.774 58.1723 158.774 57.218C158.774 56.2645 159.548 55.1018 160.501 54.6246ZM166.995 51.612C167.948 51.1348 168.721 51.5221 168.721 52.4765C168.721 53.4308 167.948 54.5926 166.995 55.0698C166.043 55.547 165.269 55.1597 165.269 54.2054C165.269 53.251 166.043 52.0892 166.995 51.612Z" fill="url(#paint5_linear_1669_1010)"/>
<path fill-rule="evenodd" clip-rule="evenodd" d="M154.136 178.388C155.089 177.911 155.863 178.298 155.863 179.253C155.863 180.207 155.089 181.369 154.136 181.846C153.184 182.323 152.41 181.936 152.41 180.982C152.41 180.027 153.184 178.865 154.136 178.388ZM160.501 175.113C161.454 174.636 162.227 175.024 162.227 175.977C162.227 176.932 161.454 178.094 160.501 178.571C159.548 179.048 158.774 178.661 158.774 177.706C158.774 176.753 159.548 175.59 160.501 175.113ZM166.995 172.1C167.948 171.623 168.721 172.01 168.721 172.965C168.721 173.919 167.948 175.081 166.995 175.558C166.043 176.035 165.269 175.648 165.269 174.694C165.269 173.739 166.043 172.577 166.995 172.1Z" fill="url(#paint6_linear_1669_1010)"/>
<path fill-rule="evenodd" clip-rule="evenodd" d="M166.992 115.185C166.039 115.663 165.266 115.275 165.266 114.321C165.266 113.367 166.039 112.205 166.992 111.728C167.945 111.25 168.719 111.638 168.719 112.592C168.719 113.546 167.945 114.708 166.992 115.185ZM160.628 118.461C159.675 118.938 158.902 118.55 158.902 117.596C158.902 116.642 159.675 115.48 160.628 115.003C161.581 114.526 162.355 114.913 162.355 115.867C162.355 116.821 161.581 117.984 160.628 118.461ZM154.134 121.473C153.181 121.951 152.408 121.563 152.408 120.609C152.408 119.655 153.181 118.493 154.134 118.016C155.086 117.538 155.86 117.926 155.86 118.88C155.86 119.834 155.086 120.996 154.134 121.473Z" fill="url(#paint7_linear_1669_1010)"/>
<path fill-rule="evenodd" clip-rule="evenodd" d="M3.66797 194.662C3.66797 201.288 7.21582 207.415 12.9322 210.725C21.7368 215.831 35.0751 223.53 44.471 228.965C46.7707 230.295 49.5965 230.295 51.8962 228.965C54.1959 227.643 55.5755 225.195 55.5755 222.543C55.5755 198.933 55.5755 149.093 55.5755 127.187C55.5755 120.554 52.0934 114.434 46.3113 111.118C37.5067 106.011 24.1684 98.3122 14.7725 92.8768C12.4728 91.5476 9.64693 91.5476 7.34723 92.8768C5.11324 94.1995 3.66797 96.654 3.66797 99.3058C3.66797 122.91 3.66797 172.749 3.66797 194.662Z" fill="url(#paint8_linear_1669_1010)"/>
<path fill-rule="evenodd" clip-rule="evenodd" d="M-0.0117188 194.655V99.306C-0.0117188 95.3249 2.09112 91.6532 5.50782 89.6594C8.99022 87.6721 13.1957 87.6721 16.6123 89.6594L48.2166 107.907C55.05 111.881 59.3211 119.231 59.3211 127.187V222.543C59.3211 226.518 57.2185 230.196 53.7361 232.183C50.3194 234.171 46.0483 234.171 42.6316 232.183L11.0928 213.943C4.19371 209.961 -0.0117188 202.611 -0.0117188 194.655ZM7.34681 194.655C7.34681 199.959 10.1727 204.862 14.7721 207.513L46.3108 225.754C47.4935 226.419 48.8728 226.419 50.0555 225.754C51.1725 225.09 51.8958 223.866 51.8958 222.543V127.187C51.8958 121.883 49.07 116.981 44.4706 114.329L12.9318 96.0881C11.8148 95.4235 10.3695 95.4235 9.25253 96.0881C8.06983 96.7527 7.34681 97.9768 7.34681 99.306V194.655Z" fill="url(#paint9_linear_1669_1010)"/>
</g>
<defs>
<linearGradient id="paint0_linear_1669_1010" x1="49.2528" y1="213.575" x2="116.566" y2="213.575" gradientUnits="userSpaceOnUse">
<stop stop-color="#A83AFE"/>
<stop offset="1" stop-color="#6E59FE"/>
</linearGradient>
<linearGradient id="paint1_linear_1669_1010" x1="70.8359" y1="16.8269" x2="41.3233" y2="77.3971" gradientUnits="userSpaceOnUse">
<stop stop-color="#A83AFE"/>
<stop offset="1" stop-color="#6E59FE"/>
</linearGradient>
<linearGradient id="paint2_linear_1669_1010" x1="74.9458" y1="38.5889" x2="32" y2="99.6967" gradientUnits="userSpaceOnUse">
<stop stop-color="#E1DCFE"/>
<stop offset="1" stop-color="#7E67FD"/>
</linearGradient>
<linearGradient id="paint3_linear_1669_1010" x1="66.6035" y1="11.1357" x2="36.5117" y2="11.1357" gradientUnits="userSpaceOnUse">
<stop stop-color="#8A54D0"/>
<stop offset="1" stop-color="#D71F7B"/>
</linearGradient>
<linearGradient id="paint4_linear_1669_1010" x1="93.2305" y1="22.6561" x2="185.298" y2="189.464" gradientUnits="userSpaceOnUse">
<stop stop-color="#FF0CF5"/>
<stop offset="1" stop-color="#0575E6"/>
</linearGradient>
<linearGradient id="paint5_linear_1669_1010" x1="168.569" y1="51.8428" x2="152.453" y2="60.8783" gradientUnits="userSpaceOnUse">
<stop stop-color="#36FF78"/>
<stop offset="1" stop-color="#00C441" stop-opacity="0.1"/>
</linearGradient>
<linearGradient id="paint6_linear_1669_1010" x1="168.569" y1="172.331" x2="152.453" y2="181.367" gradientUnits="userSpaceOnUse">
<stop stop-color="#36FF78"/>
<stop offset="1" stop-color="#00C441" stop-opacity="0.1"/>
</linearGradient>
<linearGradient id="paint7_linear_1669_1010" x1="152.559" y1="121.243" x2="168.676" y2="112.207" gradientUnits="userSpaceOnUse">
<stop stop-color="#36FF78"/>
<stop offset="1" stop-color="#00C441" stop-opacity="0.1"/>
</linearGradient>
<linearGradient id="paint8_linear_1669_1010" x1="26.9278" y1="92.4622" x2="26.9278" y2="218.805" gradientUnits="userSpaceOnUse">
<stop stop-color="#36FF78" stop-opacity="0.8"/>
<stop offset="1" stop-color="#0CFFFF" stop-opacity="0.15"/>
</linearGradient>
<linearGradient id="paint9_linear_1669_1010" x1="24.2996" y1="117.475" x2="76.6601" y2="124.339" gradientUnits="userSpaceOnUse">
<stop stop-color="#36FF78"/>
<stop offset="1" stop-color="#0CFFFF"/>
</linearGradient>
<clipPath id="clip0_1669_1010">
<rect width="186" height="236" fill="white"/>
</clipPath>
</defs>
</svg>
