<svg width="21" height="21" viewBox="0 0 21 21" fill="none" xmlns="http://www.w3.org/2000/svg">
<g clip-path="url(#clip0_301_69460)">
<path fill-rule="evenodd" clip-rule="evenodd" d="M10.5 0.906982C4.98438 0.906982 0.5 5.39136 0.5 10.907C0.5 16.4226 4.98438 20.907 10.5 20.907C16.0156 20.907 20.5 16.4226 20.5 10.907C20.5 5.39136 16.0156 0.906982 10.5 0.906982Z" fill="#4BAE4F"/>
<path d="M8.57422 15.4812C7.29687 14.2039 6.02734 12.9148 4.74609 11.6375C4.60547 11.4968 4.60547 11.2625 4.74609 11.1218L6.21875 9.64917C6.35937 9.50854 6.59375 9.50854 6.73438 9.64917L8.83984 11.7546L14.2539 6.33667C14.3984 6.19604 14.6289 6.19604 14.7734 6.33667L16.25 7.81323C16.3945 7.95776 16.3945 8.18823 16.25 8.32886L9.08984 15.4812C8.94922 15.6257 8.71875 15.6257 8.57422 15.4812Z" fill="white"/>
</g>
<defs>
<clipPath id="clip0_301_69460">
<rect width="20" height="20" fill="white" transform="translate(0.5 0.906982)"/>
</clipPath>
</defs>
</svg>
