<svg xmlns="http://www.w3.org/2000/svg" width="20" height="21" fill="none" xmlns:v="https://vecta.io/nano"><path d="M10 .01C4.482.01.007 4.484.007 10.003S4.482 19.996 10 19.996s9.993-4.475 9.993-9.993S15.518.01 10 .01zm4.712 14.705c-.19.19-.439.285-.687.285s-.497-.094-.687-.285L9.313 10.69c-.271-.271-.357-.675-.222-1.031l1.527-4.025a.97.97 0 1 1 1.817.69L11.131 9.76l3.581 3.581c.379.379.379.995 0 1.374z" fill="url(#A)"/><defs><linearGradient id="A" x1="19.659" y1="15.367" x2=".007" y2="3.882" gradientUnits="userSpaceOnUse"><stop stop-color="#0575e6"/><stop offset="1" stop-color="#ff0cf5"/></linearGradient></defs></svg>