<svg width="21" height="21" viewBox="0 0 21 21" fill="none" xmlns="http://www.w3.org/2000/svg">
<g clip-path="url(#clip0_301_69474)">
<path fill-rule="evenodd" clip-rule="evenodd" d="M8.5 4.07123H12.5V9.2428L15.4142 12.157L12.5858 14.9854L8.5 10.8997V4.07123Z" fill="white"/>
<path fill-rule="evenodd" clip-rule="evenodd" d="M10.5 20.0649C16.0229 20.0649 20.5 15.5877 20.5 10.0649C20.5 4.54203 16.0229 0.0648804 10.5 0.0648804C4.97715 0.0648804 0.5 4.54203 0.5 10.0649C0.5 15.5877 4.97715 20.0649 10.5 20.0649ZM11.75 5.68988C11.75 4.99953 11.1904 4.43988 10.5 4.43988C9.80965 4.43988 9.25 4.99953 9.25 5.68988V10.5827L11.8036 13.1362C12.2918 13.6244 13.0832 13.6244 13.5714 13.1362C14.0595 12.6481 14.0595 11.8566 13.5714 11.3685L11.75 9.54711V5.68988Z" fill="#4BAE4F"/>
</g>
<defs>
<clipPath id="clip0_301_69474">
<rect width="20" height="20" fill="white" transform="translate(0.5 0.0648804)"/>
</clipPath>
</defs>
</svg>
