<svg width="20" height="20" viewBox="0 0 20 20" fill="none" xmlns="http://www.w3.org/2000/svg">
<path fill-rule="evenodd" clip-rule="evenodd" d="M10 0C4.47715 0 0 4.47715 0 10C0 15.5228 4.47715 20 10 20C15.5228 20 20 15.5228 20 10C20 4.47715 15.5228 0 10 0ZM7.17197 5.75774C6.78145 5.36721 6.14828 5.36721 5.75776 5.75774C5.36724 6.14826 5.36724 6.78143 5.75776 7.17195L8.58618 10.0004L5.75774 12.8288C5.36721 13.2193 5.36721 13.8525 5.75774 14.243C6.14826 14.6335 6.78143 14.6335 7.17195 14.243L10.0004 11.4146L12.8288 14.243C13.2194 14.6335 13.8525 14.6335 14.243 14.243C14.6336 13.8525 14.6336 13.2193 14.243 12.8288L11.4146 10.0004L14.243 7.17195C14.6335 6.78143 14.6335 6.14826 14.243 5.75774C13.8525 5.36721 13.2193 5.36721 12.8288 5.75774L10.0004 8.58615L7.17197 5.75774Z" fill="#DCDCDC"/>
</svg>
