<svg width="20" height="20" viewBox="0 0 20 20" fill="none" xmlns="http://www.w3.org/2000/svg">
<path fill-rule="evenodd" clip-rule="evenodd" d="M10 0C4.47715 0 0 4.47715 0 10C0 15.5228 4.47715 20 10 20C15.5228 20 20 15.5228 20 10C20 4.47715 15.5228 0 10 0ZM7.17158 5.75736C6.78105 5.36683 6.14789 5.36683 5.75736 5.75736C5.36684 6.14788 5.36684 6.78104 5.75736 7.17157L8.58578 9.99998L5.75734 12.8284C5.36682 13.2189 5.36682 13.8521 5.75734 14.2426C6.14786 14.6332 6.78103 14.6332 7.17155 14.2426L9.99999 11.4142L12.8284 14.2426C13.219 14.6332 13.8521 14.6332 14.2426 14.2426C14.6332 13.8521 14.6332 13.2189 14.2426 12.8284L11.4142 9.99998L14.2426 7.17157C14.6331 6.78104 14.6331 6.14788 14.2426 5.75736C13.8521 5.36683 13.2189 5.36683 12.8284 5.75736L9.99999 8.58577L7.17158 5.75736Z" fill="url(#paint0_linear_56_2325)"/>
<defs>
<linearGradient id="paint0_linear_56_2325" x1="20" y1="0" x2="0" y2="0" gradientUnits="userSpaceOnUse">
<stop stop-color="#616161"/>
<stop offset="1" stop-color="#434343"/>
</linearGradient>
</defs>
</svg>
