<svg width="388" height="387" viewBox="0 0 388 387" fill="none" xmlns="http://www.w3.org/2000/svg">
<rect x="0.377197" width="387.246" height="386.005" rx="20" fill="url(#paint0_linear_243_50643)"/>
<path d="M144.923 128.163H350.619V147.523H144.923V128.163Z" fill="#162E47"/>
<path d="M351.466 202V133.524C351.466 130.162 348.741 127.437 345.38 127.437H309.721" stroke="#162E47" stroke-width="3.58" stroke-miterlimit="10"/>
<path d="M306.784 119.143H311.932V126.865H306.784V119.143Z" fill="#162E47"/>
<path d="M321.8 111.565C321.8 118.436 316.229 124.005 309.358 124.005C302.487 124.005 296.916 118.436 296.916 111.565C296.916 104.694 302.487 99.1238 309.358 99.1238C316.229 99.1238 321.8 104.694 321.8 111.565Z" fill="#162E47"/>
<path d="M317.939 113.138C317.939 117.876 314.097 121.717 309.359 121.717C304.62 121.717 300.779 117.876 300.779 113.138C300.779 108.399 304.62 104.557 309.359 104.557C314.097 104.557 317.939 108.399 317.939 113.138Z" fill="#274964"/>
<path d="M309.358 112.335L301.866 117.318C303.333 119.942 306.138 121.717 309.358 121.717C312.578 121.717 315.383 119.942 316.85 117.318L309.358 112.335Z" fill="#6287A7"/>
<path d="M312.361 114.71C312.361 116.368 311.017 117.712 309.359 117.712C307.7 117.712 306.356 116.368 306.356 114.71C306.356 113.052 307.7 111.707 309.359 111.707C311.017 111.707 312.361 113.052 312.361 114.71Z" fill="#6287A7"/>
<path d="M309.358 116.887C308.127 116.887 307.044 116.256 306.414 115.299C306.688 116.675 307.902 117.713 309.358 117.713C310.815 117.713 312.029 116.675 312.303 115.299C311.672 116.256 310.59 116.887 309.358 116.887Z" fill="#F5FFFF"/>
<path d="M318.367 128.867H300.349C300.349 126.656 302.142 124.863 304.354 124.863H314.362C316.574 124.863 318.367 126.656 318.367 128.867Z" fill="#274964"/>
<path d="M286.914 129.18H289.27V128.208H287.885C287.348 128.208 286.914 128.643 286.914 129.18Z" fill="#162E47"/>
<path d="M289.805 129.18H292.162V128.208H290.777C290.24 128.208 289.805 128.643 289.805 129.18Z" fill="#162E47"/>
<path d="M286.761 110.434H287.447V109.519H286.761C286.508 109.519 286.304 109.724 286.304 109.977C286.304 110.229 286.508 110.434 286.761 110.434Z" fill="#162E47"/>
<path d="M285.877 123.609C286.014 123.609 286.125 123.498 286.125 123.36V122.75C286.125 122.614 286.014 122.504 285.877 122.504C285.74 122.504 285.629 122.614 285.629 122.75V123.36C285.629 123.498 285.74 123.609 285.877 123.609Z" fill="#162E47"/>
<path d="M286.49 123.609C286.627 123.609 286.738 123.498 286.738 123.36V122.75C286.738 122.614 286.627 122.504 286.49 122.504C286.354 122.504 286.243 122.614 286.243 122.75V123.36C286.243 123.498 286.354 123.609 286.49 123.609Z" fill="#162E47"/>
<path d="M287.104 123.609C287.241 123.609 287.352 123.498 287.352 123.36V122.75C287.352 122.614 287.241 122.504 287.104 122.504C286.967 122.504 286.856 122.614 286.856 122.75V123.36C286.856 123.498 286.967 123.609 287.104 123.609Z" fill="#162E47"/>
<path d="M286.523 123.313C287.091 123.313 287.552 122.853 287.552 122.283V114.282C287.552 113.714 287.091 113.254 286.523 113.254C285.955 113.254 285.493 113.714 285.493 114.282V122.283C285.493 122.853 285.955 123.313 286.523 123.313Z" fill="#162E47"/>
<path d="M286.652 122.471C287.148 122.471 287.551 122.067 287.551 121.571V114.572C287.551 114.075 287.148 113.672 286.652 113.672C286.155 113.672 285.752 114.075 285.752 114.572V121.571C285.752 122.067 286.155 122.471 286.652 122.471Z" fill="#162E47"/>
<path d="M287.09 111.691C286.838 111.4 286.685 110.962 286.685 110.489V109.574C286.625 109.411 286.583 109.234 286.583 109.043V108.198C286.583 108.102 286.596 108.01 286.604 107.918C286.507 107.777 286.45 107.606 286.45 107.422V105.404C286.936 105.404 287.328 105.797 287.328 106.282V106.297C287.58 106.069 287.877 105.934 288.198 105.934H288.831C289.087 105.934 289.325 106.025 289.54 106.172C289.594 105.74 289.959 105.404 290.406 105.404V107.422C290.406 107.486 290.398 107.55 290.385 107.611C290.421 107.799 290.447 107.993 290.447 108.198V109.043C290.447 109.234 290.406 109.411 290.346 109.574V110.489C290.346 110.686 290.316 110.875 290.267 111.053C291.599 111.483 292.562 112.731 292.562 114.207V118.053C293.034 118.551 293.326 119.222 293.326 119.962C293.326 120.894 292.865 121.715 292.162 122.22V129.181H290.105V122.742H289.723C289.71 122.743 289.698 122.746 289.685 122.747V129.181H287.627V122.355C286.616 121.788 285.932 120.706 285.932 119.465V114.207C285.932 113.199 286.382 112.3 287.09 111.691Z" fill="#162E47"/>
<path d="M289.826 106.173C289.744 106.116 289.659 106.072 289.571 106.034C289.677 105.67 290.009 105.404 290.407 105.404L290.407 105.454C290.099 105.562 289.869 105.837 289.826 106.173Z" fill="#162E47"/>
<path d="M287.613 106.282C287.613 106.222 287.608 106.163 287.596 106.106C287.782 105.999 287.985 105.934 288.199 105.934H288.485C288.163 105.934 287.866 106.069 287.613 106.297V106.282Z" fill="#162E47"/>
<path d="M290.105 122.741H290.391V129.18H290.105V122.741Z" fill="#162E47"/>
<path d="M287.09 111.691C286.838 111.4 286.685 110.962 286.685 110.489V109.574C286.625 109.411 286.583 109.234 286.583 109.043V108.198C286.583 108.102 286.596 108.01 286.604 107.918C286.507 107.777 286.45 107.606 286.45 107.422V105.404C286.551 105.404 286.646 105.425 286.736 105.456V107.422C286.736 107.606 286.793 107.777 286.89 107.918C286.881 108.01 286.87 108.102 286.87 108.198V109.043C286.87 109.234 286.91 109.411 286.971 109.574V110.489C286.971 110.962 287.124 111.4 287.377 111.691C286.668 112.3 286.218 113.199 286.218 114.207V119.465C286.218 120.706 286.902 121.788 287.914 122.355V129.181H287.627V122.355C286.616 121.788 285.932 120.706 285.932 119.465V114.207C285.932 113.199 286.382 112.3 287.09 111.691Z" fill="#162E47"/>
<path d="M344.447 140.505H151.093C147.684 140.505 144.922 137.742 144.922 134.334C144.922 130.925 147.684 128.162 151.093 128.162H344.447C347.855 128.162 350.618 130.925 350.618 134.334C350.618 137.742 347.855 140.505 344.447 140.505Z" fill="#6287A7"/>
<path d="M338.156 141.231H157.386C153.978 141.231 151.215 138.469 151.215 135.06C151.215 131.652 153.978 128.889 157.386 128.889H338.156C341.564 128.889 344.327 131.652 344.327 135.06C344.327 138.469 341.564 141.231 338.156 141.231Z" fill="#17334C"/>
<path d="M217.613 25.2584L250.197 21.6205C253.228 21.2823 255.96 23.465 256.298 26.4962L256.748 30.526L218.676 34.7763L217.613 25.2584Z" fill="url(#paint1_linear_243_50643)"/>
<path d="M155.813 169.345L153.784 153.892L208.018 146.775C212.287 146.214 216.2 149.22 216.76 153.487C217.32 157.754 214.314 161.668 210.047 162.229L155.813 169.345Z" fill="#D77DA2"/>
<path d="M151.506 159.516C151.851 157.921 150.839 156.349 149.244 156.003L139.366 153.835C137.771 153.489 136.199 154.502 135.853 156.096C135.508 157.691 136.52 159.263 138.115 159.609L147.993 161.778C149.587 162.123 151.16 161.111 151.506 159.516Z" fill="#CC6992"/>
<path d="M131.247 161.483C132.13 162.854 133.958 163.251 135.329 162.368L140.24 159.183C141.612 158.3 142.008 156.472 141.125 155.101C140.242 153.728 138.414 153.333 137.042 154.216L132.132 157.4C130.759 158.284 130.364 160.112 131.247 161.483Z" fill="#CC6992"/>
<path d="M132.687 172.015C134.012 172.967 135.857 172.666 136.81 171.342L140.211 166.579C141.164 165.254 140.863 163.408 139.538 162.456C138.213 161.502 136.367 161.804 135.415 163.129L132.013 167.892C131.061 169.216 131.362 171.062 132.687 172.015Z" fill="url(#paint2_linear_243_50643)"/>
<path d="M150.816 162.757C150.553 161.148 149.034 160.056 147.423 160.318L137.438 161.922C135.827 162.185 134.736 163.703 134.999 165.313C135.262 166.923 136.781 168.015 138.391 167.752L148.376 166.15C149.987 165.886 151.078 164.368 150.816 162.757Z" fill="#CC6992"/>
<path d="M132.437 175.087C133.761 176.039 135.607 175.738 136.56 174.412L139.962 169.65C140.914 168.326 140.613 166.48 139.288 165.527C137.963 164.574 136.118 164.876 135.165 166.201L131.764 170.964C130.811 172.288 131.112 174.133 132.437 175.087Z" fill="#CC6992"/>
<path d="M150.566 165.829C150.303 164.219 148.784 163.127 147.173 163.39L137.188 164.994C135.577 165.257 134.486 166.775 134.749 168.385C135.012 169.995 136.531 171.087 138.141 170.824L148.126 169.221C149.737 168.958 150.828 167.439 150.566 165.829Z" fill="#CC6992"/>
<path d="M161.072 169.063C163.893 164.142 162.189 157.867 157.269 155.047C152.348 152.227 146.074 153.93 143.253 158.85C140.434 163.771 142.136 170.046 147.057 172.865C151.977 175.686 158.252 173.982 161.072 169.063Z" fill="#CC6992"/>
<path d="M152.38 168.528C151.574 167.111 149.77 166.615 148.352 167.42L139.546 172.396C138.128 173.202 137.632 175.005 138.438 176.423C139.244 177.841 141.048 178.338 142.466 177.532L151.272 172.557C152.69 171.751 153.186 169.947 152.38 168.528Z" fill="#CC6992"/>
<path d="M153.794 163.762C152.178 163.987 151.052 165.481 151.278 167.096L152.655 177.116C152.882 178.732 154.375 179.859 155.991 179.631C157.606 179.405 158.732 177.912 158.506 176.296L157.129 166.277C156.903 164.661 155.41 163.535 153.794 163.762Z" fill="#CC6992"/>
<path d="M138.6 183.51C140.173 183.943 141.8 183.019 142.233 181.446L143.766 175.797C144.199 174.225 143.275 172.599 141.701 172.166C140.129 171.732 138.502 172.657 138.07 174.231L136.536 179.879C136.103 181.451 137.028 183.078 138.6 183.51Z" fill="#CC6992"/>
<path d="M198.645 181.402H185.818C182.277 181.402 179.406 178.531 179.406 174.989C179.406 171.448 182.277 168.576 185.818 168.576H198.645C202.186 168.576 205.058 171.448 205.058 174.989C205.058 178.531 202.186 181.402 198.645 181.402Z" fill="#162E47"/>
<path d="M208.486 148.625H67.0168V49.9849H208.486C210.788 49.9849 212.654 51.8505 212.654 54.1525V144.456C212.654 146.758 210.788 148.625 208.486 148.625Z" fill="#6287A7"/>
<path d="M127.057 51.9342H117.58C116.607 51.9342 115.818 51.145 115.818 50.1708C115.818 49.1974 116.607 48.4082 117.58 48.4082H127.057C128.031 48.4082 128.821 49.1974 128.821 50.1708C128.821 51.145 128.031 51.9342 127.057 51.9342Z" fill="#274964"/>
<path d="M208.522 148.625H66.0849C64.3182 148.625 62.8857 147.192 62.8857 145.426V53.184C62.8857 51.4173 64.3182 49.9849 66.0849 49.9849H208.522V148.625Z" fill="#274964"/>
<path d="M163.986 85.1023H99.6747C83.1316 85.1023 69.721 71.6918 69.721 55.1487H193.941C193.941 71.6918 180.53 85.1023 163.986 85.1023Z" fill="#17334C"/>
<path d="M114.254 118.671H138.562V179.442H114.254V118.671Z" fill="#17334C"/>
<path d="M172.274 183.226H100.223V176.942C100.223 174.941 101.845 173.319 103.846 173.319H162.367C167.838 173.319 172.274 177.755 172.274 183.226Z" fill="#6287A7"/>
<path d="M144.519 127.967H108.298C104.466 127.967 101.361 124.861 101.361 121.03V96.1712C101.361 92.3394 104.466 89.2344 108.298 89.2344H144.519C148.35 89.2344 151.456 92.3394 151.456 96.1712V121.03C151.456 124.861 148.35 127.967 144.519 127.967Z" fill="#17334C"/>
<path d="M167.465 183.226H99.1616V176.942C99.1616 174.941 100.783 173.319 102.783 173.319H157.559C163.03 173.319 167.465 177.755 167.465 183.226Z" fill="#17334C"/>
<path d="M135.446 110.149C135.446 115.141 131.399 119.188 126.408 119.188C121.417 119.188 117.371 115.141 117.371 110.149C117.371 105.159 121.417 101.112 126.408 101.112C131.399 101.112 135.446 105.159 135.446 110.149Z" fill="#274964"/>
<path d="M71.2241 144.106C70.3683 144.106 69.6748 143.413 69.6748 142.557V131.712C69.6748 130.856 70.3683 130.163 71.2241 130.163C72.0798 130.163 72.7733 130.856 72.7733 131.712V142.557C72.7733 143.413 72.0798 144.106 71.2241 144.106Z" fill="#162E47"/>
<path d="M76.9047 144.106C76.0482 144.106 75.3555 143.413 75.3555 142.557V131.712C75.3555 130.856 76.0482 130.163 76.9047 130.163C77.7605 130.163 78.454 130.856 78.454 131.712V142.557C78.454 143.413 77.7605 144.106 76.9047 144.106Z" fill="#162E47"/>
<path d="M82.5852 144.106C81.7294 144.106 81.0359 143.413 81.0359 142.557V131.712C81.0359 130.856 81.7294 130.163 82.5852 130.163C83.4417 130.163 84.1344 130.856 84.1344 131.712V142.557C84.1344 143.413 83.4417 144.106 82.5852 144.106Z" fill="#162E47"/>
<path d="M182.258 144.106C181.403 144.106 180.709 143.413 180.709 142.557V131.712C180.709 130.856 181.403 130.163 182.258 130.163C183.115 130.163 183.808 130.856 183.808 131.712V142.557C183.808 143.413 183.115 144.106 182.258 144.106Z" fill="#162E47"/>
<path d="M187.939 144.106C187.084 144.106 186.39 143.413 186.39 142.557V131.712C186.39 130.856 187.084 130.163 187.939 130.163C188.795 130.163 189.489 130.856 189.489 131.712V142.557C189.489 143.413 188.795 144.106 187.939 144.106Z" fill="#162E47"/>
<path d="M193.621 144.106C192.764 144.106 192.072 143.413 192.072 142.557V131.712C192.072 130.856 192.764 130.163 193.621 130.163C194.477 130.163 195.17 130.856 195.17 131.712V142.557C195.17 143.413 194.477 144.106 193.621 144.106Z" fill="#162E47"/>
<path d="M172.446 139.716H151.788C150.362 139.716 149.206 138.56 149.206 137.134C149.206 135.708 150.362 134.552 151.788 134.552H172.446C173.872 134.552 175.029 135.708 175.029 137.134C175.029 138.56 173.872 139.716 172.446 139.716Z" fill="#162E47"/>
<path d="M123.467 46.2043H117.737C114.207 46.2043 111.346 43.3426 111.346 39.8134C111.346 36.2833 114.207 33.4216 117.737 33.4216H123.467C126.997 33.4216 129.858 36.2833 129.858 39.8134C129.858 43.3426 126.997 46.2043 123.467 46.2043Z" fill="#6287A7"/>
<path d="M119.5 46.2043H117.737C114.207 46.2043 111.345 43.3426 111.345 39.8134C111.345 36.2833 114.207 33.4216 117.737 33.4216H119.5C123.03 33.4216 125.891 36.2833 125.891 39.8134C125.891 43.3426 123.03 46.2043 119.5 46.2043Z" fill="#274964"/>
<path d="M116.525 51.7136C114.759 51.7136 113.329 50.2828 113.329 48.5186V43.449C113.329 41.6839 114.759 40.2539 116.525 40.2539C118.29 40.2539 119.72 41.6839 119.72 43.449V48.5186C119.72 50.2828 118.29 51.7136 116.525 51.7136Z" fill="#17334C"/>
<path d="M275.878 194.947H220.341L217.516 142.875C216.815 129.958 217.454 117.002 219.421 104.217L220.341 98.2348C220.341 96.009 221.703 94.012 223.774 93.1992L224.964 92.7328C242.522 85.8455 262.402 88.6374 277.383 100.094C278.721 101.118 279.505 102.706 279.505 104.39L275.878 194.947Z" fill="url(#paint3_linear_243_50643)"/>
<path d="M217.516 142.875C216.815 129.957 217.453 117.003 219.421 104.217L220.341 98.2347C220.341 96.9312 220.818 95.7137 221.622 94.7598C216.198 95.7867 212.093 100.545 212.093 106.268V172.85H219.142L217.516 142.875Z" fill="url(#paint4_linear_243_50643)"/>
<path d="M217.516 142.875C216.815 129.957 217.453 117.003 219.421 104.217L220.341 98.2347C220.341 96.9312 220.818 95.7137 221.622 94.7598C216.198 95.7867 212.093 100.545 212.093 106.268V172.85H219.142L217.516 142.875Z" fill="#151515" fill-opacity="0.4"/>
<path d="M235.077 89.866C231.656 90.4832 228.268 91.4363 224.964 92.7325L223.773 93.1989C221.703 94.0117 220.341 96.0095 220.341 98.2337L219.421 104.216C217.453 117.002 216.814 129.957 217.516 142.875L219.141 172.849H235.077V89.866Z" fill="url(#paint5_linear_243_50643)"/>
<path d="M228.493 131.966C226.23 131.966 224.396 130.131 224.395 127.868L224.396 118.45C226.659 118.449 228.493 120.285 228.494 122.548L228.493 131.966Z" fill="url(#paint6_linear_243_50643)"/>
<path d="M238.767 131.965C241.031 131.965 242.867 130.131 242.866 127.868L242.867 118.448C240.603 118.448 238.768 120.284 238.768 122.547L238.767 131.965Z" fill="url(#paint7_linear_243_50643)"/>
<path d="M238.611 148.883L236.754 149.993C234.499 151.34 231.949 151.34 229.694 149.993L227.837 148.883C225.922 147.739 224.68 145.104 224.68 142.186V132.271C224.68 129.505 225.48 127.001 226.772 125.189C228.065 123.377 229.851 122.256 231.824 122.256H234.624C236.598 122.256 238.383 123.377 239.675 125.189C240.968 127.001 241.768 129.505 241.768 132.271V142.186C241.768 145.104 240.525 147.739 238.611 148.883Z" fill="#F5FFFF"/>
<path d="M239.73 140.526L231.776 143.966L226.717 140.526C225.207 139.728 224.206 137.701 224.206 135.438V131.493C224.206 125.656 227.582 120.925 231.746 120.925H234.702C238.867 120.925 242.242 125.656 242.242 131.493V135.438C242.242 137.701 241.241 139.728 239.73 140.526Z" fill="url(#paint8_linear_243_50643)"/>
<path d="M233.944 136.903V136.493C233.944 135.262 234.942 134.264 236.173 134.264H238.374V134.674C238.374 135.905 237.376 136.903 236.145 136.903H233.944Z" fill="#F5FFFF"/>
<path d="M226.853 134.264V134.674C226.853 135.905 227.851 136.903 229.082 136.903H231.283V136.493C231.283 135.261 230.285 134.264 229.054 134.264H226.853Z" fill="#F5FFFF"/>
<path d="M257.748 95.167C257.748 98.0465 251.43 100.38 243.635 100.38C235.839 100.38 229.52 98.0465 229.52 95.167C229.52 92.2874 235.839 89.953 243.635 89.953C251.43 89.953 257.748 92.2874 257.748 95.167Z" fill="#0575E6"/>
<path d="M255.57 94.6289C255.569 99.4881 231.141 99.488 231.141 94.6289L231.142 33.0676L255.57 33.0677L255.57 94.6289Z" fill="#FF99C3"/>
<path d="M226.435 57.5205L225.166 57.6624C219.296 58.317 214.006 54.0902 213.35 48.22C212.695 42.3498 216.921 37.0604 222.792 36.405L224.061 36.263C229.932 35.6076 235.222 39.8353 235.877 45.7055C236.532 51.5749 232.305 56.8651 226.435 57.5205Z" fill="#17334C"/>
<path d="M222.772 72.6903C219.316 73.0764 216.2 70.587 215.815 67.1308L215.143 61.1024C214.756 57.6462 217.246 54.5306 220.701 54.1453C223.097 53.8776 225.258 55.6029 225.525 57.999L226.627 67.8673C226.894 70.2634 225.168 72.4226 222.772 72.6903Z" fill="url(#paint9_linear_243_50643)"/>
<path d="M236.518 84.516L229.854 85.2598L226.481 85.6362C224.575 85.8495 222.79 84.6693 222.239 82.8329L221.542 80.5106C218.066 68.926 216.713 56.8084 217.549 44.7427L217.945 39.021L254.114 34.9832L255.461 47.0529L256.81 59.1234C257.514 65.4308 255.595 71.4267 251.922 76.0218C248.251 80.6169 242.825 83.8111 236.518 84.516Z" fill="#FFAECF"/>
<path d="M263.344 61.751C253.544 62.8453 244.712 55.7879 243.617 45.9871L241.403 26.1539C251.204 25.0592 260.035 32.117 261.131 41.9185L263.344 61.751Z" fill="#17334C"/>
<path d="M258.728 70.9106C253.625 71.48 249.025 67.8048 248.455 62.7011L247.939 58.0809C247.37 52.9772 251.045 48.3781 256.149 47.8078C261.252 47.2376 265.852 50.9137 266.422 56.0173L266.938 60.6376C267.507 65.7412 263.832 70.3404 258.728 70.9106Z" fill="url(#paint10_linear_243_50643)"/>
<path d="M260.217 65.2718C257.501 65.5752 255.055 63.6195 254.751 60.9038L254.477 58.4453C254.174 55.7304 256.129 53.2832 258.844 52.9799C261.559 52.6773 264.007 54.6321 264.31 57.3478L264.585 59.8064C264.888 62.5213 262.932 64.9685 260.217 65.2718Z" fill="url(#paint11_linear_243_50643)"/>
<path opacity="0.4" d="M260.217 65.2718C257.501 65.5752 255.055 63.6195 254.751 60.9038L254.477 58.4453C254.174 55.7304 256.129 53.2832 258.844 52.9799C261.559 52.6773 264.007 54.6321 264.31 57.3478L264.585 59.8064C264.888 62.5213 262.932 64.9685 260.217 65.2718Z" fill="#151515"/>
<path d="M257.282 45.2285L217.34 49.6881C209.907 50.5179 203.208 45.1652 202.379 37.7319C201.549 30.2987 206.902 23.6003 214.335 22.7705L238.242 20.1011C247.097 19.1123 255.078 25.4903 256.067 34.3454L257.282 45.2285Z" fill="#17334C"/>
<path d="M237.428 60.3747C237.581 61.7305 238.648 62.7236 239.815 62.5925C240.982 62.4628 241.806 61.2583 241.653 59.9025C241.501 58.5483 240.434 57.5543 239.268 57.6854C238.101 57.8159 237.277 59.0196 237.428 60.3747Z" fill="#162E47"/>
<path d="M244.072 56.3954C244.391 56.4871 244.692 56.1813 244.58 55.869C244.499 55.6411 244.396 55.4253 244.284 55.2152C244.052 54.804 243.762 54.4228 243.411 54.0894C243.06 53.7552 242.648 53.4664 242.179 53.2474C241.71 53.0284 241.179 52.8808 240.619 52.8483C240.061 52.8127 239.478 52.9003 238.953 53.1039C238.424 53.3058 237.971 53.6303 237.608 53.9985C237.52 54.0926 237.435 54.19 237.352 54.2857C237.274 54.3855 237.205 54.4901 237.137 54.5955C236.993 54.7983 236.896 55.0262 236.797 55.2453C236.706 55.4691 236.644 55.7035 236.59 55.9363C236.589 55.9404 236.588 55.9453 236.587 55.9501C236.528 56.2778 236.875 56.535 237.175 56.3881C237.177 56.3873 237.179 56.3857 237.181 56.3849C237.393 56.3005 237.577 56.2016 237.768 56.1229C238.141 55.9607 238.484 55.8171 238.804 55.7206C239.123 55.6281 239.407 55.5535 239.676 55.5259C239.944 55.4975 240.195 55.4918 240.462 55.5056C240.991 55.5324 241.605 55.663 242.313 55.8666C242.852 56.0175 243.416 56.2065 244.072 56.3954Z" fill="#162E47"/>
<path d="M218.553 61.9011C218.704 63.2562 219.772 64.2493 220.939 64.1198C222.106 63.9893 222.929 62.7841 222.777 61.429C222.626 60.0748 221.557 59.0809 220.391 59.2112C219.224 59.3416 218.402 60.546 218.553 61.9011Z" fill="#162E47"/>
<path d="M217.556 58.1799C217.325 58.2951 217.051 58.1053 217.091 57.8498C217.13 57.5984 217.194 57.3583 217.269 57.1238C217.405 56.7231 217.59 56.3443 217.826 56.002C218.062 55.6606 218.35 55.3523 218.689 55.1033C219.027 54.8535 219.422 54.6629 219.849 54.5736C220.276 54.4828 220.733 54.5014 221.158 54.6328C221.586 54.7626 221.967 55.0116 222.284 55.3101C222.363 55.3872 222.438 55.4675 222.511 55.5462C222.581 55.6297 222.645 55.7181 222.709 55.8074C222.84 55.9777 222.937 56.1764 223.036 56.3662C223.13 56.5617 223.201 56.7694 223.266 56.9762L223.291 57.0695C223.362 57.3274 223.104 57.5537 222.857 57.4499C222.685 57.3948 222.534 57.3226 222.379 57.2707C222.074 57.162 221.796 57.0663 221.54 57.0119C221.284 56.96 221.058 56.9219 220.849 56.9251C220.639 56.9267 220.446 56.9478 220.241 56.9892C219.836 57.0687 219.377 57.2528 218.853 57.5132C218.453 57.7071 218.04 57.939 217.556 58.1799Z" fill="#162E47"/>
<path d="M232.375 76.0718C235.579 75.4488 237.743 74.3936 239.091 73.5119C240.416 72.6456 240.788 70.8692 239.921 69.5446C239.054 68.22 237.279 67.8485 235.954 68.7148C234.96 69.3645 232.675 70.5009 228.545 70.8018C226.967 70.917 225.78 72.2895 225.895 73.8679C226.01 75.4464 227.384 76.6331 228.962 76.5179C230.211 76.4271 231.346 76.2722 232.375 76.0718Z" fill="#F5FFFF"/>
<path d="M232.375 76.0718C235.579 75.4488 237.743 74.3936 239.091 73.5119C240.416 72.6456 240.788 70.8692 239.921 69.5446C239.054 68.22 237.279 67.8485 235.954 68.7148C234.96 69.3645 232.675 70.5009 228.545 70.8018C226.967 70.917 225.78 72.2895 225.895 73.8679C226.01 75.4464 227.384 76.6331 228.962 76.5179C230.211 76.4271 231.346 76.2722 232.375 76.0718Z" stroke="#D86C98" stroke-width="0.91" stroke-miterlimit="10"/>
<path d="M233.059 73.4114C230.808 74.1163 228.415 74.5218 225.999 74.3726L226.079 73.6377C228.366 74.0214 230.741 73.8794 233.059 73.4114Z" fill="#D86C98"/>
<path d="M240.368 70.5336C239.991 70.845 239.655 71.0154 239.286 71.2101C238.924 71.3942 238.557 71.5597 238.185 71.7081C237.444 72.0106 236.688 72.2621 235.928 72.4876C236.644 72.1469 237.347 71.7835 238.019 71.378C238.357 71.1768 238.684 70.9627 238.997 70.7363C239.301 70.5165 239.632 70.2545 239.832 70.0242L240.368 70.5336Z" fill="#D86C98"/>
<path d="M262.576 51.0764L253.297 52.1122L249.895 21.6544C255.021 21.0814 259.64 24.7732 260.212 29.8986L262.576 51.0764Z" fill="url(#paint12_linear_243_50643)"/>
<path d="M279.542 171.811L257.843 165.809V155.457C257.843 152.471 260.263 150.051 263.249 150.051H279.542C283.35 150.051 286.438 153.138 286.438 156.947V164.916C286.438 168.724 283.35 171.811 279.542 171.811Z" fill="url(#paint13_linear_243_50643)"/>
<path d="M271.58 171.355C266.024 171.355 261.523 166.851 261.523 161.297L260.739 120.789C260.739 111.246 268.475 103.51 278.018 103.51C279.583 103.51 280.854 104.78 280.854 106.347L281.637 161.297C281.637 166.851 277.135 171.355 271.58 171.355Z" fill="url(#paint14_linear_243_50643)"/>
<path d="M260.739 181.814C260.234 174.467 259.969 167.121 259.789 159.774C259.676 156.101 259.652 152.427 259.586 148.755L259.518 137.735L259.582 126.714L259.669 121.204C259.706 119.308 259.95 117.322 260.574 115.49C261.806 111.814 264.216 108.564 267.381 106.442C268.962 105.395 270.672 104.532 272.496 104.067C274.309 103.583 276.179 103.409 278.018 103.511C276.18 103.667 274.391 104.069 272.708 104.711C271.019 105.343 269.472 106.292 268.096 107.406C265.303 109.607 263.353 112.719 262.398 116.044C261.934 117.733 261.807 119.433 261.809 121.204L261.896 126.714L261.96 137.735L261.893 148.755C261.826 152.427 261.801 156.101 261.688 159.774C261.509 167.121 261.244 174.467 260.739 181.814Z" fill="url(#paint15_linear_243_50643)"/>
<path d="M260.739 181.814C260.234 174.467 259.969 167.121 259.789 159.774C259.676 156.101 259.652 152.427 259.586 148.755L259.518 137.735L259.582 126.714L259.669 121.204C259.706 119.308 259.95 117.322 260.574 115.49C261.806 111.814 264.216 108.564 267.381 106.442C268.962 105.395 270.672 104.532 272.496 104.067C274.309 103.583 276.179 103.409 278.018 103.511C276.18 103.667 274.391 104.069 272.708 104.711C271.019 105.343 269.472 106.292 268.096 107.406C265.303 109.607 263.353 112.719 262.398 116.044C261.934 117.733 261.807 119.433 261.809 121.204L261.896 126.714L261.96 137.735L261.893 148.755C261.826 152.427 261.801 156.101 261.688 159.774C261.509 167.121 261.244 174.467 260.739 181.814Z" fill="black" fill-opacity="0.4"/>
<path d="M265.196 182.665C259.942 181.431 256.685 176.171 257.919 170.918L260.355 160.097C261.591 154.844 266.85 151.586 272.103 152.821C277.356 154.055 280.614 159.315 279.379 164.568L276.943 175.389C275.708 180.642 270.449 183.9 265.196 182.665Z" fill="#FFAECF"/>
<path d="M213.652 180.432L214.199 165.072L268.103 166.995C272.344 167.146 275.66 170.707 275.509 174.948C275.357 179.19 271.797 182.505 267.555 182.354L213.652 180.432Z" fill="#FFAECF"/>
<path d="M209.684 166.592C210.057 165.027 209.09 163.457 207.524 163.085L197.829 160.751C196.263 160.379 194.693 161.346 194.321 162.911C193.949 164.477 194.915 166.046 196.481 166.419L206.177 168.752C207.742 169.125 209.312 168.158 209.684 166.592Z" fill="#EC9EBE"/>
<path d="M189.672 168.132C190.516 169.502 192.31 169.928 193.679 169.085L198.584 166.043C199.954 165.2 200.381 163.405 199.537 162.034C198.693 160.665 196.899 160.239 195.53 161.082L190.625 164.125C189.255 164.968 188.828 166.763 189.672 168.132Z" fill="#EC9EBE"/>
<path d="M188.284 175.35C189.38 176.527 191.223 176.593 192.4 175.497L196.611 171.55C197.788 170.454 197.854 168.61 196.758 167.433C195.662 166.256 193.818 166.19 192.641 167.287L188.43 171.234C187.253 172.329 187.187 174.173 188.284 175.35Z" fill="#FFAECF"/>
<path d="M207.603 169.907C207.66 168.301 206.403 166.95 204.795 166.892L194.83 166.511C193.222 166.454 191.872 167.71 191.815 169.318C191.758 170.925 193.015 172.276 194.623 172.333L204.588 172.715C206.196 172.772 207.546 171.515 207.603 169.907Z" fill="#FFAECF"/>
<path d="M187.448 178.273C188.545 179.45 190.387 179.515 191.564 178.42L195.776 174.472C196.953 173.376 197.018 171.532 195.922 170.355C194.826 169.178 192.982 169.113 191.805 170.209L187.595 174.155C186.417 175.251 186.351 177.095 187.448 178.273Z" fill="#FFAECF"/>
<path d="M206.767 172.83C206.824 171.222 205.567 169.873 203.959 169.815L193.995 169.433C192.386 169.375 191.036 170.633 190.98 172.24C190.922 173.848 192.179 175.198 193.787 175.255L203.752 175.637C205.36 175.694 206.71 174.438 206.767 172.83Z" fill="#FFAECF"/>
<path d="M215.789 179.222C219.882 175.411 220.111 169.004 216.3 164.911C212.489 160.819 206.081 160.589 201.988 164.402C197.895 168.212 197.668 174.619 201.478 178.712C205.289 182.805 211.697 183.032 215.789 179.222Z" fill="#FFAECF"/>
<path d="M207.759 176.182C207.413 174.61 205.86 173.617 204.289 173.962L194.543 176.076C192.972 176.422 191.977 177.975 192.323 179.546C192.668 181.117 194.222 182.112 195.793 181.766L205.539 179.652C207.11 179.307 208.104 177.753 207.759 176.182Z" fill="#FFAECF"/>
<path d="M190.406 186.269C191.761 187.135 193.563 186.739 194.429 185.385L197.523 180.512C198.39 179.157 197.994 177.356 196.64 176.489C195.285 175.622 193.483 176.018 192.616 177.373L189.521 182.245C188.655 183.6 189.051 185.402 190.406 186.269Z" fill="#FFAECF"/>
<path d="M277.538 171.625L257.036 167.273C255.103 166.862 253.973 164.843 254.639 162.982L257.517 154.922C258.05 153.432 259.461 152.438 261.042 152.438H283.618V165.544C283.618 168.903 280.896 171.625 277.538 171.625Z" fill="url(#paint16_linear_243_50643)"/>
<path d="M314.543 87.1741C314.543 91.5032 311.034 95.0129 306.705 95.0129C302.376 95.0129 298.866 91.5032 298.866 87.1741C298.866 82.8451 302.376 79.3353 306.705 79.3353C311.034 79.3353 314.543 82.8451 314.543 87.1741Z" fill="#F5FFFF"/>
<path d="M330.752 91.8625H282.655V83.2645C282.655 75.0671 289.3 68.4231 297.497 68.4231H315.91C324.107 68.4231 330.752 75.0671 330.752 83.2645V91.8625Z" fill="url(#paint17_linear_243_50643)"/>
<path d="M330.752 91.8625H282.655V83.2645C282.655 75.0671 289.3 68.4231 297.497 68.4231H315.91C324.107 68.4231 330.752 75.0671 330.752 83.2645V91.8625Z" fill="#151515" fill-opacity="0.4"/>
<path d="M330.752 91.8625H296.658V83.2645C296.658 75.0671 303.303 68.4231 311.5 68.4231H315.91C324.108 68.4231 330.752 75.0671 330.752 83.2645V91.8625Z" fill="url(#paint18_linear_243_50643)"/>
<path d="M328.046 87.2251C328.046 89.5782 326.138 91.4868 323.784 91.4868C321.43 91.4868 319.521 89.5782 319.521 87.2251C319.521 84.8712 321.43 82.9634 323.784 82.9634C326.138 82.9634 328.046 84.8712 328.046 87.2251Z" fill="#274964"/>
<path d="M338.124 173.321L375.522 119.981C376.198 119.018 377.527 118.785 378.491 119.461C379.455 120.136 379.688 121.464 379.012 122.428L341.613 175.768C340.938 176.732 339.609 176.964 338.645 176.289C337.682 175.613 337.448 174.284 338.124 173.321Z" fill="#6287A7"/>
<path d="M326.272 85.7261L379.613 123.124C380.575 123.8 380.809 125.13 380.133 126.093C379.458 127.056 378.129 127.29 377.165 126.614L323.826 89.2156C322.862 88.54 322.629 87.2105 323.304 86.2477C323.98 85.2832 325.309 85.0504 326.272 85.7261Z" fill="#6287A7"/>
<path d="M344.772 176.136H334.009V175.402C334.009 174.405 334.818 173.597 335.814 173.597H342.967C343.964 173.597 344.772 174.405 344.772 175.402V176.136Z" fill="#274964"/>
<path d="M354.103 182.251H324.679V180.377C324.679 177.835 326.741 175.774 329.283 175.774H349.499C352.042 175.774 354.103 177.835 354.103 180.377V182.251Z" fill="url(#paint19_linear_243_50643)"/>
<path d="M381.623 124.303C381.623 128.652 378.098 132.177 373.749 132.177C369.401 132.177 365.875 128.652 365.875 124.303C365.875 119.955 369.401 116.429 373.749 116.429C378.098 116.429 381.623 119.955 381.623 124.303Z" fill="#274964"/>
<path d="M376.125 124.303C376.125 125.615 375.061 126.679 373.749 126.679C372.436 126.679 371.372 125.615 371.372 124.303C371.372 122.99 372.436 121.926 373.749 121.926C375.061 121.926 376.125 122.99 376.125 124.303Z" fill="#6287A7"/>
<path d="M368.889 202.496H17.6318C13.98 202.496 11.021 199.537 11.021 195.885V188.371C11.021 184.72 13.98 181.76 17.6318 181.76H368.889C372.54 181.76 375.5 184.72 375.5 188.371V195.885C375.5 199.537 372.54 202.496 368.889 202.496Z" fill="#17334C"/>
<path d="M11.0208 190.809V187.052C11.0208 185.226 11.7605 183.573 12.9569 182.376C14.1534 181.181 15.8056 180.44 17.6315 180.44H368.888C370.714 180.44 372.367 181.181 373.564 182.376C374.761 183.573 375.501 185.226 375.501 187.052V190.809H11.0208Z" fill="#6287A7"/>
<path d="M270.677 202.496H17.6318C13.98 202.496 11.021 199.537 11.021 195.885V188.371C11.021 184.72 13.98 181.76 17.6318 181.76H270.677C274.329 181.76 277.288 184.72 277.288 188.371V195.885C277.288 199.537 274.329 202.496 270.677 202.496Z" fill="#17334C"/>
<path d="M7.39924 152.681L41.8039 181.345L49.7482 179.262L10.5542 146.816L7.39924 152.681Z" fill="url(#paint20_linear_243_50643)"/>
<path opacity="0.2" d="M7.39924 152.681L41.8039 181.345L49.7482 179.262L10.5542 146.816L7.39924 152.681Z" fill="#151515"/>
<path d="M10.3506 146.946L49.5452 179.391L78.4177 173.527L39.2233 143.409L10.3506 146.946Z" fill="url(#paint21_linear_243_50643)"/>
<path opacity="0.4" d="M10.3506 146.946L49.5452 179.391L78.4177 173.527L39.2233 143.409L10.3506 146.946Z" fill="#151515"/>
<path d="M7.39943 152.68L10.5537 146.816L39.2229 143.409L36.0705 150.826L7.39943 152.68Z" fill="url(#paint22_linear_243_50643)"/>
<path d="M36.0697 150.825L74.2388 179.392L78.4177 173.527L39.2239 143.408L36.0697 150.825Z" fill="url(#paint23_linear_243_50643)"/>
<path opacity="0.3" d="M36.0697 150.825L74.2388 179.392L78.4177 173.527L39.2239 143.408L36.0697 150.825Z" fill="#151515"/>
<path d="M22.6454 173.323C22.6162 173.486 22.5951 173.653 22.5951 173.825C22.5951 175.369 23.8458 176.621 25.3902 176.621C26.9338 176.621 28.1854 175.369 28.1854 173.825C28.1854 173.653 28.1651 173.486 28.1351 173.323H78.5026V181.638H10.2666V173.323H22.6454Z" fill="url(#paint24_linear_243_50643)"/>
<path opacity="0.5" d="M22.6454 173.323C22.6162 173.486 22.5951 173.653 22.5951 173.825C22.5951 175.369 23.8458 176.621 25.3902 176.621C26.9338 176.621 28.1854 175.369 28.1854 173.825C28.1854 173.653 28.1651 173.486 28.1351 173.323H78.5026V181.638H10.2666V173.323H22.6454Z" fill="#151515"/>
<path d="M22.6454 173.323C22.6162 173.486 22.5951 173.653 22.5951 173.825C22.5951 175.369 23.8458 176.621 25.3902 176.621C26.9338 176.621 28.1854 175.369 28.1854 173.825C28.1854 173.653 28.1651 173.486 28.1351 173.323H40.3711V181.638H10.2666V173.323H22.6454Z" fill="url(#paint25_linear_243_50643)"/>
<path d="M60.7639 173.763L47.7776 185.93C47.2398 186.433 46.3581 186.066 46.3379 185.329L45.9866 172.929C45.9737 172.441 46.3695 172.04 46.857 172.049L60.1937 172.283C60.9618 172.296 61.3244 173.238 60.7639 173.763Z" fill="url(#paint26_linear_243_50643)"/>
<path d="M46.0864 176.465C46.3184 176.386 46.5626 176.334 46.8213 176.334C48.0883 176.334 49.1144 177.36 49.1144 178.627C49.1144 179.894 48.0883 180.921 46.8213 180.921C46.6088 180.921 46.406 180.882 46.2097 180.828L46.0864 176.465Z" fill="url(#paint27_linear_243_50643)"/>
<path d="M56.8563 172.893C56.8563 174.16 55.8286 175.187 54.5624 175.187C53.2954 175.187 52.2693 174.16 52.2693 172.893C52.2693 172.63 52.322 172.381 52.4039 172.146L56.7443 172.222C56.81 172.436 56.8563 172.658 56.8563 172.893Z" fill="url(#paint28_linear_243_50643)"/>
<path d="M97.6188 141.956H93.4925C92.4267 141.956 91.562 141.093 91.562 140.027V135.9C91.562 134.835 92.4267 133.97 93.4925 133.97H97.6188C98.6838 133.97 99.5485 134.835 99.5485 135.9V140.027C99.5485 141.093 98.6838 141.956 97.6188 141.956Z" fill="#17334C"/>
<path d="M95.5552 137.963V202.325" stroke="#162E47" stroke-width="3.58" stroke-miterlimit="10"/>
<path d="M176.866 202.325V179.248C176.866 175.692 179.747 172.811 183.302 172.811H187.594" stroke="#162E47" stroke-width="3.58" stroke-miterlimit="10"/>
<path d="M98.6306 365.264C98.6306 365.673 98.2986 366.005 97.8896 366.005H95.7706C95.3606 366.005 95.0286 365.673 95.0286 365.264C95.0286 364.854 95.3606 364.523 95.7706 364.523H97.8896C98.2986 364.523 98.6306 364.854 98.6306 365.264ZM106.043 365.264C106.043 365.673 105.711 366.005 105.302 366.005H101.596C101.187 366.005 100.855 365.673 100.855 365.264C100.855 364.854 101.187 364.523 101.596 364.523H105.302C105.711 364.523 106.043 364.854 106.043 365.264ZM113.455 365.264C113.455 365.673 113.123 366.005 112.714 366.005H109.008C108.599 366.005 108.267 365.673 108.267 365.264C108.267 364.854 108.599 364.523 109.008 364.523H112.714C113.123 364.523 113.455 364.854 113.455 365.264Z" fill="white"/>
<path d="M154.933 347.481C154.524 347.481 154.192 347.813 154.192 348.222V349.941C154.192 350.351 154.524 350.682 154.933 350.682C155.342 350.682 155.674 350.351 155.674 349.941V348.222C155.674 347.813 155.342 347.481 154.933 347.481Z" fill="white"/>
<path d="M158.592 345.755H156.872C156.463 345.755 156.131 346.087 156.131 346.496C156.131 346.906 156.463 347.237 156.872 347.237H158.592C159.001 347.237 159.333 346.906 159.333 346.496C159.333 346.087 159.001 345.755 158.592 345.755Z" fill="white"/>
<path d="M154.933 342.194C154.524 342.194 154.192 342.526 154.192 342.935V344.653C154.192 345.063 154.524 345.395 154.933 345.395C155.342 345.395 155.674 345.063 155.674 344.653V342.935C155.674 342.526 155.342 342.194 154.933 342.194Z" fill="white"/>
<path d="M152.992 345.638H151.273C150.863 345.638 150.532 345.97 150.532 346.379C150.532 346.788 150.863 347.12 151.273 347.12H152.992C153.402 347.12 153.733 346.788 153.733 346.379C153.733 345.97 153.402 345.638 152.992 345.638Z" fill="white"/>
<path d="M92.2451 263.427C91.8361 263.427 91.5051 263.759 91.5051 264.168V265.887C91.5051 266.297 91.8361 266.629 92.2451 266.629C92.6551 266.629 92.9861 266.297 92.9861 265.887V264.168C92.9861 263.759 92.6551 263.427 92.2451 263.427Z" fill="white"/>
<path d="M95.9051 261.703H94.1851C93.7761 261.703 93.4441 262.035 93.4441 262.444C93.4441 262.853 93.7761 263.185 94.1851 263.185H95.9051C96.3141 263.185 96.6461 262.853 96.6461 262.444C96.6461 262.035 96.3141 261.703 95.9051 261.703Z" fill="white"/>
<path d="M92.2451 258.141C91.8361 258.141 91.5051 258.473 91.5051 258.882V260.6C91.5051 261.01 91.8361 261.342 92.2451 261.342C92.6551 261.342 92.9861 261.01 92.9861 260.6V258.882C92.9861 258.473 92.6551 258.141 92.2451 258.141Z" fill="white"/>
<path d="M90.3055 261.584H88.5855C88.1765 261.584 87.8445 261.916 87.8445 262.325C87.8445 262.734 88.1765 263.066 88.5855 263.066H90.3055C90.7145 263.066 91.0465 262.734 91.0465 262.325C91.0465 261.916 90.7145 261.584 90.3055 261.584Z" fill="white"/>
<path d="M347.568 243.163C347.568 242.33 346.891 241.654 346.06 241.654C345.227 241.654 344.549 242.33 344.549 243.163C344.549 243.995 345.227 244.672 346.06 244.672C346.891 244.672 347.568 243.995 347.568 243.163ZM349.05 243.163C349.05 244.812 347.709 246.154 346.06 246.154C344.41 246.154 343.068 244.812 343.068 243.163C343.068 241.513 344.41 240.171 346.06 240.171C347.709 240.171 349.05 241.513 349.05 243.163Z" fill="white"/>
<path d="M341.664 281.729C341.255 281.729 340.923 282.061 340.923 282.47V284.189C340.923 284.599 341.255 284.93 341.664 284.93C342.074 284.93 342.405 284.599 342.405 284.189V282.47C342.405 282.061 342.074 281.729 341.664 281.729Z" fill="white"/>
<path d="M339.723 280.004H338.003C337.594 280.004 337.262 280.336 337.262 280.745C337.262 281.154 337.594 281.486 338.003 281.486H339.723C340.132 281.486 340.464 281.154 340.464 280.745C340.464 280.336 340.132 280.004 339.723 280.004Z" fill="white"/>
<path d="M341.664 276.443C341.255 276.443 340.923 276.775 340.923 277.184V278.902C340.923 279.312 341.255 279.644 341.664 279.644C342.074 279.644 342.405 279.312 342.405 278.902V277.184C342.405 276.775 342.074 276.443 341.664 276.443Z" fill="white"/>
<path d="M345.323 279.885H343.603C343.194 279.885 342.862 280.217 342.862 280.626C342.862 281.035 343.194 281.367 343.603 281.367H345.323C345.732 281.367 346.064 281.035 346.064 280.626C346.064 280.217 345.732 279.885 345.323 279.885Z" fill="white"/>
<path d="M101.664 321.729C101.255 321.729 100.923 322.061 100.923 322.47V324.189C100.923 324.599 101.255 324.93 101.664 324.93C102.074 324.93 102.405 324.599 102.405 324.189V322.47C102.405 322.061 102.074 321.729 101.664 321.729Z" fill="white"/>
<path d="M99.7235 320.004H98.0035C97.5945 320.004 97.2625 320.336 97.2625 320.745C97.2625 321.154 97.5945 321.486 98.0035 321.486H99.7235C100.132 321.486 100.464 321.154 100.464 320.745C100.464 320.336 100.132 320.004 99.7235 320.004Z" fill="white"/>
<path d="M101.664 316.443C101.255 316.443 100.923 316.775 100.923 317.184V318.902C100.923 319.312 101.255 319.644 101.664 319.644C102.074 319.644 102.405 319.312 102.405 318.902V317.184C102.405 316.775 102.074 316.443 101.664 316.443Z" fill="white"/>
<path d="M105.323 319.885H103.603C103.194 319.885 102.862 320.217 102.862 320.626C102.862 321.035 103.194 321.367 103.603 321.367H105.323C105.732 321.367 106.064 321.035 106.064 320.626C106.064 320.217 105.732 319.885 105.323 319.885Z" fill="white"/>
<path d="M258.216 239.521H241.274C240.863 239.521 240.532 239.853 240.532 240.262C240.532 240.671 240.863 241.003 241.274 241.003H258.216C258.625 241.003 258.957 240.671 258.957 240.262C258.957 239.853 258.625 239.521 258.216 239.521Z" fill="white"/>
<path d="M235.881 239.518H232.57C232.16 239.518 231.829 239.85 231.829 240.259C231.829 240.668 232.16 241 232.57 241H235.881C236.29 241 236.622 240.668 236.622 240.259C236.622 239.85 236.29 239.518 235.881 239.518Z" fill="white"/>
<path d="M237.019 245.424C237.019 245.833 236.687 246.165 236.278 246.165H232.572C232.163 246.165 231.831 245.833 231.831 245.424C231.831 245.015 232.163 244.683 232.572 244.683H236.278C236.687 244.683 237.019 245.015 237.019 245.424ZM244.431 245.424C244.431 245.833 244.099 246.165 243.69 246.165H239.984C239.575 246.165 239.243 245.833 239.243 245.424C239.243 245.015 239.575 244.683 239.984 244.683H243.69C244.099 244.683 244.431 245.015 244.431 245.424ZM250.256 245.424C250.256 245.833 249.924 246.165 249.515 246.165H247.396C246.986 246.165 246.655 245.833 246.655 245.424C246.655 245.015 246.986 244.683 247.396 244.683H249.515C249.924 244.683 250.256 245.015 250.256 245.424Z" fill="white"/>
<path d="M281.38 254.811C280.971 254.811 280.639 255.143 280.639 255.552V257.272C280.639 257.682 280.971 258.013 281.38 258.013C281.789 258.013 282.121 257.682 282.121 257.272V255.552C282.121 255.143 281.789 254.811 281.38 254.811Z" fill="white"/>
<path d="M279.44 253.086H277.721C277.311 253.086 276.98 253.418 276.98 253.827C276.98 254.237 277.311 254.568 277.721 254.568H279.44C279.849 254.568 280.181 254.237 280.181 253.827C280.181 253.418 279.849 253.086 279.44 253.086Z" fill="white"/>
<path d="M281.38 249.524C280.971 249.524 280.639 249.856 280.639 250.265V251.983C280.639 252.393 280.971 252.725 281.38 252.725C281.789 252.725 282.121 252.393 282.121 251.983V250.265C282.121 249.856 281.789 249.524 281.38 249.524Z" fill="white"/>
<path d="M285.04 252.968H283.32C282.911 252.968 282.579 253.3 282.579 253.709C282.579 254.118 282.911 254.45 283.32 254.45H285.04C285.449 254.45 285.781 254.118 285.781 253.709C285.781 253.3 285.449 252.968 285.04 252.968Z" fill="white"/>
<path d="M322.415 311.29C322.415 312.736 323.587 313.908 325.033 313.908C326.478 313.908 327.65 312.736 327.65 311.29C327.65 309.845 326.478 308.673 325.033 308.673C323.587 308.673 322.415 309.845 322.415 311.29Z" fill="#FFFFFB"/>
<path d="M204.015 225.114C204.015 226.561 205.187 227.733 206.632 227.733C208.077 227.733 209.249 226.561 209.249 225.114C209.249 223.67 208.077 222.497 206.632 222.497C205.187 222.497 204.015 223.67 204.015 225.114Z" fill="#FFFFFB"/>
<path d="M304.504 257.912H321.446C321.856 257.912 322.188 257.58 322.188 257.171C322.188 256.762 321.856 256.43 321.446 256.43H304.504C304.094 256.43 303.763 256.762 303.763 257.171C303.763 257.58 304.094 257.912 304.504 257.912Z" fill="white"/>
<path d="M326.839 257.915H330.15C330.559 257.915 330.891 257.583 330.891 257.174C330.891 256.765 330.559 256.433 330.15 256.433H326.839C326.43 256.433 326.098 256.765 326.098 257.174C326.098 257.583 326.43 257.915 326.839 257.915Z" fill="white"/>
<path d="M325.703 252.009C325.703 251.6 326.035 251.268 326.444 251.268H330.15C330.559 251.268 330.891 251.6 330.891 252.009C330.891 252.418 330.559 252.75 330.15 252.75H326.444C326.035 252.75 325.703 252.418 325.703 252.009ZM318.291 252.009C318.291 251.6 318.623 251.268 319.032 251.268H322.738C323.147 251.268 323.479 251.6 323.479 252.009C323.479 252.418 323.147 252.75 322.738 252.75H319.032C318.623 252.75 318.291 252.418 318.291 252.009ZM312.466 252.009C312.466 251.6 312.798 251.268 313.207 251.268H315.326C315.735 251.268 316.067 251.6 316.067 252.009C316.067 252.418 315.735 252.75 315.326 252.75H313.207C312.798 252.75 312.466 252.418 312.466 252.009Z" fill="white"/>
<path d="M341.34 332.622C341.75 332.622 342.081 332.29 342.081 331.881V330.161C342.081 329.751 341.75 329.42 341.34 329.42C340.931 329.42 340.6 329.751 340.6 330.161V331.881C340.6 332.29 340.931 332.622 341.34 332.622Z" fill="white"/>
<path d="M343.281 334.347H345C345.409 334.347 345.741 334.015 345.741 333.606C345.741 333.197 345.409 332.865 345 332.865H343.281C342.872 332.865 342.54 333.197 342.54 333.606C342.54 334.015 342.872 334.347 343.281 334.347Z" fill="white"/>
<path d="M341.34 337.909C341.75 337.909 342.081 337.577 342.081 337.168V335.45C342.081 335.04 341.75 334.708 341.34 334.708C340.931 334.708 340.6 335.04 340.6 335.45V337.168C340.6 337.577 340.931 337.909 341.34 337.909Z" fill="white"/>
<path d="M337.681 334.465H339.4C339.81 334.465 340.141 334.133 340.141 333.724C340.141 333.315 339.81 332.983 339.4 332.983H337.681C337.272 332.983 336.94 333.315 336.94 333.724C336.94 334.133 337.272 334.465 337.681 334.465Z" fill="white"/>
<path d="M66.3941 248.732H83.3371C83.7471 248.732 84.0791 248.4 84.0791 247.991C84.0791 247.582 83.7471 247.25 83.3371 247.25H66.3941C65.9851 247.25 65.6531 247.582 65.6531 247.991C65.6531 248.4 65.9851 248.732 66.3941 248.732Z" fill="white"/>
<path d="M57.691 248.735H61.002C61.411 248.735 61.743 248.403 61.743 247.994C61.743 247.585 61.411 247.253 61.002 247.253H57.691C57.282 247.253 56.95 247.585 56.95 247.994C56.95 248.403 57.282 248.735 57.691 248.735Z" fill="white"/>
<path d="M66.3941 328.732H83.3371C83.7471 328.732 84.0791 328.4 84.0791 327.991C84.0791 327.582 83.7471 327.25 83.3371 327.25H66.3941C65.9851 327.25 65.6531 327.582 65.6531 327.991C65.6531 328.4 65.9851 328.732 66.3941 328.732Z" fill="white"/>
<path d="M57.691 328.735H61.002C61.411 328.735 61.743 328.403 61.743 327.994C61.743 327.585 61.411 327.253 61.002 327.253H57.691C57.282 327.253 56.95 327.585 56.95 327.994C56.95 328.403 57.282 328.735 57.691 328.735Z" fill="white"/>
<path d="M292.213 341.385H304.101V348.952H292.213V341.385Z" fill="white"/>
<path d="M294.38 348.495C292.129 350.943 289.013 351.522 287.418 349.788C285.823 348.054 286.357 344.663 288.607 342.215C290.859 339.767 293.974 339.187 295.568 340.921C297.162 342.656 296.63 346.046 294.38 348.495Z" fill="white"/>
<path d="M307.708 342.215C309.959 344.663 310.491 348.054 308.897 349.79C307.303 351.523 304.187 350.944 301.936 348.495C299.685 346.047 299.152 342.655 300.746 340.921C302.341 339.187 305.457 339.766 307.708 342.215Z" fill="white"/>
<path d="M290.953 347.771C290.468 347.771 290.075 347.378 290.075 346.893V343.818C290.075 343.333 290.468 342.939 290.953 342.939C291.438 342.939 291.832 343.333 291.832 343.818V346.893C291.832 347.378 291.438 347.771 290.953 347.771Z" fill="#162E47"/>
<path d="M288.538 345.355C288.538 344.87 288.932 344.476 289.417 344.476H292.491C292.976 344.476 293.37 344.87 293.37 345.355C293.37 345.84 292.976 346.233 292.491 346.233H289.417C288.932 346.233 288.538 345.84 288.538 345.355Z" fill="#162E47"/>
<path d="M305.364 346.954C304.879 346.954 304.485 346.56 304.485 346.075C304.485 345.59 304.879 345.197 305.364 345.197C305.848 345.197 306.242 345.59 306.242 346.075C306.242 346.56 305.848 346.954 305.364 346.954Z" fill="#162E47"/>
<path d="M305.364 343.883C304.879 343.883 304.485 343.489 304.485 343.005C304.485 342.519 304.879 342.126 305.364 342.126C305.848 342.126 306.242 342.519 306.242 343.005C306.242 343.489 305.848 343.883 305.364 343.883Z" fill="#162E47"/>
<path d="M302.95 344.539C302.95 344.054 303.343 343.661 303.828 343.661C304.313 343.661 304.707 344.054 304.707 344.539C304.707 345.024 304.313 345.418 303.828 345.418C303.343 345.418 302.95 345.024 302.95 344.539Z" fill="#162E47"/>
<path d="M306.02 344.539C306.02 344.054 306.414 343.661 306.9 343.661C307.385 343.661 307.778 344.054 307.778 344.539C307.778 345.025 307.385 345.419 306.9 345.419C306.414 345.419 306.02 345.025 306.02 344.539Z" fill="#162E47"/>
<path d="M46.9943 302.385H58.8823V309.952H46.9943V302.385Z" fill="white"/>
<path d="M49.161 309.495C46.9098 311.943 43.794 312.522 42.199 310.788C40.6047 309.054 41.1383 305.663 43.3887 303.215C45.6399 300.767 48.7557 300.187 50.3493 301.921C51.9436 303.656 51.4115 307.046 49.161 309.495Z" fill="white"/>
<path d="M62.4893 303.215C64.7405 305.663 65.272 309.054 63.6784 310.79C62.084 312.523 58.9682 311.944 56.7177 309.495C54.4666 307.047 53.933 303.655 55.5273 301.921C57.1223 300.187 60.2381 300.766 62.4893 303.215Z" fill="white"/>
<path d="M45.734 308.771C45.249 308.771 44.856 308.378 44.856 307.893V304.818C44.856 304.333 45.249 303.939 45.734 303.939C46.219 303.939 46.613 304.333 46.613 304.818V307.893C46.613 308.378 46.219 308.771 45.734 308.771Z" fill="#162E47"/>
<path d="M43.3188 306.355C43.3188 305.87 43.7128 305.476 44.1978 305.476H47.2718C47.7568 305.476 48.1508 305.87 48.1508 306.355C48.1508 306.84 47.7568 307.233 47.2718 307.233H44.1978C43.7128 307.233 43.3188 306.84 43.3188 306.355Z" fill="#162E47"/>
<path d="M60.1451 307.954C59.6601 307.954 59.2661 307.56 59.2661 307.075C59.2661 306.59 59.6601 306.197 60.1451 306.197C60.6291 306.197 61.0231 306.59 61.0231 307.075C61.0231 307.56 60.6291 307.954 60.1451 307.954Z" fill="#162E47"/>
<path d="M60.1451 304.883C59.6601 304.883 59.2661 304.489 59.2661 304.005C59.2661 303.519 59.6601 303.126 60.1451 303.126C60.6291 303.126 61.0231 303.519 61.0231 304.005C61.0231 304.489 60.6291 304.883 60.1451 304.883Z" fill="#162E47"/>
<path d="M57.731 305.539C57.731 305.054 58.124 304.661 58.609 304.661C59.094 304.661 59.488 305.054 59.488 305.539C59.488 306.024 59.094 306.418 58.609 306.418C58.124 306.418 57.731 306.024 57.731 305.539Z" fill="#162E47"/>
<path d="M60.8013 305.539C60.8013 305.054 61.1953 304.661 61.6813 304.661C62.1663 304.661 62.5593 305.054 62.5593 305.539C62.5593 306.025 62.1663 306.419 61.6813 306.419C61.1953 306.419 60.8013 306.025 60.8013 305.539Z" fill="#162E47"/>
<path d="M138.846 239.861H150.733V247.428H138.846V239.861Z" fill="white"/>
<path d="M141.012 246.971C138.762 249.42 135.645 249.999 134.051 248.264C132.456 246.53 132.99 243.139 135.239 240.691C137.491 238.242 140.608 237.663 142.201 239.397C143.796 241.131 143.262 244.522 141.012 246.971Z" fill="white"/>
<path d="M154.34 240.69C156.59 243.139 157.124 246.529 155.529 248.264C153.936 249.998 150.819 249.419 148.567 246.97C146.318 244.522 145.783 241.13 147.379 239.397C148.973 237.662 152.09 238.241 154.34 240.69Z" fill="white"/>
<path d="M137.585 246.246C137.1 246.246 136.706 245.853 136.706 245.368V242.293C136.706 241.808 137.1 241.414 137.585 241.414C138.069 241.414 138.463 241.808 138.463 242.293V245.368C138.463 245.853 138.069 246.246 137.585 246.246Z" fill="#162E47"/>
<path d="M135.17 243.831C135.17 243.346 135.564 242.953 136.048 242.953H139.123C139.608 242.953 140.001 243.346 140.001 243.831C140.001 244.316 139.608 244.709 139.123 244.709H136.048C135.564 244.709 135.17 244.316 135.17 243.831Z" fill="#162E47"/>
<path d="M151.996 245.428C151.511 245.428 151.118 245.034 151.118 244.55C151.118 244.064 151.511 243.671 151.996 243.671C152.481 243.671 152.875 244.064 152.875 244.55C152.875 245.034 152.481 245.428 151.996 245.428Z" fill="#162E47"/>
<path d="M151.996 242.358C151.511 242.358 151.118 241.964 151.118 241.48C151.118 240.994 151.511 240.601 151.996 240.601C152.481 240.601 152.875 240.994 152.875 241.48C152.875 241.964 152.481 242.358 151.996 242.358Z" fill="#162E47"/>
<path d="M149.582 243.015C149.582 242.53 149.976 242.137 150.461 242.137C150.945 242.137 151.338 242.53 151.338 243.015C151.338 243.501 150.945 243.894 150.461 243.894C149.976 243.894 149.582 243.501 149.582 243.015Z" fill="#162E47"/>
<path d="M152.653 243.015C152.653 242.53 153.047 242.137 153.532 242.137C154.016 242.137 154.409 242.53 154.409 243.015C154.409 243.501 154.016 243.894 153.532 243.894C153.047 243.894 152.653 243.501 152.653 243.015Z" fill="#162E47"/>
<path d="M82.8763 271.5V288.42H78.1723V281.628H72.4363V288.42H67.7323V271.5H72.4363V277.86H78.1723V271.5H82.8763ZM96.7522 285.66H90.7522L89.8402 288.42H84.8962L91.0642 271.5H96.4882L102.632 288.42H97.6642L96.7522 285.66ZM95.5762 282.06L93.7522 276.588L91.9522 282.06H95.5762ZM118.013 277.14C118.013 278.164 117.773 279.1 117.293 279.948C116.829 280.78 116.117 281.452 115.157 281.964C114.213 282.46 113.053 282.708 111.677 282.708H109.349V288.42H104.645V271.5H111.677C113.037 271.5 114.189 271.74 115.133 272.22C116.093 272.7 116.813 273.364 117.293 274.212C117.773 275.06 118.013 276.036 118.013 277.14ZM111.221 278.964C112.549 278.964 113.213 278.356 113.213 277.14C113.213 275.908 112.549 275.292 111.221 275.292H109.349V278.964H111.221ZM133.751 277.14C133.751 278.164 133.511 279.1 133.031 279.948C132.567 280.78 131.855 281.452 130.895 281.964C129.951 282.46 128.791 282.708 127.415 282.708H125.087V288.42H120.383V271.5H127.415C128.775 271.5 129.927 271.74 130.871 272.22C131.831 272.7 132.551 273.364 133.031 274.212C133.511 275.06 133.751 276.036 133.751 277.14ZM126.959 278.964C128.287 278.964 128.951 278.356 128.951 277.14C128.951 275.908 128.287 275.292 126.959 275.292H125.087V278.964H126.959ZM151.505 271.5L145.553 283.044V288.42H140.825V283.044L134.873 271.5H140.249L143.225 278.028L146.201 271.5H151.505ZM173.647 271.5V288.42H168.943V281.628H163.207V288.42H158.503V271.5H163.207V277.86H168.943V271.5H173.647ZM184.931 288.588C183.347 288.588 181.891 288.22 180.563 287.484C179.235 286.732 178.179 285.7 177.395 284.388C176.627 283.06 176.243 281.564 176.243 279.9C176.243 278.236 176.627 276.748 177.395 275.436C178.179 274.108 179.235 273.076 180.563 272.34C181.891 271.604 183.347 271.236 184.931 271.236C186.531 271.236 187.987 271.604 189.299 272.34C190.627 273.076 191.675 274.108 192.443 275.436C193.211 276.748 193.595 278.236 193.595 279.9C193.595 281.564 193.211 283.06 192.443 284.388C191.675 285.7 190.627 286.732 189.299 287.484C187.971 288.22 186.515 288.588 184.931 288.588ZM184.931 284.22C186.131 284.22 187.075 283.828 187.763 283.044C188.467 282.26 188.819 281.212 188.819 279.9C188.819 278.556 188.467 277.5 187.763 276.732C187.075 275.948 186.131 275.556 184.931 275.556C183.715 275.556 182.763 275.948 182.075 276.732C181.387 277.5 181.043 278.556 181.043 279.9C181.043 281.228 181.387 282.284 182.075 283.068C182.763 283.836 183.715 284.22 184.931 284.22ZM200.797 271.5V281.316C200.797 282.228 201.005 282.932 201.421 283.428C201.853 283.924 202.501 284.172 203.365 284.172C204.229 284.172 204.877 283.924 205.309 283.428C205.757 282.916 205.981 282.212 205.981 281.316V271.5H210.685V281.316C210.685 282.868 210.357 284.196 209.701 285.3C209.045 286.388 208.149 287.212 207.013 287.772C205.893 288.316 204.645 288.588 203.269 288.588C201.893 288.588 200.661 288.316 199.573 287.772C198.501 287.212 197.653 286.388 197.029 285.3C196.421 284.212 196.117 282.884 196.117 281.316V271.5H200.797ZM222.323 288.42L218.963 282.18H218.459V288.42H213.755V271.5H221.171C222.531 271.5 223.683 271.74 224.627 272.22C225.571 272.684 226.283 273.332 226.763 274.164C227.243 274.98 227.483 275.9 227.483 276.924C227.483 278.076 227.163 279.092 226.523 279.972C225.899 280.836 224.979 281.452 223.763 281.82L227.579 288.42H222.323ZM218.459 278.964H220.787C221.427 278.964 221.907 278.812 222.227 278.508C222.547 278.204 222.707 277.764 222.707 277.188C222.707 276.644 222.539 276.22 222.203 275.916C221.883 275.596 221.411 275.436 220.787 275.436H218.459V278.964ZM236.487 288.588C234.519 288.588 232.903 288.124 231.639 287.196C230.375 286.252 229.695 284.908 229.599 283.164H234.615C234.663 283.756 234.839 284.188 235.143 284.46C235.447 284.732 235.839 284.868 236.319 284.868C236.751 284.868 237.103 284.764 237.375 284.556C237.663 284.332 237.807 284.028 237.807 283.644C237.807 283.148 237.575 282.764 237.111 282.492C236.647 282.22 235.895 281.916 234.855 281.58C233.751 281.212 232.855 280.86 232.167 280.524C231.495 280.172 230.903 279.668 230.391 279.012C229.895 278.34 229.647 277.468 229.647 276.396C229.647 275.308 229.919 274.38 230.463 273.612C231.007 272.828 231.759 272.236 232.719 271.836C233.679 271.436 234.767 271.236 235.983 271.236C237.951 271.236 239.519 271.7 240.687 272.628C241.871 273.54 242.503 274.828 242.583 276.492H237.471C237.455 275.98 237.295 275.596 236.991 275.34C236.703 275.084 236.327 274.956 235.863 274.956C235.511 274.956 235.223 275.06 234.999 275.268C234.775 275.476 234.663 275.772 234.663 276.156C234.663 276.476 234.783 276.756 235.023 276.996C235.279 277.22 235.591 277.42 235.959 277.596C236.327 277.756 236.871 277.964 237.591 278.22C238.663 278.588 239.543 278.956 240.231 279.324C240.935 279.676 241.535 280.18 242.031 280.836C242.543 281.476 242.799 282.292 242.799 283.284C242.799 284.292 242.543 285.196 242.031 285.996C241.535 286.796 240.807 287.428 239.847 287.892C238.903 288.356 237.783 288.588 236.487 288.588ZM263.907 277.14C263.907 278.164 263.667 279.1 263.187 279.948C262.723 280.78 262.011 281.452 261.051 281.964C260.107 282.46 258.947 282.708 257.571 282.708H255.243V288.42H250.539V271.5H257.571C258.931 271.5 260.083 271.74 261.027 272.22C261.987 272.7 262.707 273.364 263.187 274.212C263.667 275.06 263.907 276.036 263.907 277.14ZM257.115 278.964C258.443 278.964 259.107 278.356 259.107 277.14C259.107 275.908 258.443 275.292 257.115 275.292H255.243V278.964H257.115ZM276.981 285.66H270.981L270.069 288.42H265.125L271.293 271.5H276.717L282.861 288.42H277.893L276.981 285.66ZM275.805 282.06L273.981 276.588L272.181 282.06H275.805ZM284.298 279.924C284.298 278.26 284.642 276.78 285.33 275.484C286.034 274.172 287.026 273.156 288.306 272.436C289.586 271.7 291.058 271.332 292.722 271.332C294.834 271.332 296.61 271.9 298.05 273.036C299.49 274.156 300.418 275.684 300.834 277.62H295.77C295.466 276.98 295.042 276.492 294.498 276.156C293.97 275.82 293.354 275.652 292.65 275.652C291.562 275.652 290.69 276.044 290.034 276.828C289.394 277.596 289.074 278.628 289.074 279.924C289.074 281.236 289.394 282.284 290.034 283.068C290.69 283.836 291.562 284.22 292.65 284.22C293.354 284.22 293.97 284.052 294.498 283.716C295.042 283.38 295.466 282.892 295.77 282.252H300.834C300.418 284.188 299.49 285.724 298.05 286.86C296.61 287.98 294.834 288.54 292.722 288.54C291.058 288.54 289.586 288.18 288.306 287.46C287.026 286.724 286.034 285.708 285.33 284.412C284.642 283.1 284.298 281.604 284.298 279.924ZM313.55 288.42L308.246 281.004V288.42H303.542V271.5H308.246V278.796L313.502 271.5H318.926L312.71 279.708L319.238 288.42H313.55ZM101.86 319.924C101.86 318.26 102.204 316.78 102.892 315.484C103.596 314.172 104.588 313.156 105.868 312.436C107.148 311.7 108.62 311.332 110.284 311.332C112.396 311.332 114.172 311.9 115.612 313.036C117.052 314.156 117.98 315.684 118.396 317.62H113.332C113.028 316.98 112.604 316.492 112.06 316.156C111.532 315.82 110.916 315.652 110.212 315.652C109.124 315.652 108.252 316.044 107.596 316.828C106.956 317.596 106.636 318.628 106.636 319.924C106.636 321.236 106.956 322.284 107.596 323.068C108.252 323.836 109.124 324.22 110.212 324.22C110.916 324.22 111.532 324.052 112.06 323.716C112.604 323.38 113.028 322.892 113.332 322.252H118.396C117.98 324.188 117.052 325.724 115.612 326.86C114.172 327.98 112.396 328.54 110.284 328.54C108.62 328.54 107.148 328.18 105.868 327.46C104.588 326.724 103.596 325.708 102.892 324.412C102.204 323.1 101.86 321.604 101.86 319.924ZM129.216 328.588C127.632 328.588 126.176 328.22 124.848 327.484C123.52 326.732 122.464 325.7 121.68 324.388C120.912 323.06 120.528 321.564 120.528 319.9C120.528 318.236 120.912 316.748 121.68 315.436C122.464 314.108 123.52 313.076 124.848 312.34C126.176 311.604 127.632 311.236 129.216 311.236C130.816 311.236 132.272 311.604 133.584 312.34C134.912 313.076 135.96 314.108 136.728 315.436C137.496 316.748 137.88 318.236 137.88 319.9C137.88 321.564 137.496 323.06 136.728 324.388C135.96 325.7 134.912 326.732 133.584 327.484C132.256 328.22 130.8 328.588 129.216 328.588ZM129.216 324.22C130.416 324.22 131.36 323.828 132.048 323.044C132.752 322.26 133.104 321.212 133.104 319.9C133.104 318.556 132.752 317.5 132.048 316.732C131.36 315.948 130.416 315.556 129.216 315.556C128 315.556 127.048 315.948 126.36 316.732C125.672 317.5 125.328 318.556 125.328 319.9C125.328 321.228 125.672 322.284 126.36 323.068C127.048 323.836 128 324.22 129.216 324.22ZM160.226 311.5V328.42H155.522V319.084L152.33 328.42H148.394L145.178 319.012V328.42H140.474V311.5H146.162L150.41 322.492L154.562 311.5H160.226ZM168.088 311.5V328.42H163.384V311.5H168.088ZM186.919 328.42H182.215L175.951 318.964V328.42H171.247V311.5H175.951L182.215 321.076V311.5H186.919V328.42ZM200.878 317.068C200.606 316.62 200.23 316.276 199.75 316.036C199.286 315.796 198.734 315.676 198.094 315.676C196.91 315.676 195.974 316.06 195.286 316.828C194.614 317.596 194.278 318.628 194.278 319.924C194.278 321.38 194.638 322.492 195.358 323.26C196.094 324.012 197.158 324.388 198.55 324.388C200.198 324.388 201.374 323.644 202.078 322.156H197.35V318.772H206.134V323.332C205.766 324.228 205.222 325.068 204.502 325.852C203.798 326.636 202.902 327.284 201.814 327.796C200.726 328.292 199.486 328.54 198.094 328.54C196.398 328.54 194.894 328.18 193.582 327.46C192.286 326.724 191.278 325.708 190.558 324.412C189.854 323.1 189.502 321.604 189.502 319.924C189.502 318.26 189.854 316.78 190.558 315.484C191.278 314.172 192.286 313.156 193.582 312.436C194.878 311.7 196.374 311.332 198.07 311.332C200.198 311.332 201.958 311.844 203.35 312.868C204.742 313.892 205.606 315.292 205.942 317.068H200.878ZM220.18 328.588C218.212 328.588 216.596 328.124 215.332 327.196C214.068 326.252 213.388 324.908 213.292 323.164H218.308C218.356 323.756 218.532 324.188 218.836 324.46C219.14 324.732 219.532 324.868 220.012 324.868C220.444 324.868 220.796 324.764 221.068 324.556C221.356 324.332 221.5 324.028 221.5 323.644C221.5 323.148 221.268 322.764 220.804 322.492C220.34 322.22 219.588 321.916 218.548 321.58C217.444 321.212 216.548 320.86 215.86 320.524C215.188 320.172 214.596 319.668 214.084 319.012C213.588 318.34 213.34 317.468 213.34 316.396C213.34 315.308 213.612 314.38 214.156 313.612C214.7 312.828 215.452 312.236 216.412 311.836C217.372 311.436 218.46 311.236 219.676 311.236C221.644 311.236 223.212 311.7 224.38 312.628C225.564 313.54 226.196 314.828 226.276 316.492H221.164C221.148 315.98 220.988 315.596 220.684 315.34C220.396 315.084 220.02 314.956 219.556 314.956C219.204 314.956 218.916 315.06 218.692 315.268C218.468 315.476 218.356 315.772 218.356 316.156C218.356 316.476 218.476 316.756 218.716 316.996C218.972 317.22 219.284 317.42 219.652 317.596C220.02 317.756 220.564 317.964 221.284 318.22C222.356 318.588 223.236 318.956 223.924 319.324C224.628 319.676 225.228 320.18 225.724 320.836C226.236 321.476 226.492 322.292 226.492 323.284C226.492 324.292 226.236 325.196 225.724 325.996C225.228 326.796 224.5 327.428 223.54 327.892C222.596 328.356 221.476 328.588 220.18 328.588ZM237.271 328.588C235.687 328.588 234.231 328.22 232.903 327.484C231.575 326.732 230.519 325.7 229.735 324.388C228.967 323.06 228.583 321.564 228.583 319.9C228.583 318.236 228.967 316.748 229.735 315.436C230.519 314.108 231.575 313.076 232.903 312.34C234.231 311.604 235.687 311.236 237.271 311.236C238.871 311.236 240.327 311.604 241.639 312.34C242.967 313.076 244.015 314.108 244.783 315.436C245.551 316.748 245.935 318.236 245.935 319.9C245.935 321.564 245.551 323.06 244.783 324.388C244.015 325.7 242.967 326.732 241.639 327.484C240.311 328.22 238.855 328.588 237.271 328.588ZM237.271 324.22C238.471 324.22 239.415 323.828 240.103 323.044C240.807 322.26 241.159 321.212 241.159 319.9C241.159 318.556 240.807 317.5 240.103 316.732C239.415 315.948 238.471 315.556 237.271 315.556C236.055 315.556 235.103 315.948 234.415 316.732C233.727 317.5 233.383 318.556 233.383 319.9C233.383 321.228 233.727 322.284 234.415 323.068C235.103 323.836 236.055 324.22 237.271 324.22ZM256.642 328.588C255.058 328.588 253.602 328.22 252.274 327.484C250.946 326.732 249.89 325.7 249.106 324.388C248.338 323.06 247.954 321.564 247.954 319.9C247.954 318.236 248.338 316.748 249.106 315.436C249.89 314.108 250.946 313.076 252.274 312.34C253.602 311.604 255.058 311.236 256.642 311.236C258.242 311.236 259.698 311.604 261.01 312.34C262.338 313.076 263.386 314.108 264.154 315.436C264.922 316.748 265.306 318.236 265.306 319.9C265.306 321.564 264.922 323.06 264.154 324.388C263.386 325.7 262.338 326.732 261.01 327.484C259.682 328.22 258.226 328.588 256.642 328.588ZM256.642 324.22C257.842 324.22 258.786 323.828 259.474 323.044C260.178 322.26 260.53 321.212 260.53 319.9C260.53 318.556 260.178 317.5 259.474 316.732C258.786 315.948 257.842 315.556 256.642 315.556C255.426 315.556 254.474 315.948 253.786 316.732C253.098 317.5 252.754 318.556 252.754 319.9C252.754 321.228 253.098 322.284 253.786 323.068C254.474 323.836 255.426 324.22 256.642 324.22ZM283.572 328.42H278.868L272.604 318.964V328.42H267.9V311.5H272.604L278.868 321.076V311.5H283.572V328.42Z" fill="url(#paint29_linear_243_50643)"/>
<path d="M83.8763 272.5V289.42H79.1723V282.628H73.4363V289.42H68.7323V272.5H73.4363V278.86H79.1723V272.5H83.8763ZM97.7522 286.66H91.7522L90.8402 289.42H85.8962L92.0642 272.5H97.4882L103.632 289.42H98.6642L97.7522 286.66ZM96.5762 283.06L94.7522 277.588L92.9522 283.06H96.5762ZM119.013 278.14C119.013 279.164 118.773 280.1 118.293 280.948C117.829 281.78 117.117 282.452 116.157 282.964C115.213 283.46 114.053 283.708 112.677 283.708H110.349V289.42H105.645V272.5H112.677C114.037 272.5 115.189 272.74 116.133 273.22C117.093 273.7 117.813 274.364 118.293 275.212C118.773 276.06 119.013 277.036 119.013 278.14ZM112.221 279.964C113.549 279.964 114.213 279.356 114.213 278.14C114.213 276.908 113.549 276.292 112.221 276.292H110.349V279.964H112.221ZM134.751 278.14C134.751 279.164 134.511 280.1 134.031 280.948C133.567 281.78 132.855 282.452 131.895 282.964C130.951 283.46 129.791 283.708 128.415 283.708H126.087V289.42H121.383V272.5H128.415C129.775 272.5 130.927 272.74 131.871 273.22C132.831 273.7 133.551 274.364 134.031 275.212C134.511 276.06 134.751 277.036 134.751 278.14ZM127.959 279.964C129.287 279.964 129.951 279.356 129.951 278.14C129.951 276.908 129.287 276.292 127.959 276.292H126.087V279.964H127.959ZM152.505 272.5L146.553 284.044V289.42H141.825V284.044L135.873 272.5H141.249L144.225 279.028L147.201 272.5H152.505ZM174.647 272.5V289.42H169.943V282.628H164.207V289.42H159.503V272.5H164.207V278.86H169.943V272.5H174.647ZM185.931 289.588C184.347 289.588 182.891 289.22 181.563 288.484C180.235 287.732 179.179 286.7 178.395 285.388C177.627 284.06 177.243 282.564 177.243 280.9C177.243 279.236 177.627 277.748 178.395 276.436C179.179 275.108 180.235 274.076 181.563 273.34C182.891 272.604 184.347 272.236 185.931 272.236C187.531 272.236 188.987 272.604 190.299 273.34C191.627 274.076 192.675 275.108 193.443 276.436C194.211 277.748 194.595 279.236 194.595 280.9C194.595 282.564 194.211 284.06 193.443 285.388C192.675 286.7 191.627 287.732 190.299 288.484C188.971 289.22 187.515 289.588 185.931 289.588ZM185.931 285.22C187.131 285.22 188.075 284.828 188.763 284.044C189.467 283.26 189.819 282.212 189.819 280.9C189.819 279.556 189.467 278.5 188.763 277.732C188.075 276.948 187.131 276.556 185.931 276.556C184.715 276.556 183.763 276.948 183.075 277.732C182.387 278.5 182.043 279.556 182.043 280.9C182.043 282.228 182.387 283.284 183.075 284.068C183.763 284.836 184.715 285.22 185.931 285.22ZM201.797 272.5V282.316C201.797 283.228 202.005 283.932 202.421 284.428C202.853 284.924 203.501 285.172 204.365 285.172C205.229 285.172 205.877 284.924 206.309 284.428C206.757 283.916 206.981 283.212 206.981 282.316V272.5H211.685V282.316C211.685 283.868 211.357 285.196 210.701 286.3C210.045 287.388 209.149 288.212 208.013 288.772C206.893 289.316 205.645 289.588 204.269 289.588C202.893 289.588 201.661 289.316 200.573 288.772C199.501 288.212 198.653 287.388 198.029 286.3C197.421 285.212 197.117 283.884 197.117 282.316V272.5H201.797ZM223.323 289.42L219.963 283.18H219.459V289.42H214.755V272.5H222.171C223.531 272.5 224.683 272.74 225.627 273.22C226.571 273.684 227.283 274.332 227.763 275.164C228.243 275.98 228.483 276.9 228.483 277.924C228.483 279.076 228.163 280.092 227.523 280.972C226.899 281.836 225.979 282.452 224.763 282.82L228.579 289.42H223.323ZM219.459 279.964H221.787C222.427 279.964 222.907 279.812 223.227 279.508C223.547 279.204 223.707 278.764 223.707 278.188C223.707 277.644 223.539 277.22 223.203 276.916C222.883 276.596 222.411 276.436 221.787 276.436H219.459V279.964ZM237.487 289.588C235.519 289.588 233.903 289.124 232.639 288.196C231.375 287.252 230.695 285.908 230.599 284.164H235.615C235.663 284.756 235.839 285.188 236.143 285.46C236.447 285.732 236.839 285.868 237.319 285.868C237.751 285.868 238.103 285.764 238.375 285.556C238.663 285.332 238.807 285.028 238.807 284.644C238.807 284.148 238.575 283.764 238.111 283.492C237.647 283.22 236.895 282.916 235.855 282.58C234.751 282.212 233.855 281.86 233.167 281.524C232.495 281.172 231.903 280.668 231.391 280.012C230.895 279.34 230.647 278.468 230.647 277.396C230.647 276.308 230.919 275.38 231.463 274.612C232.007 273.828 232.759 273.236 233.719 272.836C234.679 272.436 235.767 272.236 236.983 272.236C238.951 272.236 240.519 272.7 241.687 273.628C242.871 274.54 243.503 275.828 243.583 277.492H238.471C238.455 276.98 238.295 276.596 237.991 276.34C237.703 276.084 237.327 275.956 236.863 275.956C236.511 275.956 236.223 276.06 235.999 276.268C235.775 276.476 235.663 276.772 235.663 277.156C235.663 277.476 235.783 277.756 236.023 277.996C236.279 278.22 236.591 278.42 236.959 278.596C237.327 278.756 237.871 278.964 238.591 279.22C239.663 279.588 240.543 279.956 241.231 280.324C241.935 280.676 242.535 281.18 243.031 281.836C243.543 282.476 243.799 283.292 243.799 284.284C243.799 285.292 243.543 286.196 243.031 286.996C242.535 287.796 241.807 288.428 240.847 288.892C239.903 289.356 238.783 289.588 237.487 289.588ZM264.907 278.14C264.907 279.164 264.667 280.1 264.187 280.948C263.723 281.78 263.011 282.452 262.051 282.964C261.107 283.46 259.947 283.708 258.571 283.708H256.243V289.42H251.539V272.5H258.571C259.931 272.5 261.083 272.74 262.027 273.22C262.987 273.7 263.707 274.364 264.187 275.212C264.667 276.06 264.907 277.036 264.907 278.14ZM258.115 279.964C259.443 279.964 260.107 279.356 260.107 278.14C260.107 276.908 259.443 276.292 258.115 276.292H256.243V279.964H258.115ZM277.981 286.66H271.981L271.069 289.42H266.125L272.293 272.5H277.717L283.861 289.42H278.893L277.981 286.66ZM276.805 283.06L274.981 277.588L273.181 283.06H276.805ZM285.298 280.924C285.298 279.26 285.642 277.78 286.33 276.484C287.034 275.172 288.026 274.156 289.306 273.436C290.586 272.7 292.058 272.332 293.722 272.332C295.834 272.332 297.61 272.9 299.05 274.036C300.49 275.156 301.418 276.684 301.834 278.62H296.77C296.466 277.98 296.042 277.492 295.498 277.156C294.97 276.82 294.354 276.652 293.65 276.652C292.562 276.652 291.69 277.044 291.034 277.828C290.394 278.596 290.074 279.628 290.074 280.924C290.074 282.236 290.394 283.284 291.034 284.068C291.69 284.836 292.562 285.22 293.65 285.22C294.354 285.22 294.97 285.052 295.498 284.716C296.042 284.38 296.466 283.892 296.77 283.252H301.834C301.418 285.188 300.49 286.724 299.05 287.86C297.61 288.98 295.834 289.54 293.722 289.54C292.058 289.54 290.586 289.18 289.306 288.46C288.026 287.724 287.034 286.708 286.33 285.412C285.642 284.1 285.298 282.604 285.298 280.924ZM314.55 289.42L309.246 282.004V289.42H304.542V272.5H309.246V279.796L314.502 272.5H319.926L313.71 280.708L320.238 289.42H314.55ZM102.86 320.924C102.86 319.26 103.204 317.78 103.892 316.484C104.596 315.172 105.588 314.156 106.868 313.436C108.148 312.7 109.62 312.332 111.284 312.332C113.396 312.332 115.172 312.9 116.612 314.036C118.052 315.156 118.98 316.684 119.396 318.62H114.332C114.028 317.98 113.604 317.492 113.06 317.156C112.532 316.82 111.916 316.652 111.212 316.652C110.124 316.652 109.252 317.044 108.596 317.828C107.956 318.596 107.636 319.628 107.636 320.924C107.636 322.236 107.956 323.284 108.596 324.068C109.252 324.836 110.124 325.22 111.212 325.22C111.916 325.22 112.532 325.052 113.06 324.716C113.604 324.38 114.028 323.892 114.332 323.252H119.396C118.98 325.188 118.052 326.724 116.612 327.86C115.172 328.98 113.396 329.54 111.284 329.54C109.62 329.54 108.148 329.18 106.868 328.46C105.588 327.724 104.596 326.708 103.892 325.412C103.204 324.1 102.86 322.604 102.86 320.924ZM130.216 329.588C128.632 329.588 127.176 329.22 125.848 328.484C124.52 327.732 123.464 326.7 122.68 325.388C121.912 324.06 121.528 322.564 121.528 320.9C121.528 319.236 121.912 317.748 122.68 316.436C123.464 315.108 124.52 314.076 125.848 313.34C127.176 312.604 128.632 312.236 130.216 312.236C131.816 312.236 133.272 312.604 134.584 313.34C135.912 314.076 136.96 315.108 137.728 316.436C138.496 317.748 138.88 319.236 138.88 320.9C138.88 322.564 138.496 324.06 137.728 325.388C136.96 326.7 135.912 327.732 134.584 328.484C133.256 329.22 131.8 329.588 130.216 329.588ZM130.216 325.22C131.416 325.22 132.36 324.828 133.048 324.044C133.752 323.26 134.104 322.212 134.104 320.9C134.104 319.556 133.752 318.5 133.048 317.732C132.36 316.948 131.416 316.556 130.216 316.556C129 316.556 128.048 316.948 127.36 317.732C126.672 318.5 126.328 319.556 126.328 320.9C126.328 322.228 126.672 323.284 127.36 324.068C128.048 324.836 129 325.22 130.216 325.22ZM161.226 312.5V329.42H156.522V320.084L153.33 329.42H149.394L146.178 320.012V329.42H141.474V312.5H147.162L151.41 323.492L155.562 312.5H161.226ZM169.088 312.5V329.42H164.384V312.5H169.088ZM187.919 329.42H183.215L176.951 319.964V329.42H172.247V312.5H176.951L183.215 322.076V312.5H187.919V329.42ZM201.878 318.068C201.606 317.62 201.23 317.276 200.75 317.036C200.286 316.796 199.734 316.676 199.094 316.676C197.91 316.676 196.974 317.06 196.286 317.828C195.614 318.596 195.278 319.628 195.278 320.924C195.278 322.38 195.638 323.492 196.358 324.26C197.094 325.012 198.158 325.388 199.55 325.388C201.198 325.388 202.374 324.644 203.078 323.156H198.35V319.772H207.134V324.332C206.766 325.228 206.222 326.068 205.502 326.852C204.798 327.636 203.902 328.284 202.814 328.796C201.726 329.292 200.486 329.54 199.094 329.54C197.398 329.54 195.894 329.18 194.582 328.46C193.286 327.724 192.278 326.708 191.558 325.412C190.854 324.1 190.502 322.604 190.502 320.924C190.502 319.26 190.854 317.78 191.558 316.484C192.278 315.172 193.286 314.156 194.582 313.436C195.878 312.7 197.374 312.332 199.07 312.332C201.198 312.332 202.958 312.844 204.35 313.868C205.742 314.892 206.606 316.292 206.942 318.068H201.878ZM221.18 329.588C219.212 329.588 217.596 329.124 216.332 328.196C215.068 327.252 214.388 325.908 214.292 324.164H219.308C219.356 324.756 219.532 325.188 219.836 325.46C220.14 325.732 220.532 325.868 221.012 325.868C221.444 325.868 221.796 325.764 222.068 325.556C222.356 325.332 222.5 325.028 222.5 324.644C222.5 324.148 222.268 323.764 221.804 323.492C221.34 323.22 220.588 322.916 219.548 322.58C218.444 322.212 217.548 321.86 216.86 321.524C216.188 321.172 215.596 320.668 215.084 320.012C214.588 319.34 214.34 318.468 214.34 317.396C214.34 316.308 214.612 315.38 215.156 314.612C215.7 313.828 216.452 313.236 217.412 312.836C218.372 312.436 219.46 312.236 220.676 312.236C222.644 312.236 224.212 312.7 225.38 313.628C226.564 314.54 227.196 315.828 227.276 317.492H222.164C222.148 316.98 221.988 316.596 221.684 316.34C221.396 316.084 221.02 315.956 220.556 315.956C220.204 315.956 219.916 316.06 219.692 316.268C219.468 316.476 219.356 316.772 219.356 317.156C219.356 317.476 219.476 317.756 219.716 317.996C219.972 318.22 220.284 318.42 220.652 318.596C221.02 318.756 221.564 318.964 222.284 319.22C223.356 319.588 224.236 319.956 224.924 320.324C225.628 320.676 226.228 321.18 226.724 321.836C227.236 322.476 227.492 323.292 227.492 324.284C227.492 325.292 227.236 326.196 226.724 326.996C226.228 327.796 225.5 328.428 224.54 328.892C223.596 329.356 222.476 329.588 221.18 329.588ZM238.271 329.588C236.687 329.588 235.231 329.22 233.903 328.484C232.575 327.732 231.519 326.7 230.735 325.388C229.967 324.06 229.583 322.564 229.583 320.9C229.583 319.236 229.967 317.748 230.735 316.436C231.519 315.108 232.575 314.076 233.903 313.34C235.231 312.604 236.687 312.236 238.271 312.236C239.871 312.236 241.327 312.604 242.639 313.34C243.967 314.076 245.015 315.108 245.783 316.436C246.551 317.748 246.935 319.236 246.935 320.9C246.935 322.564 246.551 324.06 245.783 325.388C245.015 326.7 243.967 327.732 242.639 328.484C241.311 329.22 239.855 329.588 238.271 329.588ZM238.271 325.22C239.471 325.22 240.415 324.828 241.103 324.044C241.807 323.26 242.159 322.212 242.159 320.9C242.159 319.556 241.807 318.5 241.103 317.732C240.415 316.948 239.471 316.556 238.271 316.556C237.055 316.556 236.103 316.948 235.415 317.732C234.727 318.5 234.383 319.556 234.383 320.9C234.383 322.228 234.727 323.284 235.415 324.068C236.103 324.836 237.055 325.22 238.271 325.22ZM257.642 329.588C256.058 329.588 254.602 329.22 253.274 328.484C251.946 327.732 250.89 326.7 250.106 325.388C249.338 324.06 248.954 322.564 248.954 320.9C248.954 319.236 249.338 317.748 250.106 316.436C250.89 315.108 251.946 314.076 253.274 313.34C254.602 312.604 256.058 312.236 257.642 312.236C259.242 312.236 260.698 312.604 262.01 313.34C263.338 314.076 264.386 315.108 265.154 316.436C265.922 317.748 266.306 319.236 266.306 320.9C266.306 322.564 265.922 324.06 265.154 325.388C264.386 326.7 263.338 327.732 262.01 328.484C260.682 329.22 259.226 329.588 257.642 329.588ZM257.642 325.22C258.842 325.22 259.786 324.828 260.474 324.044C261.178 323.26 261.53 322.212 261.53 320.9C261.53 319.556 261.178 318.5 260.474 317.732C259.786 316.948 258.842 316.556 257.642 316.556C256.426 316.556 255.474 316.948 254.786 317.732C254.098 318.5 253.754 319.556 253.754 320.9C253.754 322.228 254.098 323.284 254.786 324.068C255.474 324.836 256.426 325.22 257.642 325.22ZM284.572 329.42H279.868L273.604 319.964V329.42H268.9V312.5H273.604L279.868 322.076V312.5H284.572V329.42Z" fill="white"/>
<path d="M175.118 360.644H192.06C192.47 360.644 192.802 360.312 192.802 359.903C192.802 359.494 192.47 359.162 192.06 359.162H175.118C174.708 359.162 174.377 359.494 174.377 359.903C174.377 360.312 174.708 360.644 175.118 360.644Z" fill="white"/>
<path d="M197.453 360.647H200.764C201.173 360.647 201.505 360.315 201.505 359.906C201.505 359.497 201.173 359.165 200.764 359.165H197.453C197.044 359.165 196.712 359.497 196.712 359.906C196.712 360.315 197.044 360.647 197.453 360.647Z" fill="white"/>
<path d="M196.316 354.741C196.316 354.332 196.648 354 197.057 354H200.763C201.172 354 201.504 354.332 201.504 354.741C201.504 355.15 201.172 355.482 200.763 355.482H197.057C196.648 355.482 196.316 355.15 196.316 354.741ZM188.904 354.741C188.904 354.332 189.236 354 189.645 354H193.351C193.76 354 194.092 354.332 194.092 354.741C194.092 355.15 193.76 355.482 193.351 355.482H189.645C189.236 355.482 188.904 355.15 188.904 354.741ZM183.079 354.741C183.079 354.332 183.411 354 183.82 354H185.939C186.348 354 186.68 354.332 186.68 354.741C186.68 355.15 186.348 355.482 185.939 355.482H183.82C183.411 355.482 183.079 355.15 183.079 354.741Z" fill="white"/>
<defs>
<linearGradient id="paint0_linear_243_50643" x1="-11.1228" y1="-18.5" x2="306.377" y2="345.5" gradientUnits="userSpaceOnUse">
<stop stop-color="#2B1A9A"/>
<stop offset="0.994907" stop-color="#222224"/>
</linearGradient>
<linearGradient id="paint1_linear_243_50643" x1="256.748" y1="21.5859" x2="217.613" y2="21.5859" gradientUnits="userSpaceOnUse">
<stop stop-color="#3AA0FE"/>
<stop offset="1" stop-color="#59FEF4"/>
</linearGradient>
<linearGradient id="paint2_linear_243_50643" x1="140.92" y1="161.899" x2="131.457" y2="161.899" gradientUnits="userSpaceOnUse">
<stop stop-color="#E1DCFE"/>
<stop offset="1" stop-color="#7E67FD"/>
</linearGradient>
<linearGradient id="paint3_linear_243_50643" x1="248.373" y1="89.0103" x2="248.373" y2="194.947" gradientUnits="userSpaceOnUse">
<stop stop-color="#3AA0FE"/>
<stop offset="1" stop-color="#3AF2FE"/>
</linearGradient>
<linearGradient id="paint4_linear_243_50643" x1="216.857" y1="94.7598" x2="216.857" y2="172.85" gradientUnits="userSpaceOnUse">
<stop stop-color="#3AA0FE"/>
<stop offset="1" stop-color="#3AF2FE"/>
</linearGradient>
<linearGradient id="paint5_linear_243_50643" x1="226.159" y1="89.866" x2="226.159" y2="172.849" gradientUnits="userSpaceOnUse">
<stop stop-color="#3AA0FE"/>
<stop offset="1" stop-color="#3AF2FE"/>
</linearGradient>
<linearGradient id="paint6_linear_243_50643" x1="228.036" y1="120.764" x2="221.599" y2="124.541" gradientUnits="userSpaceOnUse">
<stop stop-color="#0575E6"/>
<stop offset="1" stop-color="#FF0CF5"/>
</linearGradient>
<linearGradient id="paint7_linear_243_50643" x1="244.609" y1="122.396" x2="237.157" y2="121.962" gradientUnits="userSpaceOnUse">
<stop stop-color="#0575E6"/>
<stop offset="1" stop-color="#FF0CF5"/>
</linearGradient>
<linearGradient id="paint8_linear_243_50643" x1="241.94" y1="138.629" x2="222.266" y2="129.629" gradientUnits="userSpaceOnUse">
<stop stop-color="#0575E6"/>
<stop offset="1" stop-color="#FF0CF5"/>
</linearGradient>
<linearGradient id="paint9_linear_243_50643" x1="226.461" y1="68.4188" x2="212.996" y2="63.5351" gradientUnits="userSpaceOnUse">
<stop stop-color="#0575E6"/>
<stop offset="1" stop-color="#FF0CF5"/>
</linearGradient>
<linearGradient id="paint10_linear_243_50643" x1="266.677" y1="65.5906" x2="246.201" y2="55.7405" gradientUnits="userSpaceOnUse">
<stop stop-color="#0575E6"/>
<stop offset="1" stop-color="#FF0CF5"/>
</linearGradient>
<linearGradient id="paint11_linear_243_50643" x1="264.446" y1="62.4414" x2="253.552" y2="57.201" gradientUnits="userSpaceOnUse">
<stop stop-color="#0575E6"/>
<stop offset="1" stop-color="#FF0CF5"/>
</linearGradient>
<linearGradient id="paint12_linear_243_50643" x1="252.662" y1="45.0402" x2="264.293" y2="41.6027" gradientUnits="userSpaceOnUse">
<stop stop-color="#0575E6"/>
<stop offset="1" stop-color="#FF0CF5"/>
</linearGradient>
<linearGradient id="paint13_linear_243_50643" x1="272.14" y1="150.051" x2="272.14" y2="171.811" gradientUnits="userSpaceOnUse">
<stop stop-color="#3AA0FE"/>
<stop offset="1" stop-color="#3AF2FE"/>
</linearGradient>
<linearGradient id="paint14_linear_243_50643" x1="271.188" y1="103.51" x2="271.188" y2="171.355" gradientUnits="userSpaceOnUse">
<stop stop-color="#3AA0FE"/>
<stop offset="1" stop-color="#3AF2FE"/>
</linearGradient>
<linearGradient id="paint15_linear_243_50643" x1="278.018" y1="103.483" x2="259.518" y2="103.483" gradientUnits="userSpaceOnUse">
<stop stop-color="#3AA0FE"/>
<stop offset="1" stop-color="#59FEF4"/>
</linearGradient>
<linearGradient id="paint16_linear_243_50643" x1="269.033" y1="152.438" x2="269.033" y2="171.625" gradientUnits="userSpaceOnUse">
<stop stop-color="#3AA0FE"/>
<stop offset="1" stop-color="#3AF2FE"/>
</linearGradient>
<linearGradient id="paint17_linear_243_50643" x1="330.752" y1="68.4231" x2="282.655" y2="68.4231" gradientUnits="userSpaceOnUse">
<stop stop-color="#3AA0FE"/>
<stop offset="1" stop-color="#59FEF4"/>
</linearGradient>
<linearGradient id="paint18_linear_243_50643" x1="330.752" y1="68.4231" x2="296.658" y2="68.4231" gradientUnits="userSpaceOnUse">
<stop stop-color="#3AA0FE"/>
<stop offset="1" stop-color="#59FEF4"/>
</linearGradient>
<linearGradient id="paint19_linear_243_50643" x1="354.103" y1="175.774" x2="324.679" y2="175.774" gradientUnits="userSpaceOnUse">
<stop stop-color="#3AA0FE"/>
<stop offset="1" stop-color="#59FEF4"/>
</linearGradient>
<linearGradient id="paint20_linear_243_50643" x1="45.4689" y1="184.398" x2="6.3772" y2="151.83" gradientUnits="userSpaceOnUse">
<stop stop-color="#3AA0FE"/>
<stop offset="1" stop-color="#59FEF4"/>
</linearGradient>
<linearGradient id="paint21_linear_243_50643" x1="63.7969" y1="191.189" x2="10.3506" y2="146.946" gradientUnits="userSpaceOnUse">
<stop stop-color="#3AA0FE"/>
<stop offset="1" stop-color="#59FEF4"/>
</linearGradient>
<linearGradient id="paint22_linear_243_50643" x1="39.8723" y1="143.758" x2="28.8628" y2="164.225" gradientUnits="userSpaceOnUse">
<stop stop-color="#3AA0FE"/>
<stop offset="1" stop-color="#59FEF4"/>
</linearGradient>
<linearGradient id="paint23_linear_243_50643" x1="74.2388" y1="179.392" x2="34.5332" y2="149.675" gradientUnits="userSpaceOnUse">
<stop stop-color="#3AA0FE"/>
<stop offset="1" stop-color="#59FEF4"/>
</linearGradient>
<linearGradient id="paint24_linear_243_50643" x1="78.5026" y1="173.323" x2="10.2666" y2="173.323" gradientUnits="userSpaceOnUse">
<stop stop-color="#3AA0FE"/>
<stop offset="1" stop-color="#59FEF4"/>
</linearGradient>
<linearGradient id="paint25_linear_243_50643" x1="40.3711" y1="173.323" x2="10.2666" y2="173.323" gradientUnits="userSpaceOnUse">
<stop stop-color="#3AA0FE"/>
<stop offset="1" stop-color="#59FEF4"/>
</linearGradient>
<linearGradient id="paint26_linear_243_50643" x1="53.5111" y1="172.049" x2="53.5111" y2="186.162" gradientUnits="userSpaceOnUse">
<stop stop-color="#E9651B"/>
<stop offset="1" stop-color="#FF8933"/>
</linearGradient>
<linearGradient id="paint27_linear_243_50643" x1="47.6004" y1="176.334" x2="47.6004" y2="180.921" gradientUnits="userSpaceOnUse">
<stop stop-color="#FF0C0C"/>
<stop offset="1" stop-color="#FF630C"/>
</linearGradient>
<linearGradient id="paint28_linear_243_50643" x1="54.5628" y1="172.146" x2="54.5628" y2="175.187" gradientUnits="userSpaceOnUse">
<stop stop-color="#FF0C0C"/>
<stop offset="1" stop-color="#FF630C"/>
</linearGradient>
<linearGradient id="paint29_linear_243_50643" x1="193" y1="260.42" x2="193" y2="340.42" gradientUnits="userSpaceOnUse">
<stop stop-color="#FF0C0C"/>
<stop offset="1" stop-color="#FF630C"/>
</linearGradient>
</defs>
</svg>
