<svg width="1170" height="184" viewBox="0 0 1170 184" fill="none" xmlns="http://www.w3.org/2000/svg">
<path d="M0 84.6416C0 79.1188 4.47715 74.6416 10 74.6416H1160C1165.52 74.6416 1170 79.1188 1170 84.6416V172.642C1170 178.164 1165.52 182.642 1160 182.642H10C4.47715 182.642 0 178.164 0 172.642V84.6416Z" fill="url(#paint0_linear_301_68867)"/>
<path d="M178.371 108.805H384.067V128.165H178.371V108.805Z" fill="#162E47"/>
<path d="M384.914 182.642V114.166C384.914 110.803 382.189 108.079 378.828 108.079H343.169" stroke="#162E47" stroke-width="3.58" stroke-miterlimit="10"/>
<path d="M340.232 99.785H345.38V107.507H340.232V99.785Z" fill="#162E47"/>
<path d="M355.248 92.2065C355.248 99.0776 349.677 104.647 342.806 104.647C335.935 104.647 330.364 99.0776 330.364 92.2065C330.364 85.3354 335.935 79.7653 342.806 79.7653C349.677 79.7653 355.248 85.3354 355.248 92.2065Z" fill="#162E47"/>
<path d="M351.387 93.7792C351.387 98.5179 347.545 102.359 342.807 102.359C338.068 102.359 334.227 98.5179 334.227 93.7792C334.227 89.0406 338.068 85.199 342.807 85.199C347.545 85.199 351.387 89.0406 351.387 93.7792Z" fill="#274964"/>
<path d="M342.806 92.9769L335.314 97.96C336.781 100.584 339.586 102.359 342.806 102.359C346.026 102.359 348.831 100.584 350.298 97.9599L342.806 92.9769Z" fill="#6287A7"/>
<path d="M345.809 95.3512C345.809 97.01 344.465 98.354 342.806 98.354C341.148 98.354 339.804 97.01 339.804 95.3512C339.804 93.6933 341.148 92.3484 342.806 92.3484C344.465 92.3484 345.809 93.6933 345.809 95.3512Z" fill="#6287A7"/>
<path d="M342.806 97.5282C341.575 97.5282 340.492 96.8972 339.862 95.9408C340.136 97.3165 341.35 98.3548 342.806 98.3548C344.263 98.3548 345.477 97.3165 345.751 95.9408C345.12 96.8972 344.038 97.5282 342.806 97.5282Z" fill="#F5FFFF"/>
<path d="M351.815 109.509H333.797C333.797 107.298 335.59 105.505 337.802 105.505H347.81C350.022 105.505 351.815 107.298 351.815 109.509Z" fill="#274964"/>
<path d="M320.362 109.822H322.718V108.85H321.333C320.796 108.85 320.362 109.285 320.362 109.822Z" fill="#162E47"/>
<path d="M323.253 109.822H325.61V108.85H324.225C323.688 108.85 323.253 109.285 323.253 109.822Z" fill="#162E47"/>
<path d="M320.209 91.0757H320.895V90.1607H320.209C319.956 90.1607 319.752 90.3659 319.752 90.6182C319.752 90.8704 319.956 91.0757 320.209 91.0757Z" fill="#162E47"/>
<path d="M319.325 104.25C319.462 104.25 319.573 104.139 319.573 104.002V103.392C319.573 103.256 319.462 103.145 319.325 103.145C319.188 103.145 319.077 103.256 319.077 103.392V104.002C319.077 104.139 319.188 104.25 319.325 104.25Z" fill="#162E47"/>
<path d="M319.938 104.25C320.075 104.25 320.186 104.139 320.186 104.002V103.392C320.186 103.256 320.075 103.145 319.938 103.145C319.802 103.145 319.691 103.256 319.691 103.392V104.002C319.691 104.139 319.802 104.25 319.938 104.25Z" fill="#162E47"/>
<path d="M320.552 104.25C320.689 104.25 320.8 104.139 320.8 104.002V103.392C320.8 103.256 320.689 103.145 320.552 103.145C320.415 103.145 320.304 103.256 320.304 103.392V104.002C320.304 104.139 320.415 104.25 320.552 104.25Z" fill="#162E47"/>
<path d="M319.971 103.954C320.539 103.954 321 103.494 321 102.925V94.9237C321 94.3559 320.539 93.8952 319.971 93.8952C319.403 93.8952 318.941 94.3559 318.941 94.9237V102.925C318.941 103.494 319.403 103.954 319.971 103.954Z" fill="#162E47"/>
<path d="M320.1 103.112C320.596 103.112 320.999 102.709 320.999 102.213V95.2142C320.999 94.7169 320.596 94.3138 320.1 94.3138C319.603 94.3138 319.2 94.7169 319.2 95.2142V102.213C319.2 102.709 319.603 103.112 320.1 103.112Z" fill="#162E47"/>
<path d="M320.538 92.3329C320.286 92.0417 320.133 91.6037 320.133 91.1308V90.2159C320.073 90.0528 320.031 89.876 320.031 89.6846V88.8394C320.031 88.7436 320.044 88.652 320.052 88.5595C319.955 88.4184 319.898 88.2472 319.898 88.0631V86.0458C320.384 86.0458 320.776 86.4384 320.776 86.9234V86.9389C321.028 86.7109 321.325 86.5755 321.646 86.5755H322.279C322.535 86.5755 322.773 86.6663 322.988 86.8139C323.042 86.3816 323.407 86.0458 323.854 86.0458V88.0631C323.854 88.128 323.846 88.1913 323.833 88.2521C323.869 88.4403 323.895 88.6349 323.895 88.8394V89.6846C323.895 89.876 323.854 90.0528 323.794 90.2159V91.1308C323.794 91.3279 323.764 91.5169 323.715 91.6946C325.047 92.1245 326.01 93.3728 326.01 94.8483V98.6947C326.482 99.1927 326.774 99.8635 326.774 100.603C326.774 101.535 326.313 102.357 325.61 102.861V109.823H323.553V103.383H323.171C323.158 103.385 323.146 103.387 323.133 103.389V109.823H321.075V102.996C320.064 102.429 319.38 101.348 319.38 100.106V94.8483C319.38 93.8408 319.83 92.9413 320.538 92.3329Z" fill="#162E47"/>
<path d="M323.274 86.8141C323.192 86.7576 323.107 86.7132 323.019 86.675C323.125 86.3118 323.457 86.0453 323.855 86.0458L323.855 86.0956C323.547 86.2037 323.317 86.4786 323.274 86.8141Z" fill="#162E47"/>
<path d="M321.061 86.9235C321.061 86.8635 321.056 86.8051 321.044 86.7475C321.23 86.6404 321.433 86.5755 321.647 86.5755H321.933C321.611 86.5755 321.314 86.711 321.061 86.9389V86.9235Z" fill="#162E47"/>
<path d="M323.553 103.383H323.839V109.822H323.553V103.383Z" fill="#162E47"/>
<path d="M320.538 92.3329C320.286 92.0417 320.133 91.6037 320.133 91.1308V90.2159C320.073 90.0528 320.031 89.876 320.031 89.6846V88.8394C320.031 88.7436 320.044 88.652 320.052 88.5595C319.955 88.4184 319.898 88.2472 319.898 88.0631V86.0458C319.999 86.0458 320.094 86.0661 320.184 86.0977V88.0631C320.184 88.2472 320.241 88.4184 320.338 88.5595C320.329 88.652 320.318 88.7436 320.318 88.8394V89.6846C320.318 89.876 320.358 90.0528 320.419 90.2159V91.1308C320.419 91.6037 320.572 92.0417 320.825 92.3329C320.116 92.9413 319.666 93.8408 319.666 94.8483V100.106C319.666 101.348 320.35 102.429 321.362 102.996V109.823H321.075V102.996C320.064 102.429 319.38 101.348 319.38 100.106V94.8483C319.38 93.8408 319.83 92.9413 320.538 92.3329Z" fill="#162E47"/>
<path d="M377.895 121.146H184.541C181.132 121.146 178.37 118.383 178.37 114.976C178.37 111.567 181.132 108.804 184.541 108.804H377.895C381.303 108.804 384.066 111.567 384.066 114.976C384.066 118.383 381.303 121.146 377.895 121.146Z" fill="#6287A7"/>
<path d="M371.604 121.873H190.834C187.426 121.873 184.663 119.11 184.663 115.702C184.663 112.293 187.426 109.531 190.834 109.531H371.604C375.012 109.531 377.775 112.293 377.775 115.702C377.775 119.11 375.012 121.873 371.604 121.873Z" fill="#17334C"/>
<path d="M251.061 5.89994L283.645 2.26199C286.676 1.92375 289.408 4.10652 289.746 7.13773L290.196 11.1675L252.124 15.4178L251.061 5.89994Z" fill="url(#paint1_linear_301_68867)"/>
<path d="M189.261 149.987L187.232 134.533L241.466 127.416C245.735 126.856 249.648 129.861 250.208 134.128C250.768 138.396 247.762 142.31 243.495 142.87L189.261 149.987Z" fill="#D77DA2"/>
<path d="M184.954 140.158C185.299 138.563 184.287 136.99 182.692 136.645L172.814 134.476C171.219 134.131 169.647 135.143 169.301 136.738C168.956 138.333 169.968 139.905 171.563 140.25L181.441 142.419C183.035 142.765 184.608 141.752 184.954 140.158Z" fill="#CC6992"/>
<path d="M164.695 142.125C165.578 143.496 167.406 143.893 168.777 143.01L173.688 139.825C175.06 138.942 175.456 137.113 174.573 135.743C173.69 134.37 171.862 133.974 170.49 134.858L165.58 138.042C164.207 138.925 163.812 140.754 164.695 142.125Z" fill="#CC6992"/>
<path d="M166.135 152.656C167.46 153.609 169.305 153.308 170.258 151.983L173.659 147.22C174.612 145.896 174.311 144.049 172.986 143.097C171.661 142.144 169.815 142.446 168.863 143.77L165.461 148.533C164.509 149.858 164.81 151.703 166.135 152.656Z" fill="url(#paint2_linear_301_68867)"/>
<path d="M184.264 143.399C184.001 141.79 182.482 140.697 180.871 140.96L170.886 142.564C169.275 142.826 168.184 144.345 168.447 145.955C168.71 147.565 170.229 148.657 171.839 148.394L181.824 146.791C183.435 146.528 184.526 145.009 184.264 143.399Z" fill="#CC6992"/>
<path d="M165.885 155.728C167.209 156.681 169.055 156.38 170.008 155.054L173.41 150.292C174.362 148.967 174.061 147.121 172.736 146.169C171.411 145.216 169.566 145.518 168.613 146.842L165.212 151.605C164.259 152.93 164.56 154.775 165.885 155.728Z" fill="#CC6992"/>
<path d="M184.014 146.471C183.751 144.861 182.232 143.769 180.621 144.032L170.636 145.635C169.025 145.898 167.934 147.416 168.197 149.027C168.46 150.637 169.979 151.728 171.589 151.466L181.574 149.863C183.185 149.599 184.276 148.081 184.014 146.471Z" fill="#CC6992"/>
<path d="M194.52 149.704C197.341 144.784 195.637 138.509 190.717 135.689C185.796 132.868 179.522 134.572 176.701 139.492C173.882 144.413 175.584 150.688 180.505 153.507C185.425 156.328 191.7 154.624 194.52 149.704Z" fill="#CC6992"/>
<path d="M185.828 149.17C185.022 147.752 183.218 147.257 181.8 148.062L172.994 153.038C171.576 153.844 171.08 155.646 171.886 157.065C172.692 158.483 174.496 158.98 175.914 158.174L184.72 153.198C186.138 152.393 186.634 150.589 185.828 149.17Z" fill="#CC6992"/>
<path d="M187.242 144.403C185.626 144.629 184.5 146.123 184.726 147.738L186.103 157.758C186.33 159.373 187.823 160.5 189.439 160.273C191.054 160.047 192.18 158.553 191.954 156.938L190.577 146.918C190.351 145.303 188.858 144.177 187.242 144.403Z" fill="#CC6992"/>
<path d="M172.048 164.152C173.621 164.585 175.248 163.661 175.681 162.087L177.214 156.439C177.647 154.867 176.723 153.24 175.149 152.808C173.577 152.374 171.95 153.299 171.518 154.872L169.984 160.52C169.551 162.093 170.476 163.719 172.048 164.152Z" fill="#CC6992"/>
<path d="M232.093 162.044H219.266C215.725 162.044 212.854 159.172 212.854 155.631C212.854 152.089 215.725 149.217 219.266 149.217H232.093C235.634 149.217 238.506 152.089 238.506 155.631C238.506 159.172 235.634 162.044 232.093 162.044Z" fill="#162E47"/>
<path d="M241.934 129.266H100.465V30.6265H241.934C244.236 30.6265 246.102 32.4921 246.102 34.7941V125.098C246.102 127.4 244.236 129.266 241.934 129.266Z" fill="#6287A7"/>
<path d="M160.505 32.5758H151.028C150.055 32.5758 149.266 31.7866 149.266 30.8124C149.266 29.839 150.055 29.0498 151.028 29.0498H160.505C161.479 29.0498 162.269 29.839 162.269 30.8124C162.269 31.7866 161.479 32.5758 160.505 32.5758Z" fill="#274964"/>
<path d="M241.97 129.266H99.5329C97.7662 129.266 96.3337 127.834 96.3337 126.067V33.8256C96.3337 32.059 97.7662 30.6265 99.5329 30.6265H241.97V129.266Z" fill="#274964"/>
<path d="M197.435 65.744H133.123C116.58 65.744 103.169 52.3335 103.169 35.7904H227.389C227.389 52.3335 213.979 65.744 197.435 65.744Z" fill="#17334C"/>
<path d="M147.702 99.3129H172.01V160.083H147.702V99.3129Z" fill="#17334C"/>
<path d="M205.722 163.868H133.671V157.583C133.671 155.583 135.293 153.961 137.294 153.961H195.815C201.286 153.961 205.722 158.397 205.722 163.868Z" fill="#6287A7"/>
<path d="M177.967 108.609H141.746C137.914 108.609 134.809 105.503 134.809 101.672V76.8128C134.809 72.981 137.914 69.8759 141.746 69.8759H177.967C181.798 69.8759 184.904 72.981 184.904 76.8128V101.672C184.904 105.503 181.798 108.609 177.967 108.609Z" fill="#17334C"/>
<path d="M200.913 163.868H132.61V157.583C132.61 155.583 134.231 153.961 136.231 153.961H191.007C196.478 153.961 200.913 158.397 200.913 163.868Z" fill="#17334C"/>
<path d="M168.894 90.7911C168.894 95.7828 164.847 99.8296 159.856 99.8296C154.865 99.8296 150.819 95.7828 150.819 90.7911C150.819 85.8002 154.865 81.7534 159.856 81.7534C164.847 81.7534 168.894 85.8002 168.894 90.7911Z" fill="#274964"/>
<path d="M104.672 124.748C103.816 124.748 103.123 124.055 103.123 123.198V112.354C103.123 111.498 103.816 110.804 104.672 110.804C105.528 110.804 106.221 111.498 106.221 112.354V123.198C106.221 124.055 105.528 124.748 104.672 124.748Z" fill="#162E47"/>
<path d="M110.353 124.748C109.496 124.748 108.803 124.055 108.803 123.198V112.354C108.803 111.498 109.496 110.804 110.353 110.804C111.208 110.804 111.902 111.498 111.902 112.354V123.198C111.902 124.055 111.208 124.748 110.353 124.748Z" fill="#162E47"/>
<path d="M116.033 124.748C115.177 124.748 114.484 124.055 114.484 123.198V112.354C114.484 111.498 115.177 110.804 116.033 110.804C116.89 110.804 117.582 111.498 117.582 112.354V123.198C117.582 124.055 116.89 124.748 116.033 124.748Z" fill="#162E47"/>
<path d="M215.706 124.748C214.851 124.748 214.157 124.055 214.157 123.198V112.354C214.157 111.498 214.851 110.804 215.706 110.804C216.563 110.804 217.256 111.498 217.256 112.354V123.198C217.256 124.055 216.563 124.748 215.706 124.748Z" fill="#162E47"/>
<path d="M221.387 124.748C220.532 124.748 219.838 124.055 219.838 123.198V112.354C219.838 111.498 220.532 110.804 221.387 110.804C222.243 110.804 222.937 111.498 222.937 112.354V123.198C222.937 124.055 222.243 124.748 221.387 124.748Z" fill="#162E47"/>
<path d="M227.069 124.748C226.212 124.748 225.52 124.055 225.52 123.198V112.354C225.52 111.498 226.212 110.804 227.069 110.804C227.925 110.804 228.618 111.498 228.618 112.354V123.198C228.618 124.055 227.925 124.748 227.069 124.748Z" fill="#162E47"/>
<path d="M205.894 120.358H185.236C183.81 120.358 182.654 119.201 182.654 117.775C182.654 116.349 183.81 115.193 185.236 115.193H205.894C207.32 115.193 208.477 116.349 208.477 117.775C208.477 119.201 207.32 120.358 205.894 120.358Z" fill="#162E47"/>
<path d="M156.915 26.8459H151.185C147.655 26.8459 144.794 23.9842 144.794 20.4549C144.794 16.9249 147.655 14.0632 151.185 14.0632H156.915C160.445 14.0632 163.306 16.9249 163.306 20.4549C163.306 23.9842 160.445 26.8459 156.915 26.8459Z" fill="#6287A7"/>
<path d="M152.948 26.8459H151.185C147.655 26.8459 144.793 23.9842 144.793 20.4549C144.793 16.9249 147.655 14.0632 151.185 14.0632H152.948C156.478 14.0632 159.339 16.9249 159.339 20.4549C159.339 23.9842 156.478 26.8459 152.948 26.8459Z" fill="#274964"/>
<path d="M149.973 32.3552C148.207 32.3552 146.777 30.9244 146.777 29.1601V24.0905C146.777 22.3255 148.207 20.8955 149.973 20.8955C151.738 20.8955 153.168 22.3255 153.168 24.0905V29.1601C153.168 30.9244 151.738 32.3552 149.973 32.3552Z" fill="#17334C"/>
<path d="M309.326 175.588H253.789L250.964 123.516C250.263 110.599 250.902 97.6436 252.869 84.8584L253.789 78.8763C253.789 76.6505 255.151 74.6535 257.222 73.8408L258.412 73.3744C275.97 66.487 295.85 69.2789 310.831 80.7354C312.169 81.7591 312.953 83.3473 312.953 85.0312L309.326 175.588Z" fill="url(#paint3_linear_301_68867)"/>
<path d="M250.964 123.516C250.263 110.599 250.901 97.6444 252.869 84.8585L253.789 78.8763C253.789 77.5728 254.266 76.3553 255.07 75.4014C249.646 76.4283 245.542 81.1864 245.542 86.9098V153.491H252.59L250.964 123.516Z" fill="url(#paint4_linear_301_68867)"/>
<path d="M250.964 123.516C250.263 110.599 250.901 97.6444 252.869 84.8585L253.789 78.8763C253.789 77.5728 254.266 76.3553 255.07 75.4014C249.646 76.4283 245.542 81.1864 245.542 86.9098V153.491H252.59L250.964 123.516Z" fill="#151515" fill-opacity="0.4"/>
<path d="M268.525 70.5077C265.104 71.1249 261.716 72.078 258.412 73.3742L257.221 73.8406C255.151 74.6534 253.789 76.6512 253.789 78.8753L252.869 84.8575C250.901 97.6434 250.262 110.599 250.964 123.516L252.589 153.491H268.525V70.5077Z" fill="url(#paint5_linear_301_68867)"/>
<path d="M261.941 112.607C259.678 112.607 257.844 110.773 257.843 108.51L257.844 99.0911C260.107 99.0907 261.941 100.926 261.942 103.189L261.941 112.607Z" fill="url(#paint6_linear_301_68867)"/>
<path d="M272.215 112.607C274.479 112.607 276.315 110.773 276.314 108.509L276.315 99.09C274.051 99.0901 272.216 100.926 272.216 103.189L272.215 112.607Z" fill="url(#paint7_linear_301_68867)"/>
<path d="M272.059 129.524L270.202 130.635C267.947 131.982 265.397 131.982 263.142 130.635L261.285 129.524C259.37 128.381 258.128 125.745 258.128 122.828V112.912C258.128 110.146 258.928 107.643 260.22 105.831C261.513 104.019 263.299 102.898 265.272 102.898H268.072C270.046 102.898 271.831 104.019 273.123 105.831C274.416 107.643 275.216 110.146 275.216 112.912V122.828C275.216 125.745 273.973 128.381 272.059 129.524Z" fill="#F5FFFF"/>
<path d="M273.178 121.168L265.224 124.607L260.165 121.168C258.655 120.37 257.654 118.343 257.654 116.08V112.134C257.654 106.297 261.03 101.566 265.194 101.566H268.15C272.315 101.566 275.69 106.297 275.69 112.134V116.08C275.69 118.343 274.689 120.37 273.178 121.168Z" fill="url(#paint8_linear_301_68867)"/>
<path d="M267.392 117.545V117.134C267.392 115.904 268.39 114.905 269.621 114.905H271.822V115.316C271.822 116.547 270.824 117.545 269.593 117.545H267.392Z" fill="#F5FFFF"/>
<path d="M260.301 114.905V115.316C260.301 116.546 261.299 117.545 262.53 117.545H264.731V117.134C264.731 115.903 263.733 114.905 262.502 114.905H260.301Z" fill="#F5FFFF"/>
<path d="M291.196 75.8086C291.196 78.6881 284.878 81.0217 277.083 81.0217C269.287 81.0217 262.968 78.6881 262.968 75.8086C262.968 72.929 269.287 70.5946 277.083 70.5946C284.878 70.5946 291.196 72.929 291.196 75.8086Z" fill="#0575E6"/>
<path d="M289.018 75.2704C289.018 80.1296 264.589 80.1295 264.59 75.2704L264.59 13.7091L289.018 13.7092L289.018 75.2704Z" fill="#FF99C3"/>
<path d="M259.882 38.162L258.614 38.304C252.744 38.9586 247.454 34.7317 246.798 28.8616C246.143 22.9914 250.369 17.7019 256.24 17.0465L257.509 16.9046C263.38 16.2492 268.67 20.4768 269.325 26.347C269.98 32.2164 265.753 37.5066 259.882 38.162Z" fill="#17334C"/>
<path d="M256.22 53.332C252.764 53.7181 249.648 51.2288 249.263 47.7725L248.591 41.7441C248.204 38.2879 250.694 35.1723 254.149 34.787C256.545 34.5193 258.706 36.2446 258.973 38.6407L260.075 48.509C260.342 50.9051 258.616 53.0644 256.22 53.332Z" fill="url(#paint9_linear_301_68867)"/>
<path d="M269.966 65.1575L263.302 65.9013L259.929 66.2777C258.023 66.491 256.238 65.3108 255.687 63.4744L254.99 61.1521C251.514 49.5675 250.161 37.4499 250.997 25.3842L251.393 19.6625L287.562 15.6246L288.909 27.6944L290.258 39.7649C290.962 46.0723 289.043 52.0682 285.37 56.6633C281.699 61.2584 276.273 64.4526 269.966 65.1575Z" fill="#FFAECF"/>
<path d="M296.792 42.3926C286.992 43.4868 278.16 36.4294 277.065 26.6287L274.851 6.79551C284.652 5.7008 293.483 12.7586 294.579 22.5601L296.792 42.3926Z" fill="#17334C"/>
<path d="M292.176 51.5522C287.073 52.1217 282.473 48.4464 281.903 43.3427L281.387 38.7225C280.818 33.6188 284.493 29.0197 289.597 28.4495C294.7 27.8792 299.3 31.5553 299.87 36.659L300.386 41.2792C300.955 46.3829 297.28 50.982 292.176 51.5522Z" fill="url(#paint10_linear_301_68867)"/>
<path d="M293.665 45.9133C290.949 46.2167 288.503 44.261 288.199 41.5453L287.925 39.0868C287.622 36.3719 289.577 33.9247 292.292 33.6213C295.007 33.3188 297.455 35.2736 297.758 37.9893L298.033 40.4479C298.336 43.1627 296.38 45.6099 293.665 45.9133Z" fill="url(#paint11_linear_301_68867)"/>
<path opacity="0.4" d="M293.665 45.9133C290.949 46.2167 288.503 44.261 288.199 41.5453L287.925 39.0868C287.622 36.3719 289.577 33.9247 292.292 33.6213C295.007 33.3188 297.455 35.2736 297.758 37.9893L298.033 40.4479C298.336 43.1627 296.38 45.6099 293.665 45.9133Z" fill="#151515"/>
<path d="M290.73 25.8701L250.788 30.3297C243.355 31.1595 236.656 25.8068 235.827 18.3735C234.997 10.9403 240.35 4.24191 247.783 3.41212L271.69 0.742667C280.545 -0.246108 288.526 6.13186 289.515 14.987L290.73 25.8701Z" fill="#17334C"/>
<path d="M270.876 41.0162C271.029 42.372 272.096 43.3652 273.263 43.234C274.43 43.1044 275.254 41.8999 275.101 40.5441C274.949 39.1899 273.882 38.1959 272.716 38.327C271.549 38.4575 270.725 39.6612 270.876 41.0162Z" fill="#162E47"/>
<path d="M277.52 37.037C277.839 37.1287 278.14 36.8229 278.028 36.5106C277.947 36.2826 277.844 36.0669 277.731 35.8568C277.5 35.4456 277.21 35.0643 276.859 34.7309C276.508 34.3968 276.096 34.108 275.626 33.889C275.158 33.67 274.626 33.5223 274.067 33.4899C273.509 33.4542 272.926 33.5418 272.401 33.7454C271.872 33.9474 271.419 34.2718 271.056 34.6401C270.967 34.7342 270.883 34.8315 270.8 34.9272C270.722 35.027 270.653 35.1316 270.585 35.2371C270.441 35.4399 270.344 35.6678 270.245 35.8868C270.154 36.1107 270.092 36.3451 270.038 36.5779C270.037 36.582 270.036 36.5868 270.034 36.5917C269.975 36.9194 270.323 37.1765 270.623 37.0297C270.625 37.0289 270.627 37.0273 270.629 37.0265C270.841 36.9421 271.025 36.8431 271.215 36.7645C271.589 36.6022 271.932 36.4587 272.251 36.3621C272.571 36.2697 272.855 36.195 273.123 36.1675C273.392 36.1391 273.643 36.1334 273.91 36.1472C274.439 36.174 275.053 36.3045 275.761 36.5081C276.3 36.659 276.864 36.848 277.52 37.037Z" fill="#162E47"/>
<path d="M252.001 42.5427C252.152 43.8978 253.22 44.8909 254.386 44.7614C255.554 44.6309 256.376 43.4257 256.225 42.0706C256.074 40.7164 255.005 39.7225 253.839 39.8528C252.672 39.9832 251.849 41.1876 252.001 42.5427Z" fill="#162E47"/>
<path d="M251.004 38.8215C250.773 38.9367 250.499 38.7469 250.539 38.4914C250.578 38.2399 250.642 37.9998 250.717 37.7654C250.853 37.3647 251.038 36.9859 251.274 36.6436C251.51 36.3021 251.798 35.9939 252.137 35.7448C252.475 35.495 252.87 35.3044 253.297 35.2152C253.724 35.1243 254.181 35.143 254.606 35.2744C255.034 35.4042 255.415 35.6532 255.732 35.9517C255.811 36.0287 255.886 36.109 255.959 36.1877C256.029 36.2713 256.093 36.3597 256.157 36.4489C256.288 36.6192 256.385 36.818 256.484 37.0078C256.578 37.2033 256.649 37.4109 256.714 37.6178L256.739 37.711C256.81 37.969 256.552 38.1953 256.305 38.0915C256.133 38.0363 255.982 37.9641 255.827 37.9122C255.522 37.8035 255.244 37.7078 254.988 37.6534C254.732 37.6015 254.506 37.5634 254.297 37.5667C254.087 37.5683 253.894 37.5894 253.689 37.6307C253.284 37.7102 252.825 37.8944 252.301 38.1547C251.901 38.3486 251.488 38.5806 251.004 38.8215Z" fill="#162E47"/>
<path d="M265.823 56.7135C269.027 56.0906 271.191 55.0353 272.539 54.1536C273.864 53.2873 274.236 51.5109 273.369 50.1863C272.502 48.8617 270.727 48.4902 269.402 49.3565C268.408 50.0062 266.123 51.1426 261.993 51.4436C260.415 51.5587 259.228 52.9312 259.343 54.5096C259.458 56.0881 260.832 57.2748 262.41 57.1596C263.659 57.0688 264.794 56.9139 265.823 56.7135Z" fill="#F5FFFF"/>
<path d="M265.823 56.7135C269.027 56.0906 271.191 55.0353 272.539 54.1536C273.864 53.2873 274.236 51.5109 273.369 50.1863C272.502 48.8617 270.727 48.4902 269.402 49.3565C268.408 50.0062 266.123 51.1426 261.993 51.4436C260.415 51.5587 259.228 52.9312 259.343 54.5096C259.458 56.0881 260.832 57.2748 262.41 57.1596C263.659 57.0688 264.794 56.9139 265.823 56.7135Z" stroke="#D86C98" stroke-width="0.91" stroke-miterlimit="10"/>
<path d="M266.507 54.053C264.256 54.7579 261.863 55.1635 259.447 55.0142L259.527 54.2793C261.814 54.663 264.189 54.5211 266.507 54.053Z" fill="#D86C98"/>
<path d="M273.816 51.1751C273.439 51.4866 273.103 51.6569 272.734 51.8516C272.372 52.0357 272.005 52.2012 271.633 52.3496C270.892 52.6522 270.136 52.9036 269.376 53.1291C270.092 52.7885 270.795 52.4251 271.467 52.0195C271.805 51.8183 272.132 51.6042 272.445 51.3779C272.749 51.1581 273.08 50.8961 273.28 50.6657L273.816 51.1751Z" fill="#D86C98"/>
<path d="M296.024 31.718L286.745 32.7539L283.343 2.29605C288.469 1.72303 293.088 5.41485 293.66 10.5402L296.024 31.718Z" fill="url(#paint12_linear_301_68867)"/>
<path d="M312.99 152.453L291.291 146.45V136.099C291.291 133.113 293.711 130.692 296.697 130.692H312.99C316.798 130.692 319.886 133.78 319.886 137.589V145.557C319.886 149.366 316.798 152.453 312.99 152.453Z" fill="url(#paint13_linear_301_68867)"/>
<path d="M305.028 151.996C299.472 151.996 294.971 147.493 294.971 141.939L294.187 101.431C294.187 91.8876 301.923 84.1518 311.466 84.1518C313.031 84.1518 314.302 85.4221 314.302 86.9884L315.085 141.939C315.085 147.493 310.583 151.996 305.028 151.996Z" fill="url(#paint14_linear_301_68867)"/>
<path d="M294.187 162.456C293.682 155.108 293.417 147.763 293.237 140.415C293.124 136.743 293.1 133.069 293.034 129.396L292.966 118.376L293.03 107.356L293.117 101.846C293.154 99.9495 293.398 97.9638 294.022 96.1315C295.254 92.4554 297.664 89.2052 300.829 87.0841C302.41 86.0369 304.12 85.1738 305.944 84.7091C307.757 84.2248 309.627 84.0504 311.466 84.1526C309.628 84.3084 307.839 84.7107 306.156 85.3523C304.467 85.985 302.92 86.9332 301.544 88.0477C298.751 90.2483 296.801 93.3606 295.846 96.6855C295.382 98.3743 295.255 100.074 295.257 101.846L295.344 107.356L295.408 118.376L295.341 129.396C295.274 133.069 295.249 136.743 295.136 140.415C294.957 147.763 294.692 155.108 294.187 162.456Z" fill="url(#paint15_linear_301_68867)"/>
<path d="M294.187 162.456C293.682 155.108 293.417 147.763 293.237 140.415C293.124 136.743 293.1 133.069 293.034 129.396L292.966 118.376L293.03 107.356L293.117 101.846C293.154 99.9495 293.398 97.9638 294.022 96.1315C295.254 92.4554 297.664 89.2052 300.829 87.0841C302.41 86.0369 304.12 85.1738 305.944 84.7091C307.757 84.2248 309.627 84.0504 311.466 84.1526C309.628 84.3084 307.839 84.7107 306.156 85.3523C304.467 85.985 302.92 86.9332 301.544 88.0477C298.751 90.2483 296.801 93.3606 295.846 96.6855C295.382 98.3743 295.255 100.074 295.257 101.846L295.344 107.356L295.408 118.376L295.341 129.396C295.274 133.069 295.249 136.743 295.136 140.415C294.957 147.763 294.692 155.108 294.187 162.456Z" fill="black" fill-opacity="0.4"/>
<path d="M298.644 163.307C293.39 162.073 290.133 156.813 291.367 151.56L293.803 140.738C295.039 135.486 300.298 132.228 305.551 133.463C310.804 134.697 314.062 139.957 312.827 145.209L310.391 156.031C309.156 161.284 303.897 164.541 298.644 163.307Z" fill="#FFAECF"/>
<path d="M247.1 161.074L247.647 145.714L301.551 147.636C305.792 147.787 309.108 151.349 308.957 155.589C308.805 159.832 305.245 163.147 301.003 162.996L247.1 161.074Z" fill="#FFAECF"/>
<path d="M243.132 147.234C243.505 145.668 242.538 144.099 240.972 143.727L231.277 141.393C229.711 141.021 228.141 141.987 227.769 143.553C227.397 145.118 228.363 146.688 229.929 147.06L239.625 149.394C241.19 149.766 242.76 148.799 243.132 147.234Z" fill="#EC9EBE"/>
<path d="M223.12 148.773C223.964 150.143 225.758 150.57 227.127 149.726L232.032 146.685C233.402 145.841 233.829 144.047 232.985 142.676C232.141 141.307 230.347 140.88 228.978 141.724L224.073 144.766C222.703 145.61 222.276 147.404 223.12 148.773Z" fill="#EC9EBE"/>
<path d="M221.732 155.992C222.828 157.169 224.671 157.234 225.848 156.139L230.059 152.192C231.236 151.096 231.302 149.252 230.206 148.074C229.11 146.897 227.266 146.832 226.089 147.928L221.878 151.875C220.701 152.971 220.635 154.815 221.732 155.992Z" fill="#FFAECF"/>
<path d="M241.051 150.549C241.108 148.942 239.851 147.592 238.243 147.534L228.278 147.153C226.67 147.095 225.32 148.352 225.263 149.959C225.206 151.567 226.463 152.918 228.071 152.974L238.036 153.356C239.644 153.414 240.994 152.157 241.051 150.549Z" fill="#FFAECF"/>
<path d="M220.896 158.914C221.993 160.091 223.835 160.157 225.012 159.061L229.224 155.113C230.401 154.017 230.466 152.174 229.37 150.997C228.274 149.82 226.43 149.754 225.253 150.851L221.043 154.797C219.865 155.893 219.799 157.737 220.896 158.914Z" fill="#FFAECF"/>
<path d="M240.215 153.472C240.272 151.864 239.015 150.514 237.407 150.457L227.443 150.075C225.834 150.017 224.484 151.274 224.428 152.881C224.37 154.49 225.627 155.839 227.235 155.896L237.2 156.279C238.808 156.336 240.158 155.079 240.215 153.472Z" fill="#FFAECF"/>
<path d="M249.237 159.864C253.33 156.053 253.559 149.646 249.748 145.553C245.937 141.46 239.529 141.231 235.436 145.043C231.343 148.854 231.116 155.26 234.926 159.353C238.737 163.446 245.145 163.674 249.237 159.864Z" fill="#FFAECF"/>
<path d="M241.207 156.823C240.861 155.252 239.308 154.258 237.737 154.604L227.991 156.718C226.42 157.063 225.425 158.617 225.771 160.188C226.116 161.759 227.67 162.753 229.241 162.408L238.987 160.293C240.558 159.949 241.552 158.394 241.207 156.823Z" fill="#FFAECF"/>
<path d="M223.854 166.911C225.209 167.777 227.011 167.381 227.877 166.026L230.971 161.154C231.838 159.799 231.442 157.998 230.088 157.131C228.733 156.264 226.931 156.659 226.064 158.015L222.969 162.887C222.103 164.242 222.499 166.043 223.854 166.911Z" fill="#FFAECF"/>
<path d="M310.986 152.266L290.483 147.915C288.55 147.504 287.421 145.484 288.087 143.624L290.965 135.563C291.498 134.073 292.909 133.08 294.489 133.08H317.066V146.186C317.066 149.545 314.344 152.266 310.986 152.266Z" fill="url(#paint16_linear_301_68867)"/>
<path d="M347.991 67.8157C347.991 72.1447 344.482 75.6545 340.152 75.6545C335.823 75.6545 332.314 72.1447 332.314 67.8157C332.314 63.4866 335.823 59.9768 340.152 59.9768C344.482 59.9768 347.991 63.4866 347.991 67.8157Z" fill="#F5FFFF"/>
<path d="M364.2 72.504H316.103V63.906C316.103 55.7086 322.748 49.0646 330.945 49.0646H349.358C357.555 49.0646 364.2 55.7086 364.2 63.906V72.504Z" fill="url(#paint17_linear_301_68867)"/>
<path d="M364.2 72.504H316.103V63.906C316.103 55.7086 322.748 49.0646 330.945 49.0646H349.358C357.555 49.0646 364.2 55.7086 364.2 63.906V72.504Z" fill="#151515" fill-opacity="0.4"/>
<path d="M364.2 72.504H330.106V63.906C330.106 55.7086 336.751 49.0646 344.948 49.0646H349.358C357.556 49.0646 364.2 55.7086 364.2 63.906V72.504Z" fill="url(#paint18_linear_301_68867)"/>
<path d="M361.494 67.8666C361.494 70.2197 359.586 72.1283 357.232 72.1283C354.878 72.1283 352.969 70.2197 352.969 67.8666C352.969 65.5127 354.878 63.6049 357.232 63.6049C359.586 63.6049 361.494 65.5127 361.494 67.8666Z" fill="#274964"/>
<path d="M371.572 153.962L408.97 100.623C409.646 99.6592 410.975 99.4264 411.939 100.102C412.903 100.778 413.136 102.106 412.46 103.07L375.061 156.41C374.386 157.373 373.057 157.606 372.093 156.93C371.13 156.255 370.896 154.926 371.572 153.962Z" fill="#6287A7"/>
<path d="M359.72 66.3678L413.061 103.766C414.024 104.442 414.257 105.771 413.582 106.735C412.906 107.698 411.577 107.931 410.614 107.256L357.274 69.8573C356.31 69.1816 356.077 67.8522 356.753 66.8894C357.428 65.9249 358.758 65.6921 359.72 66.3678Z" fill="#6287A7"/>
<path d="M378.22 156.778H367.457V156.044C367.457 155.047 368.266 154.239 369.262 154.239H376.415C377.412 154.239 378.22 155.047 378.22 156.044V156.778Z" fill="#274964"/>
<path d="M387.551 162.893H358.127V161.018C358.127 158.476 360.189 156.415 362.731 156.415H382.947C385.49 156.415 387.551 158.476 387.551 161.018V162.893Z" fill="url(#paint19_linear_301_68867)"/>
<path d="M415.071 104.945C415.071 109.293 411.546 112.818 407.197 112.818C402.849 112.818 399.323 109.293 399.323 104.945C399.323 100.596 402.849 97.07 407.197 97.07C411.546 97.07 415.071 100.596 415.071 104.945Z" fill="#274964"/>
<path d="M409.573 104.944C409.573 106.257 408.509 107.321 407.197 107.321C405.884 107.321 404.82 106.257 404.82 104.944C404.82 103.631 405.884 102.568 407.197 102.568C408.509 102.568 409.573 103.631 409.573 104.944Z" fill="#6287A7"/>
<path d="M402.337 183.138H51.0798C47.428 183.138 44.469 180.178 44.469 176.526V169.013C44.469 165.361 47.428 162.401 51.0798 162.401H402.337C405.988 162.401 408.948 165.361 408.948 169.013V176.526C408.948 180.178 405.988 183.138 402.337 183.138Z" fill="#17334C"/>
<path d="M44.4688 171.45V167.693C44.4688 165.867 45.2085 164.215 46.4049 163.018C47.6014 161.822 49.2536 161.082 51.0795 161.082H402.336C404.162 161.082 405.815 161.822 407.012 163.018C408.209 164.215 408.949 165.867 408.949 167.693V171.45H44.4688Z" fill="#6287A7"/>
<path d="M304.125 183.138H51.0798C47.428 183.138 44.469 180.178 44.469 176.526V169.013C44.469 165.361 47.428 162.401 51.0798 162.401H304.125C307.777 162.401 310.736 165.361 310.736 169.013V176.526C310.736 180.178 307.777 183.138 304.125 183.138Z" fill="#17334C"/>
<path d="M40.8472 133.323L75.2519 161.986L83.1962 159.903L44.0022 127.457L40.8472 133.323Z" fill="url(#paint20_linear_301_68867)"/>
<path opacity="0.2" d="M40.8472 133.323L75.2519 161.986L83.1962 159.903L44.0022 127.457L40.8472 133.323Z" fill="#151515"/>
<path d="M43.7986 127.587L82.9932 160.033L111.866 154.169L72.6713 124.05L43.7986 127.587Z" fill="url(#paint21_linear_301_68867)"/>
<path opacity="0.4" d="M43.7986 127.587L82.9932 160.033L111.866 154.169L72.6713 124.05L43.7986 127.587Z" fill="#151515"/>
<path d="M40.8474 133.322L44.0017 127.458L72.6709 124.05L69.5185 131.467L40.8474 133.322Z" fill="url(#paint22_linear_301_68867)"/>
<path d="M69.5177 131.467L107.687 160.034L111.866 154.168L72.6719 124.05L69.5177 131.467Z" fill="url(#paint23_linear_301_68867)"/>
<path opacity="0.3" d="M69.5177 131.467L107.687 160.034L111.866 154.168L72.6719 124.05L69.5177 131.467Z" fill="#151515"/>
<path d="M56.0934 153.965C56.0642 154.128 56.0431 154.295 56.0431 154.467C56.0431 156.01 57.2938 157.262 58.8382 157.262C60.3818 157.262 61.6334 156.01 61.6334 154.467C61.6334 154.295 61.6131 154.128 61.5831 153.965H111.951V162.28H43.7146V153.965H56.0934Z" fill="url(#paint24_linear_301_68867)"/>
<path opacity="0.5" d="M56.0934 153.965C56.0642 154.128 56.0431 154.295 56.0431 154.467C56.0431 156.01 57.2938 157.262 58.8382 157.262C60.3818 157.262 61.6334 156.01 61.6334 154.467C61.6334 154.295 61.6131 154.128 61.5831 153.965H111.951V162.28H43.7146V153.965H56.0934Z" fill="#151515"/>
<path d="M56.0934 153.965C56.0642 154.128 56.0431 154.295 56.0431 154.467C56.0431 156.01 57.2938 157.262 58.8382 157.262C60.3818 157.262 61.6334 156.01 61.6334 154.467C61.6334 154.295 61.6131 154.128 61.5831 153.965H73.8191V162.28H43.7146V153.965H56.0934Z" fill="url(#paint25_linear_301_68867)"/>
<path d="M94.2119 154.404L81.2256 166.571C80.6878 167.075 79.8061 166.708 79.7859 165.971L79.4346 153.571C79.4217 153.082 79.8175 152.682 80.305 152.69L93.6417 152.925C94.4098 152.938 94.7724 153.88 94.2119 154.404Z" fill="url(#paint26_linear_301_68867)"/>
<path d="M79.5344 157.106C79.7664 157.028 80.0106 156.976 80.2693 156.976C81.5363 156.976 82.5624 158.002 82.5624 159.269C82.5624 160.536 81.5363 161.563 80.2693 161.563C80.0568 161.563 79.854 161.524 79.6577 161.469L79.5344 157.106Z" fill="url(#paint27_linear_301_68867)"/>
<path d="M90.3043 153.535C90.3043 154.802 89.2766 155.829 88.0104 155.829C86.7434 155.829 85.7173 154.802 85.7173 153.535C85.7173 153.272 85.77 153.023 85.8519 152.788L90.1923 152.864C90.258 153.078 90.3043 153.3 90.3043 153.535Z" fill="url(#paint28_linear_301_68867)"/>
<path d="M131.067 122.598H126.941C125.875 122.598 125.01 121.734 125.01 120.668V116.542C125.01 115.476 125.875 114.612 126.941 114.612H131.067C132.132 114.612 132.996 115.476 132.996 116.542V120.668C132.996 121.734 132.132 122.598 131.067 122.598Z" fill="#17334C"/>
<path d="M129.003 118.605V182.967" stroke="#162E47" stroke-width="3.58" stroke-miterlimit="10"/>
<path d="M210.314 182.967V159.889C210.314 156.334 213.195 153.453 216.75 153.453H221.042" stroke="#162E47" stroke-width="3.58" stroke-miterlimit="10"/>
<path d="M557.681 163.409C557.681 163.818 557.349 164.15 556.94 164.15H554.821C554.411 164.15 554.079 163.818 554.079 163.409C554.079 162.999 554.411 162.668 554.821 162.668H556.94C557.349 162.668 557.681 162.999 557.681 163.409ZM565.093 163.409C565.093 163.818 564.761 164.15 564.352 164.15H560.646C560.237 164.15 559.905 163.818 559.905 163.409C559.905 162.999 560.237 162.668 560.646 162.668H564.352C564.761 162.668 565.093 162.999 565.093 163.409ZM572.505 163.409C572.505 163.818 572.173 164.15 571.764 164.15H568.058C567.649 164.15 567.317 163.818 567.317 163.409C567.317 162.999 567.649 162.668 568.058 162.668H571.764C572.173 162.668 572.505 162.999 572.505 163.409Z" fill="white"/>
<path d="M613.983 165.626C613.574 165.626 613.242 165.958 613.242 166.367V168.086C613.242 168.496 613.574 168.827 613.983 168.827C614.392 168.827 614.724 168.496 614.724 168.086V166.367C614.724 165.958 614.392 165.626 613.983 165.626Z" fill="white"/>
<path d="M617.642 163.901H615.922C615.513 163.901 615.181 164.233 615.181 164.642C615.181 165.052 615.513 165.383 615.922 165.383H617.642C618.051 165.383 618.383 165.052 618.383 164.642C618.383 164.233 618.051 163.901 617.642 163.901Z" fill="white"/>
<path d="M613.983 160.339C613.574 160.339 613.242 160.671 613.242 161.08V162.798C613.242 163.208 613.574 163.54 613.983 163.54C614.392 163.54 614.724 163.208 614.724 162.798V161.08C614.724 160.671 614.392 160.339 613.983 160.339Z" fill="white"/>
<path d="M612.042 163.783H610.323C609.913 163.783 609.582 164.115 609.582 164.524C609.582 164.933 609.913 165.265 610.323 165.265H612.042C612.452 165.265 612.783 164.933 612.783 164.524C612.783 164.115 612.452 163.783 612.042 163.783Z" fill="white"/>
<path d="M551.295 121.573C550.886 121.573 550.555 121.905 550.555 122.314V124.033C550.555 124.443 550.886 124.775 551.295 124.775C551.705 124.775 552.036 124.443 552.036 124.033V122.314C552.036 121.905 551.705 121.573 551.295 121.573Z" fill="white"/>
<path d="M554.955 119.848H553.235C552.826 119.848 552.494 120.18 552.494 120.589C552.494 120.998 552.826 121.33 553.235 121.33H554.955C555.364 121.33 555.696 120.998 555.696 120.589C555.696 120.18 555.364 119.848 554.955 119.848Z" fill="white"/>
<path d="M551.295 116.286C550.886 116.286 550.555 116.618 550.555 117.027V118.745C550.555 119.155 550.886 119.487 551.295 119.487C551.705 119.487 552.036 119.155 552.036 118.745V117.027C552.036 116.618 551.705 116.286 551.295 116.286Z" fill="white"/>
<path d="M549.356 119.73H547.636C547.227 119.73 546.895 120.062 546.895 120.471C546.895 120.88 547.227 121.212 547.636 121.212H549.356C549.765 121.212 550.097 120.88 550.097 120.471C550.097 120.062 549.765 119.73 549.356 119.73Z" fill="white"/>
<path d="M806.618 101.309C806.618 100.476 805.941 99.7997 805.11 99.7997C804.277 99.7997 803.599 100.476 803.599 101.309C803.599 102.141 804.277 102.818 805.11 102.818C805.941 102.818 806.618 102.141 806.618 101.309ZM808.1 101.309C808.1 102.958 806.759 104.3 805.11 104.3C803.46 104.3 802.118 102.958 802.118 101.309C802.118 99.6587 803.46 98.3167 805.11 98.3167C806.759 98.3167 808.1 99.6587 808.1 101.309Z" fill="white"/>
<path d="M890.714 109.874C890.305 109.874 889.973 110.206 889.973 110.615V112.334C889.973 112.744 890.305 113.075 890.714 113.075C891.124 113.075 891.455 112.744 891.455 112.334V110.615C891.455 110.206 891.124 109.874 890.714 109.874Z" fill="white"/>
<path d="M888.773 108.149H887.053C886.644 108.149 886.312 108.481 886.312 108.89C886.312 109.299 886.644 109.631 887.053 109.631H888.773C889.182 109.631 889.514 109.299 889.514 108.89C889.514 108.481 889.182 108.149 888.773 108.149Z" fill="white"/>
<path d="M890.714 104.588C890.305 104.588 889.973 104.92 889.973 105.329V107.047C889.973 107.457 890.305 107.789 890.714 107.789C891.124 107.789 891.455 107.457 891.455 107.047V105.329C891.455 104.92 891.124 104.588 890.714 104.588Z" fill="white"/>
<path d="M894.373 108.03H892.653C892.244 108.03 891.912 108.362 891.912 108.771C891.912 109.18 892.244 109.512 892.653 109.512H894.373C894.782 109.512 895.114 109.18 895.114 108.771C895.114 108.362 894.782 108.03 894.373 108.03Z" fill="white"/>
<path d="M1010.71 159.874C1010.3 159.874 1009.97 160.206 1009.97 160.615V162.334C1009.97 162.744 1010.3 163.075 1010.71 163.075C1011.12 163.075 1011.45 162.744 1011.45 162.334V160.615C1011.45 160.206 1011.12 159.874 1010.71 159.874Z" fill="white"/>
<path d="M1008.77 158.149H1007.05C1006.64 158.149 1006.31 158.481 1006.31 158.89C1006.31 159.299 1006.64 159.631 1007.05 159.631H1008.77C1009.18 159.631 1009.51 159.299 1009.51 158.89C1009.51 158.481 1009.18 158.149 1008.77 158.149Z" fill="white"/>
<path d="M1010.71 154.588C1010.3 154.588 1009.97 154.92 1009.97 155.329V157.047C1009.97 157.457 1010.3 157.789 1010.71 157.789C1011.12 157.789 1011.45 157.457 1011.45 157.047V155.329C1011.45 154.92 1011.12 154.588 1010.71 154.588Z" fill="white"/>
<path d="M1014.37 158.03H1012.65C1012.24 158.03 1011.91 158.362 1011.91 158.771C1011.91 159.18 1012.24 159.512 1012.65 159.512H1014.37C1014.78 159.512 1015.11 159.18 1015.11 158.771C1015.11 158.362 1014.78 158.03 1014.37 158.03Z" fill="white"/>
<path d="M717.266 97.6663H700.324C699.913 97.6663 699.582 97.9983 699.582 98.4073C699.582 98.8163 699.913 99.1483 700.324 99.1483H717.266C717.675 99.1483 718.007 98.8163 718.007 98.4073C718.007 97.9983 717.675 97.6663 717.266 97.6663Z" fill="white"/>
<path d="M694.931 97.6633H691.62C691.21 97.6633 690.879 97.9953 690.879 98.4043C690.879 98.8133 691.21 99.1453 691.62 99.1453H694.931C695.34 99.1453 695.672 98.8133 695.672 98.4043C695.672 97.9953 695.34 97.6633 694.931 97.6633Z" fill="white"/>
<path d="M696.069 103.57C696.069 103.979 695.737 104.311 695.328 104.311H691.622C691.213 104.311 690.881 103.979 690.881 103.57C690.881 103.161 691.213 102.829 691.622 102.829H695.328C695.737 102.829 696.069 103.161 696.069 103.57ZM703.481 103.57C703.481 103.979 703.149 104.311 702.74 104.311H699.034C698.625 104.311 698.293 103.979 698.293 103.57C698.293 103.161 698.625 102.829 699.034 102.829H702.74C703.149 102.829 703.481 103.161 703.481 103.57ZM709.306 103.57C709.306 103.979 708.974 104.311 708.565 104.311H706.446C706.036 104.311 705.705 103.979 705.705 103.57C705.705 103.161 706.036 102.829 706.446 102.829H708.565C708.974 102.829 709.306 103.161 709.306 103.57Z" fill="white"/>
<path d="M740.43 112.956C740.021 112.956 739.689 113.288 739.689 113.697V115.417C739.689 115.827 740.021 116.158 740.43 116.158C740.839 116.158 741.171 115.827 741.171 115.417V113.697C741.171 113.288 740.839 112.956 740.43 112.956Z" fill="white"/>
<path d="M738.49 111.232H736.771C736.361 111.232 736.03 111.564 736.03 111.973C736.03 112.383 736.361 112.714 736.771 112.714H738.49C738.899 112.714 739.231 112.383 739.231 111.973C739.231 111.564 738.899 111.232 738.49 111.232Z" fill="white"/>
<path d="M740.43 107.669C740.021 107.669 739.689 108.001 739.689 108.41V110.128C739.689 110.538 740.021 110.87 740.43 110.87C740.839 110.87 741.171 110.538 741.171 110.128V108.41C741.171 108.001 740.839 107.669 740.43 107.669Z" fill="white"/>
<path d="M744.09 111.113H742.37C741.961 111.113 741.629 111.445 741.629 111.854C741.629 112.263 741.961 112.595 742.37 112.595H744.09C744.499 112.595 744.831 112.263 744.831 111.854C744.831 111.445 744.499 111.113 744.09 111.113Z" fill="white"/>
<path d="M881.465 149.436C881.465 150.882 882.637 152.054 884.083 152.054C885.528 152.054 886.7 150.882 886.7 149.436C886.7 147.991 885.528 146.819 884.083 146.819C882.637 146.819 881.465 147.991 881.465 149.436Z" fill="#FFFFFB"/>
<path d="M663.065 83.2586C663.065 84.7056 664.237 85.8776 665.682 85.8776C667.127 85.8776 668.299 84.7056 668.299 83.2586C668.299 81.8146 667.127 80.6416 665.682 80.6416C664.237 80.6416 663.065 81.8146 663.065 83.2586Z" fill="#FFFFFB"/>
<path d="M843.554 96.057H860.496C860.906 96.057 861.238 95.725 861.238 95.316C861.238 94.907 860.906 94.575 860.496 94.575H843.554C843.144 94.575 842.813 94.907 842.813 95.316C842.813 95.725 843.144 96.057 843.554 96.057Z" fill="white"/>
<path d="M865.889 96.0599H869.2C869.609 96.0599 869.941 95.7279 869.941 95.3189C869.941 94.9099 869.609 94.5779 869.2 94.5779H865.889C865.48 94.5779 865.148 94.9099 865.148 95.3189C865.148 95.7279 865.48 96.0599 865.889 96.0599Z" fill="white"/>
<path d="M864.753 90.1536C864.753 89.7446 865.085 89.4126 865.494 89.4126H869.2C869.609 89.4126 869.941 89.7446 869.941 90.1536C869.941 90.5626 869.609 90.8946 869.2 90.8946H865.494C865.085 90.8946 864.753 90.5626 864.753 90.1536ZM857.341 90.1536C857.341 89.7446 857.673 89.4126 858.082 89.4126H861.788C862.197 89.4126 862.529 89.7446 862.529 90.1536C862.529 90.5626 862.197 90.8946 861.788 90.8946H858.082C857.673 90.8946 857.341 90.5626 857.341 90.1536ZM851.516 90.1536C851.516 89.7446 851.848 89.4126 852.257 89.4126H854.376C854.785 89.4126 855.117 89.7446 855.117 90.1536C855.117 90.5626 854.785 90.8946 854.376 90.8946H852.257C851.848 90.8946 851.516 90.5626 851.516 90.1536Z" fill="white"/>
<path d="M943.554 173.057H960.496C960.906 173.057 961.238 172.725 961.238 172.316C961.238 171.907 960.906 171.575 960.496 171.575H943.554C943.144 171.575 942.813 171.907 942.813 172.316C942.813 172.725 943.144 173.057 943.554 173.057Z" fill="white"/>
<path d="M965.889 173.06H969.2C969.609 173.06 969.941 172.728 969.941 172.319C969.941 171.91 969.609 171.578 969.2 171.578H965.889C965.48 171.578 965.148 171.91 965.148 172.319C965.148 172.728 965.48 173.06 965.889 173.06Z" fill="white"/>
<path d="M964.753 167.154C964.753 166.745 965.085 166.413 965.494 166.413H969.2C969.609 166.413 969.941 166.745 969.941 167.154C969.941 167.563 969.609 167.895 969.2 167.895H965.494C965.085 167.895 964.753 167.563 964.753 167.154ZM957.341 167.154C957.341 166.745 957.673 166.413 958.082 166.413H961.788C962.197 166.413 962.529 166.745 962.529 167.154C962.529 167.563 962.197 167.895 961.788 167.895H958.082C957.673 167.895 957.341 167.563 957.341 167.154ZM951.516 167.154C951.516 166.745 951.848 166.413 952.257 166.413H954.376C954.785 166.413 955.117 166.745 955.117 167.154C955.117 167.563 954.785 167.895 954.376 167.895H952.257C951.848 167.895 951.516 167.563 951.516 167.154Z" fill="white"/>
<path d="M830.39 170.767C830.8 170.767 831.131 170.435 831.131 170.026V168.306C831.131 167.896 830.8 167.565 830.39 167.565C829.981 167.565 829.65 167.896 829.65 168.306V170.026C829.65 170.435 829.981 170.767 830.39 170.767Z" fill="white"/>
<path d="M832.331 172.492H834.05C834.459 172.492 834.791 172.16 834.791 171.751C834.791 171.342 834.459 171.01 834.05 171.01H832.331C831.922 171.01 831.59 171.342 831.59 171.751C831.59 172.16 831.922 172.492 832.331 172.492Z" fill="white"/>
<path d="M830.39 176.054C830.8 176.054 831.131 175.722 831.131 175.313V173.595C831.131 173.185 830.8 172.853 830.39 172.853C829.981 172.853 829.65 173.185 829.65 173.595V175.313C829.65 175.722 829.981 176.054 830.39 176.054Z" fill="white"/>
<path d="M826.731 172.61H828.45C828.86 172.61 829.191 172.278 829.191 171.869C829.191 171.46 828.86 171.128 828.45 171.128H826.731C826.322 171.128 825.99 171.46 825.99 171.869C825.99 172.278 826.322 172.61 826.731 172.61Z" fill="white"/>
<path d="M525.444 106.878H542.387C542.797 106.878 543.129 106.546 543.129 106.137C543.129 105.728 542.797 105.396 542.387 105.396H525.444C525.035 105.396 524.703 105.728 524.703 106.137C524.703 106.546 525.035 106.878 525.444 106.878Z" fill="white"/>
<path d="M516.741 106.88H520.052C520.461 106.88 520.793 106.548 520.793 106.139C520.793 105.73 520.461 105.398 520.052 105.398H516.741C516.332 105.398 516 105.73 516 106.139C516 106.548 516.332 106.88 516.741 106.88Z" fill="white"/>
<path d="M455.444 166.878H472.387C472.797 166.878 473.129 166.546 473.129 166.137C473.129 165.728 472.797 165.396 472.387 165.396H455.444C455.035 165.396 454.703 165.728 454.703 166.137C454.703 166.546 455.035 166.878 455.444 166.878Z" fill="white"/>
<path d="M446.741 166.88H450.052C450.461 166.88 450.793 166.548 450.793 166.139C450.793 165.73 450.461 165.398 450.052 165.398H446.741C446.332 165.398 446 165.73 446 166.139C446 166.548 446.332 166.88 446.741 166.88Z" fill="white"/>
<path d="M751.263 165.53H763.151V173.097H751.263V165.53Z" fill="white"/>
<path d="M753.43 172.64C751.179 175.088 748.063 175.667 746.468 173.933C744.873 172.199 745.407 168.808 747.658 166.36C749.909 163.912 753.024 163.332 754.618 165.066C756.212 166.801 755.68 170.191 753.43 172.64Z" fill="white"/>
<path d="M766.758 166.36C769.009 168.808 769.541 172.199 767.947 173.935C766.353 175.668 763.237 175.089 760.987 172.64C758.735 170.192 758.202 166.8 759.796 165.066C761.391 163.332 764.507 163.911 766.758 166.36Z" fill="white"/>
<path d="M750.003 171.916C749.518 171.916 749.125 171.523 749.125 171.038V167.963C749.125 167.478 749.518 167.084 750.003 167.084C750.488 167.084 750.882 167.478 750.882 167.963V171.038C750.882 171.523 750.488 171.916 750.003 171.916Z" fill="#162E47"/>
<path d="M747.588 169.5C747.588 169.015 747.982 168.621 748.467 168.621H751.541C752.026 168.621 752.42 169.015 752.42 169.5C752.42 169.985 752.026 170.378 751.541 170.378H748.467C747.982 170.378 747.588 169.985 747.588 169.5Z" fill="#162E47"/>
<path d="M764.414 171.099C763.929 171.099 763.535 170.705 763.535 170.22C763.535 169.735 763.929 169.342 764.414 169.342C764.898 169.342 765.292 169.735 765.292 170.22C765.292 170.705 764.898 171.099 764.414 171.099Z" fill="#162E47"/>
<path d="M764.414 168.028C763.929 168.028 763.535 167.634 763.535 167.15C763.535 166.664 763.929 166.271 764.414 166.271C764.898 166.271 765.292 166.664 765.292 167.15C765.292 167.634 764.898 168.028 764.414 168.028Z" fill="#162E47"/>
<path d="M762 168.684C762 168.199 762.393 167.806 762.878 167.806C763.363 167.806 763.757 168.199 763.757 168.684C763.757 169.169 763.363 169.563 762.878 169.563C762.393 169.563 762 169.169 762 168.684Z" fill="#162E47"/>
<path d="M765.07 168.684C765.07 168.199 765.464 167.806 765.95 167.806C766.435 167.806 766.828 168.199 766.828 168.684C766.828 169.17 766.435 169.564 765.95 169.564C765.464 169.564 765.07 169.17 765.07 168.684Z" fill="#162E47"/>
<path d="M941.263 105.53H953.151V113.097H941.263V105.53Z" fill="white"/>
<path d="M943.43 112.64C941.179 115.088 938.063 115.667 936.468 113.933C934.873 112.199 935.407 108.808 937.658 106.36C939.909 103.912 943.024 103.332 944.618 105.066C946.212 106.801 945.68 110.191 943.43 112.64Z" fill="white"/>
<path d="M956.758 106.36C959.009 108.808 959.541 112.199 957.947 113.935C956.353 115.668 953.237 115.089 950.987 112.64C948.735 110.192 948.202 106.8 949.796 105.066C951.391 103.332 954.507 103.911 956.758 106.36Z" fill="white"/>
<path d="M940.003 111.916C939.518 111.916 939.125 111.523 939.125 111.038V107.963C939.125 107.478 939.518 107.084 940.003 107.084C940.488 107.084 940.882 107.478 940.882 107.963V111.038C940.882 111.523 940.488 111.916 940.003 111.916Z" fill="#162E47"/>
<path d="M937.588 109.5C937.588 109.015 937.982 108.621 938.467 108.621H941.541C942.026 108.621 942.42 109.015 942.42 109.5C942.42 109.985 942.026 110.378 941.541 110.378H938.467C937.982 110.378 937.588 109.985 937.588 109.5Z" fill="#162E47"/>
<path d="M954.414 111.099C953.929 111.099 953.535 110.705 953.535 110.22C953.535 109.735 953.929 109.342 954.414 109.342C954.898 109.342 955.292 109.735 955.292 110.22C955.292 110.705 954.898 111.099 954.414 111.099Z" fill="#162E47"/>
<path d="M954.414 108.028C953.929 108.028 953.535 107.634 953.535 107.15C953.535 106.664 953.929 106.271 954.414 106.271C954.898 106.271 955.292 106.664 955.292 107.15C955.292 107.634 954.898 108.028 954.414 108.028Z" fill="#162E47"/>
<path d="M952 108.684C952 108.199 952.393 107.806 952.878 107.806C953.363 107.806 953.757 108.199 953.757 108.684C953.757 109.169 953.363 109.563 952.878 109.563C952.393 109.563 952 109.169 952 108.684Z" fill="#162E47"/>
<path d="M955.07 108.684C955.07 108.199 955.464 107.806 955.95 107.806C956.435 107.806 956.828 108.199 956.828 108.684C956.828 109.17 956.435 109.564 955.95 109.564C955.464 109.564 955.07 109.17 955.07 108.684Z" fill="#162E47"/>
<path d="M597.896 98.0056H609.783V105.573H597.896V98.0056Z" fill="white"/>
<path d="M600.062 105.116C597.812 107.565 594.695 108.144 593.101 106.409C591.506 104.675 592.04 101.284 594.289 98.836C596.541 96.3871 599.658 95.8076 601.251 97.5421C602.846 99.2759 602.312 102.667 600.062 105.116Z" fill="white"/>
<path d="M613.39 98.8349C615.64 101.284 616.174 104.674 614.579 106.409C612.986 108.143 609.869 107.564 607.617 105.115C605.368 102.666 604.833 99.2749 606.429 97.5417C608.023 95.8066 611.14 96.386 613.39 98.8349Z" fill="white"/>
<path d="M596.635 104.391C596.15 104.391 595.756 103.998 595.756 103.513V100.438C595.756 99.9526 596.15 99.5586 596.635 99.5586C597.119 99.5586 597.513 99.9526 597.513 100.438V103.513C597.513 103.998 597.119 104.391 596.635 104.391Z" fill="#162E47"/>
<path d="M594.22 101.976C594.22 101.491 594.614 101.098 595.098 101.098H598.173C598.658 101.098 599.051 101.491 599.051 101.976C599.051 102.461 598.658 102.854 598.173 102.854H595.098C594.614 102.854 594.22 102.461 594.22 101.976Z" fill="#162E47"/>
<path d="M611.046 103.574C610.561 103.574 610.168 103.18 610.168 102.696C610.168 102.21 610.561 101.817 611.046 101.817C611.531 101.817 611.925 102.21 611.925 102.696C611.925 103.18 611.531 103.574 611.046 103.574Z" fill="#162E47"/>
<path d="M611.046 100.503C610.561 100.503 610.168 100.109 610.168 99.6246C610.168 99.1386 610.561 98.7456 611.046 98.7456C611.531 98.7456 611.925 99.1386 611.925 99.6246C611.925 100.109 611.531 100.503 611.046 100.503Z" fill="#162E47"/>
<path d="M608.632 101.16C608.632 100.675 609.026 100.282 609.511 100.282C609.995 100.282 610.388 100.675 610.388 101.16C610.388 101.646 609.995 102.039 609.511 102.039C609.026 102.039 608.632 101.646 608.632 101.16Z" fill="#162E47"/>
<path d="M611.703 101.16C611.703 100.675 612.097 100.282 612.582 100.282C613.066 100.282 613.459 100.675 613.459 101.16C613.459 101.646 613.066 102.039 612.582 102.039C612.097 102.039 611.703 101.646 611.703 101.16Z" fill="#162E47"/>
<path d="M472.572 128.415V149.565H466.692V141.075H459.522V149.565H453.642V128.415H459.522V136.365H466.692V128.415H472.572ZM489.916 146.115H482.416L481.276 149.565H475.096L482.806 128.415H489.586L497.266 149.565H491.056L489.916 146.115ZM488.446 141.615L486.166 134.775L483.916 141.615H488.446ZM516.493 135.465C516.493 136.745 516.193 137.915 515.593 138.975C515.013 140.015 514.123 140.855 512.923 141.495C511.743 142.115 510.293 142.425 508.573 142.425H505.663V149.565H499.783V128.415H508.573C510.273 128.415 511.713 128.715 512.893 129.315C514.093 129.915 514.993 130.745 515.593 131.805C516.193 132.865 516.493 134.085 516.493 135.465ZM508.003 137.745C509.663 137.745 510.493 136.985 510.493 135.465C510.493 133.925 509.663 133.155 508.003 133.155H505.663V137.745H508.003ZM536.165 135.465C536.165 136.745 535.865 137.915 535.265 138.975C534.685 140.015 533.795 140.855 532.595 141.495C531.415 142.115 529.965 142.425 528.245 142.425H525.335V149.565H519.455V128.415H528.245C529.945 128.415 531.385 128.715 532.565 129.315C533.765 129.915 534.665 130.745 535.265 131.805C535.865 132.865 536.165 134.085 536.165 135.465ZM527.675 137.745C529.335 137.745 530.165 136.985 530.165 135.465C530.165 133.925 529.335 133.155 527.675 133.155H525.335V137.745H527.675ZM558.357 128.415L550.917 142.845V149.565H545.007V142.845L537.567 128.415H544.287L548.007 136.575L551.727 128.415H558.357ZM586.035 128.415V149.565H580.155V141.075H572.985V149.565H567.105V128.415H572.985V136.365H580.155V128.415H586.035ZM600.14 149.775C598.16 149.775 596.34 149.315 594.68 148.395C593.02 147.455 591.7 146.165 590.72 144.525C589.76 142.865 589.28 140.995 589.28 138.915C589.28 136.835 589.76 134.975 590.72 133.335C591.7 131.675 593.02 130.385 594.68 129.465C596.34 128.545 598.16 128.085 600.14 128.085C602.14 128.085 603.96 128.545 605.6 129.465C607.26 130.385 608.57 131.675 609.53 133.335C610.49 134.975 610.97 136.835 610.97 138.915C610.97 140.995 610.49 142.865 609.53 144.525C608.57 146.165 607.26 147.455 605.6 148.395C603.94 149.315 602.12 149.775 600.14 149.775ZM600.14 144.315C601.64 144.315 602.82 143.825 603.68 142.845C604.56 141.865 605 140.555 605 138.915C605 137.235 604.56 135.915 603.68 134.955C602.82 133.975 601.64 133.485 600.14 133.485C598.62 133.485 597.43 133.975 596.57 134.955C595.71 135.915 595.28 137.235 595.28 138.915C595.28 140.575 595.71 141.895 596.57 142.875C597.43 143.835 598.62 144.315 600.14 144.315ZM619.973 128.415V140.685C619.973 141.825 620.233 142.705 620.753 143.325C621.293 143.945 622.103 144.255 623.183 144.255C624.263 144.255 625.073 143.945 625.613 143.325C626.173 142.685 626.453 141.805 626.453 140.685V128.415H632.333V140.685C632.333 142.625 631.923 144.285 631.103 145.665C630.283 147.025 629.163 148.055 627.743 148.755C626.343 149.435 624.783 149.775 623.063 149.775C621.343 149.775 619.803 149.435 618.443 148.755C617.103 148.055 616.043 147.025 615.263 145.665C614.503 144.305 614.123 142.645 614.123 140.685V128.415H619.973ZM646.88 149.565L642.68 141.765H642.05V149.565H636.17V128.415H645.44C647.14 128.415 648.58 128.715 649.76 129.315C650.94 129.895 651.83 130.705 652.43 131.745C653.03 132.765 653.33 133.915 653.33 135.195C653.33 136.635 652.93 137.905 652.13 139.005C651.35 140.085 650.2 140.855 648.68 141.315L653.45 149.565H646.88ZM642.05 137.745H644.96C645.76 137.745 646.36 137.555 646.76 137.175C647.16 136.795 647.36 136.245 647.36 135.525C647.36 134.845 647.15 134.315 646.73 133.935C646.33 133.535 645.74 133.335 644.96 133.335H642.05V137.745ZM664.584 149.775C662.124 149.775 660.104 149.195 658.524 148.035C656.944 146.855 656.094 145.175 655.974 142.995H662.244C662.304 143.735 662.524 144.275 662.904 144.615C663.284 144.955 663.774 145.125 664.374 145.125C664.914 145.125 665.354 144.995 665.694 144.735C666.054 144.455 666.234 144.075 666.234 143.595C666.234 142.975 665.944 142.495 665.364 142.155C664.784 141.815 663.844 141.435 662.544 141.015C661.164 140.555 660.044 140.115 659.184 139.695C658.344 139.255 657.604 138.625 656.964 137.805C656.344 136.965 656.034 135.875 656.034 134.535C656.034 133.175 656.374 132.015 657.054 131.055C657.734 130.075 658.674 129.335 659.874 128.835C661.074 128.335 662.434 128.085 663.954 128.085C666.414 128.085 668.374 128.665 669.834 129.825C671.314 130.965 672.104 132.575 672.204 134.655H665.814C665.794 134.015 665.594 133.535 665.214 133.215C664.854 132.895 664.384 132.735 663.804 132.735C663.364 132.735 663.004 132.865 662.724 133.125C662.444 133.385 662.304 133.755 662.304 134.235C662.304 134.635 662.454 134.985 662.754 135.285C663.074 135.565 663.464 135.815 663.924 136.035C664.384 136.235 665.064 136.495 665.964 136.815C667.304 137.275 668.404 137.735 669.264 138.195C670.144 138.635 670.894 139.265 671.514 140.085C672.154 140.885 672.474 141.905 672.474 143.145C672.474 144.405 672.154 145.535 671.514 146.535C670.894 147.535 669.984 148.325 668.784 148.905C667.604 149.485 666.204 149.775 664.584 149.775ZM698.86 135.465C698.86 136.745 698.56 137.915 697.96 138.975C697.38 140.015 696.49 140.855 695.29 141.495C694.11 142.115 692.66 142.425 690.94 142.425H688.03V149.565H682.15V128.415H690.94C692.64 128.415 694.08 128.715 695.26 129.315C696.46 129.915 697.36 130.745 697.96 131.805C698.56 132.865 698.86 134.085 698.86 135.465ZM690.37 137.745C692.03 137.745 692.86 136.985 692.86 135.465C692.86 133.925 692.03 133.155 690.37 133.155H688.03V137.745H690.37ZM715.202 146.115H707.702L706.562 149.565H700.382L708.092 128.415H714.872L722.552 149.565H716.342L715.202 146.115ZM713.732 141.615L711.452 134.775L709.202 141.615H713.732ZM724.349 138.945C724.349 136.865 724.779 135.015 725.639 133.395C726.519 131.755 727.759 130.485 729.359 129.585C730.959 128.665 732.799 128.205 734.879 128.205C737.519 128.205 739.739 128.915 741.539 130.335C743.339 131.735 744.499 133.645 745.019 136.065H738.689C738.309 135.265 737.779 134.655 737.099 134.235C736.439 133.815 735.669 133.605 734.789 133.605C733.429 133.605 732.339 134.095 731.519 135.075C730.719 136.035 730.319 137.325 730.319 138.945C730.319 140.585 730.719 141.895 731.519 142.875C732.339 143.835 733.429 144.315 734.789 144.315C735.669 144.315 736.439 144.105 737.099 143.685C737.779 143.265 738.309 142.655 738.689 141.855H745.019C744.499 144.275 743.339 146.195 741.539 147.615C739.739 149.015 737.519 149.715 734.879 149.715C732.799 149.715 730.959 149.265 729.359 148.365C727.759 147.445 726.519 146.175 725.639 144.555C724.779 142.915 724.349 141.045 724.349 138.945ZM760.913 149.565L754.283 140.295V149.565H748.403V128.415H754.283V137.535L760.853 128.415H767.633L759.863 138.675L768.023 149.565H760.913ZM776.393 138.945C776.393 136.865 776.823 135.015 777.683 133.395C778.563 131.755 779.803 130.485 781.403 129.585C783.003 128.665 784.843 128.205 786.923 128.205C789.563 128.205 791.783 128.915 793.583 130.335C795.383 131.735 796.543 133.645 797.063 136.065H790.733C790.353 135.265 789.823 134.655 789.143 134.235C788.483 133.815 787.713 133.605 786.833 133.605C785.473 133.605 784.383 134.095 783.563 135.075C782.763 136.035 782.363 137.325 782.363 138.945C782.363 140.585 782.763 141.895 783.563 142.875C784.383 143.835 785.473 144.315 786.833 144.315C787.713 144.315 788.483 144.105 789.143 143.685C789.823 143.265 790.353 142.655 790.733 141.855H797.063C796.543 144.275 795.383 146.195 793.583 147.615C791.783 149.015 789.563 149.715 786.923 149.715C784.843 149.715 783.003 149.265 781.403 148.365C779.803 147.445 778.563 146.175 777.683 144.555C776.823 142.915 776.393 141.045 776.393 138.945ZM810.587 149.775C808.607 149.775 806.787 149.315 805.127 148.395C803.467 147.455 802.147 146.165 801.167 144.525C800.207 142.865 799.727 140.995 799.727 138.915C799.727 136.835 800.207 134.975 801.167 133.335C802.147 131.675 803.467 130.385 805.127 129.465C806.787 128.545 808.607 128.085 810.587 128.085C812.587 128.085 814.407 128.545 816.047 129.465C817.707 130.385 819.017 131.675 819.977 133.335C820.937 134.975 821.417 136.835 821.417 138.915C821.417 140.995 820.937 142.865 819.977 144.525C819.017 146.165 817.707 147.455 816.047 148.395C814.387 149.315 812.567 149.775 810.587 149.775ZM810.587 144.315C812.087 144.315 813.267 143.825 814.127 142.845C815.007 141.865 815.447 140.555 815.447 138.915C815.447 137.235 815.007 135.915 814.127 134.955C813.267 133.975 812.087 133.485 810.587 133.485C809.067 133.485 807.877 133.975 807.017 134.955C806.157 135.915 805.727 137.235 805.727 138.915C805.727 140.575 806.157 141.895 807.017 142.875C807.877 143.835 809.067 144.315 810.587 144.315ZM849.351 128.415V149.565H843.471V137.895L839.481 149.565H834.561L830.541 137.805V149.565H824.661V128.415H831.771L837.081 142.155L842.271 128.415H849.351ZM859.178 128.415V149.565H853.298V128.415H859.178ZM882.716 149.565H876.836L869.006 137.745V149.565H863.126V128.415H869.006L876.836 140.385V128.415H882.716V149.565ZM900.166 135.375C899.826 134.815 899.356 134.385 898.756 134.085C898.176 133.785 897.486 133.635 896.686 133.635C895.206 133.635 894.036 134.115 893.176 135.075C892.336 136.035 891.916 137.325 891.916 138.945C891.916 140.765 892.366 142.155 893.266 143.115C894.186 144.055 895.516 144.525 897.256 144.525C899.316 144.525 900.786 143.595 901.666 141.735H895.756V137.505H906.736V143.205C906.276 144.325 905.596 145.375 904.696 146.355C903.816 147.335 902.696 148.145 901.336 148.785C899.976 149.405 898.426 149.715 896.686 149.715C894.566 149.715 892.686 149.265 891.046 148.365C889.426 147.445 888.166 146.175 887.266 144.555C886.386 142.915 885.946 141.045 885.946 138.945C885.946 136.865 886.386 135.015 887.266 133.395C888.166 131.755 889.426 130.485 891.046 129.585C892.666 128.665 894.536 128.205 896.656 128.205C899.316 128.205 901.516 128.845 903.256 130.125C904.996 131.405 906.076 133.155 906.496 135.375H900.166ZM924.293 149.775C921.833 149.775 919.813 149.195 918.233 148.035C916.653 146.855 915.803 145.175 915.683 142.995H921.953C922.013 143.735 922.233 144.275 922.613 144.615C922.993 144.955 923.483 145.125 924.083 145.125C924.623 145.125 925.063 144.995 925.403 144.735C925.763 144.455 925.943 144.075 925.943 143.595C925.943 142.975 925.653 142.495 925.073 142.155C924.493 141.815 923.553 141.435 922.253 141.015C920.873 140.555 919.753 140.115 918.893 139.695C918.053 139.255 917.313 138.625 916.673 137.805C916.053 136.965 915.743 135.875 915.743 134.535C915.743 133.175 916.083 132.015 916.763 131.055C917.443 130.075 918.383 129.335 919.583 128.835C920.783 128.335 922.143 128.085 923.663 128.085C926.123 128.085 928.083 128.665 929.543 129.825C931.023 130.965 931.813 132.575 931.913 134.655H925.523C925.503 134.015 925.303 133.535 924.923 133.215C924.563 132.895 924.093 132.735 923.513 132.735C923.073 132.735 922.713 132.865 922.433 133.125C922.153 133.385 922.013 133.755 922.013 134.235C922.013 134.635 922.163 134.985 922.463 135.285C922.783 135.565 923.173 135.815 923.633 136.035C924.093 136.235 924.773 136.495 925.673 136.815C927.013 137.275 928.113 137.735 928.973 138.195C929.853 138.635 930.603 139.265 931.223 140.085C931.863 140.885 932.183 141.905 932.183 143.145C932.183 144.405 931.863 145.535 931.223 146.535C930.603 147.535 929.693 148.325 928.493 148.905C927.313 149.485 925.913 149.775 924.293 149.775ZM945.657 149.775C943.677 149.775 941.857 149.315 940.197 148.395C938.537 147.455 937.217 146.165 936.237 144.525C935.277 142.865 934.797 140.995 934.797 138.915C934.797 136.835 935.277 134.975 936.237 133.335C937.217 131.675 938.537 130.385 940.197 129.465C941.857 128.545 943.677 128.085 945.657 128.085C947.657 128.085 949.477 128.545 951.117 129.465C952.777 130.385 954.087 131.675 955.047 133.335C956.007 134.975 956.487 136.835 956.487 138.915C956.487 140.995 956.007 142.865 955.047 144.525C954.087 146.165 952.777 147.455 951.117 148.395C949.457 149.315 947.637 149.775 945.657 149.775ZM945.657 144.315C947.157 144.315 948.337 143.825 949.197 142.845C950.077 141.865 950.517 140.555 950.517 138.915C950.517 137.235 950.077 135.915 949.197 134.955C948.337 133.975 947.157 133.485 945.657 133.485C944.137 133.485 942.947 133.975 942.087 134.955C941.227 135.915 940.797 137.235 940.797 138.915C940.797 140.575 941.227 141.895 942.087 142.875C942.947 143.835 944.137 144.315 945.657 144.315ZM969.87 149.775C967.89 149.775 966.07 149.315 964.41 148.395C962.75 147.455 961.43 146.165 960.45 144.525C959.49 142.865 959.01 140.995 959.01 138.915C959.01 136.835 959.49 134.975 960.45 133.335C961.43 131.675 962.75 130.385 964.41 129.465C966.07 128.545 967.89 128.085 969.87 128.085C971.87 128.085 973.69 128.545 975.33 129.465C976.99 130.385 978.3 131.675 979.26 133.335C980.22 134.975 980.7 136.835 980.7 138.915C980.7 140.995 980.22 142.865 979.26 144.525C978.3 146.165 976.99 147.455 975.33 148.395C973.67 149.315 971.85 149.775 969.87 149.775ZM969.87 144.315C971.37 144.315 972.55 143.825 973.41 142.845C974.29 141.865 974.73 140.555 974.73 138.915C974.73 137.235 974.29 135.915 973.41 134.955C972.55 133.975 971.37 133.485 969.87 133.485C968.35 133.485 967.16 133.975 966.3 134.955C965.44 135.915 965.01 137.235 965.01 138.915C965.01 140.575 965.44 141.895 966.3 142.875C967.16 143.835 968.35 144.315 969.87 144.315ZM1003.53 149.565H997.653L989.823 137.745V149.565H983.943V128.415H989.823L997.653 140.385V128.415H1003.53V149.565Z" fill="url(#paint29_linear_301_68867)"/>
<path d="M473.572 129.415V150.565H467.692V142.075H460.522V150.565H454.642V129.415H460.522V137.365H467.692V129.415H473.572ZM490.916 147.115H483.416L482.276 150.565H476.096L483.806 129.415H490.586L498.266 150.565H492.056L490.916 147.115ZM489.446 142.615L487.166 135.775L484.916 142.615H489.446ZM517.493 136.465C517.493 137.745 517.193 138.915 516.593 139.975C516.013 141.015 515.123 141.855 513.923 142.495C512.743 143.115 511.293 143.425 509.573 143.425H506.663V150.565H500.783V129.415H509.573C511.273 129.415 512.713 129.715 513.893 130.315C515.093 130.915 515.993 131.745 516.593 132.805C517.193 133.865 517.493 135.085 517.493 136.465ZM509.003 138.745C510.663 138.745 511.493 137.985 511.493 136.465C511.493 134.925 510.663 134.155 509.003 134.155H506.663V138.745H509.003ZM537.165 136.465C537.165 137.745 536.865 138.915 536.265 139.975C535.685 141.015 534.795 141.855 533.595 142.495C532.415 143.115 530.965 143.425 529.245 143.425H526.335V150.565H520.455V129.415H529.245C530.945 129.415 532.385 129.715 533.565 130.315C534.765 130.915 535.665 131.745 536.265 132.805C536.865 133.865 537.165 135.085 537.165 136.465ZM528.675 138.745C530.335 138.745 531.165 137.985 531.165 136.465C531.165 134.925 530.335 134.155 528.675 134.155H526.335V138.745H528.675ZM559.357 129.415L551.917 143.845V150.565H546.007V143.845L538.567 129.415H545.287L549.007 137.575L552.727 129.415H559.357ZM587.035 129.415V150.565H581.155V142.075H573.985V150.565H568.105V129.415H573.985V137.365H581.155V129.415H587.035ZM601.14 150.775C599.16 150.775 597.34 150.315 595.68 149.395C594.02 148.455 592.7 147.165 591.72 145.525C590.76 143.865 590.28 141.995 590.28 139.915C590.28 137.835 590.76 135.975 591.72 134.335C592.7 132.675 594.02 131.385 595.68 130.465C597.34 129.545 599.16 129.085 601.14 129.085C603.14 129.085 604.96 129.545 606.6 130.465C608.26 131.385 609.57 132.675 610.53 134.335C611.49 135.975 611.97 137.835 611.97 139.915C611.97 141.995 611.49 143.865 610.53 145.525C609.57 147.165 608.26 148.455 606.6 149.395C604.94 150.315 603.12 150.775 601.14 150.775ZM601.14 145.315C602.64 145.315 603.82 144.825 604.68 143.845C605.56 142.865 606 141.555 606 139.915C606 138.235 605.56 136.915 604.68 135.955C603.82 134.975 602.64 134.485 601.14 134.485C599.62 134.485 598.43 134.975 597.57 135.955C596.71 136.915 596.28 138.235 596.28 139.915C596.28 141.575 596.71 142.895 597.57 143.875C598.43 144.835 599.62 145.315 601.14 145.315ZM620.973 129.415V141.685C620.973 142.825 621.233 143.705 621.753 144.325C622.293 144.945 623.103 145.255 624.183 145.255C625.263 145.255 626.073 144.945 626.613 144.325C627.173 143.685 627.453 142.805 627.453 141.685V129.415H633.333V141.685C633.333 143.625 632.923 145.285 632.103 146.665C631.283 148.025 630.163 149.055 628.743 149.755C627.343 150.435 625.783 150.775 624.063 150.775C622.343 150.775 620.803 150.435 619.443 149.755C618.103 149.055 617.043 148.025 616.263 146.665C615.503 145.305 615.123 143.645 615.123 141.685V129.415H620.973ZM647.88 150.565L643.68 142.765H643.05V150.565H637.17V129.415H646.44C648.14 129.415 649.58 129.715 650.76 130.315C651.94 130.895 652.83 131.705 653.43 132.745C654.03 133.765 654.33 134.915 654.33 136.195C654.33 137.635 653.93 138.905 653.13 140.005C652.35 141.085 651.2 141.855 649.68 142.315L654.45 150.565H647.88ZM643.05 138.745H645.96C646.76 138.745 647.36 138.555 647.76 138.175C648.16 137.795 648.36 137.245 648.36 136.525C648.36 135.845 648.15 135.315 647.73 134.935C647.33 134.535 646.74 134.335 645.96 134.335H643.05V138.745ZM665.584 150.775C663.124 150.775 661.104 150.195 659.524 149.035C657.944 147.855 657.094 146.175 656.974 143.995H663.244C663.304 144.735 663.524 145.275 663.904 145.615C664.284 145.955 664.774 146.125 665.374 146.125C665.914 146.125 666.354 145.995 666.694 145.735C667.054 145.455 667.234 145.075 667.234 144.595C667.234 143.975 666.944 143.495 666.364 143.155C665.784 142.815 664.844 142.435 663.544 142.015C662.164 141.555 661.044 141.115 660.184 140.695C659.344 140.255 658.604 139.625 657.964 138.805C657.344 137.965 657.034 136.875 657.034 135.535C657.034 134.175 657.374 133.015 658.054 132.055C658.734 131.075 659.674 130.335 660.874 129.835C662.074 129.335 663.434 129.085 664.954 129.085C667.414 129.085 669.374 129.665 670.834 130.825C672.314 131.965 673.104 133.575 673.204 135.655H666.814C666.794 135.015 666.594 134.535 666.214 134.215C665.854 133.895 665.384 133.735 664.804 133.735C664.364 133.735 664.004 133.865 663.724 134.125C663.444 134.385 663.304 134.755 663.304 135.235C663.304 135.635 663.454 135.985 663.754 136.285C664.074 136.565 664.464 136.815 664.924 137.035C665.384 137.235 666.064 137.495 666.964 137.815C668.304 138.275 669.404 138.735 670.264 139.195C671.144 139.635 671.894 140.265 672.514 141.085C673.154 141.885 673.474 142.905 673.474 144.145C673.474 145.405 673.154 146.535 672.514 147.535C671.894 148.535 670.984 149.325 669.784 149.905C668.604 150.485 667.204 150.775 665.584 150.775ZM699.86 136.465C699.86 137.745 699.56 138.915 698.96 139.975C698.38 141.015 697.49 141.855 696.29 142.495C695.11 143.115 693.66 143.425 691.94 143.425H689.03V150.565H683.15V129.415H691.94C693.64 129.415 695.08 129.715 696.26 130.315C697.46 130.915 698.36 131.745 698.96 132.805C699.56 133.865 699.86 135.085 699.86 136.465ZM691.37 138.745C693.03 138.745 693.86 137.985 693.86 136.465C693.86 134.925 693.03 134.155 691.37 134.155H689.03V138.745H691.37ZM716.202 147.115H708.702L707.562 150.565H701.382L709.092 129.415H715.872L723.552 150.565H717.342L716.202 147.115ZM714.732 142.615L712.452 135.775L710.202 142.615H714.732ZM725.349 139.945C725.349 137.865 725.779 136.015 726.639 134.395C727.519 132.755 728.759 131.485 730.359 130.585C731.959 129.665 733.799 129.205 735.879 129.205C738.519 129.205 740.739 129.915 742.539 131.335C744.339 132.735 745.499 134.645 746.019 137.065H739.689C739.309 136.265 738.779 135.655 738.099 135.235C737.439 134.815 736.669 134.605 735.789 134.605C734.429 134.605 733.339 135.095 732.519 136.075C731.719 137.035 731.319 138.325 731.319 139.945C731.319 141.585 731.719 142.895 732.519 143.875C733.339 144.835 734.429 145.315 735.789 145.315C736.669 145.315 737.439 145.105 738.099 144.685C738.779 144.265 739.309 143.655 739.689 142.855H746.019C745.499 145.275 744.339 147.195 742.539 148.615C740.739 150.015 738.519 150.715 735.879 150.715C733.799 150.715 731.959 150.265 730.359 149.365C728.759 148.445 727.519 147.175 726.639 145.555C725.779 143.915 725.349 142.045 725.349 139.945ZM761.913 150.565L755.283 141.295V150.565H749.403V129.415H755.283V138.535L761.853 129.415H768.633L760.863 139.675L769.023 150.565H761.913ZM777.393 139.945C777.393 137.865 777.823 136.015 778.683 134.395C779.563 132.755 780.803 131.485 782.403 130.585C784.003 129.665 785.843 129.205 787.923 129.205C790.563 129.205 792.783 129.915 794.583 131.335C796.383 132.735 797.543 134.645 798.063 137.065H791.733C791.353 136.265 790.823 135.655 790.143 135.235C789.483 134.815 788.713 134.605 787.833 134.605C786.473 134.605 785.383 135.095 784.563 136.075C783.763 137.035 783.363 138.325 783.363 139.945C783.363 141.585 783.763 142.895 784.563 143.875C785.383 144.835 786.473 145.315 787.833 145.315C788.713 145.315 789.483 145.105 790.143 144.685C790.823 144.265 791.353 143.655 791.733 142.855H798.063C797.543 145.275 796.383 147.195 794.583 148.615C792.783 150.015 790.563 150.715 787.923 150.715C785.843 150.715 784.003 150.265 782.403 149.365C780.803 148.445 779.563 147.175 778.683 145.555C777.823 143.915 777.393 142.045 777.393 139.945ZM811.587 150.775C809.607 150.775 807.787 150.315 806.127 149.395C804.467 148.455 803.147 147.165 802.167 145.525C801.207 143.865 800.727 141.995 800.727 139.915C800.727 137.835 801.207 135.975 802.167 134.335C803.147 132.675 804.467 131.385 806.127 130.465C807.787 129.545 809.607 129.085 811.587 129.085C813.587 129.085 815.407 129.545 817.047 130.465C818.707 131.385 820.017 132.675 820.977 134.335C821.937 135.975 822.417 137.835 822.417 139.915C822.417 141.995 821.937 143.865 820.977 145.525C820.017 147.165 818.707 148.455 817.047 149.395C815.387 150.315 813.567 150.775 811.587 150.775ZM811.587 145.315C813.087 145.315 814.267 144.825 815.127 143.845C816.007 142.865 816.447 141.555 816.447 139.915C816.447 138.235 816.007 136.915 815.127 135.955C814.267 134.975 813.087 134.485 811.587 134.485C810.067 134.485 808.877 134.975 808.017 135.955C807.157 136.915 806.727 138.235 806.727 139.915C806.727 141.575 807.157 142.895 808.017 143.875C808.877 144.835 810.067 145.315 811.587 145.315ZM850.351 129.415V150.565H844.471V138.895L840.481 150.565H835.561L831.541 138.805V150.565H825.661V129.415H832.771L838.081 143.155L843.271 129.415H850.351ZM860.178 129.415V150.565H854.298V129.415H860.178ZM883.716 150.565H877.836L870.006 138.745V150.565H864.126V129.415H870.006L877.836 141.385V129.415H883.716V150.565ZM901.166 136.375C900.826 135.815 900.356 135.385 899.756 135.085C899.176 134.785 898.486 134.635 897.686 134.635C896.206 134.635 895.036 135.115 894.176 136.075C893.336 137.035 892.916 138.325 892.916 139.945C892.916 141.765 893.366 143.155 894.266 144.115C895.186 145.055 896.516 145.525 898.256 145.525C900.316 145.525 901.786 144.595 902.666 142.735H896.756V138.505H907.736V144.205C907.276 145.325 906.596 146.375 905.696 147.355C904.816 148.335 903.696 149.145 902.336 149.785C900.976 150.405 899.426 150.715 897.686 150.715C895.566 150.715 893.686 150.265 892.046 149.365C890.426 148.445 889.166 147.175 888.266 145.555C887.386 143.915 886.946 142.045 886.946 139.945C886.946 137.865 887.386 136.015 888.266 134.395C889.166 132.755 890.426 131.485 892.046 130.585C893.666 129.665 895.536 129.205 897.656 129.205C900.316 129.205 902.516 129.845 904.256 131.125C905.996 132.405 907.076 134.155 907.496 136.375H901.166ZM925.293 150.775C922.833 150.775 920.813 150.195 919.233 149.035C917.653 147.855 916.803 146.175 916.683 143.995H922.953C923.013 144.735 923.233 145.275 923.613 145.615C923.993 145.955 924.483 146.125 925.083 146.125C925.623 146.125 926.063 145.995 926.403 145.735C926.763 145.455 926.943 145.075 926.943 144.595C926.943 143.975 926.653 143.495 926.073 143.155C925.493 142.815 924.553 142.435 923.253 142.015C921.873 141.555 920.753 141.115 919.893 140.695C919.053 140.255 918.313 139.625 917.673 138.805C917.053 137.965 916.743 136.875 916.743 135.535C916.743 134.175 917.083 133.015 917.763 132.055C918.443 131.075 919.383 130.335 920.583 129.835C921.783 129.335 923.143 129.085 924.663 129.085C927.123 129.085 929.083 129.665 930.543 130.825C932.023 131.965 932.813 133.575 932.913 135.655H926.523C926.503 135.015 926.303 134.535 925.923 134.215C925.563 133.895 925.093 133.735 924.513 133.735C924.073 133.735 923.713 133.865 923.433 134.125C923.153 134.385 923.013 134.755 923.013 135.235C923.013 135.635 923.163 135.985 923.463 136.285C923.783 136.565 924.173 136.815 924.633 137.035C925.093 137.235 925.773 137.495 926.673 137.815C928.013 138.275 929.113 138.735 929.973 139.195C930.853 139.635 931.603 140.265 932.223 141.085C932.863 141.885 933.183 142.905 933.183 144.145C933.183 145.405 932.863 146.535 932.223 147.535C931.603 148.535 930.693 149.325 929.493 149.905C928.313 150.485 926.913 150.775 925.293 150.775ZM946.657 150.775C944.677 150.775 942.857 150.315 941.197 149.395C939.537 148.455 938.217 147.165 937.237 145.525C936.277 143.865 935.797 141.995 935.797 139.915C935.797 137.835 936.277 135.975 937.237 134.335C938.217 132.675 939.537 131.385 941.197 130.465C942.857 129.545 944.677 129.085 946.657 129.085C948.657 129.085 950.477 129.545 952.117 130.465C953.777 131.385 955.087 132.675 956.047 134.335C957.007 135.975 957.487 137.835 957.487 139.915C957.487 141.995 957.007 143.865 956.047 145.525C955.087 147.165 953.777 148.455 952.117 149.395C950.457 150.315 948.637 150.775 946.657 150.775ZM946.657 145.315C948.157 145.315 949.337 144.825 950.197 143.845C951.077 142.865 951.517 141.555 951.517 139.915C951.517 138.235 951.077 136.915 950.197 135.955C949.337 134.975 948.157 134.485 946.657 134.485C945.137 134.485 943.947 134.975 943.087 135.955C942.227 136.915 941.797 138.235 941.797 139.915C941.797 141.575 942.227 142.895 943.087 143.875C943.947 144.835 945.137 145.315 946.657 145.315ZM970.87 150.775C968.89 150.775 967.07 150.315 965.41 149.395C963.75 148.455 962.43 147.165 961.45 145.525C960.49 143.865 960.01 141.995 960.01 139.915C960.01 137.835 960.49 135.975 961.45 134.335C962.43 132.675 963.75 131.385 965.41 130.465C967.07 129.545 968.89 129.085 970.87 129.085C972.87 129.085 974.69 129.545 976.33 130.465C977.99 131.385 979.3 132.675 980.26 134.335C981.22 135.975 981.7 137.835 981.7 139.915C981.7 141.995 981.22 143.865 980.26 145.525C979.3 147.165 977.99 148.455 976.33 149.395C974.67 150.315 972.85 150.775 970.87 150.775ZM970.87 145.315C972.37 145.315 973.55 144.825 974.41 143.845C975.29 142.865 975.73 141.555 975.73 139.915C975.73 138.235 975.29 136.915 974.41 135.955C973.55 134.975 972.37 134.485 970.87 134.485C969.35 134.485 968.16 134.975 967.3 135.955C966.44 136.915 966.01 138.235 966.01 139.915C966.01 141.575 966.44 142.895 967.3 143.875C968.16 144.835 969.35 145.315 970.87 145.315ZM1004.53 150.565H998.653L990.823 138.745V150.565H984.943V129.415H990.823L998.653 141.385V129.415H1004.53V150.565Z" fill="white"/>
<defs>
<linearGradient id="paint0_linear_301_68867" x1="1170" y1="74.6416" x2="0" y2="74.6416" gradientUnits="userSpaceOnUse">
<stop stop-color="#212123"/>
<stop offset="1" stop-color="#2A1A9A"/>
</linearGradient>
<linearGradient id="paint1_linear_301_68867" x1="290.196" y1="2.22743" x2="251.061" y2="2.22743" gradientUnits="userSpaceOnUse">
<stop stop-color="#3AA0FE"/>
<stop offset="1" stop-color="#59FEF4"/>
</linearGradient>
<linearGradient id="paint2_linear_301_68867" x1="174.368" y1="142.541" x2="164.905" y2="142.541" gradientUnits="userSpaceOnUse">
<stop stop-color="#E1DCFE"/>
<stop offset="1" stop-color="#7E67FD"/>
</linearGradient>
<linearGradient id="paint3_linear_301_68867" x1="281.821" y1="69.6518" x2="281.821" y2="175.588" gradientUnits="userSpaceOnUse">
<stop stop-color="#3AA0FE"/>
<stop offset="1" stop-color="#3AF2FE"/>
</linearGradient>
<linearGradient id="paint4_linear_301_68867" x1="250.306" y1="75.4014" x2="250.306" y2="153.491" gradientUnits="userSpaceOnUse">
<stop stop-color="#3AA0FE"/>
<stop offset="1" stop-color="#3AF2FE"/>
</linearGradient>
<linearGradient id="paint5_linear_301_68867" x1="259.607" y1="70.5077" x2="259.607" y2="153.491" gradientUnits="userSpaceOnUse">
<stop stop-color="#3AA0FE"/>
<stop offset="1" stop-color="#3AF2FE"/>
</linearGradient>
<linearGradient id="paint6_linear_301_68867" x1="261.484" y1="101.406" x2="255.047" y2="105.183" gradientUnits="userSpaceOnUse">
<stop stop-color="#0575E6"/>
<stop offset="1" stop-color="#FF0CF5"/>
</linearGradient>
<linearGradient id="paint7_linear_301_68867" x1="278.057" y1="103.037" x2="270.605" y2="102.604" gradientUnits="userSpaceOnUse">
<stop stop-color="#0575E6"/>
<stop offset="1" stop-color="#FF0CF5"/>
</linearGradient>
<linearGradient id="paint8_linear_301_68867" x1="275.388" y1="119.27" x2="255.714" y2="110.271" gradientUnits="userSpaceOnUse">
<stop stop-color="#0575E6"/>
<stop offset="1" stop-color="#FF0CF5"/>
</linearGradient>
<linearGradient id="paint9_linear_301_68867" x1="259.909" y1="49.0605" x2="246.444" y2="44.1769" gradientUnits="userSpaceOnUse">
<stop stop-color="#0575E6"/>
<stop offset="1" stop-color="#FF0CF5"/>
</linearGradient>
<linearGradient id="paint10_linear_301_68867" x1="300.125" y1="46.2322" x2="279.649" y2="36.3821" gradientUnits="userSpaceOnUse">
<stop stop-color="#0575E6"/>
<stop offset="1" stop-color="#FF0CF5"/>
</linearGradient>
<linearGradient id="paint11_linear_301_68867" x1="297.894" y1="43.0828" x2="287" y2="37.8424" gradientUnits="userSpaceOnUse">
<stop stop-color="#0575E6"/>
<stop offset="1" stop-color="#FF0CF5"/>
</linearGradient>
<linearGradient id="paint12_linear_301_68867" x1="286.11" y1="25.6819" x2="297.741" y2="22.2444" gradientUnits="userSpaceOnUse">
<stop stop-color="#0575E6"/>
<stop offset="1" stop-color="#FF0CF5"/>
</linearGradient>
<linearGradient id="paint13_linear_301_68867" x1="305.588" y1="130.692" x2="305.588" y2="152.453" gradientUnits="userSpaceOnUse">
<stop stop-color="#3AA0FE"/>
<stop offset="1" stop-color="#3AF2FE"/>
</linearGradient>
<linearGradient id="paint14_linear_301_68867" x1="304.636" y1="84.1518" x2="304.636" y2="151.996" gradientUnits="userSpaceOnUse">
<stop stop-color="#3AA0FE"/>
<stop offset="1" stop-color="#3AF2FE"/>
</linearGradient>
<linearGradient id="paint15_linear_301_68867" x1="311.466" y1="84.1245" x2="292.966" y2="84.1245" gradientUnits="userSpaceOnUse">
<stop stop-color="#3AA0FE"/>
<stop offset="1" stop-color="#59FEF4"/>
</linearGradient>
<linearGradient id="paint16_linear_301_68867" x1="302.48" y1="133.08" x2="302.48" y2="152.266" gradientUnits="userSpaceOnUse">
<stop stop-color="#3AA0FE"/>
<stop offset="1" stop-color="#3AF2FE"/>
</linearGradient>
<linearGradient id="paint17_linear_301_68867" x1="364.2" y1="49.0646" x2="316.103" y2="49.0646" gradientUnits="userSpaceOnUse">
<stop stop-color="#3AA0FE"/>
<stop offset="1" stop-color="#59FEF4"/>
</linearGradient>
<linearGradient id="paint18_linear_301_68867" x1="364.2" y1="49.0646" x2="330.106" y2="49.0646" gradientUnits="userSpaceOnUse">
<stop stop-color="#3AA0FE"/>
<stop offset="1" stop-color="#59FEF4"/>
</linearGradient>
<linearGradient id="paint19_linear_301_68867" x1="387.551" y1="156.415" x2="358.127" y2="156.415" gradientUnits="userSpaceOnUse">
<stop stop-color="#3AA0FE"/>
<stop offset="1" stop-color="#59FEF4"/>
</linearGradient>
<linearGradient id="paint20_linear_301_68867" x1="78.9169" y1="165.04" x2="39.8252" y2="132.471" gradientUnits="userSpaceOnUse">
<stop stop-color="#3AA0FE"/>
<stop offset="1" stop-color="#59FEF4"/>
</linearGradient>
<linearGradient id="paint21_linear_301_68867" x1="97.2449" y1="171.831" x2="43.7986" y2="127.587" gradientUnits="userSpaceOnUse">
<stop stop-color="#3AA0FE"/>
<stop offset="1" stop-color="#59FEF4"/>
</linearGradient>
<linearGradient id="paint22_linear_301_68867" x1="73.3203" y1="124.399" x2="62.3108" y2="144.867" gradientUnits="userSpaceOnUse">
<stop stop-color="#3AA0FE"/>
<stop offset="1" stop-color="#59FEF4"/>
</linearGradient>
<linearGradient id="paint23_linear_301_68867" x1="107.687" y1="160.034" x2="67.9812" y2="130.317" gradientUnits="userSpaceOnUse">
<stop stop-color="#3AA0FE"/>
<stop offset="1" stop-color="#59FEF4"/>
</linearGradient>
<linearGradient id="paint24_linear_301_68867" x1="111.951" y1="153.965" x2="43.7146" y2="153.965" gradientUnits="userSpaceOnUse">
<stop stop-color="#3AA0FE"/>
<stop offset="1" stop-color="#59FEF4"/>
</linearGradient>
<linearGradient id="paint25_linear_301_68867" x1="73.8191" y1="153.965" x2="43.7146" y2="153.965" gradientUnits="userSpaceOnUse">
<stop stop-color="#3AA0FE"/>
<stop offset="1" stop-color="#59FEF4"/>
</linearGradient>
<linearGradient id="paint26_linear_301_68867" x1="86.9591" y1="152.69" x2="86.9591" y2="166.804" gradientUnits="userSpaceOnUse">
<stop stop-color="#E9651B"/>
<stop offset="1" stop-color="#FF8933"/>
</linearGradient>
<linearGradient id="paint27_linear_301_68867" x1="81.0484" y1="156.976" x2="81.0484" y2="161.563" gradientUnits="userSpaceOnUse">
<stop stop-color="#FF0C0C"/>
<stop offset="1" stop-color="#FF630C"/>
</linearGradient>
<linearGradient id="paint28_linear_301_68867" x1="88.0108" y1="152.788" x2="88.0108" y2="155.829" gradientUnits="userSpaceOnUse">
<stop stop-color="#FF0C0C"/>
<stop offset="1" stop-color="#FF630C"/>
</linearGradient>
<linearGradient id="paint29_linear_301_68867" x1="728.582" y1="118.565" x2="728.582" y2="158.565" gradientUnits="userSpaceOnUse">
<stop stop-color="#FF0C0C"/>
<stop offset="1" stop-color="#FF630C"/>
</linearGradient>
</defs>
</svg>
