<svg width="34" height="34" viewBox="0 0 34 34" fill="none" xmlns="http://www.w3.org/2000/svg">
<path d="M24.1891 9.98001C22.5333 9.98001 20.9627 10.4825 19.5212 11.4734C18.6075 12.1015 17.7607 12.9128 16.9983 13.8897C16.8133 13.6535 16.623 13.426 16.4286 13.2096C14.5316 11.0968 12.2433 9.98001 9.81094 9.98001C6.05545 9.98001 3 13.1284 3 16.9984C3 20.8682 6.05545 24.0168 9.81094 24.0168C11.4669 24.0168 13.0373 23.5143 14.4788 22.5233C15.3925 21.8953 16.2393 21.0839 17.0019 20.1068C17.1867 20.3431 17.3773 20.5706 17.5714 20.787C19.4684 22.8999 21.7567 24.0168 24.1891 24.0168C27.9445 24.0168 31 20.8682 31 16.9984C31 13.1284 27.9445 9.98001 24.1891 9.98001ZM27.6737 16.9984C27.6737 19.0342 26.1106 20.6904 24.1891 20.6904C23.2536 20.6904 20.8922 20.3253 18.8908 16.9948C20.8736 13.6706 23.2474 13.3063 24.1891 13.3063C26.1106 13.3063 27.6737 14.9626 27.6737 16.9984ZM15.1071 16.9984C13.1057 20.3256 10.7458 20.6904 9.81094 20.6904C7.8894 20.6904 6.32632 19.0342 6.32632 16.9984C6.32632 14.9626 7.8894 13.3063 9.81094 13.3063C10.7458 13.3063 13.1057 13.6712 15.1071 16.9984Z" fill="url(#paint0_linear_523_7741)"/>
<path d="M24.1891 9.98001C22.5333 9.98001 20.9627 10.4825 19.5212 11.4734C18.6075 12.1015 17.7607 12.9128 16.9983 13.8897C16.8133 13.6535 16.623 13.426 16.4286 13.2096C14.5316 11.0968 12.2433 9.98001 9.81094 9.98001C6.05545 9.98001 3 13.1284 3 16.9984C3 20.8682 6.05545 24.0168 9.81094 24.0168C11.4669 24.0168 13.0373 23.5143 14.4788 22.5233C15.3925 21.8953 16.2393 21.0839 17.0019 20.1068C17.1867 20.3431 17.3773 20.5706 17.5714 20.787C19.4684 22.8999 21.7567 24.0168 24.1891 24.0168C27.9445 24.0168 31 20.8682 31 16.9984C31 13.1284 27.9445 9.98001 24.1891 9.98001ZM27.6737 16.9984C27.6737 19.0342 26.1106 20.6904 24.1891 20.6904C23.2536 20.6904 20.8922 20.3253 18.8908 16.9948C20.8736 13.6706 23.2474 13.3063 24.1891 13.3063C26.1106 13.3063 27.6737 14.9626 27.6737 16.9984ZM15.1071 16.9984C13.1057 20.3256 10.7458 20.6904 9.81094 20.6904C7.8894 20.6904 6.32632 19.0342 6.32632 16.9984C6.32632 14.9626 7.8894 13.3063 9.81094 13.3063C10.7458 13.3063 13.1057 13.6712 15.1071 16.9984Z" fill="url(#paint1_linear_523_7741)"/>
<path fill-rule="evenodd" clip-rule="evenodd" d="M16.3717 13.1467C15.6763 14.0204 14.79 14.7355 13.7759 15.2287C14.2244 15.6975 14.6741 16.2786 15.1071 16.9984C13.1057 20.3256 10.7458 20.6904 9.81094 20.6904C7.8894 20.6904 6.32632 19.0342 6.32632 16.9984C6.32632 16.2789 6.52157 15.6068 6.85889 15.0384C5.86667 14.4864 5.0128 13.7157 4.36238 12.7915C3.50723 13.9646 3 15.4216 3 16.9984C3 20.8682 6.05545 24.0168 9.81094 24.0168C11.4669 24.0168 13.0373 23.5143 14.4788 22.5233C15.3925 21.8953 16.2393 21.0839 17.0019 20.1068C17.0738 20.1987 17.1465 20.2892 17.22 20.3783C17.8351 19.4385 18.6554 18.6451 19.6174 18.0619C19.3721 17.7453 19.1289 17.391 18.8908 16.9948C20.8736 13.6706 23.2474 13.3063 24.1891 13.3063C26.1106 13.3063 27.6737 14.9626 27.6737 16.9984C27.6737 17.3956 27.6142 17.7783 27.5041 18.1372C28.5187 18.779 29.3687 19.6576 29.9764 20.6953C30.6251 19.6211 31 18.354 31 16.9984C31 13.1284 27.9445 9.98001 24.1891 9.98001C22.5333 9.98001 20.9627 10.4825 19.5212 11.4734C18.6075 12.1015 17.7607 12.9128 16.9983 13.8897C16.8133 13.6535 16.623 13.426 16.4286 13.2096C16.4096 13.1885 16.3907 13.1675 16.3717 13.1467Z" fill="url(#paint2_linear_523_7741)"/>
<path fill-rule="evenodd" clip-rule="evenodd" d="M16.3717 13.1467C15.6763 14.0204 14.79 14.7355 13.7759 15.2287C14.2244 15.6975 14.6741 16.2786 15.1071 16.9984C13.1057 20.3256 10.7458 20.6904 9.81094 20.6904C7.8894 20.6904 6.32632 19.0342 6.32632 16.9984C6.32632 16.2789 6.52157 15.6068 6.85889 15.0384C5.86667 14.4864 5.0128 13.7157 4.36238 12.7915C3.50723 13.9646 3 15.4216 3 16.9984C3 20.8682 6.05545 24.0168 9.81094 24.0168C11.4669 24.0168 13.0373 23.5143 14.4788 22.5233C15.3925 21.8953 16.2393 21.0839 17.0019 20.1068C17.0738 20.1987 17.1465 20.2892 17.22 20.3783C17.8351 19.4385 18.6554 18.6451 19.6174 18.0619C19.3721 17.7453 19.1289 17.391 18.8908 16.9948C20.8736 13.6706 23.2474 13.3063 24.1891 13.3063C26.1106 13.3063 27.6737 14.9626 27.6737 16.9984C27.6737 17.3956 27.6142 17.7783 27.5041 18.1372C28.5187 18.779 29.3687 19.6576 29.9764 20.6953C30.6251 19.6211 31 18.354 31 16.9984C31 13.1284 27.9445 9.98001 24.1891 9.98001C22.5333 9.98001 20.9627 10.4825 19.5212 11.4734C18.6075 12.1015 17.7607 12.9128 16.9983 13.8897C16.8133 13.6535 16.623 13.426 16.4286 13.2096C16.4096 13.1885 16.3907 13.1675 16.3717 13.1467Z" fill="url(#paint3_linear_523_7741)"/>
<path d="M15.1072 16.9976C14.7646 17.5671 14.4113 18.0499 14.0566 18.459C14.4074 19.099 15.1788 20.4636 15.8195 21.4232C16.2326 21.0255 16.6274 20.5858 17.0019 20.106C16.279 19.1005 15.6723 18.0337 15.6319 17.9442C15.549 17.7596 15.1072 16.9976 15.1072 16.9976Z" fill="#014C1C"/>
<path d="M18.8907 16.994C19.2535 16.3861 19.6292 15.8774 20.0067 15.4517C19.532 14.7401 18.7081 13.5218 18.0948 12.6558C17.7128 13.0313 17.3465 13.4426 16.998 13.889C17.7212 14.8946 18.3699 16.0419 18.4105 16.1314C18.4189 16.1494 18.8907 16.994 18.8907 16.994Z" fill="#017573"/>
<path d="M18.3008 15.9331C18.1335 15.599 17.418 14.4409 16.9961 13.8863C16.8164 13.6324 16.4766 13.2865 16.3711 13.1519C16.0703 13.5347 15.6289 13.9761 15.2305 14.3003C14.6602 14.7652 14.2851 14.9663 13.7812 15.2222C14.5109 15.9904 15.071 16.9158 15.4648 17.6324C15.9031 18.5017 16.8404 19.9624 17.2227 20.3745C18.1138 19.0054 19.293 18.2495 19.6133 18.0581C19.1289 17.5034 18.7322 16.7031 18.3008 15.9331Z" fill="url(#paint4_linear_523_7741)"/>
<defs>
<linearGradient id="paint0_linear_523_7741" x1="3.12106" y1="18.6051" x2="26.8064" y2="27.9051" gradientUnits="userSpaceOnUse">
<stop stop-color="#36FF78"/>
<stop offset="1" stop-color="#0CFFFF"/>
</linearGradient>
<linearGradient id="paint1_linear_523_7741" x1="3.12106" y1="18.6051" x2="26.8064" y2="27.9051" gradientUnits="userSpaceOnUse">
<stop stop-color="#36FF78"/>
<stop offset="1" stop-color="#0CFFFF"/>
</linearGradient>
<linearGradient id="paint2_linear_523_7741" x1="3.12106" y1="18.6051" x2="28.1061" y2="23.3309" gradientUnits="userSpaceOnUse">
<stop offset="0.413594" stop-color="#00A8A5" stop-opacity="0"/>
<stop offset="0.54021" stop-color="#00A8A5"/>
<stop offset="0.82604" stop-color="#00A8A5"/>
<stop offset="1" stop-color="#0EFFFB"/>
</linearGradient>
<linearGradient id="paint3_linear_523_7741" x1="5" y1="16.98" x2="20.472" y2="18.8124" gradientUnits="userSpaceOnUse">
<stop offset="0.0319417" stop-color="#35FF7E"/>
<stop offset="0.247054" stop-color="#00CC4A"/>
<stop offset="0.720848" stop-color="#006625"/>
<stop offset="0.800275" stop-color="#35FF7E" stop-opacity="0"/>
</linearGradient>
<linearGradient id="paint4_linear_523_7741" x1="15.0676" y1="14.4946" x2="18.1962" y2="19.0854" gradientUnits="userSpaceOnUse">
<stop stop-color="#27FFAA"/>
<stop offset="1" stop-color="#1FFFC5"/>
</linearGradient>
</defs>
</svg>
