<svg width="30" height="21" viewBox="0 0 30 21" fill="none" xmlns="http://www.w3.org/2000/svg">
<path d="M23.1928 12.9254C22.368 12.1874 21.3062 11.781 20.2029 11.781C19.4876 11.781 18.8076 11.9421 18.1816 12.26L17.4213 12.646L17.3998 11.7936C17.3412 9.47297 16.0313 7.34124 13.9811 6.23028L13.5967 6.02195L13.7218 5.60299C14.4125 3.29115 16.3108 1.53404 18.6761 1.0175L19.1335 0.917619C19.3004 0.881205 19.4493 1.02896 19.4141 1.19603L19.3178 1.65415C19.0467 2.9426 19.1049 4.21932 19.4861 5.34626C19.9426 6.69554 20.8371 7.72044 22.0049 8.23227C22.5504 8.47145 23.1361 8.59261 23.7456 8.59261C24.4498 8.59261 25.1616 8.43255 25.8611 8.11674L26.3884 7.87874C26.5615 7.80054 26.7511 7.94914 26.7167 8.13586L26.6119 8.70474C26.6 8.76911 26.5873 8.83323 26.5736 8.89722C26.218 10.5583 25.2533 12.0037 23.8573 12.9671L23.5085 13.2079L23.1928 12.9254Z" fill="url(#paint0_linear_523_7702)"/>
<path d="M20.2031 10.368C19.6858 10.368 19.1791 10.4337 18.6916 10.5621C18.2214 7.93117 16.4483 5.74632 14.0662 4.70013C13.9309 4.99001 13.8152 5.29121 13.7221 5.60295L13.5969 6.02191L13.9814 6.23025C16.0316 7.34114 17.3414 9.47294 17.4 11.7936L17.4215 12.646L18.1818 12.26C18.8078 11.9422 19.4879 11.781 20.2031 11.781C21.3063 11.781 22.3682 12.1874 23.1931 12.9254L23.5089 13.208L23.8577 12.9672C24.1275 12.7811 24.3807 12.5764 24.617 12.3561C23.5348 11.1374 21.9572 10.368 20.2031 10.368Z" fill="url(#paint1_linear_523_7702)"/>
<path opacity="0.78" d="M25.1047 5.15048C23.732 5.15048 22.6152 4.03369 22.6152 2.66102C22.6152 1.28836 23.7321 0.17157 25.1047 0.17157C26.2611 0.17157 27.2738 0.980801 27.5311 2.10256C27.7827 1.95396 28.0692 1.87563 28.3625 1.87563C29.2654 1.87563 30 2.61014 30 3.51302C30 4.41591 29.2654 5.15048 28.3625 5.15048H25.1047Z" fill="url(#paint2_linear_523_7702)"/>
<path d="M20.4113 20.8277H4.94656C2.24917 20.8277 -0.0147292 18.6209 7.21709e-05 15.9235C0.0138257 13.4251 1.88424 11.3591 4.36623 11.1014C4.79134 7.83798 7.59117 5.38055 10.89 5.38055C14.5178 5.38055 17.4693 8.33206 17.4693 11.96C17.4693 12.1271 17.4628 12.296 17.4499 12.4648C17.4444 12.537 17.5259 12.5829 17.5851 12.5412C18.3541 11.9988 19.2536 11.7135 20.203 11.7135C22.7159 11.7135 24.7601 13.7578 24.7601 16.2706C24.7601 18.6528 22.9 20.6489 20.5254 20.8151L20.4665 20.8284L20.4113 20.8277Z" fill="url(#paint3_linear_523_7702)"/>
<path d="M3.26326 16.0216C3.26326 13.5451 5.04356 11.4783 7.45311 11.0904H10.662C11.2353 11.0904 11.7001 10.6256 11.7001 10.0523C11.7001 9.47897 11.2353 9.01424 10.662 9.01424H9.42615C8.92474 9.01424 8.62936 8.44772 8.91969 8.03891C9.59158 7.09287 10.5004 6.33164 11.5536 5.83521C11.761 5.73736 11.7092 5.42758 11.4807 5.40701C11.2861 5.38953 11.0891 5.38055 10.89 5.38055C7.5913 5.38055 4.79141 7.83792 4.36623 11.1014C1.88431 11.3591 0.0138257 13.4251 7.21668e-05 15.9236C-0.0147292 18.6209 2.2493 20.8277 4.94656 20.8277H6.05339C6.21673 20.8277 6.26827 20.6056 6.12072 20.5354C4.43296 19.7326 3.26326 18.0116 3.26326 16.0216Z" fill="url(#paint4_linear_523_7702)"/>
<defs>
<linearGradient id="paint0_linear_523_7702" x1="19" y1="9.99995" x2="21" y2="-0.500064" gradientUnits="userSpaceOnUse">
<stop stop-color="#616161"/>
<stop offset="1" stop-color="#434343"/>
</linearGradient>
<linearGradient id="paint1_linear_523_7702" x1="28.5" y1="-4.00007" x2="15" y2="5.99994" gradientUnits="userSpaceOnUse">
<stop stop-color="#616161"/>
<stop offset="1" stop-color="#434343"/>
</linearGradient>
<linearGradient id="paint2_linear_523_7702" x1="31.5" y1="2.4997" x2="25.5" y2="1.4997" gradientUnits="userSpaceOnUse">
<stop stop-color="#616161"/>
<stop offset="1" stop-color="#434343"/>
</linearGradient>
<linearGradient id="paint3_linear_523_7702" x1="15" y1="18.9997" x2="7.00001" y2="13.9997" gradientUnits="userSpaceOnUse">
<stop stop-color="#616161"/>
<stop offset="1" stop-color="#434343"/>
</linearGradient>
<linearGradient id="paint4_linear_523_7702" x1="5.50001" y1="17.9997" x2="-5.00001" y2="6.9997" gradientUnits="userSpaceOnUse">
<stop stop-color="#616161"/>
<stop offset="1" stop-color="#434343"/>
</linearGradient>
</defs>
</svg>
