<svg width="219" height="110" viewBox="0 0 219 110" fill="none" xmlns="http://www.w3.org/2000/svg">
<path fill-rule="evenodd" clip-rule="evenodd" d="M199.442 74.9428L199.442 95.6198C199.442 100.825 194.467 109.002 184.839 109.132L184.839 74.9428L199.442 74.9428Z" fill="#452680"/>
<path fill-rule="evenodd" clip-rule="evenodd" d="M184.839 77.8441C193.3 77.8441 199.442 85.5991 199.442 95.6191L199.442 18.6392C199.442 8.61916 193.301 0.864136 184.839 0.864137L146.265 0.86414L45.3919 0.864149C40.7019 0.86415 35.0299 2.85215 30.5959 7.47215L11.4749 27.3952C3.31388 35.8972 2.12289 41.6312 12.1239 52.7262L26.9099 69.1302C32.1049 74.8942 38.9679 77.8432 45.3919 77.8432L184.839 77.8441Z" fill="url(#paint0_linear_776_34000)"/>
<path opacity="0.4" d="M85.9951 28.5505L86.0158 28.2834C87.3085 28.384 88.5863 27.6785 89.9391 26.9313C90.3518 26.7033 90.7788 26.4674 91.2076 26.2555C92.9086 25.4151 94.8807 25.5109 96.4829 26.5123C96.8971 26.7714 97.3064 27.0555 97.7021 27.3297C98.963 28.2045 100.154 29.0305 101.442 29.0679C102.674 29.1021 103.869 28.4372 105.134 27.7333C105.625 27.4599 106.133 27.1771 106.648 26.9348C108.298 26.1605 110.266 26.337 111.913 27.4066L111.767 27.6314C110.198 26.6126 108.327 26.4431 106.763 27.1775C106.255 27.4159 105.751 27.6962 105.264 27.9675C103.966 28.6898 102.74 29.3723 101.435 29.3361C100.067 29.2964 98.8438 28.4482 97.5492 27.5501C97.1562 27.2773 96.7495 26.9953 96.3411 26.7397C94.8182 25.7879 92.9434 25.697 91.3264 26.4958C90.9033 26.7051 90.479 26.9396 90.0688 27.1661C88.6797 27.9331 87.3676 28.6577 85.9951 28.5505Z" fill="white"/>
<path opacity="0.3" d="M204.837 14.3903L204.793 14.1262C203.514 14.3422 202.178 13.754 200.764 13.131C200.333 12.9408 199.886 12.7442 199.44 12.5716C197.671 11.8869 195.715 12.1591 194.209 13.2999C193.82 13.5951 193.438 13.9147 193.068 14.2233C191.891 15.2075 190.778 16.1369 189.498 16.2896C188.275 16.434 187.025 15.8787 185.702 15.291C185.189 15.0628 184.658 14.8266 184.122 14.6314C182.41 14.0081 180.466 14.3601 178.921 15.573L179.087 15.7837C180.558 14.6285 182.406 14.2922 184.03 14.8834C184.557 15.0754 185.084 15.3095 185.594 15.536C186.951 16.1391 188.233 16.709 189.53 16.556C190.889 16.3938 192.031 15.4396 193.24 14.4291C193.607 14.1222 193.987 13.8048 194.371 13.5137C195.802 12.4293 197.661 12.1708 199.343 12.8215C199.783 12.9921 200.227 13.1876 200.656 13.3764C202.108 14.0159 203.48 14.62 204.837 14.3903Z" fill="white"/>
<path opacity="0.4" d="M182.818 54.8332L182.803 54.5657C181.508 54.6381 180.246 53.9049 178.91 53.1284C178.502 52.8914 178.081 52.6462 177.657 52.4251C175.974 51.5477 174.001 51.6005 172.377 52.5667C171.957 52.8167 171.542 53.0918 171.14 53.3573C169.861 54.2044 168.652 55.0042 167.363 55.0135C166.131 55.0208 164.951 54.33 163.702 53.5987C163.216 53.3146 162.715 53.0209 162.205 52.7673C160.573 51.9573 158.601 52.0908 156.931 53.1242L157.073 53.3521C158.663 52.3678 160.537 52.2392 162.085 53.0075C162.587 53.2569 163.085 53.5481 163.566 53.83C164.848 54.5804 166.059 55.2895 167.365 55.2818C168.733 55.2719 169.974 54.4506 171.288 53.581C171.687 53.3168 172.1 53.0437 172.514 52.7971C174.057 51.8788 175.933 51.8288 177.533 52.6627C177.951 52.8812 178.37 53.1249 178.775 53.3602C180.147 54.1573 181.443 54.9104 182.818 54.8332Z" fill="white"/>
<path opacity="0.8" d="M165.422 78.2051L165.429 77.9372C166.725 77.9721 167.965 77.2026 169.278 76.3877C169.679 76.139 170.094 75.8818 170.511 75.6484C172.167 74.7227 174.142 74.7183 175.793 75.637C176.219 75.8748 176.643 76.1377 177.052 76.3915C178.355 77.2011 179.587 77.9656 180.875 77.9376C182.107 77.9092 183.267 77.1844 184.494 76.4173C184.971 76.1193 185.464 75.8111 185.966 75.5429C187.574 74.6859 189.549 74.7623 191.248 75.7469L191.113 75.9788C189.495 75.0409 187.618 74.9667 186.093 75.7795C185.598 76.0434 185.109 76.3489 184.636 76.6446C183.377 77.4318 182.187 78.1757 180.882 78.2058C179.513 78.2356 178.249 77.4506 176.91 76.6194C176.504 76.3669 176.083 76.1059 175.663 75.8714C174.093 74.9981 172.216 75.0025 170.642 75.8823C170.23 76.1129 169.818 76.3686 169.42 76.6156C168.072 77.4521 166.798 78.2424 165.422 78.2051Z" fill="white"/>
<path opacity="0.8" d="M56.7955 76.9089L56.8083 76.6413C55.5132 76.5795 54.3336 75.7199 53.0848 74.8095C52.7038 74.5316 52.3096 74.2442 51.9107 73.9804C50.3281 72.934 48.3595 72.7826 46.6446 73.5758C46.2013 73.7811 45.7598 74.0118 45.3328 74.2345C43.9725 74.9448 42.6878 75.6155 41.4046 75.4916C40.1785 75.3715 39.076 74.5625 37.909 73.706C37.4558 73.3734 36.9874 73.0294 36.506 72.7244C34.9664 71.7501 32.9919 71.6793 31.2241 72.5346L31.341 72.7759C33.0246 71.9611 34.9017 72.0268 36.3624 72.951C36.836 73.2509 37.3008 73.592 37.7504 73.9221C38.948 74.801 40.0791 75.6314 41.3786 75.7586C42.7412 75.8902 44.0603 75.2015 45.457 74.4723C45.881 74.2507 46.3198 74.0217 46.757 73.8192C48.3868 73.0652 50.2583 73.2093 51.7627 74.204C52.1564 74.4645 52.5481 74.7502 52.9267 75.0262C54.209 75.9608 55.4204 76.8437 56.7955 76.9089Z" fill="white"/>
<path opacity="0.4" d="M155.572 29.2322L155.555 29.0993C154.912 29.1813 154.256 28.8604 153.562 28.5205C153.35 28.4168 153.131 28.3095 152.912 28.2143C152.042 27.8364 151.059 27.9328 150.284 28.4723C150.083 28.6118 149.886 28.7638 149.695 28.9105C149.087 29.3783 148.513 29.8201 147.87 29.8705C147.256 29.9179 146.643 29.6152 145.994 29.2948C145.742 29.1704 145.481 29.0417 145.218 28.9333C144.375 28.5872 143.397 28.7238 142.6 29.2985L142.679 29.4071C143.437 28.8597 144.367 28.7291 145.167 29.0573C145.426 29.1639 145.684 29.2915 145.934 29.415C146.6 29.7438 147.229 30.0545 147.88 30.0043C148.563 29.9508 149.152 29.4971 149.777 29.0168C149.966 28.8709 150.163 28.72 150.36 28.5823C151.097 28.0696 152.031 27.978 152.859 28.3372C153.075 28.4313 153.293 28.538 153.503 28.641C154.216 28.9898 154.889 29.3194 155.572 29.2322Z" fill="white"/>
<path d="M77.988 51.465L78.0311 51.2005C79.3107 51.4092 80.6432 50.8133 82.0538 50.1822C82.4843 49.9895 82.9295 49.7903 83.3746 49.6151C85.1401 48.9203 87.0972 49.1812 88.6098 50.3133C89.0008 50.6062 89.3848 50.9236 89.7562 51.2301C90.9392 52.2075 92.0566 53.1305 93.3376 53.2758C94.5619 53.4131 95.8084 52.8507 97.1278 52.2554C97.6403 52.0242 98.1699 51.785 98.7041 51.5867C100.412 50.9535 102.359 51.2944 103.91 52.4983L103.746 52.71C102.268 51.5633 100.418 51.2376 98.7975 51.8381C98.272 52.0332 97.7464 52.2703 97.238 52.4998C95.884 53.1107 94.6051 53.688 93.3075 53.5425C91.9473 53.3881 90.8 52.4404 89.5853 51.4369C89.2166 51.1321 88.835 50.817 88.4494 50.5281C87.0117 49.4519 85.1511 49.2041 83.4729 49.8645C83.0336 50.0376 82.5912 50.2357 82.1635 50.427C80.715 51.0748 79.3467 51.6868 77.988 51.465Z" fill="white"/>
<path d="M218.726 34.155L218.729 34.423C217.433 34.4397 216.224 35.2579 214.945 36.1244C214.554 36.3888 214.15 36.6624 213.742 36.9122C212.124 37.903 210.152 37.9859 208.465 37.1336C208.03 36.9131 207.596 36.6672 207.177 36.4298C205.842 35.6727 204.582 34.9578 203.295 35.0371C202.066 35.1145 200.936 35.8848 199.74 36.7002C199.275 37.0169 198.795 37.3444 198.303 37.6325C196.731 38.5527 194.755 38.555 193.018 37.6387L193.143 37.4017C194.797 38.2744 196.676 38.2739 198.168 37.4011C198.651 37.1177 199.128 36.793 199.589 36.4787C200.816 35.642 201.975 34.8513 203.278 34.7693C204.645 34.6852 205.939 35.4192 207.31 36.1965C207.726 36.4327 208.156 36.6767 208.586 36.8943C210.189 37.7045 212.064 37.6254 213.602 36.6836C214.005 36.4369 214.406 36.165 214.794 35.9023C216.108 35.0128 217.349 34.1725 218.726 34.155Z" fill="white"/>
<path d="M6.10272 14.157L6.09926 14.4249C7.39567 14.4416 8.60444 15.2598 9.88407 16.1263C10.2745 16.3908 10.6784 16.6643 11.0863 16.9141C12.7043 17.905 14.6769 17.9879 16.3632 17.1356C16.7991 16.915 17.2324 16.6691 17.6513 16.4318C18.9861 15.6747 20.2468 14.9598 21.5336 15.039C22.7631 15.1164 23.893 15.8867 25.089 16.7021C25.5536 17.0188 26.0336 17.3464 26.5253 17.6344C28.0977 18.5547 30.0736 18.5569 31.8106 17.6407L31.6854 17.4036C30.0311 18.2764 28.1528 18.2759 26.6609 17.403C26.1772 17.1197 25.7009 16.7949 25.24 16.4807C24.0126 15.6439 22.8534 14.8533 21.5503 14.7713C20.184 14.6871 18.8895 15.4212 17.519 16.1985C17.103 16.4346 16.6724 16.6787 16.2425 16.8963C14.6398 17.7064 12.7644 17.6274 11.2264 16.6856C10.8239 16.4388 10.4226 16.1669 10.0345 15.9043C8.72055 15.0148 7.4793 14.1745 6.10272 14.157Z" fill="white"/>
<path d="M120.833 67.3643C119.317 67.3643 118.083 66.1303 118.083 64.6143C118.083 63.0982 119.317 61.8643 120.833 61.8643C122.349 61.8643 123.583 63.0982 123.583 64.6143C123.583 66.1303 122.35 67.3643 120.833 67.3643ZM120.833 62.5113C119.673 62.5113 118.73 63.4547 118.73 64.6143C118.73 65.7738 119.673 66.7172 120.833 66.7172C121.993 66.7172 122.936 65.7738 122.936 64.6143C122.936 63.4547 121.993 62.5113 120.833 62.5113Z" fill="white"/>
<path d="M152.333 82.3643C149.99 82.3643 148.083 80.4573 148.083 78.1143C148.083 75.7713 149.99 73.8643 152.333 73.8643C154.676 73.8643 156.583 75.7713 156.583 78.1143C156.583 80.4573 154.677 82.3643 152.333 82.3643ZM152.333 74.8643C150.541 74.8643 149.083 76.3223 149.083 78.1143C149.083 79.9063 150.541 81.3643 152.333 81.3643C154.125 81.3643 155.583 79.9063 155.583 78.1143C155.583 76.3223 154.125 74.8643 152.333 74.8643Z" fill="white"/>
<path d="M103.333 12.3643C100.99 12.3643 99.083 10.4573 99.083 8.11426C99.083 5.77126 100.99 3.86426 103.333 3.86426C105.676 3.86426 107.583 5.77126 107.583 8.11426C107.583 10.4573 105.677 12.3643 103.333 12.3643ZM103.333 4.86426C101.541 4.86426 100.083 6.32226 100.083 8.11426C100.083 9.90626 101.541 11.3643 103.333 11.3643C105.125 11.3643 106.583 9.90626 106.583 8.11426C106.583 6.32226 105.125 4.86426 103.333 4.86426Z" fill="white"/>
<path d="M2.08301 52.8643C0.980419 52.8643 0.0830078 51.9668 0.0830078 50.8643C0.0830078 49.7617 0.980419 48.8643 2.08301 48.8643C3.18559 48.8643 4.08301 49.7617 4.08301 50.8643C4.08301 51.9668 3.18607 52.8643 2.08301 52.8643ZM2.08301 49.3348C1.23971 49.3348 0.553596 50.021 0.553596 50.8643C0.553596 51.7076 1.23971 52.3937 2.08301 52.3937C2.9263 52.3937 3.61242 51.7076 3.61242 50.8643C3.61242 50.021 2.9263 49.3348 2.08301 49.3348Z" fill="white"/>
<path d="M44.083 14.8643C42.9804 14.8643 42.083 13.9668 42.083 12.8643C42.083 11.7617 42.9804 10.8643 44.083 10.8643C45.1856 10.8643 46.083 11.7617 46.083 12.8643C46.083 13.9668 45.1861 14.8643 44.083 14.8643ZM44.083 11.3348C43.2397 11.3348 42.5536 12.021 42.5536 12.8643C42.5536 13.7076 43.2397 14.3937 44.083 14.3937C44.9263 14.3937 45.6124 13.7076 45.6124 12.8643C45.6124 12.021 44.9263 11.3348 44.083 11.3348Z" fill="white"/>
<path d="M73.083 32.8643C71.4291 32.8643 70.083 31.5181 70.083 29.8643C70.083 28.2104 71.4291 26.8643 73.083 26.8643C74.7369 26.8643 76.083 28.2104 76.083 29.8643C76.083 31.5181 74.7376 32.8643 73.083 32.8643ZM73.083 27.5701C71.8181 27.5701 70.7889 28.5993 70.7889 29.8643C70.7889 31.1292 71.8181 32.1584 73.083 32.1584C74.3479 32.1584 75.3771 31.1292 75.3771 29.8643C75.3771 28.5993 74.3479 27.5701 73.083 27.5701Z" fill="white"/>
<path d="M189.583 25.8643C188.756 25.8643 188.083 25.1912 188.083 24.3643C188.083 23.5373 188.756 22.8643 189.583 22.8643C190.41 22.8643 191.083 23.5373 191.083 24.3643C191.083 25.1912 190.41 25.8643 189.583 25.8643ZM189.583 23.2172C188.951 23.2172 188.436 23.7318 188.436 24.3643C188.436 24.9967 188.951 25.5113 189.583 25.5113C190.215 25.5113 190.73 24.9967 190.73 24.3643C190.73 23.7318 190.215 23.2172 189.583 23.2172Z" fill="white"/>
<path d="M205.583 85.8643C204.756 85.8643 204.083 85.1912 204.083 84.3643C204.083 83.5373 204.756 82.8643 205.583 82.8643C206.41 82.8643 207.083 83.5373 207.083 84.3643C207.083 85.1912 206.41 85.8643 205.583 85.8643ZM205.583 83.2172C204.951 83.2172 204.436 83.7318 204.436 84.3643C204.436 84.9967 204.951 85.5113 205.583 85.5113C206.215 85.5113 206.73 84.9967 206.73 84.3643C206.73 83.7318 206.215 83.2172 205.583 83.2172Z" fill="white"/>
<path d="M198.668 53.2888C198.668 54.3408 197.815 55.1938 196.763 55.1938C195.711 55.1938 194.858 54.3408 194.858 53.2888C194.858 52.2368 195.711 51.3838 196.763 51.3838C197.815 51.3848 198.668 52.2368 198.668 53.2888Z" fill="white"/>
<path d="M8.85791 22.3838C8.85791 22.936 8.41014 23.3838 7.85791 23.3838C7.30568 23.3838 6.85791 22.936 6.85791 22.3838C6.85791 21.8316 7.30568 21.3838 7.85791 21.3838C8.41014 21.3843 8.85791 21.8316 8.85791 22.3838Z" fill="white"/>
<path d="M68.8579 62.3838C68.8579 62.936 68.4101 63.3838 67.8579 63.3838C67.3057 63.3838 66.8579 62.936 66.8579 62.3838C66.8579 61.8316 67.3057 61.3838 67.8579 61.3838C68.4101 61.3843 68.8579 61.8316 68.8579 62.3838Z" fill="white"/>
<path d="M22.8579 72.3838C22.8579 72.936 22.4101 73.3838 21.8579 73.3838C21.3057 73.3838 20.8579 72.936 20.8579 72.3838C20.8579 71.8316 21.3057 71.3838 21.8579 71.3838C22.4101 71.3843 22.8579 71.8316 22.8579 72.3838Z" fill="white"/>
<path d="M98.8579 82.3838C98.8579 82.936 98.4101 83.3838 97.8579 83.3838C97.3057 83.3838 96.8579 82.936 96.8579 82.3838C96.8579 81.8316 97.3057 81.3838 97.8579 81.3838C98.4101 81.3843 98.8579 81.8316 98.8579 82.3838Z" fill="white"/>
<path d="M152.858 6.38379C152.858 6.93602 152.41 7.38379 151.858 7.38379C151.306 7.38379 150.858 6.93602 150.858 6.38379C150.858 5.83156 151.306 5.38379 151.858 5.38379C152.41 5.38431 152.858 5.83156 152.858 6.38379Z" fill="white"/>
<path d="M205.858 22.3838C205.858 22.936 205.41 23.3838 204.858 23.3838C204.306 23.3838 203.858 22.936 203.858 22.3838C203.858 21.8316 204.306 21.3838 204.858 21.3838C205.41 21.3843 205.858 21.8316 205.858 22.3838Z" fill="white"/>
<path d="M148.858 55.3838C148.858 55.936 148.41 56.3838 147.858 56.3838C147.306 56.3838 146.858 55.936 146.858 55.3838C146.858 54.8316 147.306 54.3838 147.858 54.3838C148.41 54.3843 148.858 54.8316 148.858 55.3838Z" fill="white"/>
<path d="M22.0109 46.6351C20.7042 46.6351 19.5042 46.3285 18.4109 45.7151C17.3175 45.1018 16.4509 44.2551 15.8109 43.1751C15.1709 42.0818 14.8509 40.8485 14.8509 39.4751C14.8509 38.1151 15.1709 36.8951 15.8109 35.8151C16.4509 34.7218 17.3175 33.8684 18.4109 33.2551C19.5042 32.6418 20.7042 32.3351 22.0109 32.3351C23.3309 32.3351 24.5309 32.6418 25.6109 33.2551C26.7042 33.8684 27.5642 34.7218 28.1909 35.8151C28.8309 36.8951 29.1509 38.1151 29.1509 39.4751C29.1509 40.8485 28.8309 42.0818 28.1909 43.1751C27.5642 44.2551 26.7042 45.1018 25.6109 45.7151C24.5175 46.3285 23.3175 46.6351 22.0109 46.6351ZM22.0109 44.1351C22.8509 44.1351 23.5909 43.9485 24.2309 43.5751C24.8709 43.1885 25.3709 42.6418 25.7309 41.9351C26.0909 41.2285 26.2709 40.4085 26.2709 39.4751C26.2709 38.5418 26.0909 37.7284 25.7309 37.0351C25.3709 36.3285 24.8709 35.7885 24.2309 35.4151C23.5909 35.0418 22.8509 34.8551 22.0109 34.8551C21.1709 34.8551 20.4242 35.0418 19.7709 35.4151C19.1309 35.7885 18.6309 36.3285 18.2709 37.0351C17.9109 37.7284 17.7309 38.5418 17.7309 39.4751C17.7309 40.4085 17.9109 41.2285 18.2709 41.9351C18.6309 42.6418 19.1309 43.1885 19.7709 43.5751C20.4242 43.9485 21.1709 44.1351 22.0109 44.1351ZM40.254 32.5351V34.7951H34.434V38.3751H38.894V40.5951H34.434V46.4951H31.634V32.5351H40.254ZM51.2595 32.5351V34.7951H45.4395V38.3751H49.8995V40.5951H45.4395V46.4951H42.6395V32.5351H51.2595ZM56.4449 34.7951V38.2951H61.1449V40.5151H56.4449V44.2151H61.7449V46.4951H53.6449V32.5151H61.7449V34.7951H56.4449ZM71.8895 46.4951L68.8095 41.0551H67.4895V46.4951H64.6895V32.5351H69.9295C71.0095 32.5351 71.9295 32.7285 72.6895 33.1151C73.4495 33.4884 74.0161 34.0018 74.3895 34.6551C74.7761 35.2951 74.9695 36.0151 74.9695 36.8151C74.9695 37.7351 74.7028 38.5685 74.1695 39.3151C73.6361 40.0485 72.8428 40.5551 71.7895 40.8351L75.1295 46.4951H71.8895ZM67.4895 38.9551H69.8295C70.5895 38.9551 71.1561 38.7751 71.5295 38.4151C71.9028 38.0418 72.0895 37.5285 72.0895 36.8751C72.0895 36.2351 71.9028 35.7418 71.5295 35.3951C71.1561 35.0351 70.5895 34.8551 69.8295 34.8551H67.4895V38.9551ZM91.6276 43.8351H86.0676L85.1476 46.4951H82.2076L87.2276 32.5151H90.4876L95.5076 46.4951H92.5476L91.6276 43.8351ZM90.8676 41.5951L88.8476 35.7551L86.8276 41.5951H90.8676ZM110.324 32.5351L105.204 46.4951H101.804L96.684 32.5351H99.684L103.524 43.6351L107.344 32.5351H110.324ZM120.963 43.8351H115.403L114.483 46.4951H111.543L116.563 32.5151H119.823L124.843 46.4951H121.883L120.963 43.8351ZM120.203 41.5951L118.183 35.7551L116.163 41.5951H120.203ZM129.919 32.5351V46.4951H127.119V32.5351H129.919ZM135.886 44.2751H140.486V46.4951H133.086V32.5351H135.886V44.2751ZM151.225 43.8351H145.665L144.745 46.4951H141.805L146.825 32.5151H150.085L155.105 46.4951H152.145L151.225 43.8351ZM150.465 41.5951L148.445 35.7551L146.425 41.5951H150.465ZM165.302 39.3351C166.088 39.4818 166.735 39.8751 167.242 40.5151C167.748 41.1551 168.002 41.8885 168.002 42.7151C168.002 43.4618 167.815 44.1218 167.442 44.6951C167.082 45.2551 166.555 45.6951 165.862 46.0151C165.168 46.3351 164.348 46.4951 163.402 46.4951H157.382V32.5351H163.142C164.088 32.5351 164.902 32.6885 165.582 32.9951C166.275 33.3018 166.795 33.7285 167.142 34.2751C167.502 34.8218 167.682 35.4418 167.682 36.1351C167.682 36.9485 167.462 37.6285 167.022 38.1751C166.595 38.7218 166.022 39.1085 165.302 39.3351ZM160.182 38.2951H162.742C163.408 38.2951 163.922 38.1485 164.282 37.8551C164.642 37.5485 164.822 37.1151 164.822 36.5551C164.822 35.9951 164.642 35.5618 164.282 35.2551C163.922 34.9484 163.408 34.7951 162.742 34.7951H160.182V38.2951ZM163.002 44.2151C163.682 44.2151 164.208 44.0551 164.582 43.7351C164.968 43.4151 165.162 42.9618 165.162 42.3751C165.162 41.7751 164.962 41.3085 164.562 40.9751C164.162 40.6285 163.622 40.4551 162.942 40.4551H160.182V44.2151H163.002ZM173.433 44.2751H178.033V46.4951H170.633V32.5351H173.433V44.2751ZM183.013 34.7951V38.2951H187.713V40.5151H183.013V44.2151H188.313V46.4951H180.213V32.5151H188.313V34.7951H183.013Z" fill="white"/>
<defs>
<linearGradient id="paint0_linear_776_34000" x1="4.98712" y1="95.6192" x2="199.442" y2="95.6191" gradientUnits="userSpaceOnUse">
<stop stop-color="#A83AFE"/>
<stop offset="1" stop-color="#6E59FE"/>
</linearGradient>
</defs>
</svg>
