<svg width="878" height="43" viewBox="0 0 878 43" fill="none" xmlns="http://www.w3.org/2000/svg">
<path d="M1 20C1 9.50659 9.50659 1 20 1H858C868.493 1 877 9.50659 877 20V23C877 33.4934 868.493 42 858 42H20C9.50659 42 1 33.4934 1 23V20Z" fill="#151515"/>
<path d="M360.056 28.126C358.892 28.126 357.818 27.856 356.834 27.316C355.862 26.764 355.088 26.002 354.512 25.03C353.948 24.046 353.666 22.942 353.666 21.718C353.666 20.494 353.948 19.396 354.512 18.424C355.088 17.452 355.862 16.696 356.834 16.156C357.818 15.604 358.892 15.328 360.056 15.328C361.232 15.328 362.306 15.604 363.278 16.156C364.262 16.696 365.036 17.452 365.6 18.424C366.164 19.396 366.446 20.494 366.446 21.718C366.446 22.942 366.164 24.046 365.6 25.03C365.036 26.002 364.262 26.764 363.278 27.316C362.306 27.856 361.232 28.126 360.056 28.126ZM360.056 26.344C360.884 26.344 361.622 26.158 362.27 25.786C362.918 25.402 363.422 24.862 363.782 24.166C364.154 23.458 364.34 22.642 364.34 21.718C364.34 20.794 364.154 19.984 363.782 19.288C363.422 18.592 362.918 18.058 362.27 17.686C361.622 17.314 360.884 17.128 360.056 17.128C359.228 17.128 358.49 17.314 357.842 17.686C357.194 18.058 356.684 18.592 356.312 19.288C355.952 19.984 355.772 20.794 355.772 21.718C355.772 22.642 355.952 23.458 356.312 24.166C356.684 24.862 357.194 25.402 357.842 25.786C358.49 26.158 359.228 26.344 360.056 26.344ZM376.547 15.49V17.164H371.237V20.854H375.377V22.528H371.237V28H369.185V15.49H376.547ZM386.531 15.49V17.164H381.221V20.854H385.361V22.528H381.221V28H379.169V15.49H386.531ZM391.205 17.146V20.818H395.525V22.492H391.205V26.326H396.065V28H389.153V15.472H396.065V17.146H391.205ZM405.81 28L402.93 22.996H401.364V28H399.312V15.49H403.632C404.592 15.49 405.402 15.658 406.062 15.994C406.734 16.33 407.232 16.78 407.556 17.344C407.892 17.908 408.06 18.538 408.06 19.234C408.06 20.05 407.82 20.794 407.34 21.466C406.872 22.126 406.146 22.576 405.162 22.816L408.258 28H405.81ZM401.364 21.358H403.632C404.4 21.358 404.976 21.166 405.36 20.782C405.756 20.398 405.954 19.882 405.954 19.234C405.954 18.586 405.762 18.082 405.378 17.722C404.994 17.35 404.412 17.164 403.632 17.164H401.364V21.358ZM415.527 28.126C414.687 28.126 413.931 27.982 413.259 27.694C412.587 27.394 412.059 26.974 411.675 26.434C411.291 25.894 411.099 25.264 411.099 24.544H413.295C413.343 25.084 413.553 25.528 413.925 25.876C414.309 26.224 414.843 26.398 415.527 26.398C416.235 26.398 416.787 26.23 417.183 25.894C417.579 25.546 417.777 25.102 417.777 24.562C417.777 24.142 417.651 23.8 417.399 23.536C417.159 23.272 416.853 23.068 416.481 22.924C416.121 22.78 415.617 22.624 414.969 22.456C414.153 22.24 413.487 22.024 412.971 21.808C412.467 21.58 412.035 21.232 411.675 20.764C411.315 20.296 411.135 19.672 411.135 18.892C411.135 18.172 411.315 17.542 411.675 17.002C412.035 16.462 412.539 16.048 413.187 15.76C413.835 15.472 414.585 15.328 415.437 15.328C416.649 15.328 417.639 15.634 418.407 16.246C419.187 16.846 419.619 17.674 419.703 18.73H417.435C417.399 18.274 417.183 17.884 416.787 17.56C416.391 17.236 415.869 17.074 415.221 17.074C414.633 17.074 414.153 17.224 413.781 17.524C413.409 17.824 413.223 18.256 413.223 18.82C413.223 19.204 413.337 19.522 413.565 19.774C413.805 20.014 414.105 20.206 414.465 20.35C414.825 20.494 415.317 20.65 415.941 20.818C416.769 21.046 417.441 21.274 417.957 21.502C418.485 21.73 418.929 22.084 419.289 22.564C419.661 23.032 419.847 23.662 419.847 24.454C419.847 25.09 419.673 25.69 419.325 26.254C418.989 26.818 418.491 27.274 417.831 27.622C417.183 27.958 416.415 28.126 415.527 28.126ZM435.926 25.444H430.688L429.788 28H427.646L432.128 15.472H434.504L438.986 28H436.826L435.926 25.444ZM435.35 23.77L433.316 17.956L431.264 23.77H435.35ZM452.437 15.49L447.739 28H445.363L440.647 15.49H442.843L446.551 25.894L450.277 15.49H452.437ZM462.415 25.444H457.177L456.277 28H454.135L458.617 15.472H460.993L465.475 28H463.315L462.415 25.444ZM461.839 23.77L459.805 17.956L457.753 23.77H461.839ZM470.196 15.49V28H468.144V15.49H470.196ZM475.662 26.344H479.892V28H473.61V15.49H475.662V26.344ZM489.87 25.444H484.632L483.732 28H481.59L486.072 15.472H488.448L492.93 28H490.77L489.87 25.444ZM489.294 23.77L487.26 17.956L485.208 23.77H489.294ZM502.295 21.574C502.967 21.694 503.537 22.048 504.005 22.636C504.473 23.224 504.707 23.89 504.707 24.634C504.707 25.27 504.539 25.846 504.203 26.362C503.879 26.866 503.405 27.268 502.781 27.568C502.157 27.856 501.431 28 500.603 28H495.599V15.49H500.369C501.221 15.49 501.953 15.634 502.565 15.922C503.177 16.21 503.639 16.6 503.951 17.092C504.263 17.572 504.419 18.112 504.419 18.712C504.419 19.432 504.227 20.032 503.843 20.512C503.459 20.992 502.943 21.346 502.295 21.574ZM497.651 20.746H500.189C500.861 20.746 501.383 20.596 501.755 20.296C502.139 19.984 502.331 19.54 502.331 18.964C502.331 18.4 502.139 17.962 501.755 17.65C501.383 17.326 500.861 17.164 500.189 17.164H497.651V20.746ZM500.423 26.326C501.119 26.326 501.665 26.158 502.061 25.822C502.457 25.486 502.655 25.018 502.655 24.418C502.655 23.806 502.445 23.32 502.025 22.96C501.605 22.6 501.047 22.42 500.351 22.42H497.651V26.326H500.423ZM509.709 26.344H513.939V28H507.657V15.49H509.709V26.344ZM518.427 17.146V20.818H522.747V22.492H518.427V26.326H523.287V28H516.375V15.472H523.287V17.146H518.427Z" fill="#A831F1"/>
<path d="M1 20C1 9.50659 9.50659 1 20 1H858C868.493 1 877 9.50659 877 20V23C877 33.4934 868.493 42 858 42H20C9.50659 42 1 33.4934 1 23V20Z" stroke="url(#paint0_linear_776_34732)" stroke-width="2"/>
<defs>
<linearGradient id="paint0_linear_776_34732" x1="6.46291e-07" y1="21.5002" x2="878" y2="21.5001" gradientUnits="userSpaceOnUse">
<stop offset="0.0130004" stop-color="#151515"/>
<stop offset="0.220865" stop-color="#3BA0FE"/>
<stop offset="0.380974" stop-color="#A035F1"/>
<stop offset="0.592576" stop-color="#0F73E8"/>
<stop offset="0.75" stop-color="#FF0D0D"/>
<stop offset="0.985373" stop-color="#151515"/>
</linearGradient>
</defs>
</svg>
