<svg width="480" height="65" viewBox="0 0 480 65" fill="none" xmlns="http://www.w3.org/2000/svg">
<rect x="1" y="11.0039" width="478" height="41" rx="19" fill="#151515"/>
<path d="M161.056 38.1299C159.892 38.1299 158.818 37.8599 157.834 37.3199C156.862 36.7679 156.088 36.0059 155.512 35.0339C154.948 34.0499 154.666 32.9459 154.666 31.7219C154.666 30.4979 154.948 29.3999 155.512 28.4279C156.088 27.4559 156.862 26.6999 157.834 26.1599C158.818 25.6079 159.892 25.3319 161.056 25.3319C162.232 25.3319 163.306 25.6079 164.278 26.1599C165.262 26.6999 166.036 27.4559 166.6 28.4279C167.164 29.3999 167.446 30.4979 167.446 31.7219C167.446 32.9459 167.164 34.0499 166.6 35.0339C166.036 36.0059 165.262 36.7679 164.278 37.3199C163.306 37.8599 162.232 38.1299 161.056 38.1299ZM161.056 36.3479C161.884 36.3479 162.622 36.1619 163.27 35.7899C163.918 35.4059 164.422 34.8659 164.782 34.1699C165.154 33.4619 165.34 32.6459 165.34 31.7219C165.34 30.7979 165.154 29.9879 164.782 29.2919C164.422 28.5959 163.918 28.0619 163.27 27.6899C162.622 27.3179 161.884 27.1319 161.056 27.1319C160.228 27.1319 159.49 27.3179 158.842 27.6899C158.194 28.0619 157.684 28.5959 157.312 29.2919C156.952 29.9879 156.772 30.7979 156.772 31.7219C156.772 32.6459 156.952 33.4619 157.312 34.1699C157.684 34.8659 158.194 35.4059 158.842 35.7899C159.49 36.1619 160.228 36.3479 161.056 36.3479ZM177.547 25.4939V27.1679H172.237V30.8579H176.377V32.5319H172.237V38.0039H170.185V25.4939H177.547ZM187.531 25.4939V27.1679H182.221V30.8579H186.361V32.5319H182.221V38.0039H180.169V25.4939H187.531ZM192.205 27.1499V30.8219H196.525V32.4959H192.205V36.3299H197.065V38.0039H190.153V25.4759H197.065V27.1499H192.205ZM206.81 38.0039L203.93 32.9999H202.364V38.0039H200.312V25.4939H204.632C205.592 25.4939 206.402 25.6619 207.062 25.9979C207.734 26.3339 208.232 26.7839 208.556 27.3479C208.892 27.9119 209.06 28.5419 209.06 29.2379C209.06 30.0539 208.82 30.7979 208.34 31.4699C207.872 32.1299 207.146 32.5799 206.162 32.8199L209.258 38.0039H206.81ZM202.364 31.3619H204.632C205.4 31.3619 205.976 31.1699 206.36 30.7859C206.756 30.4019 206.954 29.8859 206.954 29.2379C206.954 28.5899 206.762 28.0859 206.378 27.7259C205.994 27.3539 205.412 27.1679 204.632 27.1679H202.364V31.3619ZM216.527 38.1299C215.687 38.1299 214.931 37.9859 214.259 37.6979C213.587 37.3979 213.059 36.9779 212.675 36.4379C212.291 35.8979 212.099 35.2679 212.099 34.5479H214.295C214.343 35.0879 214.553 35.5319 214.925 35.8799C215.309 36.2279 215.843 36.4019 216.527 36.4019C217.235 36.4019 217.787 36.2339 218.183 35.8979C218.579 35.5499 218.777 35.1059 218.777 34.5659C218.777 34.1459 218.651 33.8039 218.399 33.5399C218.159 33.2759 217.853 33.0719 217.481 32.9279C217.121 32.7839 216.617 32.6279 215.969 32.4599C215.153 32.2439 214.487 32.0279 213.971 31.8119C213.467 31.5839 213.035 31.2359 212.675 30.7679C212.315 30.2999 212.135 29.6759 212.135 28.8959C212.135 28.1759 212.315 27.5459 212.675 27.0059C213.035 26.4659 213.539 26.0519 214.187 25.7639C214.835 25.4759 215.585 25.3319 216.437 25.3319C217.649 25.3319 218.639 25.6379 219.407 26.2499C220.187 26.8499 220.619 27.6779 220.703 28.7339H218.435C218.399 28.2779 218.183 27.8879 217.787 27.5639C217.391 27.2399 216.869 27.0779 216.221 27.0779C215.633 27.0779 215.153 27.2279 214.781 27.5279C214.409 27.8279 214.223 28.2599 214.223 28.8239C214.223 29.2079 214.337 29.5259 214.565 29.7779C214.805 30.0179 215.105 30.2099 215.465 30.3539C215.825 30.4979 216.317 30.6539 216.941 30.8219C217.769 31.0499 218.441 31.2779 218.957 31.5059C219.485 31.7339 219.929 32.0879 220.289 32.5679C220.661 33.0359 220.847 33.6659 220.847 34.4579C220.847 35.0939 220.673 35.6939 220.325 36.2579C219.989 36.8219 219.491 37.2779 218.831 37.6259C218.183 37.9619 217.415 38.1299 216.527 38.1299ZM236.926 35.4479H231.688L230.788 38.0039H228.646L233.128 25.4759H235.504L239.986 38.0039H237.826L236.926 35.4479ZM236.35 33.7739L234.316 27.9599L232.264 33.7739H236.35ZM253.437 25.4939L248.739 38.0039H246.363L241.647 25.4939H243.843L247.551 35.8979L251.277 25.4939H253.437ZM263.415 35.4479H258.177L257.277 38.0039H255.135L259.617 25.4759H261.993L266.475 38.0039H264.315L263.415 35.4479ZM262.839 33.7739L260.805 27.9599L258.753 33.7739H262.839ZM271.196 25.4939V38.0039H269.144V25.4939H271.196ZM276.662 36.3479H280.892V38.0039H274.61V25.4939H276.662V36.3479ZM290.87 35.4479H285.632L284.732 38.0039H282.59L287.072 25.4759H289.448L293.93 38.0039H291.77L290.87 35.4479ZM290.294 33.7739L288.26 27.9599L286.208 33.7739H290.294ZM303.295 31.5779C303.967 31.6979 304.537 32.0519 305.005 32.6399C305.473 33.2279 305.707 33.8939 305.707 34.6379C305.707 35.2739 305.539 35.8499 305.203 36.3659C304.879 36.8699 304.405 37.2719 303.781 37.5719C303.157 37.8599 302.431 38.0039 301.603 38.0039H296.599V25.4939H301.369C302.221 25.4939 302.953 25.6379 303.565 25.9259C304.177 26.2139 304.639 26.6039 304.951 27.0959C305.263 27.5759 305.419 28.1159 305.419 28.7159C305.419 29.4359 305.227 30.0359 304.843 30.5159C304.459 30.9959 303.943 31.3499 303.295 31.5779ZM298.651 30.7499H301.189C301.861 30.7499 302.383 30.5999 302.755 30.2999C303.139 29.9879 303.331 29.5439 303.331 28.9679C303.331 28.4039 303.139 27.9659 302.755 27.6539C302.383 27.3299 301.861 27.1679 301.189 27.1679H298.651V30.7499ZM301.423 36.3299C302.119 36.3299 302.665 36.1619 303.061 35.8259C303.457 35.4899 303.655 35.0219 303.655 34.4219C303.655 33.8099 303.445 33.3239 303.025 32.9639C302.605 32.6039 302.047 32.4239 301.351 32.4239H298.651V36.3299H301.423ZM310.709 36.3479H314.939V38.0039H308.657V25.4939H310.709V36.3479ZM319.427 27.1499V30.8219H323.747V32.4959H319.427V36.3299H324.287V38.0039H317.375V25.4759H324.287V27.1499H319.427Z" fill="#A831F1"/>
<rect x="1" y="11.0039" width="478" height="41" rx="19" stroke="url(#paint0_linear_1360_2347)" stroke-width="2"/>
<path d="M405.552 40.057L405.459 39.4655C408.321 39.0153 410.734 36.8204 413.288 34.496C414.067 33.7866 414.873 33.0529 415.696 32.3704C418.958 29.663 423.295 28.8509 427.296 30.1985C428.331 30.5474 429.368 30.9531 430.37 31.3445C433.563 32.5935 436.58 33.7729 439.4 33.1874C442.095 32.6243 444.349 30.5604 446.734 28.3757C447.66 27.5272 448.618 26.6497 449.613 25.856C452.798 23.3194 457.167 22.6845 461.301 24.1574L461.1 24.7215C457.163 23.3186 453.009 23.9184 449.987 26.3245C449.008 27.1054 448.058 27.9755 447.138 28.8175C444.691 31.0594 442.379 33.1776 439.523 33.7743C436.527 34.396 433.43 33.1851 430.151 31.9027C429.156 31.5131 428.126 31.1104 427.106 30.7662C423.303 29.4853 419.18 30.2579 416.078 32.8312C415.267 33.5052 414.466 34.2345 413.691 34.9392C411.069 37.3253 408.591 39.5796 405.552 40.057Z" fill="url(#paint1_linear_1360_2347)"/>
<path opacity="0.8" d="M388.733 28.113L388.78 27.8172C387.349 27.5921 386.142 26.4946 384.865 25.3324C384.475 24.9777 384.072 24.6108 383.661 24.2696C382.03 22.9159 379.861 22.5098 377.861 23.1836C377.343 23.358 376.825 23.5609 376.324 23.7566C374.727 24.3812 373.219 24.9709 371.808 24.6781C370.461 24.3965 369.334 23.3646 368.142 22.2722C367.678 21.8479 367.2 21.4092 366.702 21.0123C365.109 19.7439 362.925 19.4265 360.858 20.163L360.958 20.445C362.927 19.7436 365.004 20.0434 366.515 21.2465C367.005 21.637 367.48 22.0721 367.939 22.4931C369.163 23.6141 370.319 24.6732 371.747 24.9716C373.245 25.2824 374.793 24.6769 376.433 24.0357C376.931 23.8409 377.446 23.6396 377.956 23.4675C379.858 22.827 381.919 23.2133 383.47 24.5C383.876 24.837 384.276 25.2017 384.663 25.554C385.975 26.7471 387.213 27.8743 388.733 28.113Z" fill="url(#paint2_linear_1360_2347)"/>
<path opacity="0.8" d="M91.5822 28.113L91.5356 27.8172C92.9667 27.5921 94.1731 26.4946 95.4501 25.3324C95.8397 24.9777 96.2428 24.6108 96.6541 24.2696C98.2855 22.9159 100.454 22.5098 102.455 23.1836C102.972 23.358 103.49 23.5609 103.991 23.7566C105.588 24.3812 107.096 24.9709 108.507 24.6781C109.854 24.3965 110.981 23.3646 112.174 22.2722C112.637 21.8479 113.116 21.4092 113.613 21.0123C115.206 19.7439 117.391 19.4265 119.457 20.163L119.357 20.445C117.388 19.7436 115.311 20.0434 113.8 21.2465C113.311 21.637 112.835 22.0721 112.376 22.4931C111.152 23.6141 109.996 24.6732 108.568 24.9716C107.07 25.2824 105.522 24.6769 103.882 24.0357C103.384 23.8409 102.869 23.6396 102.359 23.4675C100.458 22.827 98.3963 23.2133 96.8454 24.5C96.4396 24.837 96.0392 25.2017 95.6519 25.554C94.3405 26.7471 93.1017 27.8743 91.5822 28.113Z" fill="url(#paint3_linear_1360_2347)"/>
<path d="M77.9678 40.057L78.0609 39.4655C75.1989 39.0153 72.7862 36.8204 70.2321 34.496C69.4529 33.7866 68.6468 33.0529 67.8243 32.3704C64.5615 29.663 60.2248 28.8509 56.2235 30.1985C55.1891 30.5474 54.1524 30.9531 53.1502 31.3445C49.9566 32.5935 46.9403 33.7729 44.1197 33.1874C41.4249 32.6243 39.1713 30.5604 36.786 28.3757C35.8595 27.5272 34.9021 26.6497 33.9065 25.856C30.7219 23.3194 26.3525 22.6845 22.2187 24.1574L22.4199 24.7215C26.357 23.3186 30.5112 23.9184 33.5327 26.3245C34.5122 27.1054 35.4623 27.9755 36.3814 28.8175C38.8294 31.0594 41.1413 33.1776 43.9973 33.7743C46.9925 34.396 50.0895 33.1851 53.3685 31.9027C54.3639 31.5131 55.394 31.1104 56.4142 30.7662C60.2173 29.4853 64.3399 30.2579 67.4415 32.8312C68.2531 33.5052 69.0541 34.2345 69.8286 34.9392C72.4513 37.3253 74.9287 39.5796 77.9678 40.057Z" fill="url(#paint4_linear_1360_2347)"/>
<path d="M147.645 22.0824L147.67 21.924C146.903 21.8033 146.257 21.2153 145.573 20.5927C145.364 20.4026 145.148 20.2061 144.928 20.0232C144.054 19.298 142.892 19.0804 141.82 19.4414C141.543 19.5349 141.265 19.6436 140.997 19.7484C140.141 20.083 139.333 20.399 138.578 20.2421C137.856 20.0913 137.252 19.5384 136.613 18.9531C136.365 18.7258 136.108 18.4908 135.842 18.2781C134.988 17.5986 133.818 17.4285 132.711 17.8231L132.764 17.9742C133.819 17.5984 134.932 17.7591 135.741 18.4036C136.004 18.6128 136.258 18.8459 136.505 19.0715C137.16 19.6721 137.78 20.2395 138.545 20.3994C139.347 20.5659 140.177 20.2415 141.055 19.898C141.322 19.7936 141.598 19.6857 141.871 19.5935C142.89 19.2504 143.994 19.4573 144.825 20.1467C145.043 20.3273 145.257 20.5226 145.465 20.7114C146.167 21.3506 146.831 21.9545 147.645 22.0824Z" fill="url(#paint5_linear_1360_2347)"/>
<path d="M334.356 32.0824L334.331 31.924C335.097 31.8033 335.744 31.2153 336.428 30.5927C336.637 30.4026 336.853 30.2061 337.073 30.0232C337.947 29.298 339.109 29.0804 340.181 29.4414C340.458 29.5349 340.736 29.6436 341.004 29.7484C341.86 30.083 342.668 30.399 343.423 30.2421C344.145 30.0913 344.749 29.5384 345.388 28.9531C345.636 28.7258 345.892 28.4908 346.159 28.2781C347.012 27.5986 348.183 27.4285 349.29 27.8231L349.236 27.9742C348.182 27.5984 347.069 27.7591 346.259 28.4036C345.997 28.6128 345.742 28.8459 345.496 29.0715C344.84 29.6721 344.221 30.2395 343.456 30.3994C342.654 30.5659 341.824 30.2415 340.946 29.898C340.679 29.7936 340.403 29.6857 340.13 29.5935C339.111 29.2504 338.006 29.4573 337.176 30.1467C336.958 30.3273 336.744 30.5226 336.536 30.7114C335.833 31.3506 335.17 31.9545 334.356 32.0824Z" fill="url(#paint6_linear_1360_2347)"/>
<path d="M311.691 25.9995C310.289 25.9995 309.147 24.8579 309.147 23.4553C309.147 22.0527 310.289 20.9111 311.691 20.9111C313.094 20.9111 314.236 22.0527 314.236 23.4553C314.236 24.8579 313.095 25.9995 311.691 25.9995ZM311.691 21.5098C310.619 21.5098 309.746 22.3826 309.746 23.4553C309.746 24.528 310.619 25.4008 311.691 25.4008C312.764 25.4008 313.637 24.528 313.637 23.4553C313.637 22.3826 312.764 21.5098 311.691 21.5098Z" fill="url(#paint7_linear_1360_2347)"/>
<path d="M353.446 32.2861C352.786 32.2861 352.249 31.7489 352.249 31.0889C352.249 30.4288 352.786 29.8916 353.446 29.8916C354.106 29.8916 354.643 30.4288 354.643 31.0889C354.643 31.7489 354.106 32.2861 353.446 32.2861ZM353.446 30.1733C352.941 30.1733 352.53 30.584 352.53 31.0889C352.53 31.5937 352.941 32.0044 353.446 32.0044C353.951 32.0044 354.361 31.5937 354.361 31.0889C354.361 30.584 353.951 30.1733 353.446 30.1733Z" fill="url(#paint8_linear_1360_2347)"/>
<path d="M401.934 27.498C400.944 27.498 400.139 26.6922 400.139 25.7021C400.139 24.7121 400.944 23.9062 401.934 23.9062C402.924 23.9062 403.73 24.7121 403.73 25.7021C403.73 26.6922 402.925 27.498 401.934 27.498ZM401.934 24.3288C401.177 24.3288 400.561 24.9449 400.561 25.7021C400.561 26.4594 401.177 27.0754 401.934 27.0754C402.692 27.0754 403.308 26.4594 403.308 25.7021C403.308 24.9449 402.692 24.3288 401.934 24.3288Z" fill="url(#paint9_linear_1360_2347)"/>
<path d="M478.858 31.6875C478.363 31.6875 477.96 31.2846 477.96 30.7895C477.96 30.2945 478.363 29.8916 478.858 29.8916C479.353 29.8916 479.756 30.2945 479.756 30.7895C479.756 31.2846 479.353 31.6875 478.858 31.6875ZM478.858 30.1029C478.479 30.1029 478.171 30.4109 478.171 30.7895C478.171 31.1682 478.479 31.4762 478.858 31.4762C479.237 31.4762 479.545 31.1682 479.545 30.7895C479.545 30.4109 479.237 30.1029 478.858 30.1029Z" fill="url(#paint10_linear_1360_2347)"/>
<path d="M175.504 18.9995C176.907 18.9995 178.048 17.8579 178.048 16.4553C178.048 15.0527 176.907 13.9111 175.504 13.9111C174.102 13.9111 172.96 15.0527 172.96 16.4553C172.96 17.8579 174.101 18.9995 175.504 18.9995ZM175.504 14.5098C176.577 14.5098 177.45 15.3826 177.45 16.4553C177.45 17.528 176.577 18.4008 175.504 18.4008C174.431 18.4008 173.559 17.528 173.559 16.4553C173.559 15.3826 174.431 14.5098 175.504 14.5098Z" fill="url(#paint11_linear_1360_2347)"/>
<path d="M133.75 32.2861C134.41 32.2861 134.948 31.7489 134.948 31.0889C134.948 30.4288 134.41 29.8916 133.75 29.8916C133.09 29.8916 132.553 30.4288 132.553 31.0889C132.553 31.7489 133.09 32.2861 133.75 32.2861ZM133.75 30.1733C134.255 30.1733 134.666 30.584 134.666 31.0889C134.666 31.5937 134.255 32.0044 133.75 32.0044C133.245 32.0044 132.835 31.5937 132.835 31.0889C132.835 30.584 133.245 30.1733 133.75 30.1733Z" fill="url(#paint12_linear_1360_2347)"/>
<path d="M85.2615 27.498C86.2516 27.498 87.0574 26.6922 87.0574 25.7021C87.0574 24.7121 86.2516 23.9062 85.2615 23.9062C84.2714 23.9062 83.4656 24.7121 83.4656 25.7021C83.4656 26.6922 84.271 27.498 85.2615 27.498ZM85.2615 24.3288C86.0187 24.3288 86.6348 24.9449 86.6348 25.7021C86.6348 26.4594 86.0187 27.0754 85.2615 27.0754C84.5043 27.0754 83.8882 26.4594 83.8882 25.7021C83.8882 24.9449 84.5043 24.3288 85.2615 24.3288Z" fill="url(#paint13_linear_1360_2347)"/>
<path d="M8.33766 31.6875C8.83269 31.6875 9.2356 31.2846 9.2356 30.7895C9.2356 30.2945 8.83269 29.8916 8.33766 29.8916C7.84263 29.8916 7.43972 30.2945 7.43972 30.7895C7.43972 31.2846 7.84242 31.6875 8.33766 31.6875ZM8.33766 30.1029C8.71627 30.1029 9.02432 30.4109 9.02432 30.7895C9.02432 31.1682 8.71627 31.4762 8.33766 31.4762C7.95904 31.4762 7.651 31.1682 7.651 30.7895C7.651 30.4109 7.95904 30.1029 8.33766 30.1029Z" fill="url(#paint14_linear_1360_2347)"/>
<path d="M453.168 35.5339C453.168 36.1637 452.657 36.6743 452.027 36.6743C451.398 36.6743 450.887 36.1637 450.887 35.5339C450.887 34.9042 451.398 34.3936 452.027 34.3936C452.657 34.3942 453.168 34.9042 453.168 35.5339Z" fill="url(#paint15_linear_1360_2347)"/>
<path d="M380.249 29.0049C380.249 29.3355 379.981 29.6035 379.651 29.6035C379.32 29.6035 379.052 29.3355 379.052 29.0049C379.052 28.6743 379.32 28.4062 379.651 28.4062C379.981 28.4066 380.249 28.6743 380.249 29.0049Z" fill="url(#paint16_linear_1360_2347)"/>
<path d="M331.762 24.5156C331.762 24.6811 331.627 24.8153 331.462 24.8153C331.296 24.8153 331.162 24.6811 331.162 24.5156C331.162 24.35 331.296 24.2158 331.462 24.2158C331.627 24.216 331.762 24.35 331.762 24.5156Z" fill="url(#paint17_linear_1360_2347)"/>
<path d="M33.6448 35.5339C33.6448 36.1637 34.1554 36.6743 34.7852 36.6743C35.4149 36.6743 35.9255 36.1637 35.9255 35.5339C35.9255 34.9042 35.4149 34.3936 34.7852 34.3936C34.1554 34.3942 33.6448 34.9042 33.6448 35.5339Z" fill="url(#paint18_linear_1360_2347)"/>
<path d="M106.563 29.0049C106.563 29.3355 106.832 29.6035 107.162 29.6035C107.493 29.6035 107.761 29.3355 107.761 29.0049C107.761 28.6743 107.493 28.4062 107.162 28.4062C106.832 28.4066 106.563 28.6743 106.563 29.0049Z" fill="url(#paint19_linear_1360_2347)"/>
<path d="M155.051 44.5166C155.051 44.6821 155.185 44.8163 155.351 44.8163C155.516 44.8163 155.651 44.6821 155.651 44.5166C155.651 44.351 155.516 44.2168 155.351 44.2168C155.185 44.217 155.051 44.351 155.051 44.5166Z" fill="url(#paint20_linear_1360_2347)"/>
<defs>
<linearGradient id="paint0_linear_1360_2347" x1="3.53326e-07" y1="31.5041" x2="480" y2="31.5041" gradientUnits="userSpaceOnUse">
<stop offset="0.0130004" stop-color="#151515"/>
<stop offset="0.220865" stop-color="#3BA0FE"/>
<stop offset="0.380974" stop-color="#A035F1"/>
<stop offset="0.592576" stop-color="#0F73E8"/>
<stop offset="0.75" stop-color="#FF0D0D"/>
<stop offset="0.985373" stop-color="#151515"/>
</linearGradient>
<linearGradient id="paint1_linear_1360_2347" x1="441.452" y1="52.184" x2="419.676" y2="13.4863" gradientUnits="userSpaceOnUse">
<stop stop-color="#0575E6"/>
<stop offset="1" stop-color="#FF0CF5"/>
</linearGradient>
<linearGradient id="paint2_linear_1360_2347" x1="370.783" y1="34.1767" x2="381.671" y2="14.8273" gradientUnits="userSpaceOnUse">
<stop stop-color="#0575E6"/>
<stop offset="1" stop-color="#FF0CF5"/>
</linearGradient>
<linearGradient id="paint3_linear_1360_2347" x1="109.533" y1="34.1767" x2="98.6444" y2="14.8273" gradientUnits="userSpaceOnUse">
<stop stop-color="#0575E6"/>
<stop offset="1" stop-color="#FF0CF5"/>
</linearGradient>
<linearGradient id="paint4_linear_1360_2347" x1="42.0679" y1="52.184" x2="63.8437" y2="13.4863" gradientUnits="userSpaceOnUse">
<stop stop-color="#0575E6"/>
<stop offset="1" stop-color="#FF0CF5"/>
</linearGradient>
<linearGradient id="paint5_linear_1360_2347" x1="138.028" y1="25.3311" x2="143.861" y2="14.9644" gradientUnits="userSpaceOnUse">
<stop stop-color="#0575E6"/>
<stop offset="1" stop-color="#FF0CF5"/>
</linearGradient>
<linearGradient id="paint6_linear_1360_2347" x1="343.973" y1="35.3311" x2="338.139" y2="24.9644" gradientUnits="userSpaceOnUse">
<stop stop-color="#0575E6"/>
<stop offset="1" stop-color="#FF0CF5"/>
</linearGradient>
<linearGradient id="paint7_linear_1360_2347" x1="314.151" y1="24.8209" x2="309.147" y2="21.8971" gradientUnits="userSpaceOnUse">
<stop stop-color="#0575E6"/>
<stop offset="1" stop-color="#FF0CF5"/>
</linearGradient>
<linearGradient id="paint8_linear_1360_2347" x1="354.603" y1="31.7315" x2="352.249" y2="30.3556" gradientUnits="userSpaceOnUse">
<stop stop-color="#0575E6"/>
<stop offset="1" stop-color="#FF0CF5"/>
</linearGradient>
<linearGradient id="paint9_linear_1360_2347" x1="403.67" y1="26.6661" x2="400.139" y2="24.6022" gradientUnits="userSpaceOnUse">
<stop stop-color="#0575E6"/>
<stop offset="1" stop-color="#FF0CF5"/>
</linearGradient>
<linearGradient id="paint10_linear_1360_2347" x1="479.726" y1="31.2715" x2="477.96" y2="30.2396" gradientUnits="userSpaceOnUse">
<stop stop-color="#0575E6"/>
<stop offset="1" stop-color="#FF0CF5"/>
</linearGradient>
<linearGradient id="paint11_linear_1360_2347" x1="173.045" y1="17.8209" x2="178.048" y2="14.8971" gradientUnits="userSpaceOnUse">
<stop stop-color="#0575E6"/>
<stop offset="1" stop-color="#FF0CF5"/>
</linearGradient>
<linearGradient id="paint12_linear_1360_2347" x1="132.593" y1="31.7315" x2="134.948" y2="30.3556" gradientUnits="userSpaceOnUse">
<stop stop-color="#0575E6"/>
<stop offset="1" stop-color="#FF0CF5"/>
</linearGradient>
<linearGradient id="paint13_linear_1360_2347" x1="83.5256" y1="26.6661" x2="87.0574" y2="24.6022" gradientUnits="userSpaceOnUse">
<stop stop-color="#0575E6"/>
<stop offset="1" stop-color="#FF0CF5"/>
</linearGradient>
<linearGradient id="paint14_linear_1360_2347" x1="7.46972" y1="31.2715" x2="9.2356" y2="30.2396" gradientUnits="userSpaceOnUse">
<stop stop-color="#0575E6"/>
<stop offset="1" stop-color="#FF0CF5"/>
</linearGradient>
<linearGradient id="paint15_linear_1360_2347" x1="453.168" y1="34.3936" x2="450.887" y2="34.3936" gradientUnits="userSpaceOnUse">
<stop stop-color="#A83AFE"/>
<stop offset="1" stop-color="#6E59FE"/>
</linearGradient>
<linearGradient id="paint16_linear_1360_2347" x1="380.249" y1="28.4062" x2="379.052" y2="28.4062" gradientUnits="userSpaceOnUse">
<stop stop-color="#A83AFE"/>
<stop offset="1" stop-color="#6E59FE"/>
</linearGradient>
<linearGradient id="paint17_linear_1360_2347" x1="331.762" y1="24.2158" x2="331.162" y2="24.2158" gradientUnits="userSpaceOnUse">
<stop stop-color="#A83AFE"/>
<stop offset="1" stop-color="#6E59FE"/>
</linearGradient>
<linearGradient id="paint18_linear_1360_2347" x1="33.6448" y1="34.3936" x2="35.9255" y2="34.3936" gradientUnits="userSpaceOnUse">
<stop stop-color="#A83AFE"/>
<stop offset="1" stop-color="#6E59FE"/>
</linearGradient>
<linearGradient id="paint19_linear_1360_2347" x1="106.563" y1="28.4062" x2="107.761" y2="28.4062" gradientUnits="userSpaceOnUse">
<stop stop-color="#A83AFE"/>
<stop offset="1" stop-color="#6E59FE"/>
</linearGradient>
<linearGradient id="paint20_linear_1360_2347" x1="155.051" y1="44.2168" x2="155.651" y2="44.2168" gradientUnits="userSpaceOnUse">
<stop stop-color="#A83AFE"/>
<stop offset="1" stop-color="#6E59FE"/>
</linearGradient>
</defs>
</svg>
