<svg width="898" height="75" viewBox="0 0 898 75" fill="none" xmlns="http://www.w3.org/2000/svg">
<g clip-path="url(#clip0_1360_1267)">
<path d="M30 22.9219H868C878.493 22.9219 887 31.4285 887 41.9219V44.9219C887 55.4153 878.493 63.9219 868 63.9219H30C19.5066 63.9219 11 55.4153 11 44.9219V41.9219C11 31.4285 19.5066 22.9219 30 22.9219Z" fill="#151515"/>
<path d="M370.056 50.0479C368.892 50.0479 367.818 49.7779 366.834 49.2379C365.862 48.6859 365.088 47.9239 364.512 46.9519C363.948 45.9679 363.666 44.8639 363.666 43.6399C363.666 42.4159 363.948 41.3179 364.512 40.3459C365.088 39.3739 365.862 38.6179 366.834 38.0779C367.818 37.5259 368.892 37.2499 370.056 37.2499C371.232 37.2499 372.306 37.5259 373.278 38.0779C374.262 38.6179 375.036 39.3739 375.6 40.3459C376.164 41.3179 376.446 42.4159 376.446 43.6399C376.446 44.8639 376.164 45.9679 375.6 46.9519C375.036 47.9239 374.262 48.6859 373.278 49.2379C372.306 49.7779 371.232 50.0479 370.056 50.0479ZM370.056 48.2659C370.884 48.2659 371.622 48.0799 372.27 47.7079C372.918 47.3239 373.422 46.7839 373.782 46.0879C374.154 45.3799 374.34 44.5639 374.34 43.6399C374.34 42.7159 374.154 41.9059 373.782 41.2099C373.422 40.5139 372.918 39.9799 372.27 39.6079C371.622 39.2359 370.884 39.0499 370.056 39.0499C369.228 39.0499 368.49 39.2359 367.842 39.6079C367.194 39.9799 366.684 40.5139 366.312 41.2099C365.952 41.9059 365.772 42.7159 365.772 43.6399C365.772 44.5639 365.952 45.3799 366.312 46.0879C366.684 46.7839 367.194 47.3239 367.842 47.7079C368.49 48.0799 369.228 48.2659 370.056 48.2659ZM386.547 37.4119V39.0859H381.237V42.7759H385.377V44.4499H381.237V49.9219H379.185V37.4119H386.547ZM396.531 37.4119V39.0859H391.221V42.7759H395.361V44.4499H391.221V49.9219H389.169V37.4119H396.531ZM401.205 39.0679V42.7399H405.525V44.4139H401.205V48.2479H406.065V49.9219H399.153V37.3939H406.065V39.0679H401.205ZM415.81 49.9219L412.93 44.9179H411.364V49.9219H409.312V37.4119H413.632C414.592 37.4119 415.402 37.5799 416.062 37.9159C416.734 38.2519 417.232 38.7019 417.556 39.2659C417.892 39.8299 418.06 40.4599 418.06 41.1559C418.06 41.9719 417.82 42.7159 417.34 43.3879C416.872 44.0479 416.146 44.4979 415.162 44.7379L418.258 49.9219H415.81ZM411.364 43.2799H413.632C414.4 43.2799 414.976 43.0879 415.36 42.7039C415.756 42.3199 415.954 41.8039 415.954 41.1559C415.954 40.5079 415.762 40.0039 415.378 39.6439C414.994 39.2719 414.412 39.0859 413.632 39.0859H411.364V43.2799ZM425.527 50.0479C424.687 50.0479 423.931 49.9039 423.259 49.6159C422.587 49.3159 422.059 48.8959 421.675 48.3559C421.291 47.8159 421.099 47.1859 421.099 46.4659H423.295C423.343 47.0059 423.553 47.4499 423.925 47.7979C424.309 48.1459 424.843 48.3199 425.527 48.3199C426.235 48.3199 426.787 48.1519 427.183 47.8159C427.579 47.4679 427.777 47.0239 427.777 46.4839C427.777 46.0639 427.651 45.7219 427.399 45.4579C427.159 45.1939 426.853 44.9899 426.481 44.8459C426.121 44.7019 425.617 44.5459 424.969 44.3779C424.153 44.1619 423.487 43.9459 422.971 43.7299C422.467 43.5019 422.035 43.1539 421.675 42.6859C421.315 42.2179 421.135 41.5939 421.135 40.8139C421.135 40.0939 421.315 39.4639 421.675 38.9239C422.035 38.3839 422.539 37.9699 423.187 37.6819C423.835 37.3939 424.585 37.2499 425.437 37.2499C426.649 37.2499 427.639 37.5559 428.407 38.1679C429.187 38.7679 429.619 39.5959 429.703 40.6519H427.435C427.399 40.1959 427.183 39.8059 426.787 39.4819C426.391 39.1579 425.869 38.9959 425.221 38.9959C424.633 38.9959 424.153 39.1459 423.781 39.4459C423.409 39.7459 423.223 40.1779 423.223 40.7419C423.223 41.1259 423.337 41.4439 423.565 41.6959C423.805 41.9359 424.105 42.1279 424.465 42.2719C424.825 42.4159 425.317 42.5719 425.941 42.7399C426.769 42.9679 427.441 43.1959 427.957 43.4239C428.485 43.6519 428.929 44.0059 429.289 44.4859C429.661 44.9539 429.847 45.5839 429.847 46.3759C429.847 47.0119 429.673 47.6119 429.325 48.1759C428.989 48.7399 428.491 49.1959 427.831 49.5439C427.183 49.8799 426.415 50.0479 425.527 50.0479ZM445.926 47.3659H440.688L439.788 49.9219H437.646L442.128 37.3939H444.504L448.986 49.9219H446.826L445.926 47.3659ZM445.35 45.6919L443.316 39.8779L441.264 45.6919H445.35ZM462.437 37.4119L457.739 49.9219H455.363L450.647 37.4119H452.843L456.551 47.8159L460.277 37.4119H462.437ZM472.415 47.3659H467.177L466.277 49.9219H464.135L468.617 37.3939H470.993L475.475 49.9219H473.315L472.415 47.3659ZM471.839 45.6919L469.805 39.8779L467.753 45.6919H471.839ZM480.196 37.4119V49.9219H478.144V37.4119H480.196ZM485.662 48.2659H489.892V49.9219H483.61V37.4119H485.662V48.2659ZM499.87 47.3659H494.632L493.732 49.9219H491.59L496.072 37.3939H498.448L502.93 49.9219H500.77L499.87 47.3659ZM499.294 45.6919L497.26 39.8779L495.208 45.6919H499.294ZM512.295 43.4959C512.967 43.6159 513.537 43.9699 514.005 44.5579C514.473 45.1459 514.707 45.8119 514.707 46.5559C514.707 47.1919 514.539 47.7679 514.203 48.2839C513.879 48.7879 513.405 49.1899 512.781 49.4899C512.157 49.7779 511.431 49.9219 510.603 49.9219H505.599V37.4119H510.369C511.221 37.4119 511.953 37.5559 512.565 37.8439C513.177 38.1319 513.639 38.5219 513.951 39.0139C514.263 39.4939 514.419 40.0339 514.419 40.6339C514.419 41.3539 514.227 41.9539 513.843 42.4339C513.459 42.9139 512.943 43.2679 512.295 43.4959ZM507.651 42.6679H510.189C510.861 42.6679 511.383 42.5179 511.755 42.2179C512.139 41.9059 512.331 41.4619 512.331 40.8859C512.331 40.3219 512.139 39.8839 511.755 39.5719C511.383 39.2479 510.861 39.0859 510.189 39.0859H507.651V42.6679ZM510.423 48.2479C511.119 48.2479 511.665 48.0799 512.061 47.7439C512.457 47.4079 512.655 46.9399 512.655 46.3399C512.655 45.7279 512.445 45.2419 512.025 44.8819C511.605 44.5219 511.047 44.3419 510.351 44.3419H507.651V48.2479H510.423ZM519.709 48.2659H523.939V49.9219H517.657V37.4119H519.709V48.2659ZM528.427 39.0679V42.7399H532.747V44.4139H528.427V48.2479H533.287V49.9219H526.375V37.3939H533.287V39.0679H528.427Z" fill="#A831F1"/>
<path d="M30 22.9219H868C878.493 22.9219 887 31.4285 887 41.9219V44.9219C887 55.4153 878.493 63.9219 868 63.9219H30C19.5066 63.9219 11 55.4153 11 44.9219V41.9219C11 31.4285 19.5066 22.9219 30 22.9219Z" stroke="url(#paint0_linear_1360_1267)" stroke-width="2"/>
<path d="M719.544 61.9034L719.389 60.9154C724.17 60.1632 728.2 56.4966 732.467 52.6137C733.768 51.4288 735.115 50.2031 736.489 49.063C741.94 44.5404 749.184 43.1837 755.868 45.4348C757.596 46.0176 759.328 46.6954 761.002 47.3492C766.337 49.4358 771.376 51.4059 776.087 50.4278C780.589 49.4872 784.354 46.0395 788.338 42.39C789.886 40.9725 791.485 39.5067 793.148 38.1807C798.468 33.9433 805.767 32.8829 812.673 35.3433L812.337 36.2857C805.76 33.9421 798.82 34.944 793.773 38.9634C792.137 40.2678 790.549 41.7213 789.014 43.1279C784.925 46.873 781.063 50.4114 776.292 51.4083C771.288 52.4468 766.115 50.4239 760.637 48.2818C758.974 47.6308 757.254 46.9583 755.549 46.3833C749.196 44.2435 742.31 45.534 737.128 49.8328C735.773 50.9587 734.435 52.1771 733.141 53.3541C728.76 57.3402 724.621 61.1059 719.544 61.9034Z" fill="url(#paint1_linear_1360_1267)"/>
<path opacity="0.8" d="M691.448 41.9525L691.526 41.4585C689.135 41.0824 687.12 39.2491 684.987 37.3076C684.336 36.7151 683.662 36.1022 682.975 35.5321C680.25 33.2708 676.628 32.5924 673.286 33.718C672.422 34.0094 671.556 34.3483 670.718 34.6753C668.051 35.7185 665.532 36.7037 663.176 36.2146C660.925 35.7443 659.042 34.0204 657.05 32.1956C656.276 31.4868 655.476 30.7539 654.645 30.0909C651.985 27.9721 648.335 27.4419 644.882 28.6721L645.051 29.1433C648.339 27.9715 651.809 28.4724 654.333 30.4822C655.151 31.1344 655.944 31.8612 656.712 32.5645C658.757 34.4371 660.688 36.2064 663.073 36.7048C665.575 37.2241 668.162 36.2126 670.901 35.1415C671.732 34.8161 672.593 34.4798 673.445 34.1923C676.621 33.1223 680.065 33.7676 682.656 35.9171C683.334 36.4801 684.003 37.0892 684.649 37.6778C686.84 39.6709 688.909 41.5538 691.448 41.9525Z" fill="url(#paint2_linear_1360_1267)"/>
<path opacity="0.8" d="M195.06 41.9525L194.982 41.4585C197.373 41.0824 199.388 39.2491 201.521 37.3076C202.172 36.7151 202.846 36.1022 203.533 35.5321C206.258 33.2708 209.88 32.5924 213.222 33.718C214.086 34.0094 214.952 34.3483 215.789 34.6753C218.457 35.7185 220.976 36.7037 223.332 36.2146C225.583 35.7443 227.465 34.0204 229.458 32.1956C230.232 31.4868 231.031 30.7539 231.863 30.0909C234.523 27.9721 238.173 27.4419 241.625 28.6721L241.457 29.1433C238.169 27.9715 234.699 28.4724 232.175 30.4822C231.357 31.1344 230.563 31.8612 229.796 32.5645C227.751 34.4371 225.82 36.2064 223.434 36.7048C220.933 37.2241 218.346 36.2126 215.607 35.1415C214.776 34.8161 213.915 34.4798 213.063 34.1923C209.886 33.1223 206.443 33.7676 203.852 35.9171C203.174 36.4801 202.505 37.0892 201.858 37.6778C199.668 39.6709 197.598 41.5538 195.06 41.9525Z" fill="url(#paint3_linear_1360_1267)"/>
<path d="M172.318 61.9034L172.473 60.9154C167.692 60.1632 163.662 56.4966 159.395 52.6137C158.093 51.4288 156.747 50.2031 155.373 49.063C149.922 44.5404 142.678 43.1837 135.994 45.4348C134.266 46.0176 132.534 46.6954 130.86 47.3492C125.525 49.4358 120.486 51.4059 115.774 50.4278C111.273 49.4872 107.508 46.0395 103.524 42.39C101.976 40.9725 100.377 39.5067 98.7134 38.1807C93.3936 33.9433 86.0945 32.8829 79.189 35.3433L79.5252 36.2857C86.1021 33.9421 93.0416 34.944 98.089 38.9634C99.7253 40.2678 101.312 41.7213 102.848 43.1279C106.937 46.873 110.799 50.4114 115.57 51.4083C120.573 52.4468 125.747 50.4239 131.224 48.2818C132.887 47.6308 134.608 46.9583 136.312 46.3833C142.665 44.2435 149.552 45.534 154.733 49.8328C156.089 50.9587 157.427 52.1771 158.721 53.3541C163.102 57.3402 167.241 61.1059 172.318 61.9034Z" fill="url(#paint4_linear_1360_1267)"/>
<path d="M308.759 48.5832L308.801 48.3185C307.52 48.117 306.44 47.1348 305.297 46.0946C304.948 45.7772 304.588 45.4488 304.22 45.1434C302.759 43.9318 300.819 43.5684 299.028 44.1715C298.565 44.3276 298.101 44.5091 297.653 44.6843C296.224 45.2433 294.874 45.771 293.612 45.509C292.406 45.257 291.397 44.3334 290.33 43.3558C289.915 42.976 289.487 42.5834 289.041 42.2282C287.616 41.093 285.661 40.8089 283.811 41.468L283.901 41.7205C285.663 41.0927 287.522 41.3611 288.874 42.4378C289.312 42.7873 289.737 43.1766 290.149 43.5535C291.244 44.5567 292.279 45.5046 293.557 45.7717C294.897 46.0499 296.283 45.508 297.751 44.9341C298.196 44.7597 298.657 44.5796 299.114 44.4255C300.815 43.8523 302.66 44.198 304.048 45.3496C304.412 45.6512 304.77 45.9776 305.117 46.2929C306.29 47.3608 307.399 48.3696 308.759 48.5832Z" fill="url(#paint5_linear_1360_1267)"/>
<path d="M583.906 48.5832L583.864 48.3185C585.145 48.117 586.225 47.1348 587.368 46.0946C587.717 45.7772 588.077 45.4488 588.445 45.1434C589.906 43.9318 591.846 43.5684 593.637 44.1715C594.1 44.3276 594.564 44.5091 595.012 44.6843C596.441 45.2433 597.791 45.771 599.053 45.509C600.259 45.257 601.268 44.3334 602.335 43.3558C602.75 42.976 603.178 42.5834 603.624 42.2282C605.049 41.093 607.004 40.8089 608.854 41.468L608.764 41.7205C607.002 41.0927 605.143 41.3611 603.791 42.4378C603.353 42.7873 602.928 43.1766 602.516 43.5535C601.421 44.5567 600.386 45.5046 599.108 45.7717C597.768 46.0499 596.382 45.508 594.914 44.9341C594.469 44.7597 594.008 44.5796 593.551 44.4255C591.85 43.8523 590.005 44.198 588.617 45.3496C588.254 45.6512 587.895 45.9776 587.548 46.2929C586.375 47.3608 585.266 48.3696 583.906 48.5832Z" fill="url(#paint6_linear_1360_1267)"/>
<path d="M562.751 38.4219C560.408 38.4219 558.501 36.5149 558.501 34.1719C558.501 31.8289 560.408 29.9219 562.751 29.9219C565.094 29.9219 567.001 31.8289 567.001 34.1719C567.001 36.5149 565.095 38.4219 562.751 38.4219ZM562.751 30.9219C560.959 30.9219 559.501 32.3799 559.501 34.1719C559.501 35.9639 560.959 37.4219 562.751 37.4219C564.543 37.4219 566.001 35.9639 566.001 34.1719C566.001 32.3799 564.543 30.9219 562.751 30.9219Z" fill="url(#paint7_linear_1360_1267)"/>
<path d="M632.501 48.9219C631.398 48.9219 630.501 48.0245 630.501 46.9219C630.501 45.8193 631.398 44.9219 632.501 44.9219C633.604 44.9219 634.501 45.8193 634.501 46.9219C634.501 48.0245 633.604 48.9219 632.501 48.9219ZM632.501 45.3925C631.658 45.3925 630.972 46.0786 630.972 46.9219C630.972 47.7652 631.658 48.4513 632.501 48.4513C633.344 48.4513 634.03 47.7652 634.03 46.9219C634.03 46.0786 633.344 45.3925 632.501 45.3925Z" fill="url(#paint8_linear_1360_1267)"/>
<path d="M713.501 40.9219C711.847 40.9219 710.501 39.5758 710.501 37.9219C710.501 36.268 711.847 34.9219 713.501 34.9219C715.155 34.9219 716.501 36.268 716.501 37.9219C716.501 39.5758 715.156 40.9219 713.501 40.9219ZM713.501 35.6278C712.236 35.6278 711.207 36.6569 711.207 37.9219C711.207 39.1868 712.236 40.216 713.501 40.216C714.766 40.216 715.795 39.1868 715.795 37.9219C715.795 36.6569 714.766 35.6278 713.501 35.6278Z" fill="url(#paint9_linear_1360_1267)"/>
<path d="M842.001 47.9219C841.174 47.9219 840.501 47.2488 840.501 46.4219C840.501 45.5949 841.174 44.9219 842.001 44.9219C842.828 44.9219 843.501 45.5949 843.501 46.4219C843.501 47.2488 842.828 47.9219 842.001 47.9219ZM842.001 45.2748C841.369 45.2748 840.854 45.7894 840.854 46.4219C840.854 47.0543 841.369 47.5689 842.001 47.5689C842.633 47.5689 843.148 47.0543 843.148 46.4219C843.148 45.7894 842.633 45.2748 842.001 45.2748Z" fill="url(#paint10_linear_1360_1267)"/>
<path d="M335.251 38.4219C337.594 38.4219 339.501 36.5149 339.501 34.1719C339.501 31.8289 337.594 29.9219 335.251 29.9219C332.908 29.9219 331.001 31.8289 331.001 34.1719C331.001 36.5149 332.907 38.4219 335.251 38.4219ZM335.251 30.9219C337.043 30.9219 338.501 32.3799 338.501 34.1719C338.501 35.9639 337.043 37.4219 335.251 37.4219C333.459 37.4219 332.001 35.9639 332.001 34.1719C332.001 32.3799 333.459 30.9219 335.251 30.9219Z" fill="url(#paint11_linear_1360_1267)"/>
<path d="M265.501 48.9219C266.604 48.9219 267.501 48.0245 267.501 46.9219C267.501 45.8193 266.604 44.9219 265.501 44.9219C264.398 44.9219 263.501 45.8193 263.501 46.9219C263.501 48.0245 264.398 48.9219 265.501 48.9219ZM265.501 45.3925C266.344 45.3925 267.03 46.0786 267.03 46.9219C267.03 47.7652 266.344 48.4513 265.501 48.4513C264.658 48.4513 263.972 47.7652 263.972 46.9219C263.972 46.0786 264.658 45.3925 265.501 45.3925Z" fill="url(#paint12_linear_1360_1267)"/>
<path d="M184.501 40.9219C186.155 40.9219 187.501 39.5758 187.501 37.9219C187.501 36.268 186.155 34.9219 184.501 34.9219C182.847 34.9219 181.501 36.268 181.501 37.9219C181.501 39.5758 182.846 40.9219 184.501 40.9219ZM184.501 35.6278C185.766 35.6278 186.795 36.6569 186.795 37.9219C186.795 39.1868 185.766 40.216 184.501 40.216C183.236 40.216 182.207 39.1868 182.207 37.9219C182.207 36.6569 183.236 35.6278 184.501 35.6278Z" fill="url(#paint13_linear_1360_1267)"/>
<path d="M56.001 47.9219C56.8279 47.9219 57.501 47.2488 57.501 46.4219C57.501 45.5949 56.8279 44.9219 56.001 44.9219C55.174 44.9219 54.501 45.5949 54.501 46.4219C54.501 47.2488 55.1737 47.9219 56.001 47.9219ZM56.001 45.2748C56.6334 45.2748 57.148 45.7894 57.148 46.4219C57.148 47.0543 56.6334 47.5689 56.001 47.5689C55.3685 47.5689 54.8539 47.0543 54.8539 46.4219C54.8539 45.7894 55.3685 45.2748 56.001 45.2748Z" fill="url(#paint14_linear_1360_1267)"/>
<path d="M799.086 54.3464C799.086 55.3984 798.233 56.2514 797.181 56.2514C796.129 56.2514 795.276 55.3984 795.276 54.3464C795.276 53.2944 796.129 52.4414 797.181 52.4414C798.233 52.4424 799.086 53.2944 799.086 54.3464Z" fill="url(#paint15_linear_1360_1267)"/>
<path d="M677.276 43.4414C677.276 43.9936 676.828 44.4414 676.276 44.4414C675.724 44.4414 675.276 43.9936 675.276 43.4414C675.276 42.8892 675.724 42.4414 676.276 42.4414C676.828 42.4419 677.276 42.8892 677.276 43.4414Z" fill="url(#paint16_linear_1360_1267)"/>
<path d="M596.276 35.9414C596.276 36.2175 596.052 36.4414 595.776 36.4414C595.5 36.4414 595.276 36.2175 595.276 35.9414C595.276 35.6653 595.5 35.4414 595.776 35.4414C596.052 35.4417 596.276 35.6653 596.276 35.9414Z" fill="url(#paint17_linear_1360_1267)"/>
<path d="M98.2759 54.3464C98.2759 55.3984 99.1289 56.2514 100.181 56.2514C101.233 56.2514 102.086 55.3984 102.086 54.3464C102.086 53.2944 101.233 52.4414 100.181 52.4414C99.1289 52.4424 98.2759 53.2944 98.2759 54.3464Z" fill="url(#paint18_linear_1360_1267)"/>
<path d="M220.086 43.4414C220.086 43.9936 220.534 44.4414 221.086 44.4414C221.638 44.4414 222.086 43.9936 222.086 43.4414C222.086 42.8892 221.638 42.4414 221.086 42.4414C220.534 42.4419 220.086 42.8892 220.086 43.4414Z" fill="url(#paint19_linear_1360_1267)"/>
<path d="M301.086 35.9414C301.086 36.2175 301.31 36.4414 301.586 36.4414C301.862 36.4414 302.086 36.2175 302.086 35.9414C302.086 35.6653 301.862 35.4414 301.586 35.4414C301.31 35.4417 301.086 35.6653 301.086 35.9414Z" fill="url(#paint20_linear_1360_1267)"/>
</g>
<defs>
<linearGradient id="paint0_linear_1360_1267" x1="10" y1="43.422" x2="888" y2="43.422" gradientUnits="userSpaceOnUse">
<stop offset="0.0130004" stop-color="#151515"/>
<stop offset="0.220865" stop-color="#3BA0FE"/>
<stop offset="0.380974" stop-color="#A035F1"/>
<stop offset="0.592576" stop-color="#0F73E8"/>
<stop offset="0.75" stop-color="#FF0D0D"/>
<stop offset="0.985373" stop-color="#151515"/>
</linearGradient>
<linearGradient id="paint1_linear_1360_1267" x1="779.515" y1="82.1615" x2="743.139" y2="17.5173" gradientUnits="userSpaceOnUse">
<stop stop-color="#0575E6"/>
<stop offset="1" stop-color="#FF0CF5"/>
</linearGradient>
<linearGradient id="paint2_linear_1360_1267" x1="661.462" y1="52.0819" x2="679.65" y2="19.7589" gradientUnits="userSpaceOnUse">
<stop stop-color="#0575E6"/>
<stop offset="1" stop-color="#FF0CF5"/>
</linearGradient>
<linearGradient id="paint3_linear_1360_1267" x1="225.046" y1="52.0819" x2="206.857" y2="19.7589" gradientUnits="userSpaceOnUse">
<stop stop-color="#0575E6"/>
<stop offset="1" stop-color="#FF0CF5"/>
</linearGradient>
<linearGradient id="paint4_linear_1360_1267" x1="112.347" y1="82.1615" x2="148.723" y2="17.5173" gradientUnits="userSpaceOnUse">
<stop stop-color="#0575E6"/>
<stop offset="1" stop-color="#FF0CF5"/>
</linearGradient>
<linearGradient id="paint5_linear_1360_1267" x1="292.693" y1="54.0101" x2="302.438" y2="36.6927" gradientUnits="userSpaceOnUse">
<stop stop-color="#0575E6"/>
<stop offset="1" stop-color="#FF0CF5"/>
</linearGradient>
<linearGradient id="paint6_linear_1360_1267" x1="599.972" y1="54.0101" x2="590.227" y2="36.6927" gradientUnits="userSpaceOnUse">
<stop stop-color="#0575E6"/>
<stop offset="1" stop-color="#FF0CF5"/>
</linearGradient>
<linearGradient id="paint7_linear_1360_1267" x1="566.859" y1="36.4531" x2="558.501" y2="31.5689" gradientUnits="userSpaceOnUse">
<stop stop-color="#0575E6"/>
<stop offset="1" stop-color="#FF0CF5"/>
</linearGradient>
<linearGradient id="paint8_linear_1360_1267" x1="634.434" y1="47.9954" x2="630.501" y2="45.6969" gradientUnits="userSpaceOnUse">
<stop stop-color="#0575E6"/>
<stop offset="1" stop-color="#FF0CF5"/>
</linearGradient>
<linearGradient id="paint9_linear_1360_1267" x1="716.401" y1="39.5321" x2="710.501" y2="36.0845" gradientUnits="userSpaceOnUse">
<stop stop-color="#0575E6"/>
<stop offset="1" stop-color="#FF0CF5"/>
</linearGradient>
<linearGradient id="paint10_linear_1360_1267" x1="843.451" y1="47.227" x2="840.501" y2="45.5032" gradientUnits="userSpaceOnUse">
<stop stop-color="#0575E6"/>
<stop offset="1" stop-color="#FF0CF5"/>
</linearGradient>
<linearGradient id="paint11_linear_1360_1267" x1="331.143" y1="36.4531" x2="339.501" y2="31.5689" gradientUnits="userSpaceOnUse">
<stop stop-color="#0575E6"/>
<stop offset="1" stop-color="#FF0CF5"/>
</linearGradient>
<linearGradient id="paint12_linear_1360_1267" x1="263.568" y1="47.9954" x2="267.501" y2="45.6969" gradientUnits="userSpaceOnUse">
<stop stop-color="#0575E6"/>
<stop offset="1" stop-color="#FF0CF5"/>
</linearGradient>
<linearGradient id="paint13_linear_1360_1267" x1="181.601" y1="39.5321" x2="187.501" y2="36.0845" gradientUnits="userSpaceOnUse">
<stop stop-color="#0575E6"/>
<stop offset="1" stop-color="#FF0CF5"/>
</linearGradient>
<linearGradient id="paint14_linear_1360_1267" x1="54.5511" y1="47.227" x2="57.501" y2="45.5032" gradientUnits="userSpaceOnUse">
<stop stop-color="#0575E6"/>
<stop offset="1" stop-color="#FF0CF5"/>
</linearGradient>
<linearGradient id="paint15_linear_1360_1267" x1="799.086" y1="52.4414" x2="795.276" y2="52.4414" gradientUnits="userSpaceOnUse">
<stop stop-color="#A83AFE"/>
<stop offset="1" stop-color="#6E59FE"/>
</linearGradient>
<linearGradient id="paint16_linear_1360_1267" x1="677.276" y1="42.4414" x2="675.276" y2="42.4414" gradientUnits="userSpaceOnUse">
<stop stop-color="#A83AFE"/>
<stop offset="1" stop-color="#6E59FE"/>
</linearGradient>
<linearGradient id="paint17_linear_1360_1267" x1="596.276" y1="35.4414" x2="595.276" y2="35.4414" gradientUnits="userSpaceOnUse">
<stop stop-color="#A83AFE"/>
<stop offset="1" stop-color="#6E59FE"/>
</linearGradient>
<linearGradient id="paint18_linear_1360_1267" x1="98.2759" y1="52.4414" x2="102.086" y2="52.4414" gradientUnits="userSpaceOnUse">
<stop stop-color="#A83AFE"/>
<stop offset="1" stop-color="#6E59FE"/>
</linearGradient>
<linearGradient id="paint19_linear_1360_1267" x1="220.086" y1="42.4414" x2="222.086" y2="42.4414" gradientUnits="userSpaceOnUse">
<stop stop-color="#A83AFE"/>
<stop offset="1" stop-color="#6E59FE"/>
</linearGradient>
<linearGradient id="paint20_linear_1360_1267" x1="301.086" y1="35.4414" x2="302.086" y2="35.4414" gradientUnits="userSpaceOnUse">
<stop stop-color="#A83AFE"/>
<stop offset="1" stop-color="#6E59FE"/>
</linearGradient>
<clipPath id="clip0_1360_1267">
<rect width="878" height="65" fill="white" transform="translate(10)"/>
</clipPath>
</defs>
</svg>
