<svg width="35" height="35" viewBox="0 0 35 35" fill="none" xmlns="http://www.w3.org/2000/svg">
<g clip-path="url(#clip0_523_7709)">
<path opacity="0.1" d="M7.46652 23.8466L7.30349 23.6086C6.08505 21.8306 5.44104 19.7478 5.44104 17.5856C5.44104 11.6997 10.2295 6.91119 16.1155 6.91119C22.0014 6.91119 26.79 11.6997 26.79 17.5856C26.79 19.7472 26.1461 21.8299 24.928 23.6086L24.765 23.8466H7.46652Z" fill="url(#paint0_linear_523_7709)"/>
<path opacity="0.1" d="M22.2836 23.6228C23.8446 22.0458 24.809 19.8772 24.809 17.4829C24.809 12.6628 20.9015 8.75537 16.0814 8.75537C11.2613 8.75537 7.35376 12.6629 7.35376 17.4829C7.35376 19.8771 8.3181 22.0458 9.87916 23.6228H22.2836Z" fill="url(#paint1_linear_523_7709)"/>
<path opacity="0.2" d="M10.0618 23.8026H22.1006C23.7691 22.2129 24.8088 19.9694 24.8088 17.483C24.8088 12.6628 20.9013 8.75543 16.0813 8.75543C11.2612 8.75543 7.35364 12.6628 7.35364 17.4829C7.35371 19.9694 8.39345 22.2129 10.0618 23.8026Z" fill="url(#paint2_linear_523_7709)"/>
<path opacity="0.3" d="M14.4758 23.8026H17.6868C20.5108 23.0874 22.6004 20.5293 22.6004 17.483C22.6004 13.8827 19.6817 10.9639 16.0813 10.9639C12.481 10.9639 9.56226 13.8827 9.56226 17.483C9.56226 20.5293 11.6519 23.0873 14.4758 23.8026Z" fill="url(#paint3_linear_523_7709)"/>
<path d="M16.0815 21.414C18.2525 21.414 20.0125 19.654 20.0125 17.4829C20.0125 15.3118 18.2525 13.5518 16.0815 13.5518C13.9104 13.5518 12.1504 15.3118 12.1504 17.4829C12.1504 19.654 13.9104 21.414 16.0815 21.414Z" fill="url(#paint4_linear_523_7709)"/>
<path d="M28.0216 24.3255H4.3463C4.06289 24.3255 3.83313 24.0958 3.83313 23.8124C3.83313 23.529 4.06289 23.2992 4.3463 23.2992H28.0217C28.3051 23.2992 28.5349 23.529 28.5349 23.8124C28.5349 24.0958 28.3051 24.3255 28.0216 24.3255Z" fill="url(#paint5_linear_523_7709)"/>
<path opacity="0.7" d="M16.6629 27.8153H8.52025C8.23684 27.8153 8.00708 27.5855 8.00708 27.3021C8.00708 27.0187 8.23684 26.7889 8.52025 26.7889H16.6629C16.9464 26.7889 17.1761 27.0187 17.1761 27.3021C17.1762 27.5855 16.9464 27.8153 16.6629 27.8153Z" fill="url(#paint6_linear_523_7709)"/>
<path opacity="0.7" d="M23.7793 27.8153H19.5027C19.2193 27.8153 18.9895 27.5855 18.9895 27.3021C18.9895 27.0187 19.2193 26.7889 19.5027 26.7889H23.7793C24.0627 26.7889 24.2925 27.0187 24.2925 27.3021C24.2925 27.5855 24.0627 27.8153 23.7793 27.8153Z" fill="url(#paint7_linear_523_7709)"/>
<g opacity="0.5">
<path d="M20.3238 31.2366H15.3629C15.0795 31.2366 14.8497 31.0069 14.8497 30.7234C14.8497 30.44 15.0795 30.2103 15.3629 30.2103H20.3238C20.6072 30.2103 20.837 30.44 20.837 30.7234C20.837 31.0068 20.6072 31.2366 20.3238 31.2366Z" fill="url(#paint8_linear_523_7709)"/>
<path d="M13.0706 31.2366H12.01C11.7266 31.2366 11.4968 31.0069 11.4968 30.7234C11.4968 30.44 11.7266 30.2103 12.01 30.2103H13.0706C13.354 30.2103 13.5838 30.44 13.5838 30.7234C13.5838 31.0068 13.354 31.2366 13.0706 31.2366Z" fill="url(#paint9_linear_523_7709)"/>
</g>
<path opacity="0.3" d="M18.4078 35H14.1654C13.882 35 13.6522 34.7702 13.6522 34.4868C13.6522 34.2034 13.882 33.9736 14.1654 33.9736H18.4078C18.6912 33.9736 18.9209 34.2034 18.9209 34.4868C18.921 34.7702 18.6912 35 18.4078 35Z" fill="url(#paint10_linear_523_7709)"/>
<path d="M24.3672 2.58994C24.3622 2.58994 24.3571 2.58987 24.3519 2.58973C24.1518 2.58385 23.9735 2.46204 23.895 2.27788C23.7154 1.85651 23.2558 1.40855 22.5286 0.946514C22.2894 0.794551 22.2186 0.477364 22.3706 0.238107C22.5226 -0.00108234 22.8396 -0.0718342 23.079 0.0801284C23.6311 0.43088 24.0593 0.78293 24.3709 1.14366C24.6863 0.769258 25.0905 0.441134 25.5913 0.151496C25.8365 0.00971843 26.1505 0.0933901 26.2925 0.3388C26.4344 0.584073 26.3506 0.898047 26.1052 1.04003C25.4923 1.39461 25.074 1.80859 24.8265 2.30563C24.7397 2.48015 24.5614 2.58994 24.3672 2.58994Z" fill="url(#paint11_linear_523_7709)"/>
<path opacity="0.4" d="M26.7812 7.73227C26.7762 7.73227 26.771 7.7322 26.7659 7.73206C26.5658 7.72612 26.3875 7.60437 26.3089 7.42021C26.2494 7.28062 26.0784 7.05066 25.6007 6.74714C25.3615 6.59511 25.2908 6.27799 25.4427 6.03874C25.5948 5.79955 25.9119 5.72886 26.1511 5.88076C26.4008 6.03935 26.6103 6.2 26.7813 6.36413C26.9499 6.2 27.1493 6.05179 27.3816 5.9174C27.6269 5.77555 27.9408 5.85916 28.0828 6.10463C28.2248 6.34998 28.141 6.66388 27.8956 6.80586C27.5786 6.98934 27.3642 7.19934 27.2405 7.44789C27.1536 7.62248 26.9754 7.73227 26.7812 7.73227Z" fill="url(#paint12_linear_523_7709)"/>
<path opacity="0.7" d="M29.7963 4.52148C29.7912 4.52148 29.7862 4.52141 29.7811 4.52128C29.581 4.5154 29.4026 4.39358 29.3241 4.20949C29.2646 4.0699 29.0935 3.8398 28.6159 3.53636C28.3766 3.38439 28.3059 3.06721 28.4579 2.82795C28.6099 2.58876 28.9271 2.51801 29.1662 2.66997C29.4159 2.82857 29.6254 2.98914 29.7964 3.15327C29.965 2.98914 30.1644 2.84094 30.3966 2.70661C30.6419 2.56463 30.9559 2.64851 31.0979 2.89385C31.2398 3.13912 31.156 3.4531 30.9106 3.59508C30.5936 3.77849 30.3793 3.98855 30.2556 4.23711C30.1687 4.41163 29.9904 4.52148 29.7963 4.52148Z" fill="url(#paint13_linear_523_7709)"/>
</g>
<defs>
<linearGradient id="paint0_linear_523_7709" x1="26.79" y1="6.91119" x2="5.44104" y2="6.91119" gradientUnits="userSpaceOnUse">
<stop stop-color="#616161"/>
<stop offset="1" stop-color="#434343"/>
</linearGradient>
<linearGradient id="paint1_linear_523_7709" x1="24.809" y1="8.75537" x2="7.35376" y2="8.75537" gradientUnits="userSpaceOnUse">
<stop stop-color="#616161"/>
<stop offset="1" stop-color="#434343"/>
</linearGradient>
<linearGradient id="paint2_linear_523_7709" x1="24.8088" y1="8.75543" x2="7.35364" y2="8.75543" gradientUnits="userSpaceOnUse">
<stop stop-color="#616161"/>
<stop offset="1" stop-color="#434343"/>
</linearGradient>
<linearGradient id="paint3_linear_523_7709" x1="22.6004" y1="10.9639" x2="9.56226" y2="10.9639" gradientUnits="userSpaceOnUse">
<stop stop-color="#616161"/>
<stop offset="1" stop-color="#434343"/>
</linearGradient>
<linearGradient id="paint4_linear_523_7709" x1="20.0125" y1="13.5518" x2="12.1504" y2="13.5518" gradientUnits="userSpaceOnUse">
<stop stop-color="#616161"/>
<stop offset="1" stop-color="#434343"/>
</linearGradient>
<linearGradient id="paint5_linear_523_7709" x1="28.5349" y1="23.2992" x2="3.83313" y2="23.2992" gradientUnits="userSpaceOnUse">
<stop stop-color="#616161"/>
<stop offset="1" stop-color="#434343"/>
</linearGradient>
<linearGradient id="paint6_linear_523_7709" x1="17.1761" y1="26.7889" x2="8.00708" y2="26.7889" gradientUnits="userSpaceOnUse">
<stop stop-color="#616161"/>
<stop offset="1" stop-color="#434343"/>
</linearGradient>
<linearGradient id="paint7_linear_523_7709" x1="24.2925" y1="26.7889" x2="18.9895" y2="26.7889" gradientUnits="userSpaceOnUse">
<stop stop-color="#616161"/>
<stop offset="1" stop-color="#434343"/>
</linearGradient>
<linearGradient id="paint8_linear_523_7709" x1="20.837" y1="30.2103" x2="14.8497" y2="30.2103" gradientUnits="userSpaceOnUse">
<stop stop-color="#616161"/>
<stop offset="1" stop-color="#434343"/>
</linearGradient>
<linearGradient id="paint9_linear_523_7709" x1="13.5838" y1="30.2103" x2="11.4968" y2="30.2103" gradientUnits="userSpaceOnUse">
<stop stop-color="#616161"/>
<stop offset="1" stop-color="#434343"/>
</linearGradient>
<linearGradient id="paint10_linear_523_7709" x1="18.9209" y1="33.9736" x2="13.6522" y2="33.9736" gradientUnits="userSpaceOnUse">
<stop stop-color="#616161"/>
<stop offset="1" stop-color="#434343"/>
</linearGradient>
<linearGradient id="paint11_linear_523_7709" x1="26.3616" y1="6.10352e-05" x2="22.2905" y2="6.10352e-05" gradientUnits="userSpaceOnUse">
<stop stop-color="#616161"/>
<stop offset="1" stop-color="#434343"/>
</linearGradient>
<linearGradient id="paint12_linear_523_7709" x1="28.1519" y1="5.80072" x2="25.3627" y2="5.80072" gradientUnits="userSpaceOnUse">
<stop stop-color="#616161"/>
<stop offset="1" stop-color="#434343"/>
</linearGradient>
<linearGradient id="paint13_linear_523_7709" x1="31.1669" y1="2.5899" x2="28.3778" y2="2.5899" gradientUnits="userSpaceOnUse">
<stop stop-color="#616161"/>
<stop offset="1" stop-color="#434343"/>
</linearGradient>
<clipPath id="clip0_523_7709">
<rect width="35" height="35" fill="white"/>
</clipPath>
</defs>
</svg>
