<svg width="21" height="20" viewBox="0 0 21 20" fill="none" xmlns="http://www.w3.org/2000/svg">
<path fill-rule="evenodd" clip-rule="evenodd" d="M10.1406 20C15.6635 20 20.1406 15.5228 20.1406 10C20.1406 4.47715 15.6635 0 10.1406 0C4.61778 0 0.140625 4.47715 0.140625 10C0.140625 15.5228 4.61778 20 10.1406 20ZM14.8268 8.72739C15.2286 8.3484 15.247 7.71551 14.868 7.31378C14.489 6.91205 13.8561 6.89362 13.4544 7.27261L8.84389 11.6222L6.83028 9.70443C6.43035 9.32355 5.79737 9.33899 5.41649 9.73892C5.0356 10.1388 5.05104 10.7718 5.45097 11.1527L8.15097 13.7241C8.53585 14.0907 9.14023 14.0921 9.52684 13.7274L14.8268 8.72739Z" fill="url(#paint0_linear_164_956)"/>
<defs>
<linearGradient id="paint0_linear_164_956" x1="0.227096" y1="12.2892" x2="19.0252" y2="15.9894" gradientUnits="userSpaceOnUse">
<stop stop-color="#36FF78"/>
<stop offset="1" stop-color="#0CFFFF"/>
</linearGradient>
</defs>
</svg>
