<svg width="21" height="20" viewBox="0 0 21 20" fill="none" xmlns="http://www.w3.org/2000/svg">
<path fill-rule="evenodd" clip-rule="evenodd" d="M10.5 20C16.0228 20 20.5 15.5228 20.5 10C20.5 4.47715 16.0228 0 10.5 0C4.97715 0 0.5 4.47715 0.5 10C0.5 15.5228 4.97715 20 10.5 20ZM15.1862 8.72739C15.5879 8.3484 15.6064 7.71551 15.2274 7.31378C14.8484 6.91205 14.2155 6.89362 13.8138 7.27261L9.20326 11.6222L7.18966 9.70443C6.78972 9.32355 6.15675 9.33899 5.77586 9.73892C5.39498 10.1388 5.41041 10.7718 5.81034 11.1527L8.51034 13.7241C8.89523 14.0907 9.49961 14.0921 9.88622 13.7274L15.1862 8.72739Z" fill="url(#paint0_linear_581_14)"/>
<defs>
<linearGradient id="paint0_linear_581_14" x1="20.5" y1="0" x2="0.5" y2="0" gradientUnits="userSpaceOnUse">
<stop stop-color="#3AA0FE"/>
<stop offset="1" stop-color="#59FEF4"/>
</linearGradient>
</defs>
</svg>
