<svg width="21" height="21" viewBox="0 0 21 21" fill="none" xmlns="http://www.w3.org/2000/svg">
<path fill-rule="evenodd" clip-rule="evenodd" d="M10.5 20.6416C16.0228 20.6416 20.5 16.1644 20.5 10.6416C20.5 5.11875 16.0228 0.641602 10.5 0.641602C4.97715 0.641602 0.5 5.11875 0.5 10.6416C0.5 16.1644 4.97715 20.6416 10.5 20.6416ZM15.1862 9.369C15.5879 8.99001 15.6064 8.35711 15.2274 7.95538C14.8484 7.55365 14.2155 7.53522 13.8138 7.91421L9.20326 12.2638L7.18966 10.346C6.78972 9.96515 6.15675 9.98059 5.77586 10.3805C5.39498 10.7804 5.41041 11.4134 5.81034 11.7943L8.51034 14.3657C8.89523 14.7323 9.49961 14.7337 9.88622 14.369L15.1862 9.369Z" fill="url(#paint0_linear_1591_130)"/>
<defs>
<linearGradient id="paint0_linear_1591_130" x1="20.5" y1="0.641602" x2="0.5" y2="0.641602" gradientUnits="userSpaceOnUse">
<stop stop-color="#616161"/>
<stop offset="1" stop-color="#434343"/>
</linearGradient>
</defs>
</svg>
