<svg width="35" height="35" viewBox="0 0 35 35" fill="none" xmlns="http://www.w3.org/2000/svg">
<path fill-rule="evenodd" clip-rule="evenodd" d="M17.5 27.0649C23.0228 27.0649 27.5 22.5877 27.5 17.0649C27.5 11.542 23.0228 7.06488 17.5 7.06488C11.9772 7.06488 7.5 11.542 7.5 17.0649C7.5 22.5877 11.9772 27.0649 17.5 27.0649ZM22.1862 15.7923C22.5879 15.4133 22.6064 14.7804 22.2274 14.3787C21.8484 13.9769 21.2155 13.9585 20.8138 14.3375L16.2033 18.687L14.1897 16.7693C13.7897 16.3884 13.1567 16.4039 12.7759 16.8038C12.395 17.2037 12.4104 17.8367 12.8103 18.2176L15.5103 20.789C15.8952 21.1556 16.4996 21.157 16.8862 20.7923L22.1862 15.7923Z" fill="url(#paint0_linear_237_37465)"/>
<defs>
<linearGradient id="paint0_linear_237_37465" x1="27.5" y1="7.06488" x2="7.5" y2="7.06488" gradientUnits="userSpaceOnUse">
<stop stop-color="#3AA0FE"/>
<stop offset="1" stop-color="#59FEF4"/>
</linearGradient>
</defs>
</svg>
