<svg width="34" height="34" viewBox="0 0 34 34" fill="none" xmlns="http://www.w3.org/2000/svg">
<g clip-path="url(#clip0_237_47424)">
<path d="M24.1891 10C22.5333 10 20.9627 10.5024 19.5212 11.4934C18.6075 12.1215 17.7607 12.9328 16.9983 13.9097C16.8133 13.6735 16.623 13.446 16.4286 13.2296C14.5316 11.1168 12.2433 10 9.81094 10C6.05545 10 3 13.1484 3 17.0184C3 20.8882 6.05545 24.0367 9.81094 24.0367C11.4669 24.0367 13.0373 23.5343 14.4788 22.5433C15.3925 21.9153 16.2393 21.1039 17.0019 20.1268C17.1867 20.3631 17.3773 20.5906 17.5714 20.807C19.4684 22.9199 21.7567 24.0367 24.1891 24.0367C27.9445 24.0367 31 20.8882 31 17.0184C31 13.1484 27.9445 10 24.1891 10ZM27.6737 17.0184C27.6737 19.0542 26.1106 20.7104 24.1891 20.7104C23.2536 20.7104 20.8922 20.3453 18.8908 17.0147C20.8736 13.6906 23.2474 13.3263 24.1891 13.3263C26.1106 13.3263 27.6737 14.9825 27.6737 17.0184ZM15.1071 17.0184C13.1057 20.3456 10.7458 20.7104 9.81094 20.7104C7.8894 20.7104 6.32632 19.0542 6.32632 17.0184C6.32632 14.9825 7.8894 13.3263 9.81094 13.3263C10.7458 13.3263 13.1057 13.6912 15.1071 17.0184Z" fill="url(#paint0_linear_237_47424)"/>
<path d="M15.1071 17.0181C14.7644 17.5876 14.4111 18.0704 14.0565 18.4795C14.4073 19.1195 15.1786 20.4841 15.8193 21.4437C16.2325 21.0459 16.6272 20.6063 17.0017 20.1265C16.2788 19.121 15.6721 18.0541 15.6317 17.9646C15.5489 17.7801 15.1071 17.0181 15.1071 17.0181Z" fill="black" fill-opacity="0.2"/>
<path d="M18.8908 17.0145C19.2535 16.4066 19.6293 15.8979 20.0067 15.4722C19.5321 14.7606 18.7081 13.5423 18.0948 12.6763C17.7129 13.0518 17.3465 13.463 16.9981 13.9095C17.7212 14.915 18.37 16.0624 18.4106 16.1519C18.4189 16.1699 18.8908 17.0145 18.8908 17.0145Z" fill="black" fill-opacity="0.2"/>
</g>
<defs>
<linearGradient id="paint0_linear_237_47424" x1="30.5323" y1="20.7855" x2="14.8743" y2="2.53324" gradientUnits="userSpaceOnUse">
<stop stop-color="#0575E6"/>
<stop offset="1" stop-color="#FF0CF5"/>
</linearGradient>
<clipPath id="clip0_237_47424">
<rect width="28" height="28" fill="white" transform="translate(3 3)"/>
</clipPath>
</defs>
</svg>
