<svg width="35" height="34" viewBox="0 0 35 34" fill="none" xmlns="http://www.w3.org/2000/svg">
<g clip-path="url(#clip0_1564_589)">
<path d="M25.0753 10C23.4195 10 21.8489 10.5024 20.4074 11.4934C19.4937 12.1215 18.6469 12.9328 17.8845 13.9097C17.6995 13.6735 17.5092 13.446 17.3148 13.2296C15.4178 11.1168 13.1295 10 10.6972 10C6.94168 10 3.88623 13.1484 3.88623 17.0184C3.88623 20.8882 6.94168 24.0367 10.6972 24.0367C12.3532 24.0367 13.9235 23.5343 15.3651 22.5433C16.2787 21.9153 17.1255 21.1039 17.8882 20.1268C18.0729 20.3631 18.2635 20.5906 18.4577 20.807C20.3546 22.9199 22.643 24.0367 25.0753 24.0367C28.8308 24.0367 31.8862 20.8882 31.8862 17.0184C31.8862 13.1484 28.8308 10 25.0753 10ZM28.5599 17.0184C28.5599 19.0542 26.9968 20.7104 25.0753 20.7104C24.1398 20.7104 21.7784 20.3453 19.777 17.0147C21.7599 13.6906 24.1336 13.3263 25.0753 13.3263C26.9968 13.3263 28.5599 14.9825 28.5599 17.0184ZM15.9933 17.0184C13.9919 20.3456 11.632 20.7104 10.6972 20.7104C8.77563 20.7104 7.21255 19.0542 7.21255 17.0184C7.21255 14.9825 8.77563 13.3263 10.6972 13.3263C11.632 13.3263 13.9919 13.6912 15.9933 17.0184Z" fill="url(#paint0_linear_1564_589)"/>
<path d="M15.9935 17.0184C15.6508 17.5879 15.2975 18.0707 14.9429 18.4798C15.2936 19.1198 16.065 20.4844 16.7057 21.444C17.1188 21.0462 17.5136 20.6066 17.8881 20.1268C17.1652 19.1213 16.5585 18.0544 16.5181 17.9649C16.4352 17.7804 15.9935 17.0184 15.9935 17.0184Z" fill="black" fill-opacity="0.2"/>
<path d="M19.777 17.0148C20.1397 16.4068 20.5155 15.8982 20.8929 15.4724C20.4183 14.7608 19.5943 13.5425 18.981 12.6765C18.5991 13.0521 18.2327 13.4633 17.8843 13.9098C18.6074 14.9153 19.2562 16.0627 19.2968 16.1522C19.3051 16.1701 19.777 17.0148 19.777 17.0148Z" fill="black" fill-opacity="0.2"/>
</g>
<defs>
<linearGradient id="paint0_linear_1564_589" x1="31.8862" y1="10" x2="3.88623" y2="10" gradientUnits="userSpaceOnUse">
<stop stop-color="#616161"/>
<stop offset="1" stop-color="#434343"/>
</linearGradient>
<clipPath id="clip0_1564_589">
<rect width="28" height="28" fill="white" transform="translate(3.88623 3)"/>
</clipPath>
</defs>
</svg>
