<svg width="90" height="90" viewBox="0 0 90 90" fill="none" xmlns="http://www.w3.org/2000/svg">
<g clip-path="url(#clip0_1594_1329)">
<path fill-rule="evenodd" clip-rule="evenodd" d="M21.9722 83.6721C20.9175 83.1447 20.5659 81.7385 21.269 80.6838C21.7964 79.8049 23.2026 79.4533 24.0815 79.9807C31.9917 84.7267 41.1323 86.6603 50.0972 85.4299C58.7104 84.3752 67.1479 80.508 73.8276 73.8283C80.5073 67.1486 84.3745 58.7111 85.4292 50.0978C86.3081 42.8908 85.4292 35.508 82.4409 28.8283L81.7378 31.6408C81.3862 32.8713 80.3315 33.3986 79.1011 33.2228C78.0464 32.8713 77.3433 31.6408 77.6948 30.5861L79.8042 22.3244C79.98 21.7971 80.3315 21.2697 80.8589 21.0939C81.9136 20.3908 83.144 20.7424 83.6714 21.7971C88.9448 30.5861 90.8784 40.7814 89.6479 50.6252C88.4175 60.1174 84.1987 69.4338 76.8159 76.8166C69.4331 84.1994 60.1167 88.4182 50.6245 89.6486C40.7808 90.8791 30.7612 88.9455 21.9722 83.6721ZM8.26123 58.3596C8.61279 57.1291 9.66748 56.6017 10.8979 56.7775C11.9526 57.1291 12.6558 58.3596 12.3042 59.4142L10.1948 67.676C9.84326 68.7307 8.61279 69.4338 7.55811 69.0822C7.03076 69.0822 6.50342 68.5549 6.15186 68.0275C1.0542 59.2385 -0.879395 49.2189 0.351074 39.3752C1.58154 29.883 5.80029 20.5666 13.1831 13.1838C20.5659 5.80096 29.8823 1.58221 39.3745 0.351745C49.2183 -0.878723 59.2378 1.05487 68.0269 6.32831C69.0815 6.85565 69.4331 8.2619 68.73 9.31659C68.2026 10.1955 66.7964 10.5471 65.9175 10.0197C58.0073 5.27362 48.8667 3.34003 39.9019 4.5705C31.2886 5.62518 22.8511 9.49237 16.1714 16.1721C9.4917 22.8517 5.62451 31.2892 4.56982 39.9025C3.69092 47.1096 4.56982 54.4924 7.55811 61.1721L8.26123 58.3596Z" fill="url(#paint0_linear_1594_1329)"/>
<g clip-path="url(#clip1_1594_1329)">
<path d="M60.0332 51.5764H70.3679C71.4056 51.5764 72.247 50.735 72.247 49.6973V23.3908C72.247 22.3531 71.4056 21.5117 70.3679 21.5117H60.0332" fill="#3E4246"/>
<path d="M34.6662 17.7539H55.3356C56.3733 17.7539 57.2146 18.5953 57.2146 19.6329V53.4557C57.2146 54.4934 56.3733 55.3347 55.3356 55.3347H34.6662C33.6285 55.3347 32.7871 54.4934 32.7871 53.4557V19.6329C32.7871 18.5953 33.6285 17.7539 34.6662 17.7539Z" fill="#3E4246"/>
<path d="M19.6329 21.5117C18.5953 21.5117 17.7539 22.3531 17.7539 23.3908V49.6973C17.7539 50.735 18.5953 51.5764 19.6329 51.5764H29.9677V21.5117H19.6329Z" fill="#3E4246"/>
<path d="M41.2423 45H48.7585C49.7962 45 50.6375 45.8413 50.6375 46.879C50.6375 47.9167 49.7962 48.7581 48.7585 48.7581H41.2423C40.2046 48.7581 39.3633 47.9167 39.3633 46.879C39.3633 45.8413 40.2046 45 41.2423 45Z" fill="#151515"/>
<path d="M24.3302 43.1211C23.2925 43.1211 22.4512 43.9624 22.4512 45.0001C22.4512 46.0378 23.2925 46.8792 24.3302 46.8792H29.9673V43.1211H24.3302Z" fill="#151515"/>
<path d="M65.6703 43.1211H60.0332V46.8792H65.6703C66.708 46.8792 67.5494 46.0378 67.5494 45.0001C67.5494 43.9624 66.708 43.1211 65.6703 43.1211Z" fill="#151515"/>
<path d="M56.5905 60.0585C56.0446 59.9654 55.4853 60.1182 55.0624 60.4755C54.6394 60.8329 54.3954 61.3586 54.3958 61.9123C54.3958 60.8746 53.5545 60.0333 52.5168 60.0333C51.4791 60.0333 50.6377 60.8746 50.6377 61.9123C50.6377 60.8746 49.7964 60.0333 48.7587 60.0333C47.721 60.0333 46.8796 60.8746 46.8796 61.9123V54.4966C46.9008 53.5525 46.242 52.7295 45.3162 52.5424C44.7703 52.4492 44.2111 52.602 43.7881 52.9594C43.3652 53.3167 43.1211 53.8425 43.1216 54.3962V67.5495L39.2048 65.2007C38.718 64.9075 38.1152 64.8841 37.6074 65.1387L37.4601 65.213C36.8991 65.4943 36.5449 66.0677 36.5449 66.6953C36.5445 67.2311 36.8032 67.7343 37.239 68.0454L43.1216 72.2471H58.1539V62.0128C58.175 61.0687 57.5162 60.2457 56.5905 60.0585Z" fill="url(#paint1_linear_1594_1329)"/>
<path d="M39.3633 21.5117H41.2423V23.3908H39.3633V21.5117Z" fill="#212123"/>
<path d="M43.1211 21.5117H50.6373V23.3908H43.1211V21.5117Z" fill="#212123"/>
<path d="M36.5449 26.209H38.424V29.9671H36.5449V26.209Z" fill="#212123"/>
<path d="M40.3027 26.209H42.1818V29.9671H40.3027V26.209Z" fill="#212123"/>
<path d="M44.0605 26.209H45.9396V29.9671H44.0605V26.209Z" fill="#212123"/>
<path d="M47.8184 26.209H49.6974V29.9671H47.8184V26.209Z" fill="#212123"/>
<path d="M51.5781 26.209H53.4572V29.9671H51.5781V26.209Z" fill="#212123"/>
<path d="M44.0605 32.7852H50.6372V34.6642H44.0605V32.7852Z" fill="#212123"/>
<path d="M39.3633 32.7852H42.1818V34.6642H39.3633V32.7852Z" fill="#212123"/>
<path d="M39.3633 36.5449H50.6375V38.424H39.3633V36.5449Z" fill="#212123"/>
<path d="M41.2422 40.3027H48.7584V42.1818H41.2422V40.3027Z" fill="#212123"/>
<path d="M27.1484 24.3301H29.967V26.2091H27.1484V24.3301Z" fill="#212123"/>
<path d="M20.5723 29.0273H22.4513V31.8459H20.5723V29.0273Z" fill="#212123"/>
<path d="M24.3301 29.0273H26.2091V31.8459H24.3301V29.0273Z" fill="#212123"/>
<path d="M28.0879 29.0273H29.9669V31.8459H28.0879V29.0273Z" fill="#212123"/>
<path d="M23.3906 24.3301H25.2697V26.2091H23.3906V24.3301Z" fill="#212123"/>
<path d="M24.3301 34.666H29.9672V36.5451H24.3301V34.666Z" fill="#212123"/>
<path d="M26.209 38.4238H29.9671V40.3029H26.209V38.4238Z" fill="#212123"/>
<path d="M60.0332 24.3301H66.6098V26.2091H60.0332V24.3301Z" fill="#212123"/>
<path d="M67.5488 29.0273H69.4279V31.8459H67.5488V29.0273Z" fill="#212123"/>
<path d="M63.791 29.0273H65.6701V31.8459H63.791V29.0273Z" fill="#212123"/>
<path d="M60.0332 29.0273H61.9122V31.8459H60.0332V29.0273Z" fill="#212123"/>
<path d="M60.0332 34.666H64.7308V36.5451H60.0332V34.666Z" fill="#212123"/>
<path d="M60.0332 38.4238H62.8518V40.3029H60.0332V38.4238Z" fill="#3E4246"/>
</g>
</g>
<defs>
<linearGradient id="paint0_linear_1594_1329" x1="88.502" y1="69.1571" x2="-0.00716736" y2="17.4341" gradientUnits="userSpaceOnUse">
<stop stop-color="#0575E6"/>
<stop offset="1" stop-color="#FF0CF5"/>
</linearGradient>
<linearGradient id="paint1_linear_1594_1329" x1="58.1544" y1="52.5156" x2="36.5449" y2="52.5156" gradientUnits="userSpaceOnUse">
<stop stop-color="#3AA0FE"/>
<stop offset="1" stop-color="#59FEF4"/>
</linearGradient>
<clipPath id="clip0_1594_1329">
<rect width="90" height="90" fill="white"/>
</clipPath>
<clipPath id="clip1_1594_1329">
<rect width="54.4922" height="54.4922" fill="white" transform="translate(17.7539 17.7539)"/>
</clipPath>
</defs>
</svg>
