<svg width="14" height="14" viewBox="0 0 14 14" fill="none" xmlns="http://www.w3.org/2000/svg">
<path fill-rule="evenodd" clip-rule="evenodd" d="M14 7C14 10.866 10.866 14 7 14C3.13401 14 0 10.866 0 7C0 3.13401 3.13401 0 7 0C10.866 0 14 3.13401 14 7ZM5.9502 3.85078C5.9502 3.27088 6.4203 2.80078 7.0002 2.80078C7.58009 2.80078 8.0502 3.27088 8.0502 3.85078V6.98984C8.0502 7.56974 7.58009 8.03984 7.0002 8.03984C6.4203 8.03984 5.9502 7.56974 5.9502 6.98984V3.85078ZM7.0002 11.1996C7.58009 11.1996 8.0502 10.7295 8.0502 10.1496C8.0502 9.56971 7.58009 9.09961 7.0002 9.09961C6.4203 9.09961 5.9502 9.56971 5.9502 10.1496C5.9502 10.7295 6.4203 11.1996 7.0002 11.1996Z" fill="#DCDCDC"/>
</svg>
