<svg xmlns="http://www.w3.org/2000/svg" xmlns:xlink="http://www.w3.org/1999/xlink" width="410" height="410" fill="none" xmlns:v="https://vecta.io/nano"><g clip-path="url(#L)"><path d="M200.005 409.998c110.457 0 200.001-89.542 200.001-199.999S310.462 10 200.005 10 .004 99.542.004 209.999s89.543 199.999 200.001 199.999z" fill="url(#A)"/><g fill-rule="evenodd"><path d="M75.009 335.001v-208c0-3.977 1.581-7.794 4.394-10.607s6.627-4.393 10.605-4.393h92.501c3.98 0 7.795 1.58 10.607 4.393s4.394 6.63 4.394 10.607v208H75.009z" fill="url(#B)"/><path d="M145.74 162.506a10.88 10.88 0 0 1-13.878 6.614 10.88 10.88 0 0 1-6.615-13.878 10.88 10.88 0 0 1 13.879-6.615c3.121 1.106 6.553-.529 7.659-3.651s-.529-6.553-3.65-7.659c-11.898-4.218-24.981 2.018-29.198 13.916s2.018 24.98 13.916 29.197 24.98-2.018 29.198-13.916c1.106-3.121-.53-6.553-3.651-7.659s-6.553.529-7.66 3.651z" fill="url(#C)"/><path d="M200.011 129.999c0-12.702-10.298-22.999-23.001-22.999h-84c-12.702 0-23 10.297-23 22.999v187c0 12.702 10.298 22.999 23 22.999h84c12.703 0 23.001-10.297 23.001-22.999v-187zm-10.001 0v187c0 7.18-5.82 13-13 13h-84c-7.18 0-13-5.82-13-13v-187c0-7.18 5.82-13 13-13h84c7.18 0 13 5.82 13 13z" fill="url(#D)"/><path d="M123.006 317.328h24c2.759 0 5-2.24 5-5s-2.241-5-5-5h-24c-2.76 0-5 2.24-5 5s2.24 5 5 5z" fill="#fff"/><path d="M5.006 339.999h320.001c2.76 0 5-2.24 5-5s-2.24-5-5-5H5.006c-2.76 0-5 2.241-5 5s2.24 5 5 5z" fill="url(#E)"/><path d="M54.332 329.999H5.011c-2.76 0-5 2.24-5 4.999s2.241 5.001 5 5.001h49.321c2.76 0 5-2.241 5-5.001s-2.241-4.999-5-4.999z" fill="#fff"/><path d="M253.342 205.499v-16.171a5 5 0 0 0-5-5h-32.674a5 5 0 0 0-5 5v16.171c0 2.76 2.24 5 5 5s5-2.24 5-5v-11.171h22.674v11.171c0 2.76 2.24 5 5 5s5-2.24 5-5z" fill="url(#F)"/><path d="M216.303 286.828c-8.204 7.261-18.989 11.671-30.796 11.671-25.664 0-46.5-20.836-46.5-46.5s20.836-46.5 46.5-46.5h93c25.664 0 46.5 20.836 46.5 46.5s-20.836 46.5-46.5 46.5c-11.807 0-22.592-4.41-30.796-11.671-9.629-8.522-21.779-8.522-31.408 0z" fill="url(#G)"/><path d="M219.617 290.572c7.597-6.723 17.183-6.723 24.78 0a51.3 51.3 0 0 0 34.11 12.927c28.424 0 51.5-23.076 51.5-51.5s-23.076-51.5-51.5-51.5h-93c-28.424 0-51.5 23.076-51.5 51.5s23.076 51.5 51.5 51.5a51.3 51.3 0 0 0 34.11-12.927zm-6.628-7.488a41.33 41.33 0 0 1-27.482 10.415c-22.904 0-41.5-18.596-41.5-41.5s18.596-41.5 41.5-41.5h93c22.904 0 41.5 18.596 41.5 41.5s-18.596 41.5-41.5 41.5a41.33 41.33 0 0 1-27.482-10.415c-11.662-10.32-26.374-10.32-38.036 0z" fill="url(#H)"/><g fill="#fff"><path d="M207.308 247.627c1.16-.001 2.273.46 3.092 1.28s1.281 1.932 1.28 3.092l.001.001c-.001 1.159-.461 2.271-1.282 3.092s-1.931 1.28-3.091 1.281h-14.269v14.269a4.37 4.37 0 0 1-4.372 4.372 4.37 4.37 0 0 1-3.093-1.281c-.82-.82-1.282-1.931-1.281-3.091v-14.269s-8.76-.001-14.269 0a4.37 4.37 0 0 1-4.373-4.373c0-1.161.461-2.273 1.281-3.093a4.37 4.37 0 0 1 3.091-1.281l14.27.001-.001-14.27c.001-1.16.461-2.272 1.281-3.091s1.933-1.281 3.092-1.282 2.273.461 3.093 1.281a4.37 4.37 0 0 1 1.281 3.093v14.269h14.269z"/></g></g><use xlink:href="#M" fill="#fff"/><path d="M278.991 275.014a7.68 7.68 0 0 0 7.678-7.678 7.68 7.68 0 0 0-7.678-7.678 7.68 7.68 0 0 0-7.678 7.678 7.68 7.68 0 0 0 7.678 7.678z" fill="#fff"/><use xlink:href="#N" fill="#fff"/><path d="M255.978 251.999a7.68 7.68 0 0 0 7.678 7.677 7.68 7.68 0 0 0 7.678-7.677 7.68 7.68 0 0 0-7.678-7.678 7.68 7.68 0 0 0-7.678 7.678z" fill="#fff"/><g fill-rule="evenodd"><path d="M340.013 0c-38.634 0-70 31.366-70 70s31.366 70 70 70 70.001-31.367 70.001-70-31.367-70-70.001-70zm0 10c33.115 0 60 26.885 60 60s-26.885 59.999-60 59.999-60-26.885-60-59.999 26.885-60 60-60z" fill="#151515"/><path d="M237.007 189.328v-16.329a15 15 0 0 1 15-15h30c13.807 0 25.001-11.193 25.001-25v-21c0-2.759-2.24-4.999-5.001-4.999s-5 2.24-5 4.999v21c0 8.284-6.716 15-15 15h-30c-6.63 0-12.989 2.634-17.678 7.322s-7.322 11.048-7.322 17.678v16.329c0 2.76 2.24 5 5 5s5-2.24 5-5z" fill="url(#I)"/></g><path d="M340.013 130c33.137 0 60-26.863 60-60s-26.863-60-60-60-60 26.863-60 60 26.863 60 60 60z" fill="#151515"/><g fill-rule="evenodd"><path d="M340.013 10c33.115 0 60 26.885 60 60s-26.885 60-60 60-60-26.885-60-60 26.885-60 60-60zm0 10c27.596 0 50 22.404 50 50s-22.404 49.999-50 49.999-50-22.404-50-49.999 22.404-50 50-50z" fill="url(#J)"/><path d="M311.214 73.536l16.842 16.842c1.953 1.952 5.119 1.952 7.072 0l33.683-33.683c1.951-1.952 1.951-5.12 0-7.072s-5.12-1.951-7.072 0l-30.147 30.149-13.306-13.307c-1.952-1.951-5.12-1.951-7.072 0s-1.951 5.12 0 7.072z" fill="url(#K)"/></g></g><defs><linearGradient id="A" x1="70.306" y1="57.8" x2="350.322" y2="341.871" xlink:href="#O"><stop stop-color="#ff0cf5"/><stop offset="1" stop-color="#0575e6"/></linearGradient><linearGradient id="B" x1="-120.23" y1="139.238" x2="-120.23" y2="328.274" xlink:href="#O"><stop stop-color="#36ff78" stop-opacity=".8"/><stop offset="1" stop-color="#0cffff" stop-opacity=".15"/></linearGradient><linearGradient id="C" x1="128.547" y1="143.502" x2="147.824" y2="170.392" xlink:href="#O"><stop stop-color="#ff0cf5"/><stop offset="1" stop-color="#0575e6"/></linearGradient><linearGradient id="D" x1="131.971" y1="111.999" x2="165.676" y2="334.999" xlink:href="#O"><stop stop-color="#36ff78"/><stop offset="1" stop-color="#0cffff"/></linearGradient><linearGradient id="E" x1=".006" y1="334.999" x2="313.007" y2="334.999" xlink:href="#O"><stop stop-color="#3aa0fe"/><stop offset="1" stop-color="#59fef4"/></linearGradient><linearGradient id="F" x1="215.668" y1="197.414" x2="248.342" y2="197.414" xlink:href="#O"><stop stop-color="#36ff78"/><stop offset="1" stop-color="#0cffff"/></linearGradient><linearGradient id="G" x1="184.007" y1="299.328" x2="245.507" y2="205.499" xlink:href="#O"><stop stop-color="#a83afe"/><stop offset="1" stop-color="#6e59fe"/></linearGradient><linearGradient id="H" x1="356.007" y1="324.999" x2="222.008" y2="177.998" xlink:href="#O"><stop stop-color="#3aa0fe"/><stop offset="1" stop-color="#59fef4"/></linearGradient><linearGradient id="I" x1="318.863" y1="189.328" x2="318.863" y2="189.328" xlink:href="#O"><stop stop-color="#36ff78"/><stop offset="1" stop-color="#0cffff"/></linearGradient><linearGradient id="J" x1="280.013" y1="70" x2="400.013" y2="70" xlink:href="#O"><stop stop-color="#36ff78"/><stop offset="1" stop-color="#0cffff"/></linearGradient><linearGradient id="K" x1="310.012" y1="75" x2="365.012" y2="90" xlink:href="#O"><stop stop-color="#36ff78"/><stop offset="1" stop-color="#0cffff"/></linearGradient><clipPath id="L"><path fill="#fff" d="M0 0h410v410H0z"/></clipPath><path id="M" d="M278.991 244.341a7.68 7.68 0 0 0 7.678-7.678 7.68 7.68 0 0 0-7.678-7.678 7.68 7.68 0 0 0-7.678 7.678 7.68 7.68 0 0 0 7.678 7.678z"/><path id="N" d="M286.646 251.999a7.68 7.68 0 0 0 7.678 7.677 7.68 7.68 0 0 0 7.678-7.677 7.68 7.68 0 0 0-7.678-7.678 7.68 7.68 0 0 0-7.678 7.678z"/><linearGradient id="O" gradientUnits="userSpaceOnUse"/></defs></svg>