<svg xmlns="http://www.w3.org/2000/svg" xmlns:xlink="http://www.w3.org/1999/xlink" width="830" height="845" fill="none" xmlns:v="https://vecta.io/nano"><g filter="url(#A)"><path d="M534 661L380 661C269.543 661 180 571.457 180 461L180 205C180 94.543 90.4569 4.99998 -20 4.99998L-152 4.99997" stroke="url(#B)" stroke-width="10"/></g><g clip-path="url(#N)"><path d="M620.005 844.998c110.457 0 200.001-89.542 200.001-199.999S730.462 445 620.005 445s-200.001 89.542-200.001 199.999 89.544 199.999 200.001 199.999z" fill="url(#C)"/><g fill-rule="evenodd"><path d="M495.009 770.001v-208c0-3.977 1.581-7.794 4.394-10.607a15 15 0 0 1 10.605-4.393h92.501c3.98 0 7.795 1.58 10.607 4.393s4.394 6.63 4.394 10.607v208H495.009z" fill="url(#D)"/><path d="M565.74 597.506a10.88 10.88 0 0 1-13.878 6.614 10.88 10.88 0 0 1-6.615-13.878 10.88 10.88 0 0 1 13.879-6.615c3.121 1.106 6.553-.529 7.659-3.651s-.529-6.553-3.65-7.659c-11.898-4.218-24.981 2.018-29.198 13.916s2.018 24.98 13.916 29.197 24.98-2.018 29.198-13.916c1.106-3.121-.53-6.553-3.651-7.659s-6.553.529-7.66 3.651z" fill="url(#E)"/><path d="M620.011 564.999c0-12.702-10.298-22.999-23.001-22.999h-84c-12.702 0-23 10.297-23 22.999v187c0 12.702 10.298 22.999 23 22.999h84c12.703 0 23.001-10.297 23.001-22.999v-187zm-10.001 0v187c0 7.18-5.82 13-13 13h-84c-7.18 0-13-5.82-13-13v-187c0-7.18 5.82-13 13-13h84c7.18 0 13 5.82 13 13z" fill="url(#F)"/><path d="M543.006 752.328h24c2.759 0 5-2.24 5-5s-2.241-5-5-5h-24c-2.76 0-5 2.24-5 5s2.24 5 5 5z" fill="#fff"/><path d="M425.006 774.999h320.001c2.76 0 5-2.24 5-5s-2.24-5-5-5H425.006c-2.76 0-5 2.241-5 5s2.24 5 5 5z" fill="url(#G)"/><path d="M474.332 764.999h-49.321c-2.759 0-5 2.24-5 4.999s2.241 5.001 5 5.001h49.321c2.76 0 5.001-2.241 5.001-5.001s-2.241-4.999-5.001-4.999z" fill="#fff"/><path d="M673.342 640.499v-16.171a5 5 0 0 0-5-5h-32.674a5 5 0 0 0-5 5v16.171c0 2.76 2.24 5 5 5s5-2.24 5-5v-11.171h22.674v11.171c0 2.76 2.24 5 5 5s5-2.24 5-5z" fill="url(#H)"/><path d="M636.303 721.828c-8.204 7.261-18.989 11.671-30.796 11.671-25.664 0-46.5-20.836-46.5-46.5s20.836-46.5 46.5-46.5h93c25.664 0 46.5 20.836 46.5 46.5s-20.836 46.5-46.5 46.5c-11.807 0-22.592-4.41-30.796-11.671-9.629-8.522-21.779-8.522-31.408 0z" fill="url(#I)"/><path d="M639.617 725.572c7.597-6.723 17.183-6.723 24.78 0a51.3 51.3 0 0 0 34.11 12.927c28.424 0 51.5-23.076 51.5-51.5s-23.076-51.5-51.5-51.5h-93c-28.424 0-51.5 23.076-51.5 51.5s23.076 51.5 51.5 51.5a51.3 51.3 0 0 0 34.11-12.927zm-6.628-7.488a41.33 41.33 0 0 1-27.482 10.415c-22.904 0-41.5-18.596-41.5-41.5s18.596-41.5 41.5-41.5h93c22.904 0 41.5 18.596 41.5 41.5s-18.596 41.5-41.5 41.5a41.33 41.33 0 0 1-27.482-10.415c-11.662-10.32-26.374-10.32-38.036 0z" fill="url(#J)"/><g fill="#fff"><path d="M627.308 682.627c1.16-.001 2.273.46 3.092 1.28s1.281 1.932 1.28 3.092l.001.001c-.001 1.159-.461 2.271-1.282 3.092s-1.931 1.28-3.091 1.281h-14.269v14.269a4.37 4.37 0 0 1-4.372 4.372 4.37 4.37 0 0 1-3.093-1.281c-.82-.82-1.282-1.931-1.281-3.091v-14.269s-8.76-.001-14.269 0a4.37 4.37 0 0 1-4.373-4.373c0-1.161.461-2.273 1.281-3.093a4.37 4.37 0 0 1 3.091-1.281l14.27.001-.001-14.27c.001-1.16.461-2.272 1.281-3.091s1.933-1.281 3.092-1.282 2.273.461 3.093 1.281a4.37 4.37 0 0 1 1.281 3.093v14.269h14.269z"/></g></g><use xlink:href="#O" fill="#fff"/><path d="M698.991 710.014a7.68 7.68 0 0 0 7.678-7.678 7.68 7.68 0 0 0-7.678-7.678 7.68 7.68 0 0 0-7.678 7.678 7.68 7.68 0 0 0 7.678 7.678z" fill="#fff"/><use xlink:href="#P" fill="#fff"/><path d="M675.978 686.999a7.68 7.68 0 0 0 7.678 7.677 7.68 7.68 0 0 0 7.678-7.677 7.68 7.68 0 0 0-7.678-7.678 7.68 7.68 0 0 0-7.678 7.678z" fill="#fff"/><g fill-rule="evenodd"><path d="M760.013 435c-38.634 0-70 31.366-70 70s31.366 70 70 70 70.001-31.367 70.001-70-31.367-70-70.001-70zm0 10c33.115 0 60 26.885 60 60s-26.885 59.999-60 59.999-60-26.885-60-59.999 26.885-60 60-60z" fill="#151515"/><path d="M657.007 624.328v-16.329a15 15 0 0 1 15-15h30c13.807 0 25.001-11.193 25.001-25v-21c0-2.759-2.24-4.999-5.001-4.999s-5 2.24-5 4.999v21c0 8.284-6.716 15-15 15h-30c-6.63 0-12.989 2.634-17.678 7.322s-7.322 11.048-7.322 17.678v16.329c0 2.76 2.24 5 5 5s5-2.24 5-5z" fill="url(#K)"/></g><path d="M760.013 565c33.137 0 60-26.863 60-60s-26.863-60-60-60-60 26.863-60 60 26.863 60 60 60z" fill="#151515"/><g fill-rule="evenodd"><path d="M760.013 445c33.115 0 60 26.885 60 60s-26.885 60-60 60-60-26.885-60-60 26.885-60 60-60zm0 10c27.596 0 50 22.404 50 50s-22.404 49.999-50 49.999-50-22.404-50-49.999 22.404-50 50-50z" fill="url(#L)"/><path d="M731.214 508.536l16.842 16.841c1.953 1.952 5.119 1.952 7.072 0l33.683-33.683c1.951-1.952 1.951-5.12 0-7.072s-5.12-1.951-7.072 0l-30.147 30.149-13.306-13.307c-1.952-1.951-5.12-1.951-7.072 0s-1.951 5.12 0 7.072z" fill="url(#M)"/></g></g><defs><filter id="A" x="-156" y="0" width="694" height="674" filterUnits="userSpaceOnUse" color-interpolation-filters="sRGB"><feFlood flood-opacity="0" result="A"/><feColorMatrix in="SourceAlpha" values="0 0 0 0 0 0 0 0 0 0 0 0 0 0 0 0 0 0 127 0" result="B"/><feOffset dy="4"/><feGaussianBlur stdDeviation="2"/><feComposite in2="B" operator="out"/><feColorMatrix values="0 0 0 0 0 0 0 0 0 0 0 0 0 0 0 0 0 0 0.25 0"/><feBlend in2="A"/><feBlend in="SourceGraphic"/></filter><linearGradient id="B" x1="1193.82" y1="731.978" x2="-538.179" y2="153.535" xlink:href="#Q"><stop stop-color="#fa8080"/><stop offset=".495" stop-color="#bf74bb"/><stop offset=".847" stop-color="#1f1f1f"/><stop offset="1" stop-color="#5a43de"/></linearGradient><linearGradient id="C" x1="490.306" y1="492.8" x2="770.322" y2="776.871" xlink:href="#Q"><stop stop-color="#ff0cf5"/><stop offset="1" stop-color="#0575e6"/></linearGradient><linearGradient id="D" x1="299.77" y1="574.238" x2="299.77" y2="763.274" xlink:href="#Q"><stop stop-color="#36ff78" stop-opacity=".8"/><stop offset="1" stop-color="#0cffff" stop-opacity=".15"/></linearGradient><linearGradient id="E" x1="548.547" y1="578.502" x2="567.824" y2="605.392" xlink:href="#Q"><stop stop-color="#ff0cf5"/><stop offset="1" stop-color="#0575e6"/></linearGradient><linearGradient id="F" x1="551.971" y1="546.999" x2="585.676" y2="769.999" xlink:href="#Q"><stop stop-color="#36ff78"/><stop offset="1" stop-color="#0cffff"/></linearGradient><linearGradient id="G" x1="420.006" y1="769.999" x2="733.007" y2="769.999" xlink:href="#Q"><stop stop-color="#3aa0fe"/><stop offset="1" stop-color="#59fef4"/></linearGradient><linearGradient id="H" x1="635.668" y1="632.414" x2="668.342" y2="632.414" xlink:href="#Q"><stop stop-color="#36ff78"/><stop offset="1" stop-color="#0cffff"/></linearGradient><linearGradient id="I" x1="604.007" y1="734.328" x2="665.507" y2="640.499" xlink:href="#Q"><stop stop-color="#a83afe"/><stop offset="1" stop-color="#6e59fe"/></linearGradient><linearGradient id="J" x1="776.007" y1="759.999" x2="642.008" y2="612.998" xlink:href="#Q"><stop stop-color="#3aa0fe"/><stop offset="1" stop-color="#59fef4"/></linearGradient><linearGradient id="K" x1="738.863" y1="624.328" x2="738.863" y2="624.328" xlink:href="#Q"><stop stop-color="#36ff78"/><stop offset="1" stop-color="#0cffff"/></linearGradient><linearGradient id="L" x1="700.013" y1="505" x2="820.013" y2="505" xlink:href="#Q"><stop stop-color="#36ff78"/><stop offset="1" stop-color="#0cffff"/></linearGradient><linearGradient id="M" x1="730.012" y1="510" x2="785.012" y2="525" xlink:href="#Q"><stop stop-color="#36ff78"/><stop offset="1" stop-color="#0cffff"/></linearGradient><clipPath id="N"><path fill="#fff" transform="translate(420 435)" d="M0 0h410v410H0z"/></clipPath><path id="O" d="M698.991 679.341a7.68 7.68 0 0 0 7.678-7.678 7.68 7.68 0 0 0-7.678-7.678 7.68 7.68 0 0 0-7.678 7.678 7.68 7.68 0 0 0 7.678 7.678z"/><path id="P" d="M706.646 686.999a7.68 7.68 0 0 0 7.678 7.677 7.68 7.68 0 0 0 7.678-7.677 7.68 7.68 0 0 0-7.678-7.678 7.68 7.68 0 0 0-7.678 7.678z"/><linearGradient id="Q" gradientUnits="userSpaceOnUse"/></defs></svg>