<svg xmlns="http://www.w3.org/2000/svg" xmlns:xlink="http://www.w3.org/1999/xlink" width="820" height="722" fill="none" xmlns:v="https://vecta.io/nano"><path d="M387 521L430 521C540.457 521 630 431.457 630 321L630 205C630 94.543 719.543 4.99999 830 4.99998L896 4.99998" stroke="url(#A)" stroke-width="10"/><g clip-path="url(#M)"><path d="M200.005 722.002c110.457 0 200-89.544 200-200.001s-89.543-200-200-200S.004 411.545.004 522.001s89.543 200.001 200.001 200.001z" fill="url(#B)"/><g fill-rule="evenodd"><path d="M80.003 643.331v-42c0-2.759-2.24-5-5-5s-5 2.241-5 5v42c0 2.76 2.24 5 5 5s5-2.24 5-5z" fill="url(#C)"/><path d="M142.51 643.331v-130c0-2.759-2.24-5-5-5s-5 2.241-5 5v130c0 2.76 2.24 5 5 5s5-2.24 5-5z" fill="url(#D)"/><path d="M205.006 643.331v-160c0-2.759-2.24-5-5-5s-5 2.241-5 5v160c0 2.76 2.24 5 5 5s5-2.24 5-5z" fill="url(#E)"/><path d="M267.503 643.331v-115c0-2.759-2.24-5-5-5s-5 2.241-5 5v115c0 2.76 2.24 5 5 5s5-2.24 5-5z" fill="url(#F)"/><path d="M330.01 646.331v-133c0-2.759-2.24-5-5-5s-5 2.241-5 5v133c0 2.76 2.24 5 5 5s5-2.24 5-5z" fill="url(#G)"/><path d="M70.006 620.002H92.41a40 40 0 0 0 29.486-12.971l18.936-20.658c13.719-14.966 36.552-17.088 52.794-4.906l.001.001c15.71 11.782 37.693 10.22 51.579-3.666l14.084-14.084a40 40 0 0 1 28.285-11.716h42.431v94.329h-260v-26.329z" fill="url(#H)"/><path d="M5.006 652.001h320.001c2.76 0 5-2.24 5-5s-2.24-5-5-5H5.006c-2.76 0-5 2.241-5 5s2.24 5 5 5z" fill="url(#I)"/><path d="M75.006 625.002H92.41a45 45 0 0 0 33.172-14.592l18.936-20.658c11.981-13.071 31.923-14.924 46.108-4.285l.001.001c17.701 13.275 42.469 11.515 58.114-4.13l14.085-14.085c6.564-6.563 15.466-10.251 24.748-10.251h62.433c2.76 0 5-2.24 5-5s-2.24-5-5-5h-62.432a45 45 0 0 0-31.82 13.18l-14.085 14.085c-12.126 12.126-31.324 13.49-45.043 3.201l-.001-.001c-18.299-13.724-44.023-11.334-59.48 5.528l-18.936 20.657a35 35 0 0 1-25.8 11.35H75.006c-2.76 0-5 2.24-5 5s2.24 5 5 5z" fill="url(#J)"/><g fill="#fff"><path d="M105.006 434.002h41c2.76 0 5-2.24 5-5s-2.24-5-5-5h-41c-2.76 0-5 2.24-5 5s2.24 5 5 5zm-.003 31.165h26c2.76 0 5-2.24 5-5s-2.24-5-5-5h-26c-2.76 0-5.001 2.24-5.001 5s2.241 5 5.001 5z"/></g></g><path d="M80.008 439.004a10 10 0 0 0 0-19.999 10 10 0 0 0 0 19.999zm0 31.164a10 10 0 0 0 0-19.999 10 10 0 0 0 0 19.999z" fill="#fff"/><g fill="#151515"><path fill-rule="evenodd" d="M340.012 312.001c-38.634 0-70 31.367-70 70.001s31.366 70 70 70 70.001-31.366 70.001-70-31.367-70.001-70.001-70.001zm0 10.001c33.115 0 60 26.885 60 60s-26.885 60-60 60-60-26.885-60-60 26.885-60 60-60z"/><path d="M340.012 442.002c33.137 0 60-26.863 60-60s-26.863-60-60-60-60 26.863-60 60 26.863 60 60 60z"/></g><g fill-rule="evenodd"><path d="M340.012 322c33.115 0 60.001 26.885 60.001 60s-26.886 60-60.001 60-60-26.885-60-60 26.885-60 60-60zm0 10c27.596 0 50 22.404 50 50s-22.404 49.999-50 49.999-49.999-22.404-49.999-49.999 22.404-50 49.999-50z" fill="url(#K)"/><path d="M311.214 385.536l16.842 16.841c1.953 1.952 5.119 1.952 7.072 0l33.683-33.683c1.951-1.952 1.951-5.12 0-7.072s-5.12-1.951-7.072 0l-30.147 30.149-13.306-13.307c-1.952-1.951-5.12-1.951-7.072 0s-1.951 5.12 0 7.072z" fill="url(#L)"/><g fill="#fff"><path d="M.001 636.738v10.264a5 5 0 0 0 5 5h105.078c2.759 0 4.999-2.24 4.999-5s-2.24-5-4.999-5H10.002v-5.264c0-2.76-2.241-5-5.001-5s-5 2.24-5 5zm30.002-62.342v35.999c0 2.76 2.24 5.001 5 5.001s5-2.241 5-5.001v-35.999c0-2.76-2.24-5-5-5s-5 2.24-5 5z"/><path d="M16.389 610.408l15.06 15.059c1.953 1.952 5.119 1.952 7.072 0l15.094-15.095c1.952-1.951 1.952-5.119 0-7.071a5 5 0 0 0-7.07 0l-11.56 11.56-11.524-11.525a5.01 5.01 0 0 0-7.072 0c-1.95 1.951-1.95 5.12 0 7.072z"/></g></g></g><defs><linearGradient id="A" x1="1034.01" y1="-272.99" x2="264.01" y2="521.009" xlink:href="#N"><stop stop-color="#d5207d"/><stop offset=".283" stop-color="#1f1f1f"/><stop offset="1" stop-color="#7e67fd"/></linearGradient><linearGradient id="B" x1="70.306" y1="369.802" x2="350.323" y2="653.873" xlink:href="#N"><stop stop-color="#ff0cf5"/><stop offset="1" stop-color="#0575e6"/></linearGradient><linearGradient id="C" x1="53.003" y1="511.002" x2="111.003" y2="628.002" xlink:href="#N"><stop stop-color="#3aa0fe"/><stop offset="1" stop-color="#59fef4"/></linearGradient><linearGradient id="D" x1="115.51" y1="511.002" x2="173.51" y2="628.002" xlink:href="#N"><stop stop-color="#3aa0fe"/><stop offset="1" stop-color="#59fef4"/></linearGradient><linearGradient id="E" x1="178.006" y1="511.002" x2="236.006" y2="628.002" xlink:href="#N"><stop stop-color="#3aa0fe"/><stop offset="1" stop-color="#59fef4"/></linearGradient><linearGradient id="F" x1="240.503" y1="511.002" x2="298.503" y2="628.002" xlink:href="#N"><stop stop-color="#3aa0fe"/><stop offset="1" stop-color="#59fef4"/></linearGradient><linearGradient id="G" x1="303.01" y1="511.002" x2="361.01" y2="628.002" xlink:href="#N"><stop stop-color="#3aa0fe"/><stop offset="1" stop-color="#59fef4"/></linearGradient><linearGradient id="H" x1="180.006" y1="564.831" x2="180.006" y2="653.873" xlink:href="#N"><stop stop-color="#36ff78" stop-opacity=".8"/><stop offset="1" stop-color="#0cffff" stop-opacity=".15"/></linearGradient><linearGradient id="I" x1=".006" y1="647.001" x2="313.007" y2="647.001" xlink:href="#N"><stop stop-color="#3aa0fe"/><stop offset="1" stop-color="#59fef4"/></linearGradient><linearGradient id="J" x1="86.006" y1="572.002" x2="285.006" y2="603.002" xlink:href="#N"><stop stop-color="#36ff78"/><stop offset="1" stop-color="#0cffff"/></linearGradient><linearGradient id="K" x1="280.012" y1="382" x2="400.013" y2="382" xlink:href="#N"><stop stop-color="#36ff78"/><stop offset="1" stop-color="#0cffff"/></linearGradient><linearGradient id="L" x1="310.012" y1="387" x2="365.012" y2="402" xlink:href="#N"><stop stop-color="#36ff78"/><stop offset="1" stop-color="#0cffff"/></linearGradient><clipPath id="M"><path fill="#fff" transform="translate(0 312)" d="M0 0h410v410H0z"/></clipPath><linearGradient id="N" gradientUnits="userSpaceOnUse"/></defs></svg>