<svg xmlns="http://www.w3.org/2000/svg" xmlns:xlink="http://www.w3.org/1999/xlink" width="410" height="410" fill="none" xmlns:v="https://vecta.io/nano"><g clip-path="url(#P)"><path d="M200.004 410.002c110.457 0 200-89.543 200-200s-89.543-200-200-200S.003 99.545.003 210.002s89.543 200 200.001 200z" fill="url(#A)"/><g fill-rule="evenodd"><path d="M246.006 283.002v20.749a34.26 34.26 0 0 0 21.194 31.67l8.913 3.677c2.551 1.052 5.477-.165 6.529-2.716s-.164-5.476-2.715-6.529l-8.914-3.677a24.26 24.26 0 0 1-15.007-22.425v-20.749c0-2.76-2.24-5-5-5s-5 2.24-5 5z" fill="url(#B)"/><path d="M217.013 283.002v20.749a24.26 24.26 0 0 1-15.007 22.425c-.001 0-8.914 3.677-8.914 3.677-2.551 1.053-3.768 3.978-2.715 6.529s3.978 3.768 6.529 2.716l8.913-3.677a34.26 34.26 0 0 0 21.194-31.67v-20.749c0-2.76-2.24-5-5-5s-5 2.24-5 5z" fill="url(#C)"/></g><path d="M325.011 162.837H200.01V280.528H325.011V162.837Z" fill="url(#D)"/><g fill-rule="evenodd"><path d="M197.506 164.286h122.5v113.716h-122.5c-2.76 0-5 2.24-5 5s2.24 5 5 5h127.5a5 5 0 0 0 5-5V159.286a5 5 0 0 0-5-5h-127.5c-2.76 0-5 2.24-5 5s2.24 5 5 5z" fill="url(#E)"/><path d="M127.507 112.002l-46.602 27.517a12 12 0 0 0-5.898 10.333v147.592a12 12 0 0 0 5.947 10.361l46.553 27.197" fill="url(#F)"/><path d="M124.965 107.697l-46.602 27.517a17 17 0 0 0-8.356 14.638v147.592a17 17 0 0 0 8.425 14.679l46.553 27.196c2.382 1.392 5.447.588 6.84-1.795s.587-5.447-1.796-6.839l-46.553-27.197a7 7 0 0 1-3.469-6.044V149.852a7 7 0 0 1 3.441-6.027c0-.001 46.601-27.518 46.601-27.518 2.376-1.403 3.166-4.471 1.764-6.847s-4.472-3.167-6.848-1.763z" fill="url(#G)"/><path d="M129.438 282.391l-52.5-22a5 5 0 0 0-6.543 2.679 5 5 0 0 0 2.679 6.543l52.501 22a5 5 0 0 0 6.543-2.679 5 5 0 0 0-2.679-6.543z" fill="url(#H)"/></g><path d="M197.506 112.002h-70v223h70v-223z" fill="url(#I)"/><g fill-rule="evenodd"><path d="M197.506 340.002a5 5 0 0 0 5-5v-223a5 5 0 0 0-5-5h-69.999a5 5 0 0 0-5.001 5v223a5 5 0 0 0 5.001 5h69.999zm-4.999-10h-60.001v-213h60.001v213z" fill="url(#J)"/><use xlink:href="#Q" fill="#fff"/><path d="M160.005 162.752h7c2.76 0 5-2.24 5-5s-2.24-5-5-5h-7c-2.76 0-5 2.24-5 5s2.24 5 5 5z" fill="url(#K)"/><path d="M163.256 193.003c12.832 0 23.25 10.419 23.25 23.25s-10.418 23.25-23.25 23.25-23.25-10.418-23.25-23.25 10.418-23.25 23.25-23.25zm0 10a13.26 13.26 0 0 1 13.25 13.25 13.26 13.26 0 0 1-13.25 13.251 13.26 13.26 0 0 1-13.25-13.251 13.26 13.26 0 0 1 13.25-13.25z" fill="#fff"/><path d="M168.509 219.752v-7c0-2.76-2.24-5-5-5s-5 2.24-5 5v7c0 2.76 2.24 5 5 5s5-2.24 5-5z" fill="url(#L)"/><g fill="#fff"><path d="M150.508 287.331h24c2.759 0 5-2.24 5-5s-2.241-5-5-5h-24c-2.76 0-5 2.24-5 5s2.24 5 5 5zm6.498 22h11c2.76 0 5-2.24 5-5s-2.24-5-5-5h-11c-2.76 0-5 2.24-5 5s2.24 5 5 5z"/></g><path d="M5.005 340.002h320.001c2.76 0 5-2.24 5-5s-2.24-5-5-5H5.005c-2.76 0-5 2.241-5 5s2.24 5 5 5z" fill="url(#M)"/><path d="M75.331 330.002H5.009c-2.76 0-5 2.241-5 5s2.24 5.001 5 5.001h70.321c2.76 0 5-2.241 5-5.001s-2.24-5-5-5z" fill="#fff"/><g fill="#151515"><path d="M340.011.002c-38.634 0-70 31.366-70 70s31.366 70.001 70 70.001 70.001-31.367 70.001-70.001-31.367-70-70.001-70zm0 10c33.115 0 60 26.885 60 60s-26.885 60-60 60-60-26.885-60-60 26.885-60 60-60z"/></g></g><path d="M340.011 130.002c33.138 0 60.001-26.862 60.001-60s-26.863-60-60.001-60-60 26.863-60 60 26.863 60 60 60z" fill="#151515"/><g fill-rule="evenodd"><path d="M340.013 10c33.115 0 60 26.885 60 60s-26.885 60-60 60-60-26.885-60-60 26.885-60 60-60zm0 10c27.596 0 50 22.404 50 50s-22.404 49.999-50 49.999-50-22.404-50-49.999 22.404-50 50-50z" fill="url(#N)"/><path d="M311.214 73.536l16.842 16.842c1.953 1.952 5.119 1.952 7.072 0l33.683-33.684c1.951-1.952 1.951-5.12 0-7.072s-5.12-1.951-7.072 0l-30.147 30.149-13.306-13.307c-1.952-1.951-5.12-1.951-7.072 0s-1.951 5.12 0 7.072z" fill="url(#O)"/></g></g><defs><linearGradient id="A" x1="70.305" y1="57.803" x2="350.322" y2="341.873" xlink:href="#R"><stop stop-color="#ff0cf5"/><stop offset="1" stop-color="#0575e6"/></linearGradient><linearGradient id="B" x1="230.655" y1="281.002" x2="230.655" y2="281.002" xlink:href="#R"><stop stop-color="#3aa0fe"/><stop offset="1" stop-color="#59fef4"/></linearGradient><linearGradient id="C" x1="242.364" y1="281.002" x2="242.364" y2="281.002" xlink:href="#R"><stop stop-color="#3aa0fe"/><stop offset="1" stop-color="#59fef4"/></linearGradient><linearGradient id="D" x1=".786" y1="177.212" x2=".786" y2="276.978" xlink:href="#R"><stop stop-color="#36ff78" stop-opacity=".8"/><stop offset="1" stop-color="#0cffff" stop-opacity=".15"/></linearGradient><linearGradient id="E" x1="251.172" y1="159.286" x2="278.339" y2="283.002" xlink:href="#R"><stop stop-color="#36ff78"/><stop offset="1" stop-color="#0cffff"/></linearGradient><linearGradient id="F" x1="75.007" y1="244.331" x2="127.507" y2="131.502" xlink:href="#R"><stop stop-color="#a83afe"/><stop offset="1" stop-color="#6e59fe"/></linearGradient><linearGradient id="G" x1="75.007" y1="304.33" x2="127.507" y2="112.002" xlink:href="#R"><stop stop-color="#3aa0fe"/><stop offset="1" stop-color="#59fef4"/></linearGradient><linearGradient id="H" x1="75.006" y1="265.002" x2="127.506" y2="287.002" xlink:href="#R"><stop stop-color="#41b5fc"/><stop offset="1" stop-color="#46c3fa"/></linearGradient><linearGradient id="I" x1="156.006" y1="326.002" x2="180.006" y2="189.332" xlink:href="#R"><stop stop-color="#a83afe"/><stop offset="1" stop-color="#6e59fe"/></linearGradient><linearGradient id="J" x1="231.006" y1="350.002" x2="127.507" y2="112.002" xlink:href="#R"><stop stop-color="#3aa0fe"/><stop offset="1" stop-color="#59fef4"/></linearGradient><linearGradient id="K" x1="160.005" y1="157.752" x2="167.005" y2="157.752" xlink:href="#R"><stop stop-color="#3aa0fe"/><stop offset="1" stop-color="#59fef4"/></linearGradient><linearGradient id="L" x1="163.509" y1="219.752" x2="163.509" y2="212.752" xlink:href="#R"><stop stop-color="#3aa0fe"/><stop offset="1" stop-color="#59fef4"/></linearGradient><linearGradient id="M" x1=".005" y1="335.002" x2="313.006" y2="335.002" xlink:href="#R"><stop stop-color="#3aa0fe"/><stop offset="1" stop-color="#59fef4"/></linearGradient><linearGradient id="N" x1="280.013" y1="70" x2="400.013" y2="70" xlink:href="#R"><stop stop-color="#36ff78"/><stop offset="1" stop-color="#0cffff"/></linearGradient><linearGradient id="O" x1="310.012" y1="75.001" x2="365.012" y2="90.001" xlink:href="#R"><stop stop-color="#36ff78"/><stop offset="1" stop-color="#0cffff"/></linearGradient><clipPath id="P"><path fill="#fff" d="M0 0h410v410H0z"/></clipPath><path id="Q" d="M163.256 134.503c12.832 0 23.25 10.419 23.25 23.25s-10.418 23.25-23.25 23.25-23.25-10.418-23.25-23.25 10.418-23.25 23.25-23.25zm0 10a13.26 13.26 0 0 1 13.25 13.25 13.26 13.26 0 0 1-13.25 13.251 13.26 13.26 0 0 1-13.25-13.251 13.26 13.26 0 0 1 13.25-13.25z"/><linearGradient id="R" gradientUnits="userSpaceOnUse"/></defs></svg>