<svg width="36" height="65" viewBox="0 0 36 65" fill="none" xmlns="http://www.w3.org/2000/svg">
<path d="M27.3668 1.56494C29.2639 -0.441636 32.4285 -0.530363 34.4351 1.36677C36.4416 3.2639 36.5304 6.42848 34.6332 8.43506L27.3668 1.56494ZM5 32.5L1.36677 35.9351C-0.455589 34.0076 -0.455589 30.9924 1.36677 29.0649L5 32.5ZM34.6332 56.5649C36.5304 58.5715 36.4416 61.7361 34.4351 63.6332C32.4285 65.5304 29.2639 65.4416 27.3668 63.4351L34.6332 56.5649ZM34.6332 8.43506L8.63323 35.9351L1.36677 29.0649L27.3668 1.56494L34.6332 8.43506ZM8.63323 29.0649L34.6332 56.5649L27.3668 63.4351L1.36677 35.9351L8.63323 29.0649Z" fill="url(#paint0_linear_96_620)"/>
<defs>
<linearGradient id="paint0_linear_96_620" x1="5" y1="5" x2="31" y2="5" gradientUnits="userSpaceOnUse">
<stop stop-color="#616161"/>
<stop offset="1" stop-color="#434343"/>
</linearGradient>
</defs>
</svg>
