<svg xmlns="http://www.w3.org/2000/svg" width="36" height="65" fill="none" xmlns:v="https://vecta.io/nano"><path d="M27.367 1.565a5 5 0 0 1 7.266 6.87l-7.266-6.87zM5 32.5l-3.633 3.435a5 5 0 0 1 0-6.87L5 32.5zm29.633 24.065a5 5 0 1 1-7.266 6.87l7.266-6.87zm0-48.13l-26 27.5-7.266-6.87 26-27.5 7.266 6.87zm-26 20.63l26 27.5-7.266 6.87-26-27.5 7.266-6.87z" fill="url(#A)"/><defs><linearGradient id="A" x1="5" y1="5" x2="31" y2="5" gradientUnits="userSpaceOnUse"><stop stop-color="#616161"/><stop offset="1" stop-color="#434343"/></linearGradient></defs></svg>