<svg width="37" height="65" viewBox="0 0 37 65" fill="none" xmlns="http://www.w3.org/2000/svg">
<path d="M8.56782 1.49705C6.63319 -0.473403 3.4675 -0.502446 1.49705 1.43218C-0.473403 3.36681 -0.502446 6.5325 1.43218 8.50295L8.56782 1.49705ZM32 32.5L35.5678 36.003C37.4774 34.058 37.4774 30.942 35.5678 28.997L32 32.5ZM1.43218 56.4971C-0.502446 58.4675 -0.473403 61.6332 1.49705 63.5678C3.4675 65.5024 6.63319 65.4734 8.56782 63.5029L1.43218 56.4971ZM1.43218 8.50295L28.4322 36.003L35.5678 28.997L8.56782 1.49705L1.43218 8.50295ZM28.4322 28.997L1.43218 56.4971L8.56782 63.5029L35.5678 36.003L28.4322 28.997Z" fill="url(#paint0_linear_96_619)"/>
<defs>
<linearGradient id="paint0_linear_96_619" x1="31.549" y1="47.2606" x2="-1.35809" y2="37.8204" gradientUnits="userSpaceOnUse">
<stop stop-color="#0575E6"/>
<stop offset="1" stop-color="#FF0CF5"/>
</linearGradient>
</defs>
</svg>
