<svg xmlns="http://www.w3.org/2000/svg" width="37" height="65" fill="none" xmlns:v="https://vecta.io/nano"><path d="M8.568 1.497a5 5 0 0 0-7.136 7.006l7.136-7.006zM32 32.5l3.568 3.503a5 5 0 0 0 0-7.006L32 32.5zM1.432 56.497a5 5 0 0 0 .065 7.071 5 5 0 0 0 7.071-.065l-7.136-7.006zm0-47.994l27 27.5 7.136-7.006-27-27.5-7.136 7.006zm27 20.494l-27 27.5 7.136 7.006 27-27.5-7.136-7.006z" fill="url(#A)"/><defs><linearGradient id="A" x1="31.549" y1="47.261" x2="-1.358" y2="37.82" gradientUnits="userSpaceOnUse"><stop stop-color="#0575e6"/><stop offset="1" stop-color="#ff0cf5"/></linearGradient></defs></svg>