<svg width="450" height="450" viewBox="0 0 450 450" fill="none" xmlns="http://www.w3.org/2000/svg">
<path d="M239.004 410.002C349.461 410.002 439.004 320.459 439.004 210.002C439.004 99.5448 349.461 10.0017 239.004 10.0017C128.546 10.0017 39.0029 99.5448 39.0029 210.002C39.0029 320.459 128.546 410.002 239.004 410.002Z" fill="url(#paint0_linear_12_6423)"/>
<path fill-rule="evenodd" clip-rule="evenodd" d="M379.011 0.00170898C340.377 0.00170898 309.011 31.368 309.011 70.002C309.011 108.636 340.377 140.002 379.011 140.002C417.646 140.002 449.012 108.636 449.012 70.002C449.012 31.368 417.646 0.00170898 379.011 0.00170898ZM379.011 10.002C412.126 10.002 439.012 36.8871 439.012 70.002C439.012 103.117 412.126 130.002 379.011 130.002C345.896 130.002 319.011 103.117 319.011 70.002C319.011 36.8871 345.896 10.002 379.011 10.002Z" fill="#151515"/>
<path d="M379.011 130.002C412.149 130.002 439.012 103.139 439.012 70.002C439.012 36.8649 412.149 10.002 379.011 10.002C345.874 10.002 319.011 36.8649 319.011 70.002C319.011 103.139 345.874 130.002 379.011 130.002Z" fill="#151515"/>
<path fill-rule="evenodd" clip-rule="evenodd" d="M379.013 9.99976C412.128 9.99976 439.013 36.8848 439.013 69.9996C439.013 103.114 412.128 129.999 379.013 129.999C345.898 129.999 319.012 103.114 319.012 69.9996C319.012 36.8848 345.898 9.99976 379.013 9.99976ZM379.013 20C406.608 20 429.013 42.4039 429.013 69.9996C429.013 97.5952 406.608 119.999 379.013 119.999C351.417 119.999 329.013 97.5952 329.013 69.9996C329.013 42.4039 351.417 20 379.013 20Z" fill="url(#paint1_linear_12_6423)"/>
<path fill-rule="evenodd" clip-rule="evenodd" d="M350.214 73.5354L367.056 90.3772C369.009 92.3291 372.175 92.3291 374.128 90.3772L407.811 56.6936C409.762 54.7416 409.762 51.5738 407.811 49.6218C405.859 47.6707 402.691 47.6707 400.739 49.6218L370.592 79.7703L357.286 66.4636C355.334 64.5125 352.166 64.5125 350.214 66.4636C348.263 68.4155 348.263 71.5834 350.214 73.5354Z" fill="url(#paint2_linear_12_6423)"/>
<path d="M203.118 402.638H126.882L137.145 356.948H192.855L203.118 402.638Z" fill="#959595"/>
<path d="M192.855 356.948H164.433L174.696 402.638H203.118L192.855 356.948Z" fill="#DCDCDC"/>
<path d="M322.8 360.766H7.20006C3.2233 360.766 0 357.543 0 353.566V153.445C0 149.469 3.2233 146.245 7.20006 146.245H322.8C326.776 146.245 330 149.468 330 153.445V353.566C330 357.543 326.777 360.766 322.8 360.766Z" fill="url(#paint3_linear_12_6423)"/>
<path d="M322.8 146.245H294.227C298.204 146.245 301.427 149.468 301.427 153.445V353.566C301.427 357.542 298.204 360.766 294.227 360.766H322.8C326.777 360.766 330 357.543 330 353.566V153.445C330 149.469 326.777 146.245 322.8 146.245Z" fill="url(#paint4_linear_12_6423)"/>
<path d="M22.5753 325.106V172.405C22.5753 169.655 24.8041 167.427 27.5537 167.427H302.446C305.196 167.427 307.425 169.655 307.425 172.405V325.106C307.425 327.855 305.196 330.084 302.446 330.084H27.5537C24.8041 330.084 22.5753 327.855 22.5753 325.106Z" fill="#E9F6FF"/>
<path d="M302.446 167.427H273.983C276.733 167.427 278.961 169.655 278.961 172.405V325.106C278.961 327.855 276.733 330.084 273.983 330.084H302.446C305.196 330.084 307.425 327.855 307.425 325.106V172.405C307.425 169.655 305.196 167.427 302.446 167.427Z" fill="#CCDFED"/>
<path d="M240.794 423.755H89.2064C87.1928 423.755 85.5602 422.123 85.5602 420.109C85.5602 407.525 95.7612 397.324 108.346 397.324H221.654C234.238 397.324 244.44 407.525 244.44 420.109C244.44 422.123 242.807 423.755 240.794 423.755Z" fill="url(#paint5_linear_12_6423)"/>
<path d="M221.654 397.324H196.837C207.408 397.324 215.977 405.893 215.977 416.463V423.755H240.794C242.807 423.755 244.44 422.123 244.44 420.109C244.44 407.525 234.238 397.324 221.654 397.324Z" fill="url(#paint6_linear_12_6423)"/>
<path d="M286.713 231.418H42.0222C41.1681 231.418 40.4759 230.726 40.4759 229.872V195.689C40.4759 194.835 41.1681 194.142 42.0222 194.142H286.713C287.567 194.142 288.259 194.835 288.259 195.689V229.872C288.259 230.726 287.567 231.418 286.713 231.418Z" fill="url(#paint7_linear_12_6423)"/>
<path d="M286.713 194.143H258.205C259.059 194.143 259.751 194.835 259.751 195.689V229.873C259.751 230.727 259.059 231.419 258.205 231.419H286.713C287.567 231.419 288.259 230.727 288.259 229.873V195.689C288.259 194.835 287.567 194.143 286.713 194.143Z" fill="url(#paint8_linear_12_6423)"/>
<path d="M123.031 284.385H63.9665C61.6359 284.385 59.7461 282.496 59.7461 280.165V217C59.7461 214.669 61.6352 212.78 63.9665 212.78H123.031C125.362 212.78 127.252 214.669 127.252 217V280.165C127.252 282.496 125.362 284.385 123.031 284.385Z" fill="url(#paint9_linear_12_6423)"/>
<path d="M123.031 212.78H94.6636C96.9942 212.78 98.884 214.669 98.884 217.001V280.165C98.884 282.496 96.9948 284.386 94.6636 284.386H123.031C125.362 284.386 127.252 282.497 127.252 280.165V217.001C127.252 214.67 125.362 212.78 123.031 212.78Z" fill="url(#paint10_linear_12_6423)"/>
<path d="M114.411 284.385H72.5871V273.901C72.5871 263.845 80.7391 255.693 90.7951 255.693H96.2027C106.259 255.693 114.411 263.845 114.411 273.901V284.385H114.411Z" fill="#F2F2F2"/>
<path d="M93.4957 255.694C100.199 255.694 105.633 250.26 105.633 243.557C105.633 236.853 100.199 231.419 93.4957 231.419C86.7925 231.419 81.3585 236.853 81.3585 243.557C81.3585 250.26 86.7925 255.694 93.4957 255.694Z" fill="#F2F2F2"/>
<path d="M269.51 260.67H150.293C147.545 260.67 145.317 258.441 145.317 255.693C145.317 252.945 147.545 250.717 150.293 250.717H269.51C272.258 250.717 274.487 252.945 274.487 255.693C274.487 258.441 272.258 260.67 269.51 260.67Z" fill="url(#paint11_linear_12_6423)"/>
<path d="M269.51 285.313H150.293C147.545 285.313 145.317 283.085 145.317 280.337C145.317 277.589 147.545 275.36 150.293 275.36H269.51C272.258 275.36 274.487 277.589 274.487 280.337C274.487 283.085 272.258 285.313 269.51 285.313Z" fill="url(#paint12_linear_12_6423)"/>
<path d="M205.146 309.957H150.293C147.545 309.957 145.317 307.729 145.317 304.981C145.317 302.232 147.545 300.004 150.293 300.004H205.146C207.894 300.004 210.122 302.232 210.122 304.981C210.122 307.729 207.894 309.957 205.146 309.957Z" fill="url(#paint13_linear_12_6423)"/>
<defs>
<linearGradient id="paint0_linear_12_6423" x1="109.305" y1="57.8026" x2="389.322" y2="341.873" gradientUnits="userSpaceOnUse">
<stop stop-color="#FF0CF5"/>
<stop offset="1" stop-color="#0575E6"/>
</linearGradient>
<linearGradient id="paint1_linear_12_6423" x1="319.012" y1="69.9996" x2="439.013" y2="69.9996" gradientUnits="userSpaceOnUse">
<stop stop-color="#36FF78"/>
<stop offset="1" stop-color="#0CFFFF"/>
</linearGradient>
<linearGradient id="paint2_linear_12_6423" x1="349.012" y1="74.9998" x2="404.012" y2="89.9999" gradientUnits="userSpaceOnUse">
<stop stop-color="#36FF78"/>
<stop offset="1" stop-color="#0CFFFF"/>
</linearGradient>
<linearGradient id="paint3_linear_12_6423" x1="330" y1="146.245" x2="0" y2="146.245" gradientUnits="userSpaceOnUse">
<stop stop-color="#247DCF"/>
<stop offset="1" stop-color="#23B9B0"/>
</linearGradient>
<linearGradient id="paint4_linear_12_6423" x1="330" y1="146.245" x2="294.227" y2="146.245" gradientUnits="userSpaceOnUse">
<stop stop-color="#0063BF"/>
<stop offset="1" stop-color="#00C7BB"/>
</linearGradient>
<linearGradient id="paint5_linear_12_6423" x1="247.049" y1="397.324" x2="85.5602" y2="397.324" gradientUnits="userSpaceOnUse">
<stop stop-color="#E1DCFE"/>
<stop offset="1" stop-color="#7E67FD"/>
</linearGradient>
<linearGradient id="paint6_linear_12_6423" x1="244.44" y1="397.324" x2="196.837" y2="397.324" gradientUnits="userSpaceOnUse">
<stop stop-color="#A83AFE"/>
<stop offset="1" stop-color="#6E59FE"/>
</linearGradient>
<linearGradient id="paint7_linear_12_6423" x1="288.259" y1="194.142" x2="40.4759" y2="194.142" gradientUnits="userSpaceOnUse">
<stop stop-color="#0063BF"/>
<stop offset="1" stop-color="#00C7BB"/>
</linearGradient>
<linearGradient id="paint8_linear_12_6423" x1="288.259" y1="194.143" x2="258.205" y2="194.143" gradientUnits="userSpaceOnUse">
<stop stop-color="#1473CB"/>
<stop offset="1" stop-color="#16C2B8"/>
</linearGradient>
<linearGradient id="paint9_linear_12_6423" x1="127.252" y1="212.78" x2="59.7461" y2="212.78" gradientUnits="userSpaceOnUse">
<stop stop-color="#247DCF"/>
<stop offset="1" stop-color="#23B9B0"/>
</linearGradient>
<linearGradient id="paint10_linear_12_6423" x1="127.252" y1="212.78" x2="94.6636" y2="212.78" gradientUnits="userSpaceOnUse">
<stop stop-color="#1860A3"/>
<stop offset="1" stop-color="#20CFC5"/>
</linearGradient>
<linearGradient id="paint11_linear_12_6423" x1="274.487" y1="250.717" x2="145.317" y2="250.717" gradientUnits="userSpaceOnUse">
<stop stop-color="#2783D8"/>
<stop offset="1" stop-color="#34DDD3"/>
</linearGradient>
<linearGradient id="paint12_linear_12_6423" x1="274.487" y1="275.36" x2="145.317" y2="275.36" gradientUnits="userSpaceOnUse">
<stop stop-color="#2783D8"/>
<stop offset="1" stop-color="#34DDD3"/>
</linearGradient>
<linearGradient id="paint13_linear_12_6423" x1="210.122" y1="300.004" x2="145.317" y2="300.004" gradientUnits="userSpaceOnUse">
<stop stop-color="#2783D8"/>
<stop offset="1" stop-color="#34DDD3"/>
</linearGradient>
</defs>
</svg>
