<svg width="450" height="450" viewBox="0 0 450 450" fill="none" xmlns="http://www.w3.org/2000/svg">
<path d="M239.004 410.002C349.461 410.002 439.004 320.459 439.004 210.002C439.004 99.5447 349.461 10.0016 239.004 10.0016C128.546 10.0016 39.0029 99.5447 39.0029 210.002C39.0029 320.459 128.546 410.002 239.004 410.002Z" fill="url(#paint0_linear_12_6514)"/>
<path fill-rule="evenodd" clip-rule="evenodd" d="M379.011 0.00177002C340.377 0.00177002 309.011 31.3681 309.011 70.0021C309.011 108.636 340.377 140.002 379.011 140.002C417.646 140.002 449.012 108.636 449.012 70.0021C449.012 31.3681 417.646 0.00177002 379.011 0.00177002ZM379.011 10.0021C412.126 10.0021 439.012 36.8872 439.012 70.0021C439.012 103.117 412.126 130.002 379.011 130.002C345.896 130.002 319.011 103.117 319.011 70.0021C319.011 36.8872 345.896 10.0021 379.011 10.0021Z" fill="#151515"/>
<path d="M379.011 130.002C412.149 130.002 439.012 103.139 439.012 70.0021C439.012 36.865 412.149 10.0021 379.011 10.0021C345.874 10.0021 319.011 36.865 319.011 70.0021C319.011 103.139 345.874 130.002 379.011 130.002Z" fill="#151515"/>
<path fill-rule="evenodd" clip-rule="evenodd" d="M379.013 9.99982C412.128 9.99982 439.013 36.8849 439.013 69.9996C439.013 103.114 412.128 129.999 379.013 129.999C345.898 129.999 319.012 103.114 319.012 69.9996C319.012 36.8849 345.898 9.99982 379.013 9.99982ZM379.013 20.0001C406.608 20.0001 429.013 42.404 429.013 69.9996C429.013 97.5953 406.608 119.999 379.013 119.999C351.417 119.999 329.013 97.5953 329.013 69.9996C329.013 42.404 351.417 20.0001 379.013 20.0001Z" fill="url(#paint1_linear_12_6514)"/>
<path fill-rule="evenodd" clip-rule="evenodd" d="M350.214 73.5355L367.056 90.3772C369.009 92.3292 372.175 92.3292 374.128 90.3772L407.811 56.6937C409.762 54.7417 409.762 51.5738 407.811 49.6218C405.859 47.6707 402.691 47.6707 400.739 49.6218L370.592 79.7703L357.286 66.4636C355.334 64.5125 352.166 64.5125 350.214 66.4636C348.263 68.4156 348.263 71.5835 350.214 73.5355Z" fill="url(#paint2_linear_12_6514)"/>
<g clip-path="url(#clip0_12_6514)">
<path d="M329 169.746V430.287L246.5 400.261L164 430.287L81.5 400.261L-1 430.287V169.746L81.5 139.714L164 169.746L246.5 139.714L329 169.746Z" fill="url(#paint3_linear_12_6514)"/>
<path d="M164 169.746V430.287L81.5 400.261V139.714L164 169.746Z" fill="url(#paint4_linear_12_6514)"/>
<path d="M329 169.746V430.287L246.5 400.261V139.714L329 169.746Z" fill="url(#paint5_linear_12_6514)"/>
<path d="M307.089 185.091V398.993L246.5 376.942L164 406.967L81.5 376.942L20.9115 398.993V185.091L81.5 163.033L164 193.065L246.5 163.033L307.089 185.091Z" fill="url(#paint6_linear_12_6514)"/>
<path d="M164 193.065V406.967L81.5 376.942V163.033L164 193.065Z" fill="url(#paint7_linear_12_6514)"/>
<path d="M307.089 185.091V398.993L246.5 376.942V163.033L307.089 185.091Z" fill="url(#paint8_linear_12_6514)"/>
<path d="M43.0183 241.847C41.2735 241.847 39.5797 240.928 38.667 239.297C37.3251 236.897 38.1817 233.863 40.5813 232.52C40.7366 232.433 44.4639 230.352 50.4903 227.337C52.9498 226.105 55.9411 227.101 57.1722 229.562C58.4026 232.021 57.4068 235.013 54.9472 236.243C49.1458 239.146 45.4804 241.192 45.4443 241.212C44.6753 241.643 43.8407 241.847 43.0183 241.847Z" fill="url(#paint9_linear_12_6514)"/>
<path d="M127.531 364.992C125.67 364.992 123.824 364.71 122.044 364.153C119.42 363.332 117.957 360.539 118.778 357.913C119.6 355.288 122.392 353.826 125.018 354.648C125.846 354.906 126.668 355.032 127.532 355.032H127.535C131.108 355.032 135.371 352.811 140.206 348.43C142.244 346.583 145.394 346.74 147.24 348.777C149.086 350.815 148.931 353.965 146.893 355.811C140.074 361.989 133.742 364.992 127.536 364.992C127.534 364.992 127.532 364.992 127.531 364.992ZM109.756 347.91C107.527 347.91 105.499 346.404 104.93 344.145C104.119 340.925 103.708 337.356 103.708 333.539C103.708 329.33 104.183 324.833 105.16 319.79C105.683 317.09 108.296 315.325 110.996 315.848C113.696 316.371 115.461 318.984 114.938 321.684C114.095 326.034 113.668 330.023 113.668 333.538C113.668 336.536 113.977 339.286 114.589 341.712C115.261 344.379 113.643 347.085 110.976 347.757C110.568 347.861 110.158 347.91 109.756 347.91ZM158.069 340.121C157.061 340.121 156.043 339.816 155.162 339.181C152.931 337.573 152.425 334.461 154.032 332.23C157.651 327.206 161.518 321.363 166.201 313.84C167.654 311.505 170.725 310.79 173.061 312.244C175.395 313.697 176.11 316.769 174.657 319.104C169.852 326.821 165.867 332.842 162.114 338.051C161.141 339.402 159.616 340.121 158.069 340.121ZM116.203 304.22C115.649 304.22 115.086 304.127 114.534 303.931C111.942 303.009 110.589 300.162 111.511 297.57C114.08 290.344 116.99 283.167 119.752 276.487C120.802 273.945 123.715 272.737 126.256 273.787C128.798 274.837 130.007 277.75 128.956 280.291C126.244 286.851 123.391 293.889 120.894 300.907C120.169 302.947 118.251 304.22 116.203 304.22ZM182.047 302.314C181.173 302.314 180.288 302.084 179.484 301.601C177.128 300.183 176.367 297.123 177.785 294.766C181.611 288.407 185.676 281.686 189.608 275.575C191.096 273.261 194.178 272.593 196.49 274.081C198.803 275.569 199.472 278.651 197.984 280.964C194.127 286.958 190.106 293.606 186.318 299.9C185.384 301.454 183.737 302.314 182.047 302.314ZM132.853 262.658C132.247 262.658 131.631 262.546 131.033 262.311C128.473 261.305 127.213 258.415 128.219 255.855C131.645 247.139 133.806 240.615 135.022 235.324C135.637 232.644 138.31 230.97 140.99 231.586C143.671 232.201 145.345 234.874 144.729 237.554C143.381 243.418 141.149 250.185 137.489 259.498C136.718 261.459 134.841 262.658 132.853 262.658ZM73.0702 227.418C71.1211 227.418 69.2713 226.267 68.4727 224.356C67.4131 221.818 68.6113 218.902 71.1488 217.842C78.7846 214.653 86.0117 212.018 92.6317 210.008C95.2614 209.208 98.0438 210.694 98.8437 213.326C99.6422 215.957 98.1572 218.739 95.525 219.538C89.2247 221.451 82.3147 223.972 74.987 227.032C74.3599 227.294 73.7095 227.418 73.0702 227.418ZM137.103 220.253C135.891 220.253 134.676 219.813 133.718 218.924C130.947 216.355 126.421 215.052 120.263 215.052C119.023 215.052 117.701 215.107 116.335 215.214C113.589 215.429 111.196 213.381 110.981 210.639C110.766 207.898 112.814 205.501 115.556 205.285C126.652 204.414 135.019 206.547 140.49 211.622C142.507 213.492 142.625 216.643 140.755 218.659C139.775 219.716 138.441 220.252 137.103 220.253Z" fill="url(#paint10_linear_12_6514)"/>
<path d="M206.765 265.177C205.625 265.177 204.48 264.788 203.543 263.992C201.447 262.212 201.191 259.069 202.972 256.973C206.043 253.356 208.862 250.604 211.589 248.559C213.789 246.909 216.91 247.354 218.561 249.555C220.211 251.755 219.765 254.877 217.565 256.527C215.469 258.099 213.113 260.418 210.563 263.421C209.577 264.581 208.176 265.177 206.765 265.177Z" fill="url(#paint11_linear_12_6514)"/>
<path d="M287.794 225.608L280.866 218.68L287.794 211.752C292.737 206.81 292.737 198.797 287.794 193.854C282.852 188.912 274.839 188.912 269.897 193.854L262.969 200.783L256.041 193.854C251.099 188.912 243.086 188.912 238.144 193.854C233.201 198.797 233.201 206.81 238.144 211.752L245.072 218.68L238.144 225.608C233.201 230.55 233.201 238.563 238.144 243.505C243.086 248.448 251.099 248.448 256.041 243.505L262.969 236.577L269.897 243.505C274.839 248.448 282.852 248.448 287.794 243.505C292.737 238.563 292.737 230.55 287.794 225.608Z" fill="url(#paint12_linear_12_6514)"/>
<path d="M201.343 345.062H191.407C185.371 345.062 180.477 349.955 180.477 355.991C180.477 362.028 185.371 366.921 191.407 366.921H201.343C207.38 366.921 212.273 362.028 212.273 355.991C212.273 349.955 207.38 345.062 201.343 345.062Z" fill="url(#paint13_linear_12_6514)"/>
<path d="M219.093 309.291H209.157C203.12 309.291 198.227 314.185 198.227 320.221C198.227 326.257 203.12 331.151 209.157 331.151H219.093C225.129 331.151 230.023 326.258 230.023 320.221C230.023 314.185 225.129 309.291 219.093 309.291Z" fill="url(#paint14_linear_12_6514)"/>
<path d="M66.639 324.377C65.3648 324.377 64.0899 323.891 63.118 322.918L50.9337 310.734L38.7495 322.918C36.805 324.863 33.6519 324.863 31.7067 322.918C29.7615 320.973 29.7615 317.82 31.7067 315.875L47.4127 300.169C48.3466 299.235 49.6131 298.711 50.9337 298.711C52.2544 298.711 53.5215 299.235 54.4548 300.169L70.1601 315.875C72.1053 317.82 72.1053 320.973 70.1601 322.918C69.1882 323.89 67.9133 324.377 66.639 324.377Z" fill="url(#paint15_linear_12_6514)"/>
<path d="M66.639 343.857C65.3648 343.857 64.0899 343.371 63.118 342.398L50.9337 330.214L38.7495 342.398C36.805 344.343 33.6519 344.343 31.7067 342.398C29.7615 340.454 29.7615 337.301 31.7067 335.355L47.4127 319.65C48.3466 318.716 49.6131 318.191 50.9337 318.191C52.2544 318.191 53.5215 318.716 54.4548 319.65L70.1601 335.355C72.1053 337.3 72.1053 340.453 70.1601 342.398C69.1882 343.37 67.9133 343.857 66.639 343.857Z" fill="url(#paint16_linear_12_6514)"/>
<path d="M50.9337 358.616C48.1835 358.616 45.9541 356.387 45.9541 353.636V342.603C45.9541 339.853 48.1835 337.624 50.9337 337.624C53.684 337.624 55.9134 339.853 55.9134 342.603V353.636C55.9134 356.387 53.684 358.616 50.9337 358.616Z" fill="url(#paint17_linear_12_6514)"/>
<path d="M292.188 290.215C290.914 290.215 289.639 289.728 288.667 288.757L276.483 276.572L264.299 288.757C262.354 290.701 259.201 290.701 257.256 288.757C255.311 286.812 255.311 283.659 257.256 281.714L272.962 266.008C274.906 264.063 278.059 264.063 280.005 266.008L295.711 281.714C297.656 283.658 297.656 286.811 295.711 288.757C294.737 289.728 293.463 290.215 292.188 290.215Z" fill="url(#paint18_linear_12_6514)"/>
<path d="M292.188 309.695C290.914 309.695 289.639 309.209 288.667 308.237L276.483 296.053L264.299 308.237C262.354 310.181 259.201 310.181 257.256 308.237C255.311 306.292 255.311 303.139 257.256 301.194L272.962 285.488C274.906 283.544 278.059 283.544 280.005 285.488L295.711 301.194C297.656 303.139 297.656 306.292 295.711 308.237C294.737 309.209 293.463 309.695 292.188 309.695Z" fill="url(#paint19_linear_12_6514)"/>
<path d="M276.483 324.455C273.733 324.455 271.503 322.225 271.503 319.475V308.442C271.503 305.692 273.733 303.462 276.483 303.462C279.233 303.462 281.463 305.692 281.463 308.442V319.475C281.463 322.225 279.233 324.455 276.483 324.455Z" fill="url(#paint20_linear_12_6514)"/>
<path d="M209.748 216.971C208.473 216.971 207.198 216.484 206.226 215.512L194.042 203.328L181.858 215.512C179.913 217.457 176.76 217.457 174.815 215.512C172.87 213.567 172.87 210.414 174.815 208.469L190.521 192.763C192.466 190.818 195.619 190.818 197.564 192.763L213.27 208.469C215.215 210.414 215.215 213.567 213.27 215.512C212.297 216.485 211.022 216.971 209.748 216.971Z" fill="url(#paint21_linear_12_6514)"/>
<path d="M209.748 236.451C208.473 236.451 207.198 235.964 206.226 234.992L194.042 222.808L181.858 234.992C179.913 236.937 176.76 236.938 174.815 234.992C172.87 233.048 172.87 229.895 174.815 227.95L190.521 212.244C192.466 210.3 195.619 210.3 197.564 212.244L213.27 227.95C215.215 229.894 215.215 233.047 213.27 234.992C212.297 235.965 211.022 236.451 209.748 236.451Z" fill="url(#paint22_linear_12_6514)"/>
<path d="M194.042 251.21C191.292 251.21 189.063 248.981 189.063 246.23V235.197C189.063 232.447 191.292 230.218 194.042 230.218C196.792 230.218 199.022 232.447 199.022 235.197V246.23C199.022 248.981 196.792 251.21 194.042 251.21Z" fill="url(#paint23_linear_12_6514)"/>
</g>
<defs>
<linearGradient id="paint0_linear_12_6514" x1="109.305" y1="57.8025" x2="389.322" y2="341.873" gradientUnits="userSpaceOnUse">
<stop stop-color="#FF0CF5"/>
<stop offset="1" stop-color="#0575E6"/>
</linearGradient>
<linearGradient id="paint1_linear_12_6514" x1="319.012" y1="69.9996" x2="439.013" y2="69.9996" gradientUnits="userSpaceOnUse">
<stop stop-color="#36FF78"/>
<stop offset="1" stop-color="#0CFFFF"/>
</linearGradient>
<linearGradient id="paint2_linear_12_6514" x1="349.012" y1="74.9999" x2="404.012" y2="90" gradientUnits="userSpaceOnUse">
<stop stop-color="#36FF78"/>
<stop offset="1" stop-color="#0CFFFF"/>
</linearGradient>
<linearGradient id="paint3_linear_12_6514" x1="329" y1="139.714" x2="-1" y2="139.714" gradientUnits="userSpaceOnUse">
<stop stop-color="#70BAFF"/>
<stop offset="1" stop-color="#A3FCF6"/>
</linearGradient>
<linearGradient id="paint4_linear_12_6514" x1="164" y1="139.714" x2="81.5" y2="139.714" gradientUnits="userSpaceOnUse">
<stop stop-color="#68B7FF"/>
<stop offset="1" stop-color="#87FFF8"/>
</linearGradient>
<linearGradient id="paint5_linear_12_6514" x1="329" y1="139.714" x2="246.5" y2="139.714" gradientUnits="userSpaceOnUse">
<stop stop-color="#68B7FF"/>
<stop offset="1" stop-color="#87FFF8"/>
</linearGradient>
<linearGradient id="paint6_linear_12_6514" x1="307.089" y1="163.033" x2="20.9115" y2="163.033" gradientUnits="userSpaceOnUse">
<stop stop-color="#077BE7"/>
<stop offset="1" stop-color="#05DCCF"/>
</linearGradient>
<linearGradient id="paint7_linear_12_6514" x1="164" y1="163.033" x2="81.5" y2="163.033" gradientUnits="userSpaceOnUse">
<stop stop-color="#0667BF"/>
<stop offset="1" stop-color="#23C1B8"/>
</linearGradient>
<linearGradient id="paint8_linear_12_6514" x1="307.089" y1="163.033" x2="246.5" y2="163.033" gradientUnits="userSpaceOnUse">
<stop stop-color="#0667BF"/>
<stop offset="1" stop-color="#23C1B8"/>
</linearGradient>
<linearGradient id="paint9_linear_12_6514" x1="58.0225" y1="226.809" x2="38.0327" y2="226.809" gradientUnits="userSpaceOnUse">
<stop offset="1" stop-color="#E815F3"/>
</linearGradient>
<linearGradient id="paint10_linear_12_6514" x1="200.923" y1="205.096" x2="68.0869" y2="205.096" gradientUnits="userSpaceOnUse">
<stop offset="1" stop-color="#E815F3"/>
</linearGradient>
<linearGradient id="paint11_linear_12_6514" x1="219.849" y1="247.563" x2="201.787" y2="247.563" gradientUnits="userSpaceOnUse">
<stop offset="1" stop-color="#E815F3"/>
</linearGradient>
<linearGradient id="paint12_linear_12_6514" x1="292.438" y1="190.148" x2="234.437" y2="190.148" gradientUnits="userSpaceOnUse">
<stop offset="1" stop-color="#E815F3"/>
</linearGradient>
<linearGradient id="paint13_linear_12_6514" x1="212.796" y1="345.062" x2="180.477" y2="345.062" gradientUnits="userSpaceOnUse">
<stop stop-color="#E1DCFE"/>
<stop offset="1" stop-color="#7E67FD"/>
</linearGradient>
<linearGradient id="paint14_linear_12_6514" x1="230.545" y1="309.291" x2="198.227" y2="309.291" gradientUnits="userSpaceOnUse">
<stop stop-color="#E1DCFE"/>
<stop offset="1" stop-color="#7E67FD"/>
</linearGradient>
<linearGradient id="paint15_linear_12_6514" x1="72.2985" y1="298.711" x2="30.2478" y2="298.711" gradientUnits="userSpaceOnUse">
<stop stop-color="#E1DCFE"/>
<stop offset="1" stop-color="#7E67FD"/>
</linearGradient>
<linearGradient id="paint16_linear_12_6514" x1="72.2985" y1="318.191" x2="30.2478" y2="318.191" gradientUnits="userSpaceOnUse">
<stop stop-color="#E1DCFE"/>
<stop offset="1" stop-color="#7E67FD"/>
</linearGradient>
<linearGradient id="paint17_linear_12_6514" x1="56.077" y1="337.624" x2="45.9541" y2="337.624" gradientUnits="userSpaceOnUse">
<stop stop-color="#E1DCFE"/>
<stop offset="1" stop-color="#7E67FD"/>
</linearGradient>
<linearGradient id="paint18_linear_12_6514" x1="297.849" y1="264.549" x2="255.797" y2="264.549" gradientUnits="userSpaceOnUse">
<stop stop-color="#E1DCFE"/>
<stop offset="1" stop-color="#7E67FD"/>
</linearGradient>
<linearGradient id="paint19_linear_12_6514" x1="297.849" y1="284.03" x2="255.797" y2="284.03" gradientUnits="userSpaceOnUse">
<stop stop-color="#E1DCFE"/>
<stop offset="1" stop-color="#7E67FD"/>
</linearGradient>
<linearGradient id="paint20_linear_12_6514" x1="281.626" y1="303.462" x2="271.503" y2="303.462" gradientUnits="userSpaceOnUse">
<stop stop-color="#E1DCFE"/>
<stop offset="1" stop-color="#7E67FD"/>
</linearGradient>
<linearGradient id="paint21_linear_12_6514" x1="215.408" y1="191.304" x2="173.356" y2="191.304" gradientUnits="userSpaceOnUse">
<stop stop-color="#E1DCFE"/>
<stop offset="1" stop-color="#7E67FD"/>
</linearGradient>
<linearGradient id="paint22_linear_12_6514" x1="215.408" y1="210.786" x2="173.356" y2="210.786" gradientUnits="userSpaceOnUse">
<stop stop-color="#E1DCFE"/>
<stop offset="1" stop-color="#7E67FD"/>
</linearGradient>
<linearGradient id="paint23_linear_12_6514" x1="199.185" y1="230.218" x2="189.063" y2="230.218" gradientUnits="userSpaceOnUse">
<stop stop-color="#E1DCFE"/>
<stop offset="1" stop-color="#7E67FD"/>
</linearGradient>
<clipPath id="clip0_12_6514">
<rect width="330" height="330" fill="white" transform="translate(0 120)"/>
</clipPath>
</defs>
</svg>
