<svg width="1081" height="1205" viewBox="0 0 1081 1205" fill="none" xmlns="http://www.w3.org/2000/svg">
<path d="M1080.09 0H0.000732422V1205H1080.09V0Z" fill="url(#paint0_linear_179_88)"/>
<path fill-rule="evenodd" clip-rule="evenodd" d="M1080.09 366.656H1035.47C1014.94 366.656 995.244 374.887 980.725 389.539C966.208 404.191 958.052 424.063 958.052 444.783V608.288C958.052 642.923 930.23 671 895.91 671H774.568C771.834 671 769.613 673.24 769.613 676C769.613 678.76 771.834 681 774.568 681H895.91C935.703 681 967.961 648.446 967.961 608.288V444.783C967.961 426.715 975.072 409.386 987.733 396.61C1000.39 383.834 1017.56 376.656 1035.47 376.656H1080.09C1080.09 376.656 1080.09 374.76 1080.09 372C1080.09 369.241 1080.09 366.656 1080.09 366.656Z" fill="url(#paint1_linear_179_88)"/>
<path fill-rule="evenodd" clip-rule="evenodd" d="M760.585 568.45C760.585 702.619 652.647 811.547 519.698 811.547C386.749 811.547 278.812 702.619 278.812 568.45C278.812 434.282 386.749 325.354 519.698 325.354C533.37 325.354 544.47 314.152 544.47 300.354C544.47 286.556 533.37 275.354 519.698 275.354C359.404 275.354 229.266 406.686 229.266 568.45C229.266 730.215 359.404 861.547 519.698 861.547C679.992 861.547 810.13 730.215 810.13 568.45C810.13 554.653 799.03 543.45 785.357 543.45C771.685 543.45 760.585 554.653 760.585 568.45Z" fill="url(#paint2_linear_179_88)"/>
<path fill-rule="evenodd" clip-rule="evenodd" d="M760.585 568.45C760.585 702.619 652.647 811.547 519.698 811.547C386.749 811.547 278.812 702.619 278.812 568.45C278.812 434.282 386.749 325.354 519.698 325.354C533.37 325.354 544.47 314.152 544.47 300.354C544.47 286.556 533.37 275.354 519.698 275.354C359.404 275.354 229.266 406.686 229.266 568.45C229.266 730.215 359.404 861.547 519.698 861.547C679.992 861.547 810.13 730.215 810.13 568.45C810.13 554.653 799.03 543.45 785.357 543.45C771.685 543.45 760.585 554.653 760.585 568.45Z" fill="url(#paint3_linear_179_88)"/>
<path d="M204.803 435H278.485C281.219 435 283.439 437.24 283.439 440C283.439 442.76 281.219 445 278.485 445H204.803C162.749 445 128.66 410.597 128.66 368.159V254.326C128.66 237.796 122.153 221.943 110.571 210.255C98.9883 198.566 83.2805 192 66.9007 192H0.0458984V182H66.9007C85.9083 182 104.137 189.62 117.578 203.184C131.018 216.747 138.569 235.144 138.569 254.326V368.159C138.569 405.074 168.222 435 204.803 435Z" fill="#670CF5"/>
<path fill-rule="evenodd" clip-rule="evenodd" d="M294.078 631.266C294.078 631.266 299.317 625.452 303.755 620.526C307.722 616.123 312.936 613.058 318.688 611.748C364.126 601.397 571.151 554.236 618.609 543.425C624.902 541.992 631.489 542.737 637.311 545.54C643.417 548.48 650.388 551.837 650.388 551.837L661.97 691.637L525.684 722.683L529.42 741.593L486.333 751.409L479.862 733.121L362.231 759.918L294.078 631.266Z" fill="url(#paint4_linear_179_88)"/>
<path fill-rule="evenodd" clip-rule="evenodd" d="M543.966 560.429C544.204 561.053 544.317 561.727 544.29 562.413C543.743 576.53 542.449 609.913 541.862 625.028C541.687 629.553 538.52 633.394 534.143 634.392C513.353 639.128 454.709 652.487 433.919 657.223C429.542 658.22 425.047 656.124 422.962 652.114C415.999 638.719 400.62 609.134 394.116 596.623C393.801 596.015 393.616 595.358 393.565 594.691L543.966 560.429Z" fill="url(#paint5_linear_179_88)"/>
<path fill-rule="evenodd" clip-rule="evenodd" d="M396.106 595.625C395.389 594.249 395.347 592.615 395.993 591.203C396.638 589.792 397.897 588.764 399.4 588.421C423.839 582.854 512.231 562.718 536.671 557.151C538.173 556.809 539.748 557.191 540.932 558.186C542.116 559.181 542.774 560.674 542.713 562.228C542.167 576.013 540.896 608.084 540.312 622.829C540.133 627.351 536.967 631.188 532.593 632.184C512.196 636.831 455.419 649.764 435.022 654.411C430.648 655.407 426.156 653.315 424.069 649.309C417.266 636.247 402.466 607.837 396.106 595.625Z" fill="url(#paint6_linear_179_88)"/>
<path fill-rule="evenodd" clip-rule="evenodd" d="M485.842 609.052C485.205 614.303 480.425 618.061 475.18 617.446C469.943 616.833 466.202 612.083 466.837 606.841C467.473 601.59 472.252 597.832 477.498 598.447C480.384 598.785 483.008 596.709 483.353 593.814C483.699 590.918 481.637 588.293 478.752 587.955C467.738 586.663 457.717 594.572 456.381 605.598C455.045 616.633 462.903 626.646 473.927 627.939C484.941 629.23 494.962 621.321 496.297 610.295C496.647 607.401 494.589 604.772 491.704 604.429C488.819 604.085 486.191 606.157 485.842 609.052Z" fill="url(#paint7_linear_179_88)"/>
<path fill-rule="evenodd" clip-rule="evenodd" d="M260.006 723.922C260.006 723.922 276.045 807.685 282.623 842.035C284.437 851.513 288.533 860.397 294.552 867.912C294.978 868.443 295.414 868.987 295.859 869.545C308.482 885.303 328.108 893.69 348.194 891.91C368.282 890.129 386.188 878.415 395.942 860.673C395.942 860.673 395.942 860.672 395.943 860.672C399.94 853.403 402.5 845.43 403.483 837.192C407.192 806.126 416.545 727.784 416.545 727.784L260.179 723.882" fill="url(#paint8_linear_179_88)"/>
<path fill-rule="evenodd" clip-rule="evenodd" d="M716.265 619.985C716.265 619.985 737.437 702.578 746.119 736.449C748.515 745.795 748.598 755.593 746.361 764.989C746.203 765.652 746.042 766.333 745.875 767.03C741.185 786.732 727.032 802.814 708.136 809.914C689.238 817.014 668.082 814.199 651.722 802.406C651.721 802.406 651.721 802.405 651.72 802.405C645.018 797.573 639.311 791.483 634.916 784.47C618.343 758.025 576.55 691.334 576.55 691.334L716.093 620.024" fill="url(#paint9_linear_179_88)"/>
<path fill-rule="evenodd" clip-rule="evenodd" d="M434.009 696.895C458.428 691.333 482.705 706.715 488.187 731.225C493.67 755.734 478.295 780.149 453.876 785.712C429.456 791.275 405.18 775.893 399.698 751.383C394.216 726.873 409.59 702.458 434.009 696.895Z" fill="url(#paint10_linear_179_88)"/>
<path fill-rule="evenodd" clip-rule="evenodd" d="M551.591 670.11C576.01 664.547 600.286 679.93 605.769 704.439C611.251 728.949 595.877 753.364 571.458 758.927C547.038 764.49 522.761 749.107 517.28 724.598C511.797 700.088 527.172 675.673 551.591 670.11Z" fill="url(#paint11_linear_179_88)"/>
<path fill-rule="evenodd" clip-rule="evenodd" d="M261.074 674.275C261.074 674.275 269.827 634.041 271.932 624.369C272.23 622.998 272.764 621.69 273.51 620.506C275.806 616.861 281.074 608.494 284.279 603.405C285.964 600.728 288.631 598.834 291.697 598.136C302.308 595.718 327.713 589.931 338.325 587.513C341.391 586.815 344.605 587.37 347.267 589.056C352.327 592.262 360.646 597.534 364.271 599.83C365.448 600.577 366.488 601.526 367.34 602.634C373.358 610.456 398.389 642.995 398.389 642.995L261.074 674.275Z" fill="url(#paint12_linear_179_88)"/>
<path fill-rule="evenodd" clip-rule="evenodd" d="M284.519 618.719C284.022 619.61 284.181 620.726 284.906 621.441C285.63 622.155 286.74 622.289 287.611 621.766C294.799 617.534 306.399 611.583 318.587 608.807C329.913 606.227 343.567 606.595 352.206 607.233C353.223 607.308 354.164 606.69 354.507 605.722C354.851 604.753 354.511 603.673 353.678 603.081C350.179 600.58 346.097 597.681 343.25 595.659C340.983 594.049 338.148 593.482 335.444 594.098C327.047 596.011 308.302 600.281 298.729 602.462C294.989 603.314 291.782 605.722 289.899 609.092C288.298 611.956 286.291 615.547 284.519 618.719Z" fill="url(#paint13_linear_179_88)"/>
<path fill-rule="evenodd" clip-rule="evenodd" d="M694.102 575.631C694.102 575.631 669.07 543.092 663.054 535.27C662.2 534.162 661.162 533.213 659.984 532.466C656.36 530.17 648.04 524.898 642.98 521.692C640.319 520.006 637.105 519.451 634.039 520.149C623.426 522.567 598.022 528.354 587.41 530.771C584.345 531.47 581.678 533.364 579.993 536.041C576.788 541.13 571.519 549.497 569.223 553.142C568.477 554.326 567.943 555.634 567.645 557.005C565.541 566.677 556.788 606.911 556.788 606.911L694.102 575.631Z" fill="url(#paint14_linear_179_88)"/>
<path fill-rule="evenodd" clip-rule="evenodd" d="M580.186 551.365C579.689 552.256 579.848 553.373 580.573 554.087C581.297 554.802 582.408 554.935 583.278 554.413C590.466 550.18 602.067 544.23 614.254 541.453C625.58 538.873 639.235 539.241 647.874 539.879C648.89 539.955 649.831 539.336 650.175 538.368C650.518 537.4 650.178 536.319 649.345 535.727C645.846 533.227 641.764 530.328 638.918 528.305C636.65 526.696 633.815 526.129 631.112 526.744C622.714 528.657 603.97 532.928 594.396 535.108C590.657 535.96 587.45 538.369 585.566 541.738C583.966 544.602 581.958 548.194 580.186 551.365Z" fill="url(#paint15_linear_179_88)"/>
<path fill-rule="evenodd" clip-rule="evenodd" d="M321.041 619.779C365.327 609.691 409.353 637.588 419.296 682.038C429.238 726.488 401.356 770.766 357.07 780.855C312.784 790.943 268.757 763.046 258.815 718.596C248.872 674.146 276.754 629.868 321.041 619.779Z" fill="url(#paint16_linear_179_88)"/>
<path fill-rule="evenodd" clip-rule="evenodd" d="M339.521 686.392C338.105 688.644 335.143 689.318 332.907 687.899C329.26 685.585 324.083 682.299 321.449 680.628C320.375 679.946 319.615 678.863 319.336 677.616C318.349 673.205 315.92 662.344 314.514 656.059C314.235 654.813 314.461 653.505 315.141 652.423C315.82 651.342 316.9 650.576 318.139 650.293C323.331 649.111 331.657 647.214 336.848 646.031C338.088 645.749 339.388 645.973 340.463 646.655C341.538 647.337 342.298 648.42 342.576 649.667C343.982 655.952 346.412 666.812 347.398 671.223C347.677 672.47 347.451 673.778 346.772 674.859C345.106 677.51 341.829 682.721 339.521 686.392Z" fill="url(#paint17_linear_179_88)"/>
<path fill-rule="evenodd" clip-rule="evenodd" d="M338.569 682.114C337.15 684.366 334.185 685.042 331.946 683.623C328.295 681.31 323.112 678.025 320.476 676.355C319.4 675.673 318.639 674.59 318.36 673.343C317.373 668.932 314.945 658.072 313.539 651.787C313.259 650.54 313.486 649.232 314.167 648.15C314.848 647.069 315.929 646.302 317.17 646.019C322.368 644.835 330.706 642.935 335.904 641.751C337.146 641.469 338.448 641.692 339.524 642.374C340.599 643.055 341.36 644.139 341.639 645.385C343.045 651.67 345.474 662.531 346.461 666.942C346.74 668.189 346.514 669.497 345.832 670.578C344.164 673.229 340.881 678.443 338.569 682.114Z" fill="url(#paint18_linear_179_88)"/>
<path fill-rule="evenodd" clip-rule="evenodd" d="M321.963 704.671C324.202 706.09 324.868 709.066 323.449 711.319C321.138 714.99 317.855 720.203 316.186 722.854C315.504 723.936 314.424 724.702 313.182 724.985C308.787 725.986 297.966 728.451 291.705 729.878C290.463 730.161 289.161 729.937 288.085 729.255C287.01 728.574 286.249 727.491 285.97 726.244C284.803 721.027 282.931 712.658 281.764 707.441C281.485 706.194 281.711 704.886 282.392 703.804C283.074 702.723 284.154 701.956 285.397 701.673C291.658 700.247 302.478 697.782 306.873 696.781C308.115 696.498 309.417 696.722 310.493 697.403C313.129 699.073 318.312 702.358 321.963 704.671Z" fill="url(#paint19_linear_179_88)"/>
<path fill-rule="evenodd" clip-rule="evenodd" d="M320.972 701.048C323.212 702.468 323.878 705.444 322.459 707.696C320.147 711.368 316.864 716.581 315.195 719.232C314.514 720.313 313.433 721.08 312.191 721.363C307.796 722.364 296.975 724.829 290.714 726.255C289.472 726.538 288.17 726.315 287.094 725.633C286.019 724.952 285.258 723.868 284.979 722.622C283.812 717.405 281.94 709.035 280.773 703.819C280.495 702.572 280.721 701.264 281.401 700.182C282.083 699.1 283.163 698.334 284.406 698.051C290.667 696.624 301.487 694.16 305.883 693.158C307.124 692.875 308.426 693.099 309.503 693.781C312.138 695.451 317.322 698.735 320.972 701.048Z" fill="url(#paint20_linear_179_88)"/>
<path fill-rule="evenodd" clip-rule="evenodd" d="M340.732 722.189C342.15 719.936 345.116 719.261 347.355 720.68C351.006 722.993 356.189 726.277 358.825 727.947C359.9 728.629 360.661 729.712 360.941 730.959C361.927 735.37 364.356 746.231 365.762 752.516C366.041 753.762 365.815 755.07 365.134 756.152C364.452 757.234 363.372 758 362.13 758.283C356.932 759.467 348.594 761.367 343.397 762.551C342.154 762.834 340.852 762.61 339.777 761.928C338.702 761.247 337.941 760.164 337.661 758.917C336.256 752.632 333.826 741.772 332.839 737.36C332.561 736.114 332.787 734.806 333.468 733.724C335.137 731.073 338.42 725.86 340.732 722.189Z" fill="url(#paint21_linear_179_88)"/>
<path fill-rule="evenodd" clip-rule="evenodd" d="M339.741 718.475C341.159 716.223 344.125 715.547 346.365 716.966C350.015 719.279 355.199 722.564 357.834 724.234C358.91 724.915 359.671 725.999 359.95 727.245C360.936 731.657 363.366 742.517 364.772 748.802C365.05 750.049 364.824 751.357 364.143 752.438C363.462 753.52 362.382 754.287 361.139 754.57C355.942 755.754 347.603 757.653 342.406 758.837C341.163 759.12 339.861 758.896 338.786 758.215C337.711 757.533 336.95 756.45 336.671 755.203C335.265 748.918 332.836 738.058 331.849 733.647C331.57 732.4 331.796 731.092 332.477 730.01C334.147 727.359 337.43 722.146 339.741 718.475Z" fill="url(#paint22_linear_179_88)"/>
<path fill-rule="evenodd" clip-rule="evenodd" d="M358.074 703.354C355.835 701.935 355.169 698.959 356.587 696.706C358.899 693.035 362.182 687.822 363.851 685.171C364.532 684.089 365.612 683.323 366.855 683.04C371.249 682.039 382.07 679.574 388.332 678.147C389.574 677.864 390.876 678.088 391.951 678.77C393.027 679.451 393.788 680.534 394.067 681.781C395.233 686.998 397.105 695.367 398.272 700.584C398.551 701.831 398.325 703.139 397.644 704.221C396.963 705.302 395.882 706.069 394.641 706.352C388.379 707.778 377.559 710.243 373.163 711.244C371.921 711.527 370.619 711.303 369.544 710.622C366.908 708.952 361.725 705.667 358.074 703.354Z" fill="url(#paint23_linear_179_88)"/>
<path fill-rule="evenodd" clip-rule="evenodd" d="M357.183 699.786C354.943 698.367 354.278 695.391 355.696 693.138C358.008 689.467 361.291 684.254 362.96 681.603C363.641 680.521 364.721 679.755 365.964 679.472C370.359 678.471 381.179 676.006 387.441 674.579C388.683 674.296 389.984 674.52 391.061 675.202C392.136 675.883 392.897 676.966 393.176 678.213C394.342 683.43 396.214 691.799 397.382 697.016C397.66 698.263 397.434 699.571 396.753 700.653C396.073 701.734 394.992 702.501 393.75 702.784C387.487 704.21 376.668 706.675 372.272 707.676C371.03 707.959 369.728 707.735 368.653 707.054C366.017 705.384 360.833 702.099 357.183 699.786Z" fill="url(#paint24_linear_179_88)"/>
<path fill-rule="evenodd" clip-rule="evenodd" d="M616.719 552.423C661.004 542.335 705.032 570.232 714.974 614.682C724.917 659.132 697.034 703.41 652.748 713.499C608.463 723.587 564.435 695.69 554.493 651.24C544.55 606.79 572.433 562.512 616.719 552.423Z" fill="url(#paint25_linear_179_88)"/>
<path fill-rule="evenodd" clip-rule="evenodd" d="M619.077 559.257C644.861 553.383 668.95 562.723 672.837 580.1C676.724 597.478 658.947 616.355 633.162 622.228C607.378 628.102 583.289 618.762 579.403 601.385C575.515 584.007 593.293 565.13 619.077 559.257Z" fill="url(#paint26_linear_179_88)"/>
<path fill-rule="evenodd" clip-rule="evenodd" d="M323.448 628.383C349.233 622.509 373.322 631.849 377.208 649.226C381.095 666.604 363.317 685.481 337.534 691.354C311.749 697.228 287.66 687.888 283.774 670.511C279.887 653.133 297.665 634.256 323.448 628.383Z" fill="url(#paint27_linear_179_88)"/>
<path fill-rule="evenodd" clip-rule="evenodd" d="M667.897 612.967C676.616 610.981 685.285 616.474 687.242 625.225C689.2 633.977 683.71 642.694 674.991 644.68C666.271 646.667 657.603 641.174 655.645 632.423C653.688 623.671 659.178 614.954 667.897 612.967Z" fill="url(#paint28_linear_179_88)"/>
<path fill-rule="evenodd" clip-rule="evenodd" d="M596.457 629.241C605.177 627.255 613.845 632.748 615.803 641.499C617.76 650.251 612.27 658.968 603.551 660.954C594.832 662.941 586.164 657.448 584.207 648.697C582.249 639.945 587.738 631.228 596.457 629.241Z" fill="url(#paint29_linear_179_88)"/>
<path fill-rule="evenodd" clip-rule="evenodd" d="M659.542 669.214C661.499 677.965 656.009 686.683 647.29 688.669C638.571 690.656 629.903 685.163 627.946 676.412C625.988 667.66 631.477 658.942 640.197 656.956C648.916 654.97 657.584 660.462 659.542 669.214Z" fill="url(#paint30_linear_179_88)"/>
<path fill-rule="evenodd" clip-rule="evenodd" d="M643.503 597.51C645.461 606.262 639.972 614.979 631.252 616.966C622.533 618.952 613.865 613.459 611.907 604.708C609.95 595.956 615.44 587.239 624.159 585.253C632.878 583.266 641.546 588.759 643.503 597.51Z" fill="url(#paint31_linear_179_88)"/>
<path fill-rule="evenodd" clip-rule="evenodd" d="M666.906 608.967C675.625 606.981 684.294 612.474 686.251 621.225C688.209 629.977 682.719 638.694 674 640.68C665.28 642.667 656.613 637.174 654.655 628.423C652.698 619.671 658.187 610.954 666.906 608.967Z" fill="url(#paint32_linear_179_88)"/>
<path fill-rule="evenodd" clip-rule="evenodd" d="M595.467 625.241C604.187 623.255 612.854 628.748 614.812 637.499C616.769 646.251 611.28 654.968 602.561 656.954C593.842 658.941 585.173 653.448 583.216 644.697C581.258 635.945 586.748 627.228 595.467 625.241Z" fill="url(#paint33_linear_179_88)"/>
<path fill-rule="evenodd" clip-rule="evenodd" d="M658.551 665.214C660.508 673.965 655.019 682.683 646.3 684.669C637.581 686.656 628.912 681.163 626.955 672.412C624.997 663.66 630.487 654.942 639.207 652.956C647.926 650.97 656.593 656.462 658.551 665.214Z" fill="url(#paint34_linear_179_88)"/>
<path fill-rule="evenodd" clip-rule="evenodd" d="M642.512 593.51C644.47 602.262 638.98 610.979 630.26 612.966C621.541 614.952 612.873 609.459 610.915 600.708C608.958 591.956 614.448 583.239 623.167 581.253C631.886 579.266 640.554 584.759 642.512 593.51Z" fill="url(#paint35_linear_179_88)"/>
<path fill-rule="evenodd" clip-rule="evenodd" d="M555.596 688.586C572.605 684.711 589.515 695.426 593.334 712.498C597.153 729.57 586.443 746.577 569.434 750.451C552.424 754.326 535.515 743.611 531.697 726.539C527.878 709.467 538.586 692.46 555.596 688.586Z" fill="url(#paint36_linear_179_88)"/>
<path fill-rule="evenodd" clip-rule="evenodd" d="M438.015 715.371C455.024 711.496 471.934 722.211 475.753 739.283C479.572 756.356 468.862 773.362 451.853 777.237C434.843 781.112 417.934 770.397 414.115 753.324C410.296 736.252 421.005 719.246 438.015 715.371Z" fill="url(#paint37_linear_179_88)"/>
<path fill-rule="evenodd" clip-rule="evenodd" d="M554.606 683.586C571.615 679.711 588.524 690.426 592.343 707.498C596.162 724.57 585.453 741.577 568.444 745.451C551.434 749.326 534.524 738.611 530.706 721.539C526.887 704.467 537.596 687.46 554.606 683.586Z" fill="url(#paint38_linear_179_88)"/>
<path fill-rule="evenodd" clip-rule="evenodd" d="M555.85 689.006C562.821 687.418 568.982 688.38 569.603 691.153C570.223 693.925 565.067 697.465 558.097 699.053C551.127 700.641 544.965 699.679 544.344 696.906C543.725 694.134 548.88 690.594 555.85 689.006Z" fill="url(#paint39_linear_179_88)"/>
<path fill-rule="evenodd" clip-rule="evenodd" d="M437.024 710.371C454.033 706.496 470.943 717.211 474.762 734.283C478.581 751.356 467.871 768.362 450.862 772.237C433.852 776.112 416.943 765.397 413.124 748.324C409.305 731.252 420.014 714.246 437.024 710.371Z" fill="url(#paint40_linear_179_88)"/>
<path fill-rule="evenodd" clip-rule="evenodd" d="M437.719 716.896C444.534 714.727 450.754 715.167 451.601 717.878C452.448 720.589 447.603 724.55 440.788 726.718C433.974 728.887 427.753 728.447 426.906 725.736C426.059 723.026 430.904 719.064 437.719 716.896Z" fill="url(#paint41_linear_179_88)"/>
<path fill-rule="evenodd" clip-rule="evenodd" d="M476.005 672.001C475.727 670.755 474.968 669.671 473.898 668.988C472.827 668.306 471.532 668.081 470.297 668.362C467.424 669.017 463.751 669.853 460.878 670.508C459.642 670.789 458.569 671.554 457.892 672.635C457.216 673.715 456.993 675.022 457.272 676.269C457.272 676.269 457.272 676.27 457.272 676.271C457.551 677.517 458.309 678.601 459.379 679.283C460.45 679.965 461.746 680.191 462.98 679.909C465.854 679.255 469.526 678.418 472.4 677.764C473.636 677.482 474.709 676.717 475.386 675.637C476.061 674.557 476.284 673.249 476.006 672.003C476.006 672.002 476.006 672.002 476.005 672.001Z" fill="url(#paint42_linear_179_88)"/>
<path fill-rule="evenodd" clip-rule="evenodd" d="M522.99 661.298C522.711 660.051 521.953 658.968 520.882 658.285C519.812 657.603 518.517 657.378 517.281 657.659C514.409 658.313 510.735 659.15 507.862 659.805C506.627 660.086 505.553 660.851 504.877 661.931C504.2 663.012 503.977 664.319 504.256 665.565C504.257 665.566 504.257 665.567 504.257 665.567C504.535 666.814 505.293 667.897 506.364 668.58C507.435 669.262 508.73 669.488 509.965 669.206C512.838 668.552 516.511 667.715 519.385 667.06C520.62 666.779 521.694 666.014 522.37 664.934C523.045 663.853 523.269 662.546 522.99 661.3C522.99 661.299 522.99 661.298 522.99 661.298Z" fill="url(#paint43_linear_179_88)"/>
<path fill-rule="evenodd" clip-rule="evenodd" d="M475.013 670.001C474.735 668.755 473.977 667.671 472.907 666.988C471.835 666.306 470.54 666.081 469.306 666.362C466.432 667.017 462.76 667.853 459.886 668.508C458.65 668.789 457.577 669.554 456.9 670.635C456.225 671.715 456.002 673.022 456.28 674.269C456.28 674.269 456.28 674.27 456.28 674.271C456.56 675.517 457.318 676.601 458.388 677.283C459.458 677.965 460.754 678.191 461.989 677.909C464.862 677.255 468.535 676.418 471.408 675.764C472.644 675.482 473.717 674.717 474.394 673.637C475.07 672.557 475.293 671.249 475.014 670.003C475.014 670.002 475.014 670.002 475.013 670.001Z" fill="url(#paint44_linear_179_88)"/>
<path fill-rule="evenodd" clip-rule="evenodd" d="M521.999 659.298C521.721 658.051 520.963 656.968 519.891 656.285C518.821 655.603 517.526 655.378 516.29 655.659C513.418 656.313 509.744 657.15 506.871 657.805C505.636 658.086 504.562 658.851 503.886 659.931C503.209 661.012 502.987 662.319 503.265 663.565C503.266 663.566 503.266 663.567 503.266 663.567C503.544 664.814 504.302 665.897 505.374 666.58C506.444 667.262 507.739 667.488 508.975 667.206C511.847 666.552 515.521 665.715 518.394 665.06C519.629 664.779 520.703 664.014 521.379 662.934C522.055 661.853 522.279 660.546 521.999 659.3C521.999 659.299 521.999 659.298 521.999 659.298Z" fill="url(#paint45_linear_179_88)"/>
<path fill-rule="evenodd" clip-rule="evenodd" d="M760.584 568.45C760.584 679.559 686.566 773.361 585.616 802.322C572.465 806.095 564.823 819.933 568.562 833.205C572.3 846.477 586.013 854.189 599.164 850.416C720.877 815.499 810.13 702.411 810.13 568.45C810.13 554.653 799.029 543.45 785.357 543.45C771.684 543.45 760.584 554.653 760.584 568.45Z" fill="url(#paint46_linear_179_88)"/>
<path fill-rule="evenodd" clip-rule="evenodd" d="M109.001 456.909V472.081C109.001 472.89 109.484 473.619 110.225 473.928C110.965 474.238 111.817 474.067 112.384 473.495C116.029 469.818 121.792 464.001 125.436 460.323C126.003 459.751 126.172 458.891 125.865 458.144C125.559 457.396 124.836 456.909 124.035 456.909C118.17 456.909 109.001 456.909 109.001 456.909Z" fill="url(#paint47_linear_179_88)"/>
<path fill-rule="evenodd" clip-rule="evenodd" d="M109.001 457.172V442C109.001 441.191 108.518 440.462 107.777 440.152C107.037 439.843 106.185 440.014 105.618 440.586C101.973 444.263 96.2102 450.08 92.5657 453.757C91.9989 454.329 91.8294 455.19 92.1366 455.937C92.4428 456.684 93.1662 457.172 93.9668 457.172C99.832 457.172 109.001 457.172 109.001 457.172Z" fill="url(#paint48_linear_179_88)"/>
<path fill-rule="evenodd" clip-rule="evenodd" d="M981.129 793.179C981.129 793.179 972.026 792.066 966.205 791.355C965.409 791.258 964.633 791.654 964.24 792.358C963.846 793.063 963.912 793.938 964.406 794.574C967.586 798.667 972.615 805.141 975.795 809.234C976.289 809.87 977.115 810.144 977.888 809.926C978.659 809.709 979.225 809.043 979.321 808.24C980.027 802.365 981.129 793.179 981.129 793.179Z" fill="url(#paint49_linear_179_88)"/>
<path fill-rule="evenodd" clip-rule="evenodd" d="M980.871 793.147C980.871 793.147 989.974 794.26 995.795 794.971C996.591 795.068 997.367 794.672 997.76 793.968C998.154 793.263 998.088 792.388 997.594 791.752C994.414 787.659 989.385 781.185 986.205 777.092C985.711 776.456 984.885 776.182 984.112 776.4C983.34 776.617 982.775 777.283 982.678 778.086C981.973 783.961 980.871 793.147 980.871 793.147Z" fill="url(#paint50_linear_179_88)"/>
<path d="M1080.09 0H0.000732422V1205H1080.09V0Z" fill="#22062C" fill-opacity="0.2"/>
<defs>
<linearGradient id="paint0_linear_179_88" x1="0.000732422" y1="0" x2="1090.95" y2="1195.09" gradientUnits="userSpaceOnUse">
<stop stop-color="#670CF5" stop-opacity="0.1"/>
<stop offset="1" stop-color="#400092" stop-opacity="0.1"/>
</linearGradient>
<linearGradient id="paint1_linear_179_88" x1="963.006" y1="231.656" x2="1080.09" y2="231.656" gradientUnits="userSpaceOnUse">
<stop stop-color="#670CF5"/>
<stop offset="1" stop-color="#400092"/>
</linearGradient>
<linearGradient id="paint2_linear_179_88" x1="731.349" y1="814.117" x2="400.311" y2="369.899" gradientUnits="userSpaceOnUse">
<stop stop-color="#1C1429"/>
<stop offset="1" stop-color="#1C1429" stop-opacity="0"/>
</linearGradient>
<linearGradient id="paint3_linear_179_88" x1="830.046" y1="785" x2="572.529" y2="343.049" gradientUnits="userSpaceOnUse">
<stop stop-color="#0575E6"/>
<stop offset="0.629011" stop-color="#FF0CF5"/>
<stop offset="1" stop-color="#1D1028"/>
</linearGradient>
<linearGradient id="paint4_linear_179_88" x1="526.95" y1="744.07" x2="473.325" y2="471.028" gradientUnits="userSpaceOnUse">
<stop stop-color="#260043"/>
<stop offset="1" stop-color="#4F36FE"/>
</linearGradient>
<linearGradient id="paint5_linear_179_88" x1="488.868" y1="537" x2="494.426" y2="670.996" gradientUnits="userSpaceOnUse">
<stop stop-color="#0C011C"/>
<stop offset="1" stop-color="#400092"/>
</linearGradient>
<linearGradient id="paint6_linear_179_88" x1="482.415" y1="689" x2="453.176" y2="564.381" gradientUnits="userSpaceOnUse">
<stop stop-color="#2B004C"/>
<stop offset="1" stop-color="#4F36FE"/>
</linearGradient>
<linearGradient id="paint7_linear_179_88" x1="467.428" y1="596.116" x2="488.964" y2="615.609" gradientUnits="userSpaceOnUse">
<stop stop-color="#FF0CF5"/>
<stop offset="1" stop-color="#0575E6"/>
</linearGradient>
<linearGradient id="paint8_linear_179_88" x1="258.316" y1="823.465" x2="429.388" y2="785.2" gradientUnits="userSpaceOnUse">
<stop stop-color="#3B0169"/>
<stop offset="1" stop-color="#5F47FE"/>
</linearGradient>
<linearGradient id="paint9_linear_179_88" x1="640.338" y1="788.169" x2="739.105" y2="707.135" gradientUnits="userSpaceOnUse">
<stop stop-color="#3B0169"/>
<stop offset="1" stop-color="#5F47FE"/>
</linearGradient>
<linearGradient id="paint10_linear_179_88" x1="513.942" y1="789.593" x2="410.748" y2="702.603" gradientUnits="userSpaceOnUse">
<stop stop-color="#3B0169"/>
<stop offset="1" stop-color="#5F47FE"/>
</linearGradient>
<linearGradient id="paint11_linear_179_88" x1="541.458" y1="774.507" x2="558.91" y2="669.128" gradientUnits="userSpaceOnUse">
<stop stop-color="#3B0169"/>
<stop offset="1" stop-color="#5F47FE"/>
</linearGradient>
<linearGradient id="paint12_linear_179_88" x1="306.867" y1="545.879" x2="339.622" y2="700.196" gradientUnits="userSpaceOnUse">
<stop stop-color="#3B0169"/>
<stop offset="1" stop-color="#5F47FE"/>
</linearGradient>
<linearGradient id="paint13_linear_179_88" x1="280.698" y1="615.462" x2="355.699" y2="598.686" gradientUnits="userSpaceOnUse">
<stop stop-color="#FF006E"/>
<stop offset="1" stop-color="#FF64A0"/>
</linearGradient>
<linearGradient id="paint14_linear_179_88" x1="593.108" y1="476.564" x2="635.448" y2="632.767" gradientUnits="userSpaceOnUse">
<stop stop-color="#3B0169"/>
<stop offset="1" stop-color="#5F47FE"/>
</linearGradient>
<linearGradient id="paint15_linear_179_88" x1="576.366" y1="548.108" x2="651.367" y2="531.332" gradientUnits="userSpaceOnUse">
<stop stop-color="#FF006E"/>
<stop offset="1" stop-color="#FF64A0"/>
</linearGradient>
<linearGradient id="paint16_linear_179_88" x1="272.99" y1="777.163" x2="358.319" y2="620.348" gradientUnits="userSpaceOnUse">
<stop stop-color="#3B0169"/>
<stop offset="1" stop-color="#5F47FE"/>
</linearGradient>
<linearGradient id="paint17_linear_179_88" x1="286.449" y1="672.99" x2="390.988" y2="737.408" gradientUnits="userSpaceOnUse">
<stop stop-color="#0C011C"/>
<stop offset="1" stop-color="#400092"/>
</linearGradient>
<linearGradient id="paint18_linear_179_88" x1="285.433" y1="668.727" x2="389.915" y2="733.403" gradientUnits="userSpaceOnUse">
<stop stop-color="#E1DCFE"/>
<stop offset="1" stop-color="#7E67FD"/>
</linearGradient>
<linearGradient id="paint19_linear_179_88" x1="286.423" y1="672.349" x2="390.905" y2="737.025" gradientUnits="userSpaceOnUse">
<stop stop-color="#0C011C"/>
<stop offset="1" stop-color="#400092"/>
</linearGradient>
<linearGradient id="paint20_linear_179_88" x1="285.432" y1="668.727" x2="389.914" y2="733.403" gradientUnits="userSpaceOnUse">
<stop stop-color="#E1DCFE"/>
<stop offset="1" stop-color="#7E67FD"/>
</linearGradient>
<linearGradient id="paint21_linear_179_88" x1="286.423" y1="672.44" x2="390.905" y2="737.116" gradientUnits="userSpaceOnUse">
<stop stop-color="#0C011C"/>
<stop offset="1" stop-color="#400092"/>
</linearGradient>
<linearGradient id="paint22_linear_179_88" x1="285.433" y1="668.727" x2="389.915" y2="733.403" gradientUnits="userSpaceOnUse">
<stop stop-color="#E1DCFE"/>
<stop offset="1" stop-color="#7E67FD"/>
</linearGradient>
<linearGradient id="paint23_linear_179_88" x1="286.324" y1="672.295" x2="390.806" y2="736.971" gradientUnits="userSpaceOnUse">
<stop stop-color="#0C011C"/>
<stop offset="1" stop-color="#400092"/>
</linearGradient>
<linearGradient id="paint24_linear_179_88" x1="285.433" y1="668.727" x2="389.915" y2="733.403" gradientUnits="userSpaceOnUse">
<stop stop-color="#E1DCFE"/>
<stop offset="1" stop-color="#7E67FD"/>
</linearGradient>
<linearGradient id="paint25_linear_179_88" x1="608.762" y1="742.734" x2="644.177" y2="531.705" gradientUnits="userSpaceOnUse">
<stop stop-color="#3B0169"/>
<stop offset="1" stop-color="#5F47FE"/>
</linearGradient>
<linearGradient id="paint26_linear_179_88" x1="606.77" y1="635.753" x2="598.016" y2="549.981" gradientUnits="userSpaceOnUse">
<stop stop-color="#E1DCFE" stop-opacity="0.01"/>
<stop offset="1" stop-color="white" stop-opacity="0.1"/>
</linearGradient>
<linearGradient id="paint27_linear_179_88" x1="311.142" y1="704.879" x2="302.387" y2="619.107" gradientUnits="userSpaceOnUse">
<stop stop-color="#E1DCFE" stop-opacity="0.01"/>
<stop offset="1" stop-color="white" stop-opacity="0.1"/>
</linearGradient>
<linearGradient id="paint28_linear_179_88" x1="602.14" y1="613.992" x2="696.411" y2="672.453" gradientUnits="userSpaceOnUse">
<stop stop-color="#0C011C"/>
<stop offset="1" stop-color="#400092"/>
</linearGradient>
<linearGradient id="paint29_linear_179_88" x1="602.14" y1="613.992" x2="696.411" y2="672.453" gradientUnits="userSpaceOnUse">
<stop stop-color="#0C011C"/>
<stop offset="1" stop-color="#400092"/>
</linearGradient>
<linearGradient id="paint30_linear_179_88" x1="602.14" y1="613.992" x2="696.411" y2="672.453" gradientUnits="userSpaceOnUse">
<stop stop-color="#0C011C"/>
<stop offset="1" stop-color="#400092"/>
</linearGradient>
<linearGradient id="paint31_linear_179_88" x1="602.141" y1="613.992" x2="696.412" y2="672.453" gradientUnits="userSpaceOnUse">
<stop stop-color="#0C011C"/>
<stop offset="1" stop-color="#400092"/>
</linearGradient>
<linearGradient id="paint32_linear_179_88" x1="601.149" y1="609.992" x2="695.42" y2="668.453" gradientUnits="userSpaceOnUse">
<stop stop-color="#E1DCFE"/>
<stop offset="1" stop-color="#7E67FD"/>
</linearGradient>
<linearGradient id="paint33_linear_179_88" x1="601.15" y1="609.992" x2="695.42" y2="668.453" gradientUnits="userSpaceOnUse">
<stop stop-color="#E1DCFE"/>
<stop offset="1" stop-color="#7E67FD"/>
</linearGradient>
<linearGradient id="paint34_linear_179_88" x1="601.15" y1="609.992" x2="695.421" y2="668.453" gradientUnits="userSpaceOnUse">
<stop stop-color="#E1DCFE"/>
<stop offset="1" stop-color="#7E67FD"/>
</linearGradient>
<linearGradient id="paint35_linear_179_88" x1="601.149" y1="609.992" x2="695.42" y2="668.453" gradientUnits="userSpaceOnUse">
<stop stop-color="#E1DCFE"/>
<stop offset="1" stop-color="#7E67FD"/>
</linearGradient>
<linearGradient id="paint36_linear_179_88" x1="539.903" y1="697.427" x2="594.129" y2="722.154" gradientUnits="userSpaceOnUse">
<stop stop-color="#0C011C"/>
<stop offset="1" stop-color="#400092"/>
</linearGradient>
<linearGradient id="paint37_linear_179_88" x1="422.134" y1="724.408" x2="475.729" y2="753.819" gradientUnits="userSpaceOnUse">
<stop stop-color="#0C011C"/>
<stop offset="1" stop-color="#400092"/>
</linearGradient>
<linearGradient id="paint38_linear_179_88" x1="538.913" y1="692.427" x2="593.139" y2="717.154" gradientUnits="userSpaceOnUse">
<stop stop-color="#E1DCFE"/>
<stop offset="1" stop-color="#7E67FD"/>
</linearGradient>
<linearGradient id="paint39_linear_179_88" x1="549.142" y1="691.39" x2="553.063" y2="703.909" gradientUnits="userSpaceOnUse">
<stop stop-color="#E1DCFE"/>
<stop offset="1" stop-color="#DFD9FF"/>
</linearGradient>
<linearGradient id="paint40_linear_179_88" x1="421.144" y1="719.408" x2="474.738" y2="748.819" gradientUnits="userSpaceOnUse">
<stop stop-color="#E1DCFE"/>
<stop offset="1" stop-color="#7E67FD"/>
</linearGradient>
<linearGradient id="paint41_linear_179_88" x1="431.231" y1="719.835" x2="436.186" y2="731.975" gradientUnits="userSpaceOnUse">
<stop stop-color="#E1DCFE"/>
<stop offset="1" stop-color="#DFD9FF"/>
</linearGradient>
<linearGradient id="paint42_linear_179_88" x1="457.272" y1="676.27" x2="476.022" y2="672.076" gradientUnits="userSpaceOnUse">
<stop stop-color="#0C011C"/>
<stop offset="1" stop-color="#400092"/>
</linearGradient>
<linearGradient id="paint43_linear_179_88" x1="504.257" y1="665.566" x2="523.007" y2="661.372" gradientUnits="userSpaceOnUse">
<stop stop-color="#0C011C"/>
<stop offset="1" stop-color="#400092"/>
</linearGradient>
<linearGradient id="paint44_linear_179_88" x1="456.28" y1="674.27" x2="475.03" y2="670.076" gradientUnits="userSpaceOnUse">
<stop stop-color="#3AA0FE"/>
<stop offset="1" stop-color="#59FEF4"/>
</linearGradient>
<linearGradient id="paint45_linear_179_88" x1="503.266" y1="663.566" x2="522.016" y2="659.372" gradientUnits="userSpaceOnUse">
<stop stop-color="#3AA0FE"/>
<stop offset="1" stop-color="#59FEF4"/>
</linearGradient>
<linearGradient id="paint46_linear_179_88" x1="592.39" y1="826.369" x2="787.607" y2="570.165" gradientUnits="userSpaceOnUse">
<stop stop-color="#FF0CF5"/>
<stop offset="1" stop-color="#0575E6"/>
</linearGradient>
<linearGradient id="paint47_linear_179_88" x1="109.001" y1="466.909" x2="128.819" y2="466.909" gradientUnits="userSpaceOnUse">
<stop stop-color="#A83AFE"/>
<stop offset="1" stop-color="#6E59FE"/>
</linearGradient>
<linearGradient id="paint48_linear_179_88" x1="109.001" y1="447.172" x2="89.1827" y2="447.172" gradientUnits="userSpaceOnUse">
<stop stop-color="#E1DCFE"/>
<stop offset="1" stop-color="#7E67FD"/>
</linearGradient>
<linearGradient id="paint49_linear_179_88" x1="971.292" y1="791.977" x2="968.866" y2="811.827" gradientUnits="userSpaceOnUse">
<stop stop-color="#A83AFE"/>
<stop offset="1" stop-color="#6E59FE"/>
</linearGradient>
<linearGradient id="paint50_linear_179_88" x1="990.708" y1="794.349" x2="993.134" y2="774.499" gradientUnits="userSpaceOnUse">
<stop stop-color="#E1DCFE"/>
<stop offset="1" stop-color="#7E67FD"/>
</linearGradient>
</defs>
</svg>
