<svg width="60" height="60" viewBox="0 0 60 60" fill="none" xmlns="http://www.w3.org/2000/svg">
<circle cx="30" cy="30" r="30" fill="url(#paint0_linear_142_77)"/>
<path d="M29.9999 20.0098C24.4815 20.0098 20.0068 24.4844 20.0068 30.0028C20.0068 35.5212 24.4815 39.9959 29.9999 39.9959C35.5183 39.9959 39.993 35.5212 39.993 30.0028C39.993 24.4844 35.5183 20.0098 29.9999 20.0098ZM33.918 31.3366L31.0769 35.5976C30.4843 36.4872 29.5141 36.4872 28.9215 35.5976L26.0804 31.3366C25.4878 30.447 25.8764 29.7197 26.9451 29.7197H29.027V24.7232C29.027 24.186 29.4614 23.7516 29.9985 23.7516C30.5356 23.7516 30.9701 24.186 30.9701 24.7232V29.7197H33.0519C34.122 29.7197 34.512 30.4483 33.918 31.3366Z" fill="white"/>
<defs>
<linearGradient id="paint0_linear_142_77" x1="58.9978" y1="46.1025" x2="-2.29852e-07" y2="11.6258" gradientUnits="userSpaceOnUse">
<stop stop-color="#0575E6"/>
<stop offset="1" stop-color="#FF0CF5"/>
</linearGradient>
</defs>
</svg>
