<svg width="1081" height="1100" viewBox="0 0 1081 1100" fill="none" xmlns="http://www.w3.org/2000/svg">
<path d="M1080.09 -54H0V1151H1080.09V-54Z" fill="url(#paint0_linear_180_206)"/>
<path fill-rule="evenodd" clip-rule="evenodd" d="M1080.09 312.656H1035.47C1014.93 312.656 995.243 320.887 980.725 335.539C966.207 350.191 958.051 370.063 958.051 390.783V554.288C958.051 588.923 930.229 617 895.909 617H774.567C771.833 617 769.612 619.24 769.612 622C769.612 624.76 771.833 627 774.567 627H895.909C935.702 627 967.96 594.446 967.96 554.288V390.783C967.96 372.715 975.071 355.386 987.732 342.61C1000.39 329.834 1017.56 322.656 1035.47 322.656H1080.09C1080.09 322.656 1080.09 320.76 1080.09 318C1080.09 315.241 1080.09 312.656 1080.09 312.656Z" fill="url(#paint1_linear_180_206)"/>
<path fill-rule="evenodd" clip-rule="evenodd" d="M760.584 514.45C760.584 648.619 652.646 757.547 519.697 757.547C386.749 757.547 278.811 648.619 278.811 514.45C278.811 380.282 386.749 271.354 519.697 271.354C533.37 271.354 544.47 260.152 544.47 246.354C544.47 232.556 533.37 221.354 519.697 221.354C359.404 221.354 229.266 352.686 229.266 514.45C229.266 676.215 359.404 807.547 519.697 807.547C679.992 807.547 810.13 676.215 810.13 514.45C810.13 500.653 799.029 489.45 785.357 489.45C771.684 489.45 760.584 500.653 760.584 514.45Z" fill="url(#paint2_linear_180_206)"/>
<path fill-rule="evenodd" clip-rule="evenodd" d="M760.584 514.45C760.584 648.619 652.646 757.547 519.697 757.547C386.749 757.547 278.811 648.619 278.811 514.45C278.811 380.282 386.749 271.354 519.697 271.354C533.37 271.354 544.47 260.152 544.47 246.354C544.47 232.556 533.37 221.354 519.697 221.354C359.404 221.354 229.266 352.686 229.266 514.45C229.266 676.215 359.404 807.547 519.697 807.547C679.992 807.547 810.13 676.215 810.13 514.45C810.13 500.653 799.029 489.45 785.357 489.45C771.684 489.45 760.584 500.653 760.584 514.45Z" fill="url(#paint3_linear_180_206)"/>
<path d="M204.802 381H278.484C281.218 381 283.438 383.24 283.438 386C283.438 388.76 281.218 391 278.484 391H204.802C162.748 391 128.659 356.597 128.659 314.159V200.326C128.659 183.796 122.152 167.943 110.57 156.255C98.9874 144.566 83.2795 138 66.8997 138H0.0449219V128H66.8997C85.9074 128 104.136 135.62 117.577 149.184C131.018 162.747 138.568 181.144 138.568 200.326V314.159C138.568 351.074 168.221 381 204.802 381Z" fill="#670CF5"/>
<path fill-rule="evenodd" clip-rule="evenodd" d="M294.077 577.266C294.077 577.266 299.316 571.452 303.754 566.526C307.722 562.123 312.935 559.058 318.687 557.748C364.126 547.397 571.15 500.236 618.609 489.425C624.901 487.992 631.489 488.737 637.31 491.54C643.416 494.48 650.387 497.837 650.387 497.837L661.969 637.637L525.683 668.683L529.419 687.593L486.332 697.409L479.862 679.121L362.231 705.918L294.077 577.266Z" fill="url(#paint4_linear_180_206)"/>
<path fill-rule="evenodd" clip-rule="evenodd" d="M543.966 506.429C544.203 507.053 544.316 507.727 544.29 508.413C543.743 522.53 542.449 555.913 541.862 571.028C541.687 575.553 538.52 579.394 534.143 580.392C513.353 585.128 454.708 598.487 433.918 603.223C429.541 604.22 425.047 602.124 422.962 598.114C415.999 584.719 400.62 555.134 394.115 542.623C393.8 542.015 393.616 541.358 393.564 540.691L543.966 506.429Z" fill="url(#paint5_linear_180_206)"/>
<path fill-rule="evenodd" clip-rule="evenodd" d="M396.105 541.625C395.389 540.249 395.346 538.615 395.992 537.203C396.637 535.792 397.897 534.764 399.4 534.421C423.839 528.854 512.231 508.718 536.671 503.151C538.173 502.809 539.747 503.191 540.932 504.186C542.116 505.181 542.774 506.674 542.712 508.228C542.166 522.013 540.896 554.084 540.311 568.829C540.133 573.351 536.967 577.188 532.592 578.184C512.195 582.831 455.418 595.764 435.021 600.411C430.647 601.407 426.156 599.315 424.069 595.309C417.265 582.247 402.466 553.837 396.105 541.625Z" fill="url(#paint6_linear_180_206)"/>
<path fill-rule="evenodd" clip-rule="evenodd" d="M485.841 555.052C485.205 560.303 480.425 564.061 475.18 563.446C469.943 562.833 466.201 558.083 466.836 552.841C467.473 547.59 472.252 543.832 477.498 544.447C480.383 544.785 483.007 542.709 483.353 539.814C483.699 536.918 481.637 534.293 478.751 533.955C467.737 532.663 457.716 540.572 456.38 551.598C455.045 562.633 462.903 572.646 473.926 573.939C484.94 575.23 494.961 567.321 496.296 556.295C496.647 553.401 494.589 550.772 491.703 550.429C488.819 550.085 486.191 552.157 485.841 555.052Z" fill="url(#paint7_linear_180_206)"/>
<path fill-rule="evenodd" clip-rule="evenodd" d="M260.006 669.922C260.006 669.922 276.045 753.685 282.622 788.035C284.437 797.513 288.532 806.397 294.552 813.912C294.977 814.443 295.413 814.987 295.859 815.545C308.481 831.303 328.107 839.69 348.194 837.91C368.282 836.129 386.187 824.415 395.942 806.673C395.942 806.673 395.942 806.672 395.943 806.672C399.939 799.403 402.5 791.43 403.483 783.192C407.192 752.126 416.545 673.784 416.545 673.784L260.178 669.882" fill="url(#paint8_linear_180_206)"/>
<path fill-rule="evenodd" clip-rule="evenodd" d="M716.265 565.985C716.265 565.985 737.437 648.578 746.119 682.449C748.515 691.795 748.598 701.593 746.361 710.989C746.203 711.652 746.042 712.333 745.875 713.03C741.185 732.732 727.032 748.814 708.136 755.914C689.238 763.014 668.082 760.199 651.722 748.406C651.721 748.406 651.721 748.405 651.72 748.405C645.018 743.573 639.311 737.483 634.916 730.47C618.343 704.025 576.55 637.334 576.55 637.334L716.093 566.024" fill="url(#paint9_linear_180_206)"/>
<path fill-rule="evenodd" clip-rule="evenodd" d="M434.008 642.895C458.427 637.333 482.704 652.715 488.186 677.225C493.669 701.734 478.294 726.149 453.875 731.712C429.455 737.275 405.179 721.893 399.697 697.383C394.215 672.873 409.589 648.458 434.008 642.895Z" fill="url(#paint10_linear_180_206)"/>
<path fill-rule="evenodd" clip-rule="evenodd" d="M551.59 616.11C576.009 610.547 600.286 625.93 605.768 650.439C611.25 674.949 595.876 699.364 571.457 704.927C547.037 710.49 522.761 695.107 517.279 670.598C511.797 646.088 527.171 621.673 551.59 616.11Z" fill="url(#paint11_linear_180_206)"/>
<path fill-rule="evenodd" clip-rule="evenodd" d="M261.073 620.275C261.073 620.275 269.827 580.041 271.932 570.369C272.23 568.998 272.764 567.69 273.509 566.506C275.805 562.861 281.074 554.494 284.278 549.405C285.964 546.728 288.63 544.834 291.696 544.136C302.308 541.718 327.713 535.931 338.325 533.513C341.39 532.815 344.605 533.37 347.266 535.056C352.326 538.262 360.646 543.534 364.271 545.83C365.448 546.577 366.487 547.526 367.339 548.634C373.357 556.456 398.388 588.995 398.388 588.995L261.073 620.275Z" fill="url(#paint12_linear_180_206)"/>
<path fill-rule="evenodd" clip-rule="evenodd" d="M284.519 564.719C284.022 565.61 284.181 566.726 284.906 567.441C285.63 568.155 286.74 568.289 287.611 567.766C294.799 563.534 306.399 557.583 318.587 554.807C329.913 552.227 343.567 552.595 352.206 553.233C353.223 553.308 354.164 552.69 354.507 551.722C354.851 550.753 354.511 549.673 353.678 549.081C350.179 546.58 346.097 543.681 343.25 541.659C340.983 540.049 338.148 539.482 335.444 540.098C327.047 542.011 308.302 546.281 298.729 548.462C294.989 549.314 291.782 551.722 289.899 555.092C288.298 557.956 286.291 561.547 284.519 564.719Z" fill="url(#paint13_linear_180_206)"/>
<path fill-rule="evenodd" clip-rule="evenodd" d="M694.101 521.631C694.101 521.631 669.07 489.092 663.053 481.27C662.2 480.162 661.162 479.213 659.983 478.466C656.36 476.17 648.04 470.898 642.979 467.692C640.319 466.006 637.104 465.451 634.038 466.149C623.426 468.567 598.022 474.354 587.409 476.771C584.344 477.47 581.678 479.364 579.992 482.041C576.788 487.13 571.519 495.497 569.223 499.142C568.477 500.326 567.943 501.634 567.644 503.005C565.541 512.677 556.787 552.911 556.787 552.911L694.101 521.631Z" fill="url(#paint14_linear_180_206)"/>
<path fill-rule="evenodd" clip-rule="evenodd" d="M580.185 497.365C579.688 498.256 579.847 499.373 580.572 500.087C581.296 500.802 582.407 500.935 583.277 500.413C590.465 496.18 602.066 490.23 614.253 487.453C625.579 484.873 639.234 485.241 647.873 485.879C648.889 485.955 649.83 485.336 650.174 484.368C650.517 483.4 650.177 482.319 649.344 481.727C645.845 479.227 641.764 476.328 638.917 474.305C636.649 472.696 633.814 472.129 631.111 472.744C622.713 474.657 603.969 478.928 594.395 481.108C590.656 481.96 587.449 484.369 585.565 487.738C583.965 490.602 581.957 494.194 580.185 497.365Z" fill="url(#paint15_linear_180_206)"/>
<path fill-rule="evenodd" clip-rule="evenodd" d="M321.041 565.779C365.326 555.691 409.352 583.588 419.295 628.038C429.238 672.488 401.356 716.766 357.069 726.855C312.783 736.943 268.756 709.046 258.814 664.596C248.872 620.146 276.754 575.868 321.041 565.779Z" fill="url(#paint16_linear_180_206)"/>
<path fill-rule="evenodd" clip-rule="evenodd" d="M339.521 632.392C338.105 634.644 335.143 635.318 332.907 633.899C329.26 631.585 324.083 628.299 321.449 626.628C320.375 625.946 319.615 624.863 319.336 623.616C318.349 619.205 315.92 608.344 314.514 602.059C314.235 600.813 314.461 599.505 315.141 598.423C315.82 597.342 316.9 596.576 318.139 596.293C323.331 595.111 331.657 593.214 336.848 592.031C338.088 591.749 339.388 591.973 340.463 592.655C341.538 593.337 342.298 594.42 342.576 595.667C343.982 601.952 346.412 612.812 347.398 617.223C347.677 618.47 347.451 619.778 346.772 620.859C345.106 623.51 341.829 628.721 339.521 632.392Z" fill="url(#paint17_linear_180_206)"/>
<path fill-rule="evenodd" clip-rule="evenodd" d="M338.569 628.114C337.15 630.366 334.185 631.042 331.946 629.623C328.295 627.31 323.112 624.025 320.476 622.355C319.4 621.673 318.639 620.59 318.36 619.343C317.373 614.932 314.945 604.072 313.539 597.787C313.259 596.54 313.486 595.232 314.167 594.15C314.848 593.069 315.929 592.302 317.17 592.019C322.368 590.835 330.706 588.935 335.904 587.751C337.146 587.469 338.448 587.692 339.524 588.374C340.599 589.055 341.36 590.139 341.639 591.385C343.045 597.67 345.474 608.531 346.461 612.942C346.74 614.189 346.514 615.497 345.832 616.578C344.164 619.229 340.881 624.443 338.569 628.114Z" fill="url(#paint18_linear_180_206)"/>
<path fill-rule="evenodd" clip-rule="evenodd" d="M321.962 650.671C324.201 652.09 324.867 655.066 323.448 657.319C321.137 660.99 317.854 666.203 316.185 668.854C315.503 669.936 314.423 670.702 313.181 670.985C308.786 671.986 297.965 674.451 291.704 675.878C290.462 676.161 289.16 675.937 288.084 675.255C287.009 674.574 286.248 673.491 285.969 672.244C284.802 667.027 282.93 658.658 281.763 653.441C281.484 652.194 281.71 650.886 282.391 649.804C283.073 648.723 284.153 647.956 285.396 647.673C291.657 646.247 302.477 643.782 306.872 642.781C308.114 642.498 309.416 642.722 310.492 643.403C313.128 645.073 318.312 648.358 321.962 650.671Z" fill="url(#paint19_linear_180_206)"/>
<path fill-rule="evenodd" clip-rule="evenodd" d="M320.972 647.048C323.211 648.468 323.877 651.444 322.458 653.696C320.146 657.368 316.863 662.581 315.195 665.232C314.513 666.313 313.433 667.08 312.19 667.363C307.796 668.364 296.975 670.829 290.713 672.255C289.472 672.538 288.17 672.315 287.094 671.633C286.018 670.952 285.257 669.868 284.979 668.622C283.812 663.405 281.94 655.035 280.773 649.819C280.494 648.572 280.72 647.264 281.401 646.182C282.083 645.1 283.163 644.334 284.405 644.051C290.667 642.624 301.487 640.16 305.882 639.158C307.124 638.875 308.426 639.099 309.502 639.781C312.138 641.451 317.321 644.735 320.972 647.048Z" fill="url(#paint20_linear_180_206)"/>
<path fill-rule="evenodd" clip-rule="evenodd" d="M340.732 668.189C342.15 665.936 345.115 665.261 347.355 666.68C351.005 668.993 356.189 672.277 358.825 673.947C359.9 674.629 360.661 675.712 360.94 676.959C361.926 681.37 364.356 692.231 365.762 698.516C366.04 699.762 365.814 701.07 365.134 702.152C364.452 703.234 363.372 704 362.129 704.283C356.932 705.467 348.593 707.367 343.396 708.551C342.154 708.834 340.852 708.61 339.776 707.928C338.701 707.247 337.94 706.164 337.661 704.917C336.256 698.632 333.826 687.772 332.839 683.36C332.561 682.114 332.786 680.806 333.467 679.724C335.137 677.073 338.42 671.86 340.732 668.189Z" fill="url(#paint21_linear_180_206)"/>
<path fill-rule="evenodd" clip-rule="evenodd" d="M339.74 664.475C341.158 662.223 344.124 661.547 346.364 662.966C350.014 665.279 355.198 668.564 357.833 670.234C358.909 670.915 359.67 671.999 359.949 673.245C360.935 677.657 363.365 688.517 364.771 694.802C365.049 696.049 364.823 697.357 364.143 698.438C363.461 699.52 362.381 700.287 361.138 700.57C355.941 701.754 347.602 703.653 342.405 704.837C341.162 705.12 339.86 704.896 338.785 704.215C337.71 703.533 336.949 702.45 336.67 701.203C335.264 694.918 332.835 684.058 331.848 679.647C331.569 678.4 331.795 677.092 332.476 676.01C334.146 673.359 337.429 668.146 339.74 664.475Z" fill="url(#paint22_linear_180_206)"/>
<path fill-rule="evenodd" clip-rule="evenodd" d="M358.074 649.354C355.835 647.935 355.169 644.959 356.587 642.706C358.899 639.035 362.182 633.822 363.851 631.171C364.532 630.089 365.612 629.323 366.855 629.04C371.249 628.039 382.07 625.574 388.332 624.147C389.574 623.864 390.876 624.088 391.951 624.77C393.027 625.451 393.788 626.534 394.067 627.781C395.233 632.998 397.105 641.367 398.272 646.584C398.551 647.831 398.325 649.139 397.644 650.221C396.963 651.302 395.882 652.069 394.641 652.352C388.379 653.778 377.559 656.243 373.163 657.244C371.921 657.527 370.619 657.303 369.544 656.622C366.908 654.952 361.725 651.667 358.074 649.354Z" fill="url(#paint23_linear_180_206)"/>
<path fill-rule="evenodd" clip-rule="evenodd" d="M357.183 645.786C354.942 644.367 354.278 641.391 355.696 639.138C358.007 635.467 361.29 630.254 362.96 627.603C363.641 626.521 364.721 625.755 365.963 625.472C370.358 624.471 381.179 622.006 387.44 620.579C388.683 620.296 389.984 620.52 391.06 621.202C392.135 621.883 392.896 622.966 393.176 624.213C394.342 629.43 396.214 637.799 397.381 643.016C397.66 644.263 397.434 645.571 396.753 646.653C396.072 647.734 394.991 648.501 393.749 648.784C387.487 650.21 376.667 652.675 372.271 653.676C371.03 653.959 369.728 653.735 368.653 653.054C366.017 651.384 360.832 648.099 357.183 645.786Z" fill="url(#paint24_linear_180_206)"/>
<path fill-rule="evenodd" clip-rule="evenodd" d="M616.718 498.423C661.004 488.335 705.031 516.232 714.974 560.682C724.917 605.132 697.034 649.41 652.748 659.499C608.462 669.587 564.435 641.69 554.492 597.24C544.549 552.79 572.433 508.512 616.718 498.423Z" fill="url(#paint25_linear_180_206)"/>
<path fill-rule="evenodd" clip-rule="evenodd" d="M619.077 505.257C644.861 499.383 668.95 508.723 672.837 526.1C676.724 543.478 658.947 562.355 633.162 568.228C607.378 574.102 583.289 564.762 579.403 547.385C575.515 530.007 593.293 511.13 619.077 505.257Z" fill="url(#paint26_linear_180_206)"/>
<path fill-rule="evenodd" clip-rule="evenodd" d="M323.448 574.383C349.232 568.509 373.321 577.849 377.207 595.226C381.095 612.604 363.317 631.481 337.533 637.354C311.749 643.228 287.66 633.888 283.774 616.511C279.886 599.133 297.664 580.256 323.448 574.383Z" fill="url(#paint27_linear_180_206)"/>
<path fill-rule="evenodd" clip-rule="evenodd" d="M667.897 558.967C676.616 556.981 685.284 562.474 687.241 571.225C689.199 579.977 683.709 588.694 674.99 590.68C666.27 592.667 657.603 587.174 655.645 578.423C653.688 569.671 659.178 560.954 667.897 558.967Z" fill="url(#paint28_linear_180_206)"/>
<path fill-rule="evenodd" clip-rule="evenodd" d="M596.456 575.241C605.176 573.255 613.844 578.748 615.802 587.499C617.759 596.251 612.269 604.968 603.55 606.954C594.831 608.941 586.163 603.448 584.206 594.697C582.248 585.945 587.737 577.228 596.456 575.241Z" fill="url(#paint29_linear_180_206)"/>
<path fill-rule="evenodd" clip-rule="evenodd" d="M659.541 615.214C661.498 623.965 656.009 632.683 647.29 634.669C638.571 636.656 629.902 631.163 627.945 622.412C625.987 613.66 631.477 604.942 640.197 602.956C648.916 600.97 657.583 606.462 659.541 615.214Z" fill="url(#paint30_linear_180_206)"/>
<path fill-rule="evenodd" clip-rule="evenodd" d="M643.503 543.51C645.461 552.262 639.971 560.979 631.251 562.966C622.532 564.952 613.865 559.459 611.907 550.708C609.95 541.956 615.439 533.239 624.158 531.253C632.877 529.266 641.546 534.759 643.503 543.51Z" fill="url(#paint31_linear_180_206)"/>
<path fill-rule="evenodd" clip-rule="evenodd" d="M666.905 554.967C675.624 552.981 684.293 558.474 686.25 567.225C688.208 575.977 682.718 584.694 673.999 586.68C665.279 588.667 656.612 583.174 654.654 574.423C652.697 565.671 658.186 556.954 666.905 554.967Z" fill="url(#paint32_linear_180_206)"/>
<path fill-rule="evenodd" clip-rule="evenodd" d="M595.466 571.241C604.186 569.255 612.854 574.748 614.812 583.499C616.769 592.251 611.279 600.968 602.56 602.954C593.841 604.941 585.173 599.448 583.216 590.697C581.258 581.945 586.747 573.228 595.466 571.241Z" fill="url(#paint33_linear_180_206)"/>
<path fill-rule="evenodd" clip-rule="evenodd" d="M658.551 611.214C660.508 619.965 655.018 628.683 646.299 630.669C637.58 632.656 628.912 627.163 626.955 618.412C624.997 609.66 630.486 600.942 639.206 598.956C647.925 596.97 656.593 602.462 658.551 611.214Z" fill="url(#paint34_linear_180_206)"/>
<path fill-rule="evenodd" clip-rule="evenodd" d="M642.512 539.51C644.47 548.262 638.98 556.979 630.26 558.966C621.541 560.952 612.873 555.459 610.915 546.708C608.958 537.956 614.448 529.239 623.167 527.253C631.886 525.266 640.554 530.759 642.512 539.51Z" fill="url(#paint35_linear_180_206)"/>
<path fill-rule="evenodd" clip-rule="evenodd" d="M555.595 634.586C572.604 630.711 589.514 641.426 593.333 658.498C597.152 675.57 586.442 692.577 569.433 696.451C552.423 700.326 535.514 689.611 531.696 672.539C527.877 655.467 538.585 638.46 555.595 634.586Z" fill="url(#paint36_linear_180_206)"/>
<path fill-rule="evenodd" clip-rule="evenodd" d="M438.014 661.37C455.023 657.495 471.933 668.211 475.752 685.283C479.571 702.356 468.861 719.361 451.852 723.236C434.842 727.111 417.933 716.396 414.115 699.323C410.296 682.251 421.004 665.245 438.014 661.37Z" fill="url(#paint37_linear_180_206)"/>
<path fill-rule="evenodd" clip-rule="evenodd" d="M554.605 629.586C571.614 625.711 588.524 636.426 592.343 653.498C596.162 670.57 585.452 687.577 568.443 691.451C551.433 695.326 534.523 684.611 530.705 667.539C526.886 650.467 537.595 633.46 554.605 629.586Z" fill="url(#paint38_linear_180_206)"/>
<path fill-rule="evenodd" clip-rule="evenodd" d="M555.849 635.006C562.82 633.418 568.981 634.38 569.602 637.153C570.222 639.925 565.066 643.465 558.096 645.053C551.126 646.641 544.964 645.679 544.343 642.906C543.724 640.134 548.879 636.594 555.849 635.006Z" fill="url(#paint39_linear_180_206)"/>
<path fill-rule="evenodd" clip-rule="evenodd" d="M437.023 656.37C454.032 652.495 470.942 663.211 474.761 680.283C478.58 697.356 467.87 714.361 450.861 718.236C433.851 722.111 416.942 711.396 413.123 694.323C409.304 677.251 420.013 660.245 437.023 656.37Z" fill="url(#paint40_linear_180_206)"/>
<path fill-rule="evenodd" clip-rule="evenodd" d="M437.718 662.896C444.533 660.727 450.753 661.167 451.6 663.878C452.447 666.589 447.602 670.55 440.787 672.718C433.973 674.887 427.752 674.447 426.905 671.736C426.058 669.026 430.903 665.064 437.718 662.896Z" fill="url(#paint41_linear_180_206)"/>
<path fill-rule="evenodd" clip-rule="evenodd" d="M476.004 618.001C475.726 616.755 474.968 615.671 473.898 614.988C472.827 614.306 471.531 614.081 470.297 614.362C467.423 615.017 463.751 615.853 460.877 616.508C459.642 616.789 458.568 617.554 457.892 618.635C457.216 619.715 456.993 621.022 457.271 622.269C457.271 622.269 457.271 622.27 457.271 622.271C457.551 623.517 458.309 624.601 459.379 625.283C460.449 625.965 461.745 626.191 462.98 625.909C465.854 625.255 469.526 624.418 472.4 623.764C473.635 623.482 474.708 622.717 475.385 621.637C476.061 620.557 476.284 619.249 476.005 618.003C476.005 618.002 476.005 618.002 476.004 618.001Z" fill="url(#paint42_linear_180_206)"/>
<path fill-rule="evenodd" clip-rule="evenodd" d="M522.989 607.298C522.71 606.051 521.952 604.968 520.881 604.285C519.811 603.603 518.516 603.378 517.28 603.659C514.408 604.313 510.734 605.15 507.861 605.805C506.626 606.086 505.552 606.851 504.876 607.931C504.199 609.012 503.976 610.319 504.255 611.565C504.256 611.566 504.256 611.567 504.256 611.567C504.534 612.814 505.292 613.897 506.363 614.58C507.434 615.262 508.729 615.488 509.964 615.206C512.837 614.552 516.51 613.715 519.384 613.06C520.619 612.779 521.693 612.014 522.369 610.934C523.044 609.853 523.268 608.546 522.989 607.3C522.989 607.299 522.989 607.298 522.989 607.298Z" fill="url(#paint43_linear_180_206)"/>
<path fill-rule="evenodd" clip-rule="evenodd" d="M475.013 616.001C474.735 614.755 473.977 613.671 472.907 612.988C471.835 612.306 470.54 612.081 469.306 612.362C466.432 613.017 462.76 613.853 459.886 614.508C458.65 614.789 457.577 615.554 456.9 616.635C456.225 617.715 456.002 619.022 456.28 620.269C456.28 620.269 456.28 620.27 456.28 620.271C456.56 621.517 457.318 622.601 458.388 623.283C459.458 623.965 460.754 624.191 461.989 623.909C464.862 623.255 468.535 622.418 471.408 621.764C472.644 621.482 473.717 620.717 474.394 619.637C475.07 618.557 475.293 617.249 475.014 616.003C475.014 616.002 475.014 616.002 475.013 616.001Z" fill="url(#paint44_linear_180_206)"/>
<path fill-rule="evenodd" clip-rule="evenodd" d="M521.999 605.298C521.72 604.051 520.962 602.968 519.891 602.285C518.821 601.603 517.526 601.378 516.29 601.659C513.417 602.313 509.744 603.15 506.87 603.805C505.636 604.086 504.562 604.851 503.886 605.931C503.209 607.012 502.986 608.319 503.264 609.565C503.265 609.566 503.265 609.567 503.265 609.567C503.544 610.814 504.302 611.897 505.373 612.58C506.443 613.262 507.738 613.488 508.974 613.206C511.847 612.552 515.52 611.715 518.394 611.06C519.628 610.779 520.702 610.014 521.378 608.934C522.054 607.853 522.278 606.546 521.999 605.3C521.999 605.299 521.999 605.298 521.999 605.298Z" fill="url(#paint45_linear_180_206)"/>
<path fill-rule="evenodd" clip-rule="evenodd" d="M760.584 514.45C760.584 625.559 686.566 719.361 585.616 748.322C572.464 752.095 564.823 765.933 568.561 779.205C572.3 792.477 586.012 800.189 599.164 796.416C720.877 761.499 810.129 648.411 810.129 514.45C810.129 500.653 799.029 489.45 785.356 489.45C771.684 489.45 760.584 500.653 760.584 514.45Z" fill="url(#paint46_linear_180_206)"/>
<path fill-rule="evenodd" clip-rule="evenodd" d="M109 402.909V418.081C109 418.89 109.483 419.619 110.224 419.928C110.964 420.238 111.816 420.067 112.383 419.495C116.028 415.818 121.791 410.001 125.435 406.323C126.002 405.751 126.171 404.891 125.864 404.144C125.558 403.396 124.835 402.909 124.034 402.909C118.169 402.909 109 402.909 109 402.909Z" fill="url(#paint47_linear_180_206)"/>
<path fill-rule="evenodd" clip-rule="evenodd" d="M109 403.172V388C109 387.191 108.517 386.462 107.776 386.152C107.036 385.843 106.184 386.014 105.617 386.586C101.972 390.263 96.2092 396.08 92.5647 399.757C91.9979 400.329 91.8284 401.19 92.1356 401.937C92.4418 402.684 93.1652 403.172 93.9658 403.172C99.831 403.172 109 403.172 109 403.172Z" fill="url(#paint48_linear_180_206)"/>
<path fill-rule="evenodd" clip-rule="evenodd" d="M981.128 739.179C981.128 739.179 972.025 738.066 966.204 737.355C965.408 737.258 964.632 737.654 964.239 738.358C963.845 739.063 963.911 739.938 964.405 740.574C967.585 744.667 972.614 751.141 975.794 755.234C976.288 755.87 977.114 756.144 977.887 755.926C978.658 755.709 979.224 755.043 979.32 754.24C980.026 748.365 981.128 739.179 981.128 739.179Z" fill="url(#paint49_linear_180_206)"/>
<path fill-rule="evenodd" clip-rule="evenodd" d="M980.87 739.147C980.87 739.147 989.973 740.26 995.794 740.971C996.59 741.068 997.366 740.672 997.759 739.968C998.153 739.263 998.087 738.388 997.593 737.752C994.413 733.659 989.384 727.185 986.204 723.092C985.71 722.456 984.884 722.182 984.111 722.4C983.339 722.617 982.774 723.283 982.678 724.086C981.972 729.961 980.87 739.147 980.87 739.147Z" fill="url(#paint50_linear_180_206)"/>
<path d="M1080.09 -54H0V1151H1080.09V-54Z" fill="#22062C" fill-opacity="0.2"/>
<defs>
<linearGradient id="paint0_linear_180_206" x1="0" y1="-54" x2="1090.95" y2="1141.09" gradientUnits="userSpaceOnUse">
<stop stop-color="#670CF5" stop-opacity="0.1"/>
<stop offset="1" stop-color="#400092" stop-opacity="0.1"/>
</linearGradient>
<linearGradient id="paint1_linear_180_206" x1="963.005" y1="177.656" x2="1080.09" y2="177.656" gradientUnits="userSpaceOnUse">
<stop stop-color="#670CF5"/>
<stop offset="1" stop-color="#400092"/>
</linearGradient>
<linearGradient id="paint2_linear_180_206" x1="731.348" y1="760.117" x2="400.311" y2="315.899" gradientUnits="userSpaceOnUse">
<stop stop-color="#1C1429"/>
<stop offset="1" stop-color="#1C1429" stop-opacity="0"/>
</linearGradient>
<linearGradient id="paint3_linear_180_206" x1="830.045" y1="731" x2="572.529" y2="289.049" gradientUnits="userSpaceOnUse">
<stop stop-color="#0575E6"/>
<stop offset="0.629011" stop-color="#FF0CF5"/>
<stop offset="1" stop-color="#1D1028"/>
</linearGradient>
<linearGradient id="paint4_linear_180_206" x1="526.95" y1="690.07" x2="473.324" y2="417.028" gradientUnits="userSpaceOnUse">
<stop stop-color="#260043"/>
<stop offset="1" stop-color="#4F36FE"/>
</linearGradient>
<linearGradient id="paint5_linear_180_206" x1="488.867" y1="483" x2="494.426" y2="616.996" gradientUnits="userSpaceOnUse">
<stop stop-color="#0C011C"/>
<stop offset="1" stop-color="#400092"/>
</linearGradient>
<linearGradient id="paint6_linear_180_206" x1="482.414" y1="635" x2="453.176" y2="510.381" gradientUnits="userSpaceOnUse">
<stop stop-color="#2B004C"/>
<stop offset="1" stop-color="#4F36FE"/>
</linearGradient>
<linearGradient id="paint7_linear_180_206" x1="467.427" y1="542.116" x2="488.964" y2="561.608" gradientUnits="userSpaceOnUse">
<stop stop-color="#FF0CF5"/>
<stop offset="1" stop-color="#0575E6"/>
</linearGradient>
<linearGradient id="paint8_linear_180_206" x1="258.315" y1="769.465" x2="429.387" y2="731.2" gradientUnits="userSpaceOnUse">
<stop stop-color="#3B0169"/>
<stop offset="1" stop-color="#5F47FE"/>
</linearGradient>
<linearGradient id="paint9_linear_180_206" x1="640.338" y1="734.169" x2="739.105" y2="653.135" gradientUnits="userSpaceOnUse">
<stop stop-color="#3B0169"/>
<stop offset="1" stop-color="#5F47FE"/>
</linearGradient>
<linearGradient id="paint10_linear_180_206" x1="513.941" y1="735.593" x2="410.747" y2="648.603" gradientUnits="userSpaceOnUse">
<stop stop-color="#3B0169"/>
<stop offset="1" stop-color="#5F47FE"/>
</linearGradient>
<linearGradient id="paint11_linear_180_206" x1="541.457" y1="720.507" x2="558.909" y2="615.128" gradientUnits="userSpaceOnUse">
<stop stop-color="#3B0169"/>
<stop offset="1" stop-color="#5F47FE"/>
</linearGradient>
<linearGradient id="paint12_linear_180_206" x1="306.866" y1="491.879" x2="339.622" y2="646.197" gradientUnits="userSpaceOnUse">
<stop stop-color="#3B0169"/>
<stop offset="1" stop-color="#5F47FE"/>
</linearGradient>
<linearGradient id="paint13_linear_180_206" x1="280.698" y1="561.462" x2="355.699" y2="544.685" gradientUnits="userSpaceOnUse">
<stop stop-color="#FF006E"/>
<stop offset="1" stop-color="#FF64A0"/>
</linearGradient>
<linearGradient id="paint14_linear_180_206" x1="593.108" y1="422.564" x2="635.447" y2="578.767" gradientUnits="userSpaceOnUse">
<stop stop-color="#3B0169"/>
<stop offset="1" stop-color="#5F47FE"/>
</linearGradient>
<linearGradient id="paint15_linear_180_206" x1="576.365" y1="494.108" x2="651.366" y2="477.332" gradientUnits="userSpaceOnUse">
<stop stop-color="#FF006E"/>
<stop offset="1" stop-color="#FF64A0"/>
</linearGradient>
<linearGradient id="paint16_linear_180_206" x1="272.989" y1="723.163" x2="358.319" y2="566.348" gradientUnits="userSpaceOnUse">
<stop stop-color="#3B0169"/>
<stop offset="1" stop-color="#5F47FE"/>
</linearGradient>
<linearGradient id="paint17_linear_180_206" x1="286.449" y1="618.99" x2="390.988" y2="683.408" gradientUnits="userSpaceOnUse">
<stop stop-color="#0C011C"/>
<stop offset="1" stop-color="#400092"/>
</linearGradient>
<linearGradient id="paint18_linear_180_206" x1="285.433" y1="614.727" x2="389.915" y2="679.403" gradientUnits="userSpaceOnUse">
<stop stop-color="#E1DCFE"/>
<stop offset="1" stop-color="#7E67FD"/>
</linearGradient>
<linearGradient id="paint19_linear_180_206" x1="286.422" y1="618.349" x2="390.904" y2="683.025" gradientUnits="userSpaceOnUse">
<stop stop-color="#0C011C"/>
<stop offset="1" stop-color="#400092"/>
</linearGradient>
<linearGradient id="paint20_linear_180_206" x1="285.432" y1="614.727" x2="389.914" y2="679.403" gradientUnits="userSpaceOnUse">
<stop stop-color="#E1DCFE"/>
<stop offset="1" stop-color="#7E67FD"/>
</linearGradient>
<linearGradient id="paint21_linear_180_206" x1="286.423" y1="618.44" x2="390.905" y2="683.116" gradientUnits="userSpaceOnUse">
<stop stop-color="#0C011C"/>
<stop offset="1" stop-color="#400092"/>
</linearGradient>
<linearGradient id="paint22_linear_180_206" x1="285.432" y1="614.727" x2="389.914" y2="679.403" gradientUnits="userSpaceOnUse">
<stop stop-color="#E1DCFE"/>
<stop offset="1" stop-color="#7E67FD"/>
</linearGradient>
<linearGradient id="paint23_linear_180_206" x1="286.324" y1="618.295" x2="390.806" y2="682.971" gradientUnits="userSpaceOnUse">
<stop stop-color="#0C011C"/>
<stop offset="1" stop-color="#400092"/>
</linearGradient>
<linearGradient id="paint24_linear_180_206" x1="285.432" y1="614.727" x2="389.914" y2="679.403" gradientUnits="userSpaceOnUse">
<stop stop-color="#E1DCFE"/>
<stop offset="1" stop-color="#7E67FD"/>
</linearGradient>
<linearGradient id="paint25_linear_180_206" x1="608.761" y1="688.734" x2="644.176" y2="477.705" gradientUnits="userSpaceOnUse">
<stop stop-color="#3B0169"/>
<stop offset="1" stop-color="#5F47FE"/>
</linearGradient>
<linearGradient id="paint26_linear_180_206" x1="606.77" y1="581.753" x2="598.016" y2="495.981" gradientUnits="userSpaceOnUse">
<stop stop-color="#E1DCFE" stop-opacity="0.01"/>
<stop offset="1" stop-color="white" stop-opacity="0.1"/>
</linearGradient>
<linearGradient id="paint27_linear_180_206" x1="311.142" y1="650.879" x2="302.387" y2="565.107" gradientUnits="userSpaceOnUse">
<stop stop-color="#E1DCFE" stop-opacity="0.01"/>
<stop offset="1" stop-color="white" stop-opacity="0.1"/>
</linearGradient>
<linearGradient id="paint28_linear_180_206" x1="602.14" y1="559.992" x2="696.411" y2="618.453" gradientUnits="userSpaceOnUse">
<stop stop-color="#0C011C"/>
<stop offset="1" stop-color="#400092"/>
</linearGradient>
<linearGradient id="paint29_linear_180_206" x1="602.139" y1="559.992" x2="696.41" y2="618.453" gradientUnits="userSpaceOnUse">
<stop stop-color="#0C011C"/>
<stop offset="1" stop-color="#400092"/>
</linearGradient>
<linearGradient id="paint30_linear_180_206" x1="602.14" y1="559.992" x2="696.411" y2="618.453" gradientUnits="userSpaceOnUse">
<stop stop-color="#0C011C"/>
<stop offset="1" stop-color="#400092"/>
</linearGradient>
<linearGradient id="paint31_linear_180_206" x1="602.14" y1="559.992" x2="696.411" y2="618.453" gradientUnits="userSpaceOnUse">
<stop stop-color="#0C011C"/>
<stop offset="1" stop-color="#400092"/>
</linearGradient>
<linearGradient id="paint32_linear_180_206" x1="601.149" y1="555.992" x2="695.419" y2="614.453" gradientUnits="userSpaceOnUse">
<stop stop-color="#E1DCFE"/>
<stop offset="1" stop-color="#7E67FD"/>
</linearGradient>
<linearGradient id="paint33_linear_180_206" x1="601.149" y1="555.992" x2="695.42" y2="614.453" gradientUnits="userSpaceOnUse">
<stop stop-color="#E1DCFE"/>
<stop offset="1" stop-color="#7E67FD"/>
</linearGradient>
<linearGradient id="paint34_linear_180_206" x1="601.15" y1="555.992" x2="695.42" y2="614.453" gradientUnits="userSpaceOnUse">
<stop stop-color="#E1DCFE"/>
<stop offset="1" stop-color="#7E67FD"/>
</linearGradient>
<linearGradient id="paint35_linear_180_206" x1="601.149" y1="555.992" x2="695.42" y2="614.453" gradientUnits="userSpaceOnUse">
<stop stop-color="#E1DCFE"/>
<stop offset="1" stop-color="#7E67FD"/>
</linearGradient>
<linearGradient id="paint36_linear_180_206" x1="539.902" y1="643.427" x2="594.128" y2="668.154" gradientUnits="userSpaceOnUse">
<stop stop-color="#0C011C"/>
<stop offset="1" stop-color="#400092"/>
</linearGradient>
<linearGradient id="paint37_linear_180_206" x1="422.134" y1="670.407" x2="475.728" y2="699.819" gradientUnits="userSpaceOnUse">
<stop stop-color="#0C011C"/>
<stop offset="1" stop-color="#400092"/>
</linearGradient>
<linearGradient id="paint38_linear_180_206" x1="538.912" y1="638.427" x2="593.138" y2="663.154" gradientUnits="userSpaceOnUse">
<stop stop-color="#E1DCFE"/>
<stop offset="1" stop-color="#7E67FD"/>
</linearGradient>
<linearGradient id="paint39_linear_180_206" x1="549.141" y1="637.39" x2="553.062" y2="649.909" gradientUnits="userSpaceOnUse">
<stop stop-color="#E1DCFE"/>
<stop offset="1" stop-color="#DFD9FF"/>
</linearGradient>
<linearGradient id="paint40_linear_180_206" x1="421.143" y1="665.407" x2="474.737" y2="694.819" gradientUnits="userSpaceOnUse">
<stop stop-color="#E1DCFE"/>
<stop offset="1" stop-color="#7E67FD"/>
</linearGradient>
<linearGradient id="paint41_linear_180_206" x1="431.23" y1="665.835" x2="436.185" y2="677.975" gradientUnits="userSpaceOnUse">
<stop stop-color="#E1DCFE"/>
<stop offset="1" stop-color="#DFD9FF"/>
</linearGradient>
<linearGradient id="paint42_linear_180_206" x1="457.271" y1="622.27" x2="476.021" y2="618.076" gradientUnits="userSpaceOnUse">
<stop stop-color="#0C011C"/>
<stop offset="1" stop-color="#400092"/>
</linearGradient>
<linearGradient id="paint43_linear_180_206" x1="504.256" y1="611.566" x2="523.006" y2="607.372" gradientUnits="userSpaceOnUse">
<stop stop-color="#0C011C"/>
<stop offset="1" stop-color="#400092"/>
</linearGradient>
<linearGradient id="paint44_linear_180_206" x1="456.28" y1="620.27" x2="475.03" y2="616.076" gradientUnits="userSpaceOnUse">
<stop stop-color="#3AA0FE"/>
<stop offset="1" stop-color="#59FEF4"/>
</linearGradient>
<linearGradient id="paint45_linear_180_206" x1="503.265" y1="609.566" x2="522.016" y2="605.372" gradientUnits="userSpaceOnUse">
<stop stop-color="#3AA0FE"/>
<stop offset="1" stop-color="#59FEF4"/>
</linearGradient>
<linearGradient id="paint46_linear_180_206" x1="592.39" y1="772.369" x2="787.607" y2="516.165" gradientUnits="userSpaceOnUse">
<stop stop-color="#FF0CF5"/>
<stop offset="1" stop-color="#0575E6"/>
</linearGradient>
<linearGradient id="paint47_linear_180_206" x1="109" y1="412.909" x2="128.818" y2="412.909" gradientUnits="userSpaceOnUse">
<stop stop-color="#A83AFE"/>
<stop offset="1" stop-color="#6E59FE"/>
</linearGradient>
<linearGradient id="paint48_linear_180_206" x1="109" y1="393.172" x2="89.1817" y2="393.172" gradientUnits="userSpaceOnUse">
<stop stop-color="#E1DCFE"/>
<stop offset="1" stop-color="#7E67FD"/>
</linearGradient>
<linearGradient id="paint49_linear_180_206" x1="971.291" y1="737.977" x2="968.865" y2="757.827" gradientUnits="userSpaceOnUse">
<stop stop-color="#A83AFE"/>
<stop offset="1" stop-color="#6E59FE"/>
</linearGradient>
<linearGradient id="paint50_linear_180_206" x1="990.707" y1="740.349" x2="993.133" y2="720.499" gradientUnits="userSpaceOnUse">
<stop stop-color="#E1DCFE"/>
<stop offset="1" stop-color="#7E67FD"/>
</linearGradient>
</defs>
</svg>
