<svg width="1081" height="1100" viewBox="0 0 1081 1100" fill="none" xmlns="http://www.w3.org/2000/svg">
<path d="M1080.05 -53H-0.0458984V1152H1080.05V-53Z" fill="#151515"/>
<path d="M1080.05 -53H-0.0458984V1152H1080.05V-53Z" fill="url(#paint0_linear_180_204)"/>
<path fill-rule="evenodd" clip-rule="evenodd" d="M1080.04 313.656H1035.42C1014.89 313.656 995.197 321.887 980.679 336.539C966.161 351.191 958.005 371.063 958.005 391.783V555.288C958.005 589.923 930.183 618 895.863 618H774.521C771.787 618 769.566 620.24 769.566 623C769.566 625.76 771.787 628 774.521 628H895.863C935.656 628 967.914 595.446 967.914 555.288V391.783C967.914 373.715 975.025 356.386 987.686 343.61C1000.35 330.834 1017.52 323.656 1035.42 323.656H1080.04C1080.04 323.656 1080.04 321.76 1080.04 319C1080.04 316.241 1080.04 313.656 1080.04 313.656Z" fill="url(#paint1_linear_180_204)"/>
<path fill-rule="evenodd" clip-rule="evenodd" d="M760.538 515.45C760.538 649.619 652.6 758.547 519.651 758.547C386.703 758.547 278.765 649.619 278.765 515.45C278.765 381.282 386.703 272.354 519.651 272.354C533.324 272.354 544.424 261.152 544.424 247.354C544.424 233.556 533.324 222.354 519.651 222.354C359.358 222.354 229.22 353.686 229.22 515.45C229.22 677.215 359.358 808.547 519.651 808.547C679.946 808.547 810.084 677.215 810.084 515.45C810.084 501.653 798.983 490.45 785.311 490.45C771.638 490.45 760.538 501.653 760.538 515.45Z" fill="url(#paint2_linear_180_204)"/>
<path fill-rule="evenodd" clip-rule="evenodd" d="M760.538 515.45C760.538 649.619 652.6 758.547 519.651 758.547C386.703 758.547 278.765 649.619 278.765 515.45C278.765 381.282 386.703 272.354 519.651 272.354C533.324 272.354 544.424 261.152 544.424 247.354C544.424 233.556 533.324 222.354 519.651 222.354C359.358 222.354 229.22 353.686 229.22 515.45C229.22 677.215 359.358 808.547 519.651 808.547C679.946 808.547 810.084 677.215 810.084 515.45C810.084 501.653 798.983 490.45 785.311 490.45C771.638 490.45 760.538 501.653 760.538 515.45Z" fill="url(#paint3_linear_180_204)"/>
<path d="M204.757 382H278.439C281.173 382 283.393 384.24 283.393 387C283.393 389.76 281.173 392 278.439 392H204.757C162.703 392 128.614 357.597 128.614 315.159V201.326C128.614 184.796 122.107 168.943 110.525 157.255C98.9424 145.566 83.2346 139 66.8548 139H0V129H66.8548C85.8624 129 104.091 136.62 117.532 150.184C130.973 163.747 138.523 182.144 138.523 201.326V315.159C138.523 352.074 168.176 382 204.757 382Z" fill="#670CF5"/>
<path fill-rule="evenodd" clip-rule="evenodd" d="M294.031 578.266C294.031 578.266 299.27 572.452 303.708 567.526C307.676 563.123 312.889 560.058 318.641 558.748C364.08 548.397 571.104 501.236 618.563 490.425C624.855 488.992 631.443 489.737 637.264 492.54C643.37 495.48 650.341 498.837 650.341 498.837L661.923 638.637L525.637 669.683L529.373 688.593L486.286 698.409L479.816 680.121L362.185 706.918L294.031 578.266V578.266Z" fill="url(#paint4_linear_180_204)"/>
<path fill-rule="evenodd" clip-rule="evenodd" d="M543.92 507.429C544.158 508.053 544.271 508.727 544.244 509.413C543.697 523.53 542.403 556.913 541.816 572.028C541.641 576.553 538.474 580.394 534.097 581.392C513.307 586.128 454.663 599.487 433.872 604.223C429.495 605.22 425.001 603.124 422.916 599.114C415.953 585.719 400.574 556.134 394.069 543.623C393.754 543.015 393.57 542.358 393.519 541.691L543.92 507.429V507.429Z" fill="url(#paint5_linear_180_204)"/>
<path fill-rule="evenodd" clip-rule="evenodd" d="M396.059 542.625C395.343 541.249 395.3 539.615 395.946 538.203C396.591 536.792 397.851 535.764 399.354 535.421C423.793 529.854 512.185 509.718 536.625 504.151C538.127 503.809 539.701 504.191 540.886 505.186C542.07 506.181 542.728 507.674 542.666 509.228C542.12 523.013 540.85 555.084 540.265 569.829C540.087 574.351 536.921 578.188 532.546 579.184C512.149 583.831 455.372 596.764 434.975 601.411C430.601 602.407 426.11 600.315 424.023 596.309C417.219 583.247 402.42 554.837 396.059 542.625V542.625Z" fill="url(#paint6_linear_180_204)"/>
<path fill-rule="evenodd" clip-rule="evenodd" d="M485.795 556.052C485.159 561.303 480.379 565.061 475.134 564.446C469.897 563.833 466.155 559.083 466.791 553.841C467.427 548.59 472.206 544.832 477.452 545.447C480.337 545.785 482.961 543.709 483.307 540.814C483.653 537.918 481.591 535.293 478.705 534.955C467.691 533.663 457.67 541.572 456.334 552.598C454.999 563.633 462.857 573.646 473.881 574.939C484.894 576.23 494.916 568.321 496.25 557.295C496.601 554.401 494.543 551.772 491.657 551.429C488.773 551.085 486.145 553.157 485.795 556.052V556.052Z" fill="url(#paint7_linear_180_204)"/>
<path fill-rule="evenodd" clip-rule="evenodd" d="M259.96 670.922C259.96 670.922 275.999 754.685 282.576 789.035C284.391 798.513 288.486 807.397 294.506 814.912C294.931 815.443 295.367 815.987 295.813 816.545C308.435 832.303 328.061 840.69 348.148 838.91C368.236 837.129 386.141 825.415 395.896 807.673C395.896 807.673 395.896 807.672 395.897 807.672C399.893 800.403 402.454 792.43 403.437 784.192C407.146 753.126 416.499 674.784 416.499 674.784L260.132 670.882" fill="url(#paint8_linear_180_204)"/>
<path fill-rule="evenodd" clip-rule="evenodd" d="M716.219 566.985C716.219 566.985 737.391 649.578 746.073 683.449C748.469 692.795 748.552 702.593 746.315 711.989C746.157 712.652 745.996 713.333 745.829 714.03C741.14 733.732 726.986 749.814 708.09 756.914C689.192 764.014 668.036 761.199 651.676 749.406C651.675 749.406 651.675 749.405 651.674 749.405C644.972 744.573 639.265 738.483 634.87 731.47C618.298 705.025 576.504 638.334 576.504 638.334L716.047 567.024" fill="url(#paint9_linear_180_204)"/>
<path fill-rule="evenodd" clip-rule="evenodd" d="M433.963 643.895C458.382 638.333 482.658 653.715 488.141 678.225C493.623 702.734 478.248 727.149 453.829 732.712C429.409 738.275 405.133 722.893 399.651 698.383C394.169 673.873 409.544 649.458 433.963 643.895Z" fill="url(#paint10_linear_180_204)"/>
<path fill-rule="evenodd" clip-rule="evenodd" d="M551.545 617.11C575.964 611.547 600.24 626.93 605.722 651.439C611.204 675.949 595.83 700.364 571.411 705.927C546.991 711.49 522.715 696.107 517.233 671.598C511.751 647.088 527.126 622.673 551.545 617.11V617.11Z" fill="url(#paint11_linear_180_204)"/>
<path fill-rule="evenodd" clip-rule="evenodd" d="M261.027 621.275C261.027 621.275 269.781 581.041 271.886 571.369C272.184 569.998 272.718 568.69 273.463 567.506C275.759 563.861 281.028 555.494 284.232 550.405C285.918 547.728 288.585 545.834 291.65 545.136C302.262 542.718 327.667 536.931 338.279 534.513C341.344 533.815 344.559 534.37 347.221 536.056C352.28 539.262 360.6 544.534 364.225 546.83C365.402 547.577 366.441 548.526 367.293 549.634C373.311 557.456 398.343 589.995 398.343 589.995L261.027 621.275V621.275Z" fill="url(#paint12_linear_180_204)"/>
<path fill-rule="evenodd" clip-rule="evenodd" d="M284.474 565.719C283.976 566.61 284.135 567.726 284.86 568.441C285.584 569.155 286.694 569.289 287.565 568.766C294.753 564.534 306.353 558.583 318.541 555.807C329.867 553.227 343.521 553.595 352.161 554.233C353.177 554.308 354.119 553.69 354.461 552.722C354.805 551.753 354.465 550.673 353.632 550.081C350.133 547.58 346.052 544.681 343.204 542.659C340.938 541.049 338.102 540.482 335.398 541.098C327.001 543.011 308.256 547.281 298.683 549.462C294.943 550.314 291.736 552.722 289.853 556.092C288.252 558.956 286.245 562.547 284.474 565.719V565.719Z" fill="url(#paint13_linear_180_204)"/>
<path fill-rule="evenodd" clip-rule="evenodd" d="M694.055 522.631C694.055 522.631 669.024 490.092 663.007 482.27C662.154 481.162 661.116 480.213 659.937 479.466C656.314 477.17 647.994 471.898 642.933 468.692C640.273 467.006 637.058 466.451 633.992 467.149C623.38 469.567 597.976 475.354 587.363 477.771C584.298 478.47 581.632 480.364 579.946 483.041C576.742 488.13 571.473 496.497 569.177 500.142C568.431 501.326 567.897 502.634 567.599 504.005C565.495 513.677 556.741 553.911 556.741 553.911L694.055 522.631Z" fill="url(#paint14_linear_180_204)"/>
<path fill-rule="evenodd" clip-rule="evenodd" d="M580.14 498.365C579.642 499.256 579.801 500.373 580.526 501.087C581.25 501.802 582.361 501.935 583.231 501.413C590.419 497.18 602.02 491.23 614.207 488.453C625.533 485.873 639.188 486.241 647.828 486.879C648.843 486.955 649.785 486.336 650.128 485.368C650.471 484.4 650.131 483.319 649.298 482.727C645.799 480.227 641.718 477.328 638.871 475.305C636.604 473.696 633.769 473.129 631.065 473.744C622.667 475.657 603.923 479.928 594.349 482.108C590.61 482.96 587.403 485.369 585.519 488.738C583.919 491.602 581.911 495.194 580.14 498.365V498.365Z" fill="url(#paint15_linear_180_204)"/>
<path fill-rule="evenodd" clip-rule="evenodd" d="M320.995 566.779C365.28 556.691 409.307 584.588 419.249 629.038C429.192 673.488 401.31 717.766 357.023 727.855C312.737 737.943 268.71 710.046 258.769 665.596C248.826 621.146 276.708 576.868 320.995 566.779Z" fill="url(#paint16_linear_180_204)"/>
<path fill-rule="evenodd" clip-rule="evenodd" d="M339.475 633.392C338.059 635.644 335.097 636.318 332.861 634.899C329.214 632.585 324.037 629.299 321.403 627.628C320.329 626.946 319.569 625.863 319.29 624.616C318.303 620.205 315.874 609.344 314.469 603.059C314.189 601.813 314.415 600.505 315.095 599.423C315.775 598.342 316.854 597.576 318.093 597.293C323.285 596.111 331.611 594.214 336.802 593.031C338.042 592.749 339.342 592.973 340.418 593.655C341.492 594.337 342.252 595.42 342.53 596.667C343.936 602.952 346.366 613.812 347.352 618.223C347.631 619.47 347.405 620.778 346.726 621.859C345.06 624.51 341.783 629.721 339.475 633.392V633.392Z" fill="url(#paint17_linear_180_204)"/>
<path fill-rule="evenodd" clip-rule="evenodd" d="M338.523 629.114C337.104 631.366 334.139 632.042 331.9 630.623C328.249 628.31 323.066 625.025 320.43 623.355C319.354 622.673 318.593 621.59 318.315 620.343C317.328 615.932 314.899 605.072 313.493 598.787C313.213 597.54 313.44 596.232 314.121 595.15C314.802 594.069 315.883 593.302 317.124 593.019C322.322 591.835 330.66 589.935 335.859 588.751C337.1 588.469 338.402 588.692 339.478 589.374C340.553 590.055 341.315 591.139 341.593 592.385C342.999 598.67 345.428 609.531 346.415 613.942C346.694 615.189 346.468 616.497 345.786 617.578C344.118 620.229 340.835 625.443 338.523 629.114V629.114Z" fill="url(#paint18_linear_180_204)"/>
<path fill-rule="evenodd" clip-rule="evenodd" d="M321.916 651.671C324.156 653.09 324.821 656.066 323.402 658.319C321.091 661.99 317.808 667.203 316.139 669.854C315.457 670.936 314.377 671.702 313.135 671.985C308.74 672.986 297.919 675.451 291.658 676.878C290.416 677.161 289.114 676.937 288.038 676.255C286.963 675.574 286.202 674.491 285.923 673.244C284.756 668.027 282.884 659.658 281.717 654.441C281.438 653.194 281.664 651.886 282.345 650.804C283.027 649.723 284.107 648.956 285.35 648.673C291.611 647.247 302.431 644.782 306.827 643.781C308.068 643.498 309.37 643.722 310.446 644.403C313.082 646.073 318.266 649.358 321.916 651.671Z" fill="url(#paint19_linear_180_204)"/>
<path fill-rule="evenodd" clip-rule="evenodd" d="M320.926 648.048C323.165 649.468 323.831 652.444 322.412 654.696C320.1 658.368 316.818 663.581 315.149 666.232C314.467 667.313 313.387 668.08 312.144 668.363C307.75 669.364 296.929 671.829 290.668 673.255C289.426 673.538 288.124 673.315 287.048 672.633C285.973 671.952 285.212 670.868 284.933 669.622C283.766 664.405 281.894 656.035 280.727 650.819C280.448 649.572 280.674 648.264 281.355 647.182C282.037 646.1 283.117 645.334 284.359 645.051C290.621 643.624 301.441 641.16 305.836 640.158C307.078 639.875 308.38 640.099 309.456 640.781C312.092 642.451 317.275 645.735 320.926 648.048V648.048Z" fill="url(#paint20_linear_180_204)"/>
<path fill-rule="evenodd" clip-rule="evenodd" d="M340.686 669.189C342.104 666.936 345.069 666.261 347.309 667.68C350.959 669.993 356.143 673.277 358.779 674.947C359.854 675.629 360.615 676.712 360.894 677.959C361.88 682.37 364.31 693.231 365.716 699.516C365.995 700.762 365.769 702.07 365.088 703.152C364.406 704.234 363.326 705 362.083 705.283C356.886 706.467 348.548 708.367 343.35 709.551C342.108 709.834 340.806 709.61 339.73 708.928C338.655 708.247 337.894 707.164 337.615 705.917C336.21 699.632 333.78 688.772 332.793 684.36C332.515 683.114 332.741 681.806 333.421 680.724C335.091 678.073 338.374 672.86 340.686 669.189V669.189Z" fill="url(#paint21_linear_180_204)"/>
<path fill-rule="evenodd" clip-rule="evenodd" d="M339.694 665.475C341.112 663.223 344.078 662.547 346.318 663.966C349.968 666.279 355.152 669.564 357.787 671.234C358.863 671.915 359.624 672.999 359.903 674.245C360.889 678.657 363.319 689.517 364.725 695.802C365.003 697.049 364.777 698.357 364.097 699.438C363.415 700.52 362.335 701.287 361.092 701.57C355.895 702.754 347.556 704.653 342.359 705.837C341.116 706.12 339.814 705.896 338.739 705.215C337.664 704.533 336.903 703.45 336.624 702.203C335.219 695.918 332.789 685.058 331.802 680.647C331.523 679.4 331.749 678.092 332.43 677.01C334.1 674.359 337.383 669.146 339.694 665.475V665.475Z" fill="url(#paint22_linear_180_204)"/>
<path fill-rule="evenodd" clip-rule="evenodd" d="M358.028 650.354C355.789 648.935 355.123 645.959 356.541 643.706C358.853 640.035 362.136 634.822 363.805 632.171C364.486 631.089 365.566 630.323 366.809 630.04C371.204 629.039 382.024 626.574 388.286 625.147C389.528 624.864 390.83 625.088 391.906 625.77C392.981 626.451 393.742 627.534 394.021 628.781C395.187 633.998 397.059 642.367 398.227 647.584C398.505 648.831 398.279 650.139 397.598 651.221C396.918 652.302 395.837 653.069 394.595 653.352C388.333 654.778 377.513 657.243 373.117 658.244C371.875 658.527 370.573 658.303 369.498 657.622C366.862 655.952 361.679 652.667 358.028 650.354V650.354Z" fill="url(#paint23_linear_180_204)"/>
<path fill-rule="evenodd" clip-rule="evenodd" d="M357.137 646.786C354.897 645.367 354.232 642.391 355.65 640.138C357.961 636.467 361.244 631.254 362.914 628.603C363.595 627.521 364.675 626.755 365.917 626.472C370.312 625.471 381.133 623.006 387.394 621.579C388.637 621.296 389.938 621.52 391.014 622.202C392.089 622.883 392.85 623.966 393.13 625.213C394.296 630.43 396.168 638.799 397.335 644.016C397.614 645.263 397.388 646.571 396.707 647.653C396.026 648.734 394.945 649.501 393.704 649.784C387.441 651.21 376.621 653.675 372.226 654.676C370.984 654.959 369.682 654.735 368.607 654.054C365.971 652.384 360.787 649.099 357.137 646.786V646.786Z" fill="url(#paint24_linear_180_204)"/>
<path fill-rule="evenodd" clip-rule="evenodd" d="M616.672 499.423C660.958 489.335 704.985 517.232 714.928 561.682C724.871 606.132 696.988 650.41 652.702 660.499C608.416 670.587 564.389 642.69 554.446 598.24C544.504 553.79 572.387 509.512 616.672 499.423Z" fill="url(#paint25_linear_180_204)"/>
<path fill-rule="evenodd" clip-rule="evenodd" d="M619.03 506.257C644.814 500.383 668.903 509.723 672.79 527.1C676.677 544.478 658.9 563.355 633.115 569.228C607.331 575.102 583.242 565.762 579.356 548.385C575.468 531.007 593.246 512.13 619.03 506.257Z" fill="url(#paint26_linear_180_204)"/>
<path fill-rule="evenodd" clip-rule="evenodd" d="M323.402 575.383C349.186 569.509 373.275 578.849 377.162 596.226C381.049 613.604 363.271 632.481 337.488 638.354C311.703 644.228 287.614 634.888 283.728 617.511C279.84 600.133 297.618 581.256 323.402 575.383Z" fill="url(#paint27_linear_180_204)"/>
<path fill-rule="evenodd" clip-rule="evenodd" d="M667.851 559.967C676.57 557.981 685.238 563.474 687.195 572.225C689.153 580.977 683.664 589.694 674.945 591.68C666.225 593.667 657.557 588.174 655.599 579.423C653.642 570.671 659.132 561.954 667.851 559.967V559.967Z" fill="url(#paint28_linear_180_204)"/>
<path fill-rule="evenodd" clip-rule="evenodd" d="M596.411 576.241C605.131 574.255 613.798 579.748 615.756 588.499C617.713 597.251 612.223 605.968 603.504 607.954C594.785 609.941 586.117 604.448 584.16 595.697C582.202 586.945 587.692 578.228 596.411 576.241V576.241Z" fill="url(#paint29_linear_180_204)"/>
<path fill-rule="evenodd" clip-rule="evenodd" d="M659.495 616.214C661.452 624.965 655.963 633.683 647.244 635.669C638.525 637.656 629.856 632.163 627.899 623.412C625.941 614.66 631.431 605.942 640.151 603.956C648.87 601.97 657.537 607.462 659.495 616.214V616.214Z" fill="url(#paint30_linear_180_204)"/>
<path fill-rule="evenodd" clip-rule="evenodd" d="M643.457 544.51C645.415 553.262 639.925 561.979 631.205 563.966C622.486 565.952 613.819 560.459 611.861 551.708C609.904 542.956 615.393 534.239 624.112 532.253C632.831 530.266 641.5 535.759 643.457 544.51V544.51Z" fill="url(#paint31_linear_180_204)"/>
<path fill-rule="evenodd" clip-rule="evenodd" d="M666.859 555.967C675.578 553.981 684.247 559.474 686.204 568.225C688.162 576.977 682.672 585.694 673.953 587.68C665.233 589.667 656.566 584.174 654.608 575.423C652.651 566.671 658.14 557.954 666.859 555.967V555.967Z" fill="url(#paint32_linear_180_204)"/>
<path fill-rule="evenodd" clip-rule="evenodd" d="M595.42 572.241C604.14 570.255 612.808 575.748 614.766 584.499C616.723 593.251 611.233 601.968 602.514 603.954C593.795 605.941 585.127 600.448 583.17 591.697C581.212 582.945 586.701 574.228 595.42 572.241V572.241Z" fill="url(#paint33_linear_180_204)"/>
<path fill-rule="evenodd" clip-rule="evenodd" d="M658.505 612.214C660.462 620.965 654.973 629.683 646.253 631.669C637.534 633.656 628.866 628.163 626.909 619.412C624.951 610.66 630.441 601.942 639.161 599.956C647.88 597.97 656.547 603.462 658.505 612.214V612.214Z" fill="url(#paint34_linear_180_204)"/>
<path fill-rule="evenodd" clip-rule="evenodd" d="M642.466 540.51C644.424 549.262 638.934 557.979 630.214 559.966C621.495 561.952 612.828 556.459 610.87 547.708C608.912 538.956 614.402 530.239 623.121 528.253C631.84 526.266 640.509 531.759 642.466 540.51V540.51Z" fill="url(#paint35_linear_180_204)"/>
<path fill-rule="evenodd" clip-rule="evenodd" d="M555.549 635.586C572.558 631.711 589.468 642.426 593.287 659.498C597.106 676.57 586.396 693.577 569.388 697.451C552.378 701.326 535.468 690.611 531.65 673.539C527.831 656.467 538.539 639.46 555.549 635.586V635.586Z" fill="url(#paint36_linear_180_204)"/>
<path fill-rule="evenodd" clip-rule="evenodd" d="M437.968 662.37C454.977 658.495 471.887 669.211 475.706 686.283C479.525 703.356 468.815 720.361 451.806 724.236C434.796 728.111 417.888 717.396 414.069 700.323C410.25 683.251 420.958 666.245 437.968 662.37Z" fill="url(#paint37_linear_180_204)"/>
<path fill-rule="evenodd" clip-rule="evenodd" d="M554.559 630.586C571.568 626.711 588.478 637.426 592.297 654.498C596.116 671.57 585.406 688.577 568.397 692.451C551.387 696.326 534.477 685.611 530.659 668.539C526.84 651.467 537.549 634.46 554.559 630.586V630.586Z" fill="url(#paint38_linear_180_204)"/>
<path fill-rule="evenodd" clip-rule="evenodd" d="M555.803 636.006C562.774 634.418 568.935 635.38 569.556 638.153C570.176 640.925 565.02 644.465 558.05 646.053C551.08 647.641 544.918 646.679 544.298 643.906C543.678 641.134 548.833 637.594 555.803 636.006Z" fill="url(#paint39_linear_180_204)"/>
<path fill-rule="evenodd" clip-rule="evenodd" d="M436.977 657.37C453.986 653.495 470.896 664.211 474.715 681.283C478.534 698.356 467.824 715.361 450.815 719.236C433.805 723.111 416.896 712.396 413.077 695.323C409.258 678.251 419.967 661.245 436.977 657.37Z" fill="url(#paint40_linear_180_204)"/>
<path fill-rule="evenodd" clip-rule="evenodd" d="M437.673 663.896C444.488 661.727 450.708 662.167 451.555 664.878C452.402 667.589 447.557 671.55 440.742 673.718C433.928 675.887 427.707 675.447 426.86 672.736C426.013 670.026 430.858 666.064 437.673 663.896V663.896Z" fill="url(#paint41_linear_180_204)"/>
<path fill-rule="evenodd" clip-rule="evenodd" d="M475.959 619.001C475.68 617.755 474.922 616.671 473.852 615.988C472.781 615.306 471.486 615.081 470.251 615.362C467.377 616.017 463.705 616.853 460.831 617.508C459.596 617.789 458.523 618.554 457.846 619.635C457.17 620.715 456.947 622.022 457.225 623.269C457.225 623.269 457.225 623.27 457.225 623.271C457.505 624.517 458.263 625.601 459.333 626.283C460.403 626.965 461.699 627.191 462.934 626.909C465.808 626.255 469.48 625.418 472.354 624.764C473.589 624.482 474.662 623.717 475.339 622.637C476.015 621.557 476.238 620.249 475.96 619.003C475.96 619.002 475.96 619.002 475.959 619.001V619.001Z" fill="url(#paint42_linear_180_204)"/>
<path fill-rule="evenodd" clip-rule="evenodd" d="M522.943 608.298C522.664 607.051 521.906 605.968 520.835 605.285C519.765 604.603 518.47 604.378 517.234 604.659C514.362 605.313 510.688 606.15 507.815 606.805C506.58 607.086 505.506 607.851 504.83 608.931C504.153 610.012 503.93 611.319 504.209 612.565C504.21 612.566 504.21 612.567 504.21 612.567C504.488 613.814 505.246 614.897 506.317 615.58C507.388 616.262 508.683 616.488 509.918 616.206C512.791 615.552 516.464 614.715 519.338 614.06C520.573 613.779 521.647 613.014 522.323 611.934C522.998 610.853 523.222 609.546 522.943 608.3C522.943 608.299 522.943 608.298 522.943 608.298V608.298Z" fill="url(#paint43_linear_180_204)"/>
<path fill-rule="evenodd" clip-rule="evenodd" d="M474.967 617.001C474.689 615.755 473.931 614.671 472.861 613.988C471.79 613.306 470.494 613.081 469.26 613.362C466.386 614.017 462.714 614.853 459.84 615.508C458.604 615.789 457.531 616.554 456.855 617.635C456.179 618.715 455.956 620.022 456.234 621.269C456.234 621.269 456.234 621.27 456.234 621.271C456.514 622.517 457.272 623.601 458.342 624.283C459.412 624.965 460.708 625.191 461.943 624.909C464.816 624.255 468.489 623.418 471.362 622.764C472.598 622.482 473.671 621.717 474.348 620.637C475.024 619.557 475.247 618.249 474.968 617.003C474.968 617.002 474.968 617.002 474.967 617.001V617.001Z" fill="url(#paint44_linear_180_204)"/>
<path fill-rule="evenodd" clip-rule="evenodd" d="M521.953 606.298C521.674 605.051 520.916 603.968 519.845 603.285C518.775 602.603 517.48 602.378 516.244 602.659C513.371 603.313 509.698 604.15 506.824 604.805C505.59 605.086 504.516 605.851 503.84 606.931C503.163 608.012 502.94 609.319 503.219 610.565C503.22 610.566 503.22 610.567 503.22 610.567C503.498 611.814 504.256 612.897 505.327 613.58C506.397 614.262 507.693 614.488 508.928 614.206C511.801 613.552 515.474 612.715 518.348 612.06C519.582 611.779 520.657 611.014 521.332 609.934C522.008 608.853 522.232 607.546 521.953 606.3C521.953 606.299 521.953 606.298 521.953 606.298V606.298Z" fill="url(#paint45_linear_180_204)"/>
<path fill-rule="evenodd" clip-rule="evenodd" d="M760.538 515.45C760.538 626.559 686.52 720.361 585.57 749.322C572.419 753.095 564.777 766.933 568.515 780.205C572.254 793.477 585.966 801.189 599.118 797.416C720.831 762.499 810.083 649.411 810.083 515.45C810.083 501.653 798.983 490.45 785.31 490.45C771.638 490.45 760.538 501.653 760.538 515.45V515.45Z" fill="url(#paint46_linear_180_204)"/>
<path fill-rule="evenodd" clip-rule="evenodd" d="M108.954 403.909V419.081C108.954 419.89 109.437 420.619 110.178 420.928C110.918 421.238 111.77 421.067 112.337 420.495C115.982 416.818 121.745 411.001 125.389 407.323C125.956 406.751 126.126 405.891 125.818 405.144C125.512 404.396 124.789 403.909 123.988 403.909C118.123 403.909 108.954 403.909 108.954 403.909V403.909Z" fill="url(#paint47_linear_180_204)"/>
<path fill-rule="evenodd" clip-rule="evenodd" d="M108.954 404.172V389C108.954 388.191 108.471 387.462 107.73 387.152C106.99 386.843 106.138 387.014 105.571 387.586C101.926 391.263 96.1634 397.08 92.5188 400.757C91.952 401.329 91.7825 402.19 92.0897 402.937C92.3959 403.684 93.1193 404.172 93.9199 404.172C99.7851 404.172 108.954 404.172 108.954 404.172V404.172Z" fill="url(#paint48_linear_180_204)"/>
<path fill-rule="evenodd" clip-rule="evenodd" d="M981.082 740.179C981.082 740.179 971.979 739.066 966.158 738.355C965.362 738.258 964.586 738.654 964.193 739.358C963.799 740.063 963.865 740.938 964.359 741.574C967.539 745.667 972.568 752.141 975.748 756.234C976.242 756.87 977.068 757.144 977.841 756.926C978.613 756.709 979.178 756.043 979.275 755.24C979.98 749.365 981.082 740.179 981.082 740.179Z" fill="url(#paint49_linear_180_204)"/>
<path fill-rule="evenodd" clip-rule="evenodd" d="M980.824 740.147C980.824 740.147 989.927 741.26 995.748 741.971C996.544 742.068 997.32 741.672 997.713 740.968C998.107 740.263 998.041 739.388 997.547 738.752C994.367 734.659 989.338 728.185 986.158 724.092C985.664 723.456 984.838 723.182 984.065 723.4C983.294 723.617 982.728 724.283 982.632 725.086C981.926 730.961 980.824 740.147 980.824 740.147Z" fill="url(#paint50_linear_180_204)"/>
<path d="M1080.05 -53H-0.0458984V1152H1080.05V-53Z" fill="#22062C" fill-opacity="0.2"/>
<path d="M323.549 430.84C315.629 430.84 308.349 429 301.709 425.32C295.069 421.56 289.789 416.4 285.869 409.84C282.029 403.2 280.109 395.72 280.109 387.4C280.109 379.08 282.029 371.64 285.869 365.08C289.789 358.44 295.069 353.28 301.709 349.6C308.349 345.92 315.629 344.08 323.549 344.08C331.549 344.08 338.829 345.92 345.389 349.6C352.029 353.28 357.269 358.44 361.109 365.08C364.949 371.64 366.869 379.08 366.869 387.4C366.869 395.72 364.949 403.2 361.109 409.84C357.269 416.4 352.029 421.56 345.389 425.32C338.749 429 331.469 430.84 323.549 430.84ZM323.549 409C329.549 409 334.269 407.04 337.709 403.12C341.229 399.2 342.989 393.96 342.989 387.4C342.989 380.68 341.229 375.4 337.709 371.56C334.269 367.64 329.549 365.68 323.549 365.68C317.469 365.68 312.709 367.64 309.269 371.56C305.829 375.4 304.109 380.68 304.109 387.4C304.109 394.04 305.829 399.32 309.269 403.24C312.709 407.08 317.469 409 323.549 409ZM423.882 362.08C431.642 362.08 437.802 364.68 442.362 369.88C446.922 375 449.202 381.96 449.202 390.76V430H425.682V393.88C425.682 390.04 424.682 387.04 422.682 384.88C420.682 382.64 418.002 381.52 414.642 381.52C411.122 381.52 408.362 382.64 406.362 384.88C404.362 387.04 403.362 390.04 403.362 393.88V430H379.842V362.68H403.362V372.28C405.442 369.24 408.242 366.8 411.762 364.96C415.282 363.04 419.322 362.08 423.882 362.08ZM528.827 395.56C528.827 397.4 528.707 399.24 528.467 401.08H483.947C484.187 404.76 485.187 407.52 486.947 409.36C488.787 411.12 491.107 412 493.907 412C497.827 412 500.627 410.24 502.307 406.72H527.387C526.347 411.36 524.307 415.52 521.267 419.2C518.307 422.8 514.547 425.64 509.987 427.72C505.427 429.8 500.387 430.84 494.867 430.84C488.227 430.84 482.307 429.44 477.107 426.64C471.987 423.84 467.947 419.84 464.987 414.64C462.107 409.44 460.667 403.32 460.667 396.28C460.667 389.24 462.107 383.16 464.987 378.04C467.867 372.84 471.867 368.84 476.987 366.04C482.187 363.24 488.147 361.84 494.867 361.84C501.507 361.84 507.387 363.2 512.507 365.92C517.627 368.64 521.627 372.56 524.507 377.68C527.387 382.72 528.827 388.68 528.827 395.56ZM504.827 389.68C504.827 386.8 503.867 384.56 501.947 382.96C500.027 381.28 497.627 380.44 494.747 380.44C491.867 380.44 489.507 381.24 487.667 382.84C485.827 384.36 484.627 386.64 484.067 389.68H504.827ZM607.693 373.6C607.693 378.72 606.493 383.4 604.093 387.64C601.773 391.8 598.213 395.16 593.413 397.72C588.693 400.2 582.893 401.44 576.013 401.44H564.373V430H540.853V345.4H576.013C582.813 345.4 588.573 346.6 593.293 349C598.093 351.4 601.693 354.72 604.093 358.96C606.493 363.2 607.693 368.08 607.693 373.6ZM573.733 382.72C580.373 382.72 583.693 379.68 583.693 373.6C583.693 367.44 580.373 364.36 573.733 364.36H564.373V382.72H573.733ZM643.062 341.2V430H619.542V341.2H643.062ZM655.016 396.28C655.016 389.32 656.256 383.24 658.736 378.04C661.296 372.84 664.736 368.84 669.056 366.04C673.456 363.24 678.336 361.84 683.696 361.84C688.336 361.84 692.336 362.76 695.696 364.6C699.056 366.44 701.656 368.92 703.496 372.04V362.68H727.016V430H703.496V420.64C701.656 423.76 699.016 426.24 695.576 428.08C692.216 429.92 688.256 430.84 683.696 430.84C678.336 430.84 673.456 429.44 669.056 426.64C664.736 423.84 661.296 419.84 658.736 414.64C656.256 409.36 655.016 403.24 655.016 396.28ZM703.496 396.28C703.496 391.96 702.296 388.56 699.896 386.08C697.576 383.6 694.696 382.36 691.256 382.36C687.736 382.36 684.816 383.6 682.496 386.08C680.176 388.48 679.016 391.88 679.016 396.28C679.016 400.6 680.176 404.04 682.496 406.6C684.816 409.08 687.736 410.32 691.256 410.32C694.696 410.32 697.576 409.08 699.896 406.6C702.296 404.12 703.496 400.68 703.496 396.28ZM815.298 362.68L772.578 462.04H747.018L763.098 427.12L735.498 362.68H761.658L775.818 400.84L789.498 362.68H815.298Z" fill="white"/>
<path d="M307.145 280.62V285.52H313.725V288.628H307.145V293.808H314.565V297H303.225V277.428H314.565V280.62H307.145ZM327.284 281.264C329.132 281.264 330.625 281.852 331.764 283.028C332.902 284.185 333.472 285.809 333.472 287.9V297H329.552V288.432C329.552 287.2 329.244 286.257 328.628 285.604C328.012 284.932 327.172 284.596 326.108 284.596C325.025 284.596 324.166 284.932 323.532 285.604C322.916 286.257 322.608 287.2 322.608 288.432V297H318.688V281.488H322.608V283.42C323.13 282.748 323.793 282.225 324.596 281.852C325.417 281.46 326.313 281.264 327.284 281.264ZM339.747 279.64C339.038 279.64 338.45 279.425 337.983 278.996C337.535 278.548 337.311 277.997 337.311 277.344C337.311 276.691 337.535 276.149 337.983 275.72C338.45 275.272 339.038 275.048 339.747 275.048C340.438 275.048 341.007 275.272 341.455 275.72C341.903 276.149 342.127 276.691 342.127 277.344C342.127 277.997 341.903 278.548 341.455 278.996C341.007 279.425 340.438 279.64 339.747 279.64ZM341.679 299.548C341.679 301.265 341.25 302.497 340.391 303.244C339.551 304.009 338.338 304.392 336.751 304.392H335.015V301.06H336.135C336.733 301.06 337.153 300.939 337.395 300.696C337.638 300.472 337.759 300.099 337.759 299.576V281.488H341.679V299.548ZM353 297.252C351.507 297.252 350.163 296.925 348.968 296.272C347.774 295.6 346.831 294.657 346.14 293.444C345.468 292.231 345.132 290.831 345.132 289.244C345.132 287.657 345.478 286.257 346.168 285.044C346.878 283.831 347.839 282.897 349.052 282.244C350.266 281.572 351.619 281.236 353.112 281.236C354.606 281.236 355.959 281.572 357.172 282.244C358.386 282.897 359.338 283.831 360.028 285.044C360.738 286.257 361.092 287.657 361.092 289.244C361.092 290.831 360.728 292.231 360 293.444C359.291 294.657 358.32 295.6 357.088 296.272C355.875 296.925 354.512 297.252 353 297.252ZM353 293.836C353.71 293.836 354.372 293.668 354.988 293.332C355.623 292.977 356.127 292.455 356.5 291.764C356.874 291.073 357.06 290.233 357.06 289.244C357.06 287.769 356.668 286.64 355.884 285.856C355.119 285.053 354.176 284.652 353.056 284.652C351.936 284.652 350.994 285.053 350.228 285.856C349.482 286.64 349.108 287.769 349.108 289.244C349.108 290.719 349.472 291.857 350.2 292.66C350.947 293.444 351.88 293.836 353 293.836ZM379.368 281.488L369.764 304.336H365.592L368.952 296.608L362.736 281.488H367.132L371.136 292.324L375.196 281.488H379.368ZM403.917 281.488V297H399.969V295.04C399.465 295.712 398.802 296.244 397.981 296.636C397.178 297.009 396.301 297.196 395.349 297.196C394.136 297.196 393.062 296.944 392.129 296.44C391.196 295.917 390.458 295.161 389.917 294.172C389.394 293.164 389.133 291.969 389.133 290.588V281.488H393.053V290.028C393.053 291.26 393.361 292.212 393.977 292.884C394.593 293.537 395.433 293.864 396.497 293.864C397.58 293.864 398.429 293.537 399.045 292.884C399.661 292.212 399.969 291.26 399.969 290.028V281.488H403.917ZM416.941 281.264C418.789 281.264 420.282 281.852 421.421 283.028C422.559 284.185 423.129 285.809 423.129 287.9V297H419.209V288.432C419.209 287.2 418.901 286.257 418.285 285.604C417.669 284.932 416.829 284.596 415.765 284.596C414.682 284.596 413.823 284.932 413.189 285.604C412.573 286.257 412.265 287.2 412.265 288.432V297H408.345V281.488H412.265V283.42C412.787 282.748 413.45 282.225 414.253 281.852C415.074 281.46 415.97 281.264 416.941 281.264ZM429.404 279.64C428.714 279.64 428.135 279.425 427.668 278.996C427.22 278.548 426.996 277.997 426.996 277.344C426.996 276.691 427.22 276.149 427.668 275.72C428.135 275.272 428.714 275.048 429.404 275.048C430.095 275.048 430.664 275.272 431.112 275.72C431.579 276.149 431.812 276.691 431.812 277.344C431.812 277.997 431.579 278.548 431.112 278.996C430.664 279.425 430.095 279.64 429.404 279.64ZM431.336 281.488V297H427.416V281.488H431.336ZM444.365 281.264C446.213 281.264 447.707 281.852 448.845 283.028C449.984 284.185 450.553 285.809 450.553 287.9V297H446.633V288.432C446.633 287.2 446.325 286.257 445.709 285.604C445.093 284.932 444.253 284.596 443.189 284.596C442.107 284.596 441.248 284.932 440.613 285.604C439.997 286.257 439.689 287.2 439.689 288.432V297H435.769V281.488H439.689V283.42C440.212 282.748 440.875 282.225 441.677 281.852C442.499 281.46 443.395 281.264 444.365 281.264ZM459.405 284.708V292.212C459.405 292.735 459.526 293.117 459.769 293.36C460.03 293.584 460.46 293.696 461.057 293.696H462.877V297H460.413C457.109 297 455.457 295.395 455.457 292.184V284.708H453.609V281.488H455.457V277.652H459.405V281.488H462.877V284.708H459.405ZM480.676 288.908C480.676 289.468 480.639 289.972 480.564 290.42H469.224C469.318 291.54 469.71 292.417 470.4 293.052C471.091 293.687 471.94 294.004 472.948 294.004C474.404 294.004 475.44 293.379 476.056 292.128H480.284C479.836 293.621 478.978 294.853 477.708 295.824C476.439 296.776 474.88 297.252 473.032 297.252C471.539 297.252 470.195 296.925 469 296.272C467.824 295.6 466.9 294.657 466.228 293.444C465.575 292.231 465.248 290.831 465.248 289.244C465.248 287.639 465.575 286.229 466.228 285.016C466.882 283.803 467.796 282.869 468.972 282.216C470.148 281.563 471.502 281.236 473.032 281.236C474.507 281.236 475.823 281.553 476.98 282.188C478.156 282.823 479.062 283.728 479.696 284.904C480.35 286.061 480.676 287.396 480.676 288.908ZM476.616 287.788C476.598 286.78 476.234 285.977 475.524 285.38C474.815 284.764 473.947 284.456 472.92 284.456C471.95 284.456 471.128 284.755 470.456 285.352C469.803 285.931 469.402 286.743 469.252 287.788H476.616ZM488.018 283.896C488.522 283.075 489.175 282.431 489.978 281.964C490.799 281.497 491.732 281.264 492.778 281.264V285.38H491.742C490.51 285.38 489.576 285.669 488.942 286.248C488.326 286.827 488.018 287.835 488.018 289.272V297H484.098V281.488H488.018V283.896ZM499.898 283.896C500.402 283.075 501.055 282.431 501.858 281.964C502.679 281.497 503.613 281.264 504.658 281.264V285.38H503.622C502.39 285.38 501.457 285.669 500.822 286.248C500.206 286.827 499.898 287.835 499.898 289.272V297H495.978V281.488H499.898V283.896ZM522.502 281.488V297H518.554V295.04C518.05 295.712 517.388 296.244 516.566 296.636C515.764 297.009 514.886 297.196 513.934 297.196C512.721 297.196 511.648 296.944 510.714 296.44C509.781 295.917 509.044 295.161 508.502 294.172C507.98 293.164 507.718 291.969 507.718 290.588V281.488H511.638V290.028C511.638 291.26 511.946 292.212 512.562 292.884C513.178 293.537 514.018 293.864 515.082 293.864C516.165 293.864 517.014 293.537 517.63 292.884C518.246 292.212 518.554 291.26 518.554 290.028V281.488H522.502ZM530.85 283.728C531.354 283.019 532.045 282.431 532.922 281.964C533.818 281.479 534.835 281.236 535.974 281.236C537.299 281.236 538.494 281.563 539.558 282.216C540.641 282.869 541.49 283.803 542.106 285.016C542.741 286.211 543.058 287.601 543.058 289.188C543.058 290.775 542.741 292.184 542.106 293.416C541.49 294.629 540.641 295.572 539.558 296.244C538.494 296.916 537.299 297.252 535.974 297.252C534.835 297.252 533.827 297.019 532.95 296.552C532.091 296.085 531.391 295.497 530.85 294.788V304.392H526.93V281.488H530.85V283.728ZM539.054 289.188C539.054 288.255 538.858 287.452 538.466 286.78C538.093 286.089 537.589 285.567 536.954 285.212C536.338 284.857 535.666 284.68 534.938 284.68C534.229 284.68 533.557 284.867 532.922 285.24C532.306 285.595 531.802 286.117 531.41 286.808C531.037 287.499 530.85 288.311 530.85 289.244C530.85 290.177 531.037 290.989 531.41 291.68C531.802 292.371 532.306 292.903 532.922 293.276C533.557 293.631 534.229 293.808 534.938 293.808C535.666 293.808 536.338 293.621 536.954 293.248C537.589 292.875 538.093 292.343 538.466 291.652C538.858 290.961 539.054 290.14 539.054 289.188ZM551.031 284.708V292.212C551.031 292.735 551.152 293.117 551.395 293.36C551.656 293.584 552.085 293.696 552.683 293.696H554.503V297H552.039C548.735 297 547.083 295.395 547.083 292.184V284.708H545.235V281.488H547.083V277.652H551.031V281.488H554.503V284.708H551.031ZM572.302 288.908C572.302 289.468 572.265 289.972 572.19 290.42H560.85C560.943 291.54 561.335 292.417 562.026 293.052C562.717 293.687 563.566 294.004 564.574 294.004C566.03 294.004 567.066 293.379 567.682 292.128H571.91C571.462 293.621 570.603 294.853 569.334 295.824C568.065 296.776 566.506 297.252 564.658 297.252C563.165 297.252 561.821 296.925 560.626 296.272C559.45 295.6 558.526 294.657 557.854 293.444C557.201 292.231 556.874 290.831 556.874 289.244C556.874 287.639 557.201 286.229 557.854 285.016C558.507 283.803 559.422 282.869 560.598 282.216C561.774 281.563 563.127 281.236 564.658 281.236C566.133 281.236 567.449 281.553 568.606 282.188C569.782 282.823 570.687 283.728 571.322 284.904C571.975 286.061 572.302 287.396 572.302 288.908ZM568.242 287.788C568.223 286.78 567.859 285.977 567.15 285.38C566.441 284.764 565.573 284.456 564.546 284.456C563.575 284.456 562.754 284.755 562.082 285.352C561.429 285.931 561.027 286.743 560.878 287.788H568.242ZM574.715 289.188C574.715 287.62 575.023 286.229 575.639 285.016C576.274 283.803 577.133 282.869 578.215 282.216C579.298 281.563 580.502 281.236 581.827 281.236C582.835 281.236 583.797 281.46 584.711 281.908C585.626 282.337 586.354 282.916 586.895 283.644V276.28H590.871V297H586.895V294.704C586.41 295.469 585.729 296.085 584.851 296.552C583.974 297.019 582.957 297.252 581.799 297.252C580.493 297.252 579.298 296.916 578.215 296.244C577.133 295.572 576.274 294.629 575.639 293.416C575.023 292.184 574.715 290.775 574.715 289.188ZM586.923 289.244C586.923 288.292 586.737 287.48 586.363 286.808C585.99 286.117 585.486 285.595 584.851 285.24C584.217 284.867 583.535 284.68 582.807 284.68C582.079 284.68 581.407 284.857 580.791 285.212C580.175 285.567 579.671 286.089 579.279 286.78C578.906 287.452 578.719 288.255 578.719 289.188C578.719 290.121 578.906 290.943 579.279 291.652C579.671 292.343 580.175 292.875 580.791 293.248C581.426 293.621 582.098 293.808 582.807 293.808C583.535 293.808 584.217 293.631 584.851 293.276C585.486 292.903 585.99 292.38 586.363 291.708C586.737 291.017 586.923 290.196 586.923 289.244ZM616.1 283.336C615.652 282.515 615.036 281.889 614.252 281.46C613.468 281.031 612.553 280.816 611.508 280.816C610.35 280.816 609.324 281.077 608.428 281.6C607.532 282.123 606.832 282.869 606.328 283.84C605.824 284.811 605.572 285.931 605.572 287.2C605.572 288.507 605.824 289.645 606.328 290.616C606.85 291.587 607.569 292.333 608.484 292.856C609.398 293.379 610.462 293.64 611.676 293.64C613.169 293.64 614.392 293.248 615.344 292.464C616.296 291.661 616.921 290.551 617.22 289.132H610.5V286.136H621.084V289.552C620.822 290.915 620.262 292.175 619.404 293.332C618.545 294.489 617.434 295.423 616.072 296.132C614.728 296.823 613.216 297.168 611.536 297.168C609.65 297.168 607.942 296.748 606.412 295.908C604.9 295.049 603.705 293.864 602.828 292.352C601.969 290.84 601.54 289.123 601.54 287.2C601.54 285.277 601.969 283.56 602.828 282.048C603.705 280.517 604.9 279.332 606.412 278.492C607.942 277.633 609.641 277.204 611.508 277.204C613.71 277.204 615.624 277.745 617.248 278.828C618.872 279.892 619.992 281.395 620.608 283.336H616.1ZM623.536 289.188C623.536 287.62 623.844 286.229 624.46 285.016C625.095 283.803 625.944 282.869 627.008 282.216C628.091 281.563 629.295 281.236 630.62 281.236C631.777 281.236 632.785 281.469 633.644 281.936C634.521 282.403 635.221 282.991 635.744 283.7V281.488H639.692V297H635.744V294.732C635.24 295.46 634.54 296.067 633.644 296.552C632.767 297.019 631.749 297.252 630.592 297.252C629.285 297.252 628.091 296.916 627.008 296.244C625.944 295.572 625.095 294.629 624.46 293.416C623.844 292.184 623.536 290.775 623.536 289.188ZM635.744 289.244C635.744 288.292 635.557 287.48 635.184 286.808C634.811 286.117 634.307 285.595 633.672 285.24C633.037 284.867 632.356 284.68 631.628 284.68C630.9 284.68 630.228 284.857 629.612 285.212C628.996 285.567 628.492 286.089 628.1 286.78C627.727 287.452 627.54 288.255 627.54 289.188C627.54 290.121 627.727 290.943 628.1 291.652C628.492 292.343 628.996 292.875 629.612 293.248C630.247 293.621 630.919 293.808 631.628 293.808C632.356 293.808 633.037 293.631 633.672 293.276C634.307 292.903 634.811 292.38 635.184 291.708C635.557 291.017 635.744 290.196 635.744 289.244ZM663.345 281.264C665.249 281.264 666.779 281.852 667.937 283.028C669.113 284.185 669.701 285.809 669.701 287.9V297H665.781V288.432C665.781 287.219 665.473 286.295 664.857 285.66C664.241 285.007 663.401 284.68 662.337 284.68C661.273 284.68 660.423 285.007 659.789 285.66C659.173 286.295 658.865 287.219 658.865 288.432V297H654.945V288.432C654.945 287.219 654.637 286.295 654.021 285.66C653.405 285.007 652.565 284.68 651.501 284.68C650.418 284.68 649.559 285.007 648.925 285.66C648.309 286.295 648.001 287.219 648.001 288.432V297H644.081V281.488H648.001V283.364C648.505 282.711 649.149 282.197 649.933 281.824C650.735 281.451 651.613 281.264 652.565 281.264C653.778 281.264 654.861 281.525 655.813 282.048C656.765 282.552 657.502 283.28 658.025 284.232C658.529 283.336 659.257 282.617 660.209 282.076C661.179 281.535 662.225 281.264 663.345 281.264ZM675.968 279.64C675.278 279.64 674.699 279.425 674.232 278.996C673.784 278.548 673.56 277.997 673.56 277.344C673.56 276.691 673.784 276.149 674.232 275.72C674.699 275.272 675.278 275.048 675.968 275.048C676.659 275.048 677.228 275.272 677.676 275.72C678.143 276.149 678.376 276.691 678.376 277.344C678.376 277.997 678.143 278.548 677.676 278.996C677.228 279.425 676.659 279.64 675.968 279.64ZM677.9 281.488V297H673.98V281.488H677.9ZM690.929 281.264C692.777 281.264 694.271 281.852 695.409 283.028C696.548 284.185 697.117 285.809 697.117 287.9V297H693.197V288.432C693.197 287.2 692.889 286.257 692.273 285.604C691.657 284.932 690.817 284.596 689.753 284.596C688.671 284.596 687.812 284.932 687.177 285.604C686.561 286.257 686.253 287.2 686.253 288.432V297H682.333V281.488H686.253V283.42C686.776 282.748 687.439 282.225 688.241 281.852C689.063 281.46 689.959 281.264 690.929 281.264ZM707.481 281.236C708.638 281.236 709.656 281.469 710.533 281.936C711.41 282.384 712.101 282.972 712.605 283.7V281.488H716.553V297.112C716.553 298.549 716.264 299.828 715.685 300.948C715.106 302.087 714.238 302.983 713.081 303.636C711.924 304.308 710.524 304.644 708.881 304.644C706.678 304.644 704.868 304.131 703.449 303.104C702.049 302.077 701.256 300.677 701.069 298.904H704.961C705.166 299.613 705.605 300.173 706.277 300.584C706.968 301.013 707.798 301.228 708.769 301.228C709.908 301.228 710.832 300.883 711.541 300.192C712.25 299.52 712.605 298.493 712.605 297.112V294.704C712.101 295.432 711.401 296.039 710.505 296.524C709.628 297.009 708.62 297.252 707.481 297.252C706.174 297.252 704.98 296.916 703.897 296.244C702.814 295.572 701.956 294.629 701.321 293.416C700.705 292.184 700.397 290.775 700.397 289.188C700.397 287.62 700.705 286.229 701.321 285.016C701.956 283.803 702.805 282.869 703.869 282.216C704.952 281.563 706.156 281.236 707.481 281.236ZM712.605 289.244C712.605 288.292 712.418 287.48 712.045 286.808C711.672 286.117 711.168 285.595 710.533 285.24C709.898 284.867 709.217 284.68 708.489 284.68C707.761 284.68 707.089 284.857 706.473 285.212C705.857 285.567 705.353 286.089 704.961 286.78C704.588 287.452 704.401 288.255 704.401 289.188C704.401 290.121 704.588 290.943 704.961 291.652C705.353 292.343 705.857 292.875 706.473 293.248C707.108 293.621 707.78 293.808 708.489 293.808C709.217 293.808 709.898 293.631 710.533 293.276C711.168 292.903 711.672 292.38 712.045 291.708C712.418 291.017 712.605 290.196 712.605 289.244ZM749.677 281.488L745.141 297H740.913L738.085 286.164L735.257 297H731.001L726.437 281.488H730.413L733.157 293.304L736.125 281.488H740.269L743.181 293.276L745.925 281.488H749.677ZM754.346 279.64C753.656 279.64 753.077 279.425 752.61 278.996C752.162 278.548 751.938 277.997 751.938 277.344C751.938 276.691 752.162 276.149 752.61 275.72C753.077 275.272 753.656 275.048 754.346 275.048C755.037 275.048 755.606 275.272 756.054 275.72C756.521 276.149 756.754 276.691 756.754 277.344C756.754 277.997 756.521 278.548 756.054 278.996C755.606 279.425 755.037 279.64 754.346 279.64ZM756.278 281.488V297H752.358V281.488H756.278ZM765.275 284.708V292.212C765.275 292.735 765.397 293.117 765.639 293.36C765.901 293.584 766.33 293.696 766.927 293.696H768.747V297H766.283C762.979 297 761.327 295.395 761.327 292.184V284.708H759.479V281.488H761.327V277.652H765.275V281.488H768.747V284.708H765.275ZM780.863 281.264C782.039 281.264 783.084 281.525 783.999 282.048C784.914 282.552 785.623 283.308 786.127 284.316C786.65 285.305 786.911 286.5 786.911 287.9V297H782.991V288.432C782.991 287.2 782.683 286.257 782.067 285.604C781.451 284.932 780.611 284.596 779.547 284.596C778.464 284.596 777.606 284.932 776.971 285.604C776.355 286.257 776.047 287.2 776.047 288.432V297H772.127V276.28H776.047V283.42C776.551 282.748 777.223 282.225 778.063 281.852C778.903 281.46 779.836 281.264 780.863 281.264Z" fill="white"/>
<defs>
<linearGradient id="paint0_linear_180_204" x1="-0.0458984" y1="-53" x2="1090.9" y2="1142.09" gradientUnits="userSpaceOnUse">
<stop stop-color="#670CF5" stop-opacity="0.1"/>
<stop offset="1" stop-color="#400092" stop-opacity="0.1"/>
</linearGradient>
<linearGradient id="paint1_linear_180_204" x1="962.959" y1="178.656" x2="1080.04" y2="178.656" gradientUnits="userSpaceOnUse">
<stop stop-color="#670CF5"/>
<stop offset="1" stop-color="#400092"/>
</linearGradient>
<linearGradient id="paint2_linear_180_204" x1="731.302" y1="761.117" x2="400.265" y2="316.899" gradientUnits="userSpaceOnUse">
<stop stop-color="#1C1429"/>
<stop offset="1" stop-color="#1C1429" stop-opacity="0"/>
</linearGradient>
<linearGradient id="paint3_linear_180_204" x1="830" y1="732" x2="572.483" y2="290.049" gradientUnits="userSpaceOnUse">
<stop stop-color="#0575E6"/>
<stop offset="0.629011" stop-color="#FF0CF5"/>
<stop offset="1" stop-color="#1D1028"/>
</linearGradient>
<linearGradient id="paint4_linear_180_204" x1="526.904" y1="691.07" x2="473.278" y2="418.028" gradientUnits="userSpaceOnUse">
<stop stop-color="#260043"/>
<stop offset="1" stop-color="#4F36FE"/>
</linearGradient>
<linearGradient id="paint5_linear_180_204" x1="488.821" y1="484" x2="494.38" y2="617.996" gradientUnits="userSpaceOnUse">
<stop stop-color="#0C011C"/>
<stop offset="1" stop-color="#400092"/>
</linearGradient>
<linearGradient id="paint6_linear_180_204" x1="482.368" y1="636" x2="453.13" y2="511.381" gradientUnits="userSpaceOnUse">
<stop stop-color="#2B004C"/>
<stop offset="1" stop-color="#4F36FE"/>
</linearGradient>
<linearGradient id="paint7_linear_180_204" x1="467.381" y1="543.116" x2="488.918" y2="562.608" gradientUnits="userSpaceOnUse">
<stop stop-color="#FF0CF5"/>
<stop offset="1" stop-color="#0575E6"/>
</linearGradient>
<linearGradient id="paint8_linear_180_204" x1="258.269" y1="770.465" x2="429.342" y2="732.2" gradientUnits="userSpaceOnUse">
<stop stop-color="#3B0169"/>
<stop offset="1" stop-color="#5F47FE"/>
</linearGradient>
<linearGradient id="paint9_linear_180_204" x1="640.292" y1="735.169" x2="739.059" y2="654.135" gradientUnits="userSpaceOnUse">
<stop stop-color="#3B0169"/>
<stop offset="1" stop-color="#5F47FE"/>
</linearGradient>
<linearGradient id="paint10_linear_180_204" x1="513.895" y1="736.593" x2="410.701" y2="649.603" gradientUnits="userSpaceOnUse">
<stop stop-color="#3B0169"/>
<stop offset="1" stop-color="#5F47FE"/>
</linearGradient>
<linearGradient id="paint11_linear_180_204" x1="541.412" y1="721.507" x2="558.863" y2="616.128" gradientUnits="userSpaceOnUse">
<stop stop-color="#3B0169"/>
<stop offset="1" stop-color="#5F47FE"/>
</linearGradient>
<linearGradient id="paint12_linear_180_204" x1="306.82" y1="492.879" x2="339.576" y2="647.197" gradientUnits="userSpaceOnUse">
<stop stop-color="#3B0169"/>
<stop offset="1" stop-color="#5F47FE"/>
</linearGradient>
<linearGradient id="paint13_linear_180_204" x1="280.653" y1="562.462" x2="355.653" y2="545.685" gradientUnits="userSpaceOnUse">
<stop stop-color="#FF006E"/>
<stop offset="1" stop-color="#FF64A0"/>
</linearGradient>
<linearGradient id="paint14_linear_180_204" x1="593.062" y1="423.564" x2="635.402" y2="579.767" gradientUnits="userSpaceOnUse">
<stop stop-color="#3B0169"/>
<stop offset="1" stop-color="#5F47FE"/>
</linearGradient>
<linearGradient id="paint15_linear_180_204" x1="576.32" y1="495.108" x2="651.32" y2="478.332" gradientUnits="userSpaceOnUse">
<stop stop-color="#FF006E"/>
<stop offset="1" stop-color="#FF64A0"/>
</linearGradient>
<linearGradient id="paint16_linear_180_204" x1="272.944" y1="724.163" x2="358.273" y2="567.348" gradientUnits="userSpaceOnUse">
<stop stop-color="#3B0169"/>
<stop offset="1" stop-color="#5F47FE"/>
</linearGradient>
<linearGradient id="paint17_linear_180_204" x1="286.403" y1="619.99" x2="390.942" y2="684.408" gradientUnits="userSpaceOnUse">
<stop stop-color="#0C011C"/>
<stop offset="1" stop-color="#400092"/>
</linearGradient>
<linearGradient id="paint18_linear_180_204" x1="285.387" y1="615.727" x2="389.869" y2="680.403" gradientUnits="userSpaceOnUse">
<stop stop-color="#E1DCFE"/>
<stop offset="1" stop-color="#7E67FD"/>
</linearGradient>
<linearGradient id="paint19_linear_180_204" x1="286.376" y1="619.349" x2="390.858" y2="684.025" gradientUnits="userSpaceOnUse">
<stop stop-color="#0C011C"/>
<stop offset="1" stop-color="#400092"/>
</linearGradient>
<linearGradient id="paint20_linear_180_204" x1="285.386" y1="615.727" x2="389.868" y2="680.403" gradientUnits="userSpaceOnUse">
<stop stop-color="#E1DCFE"/>
<stop offset="1" stop-color="#7E67FD"/>
</linearGradient>
<linearGradient id="paint21_linear_180_204" x1="286.377" y1="619.44" x2="390.859" y2="684.116" gradientUnits="userSpaceOnUse">
<stop stop-color="#0C011C"/>
<stop offset="1" stop-color="#400092"/>
</linearGradient>
<linearGradient id="paint22_linear_180_204" x1="285.386" y1="615.727" x2="389.868" y2="680.403" gradientUnits="userSpaceOnUse">
<stop stop-color="#E1DCFE"/>
<stop offset="1" stop-color="#7E67FD"/>
</linearGradient>
<linearGradient id="paint23_linear_180_204" x1="286.278" y1="619.295" x2="390.76" y2="683.971" gradientUnits="userSpaceOnUse">
<stop stop-color="#0C011C"/>
<stop offset="1" stop-color="#400092"/>
</linearGradient>
<linearGradient id="paint24_linear_180_204" x1="285.386" y1="615.727" x2="389.868" y2="680.403" gradientUnits="userSpaceOnUse">
<stop stop-color="#E1DCFE"/>
<stop offset="1" stop-color="#7E67FD"/>
</linearGradient>
<linearGradient id="paint25_linear_180_204" x1="608.715" y1="689.734" x2="644.13" y2="478.705" gradientUnits="userSpaceOnUse">
<stop stop-color="#3B0169"/>
<stop offset="1" stop-color="#5F47FE"/>
</linearGradient>
<linearGradient id="paint26_linear_180_204" x1="606.724" y1="582.753" x2="597.969" y2="496.981" gradientUnits="userSpaceOnUse">
<stop stop-color="#E1DCFE" stop-opacity="0.01"/>
<stop offset="1" stop-color="white" stop-opacity="0.1"/>
</linearGradient>
<linearGradient id="paint27_linear_180_204" x1="311.096" y1="651.879" x2="302.341" y2="566.107" gradientUnits="userSpaceOnUse">
<stop stop-color="#E1DCFE" stop-opacity="0.01"/>
<stop offset="1" stop-color="white" stop-opacity="0.1"/>
</linearGradient>
<linearGradient id="paint28_linear_180_204" x1="602.094" y1="560.992" x2="696.365" y2="619.453" gradientUnits="userSpaceOnUse">
<stop stop-color="#0C011C"/>
<stop offset="1" stop-color="#400092"/>
</linearGradient>
<linearGradient id="paint29_linear_180_204" x1="602.093" y1="560.992" x2="696.364" y2="619.453" gradientUnits="userSpaceOnUse">
<stop stop-color="#0C011C"/>
<stop offset="1" stop-color="#400092"/>
</linearGradient>
<linearGradient id="paint30_linear_180_204" x1="602.094" y1="560.992" x2="696.365" y2="619.453" gradientUnits="userSpaceOnUse">
<stop stop-color="#0C011C"/>
<stop offset="1" stop-color="#400092"/>
</linearGradient>
<linearGradient id="paint31_linear_180_204" x1="602.094" y1="560.992" x2="696.365" y2="619.453" gradientUnits="userSpaceOnUse">
<stop stop-color="#0C011C"/>
<stop offset="1" stop-color="#400092"/>
</linearGradient>
<linearGradient id="paint32_linear_180_204" x1="601.103" y1="556.992" x2="695.374" y2="615.453" gradientUnits="userSpaceOnUse">
<stop stop-color="#E1DCFE"/>
<stop offset="1" stop-color="#7E67FD"/>
</linearGradient>
<linearGradient id="paint33_linear_180_204" x1="601.103" y1="556.992" x2="695.374" y2="615.453" gradientUnits="userSpaceOnUse">
<stop stop-color="#E1DCFE"/>
<stop offset="1" stop-color="#7E67FD"/>
</linearGradient>
<linearGradient id="paint34_linear_180_204" x1="601.104" y1="556.992" x2="695.375" y2="615.453" gradientUnits="userSpaceOnUse">
<stop stop-color="#E1DCFE"/>
<stop offset="1" stop-color="#7E67FD"/>
</linearGradient>
<linearGradient id="paint35_linear_180_204" x1="601.103" y1="556.992" x2="695.374" y2="615.453" gradientUnits="userSpaceOnUse">
<stop stop-color="#E1DCFE"/>
<stop offset="1" stop-color="#7E67FD"/>
</linearGradient>
<linearGradient id="paint36_linear_180_204" x1="539.856" y1="644.427" x2="594.082" y2="669.154" gradientUnits="userSpaceOnUse">
<stop stop-color="#0C011C"/>
<stop offset="1" stop-color="#400092"/>
</linearGradient>
<linearGradient id="paint37_linear_180_204" x1="422.088" y1="671.407" x2="475.682" y2="700.819" gradientUnits="userSpaceOnUse">
<stop stop-color="#0C011C"/>
<stop offset="1" stop-color="#400092"/>
</linearGradient>
<linearGradient id="paint38_linear_180_204" x1="538.866" y1="639.427" x2="593.092" y2="664.154" gradientUnits="userSpaceOnUse">
<stop stop-color="#E1DCFE"/>
<stop offset="1" stop-color="#7E67FD"/>
</linearGradient>
<linearGradient id="paint39_linear_180_204" x1="549.095" y1="638.39" x2="553.016" y2="650.909" gradientUnits="userSpaceOnUse">
<stop stop-color="#E1DCFE"/>
<stop offset="1" stop-color="#DFD9FF"/>
</linearGradient>
<linearGradient id="paint40_linear_180_204" x1="421.097" y1="666.407" x2="474.691" y2="695.819" gradientUnits="userSpaceOnUse">
<stop stop-color="#E1DCFE"/>
<stop offset="1" stop-color="#7E67FD"/>
</linearGradient>
<linearGradient id="paint41_linear_180_204" x1="431.185" y1="666.835" x2="436.14" y2="678.975" gradientUnits="userSpaceOnUse">
<stop stop-color="#E1DCFE"/>
<stop offset="1" stop-color="#DFD9FF"/>
</linearGradient>
<linearGradient id="paint42_linear_180_204" x1="457.225" y1="623.27" x2="475.976" y2="619.076" gradientUnits="userSpaceOnUse">
<stop stop-color="#0C011C"/>
<stop offset="1" stop-color="#400092"/>
</linearGradient>
<linearGradient id="paint43_linear_180_204" x1="504.21" y1="612.566" x2="522.96" y2="608.372" gradientUnits="userSpaceOnUse">
<stop stop-color="#0C011C"/>
<stop offset="1" stop-color="#400092"/>
</linearGradient>
<linearGradient id="paint44_linear_180_204" x1="456.234" y1="621.27" x2="474.984" y2="617.076" gradientUnits="userSpaceOnUse">
<stop stop-color="#3AA0FE"/>
<stop offset="1" stop-color="#59FEF4"/>
</linearGradient>
<linearGradient id="paint45_linear_180_204" x1="503.22" y1="610.566" x2="521.97" y2="606.372" gradientUnits="userSpaceOnUse">
<stop stop-color="#3AA0FE"/>
<stop offset="1" stop-color="#59FEF4"/>
</linearGradient>
<linearGradient id="paint46_linear_180_204" x1="592.344" y1="773.369" x2="787.561" y2="517.165" gradientUnits="userSpaceOnUse">
<stop stop-color="#FF0CF5"/>
<stop offset="1" stop-color="#0575E6"/>
</linearGradient>
<linearGradient id="paint47_linear_180_204" x1="108.954" y1="413.909" x2="128.772" y2="413.909" gradientUnits="userSpaceOnUse">
<stop stop-color="#A83AFE"/>
<stop offset="1" stop-color="#6E59FE"/>
</linearGradient>
<linearGradient id="paint48_linear_180_204" x1="108.954" y1="394.172" x2="89.1358" y2="394.172" gradientUnits="userSpaceOnUse">
<stop stop-color="#E1DCFE"/>
<stop offset="1" stop-color="#7E67FD"/>
</linearGradient>
<linearGradient id="paint49_linear_180_204" x1="971.245" y1="738.977" x2="968.819" y2="758.827" gradientUnits="userSpaceOnUse">
<stop stop-color="#A83AFE"/>
<stop offset="1" stop-color="#6E59FE"/>
</linearGradient>
<linearGradient id="paint50_linear_180_204" x1="990.661" y1="741.349" x2="993.087" y2="721.499" gradientUnits="userSpaceOnUse">
<stop stop-color="#E1DCFE"/>
<stop offset="1" stop-color="#7E67FD"/>
</linearGradient>
</defs>
</svg>
