<svg width="58" height="58" viewBox="0 0 58 58" fill="none" xmlns="http://www.w3.org/2000/svg">
<g clip-path="url(#clip0_176_1033)">
<path d="M29 58C45.0163 58 58 45.0163 58 29C58 12.9837 45.0163 0 29 0C12.9837 0 0 12.9837 0 29C0 45.0163 12.9837 58 29 58Z" fill="url(#paint0_linear_176_1033)"/>
<path fill-rule="evenodd" clip-rule="evenodd" d="M7.36377 48.3017C7.76249 48.05 8.19099 47.837 8.64506 47.6683C15.89 44.9773 29.3369 39.9827 29.3369 39.9827C29.3369 39.9827 42.7841 44.9773 50.0291 47.6683C50.3182 47.7757 50.5969 47.9012 50.8644 48.0432C45.5459 54.1431 37.7198 58 29 58C20.4034 58 12.6755 54.2514 7.36377 48.3017Z" fill="#1E30FF"/>
<path fill-rule="evenodd" clip-rule="evenodd" d="M23.8885 34.2246C23.8885 34.2246 23.7398 40.4406 23.6836 42.7939C23.6704 43.3516 23.9273 43.8811 24.3734 44.2156C25.0277 44.7065 26.0362 45.4627 26.9735 46.1658C28.3741 47.2162 30.3 47.2162 31.7006 46.1658C32.6379 45.4627 33.6461 44.7065 34.3007 44.2156C34.7468 43.8811 35.0037 43.3516 34.9905 42.7939C34.9343 40.4406 34.7856 34.2246 34.7856 34.2246H23.8885Z" fill="#FDAB5B"/>
<path fill-rule="evenodd" clip-rule="evenodd" d="M31.8877 34.2246C33.012 34.4434 34.0108 34.8024 34.8107 35.262L34.939 40.6397C33.5689 41.4689 31.5662 41.9922 29.3371 41.9922C27.1079 41.9922 25.1053 41.4689 23.7351 40.6397L23.8637 35.262C24.6633 34.8024 25.6623 34.4432 26.7866 34.2246H31.8877Z" fill="#FD9E52"/>
<path fill-rule="evenodd" clip-rule="evenodd" d="M15.7154 22.9537C15.7154 22.9537 13.828 14.0708 18.0834 9.45334C19.7381 7.62777 22.3527 7.02241 24.6412 7.93475C24.6491 7.91579 24.6491 7.91579 24.6491 7.91579C24.6491 7.91579 24.8514 7.9385 25.0957 7.76053C28.8666 5.01292 44.4143 2.85832 42.4681 23.1835" fill="#433F43"/>
<path fill-rule="evenodd" clip-rule="evenodd" d="M18.6644 22.2142C18.6644 22.2142 15.1484 20.7164 15.2964 25.0915C15.2964 25.0915 14.9802 30.4035 18.7246 29.4078" fill="#FDAB55"/>
<path fill-rule="evenodd" clip-rule="evenodd" d="M39.5678 22.2142C39.5678 22.2142 43.0835 20.7164 42.9355 25.0915C42.9355 25.0915 43.2517 30.4035 39.5073 29.4078" fill="#FDAB55"/>
<path fill-rule="evenodd" clip-rule="evenodd" d="M20.1461 17.0039C18.7588 18.0945 17.949 19.7615 17.949 21.5262V27.1094C17.949 31.644 20.0875 35.9128 23.7194 38.6278C24.3124 39.071 24.8721 39.4894 25.3509 39.8473C26.3453 40.5907 27.5534 40.9923 28.795 40.9923C29.0078 40.9923 29.2244 40.9923 29.4369 40.9923C30.6785 40.9923 31.8868 40.5907 32.8812 39.8473C33.36 39.4894 33.9195 39.071 34.5127 38.6278C38.1444 35.9128 40.2832 31.644 40.2832 27.1094C40.2832 25.5683 40.2832 23.9963 40.2832 22.6365C40.2832 20.279 38.8446 18.1602 36.6534 17.2902C33.5541 16.0596 29.2484 14.3503 26.9811 13.45C26.0288 13.0721 24.9476 13.2291 24.1422 13.8622C23.0426 14.7267 21.4437 15.9837 20.1461 17.0039Z" fill="url(#paint1_linear_176_1033)"/>
<path d="M23.1203 27.2999C23.9757 27.2999 24.6691 26.3784 24.6691 25.2417C24.6691 24.105 23.9757 23.1835 23.1203 23.1835C22.265 23.1835 21.5715 24.105 21.5715 25.2417C21.5715 26.3784 22.265 27.2999 23.1203 27.2999Z" fill="#433F43"/>
<path d="M34.4035 27.2999C35.2589 27.2999 35.9523 26.3784 35.9523 25.2417C35.9523 24.105 35.2589 23.1835 34.4035 23.1835C33.5482 23.1835 32.8547 24.105 32.8547 25.2417C32.8547 26.3784 33.5482 27.2999 34.4035 27.2999Z" fill="#433F43"/>
<path fill-rule="evenodd" clip-rule="evenodd" d="M28.0038 26.0279C28.0038 26.0279 27.2213 27.9527 27.0649 29.5048C27.0098 30.0517 27.0345 30.5587 27.1576 30.9544C27.2731 31.326 27.4727 31.6177 27.7466 31.8186C28.021 32.0195 28.3787 32.141 28.8491 32.1104C29.3258 32.0793 29.9746 31.8707 30.8213 31.3716C31.1631 31.1703 31.2771 30.729 31.0755 30.3871C30.874 30.0453 30.4329 29.9313 30.0909 30.1329C29.5911 30.4275 29.1971 30.6 28.8828 30.6586C28.7573 30.682 28.6623 30.7067 28.5968 30.6586C28.5341 30.6128 28.5255 30.5248 28.5068 30.4324C28.4611 30.2061 28.4669 29.9362 28.4958 29.649C28.6343 28.2744 29.3349 26.5722 29.3349 26.5722C29.4851 26.2048 29.3089 25.7846 28.9415 25.6345C28.5743 25.4843 28.1539 25.6605 28.0038 26.0279Z" fill="#FF9241"/>
<path fill-rule="evenodd" clip-rule="evenodd" d="M24.5522 35.0591C24.5522 35.0591 26.6234 37.4365 29.5495 37.1976C30.7858 37.0968 32.1886 36.5409 33.6425 35.0993C33.9244 34.8196 33.9261 34.364 33.6467 34.0824C33.3673 33.8006 32.9117 33.7986 32.6299 34.078C31.4873 35.2111 30.404 35.685 29.4326 35.7644C27.2067 35.9461 25.6396 34.1181 25.6396 34.1181C25.3801 33.818 24.9256 33.7851 24.6254 34.0449C24.3253 34.3045 24.2924 34.759 24.5522 35.0591Z" fill="#FF515E"/>
</g>
<defs>
<linearGradient id="paint0_linear_176_1033" x1="20.7085" y1="1.20466" x2="45.4436" y2="52.9217" gradientUnits="userSpaceOnUse">
<stop stop-color="#A83AFE"/>
<stop offset="1" stop-color="#6E59FE"/>
</linearGradient>
<linearGradient id="paint1_linear_176_1033" x1="29.021" y1="23.7183" x2="29.021" y2="39.6566" gradientUnits="userSpaceOnUse">
<stop stop-color="#FED2A4"/>
<stop offset="1" stop-color="#FFBD86"/>
</linearGradient>
<clipPath id="clip0_176_1033">
<rect width="58" height="58" fill="white"/>
</clipPath>
</defs>
</svg>
