<svg width="58" height="58" viewBox="0 0 58 58" fill="none" xmlns="http://www.w3.org/2000/svg">
<g clip-path="url(#clip0_177_40)">
<path d="M29 58C45.0163 58 58 45.0163 58 29C58 12.9837 45.0163 0 29 0C12.9837 0 0 12.9837 0 29C0 45.0163 12.9837 58 29 58Z" fill="url(#paint0_linear_177_40)"/>
<path fill-rule="evenodd" clip-rule="evenodd" d="M29.6866 47.455H28.5136C23.7541 46.0941 17.8775 46.9822 15.5461 47.7697C15.0472 47.942 14.497 47.8756 14.0533 47.59C13.6096 47.3042 13.3216 46.8309 13.2719 46.3056C12.4143 36.6216 14.6112 16.6831 16.583 13.1325C20.2738 6.48696 25.8979 6.01348 27.4991 6.02076C27.923 6.03619 28.3233 6.20512 28.6422 6.46844C34.4678 5.07247 44.3496 6.79879 42.7743 23.2472" fill="#433F43"/>
<path fill-rule="evenodd" clip-rule="evenodd" d="M7.36377 48.3017C7.76249 48.05 8.19099 47.837 8.64506 47.6683C15.89 44.9773 29.3369 39.9827 29.3369 39.9827C29.3369 39.9827 42.7841 44.9773 50.0291 47.6683C50.3182 47.7757 50.5969 47.9012 50.8644 48.0432C45.5459 54.1431 37.7198 58 29 58C20.4034 58 12.6755 54.2514 7.36377 48.3017Z" fill="#1E30FF"/>
<path fill-rule="evenodd" clip-rule="evenodd" d="M29.365 57.9978C29.243 57.9993 29.1217 58 29 58C20.4034 58 12.6755 54.2514 7.36377 48.3017C7.76249 48.05 8.19099 47.837 8.64506 47.6683C15.89 44.9773 29.3369 39.9827 29.3369 39.9827L29.365 57.9978Z" fill="#F80FF5"/>
<path fill-rule="evenodd" clip-rule="evenodd" d="M23.8885 34.2246C23.8885 34.2246 23.7398 40.4406 23.6836 42.7939C23.6704 43.3516 23.9273 43.8811 24.3734 44.2156C25.0277 44.7065 26.0362 45.4627 26.9735 46.1658C28.3741 47.2162 30.3 47.2162 31.7006 46.1658C32.6379 45.4627 33.6461 44.7065 34.3007 44.2156C34.7468 43.8811 35.0037 43.3516 34.9905 42.7939C34.9343 40.4406 34.7856 34.2246 34.7856 34.2246H23.8885Z" fill="#FDAB5B"/>
<path fill-rule="evenodd" clip-rule="evenodd" d="M31.5505 34.2246C32.8413 34.4758 33.9669 34.9118 34.8153 35.4731L34.9337 40.4242C33.566 41.3776 31.416 41.9922 28.9999 41.9922C26.9449 41.9922 25.0823 41.5476 23.7305 40.8283L23.8679 35.0781C24.6036 34.7061 25.4797 34.4132 26.4492 34.2246H31.5505Z" fill="#FD9E52"/>
<path fill-rule="evenodd" clip-rule="evenodd" d="M39.5678 22.2142C39.5678 22.2142 43.0835 20.7164 42.9355 25.0915C42.9355 25.0915 43.2517 30.4035 39.5073 29.4078" fill="#FDAB55"/>
<path fill-rule="evenodd" clip-rule="evenodd" d="M21.1824 17.1563C19.2042 18.1198 17.949 20.1275 17.949 22.3278C17.949 23.7553 17.949 25.4501 17.949 27.1094C17.949 31.644 20.0875 35.9128 23.7194 38.6278C24.3124 39.071 24.8721 39.4894 25.3509 39.8473C26.3453 40.5907 27.5534 40.9923 28.795 40.9923C29.0078 40.9923 29.2244 40.9923 29.4369 40.9923C30.6785 40.9923 31.8868 40.5907 32.8812 39.8473C33.36 39.4894 33.9195 39.071 34.5127 38.6278C38.1444 35.9128 40.2832 31.644 40.2832 27.1094C40.2832 25.3442 40.2832 23.5385 40.2832 22.0579C40.2832 19.9996 39.1836 18.0984 37.3999 17.0721C35.8813 16.1981 34.0364 15.1365 32.574 14.2949C30.9924 13.3848 29.0623 13.3182 27.4217 14.1172C25.5906 15.0092 23.1346 16.2054 21.1824 17.1563Z" fill="url(#paint1_linear_177_40)"/>
<path d="M23.1201 27.2999C23.9755 27.2999 24.6689 26.3784 24.6689 25.2417C24.6689 24.105 23.9755 23.1835 23.1201 23.1835C22.2647 23.1835 21.5713 24.105 21.5713 25.2417C21.5713 26.3784 22.2647 27.2999 23.1201 27.2999Z" fill="#433F43"/>
<path d="M34.4035 27.2999C35.2589 27.2999 35.9523 26.3784 35.9523 25.2417C35.9523 24.105 35.2589 23.1835 34.4035 23.1835C33.5482 23.1835 32.8547 24.105 32.8547 25.2417C32.8547 26.3784 33.5482 27.2999 34.4035 27.2999Z" fill="#433F43"/>
<path fill-rule="evenodd" clip-rule="evenodd" d="M28.0035 26.0279C28.0035 26.0279 27.2211 27.9527 27.0647 29.5048C27.0096 30.0517 27.0343 30.5587 27.1573 30.9544C27.2729 31.326 27.4725 31.6177 27.7464 31.8186C28.0207 32.0195 28.3784 32.141 28.8488 32.1104C29.3256 32.0793 29.9744 31.8707 30.821 31.3716C31.1629 31.1703 31.2769 30.729 31.0753 30.3871C30.8737 30.0453 30.4327 29.9313 30.0906 30.1329C29.5909 30.4275 29.1968 30.6 28.8826 30.6586C28.7571 30.682 28.662 30.7067 28.5965 30.6586C28.5339 30.6128 28.5253 30.5248 28.5065 30.4324C28.4609 30.2061 28.4666 29.9362 28.4955 29.649C28.634 28.2744 29.3346 26.5722 29.3346 26.5722C29.4848 26.2048 29.3086 25.7846 28.9412 25.6345C28.574 25.4843 28.1537 25.6605 28.0035 26.0279Z" fill="#FF9241"/>
<path fill-rule="evenodd" clip-rule="evenodd" d="M24.552 35.0591C24.552 35.0591 26.6232 37.4365 29.5492 37.1976C30.7855 37.0968 32.1883 36.5409 33.6423 35.0993C33.9241 34.8196 33.9259 34.364 33.6465 34.0824C33.3671 33.8006 32.9115 33.7986 32.6296 34.078C31.487 35.2111 30.4038 35.685 29.4323 35.7644C27.2065 35.9461 25.6394 34.1181 25.6394 34.1181C25.3798 33.818 24.9253 33.7851 24.6252 34.0449C24.325 34.3045 24.2922 34.759 24.552 35.0591Z" fill="#FF515E"/>
</g>
<defs>
<linearGradient id="paint0_linear_177_40" x1="20.7085" y1="1.20466" x2="45.4436" y2="52.9217" gradientUnits="userSpaceOnUse">
<stop stop-color="#A83AFE"/>
<stop offset="1" stop-color="#6E59FE"/>
</linearGradient>
<linearGradient id="paint1_linear_177_40" x1="29.021" y1="23.7183" x2="29.021" y2="39.6566" gradientUnits="userSpaceOnUse">
<stop stop-color="#FED2A4"/>
<stop offset="1" stop-color="#FFBD86"/>
</linearGradient>
<clipPath id="clip0_177_40">
<rect width="58" height="58" fill="white"/>
</clipPath>
</defs>
</svg>
