<svg width="20" height="21" viewBox="0 0 20 21" fill="none" xmlns="http://www.w3.org/2000/svg">
<path d="M10 0.404297C4.47778 0.404297 0 4.88207 0 10.4043C0 15.9265 4.47778 20.4043 10 20.4043C15.5222 20.4043 20 15.9265 20 10.4043C20 4.88207 15.5222 0.404297 10 0.404297ZM15.4097 8.31402L9.15972 14.564C8.96944 14.7543 8.72083 14.8487 8.47222 14.8487C8.22361 14.8487 7.975 14.7543 7.78472 14.564L4.03472 10.814C3.65556 10.4349 3.65556 9.81819 4.03472 9.43902C4.41389 9.05985 5.03056 9.05985 5.40972 9.43902L8.47222 12.5015L14.0347 6.93902C14.4139 6.55985 15.0306 6.55985 15.4097 6.93902C15.7889 7.31819 15.7889 7.93485 15.4097 8.31402Z" fill="url(#paint0_linear_142_156)"/>
<defs>
<linearGradient id="paint0_linear_142_156" x1="20" y1="0.404297" x2="0" y2="0.404297" gradientUnits="userSpaceOnUse">
<stop stop-color="#3AA0FE"/>
<stop offset="1" stop-color="#59FEF4"/>
</linearGradient>
</defs>
</svg>
