<svg width="20" height="21" viewBox="0 0 20 21" fill="none" xmlns="http://www.w3.org/2000/svg">
<g clip-path="url(#clip0_142_120)">
<path d="M19.7046 0.699705C19.3257 0.320801 18.7095 0.320801 18.3306 0.699705L15.6658 3.36452C15.1536 2.90095 14.3972 2.56785 13.7726 2.56785H6.2265C5.42844 2.56785 4.41248 3.11053 3.97112 3.77535L0.356965 9.19797C-0.085783 9.8614 -0.085783 10.9481 0.356965 11.613L3.18139 15.8503L0.295896 18.7344C-0.0830071 19.1133 -0.0830071 19.7295 0.295896 20.1084C0.486042 20.2986 0.734481 20.393 0.982919 20.393C1.23136 20.393 1.4798 20.2986 1.66994 20.1084L19.7046 2.07375C20.0835 1.69485 20.0835 1.07861 19.7046 0.699705ZM11.2341 7.79616C10.8594 7.61851 10.4416 7.51719 9.99888 7.51719C8.40415 7.51719 7.11061 8.81074 7.11061 10.4055C7.11061 10.8482 7.21193 11.266 7.38958 11.6407L5.68243 13.3479C5.10922 12.5096 4.77334 11.4978 4.77334 10.4069C4.77334 7.52136 7.112 5.1827 9.99749 5.1827C11.0884 5.1827 12.1016 5.51858 12.9385 6.09179L11.2341 7.79616ZM18.1543 6.9648C18.0086 6.74551 17.6991 6.71497 17.5131 6.90095L15.1064 9.30762C15.1814 9.66154 15.223 10.0279 15.223 10.4041C15.223 13.2896 12.8844 15.6282 9.99888 15.6282C9.62275 15.6282 9.25634 15.588 8.90242 15.5116L6.88438 17.5297C6.49298 17.9211 6.62622 18.2403 7.17862 18.2403H13.7713C14.5693 18.2403 15.5839 17.6976 16.0266 17.0328L19.6408 11.6116C20.0835 10.9481 20.0835 9.8614 19.6408 9.19658L18.1543 6.9648Z" fill="#DCDCDC"/>
</g>
<defs>
<clipPath id="clip0_142_120">
<rect width="20" height="20.0056" fill="white" transform="translate(0 0.401367)"/>
</clipPath>
</defs>
</svg>
