<svg xmlns="http://www.w3.org/2000/svg" width="670" height="400" fill="none"><g clip-path="url(#a)"><path fill="url(#b)" d="M527.827 54.852H97.922v270.591h429.905V54.853Z"/><path fill="#DADAEF" d="M518.713 63.968H107.039v233.733h411.674V63.968Z"/><path fill="#3D5586" d="M573.14 393.419H52.617l45.31-67.977H527.83l45.309 67.977Z"/><path fill="#06063D" d="M573.14 393.419H52.617v6.561H573.14v-6.561ZM518.713 366.069H107.039l20.144-35.005h373.574l17.956 35.005Z"/><path fill="#12295B" d="m109.984 366.069 18.675-32.45h370.536l16.648 32.45H109.984Z"/><path fill="#12295B" d="m109.984 366.069 18.675-32.45h370.536l16.648 32.45H109.984Z"/><path fill="#12295B" d="m109.984 366.069 18.675-32.45h370.536l16.648 32.45H109.984Z"/><path fill="#1C1C70" d="M408.983 390.473H218.391l6.805-22.852h176.982l6.805 22.852Z"/><path fill="#173475" d="m220.945 390.473 6.156-20.663h173.173l6.155 20.663H220.945Z"/><path fill="#284372" d="m470.339 340.66-3.314-7.041h-24.572l2.73 7.041h25.156Z"/><path fill="#181860" d="M446.574 338.622h20.553l-1.396-2.968h-20.306l1.149 2.968Zm26.973 4.073h-29.76l-4.31-11.114h28.837l5.233 11.114Z"/><path fill="#284372" d="m417.211 340.66-2.56-7.041h-28.885l2.205 7.041h29.24Z"/><path fill="#181860" d="M389.466 338.622h24.835l-1.078-2.968h-24.688l.931 2.968Zm30.65 4.073h-33.642l-3.482-11.114h33.083l4.041 11.114Z"/><path fill="#284372" d="m445.185 340.66-2.73-7.041h-27.799l2.56 7.041h27.969Z"/><path fill="#181860" d="M418.636 338.622h23.569l-1.149-2.968h-23.499l1.079 2.968Zm29.518 4.073h-32.37l-4.042-11.114h32.101l4.311 11.114Z"/><path fill="#284372" d="m400.008 340.66 4.211 13.45h29.922l-4.893-13.45h-29.24Z"/><path fill="#181860" d="M405.717 352.075h25.514l-3.409-9.38H402.78l2.937 9.38Zm31.329 4.072h-34.323l-5.489-17.524h33.441l6.371 17.524Z"/><path fill="#284372" d="m502.808 340.66-3.613-7.041h-32.172l3.315 7.041h32.47Z"/><path fill="#181860" d="M471.631 338.622h27.841l-1.521-2.968h-27.719l1.399 2.968Zm34.511 4.073h-37.096l-5.234-11.114h36.625l5.705 11.114Z"/><path fill="#284372" d="m334.533 340.66-.991-7.041h-25.23v7.041h26.221Z"/><path fill="#181860" d="M310.346 338.622h21.841l-.417-2.968h-21.424v2.968Zm26.527 4.073h-30.6v-11.114h29.039l1.561 11.114Z"/><path fill="#284372" d="M308.314 340.66v-7.041h-25.233l-.987 7.041h26.22Z"/><path fill="#181860" d="M284.436 338.622h21.841v-2.968h-21.424l-.417 2.968Zm25.913 4.073H279.75l1.561-11.114h29.038v11.114Z"/><path fill="#284372" d="m360.458 340.66-1.774-7.041h-25.145l.991 7.041h25.928Z"/><path fill="#181860" d="M336.306 338.622h21.543l-.746-2.968h-21.217l.42 2.968Zm26.768 4.073h-30.31l-1.561-11.114h29.073l2.798 11.114Z"/><path fill="#284372" d="m387.973 340.66-2.205-7.041h-27.08l1.773 7.041h27.512Z"/><path fill="#181860" d="M362.049 338.622h23.153l-.931-2.968h-22.968l.746 2.968Zm28.695 4.073h-31.87l-2.796-11.114h31.187l3.479 11.114Z"/><path fill="#284372" d="M272.204 340.66h-64.046l-4.892 13.45h65.555l3.383-13.45Z"/><path fill="#181860" d="M206.182 352.075h61.057l2.362-9.38h-60.007l-3.412 9.38Zm64.233 4.072h-70.048l6.374-17.524h68.084l-4.41 17.524Z"/><path fill="#284372" d="M243.915 338.733h-64.049l-4.889 13.452h65.552l3.386-13.452Z"/><path fill="#181860" d="M177.878 350.148h61.059l2.359-9.377h-60.007l-3.411 9.377Zm64.232 4.075h-70.048l6.375-17.525h68.084l-4.411 17.525Z"/><path fill="#284372" d="M208.162 340.66h-53.124l-6.335 13.45h54.567l4.892-13.45Z"/><path fill="#181860" d="M151.912 352.075h49.932l3.411-9.38h-48.927l-4.416 9.38Zm52.784 4.072h-59.204l8.25-17.524h57.328l-6.374 17.524Z"/><path fill="#284372" d="M184.082 340.66h-29.044l-6.335 13.45h29.351l6.028-13.45Z"/><path fill="#181860" d="M151.912 352.075h24.821l4.203-9.38h-24.608l-4.416 9.38Zm27.46 4.072h-33.88l8.253-17.524h33.48l-7.853 17.524Z"/><path fill="#284372" d="M291.269 340.66H239.12l-3.386 13.45h55.535v-13.45Z"/><path fill="#181860" d="M238.342 352.075h50.883v-9.38H240.7l-2.358 9.38Zm54.955 4.072h-60.18l4.41-17.524h55.77v17.524Z"/><path fill="#284372" d="m282.092 340.66.988-7.041h-25.145l-1.771 7.041h25.928Z"/><path fill="#181860" d="M258.772 338.622h21.546l.417-2.968h-21.214l-.749 2.968Zm25.085 4.073h-30.31l2.798-11.114h29.076l-1.564 11.114Z"/><path fill="#284372" d="m372.859 340.66 3.386 13.45h28.341l-4.215-13.45h-27.512Z"/><path fill="#181860" d="M377.833 352.075h23.981l-2.937-9.38h-23.402l2.358 9.38Zm29.527 4.072h-32.703l-4.407-17.524h31.621l5.489 17.524Z"/><path fill="#284372" d="m470.336 340.66 6.334 13.45h33.035l-6.899-13.45h-32.47Z"/><path fill="#181860" d="M477.961 352.075h28.411l-4.81-9.38h-28.017l4.416 9.38Zm35.077 4.072h-37.66l-8.253-17.524h36.923l8.99 17.524Z"/><path fill="#284372" d="m199.406 340.66 2.563-7.041h-27.801l-2.73 7.041h27.968Z"/><path fill="#181860" d="M174.417 338.622h23.57l1.078-2.968h-23.496l-1.152 2.968Zm26.422 4.073h-32.37l4.311-11.114h32.1l-4.041 11.114Z"/><path fill="#284372" d="m171.437 340.66 2.731-7.041h-24.572l-3.315 7.041h25.156Z"/><path fill="#181860" d="M149.498 338.622h20.553l1.149-2.968h-20.303l-1.399 2.968Zm23.342 4.073h-29.762l5.233-11.114h28.837l-4.308 11.114Z"/><path fill="#284372" d="M149.601 333.619h-20.942l-4.05 7.041h21.677l3.315-7.041Z"/><path fill="#181860" d="M128.127 338.622h16.866l1.397-2.968h-16.554l-1.709 2.968Zm19.449 4.073h-26.49l6.394-11.114h25.329l-5.233 11.114Z"/><path fill="#284372" d="m228.649 340.66 2.205-7.041h-28.885l-2.563 7.041h29.243Z"/><path fill="#181860" d="M202.315 338.622h24.836l.93-2.968h-24.687l-1.079 2.968Zm27.83 4.073H196.5l4.041-11.114h33.083l-3.479 11.114Z"/><path fill="#284372" d="M155.038 340.66h-30.429l-7.742 13.45h31.837l6.334-13.45Z"/><path fill="#181860" d="M120.388 352.075h27.023l4.416-9.38h-26.044l-5.395 9.38Zm29.606 4.072h-36.65l10.086-17.524h34.817l-8.253 17.524Z"/><path fill="#284372" d="m139.951 352.288-5.631 11.959h27.268l4.637-11.959h-26.274Z"/><path fill="#181860" d="M137.529 362.209h22.664l3.06-7.887h-22.012l-3.712 7.887Zm25.454 4.075h-31.874l7.549-16.034h30.54l-6.215 16.034Z"/><path fill="#284372" d="m166.223 352.288-4.637 11.959h28.582l4.35-11.959h-28.295Z"/><path fill="#181860" d="M164.566 362.209h24.182l2.867-7.887h-23.99l-3.059 7.887Zm27.035 4.075h-32.984l6.218-16.034h32.595l-5.829 16.034Z"/><path fill="#284372" d="m118.101 352.288-6.882 11.959h24.336l5.63-11.959h-23.084Z"/><path fill="#181860" d="M114.736 362.209h19.523l3.715-7.887h-18.697l-4.541 7.887Zm22.109 4.075h-29.15l9.227-16.034h27.472l-7.549 16.034Z"/><path fill="#284372" d="M252.781 352.288h-58.258l-4.351 11.959h59.601l3.008-11.959Z"/><path fill="#181860" d="M193.081 362.209h55.103l1.986-7.887h-54.223l-2.866 7.887Zm58.278 4.075h-64.093l5.829-16.034h62.3l-4.036 16.034Z"/><path fill="#284372" d="m256.163 340.66 1.771-7.041h-35.566l-2.407 7.041h36.202Z"/><path fill="#181860" d="M222.813 338.622h31.763l.749-2.968h-31.499l-1.013 2.968Zm34.939 4.073h-40.635l3.797-11.114h39.636l-2.798 11.114Z"/><path fill="#284372" d="M480.187 340.66h-52.398l4.893 13.45h53.837l-6.332-13.45Z"/><path fill="#181860" d="M434.106 352.075h49.203l-4.416-9.38h-48.195l3.408 9.38Zm55.623 4.072h-58.475l-6.371-17.524h56.595l8.251 17.524Z"/><path fill="#284372" d="M455.417 340.66h-27.628l2.58 13.45h28.388l-3.34-13.45Z"/><path fill="#181860" d="M432.054 352.075h24.103l-2.33-9.38h-23.572l1.799 9.38Zm29.311 4.072h-32.677l-3.36-17.524h31.687l4.35 17.524Z"/><path fill="#284372" d="M322.534 340.66h-52.148L267 354.11h55.534v-13.45Z"/><path fill="#181860" d="M269.615 352.075h50.883v-9.38h-48.524l-2.359 9.38Zm54.956 4.072h-60.18l4.41-17.524h55.77v17.524Z"/><path fill="#284372" d="M373.953 340.66h-52.148v13.45h55.531l-3.383-13.45Z"/><path fill="#181860" d="M323.838 352.075h50.886l-2.361-9.38h-48.525v9.38Zm56.111 4.072h-60.183v-17.524h55.772l4.411 17.524Z"/><path fill="#284372" d="M375.683 340.66h-25.449v13.45h27.101l-1.652-13.45Z"/><path fill="#181860" d="M352.268 352.075h22.764l-1.153-9.38h-21.611v9.38Zm27.367 4.072h-31.44v-17.524h29.289l2.151 17.524Z"/><path fill="#284372" d="M323.638 340.66h-28.857v13.45h30.73l-1.873-13.45Z"/><path fill="#181860" d="M296.823 352.075h26.356l-1.305-9.38h-25.051v9.38Zm31.036 4.072H292.75v-17.524h32.668l2.441 17.524Z"/><path fill="#284372" d="m280.204 352.288-1.681 11.959h29.791v-11.959h-28.11Z"/><path fill="#181860" d="M280.865 362.209h25.412v-7.887h-24.302l-1.11 7.887Zm29.484 4.075H276.18l2.253-16.034h31.916v16.034Z"/><path fill="#284372" d="m336.422 352.288 1.68 11.959h28.752l-3.011-11.959h-27.421Z"/><path fill="#181860" d="M339.87 362.209h24.371l-1.984-7.887h-23.493l1.106 7.887Zm29.595 4.075h-33.134l-2.253-16.034h31.355l4.032 16.034Z"/><path fill="#284372" d="M308.312 352.288v11.959h29.791l-1.68-11.959h-28.111Z"/><path fill="#181860" d="M310.346 362.209h25.412l-1.107-7.887h-24.305v7.887Zm30.097 4.075h-34.17V350.25h31.917l2.253 16.034Z"/><path fill="#284372" d="m252.782 352.288-3.009 11.959h28.752l1.68-11.959h-27.423Z"/><path fill="#181860" d="M252.381 362.209h24.37l1.107-7.887h-23.49l-1.987 7.887Zm27.912 4.075h-33.137l4.036-16.034h31.351l-2.25 16.034Z"/><path fill="#284372" d="m363.844 352.288 3.011 11.959h29.075l-3.746-11.959h-28.34Z"/><path fill="#181860" d="M368.443 362.209h24.716l-2.469-7.887h-24.231l1.984 7.887Zm30.262 4.075h-33.438l-4.033-16.034h32.447l5.024 16.034Z"/><path fill="#284372" d="M481.485 364.201h33.537l-6.136-11.962h-33.034l5.633 11.962Z"/><path fill="#181860" d="M482.775 362.163h28.914l-4.047-7.886H479.06l3.715 7.886Zm35.58 4.073h-38.162l-7.552-16.032h37.49l8.224 16.032Z"/><path fill="#284372" d="m449.984 352.239 4.638 11.962h27.27l-5.633-11.962h-26.275Z"/><path fill="#181860" d="M456.021 362.163h22.667l-3.715-7.886h-22.009l3.057 7.886Zm29.086 4.073h-31.873l-6.218-16.032h30.54l7.551 16.032Z"/><path fill="#284372" d="M450.401 352.288h-58.213l3.746 11.959h59.104l-4.637-11.959Z"/><path fill="#181860" d="M397.426 362.209h54.634l-3.056-7.887h-54.047l2.469 7.887Zm60.583 4.075h-63.575l-5.02-16.034h62.377l6.218 16.034Z"/><path fill="#CECEEF" d="M113.637 70.05h405.076v-6.082H107.039v233.733h6.598V70.051Z"/><path fill="#fff" d="M474.607 271.926H151.138c-11.764 0-21.302-9.538-21.302-21.302V21.299c0-11.764 9.538-21.301 21.302-21.301h323.469c11.763 0 21.302 9.537 21.302 21.301v229.325c0 11.764-9.539 21.302-21.302 21.302Z"/><path fill="#B2B2ED" d="M263.203 205.321v-8.784c0-.746.17-1.308.505-1.68.338-.375.781-.562 1.329-.562.573 0 1.027.187 1.362.562.337.372.505.934.505 1.68v8.982c0 1.022.113 1.873.343 2.56a2.96 2.96 0 0 0 1.215 1.595c.579.378 1.393.565 2.441.565 1.444 0 2.466-.383 3.065-1.152.596-.767.897-1.933.897-3.494v-9.056c0-.755.164-1.317.496-1.689.332-.369.778-.553 1.334-.553s1.008.184 1.351.553c.346.372.516.934.516 1.689v8.784c0 1.427-.139 2.619-.417 3.573-.278.956-.803 1.793-1.575 2.517a6.08 6.08 0 0 1-2.316 1.345c-.879.281-1.91.423-3.09.423-1.402 0-2.611-.15-3.624-.454-1.014-.304-1.839-.772-2.481-1.408-.638-.635-1.107-1.45-1.407-2.44-.298-.994-.449-2.18-.449-3.556Z"/><path fill="#B2B2ED" d="M265.04 194.556c-.477 0-.846.156-1.133.474-.289.324-.437.832-.437 1.507v8.784c0 1.345.148 2.517.437 3.479.284.945.735 1.732 1.34 2.333.607.599 1.405 1.053 2.37 1.343.984.292 2.179.442 3.55.442 1.147 0 2.16-.139 3.008-.411a5.868 5.868 0 0 0 2.22-1.289c.735-.684 1.24-1.492 1.504-2.398.269-.925.406-2.103.406-3.499v-8.784c0-.684-.151-1.192-.446-1.51-.295-.315-.675-.471-1.161-.471-.482 0-.854.154-1.138.469-.286.318-.431.828-.431 1.512v9.056c0 1.615-.321 2.844-.951 3.656-.65.831-1.748 1.254-3.272 1.254-1.093 0-1.964-.207-2.586-.61a3.23 3.23 0 0 1-1.319-1.731c-.236-.71-.355-1.598-.355-2.642v-8.983c0-.675-.147-1.183-.437-1.507-.287-.318-.67-.474-1.169-.474Zm6.127 18.885c-1.422 0-2.668-.157-3.701-.466-1.05-.312-1.918-.809-2.588-1.473-.667-.661-1.164-1.521-1.473-2.551-.304-1.011-.46-2.234-.46-3.63v-8.784c0-.809.193-1.436.574-1.856.386-.428.896-.647 1.521-.647.647 0 1.172.219 1.558.647.38.42.57 1.047.57 1.856v8.983c0 .987.111 1.822.329 2.477.213.633.574 1.11 1.11 1.456.537.349 1.308.525 2.299.525 1.354 0 2.316-.355 2.858-1.05.559-.718.84-1.839.84-3.335v-9.056c0-.817.193-1.444.567-1.861.381-.426.894-.642 1.527-.642.63 0 1.15.213 1.544.639.389.417.588 1.044.588 1.864v8.784c0 1.445-.145 2.673-.429 3.647-.289.996-.846 1.884-1.649 2.633a6.4 6.4 0 0 1-2.415 1.405c-.902.29-1.969.435-3.17.435ZM288.755 197.386h-2.492v5.579h2.492c.871 0 1.601-.09 2.185-.275.585-.182 1.033-.48 1.34-.897.306-.414.46-.959.46-1.632 0-.803-.236-1.461-.71-1.966-.531-.54-1.623-.809-3.275-.809Zm.897 8.369h-3.389v5.171c0 .738-.176 1.3-.522 1.68a1.71 1.71 0 0 1-1.322.573c-.557 0-1.005-.187-1.346-.567-.34-.378-.511-.931-.511-1.663v-14.074c0-.815.188-1.396.562-1.745.372-.349.968-.523 1.78-.523h4.748c1.402 0 2.483.108 3.238.324a4.854 4.854 0 0 1 1.938 1.033 4.672 4.672 0 0 1 1.238 1.771c.284.695.423 1.481.423 2.353 0 1.861-.571 3.269-1.717 4.228-1.147.96-2.853 1.439-5.12 1.439Z"/><path fill="#B2B2ED" d="M286.52 202.704h2.231c.842 0 1.549-.088 2.108-.264.528-.164.934-.434 1.206-.803.27-.366.409-.863.409-1.476 0-.743-.21-1.328-.639-1.788-.474-.479-1.512-.726-3.084-.726h-2.231v5.057Zm2.231.522h-2.753v-6.104h2.753c1.742 0 2.874.292 3.462.888.522.559.786 1.283.786 2.151 0 .727-.173 1.328-.514 1.788-.34.46-.834.795-1.47.994-.607.187-1.371.283-2.264.283Zm-3.852-8.358c-.74 0-1.28.154-1.6.454-.318.296-.477.818-.477 1.553v14.074c0 .661.147 1.163.443 1.49.289.32.667.479 1.149.479.46 0 .829-.159 1.127-.488.303-.329.457-.837.457-1.504v-5.432h3.649c2.194 0 3.86-.463 4.953-1.379 1.075-.903 1.623-2.257 1.623-4.028 0-.834-.136-1.592-.403-2.256a4.464 4.464 0 0 0-1.172-1.671 4.586 4.586 0 0 0-1.833-.977c-.73-.21-1.797-.315-3.168-.315h-4.748Zm-.485 18.572c-.63 0-1.149-.218-1.538-.652-.383-.426-.579-1.045-.579-1.839v-14.074c0-.886.216-1.538.644-1.936.423-.394 1.081-.593 1.958-.593h4.748c1.422 0 2.535.111 3.309.332a5.16 5.16 0 0 1 2.041 1.09 4.996 4.996 0 0 1 1.308 1.867c.293.727.443 1.55.443 2.452 0 1.933-.61 3.423-1.813 4.431-1.19.996-2.969 1.498-5.288 1.498h-3.127v4.91c0 .803-.199 1.427-.59 1.856a1.976 1.976 0 0 1-1.516.658ZM303.3 197.533v12.397h2.803c.613 0 1.096-.017 1.445-.051a4.564 4.564 0 0 0 1.084-.25c.375-.133.698-.318.971-.559 1.237-1.047 1.856-2.849 1.856-5.406 0-1.803-.273-3.154-.815-4.05-.545-.897-1.214-1.468-2.012-1.712-.797-.247-1.759-.369-2.889-.369H303.3Zm-1.431-2.926h4.819c1.255 0 2.33.117 3.227.349a5.902 5.902 0 0 1 2.441 1.309c1.901 1.626 2.852 4.101 2.852 7.424 0 1.096-.094 2.095-.287 3a8.884 8.884 0 0 1-.882 2.449 7.694 7.694 0 0 1-1.533 1.95 6.365 6.365 0 0 1-1.606 1.058 7.189 7.189 0 0 1-1.876.559c-.667.108-1.422.162-2.259.162h-4.822c-.673 0-1.181-.099-1.521-.303a1.414 1.414 0 0 1-.664-.86c-.105-.369-.156-.849-.156-1.439v-13.39c0-.797.178-1.376.533-1.731.358-.358.937-.537 1.734-.537Z"/><path fill="#B2B2ED" d="M303.562 209.666h2.54c.604 0 1.084-.017 1.419-.048.326-.032.67-.111 1.021-.236.341-.119.639-.292.886-.511 1.175-.99 1.768-2.744 1.768-5.208 0-1.745-.261-3.062-.778-3.913-.508-.835-1.135-1.374-1.864-1.598-.769-.236-1.717-.355-2.813-.355h-2.179v11.869Zm2.54.525h-3.065v-12.919h2.704c1.15 0 2.149.128 2.966.378.857.264 1.584.879 2.16 1.827.565.937.854 2.345.854 4.186 0 2.626-.656 4.513-1.95 5.605a3.2 3.2 0 0 1-1.053.608c-.391.139-.777.23-1.146.264-.358.034-.84.051-1.47.051Zm-4.235-15.323c-.723 0-1.243.157-1.546.46-.307.304-.46.823-.46 1.547v13.39c0 .564.048 1.024.148 1.368.085.306.263.536.547.706.298.176.764.267 1.385.267h4.822c.82 0 1.567-.054 2.219-.159a6.94 6.94 0 0 0 1.805-.539 6.01 6.01 0 0 0 1.541-1.016 7.338 7.338 0 0 0 1.479-1.882 8.61 8.61 0 0 0 .857-2.375c.187-.883.281-1.873.281-2.946 0-3.227-.928-5.659-2.761-7.226a5.692 5.692 0 0 0-2.336-1.254c-.871-.224-1.936-.341-3.162-.341h-4.819Zm4.896 18.263h-4.822c-.729 0-1.268-.114-1.654-.343a1.682 1.682 0 0 1-.784-1.014c-.11-.391-.167-.899-.167-1.509v-13.39c0-.866.207-1.513.613-1.919.406-.405 1.053-.61 1.918-.61h4.819c1.272 0 2.379.119 3.292.355a6.232 6.232 0 0 1 2.549 1.365c1.953 1.672 2.943 4.234 2.943 7.623 0 1.107-.099 2.137-.292 3.054a9.18 9.18 0 0 1-.911 2.52 7.997 7.997 0 0 1-1.584 2.018 6.68 6.68 0 0 1-1.677 1.104 7.63 7.63 0 0 1-1.941.579c-.679.11-1.453.167-2.302.167ZM321.847 205.729h5.455l-2.753-7.535-2.702 7.535Zm7.325 5.072-.871-2.293h-7.424l-.875 2.341c-.34.914-.63 1.533-.871 1.85-.241.321-.635.48-1.183.48-.466 0-.877-.17-1.232-.511-.358-.34-.536-.726-.536-1.158 0-.249.039-.505.125-.772.082-.266.218-.635.411-1.109l4.669-11.858.482-1.228c.185-.477.386-.874.596-1.19.213-.315.491-.57.834-.766.347-.193.772-.292 1.278-.292.516 0 .945.099 1.288.292.346.196.624.449.837.755.21.307.389.636.534.991.144.352.332.823.556 1.413l4.771 11.783c.371.897.559 1.55.559 1.956 0 .423-.176.811-.528 1.166a1.75 1.75 0 0 1-1.277.528c-.292 0-.542-.051-.749-.156a1.507 1.507 0 0 1-.523-.423c-.141-.179-.292-.451-.454-.823a54.9 54.9 0 0 1-.417-.976Z"/><path fill="#B2B2ED" d="M322.225 205.469h4.708l-2.375-6.505-2.333 6.505Zm5.458.525h-6.201l3.073-8.568 3.128 8.568Zm1.739 4.711c.114.281.253.601.412.967.153.35.295.605.42.767a1.3 1.3 0 0 0 .437.352c.167.085.38.127.63.127.428 0 .786-.147 1.09-.454.306-.303.454-.624.454-.979 0-.369-.182-.993-.542-1.853l-4.771-11.786a59.83 59.83 0 0 0-.553-1.414 5.223 5.223 0 0 0-.508-.942 2.249 2.249 0 0 0-.75-.673c-.303-.173-.695-.261-1.16-.261-.457 0-.843.088-1.147.261a2.147 2.147 0 0 0-.746.684 5.888 5.888 0 0 0-.574 1.138l-.479 1.226-4.672 11.861c-.187.468-.323.834-.403 1.089a2.319 2.319 0 0 0-.113.696c0 .36.147.678.454.967.309.296.653.44 1.053.44.465 0 .783-.122.973-.374.224-.298.505-.9.837-1.785l.934-2.512h7.788l.936 2.458Zm1.899 2.736a1.92 1.92 0 0 1-.866-.182 1.804 1.804 0 0 1-.61-.497c-.159-.196-.318-.485-.491-.88a62.204 62.204 0 0 1-.42-.981l-.809-2.132h-7.061l-.808 2.174c-.355.945-.65 1.572-.909 1.916-.292.386-.76.582-1.393.582-.534 0-1.008-.196-1.413-.582-.409-.389-.619-.843-.619-1.348 0-.276.048-.562.139-.852.082-.269.224-.65.417-1.126l5.151-13.084c.19-.493.4-.911.624-1.24.233-.349.542-.636.923-.848.383-.216.854-.327 1.405-.327.559 0 1.036.111 1.419.327.377.212.686.493.919.831.222.321.412.67.565 1.039.148.363.335.843.556 1.422l4.768 11.777c.392.937.579 1.61.579 2.055 0 .494-.202.948-.605 1.351a1.996 1.996 0 0 1-1.461.605ZM345.453 197.658h-4.035v13.268c0 .763-.171 1.331-.511 1.7-.341.369-.78.553-1.32.553-.547 0-.993-.187-1.339-.559-.344-.374-.517-.939-.517-1.694v-13.268h-4.035c-.63 0-1.102-.139-1.408-.417-.307-.278-.46-.644-.46-1.101 0-.474.159-.849.48-1.121.318-.275.78-.412 1.388-.412h11.757c.642 0 1.116.142 1.428.423.312.284.468.653.468 1.11 0 .457-.159.823-.474 1.101-.315.278-.789.417-1.422.417Z"/><path fill="#B2B2ED" d="M333.694 194.868c-.539 0-.948.117-1.218.349-.261.225-.388.526-.388.923 0 .383.122.678.374.908.256.23.67.349 1.232.349h4.297v13.529c0 .684.153 1.195.448 1.515.295.321.67.477 1.147.477.468 0 .837-.153 1.129-.471.292-.318.44-.829.44-1.521v-13.529h4.297c.564 0 .985-.119 1.248-.352.259-.23.384-.525.384-.905 0-.383-.125-.684-.381-.917-.261-.235-.681-.355-1.251-.355h-11.758Zm5.892 18.572c-.622 0-1.138-.215-1.533-.644-.389-.423-.585-1.05-.585-1.87v-13.007h-3.774c-.695 0-1.229-.162-1.584-.482-.363-.329-.548-.766-.548-1.297 0-.554.193-.996.574-1.32.366-.315.891-.474 1.558-.474h11.758c.704 0 1.243.165 1.603.491.366.332.554.769.554 1.303 0 .531-.19.968-.562 1.297-.364.32-.9.482-1.595.482h-3.772v13.007c0 .829-.196 1.459-.582 1.876-.389.426-.899.638-1.512.638ZM361.572 197.46h-8.332v4.484h7.674c.565 0 .985.127 1.263.38.278.253.417.587.417 1.002 0 .417-.136.755-.412 1.016-.272.261-.698.391-1.268.391h-7.674v5.197h8.619c.582 0 1.019.133 1.314.403.295.269.443.63.443 1.078 0 .432-.148.784-.443 1.053-.295.27-.732.403-1.314.403h-10.052c-.806 0-1.385-.176-1.737-.533-.355-.358-.531-.937-.531-1.732v-13.727c0-.534.079-.965.238-1.303.157-.337.403-.581.741-.735.335-.153.766-.23 1.289-.23h9.765c.591 0 1.028.131 1.314.392.287.261.432.605.432 1.027 0 .432-.145.778-.432 1.042-.286.261-.723.392-1.314.392Z"/><path fill="#B2B2ED" d="M351.81 194.868c-.482 0-.88.071-1.181.208a1.194 1.194 0 0 0-.613.607c-.139.301-.213.701-.213 1.192v13.727c0 .721.154 1.243.455 1.547.3.304.823.457 1.552.457h10.052c.511 0 .894-.114 1.138-.335.241-.221.358-.502.358-.86 0-.374-.117-.664-.358-.885-.244-.222-.627-.335-1.138-.335h-8.883v-5.719h7.938c.5 0 .866-.108 1.087-.32.224-.21.332-.483.332-.826 0-.341-.108-.605-.332-.809-.227-.207-.593-.312-1.087-.312h-7.938v-5.007h8.597c.519 0 .902-.11 1.138-.323.232-.213.343-.491.343-.849 0-.349-.111-.621-.343-.834-.236-.213-.619-.324-1.138-.324h-9.766Zm10.052 18.263H351.81c-.874 0-1.521-.207-1.924-.613-.4-.406-.605-1.053-.605-1.916v-13.727c0-.568.088-1.045.261-1.413a1.74 1.74 0 0 1 .869-.863c.372-.168.84-.253 1.399-.253h9.766c.655 0 1.155.153 1.49.46.343.312.516.724.516 1.22 0 .508-.173.923-.516 1.235-.335.306-.835.46-1.49.46h-8.072v3.961h7.413c.627 0 1.113.151 1.439.449.335.304.502.707.502 1.195 0 .488-.164.894-.491 1.206-.323.306-.811.465-1.45.465h-7.413v4.669h8.358c.647 0 1.15.159 1.493.474.349.32.525.749.525 1.271 0 .505-.176.925-.528 1.246-.34.315-.843.474-1.49.474Z"/><path fill="url(#c)" d="M300.211 66.645c0-6.995 5.67-12.665 12.663-12.665 6.996 0 12.666 5.67 12.666 12.665 0 6.995-5.67 12.666-12.666 12.666-6.993 0-12.663-5.67-12.663-12.666Z"/><path fill="url(#d)" d="M300.211 152.645c0-6.996 5.67-12.666 12.663-12.666 6.996 0 12.666 5.67 12.666 12.666 0 6.995-5.67 12.666-12.666 12.666-6.993 0-12.663-5.671-12.663-12.666Z"/><path fill="url(#e)" d="M269.877 122.312c-6.996 0-12.666-5.671-12.666-12.666 0-6.996 5.67-12.666 12.666-12.666s12.666 5.67 12.666 12.666c0 6.995-5.67 12.666-12.666 12.666Z"/><path fill="url(#f)" d="M355.877 122.312c-6.996 0-12.666-5.671-12.666-12.666 0-6.996 5.67-12.666 12.666-12.666s12.666 5.67 12.666 12.666c0 6.995-5.67 12.666-12.666 12.666Z"/><path fill="url(#g)" d="M291.428 149.006c-4.946 4.947-12.967 4.947-17.913 0-4.947-4.947-4.947-12.964 0-17.911 4.946-4.946 12.967-4.946 17.913 0 4.944 4.947 4.944 12.964 0 17.911Z"/><path fill="url(#h)" d="M352.239 88.196c-4.947 4.946-12.967 4.946-17.914 0-4.944-4.946-4.944-12.966 0-17.912 4.947-4.946 12.967-4.946 17.914 0 4.946 4.946 4.946 12.966 0 17.912Z"/><path fill="url(#i)" d="M273.515 88.196c-4.947-4.946-4.947-12.966 0-17.912 4.946-4.946 12.967-4.946 17.913 0 4.944 4.946 4.944 12.966 0 17.912-4.946 4.946-12.967 4.946-17.913 0Z"/><path fill="url(#j)" d="M334.325 149.006c-4.944-4.947-4.944-12.964 0-17.911 4.947-4.946 12.967-4.946 17.914 0 4.946 4.947 4.946 12.964 0 17.911-4.947 4.947-12.967 4.947-17.914 0Z"/><path fill="#FCFCFC" d="M483.275 1.294c1.717 38.964-1.748 70.98-5.483 93.677-7.643 46.432-12.927 78.544-37.726 110.032-27.313 34.686-62.726 48.834-80.168 55.804-13.447 5.372-26.241 8.622-41.804 11.119h158.157c10.861 0 19.664-8.803 19.664-19.664V19.66c0-8.384-5.25-15.538-12.64-18.366Z"/><path fill="#DCDCF7" d="M426.339 228.32H199.414v10.87h226.925v-10.87Z"/><path fill="url(#k)" d="M312.875 228.32H199.414v10.87h113.461v-10.87Z"/><path fill="url(#l)" d="M495.909 19.66c0-10.86-8.804-19.662-19.665-19.662H149.501c-10.862 0-19.665 8.803-19.665 19.662v13.947h366.073V19.66Z"/><path fill="#fff" d="M443.172 16.875a4.197 4.197 0 1 1 8.394 0 4.197 4.197 0 0 1-8.394 0ZM426.336 16.875a4.197 4.197 0 1 1 8.396 0 4.197 4.197 0 0 1-8.396 0ZM468.4 16.875a4.197 4.197 0 1 0-8.393-.001 4.197 4.197 0 0 0 8.393 0Z"/><path fill="#E2E2FC" d="m668.914 292.243.017-.036a.412.412 0 0 0-.017.036ZM669.07 291.957a.187.187 0 0 0 .02-.04c-.005.014-.014.028-.02.04ZM669.273 291.565a.32.32 0 0 0 .023-.045c-.008.014-.014.031-.023.045ZM669.312 291.497c.009-.017.017-.034.026-.048l-.026.048ZM669.422 291.287c.068-.13.133-.258.199-.389-.066.131-.131.262-.199.389Z"/><path fill="#2F40A5" d="M7.484 330.978c-7.78 5.677-8.383 19.983-6.658 28.26.47 2.238 1.401 6.423 4.948 9.891 5.265 5.149 13.875 6.344 20.709 3.399 8.469-3.651 18.636-12.187 17.582-20.146-1.74-13.1-30.843-25.59-36.58-21.404Z"/><path fill="#0F2251" d="M54.526 370.559c-2.7-1.61-4.817-2.601-7.418-3.825-3.696-1.744-3.811-1.812-4.288-1.855-2.81-.257-5.962 1.463-7.418 3.941-3.048 5.181-.157 12.86 4.404 13.445 6.188.794 7.213-5.039 11.535-8.157 1.375-.99 6.948.472 6.084-1.231-.305-.601-.726-1.026-2.899-2.318Z"/><path fill="#F7B000" d="M37.934 264.041c-2.158.656-3.8 2.941-4.173 3.483-.466.685-1.416 2.072-1.42 3.208-.015 5.122 19.192 11.018 21.13 7.7.625-1.076-.712-2.863-2.888-5.775-1.61-2.15-7.593-10.153-12.65-8.616Z"/><path fill="#C1BAB8" d="M39.925 365.343c-2.347-.533-9.568-4.724-10.723-2.519-2.739 5.24 5.95 19.532 10.608 19.441 3.737-.073 4.225-6.188 4.288-6.839.358-3.485-.697-9.296-4.173-10.083Z"/><path fill="#F9EFEF" d="M62.275 278.661c-3.644-1.582-7.143-1.43-10.884-3.588-4.944-2.853-8.964-7.506-11.505-10.671-1.375-1.712-3.7-4.36-3.484-3.3 3.968 19.575-20.41 18.977-22.549 21.082-1.099 1.082-3.073 2.999-3.297 5.683-.242 2.843 1.662 4.361 3.666 8.066 2.087 3.863 2.72 7.202 3.298 10.266 1.304 6.884.119 12.793-.734 16.865-1.655 7.91-3.8 9.743-2.381 12.649 2.075 4.253 8.897 4.899 11.364 5.133 5.868.556 35.578-1.081 37.948-7.7.491-1.375 1.766-9.694 1.833-11.732.115-3.388 1.035-16.984 2.202-30.064.47-5.287 1.05-7.655-1.088-10.172-.965-1.136-1.934-1.451-4.39-2.517Z"/><path fill="#0F2251" d="M93.341 362.438c-6.122 2.656-9.225 2.226-10.31 2.815-.402.218-4.266.355-4.314 4.184-.052 4.056-3.8 8.679 9.896 8.655.708-.001 2.984-.226 7.534-.927 4.564-.704 7.38-1.168 10.972-2.473 4.438-1.613 9.87-5.87 7.266-12.254-.898-2.199-6.468-6.325-21.044 0Z"/><path fill="#0796CA" d="M74.522 298.866c-3.465-10.261-2.541-12.506-7.128-17.364-1.498-1.585-4.702-4.26-6.889-3.02-5.004 2.838-1.468 19.505-.1 25.883 2.388 11.12 10.886 27 14.284 28.239.22.08 9.747-5.392 10.198-5.853.712-.734-4.512-13.069-7.064-19.269-1.092-2.646-2.169-5.261-3.301-8.616Z"/><path fill="#067EB4" d="M67.644 294.278c-.752-1.498-4.09 4.24-7.623 8.276.142.666.272 1.276.384 1.811 2.388 11.12 10.887 27 14.285 28.239.063.024.98-.457 2.232-1.152-13.085-11.564-5.086-28.81-9.278-37.174Z"/><path fill="#EB8E6C" d="M48.859 270.345c-.35-2.846-.09-5.971-.697-8.43-1.457-5.871-9.889-8.869-12.381-6.811-1.502 1.238 1.066 7.805-.283 13.086-1.643 6.462-5.924 4.342-7.366 5.236-2.027 1.253 2.75 3.902 5.175 5.487 3.413 2.228 10.376 10.564 13.748 9.005 5.794-2.681 5.265-11.896 4.34-12.845-.7-.721-1.966-.079-2.536-4.728Z"/><path fill="#0796CA" d="M66.094 280.35c-.965-1.135-1.945-1.5-4.4-2.566-1.498-.651-7.344-2.653-9.099-3.452.138 8.112.746 10.507.317 14.586-.883 8.442.335 16.621.559 32.823.093 6.804-.41 15.828-.455 19.823 5.008-1.204 9.572-.37 10.37-2.588.491-1.375 1.84-8.213 1.907-10.251.116-3.389 2.34-19.083 1.9-37.375-.126-5.306 1.04-8.483-1.099-11ZM33.394 276.872a58.578 58.578 0 0 0-3.513-4.928c-6.2 5.613-19.118 10.051-19.908 13.024-.395 1.491.246.168.023 2.852-.239 2.843 1.661 4.36 3.666 8.065 2.09 3.864 2.72 7.203 3.301 10.267 1.3 6.884.12 12.793-.734 16.865-1.658 7.911-3.8 9.743-2.384 12.649 2.075 4.253 8.897 4.899 11.367 5.133 2.273.216 8.137.101 14.602-.506.108-3.957.316-8.979.73-14.749 1.148-16.035 2.46-26.025 1.326-33.685-.335-2.277-1.866-4.616-8.476-14.987Z"/><path fill="#D0C4C4" d="M53.418 277.689a.282.282 0 0 0-.302.257c-.116 1.421-.641 5.936-2.742 8.688-.563.74-1.51 1.978-3.141 2.437a4.788 4.788 0 0 1-1.07.172.279.279 0 0 0-.264.279v.291h.03c.499 0 .987-.067 1.456-.198 1.815-.511 2.832-1.842 3.44-2.639 2.168-2.841 2.72-7.293 2.853-8.984a.278.278 0 0 0-.26-.303Z"/><path fill="#067EB4" d="M53.362 274.062c-1.367-1.321-4.556-4.146-4.556-3.437 0 1.193 2.693 3.707 3.789 9.961.358 2.028-.026 13.533.026 12.969 0 0 4.575-4.397 4.296-6.609-.153-1.195-1.427-2.051-1.185-2.369.246-.326 1.483.691 2.072.296.987-.66-.537-4.783-2.072-7.553-1.095-1.974-1.993-2.893-2.37-3.258Z"/><path fill="#2F40A5" d="M100.658 324.929c-3.744 1.222-6.386 2.425-6.494 2.473-9.449 4.304-26.27 10.307-33.38 12.363-21.863 6.326-35.947-.342-36.782 2.782-1.125 4.235 23.708 20.361 50.382 16.691 4.076-.561 17.95-2.663 28.745-13.6 8.144-8.251 13.26-20.867 10.529-23.516-1.599-1.55-6.085.551-13 2.807Z"/><path fill="#3845B8" d="M118.277 322.147c-.588-.247-3.107-1.236-6.49-.618-5.861 1.071-13.83 10.794-33.38 23.182-23.935 15.163-25.746 17.318-25.347 19.163.995 4.57 15.067 4.922 16.382 4.945 12.713.234 46.451-21.163 51.309-26.89 8.7-10.255.831-18.4-2.474-19.782Z"/><path fill="#7193D8" d="M51.34 347.075v1.504l23.41 10.723 25.719-11.273-4.948-12.099-44.181 11.145Z"/><path fill="#0F2251" d="M112.82 360.658c.514 1.261.939 3.051.466 5.035-.679 2.851-2.817 4.419-4.136 5.388-2.612 1.918-5.254 2.442-6.267 2.632-4.106.77-12.139 1.916-22.832 3.104 1.494.798 4.102 1.283 8.562 1.276.708-.002 2.984-.227 7.534-.928 4.564-.704 7.38-1.168 10.972-2.473 4.438-1.612 9.87-5.87 7.266-12.254-.22-.538-.719-1.192-1.565-1.78Z"/><path fill="#1F2B54" d="m51.426 346.895 22.466 10.724 26.663-11.273-4.952-12.099-44.177 12.648Z"/><path fill="#EB8E6C" d="M89.845 365.729c-.242.022-.79.149-1.882.403-2.343.545-2.898.833-3.99.833-.514 0-1.203-.065-2.362-.448-3.055-1.011-5.433-2.936-7.22-4.189-3.667-2.566-5.5-3.849-7.419-3.709-4.616.341-9.527 8.523-7.418 12.673 1.091 2.147 3.088 1.3 13.908 4.018 6.029 1.514 10.217 2.505 14.528 2.164 3.241-.256 4.895-1.552 5.465-2.053a6.6 6.6 0 0 0 .716-.729c1.18-1.416 2.518-4.217 1.237-6.491-1.178-2.093-3.942-2.619-5.563-2.472Z"/><path fill="#C36252" d="M40.22 268.112c-2.428-1.465-3.825-4.461-4.355-4.921-.082.118.075 1.126.038 1.257.521 1.851 3.748 9.653 13.964 9.472-.57-.897-.883-2.4-1.01-3.575-3.822-.022-6.59-.999-8.636-2.233Z"/><path fill="#EB8E6C" d="M52.117 242.755c-3.477-2.174-7.33-1.141-8.343-.827-4.389 1.361-6.527 5.08-7.373 6.557-2.985 5.185-2.06 10.346-1.796 11.709.83 4.283 7.362 13.427 13.63 11.188 2.12-.757 3.438-2.003 4.653-4.049 1.62-2.725 1.405-5.285 2.105-7.809.838-3.023 1.148-5.318 1.159-6.829.01-1.027.655-7.003-4.035-9.94Z"/><path fill="#49302A" d="M48.72 255.671a15.537 15.537 0 0 0-5.57-.946.518.518 0 0 0-.511.537.512.512 0 0 0 .514.485 14.546 14.546 0 0 1 5.22.886.51.51 0 0 0 .644-.288.513.513 0 0 0-.298-.674Z"/><path fill="#C36252" d="M50.827 257.35c-.142-.019-.265.07-.28.199a25.512 25.512 0 0 0-.097 2.777c.011.444.03.82.045 1.151.048.923.075 1.386-.205 1.641-.339.313-1.103.271-2.161-.115-.13-.047-.272.007-.32.122-.049.121.022.262.156.312.205.074.402.138.589.189.98.271 1.684.215 2.105-.17.428-.392.398-.955.346-1.977a24.665 24.665 0 0 1 .048-3.868c.012-.126-.089-.243-.226-.261Z"/><path fill="#49302A" d="M46.387 256.475c-.39-.067-.793.377-.898.99-.104.614.13 1.166.522 1.233.395.066.797-.377.902-.991.104-.613-.13-1.165-.526-1.232ZM52.934 257.626c-.39-.066-.797.377-.901.991-.105.613.13 1.165.525 1.231.391.067.797-.376.902-.99.104-.613-.13-1.165-.526-1.232ZM55.209 256.55a11.95 11.95 0 0 0-1.923-.291 11.312 11.312 0 0 0-1.46-.008c-.239.015-.432.265-.429.553.004.272.187.477.414.463.447-.027.909-.024 1.375.008.61.042 1.222.135 1.822.276.216.051.443-.123.506-.389.067-.282-.07-.558-.305-.612Z"/><path fill="#0470A1" d="M31.946 274.762c.198 1.871.15 3.405-.182 4.635-.857 3.181-1.912 3.279-1.979 6.492-.06 2.804 6.155 2.733 8.745 1.23.316-.184.838-.064 1.18-.138-1.266-2.151-3.24-5.237-6.318-10.062a57.512 57.512 0 0 0-1.446-2.157Z"/><path fill="#067EB4" d="M23.163 290.618c-1.96-1.435-7.172-3.982-13.156-4.336.049.259.067.707-.007 1.585-.239 2.843 1.661 4.36 3.666 8.065 2.09 3.864 2.72 7.203 3.301 10.267 1.3 6.884.12 12.793-.734 16.865-1.658 7.91-3.8 9.743-2.385 12.649 1.971 4.041 8.23 4.825 10.966 5.094 9.896-22.051 9.232-42.22-1.65-50.189Z"/><path fill="#FEFDFB" d="m50.469 265.935-.652-.013a11.786 11.786 0 0 1-2.82-.412l-1.212-.328c-.275-.075-.488.153-.376.4.335.738 1.662 1.793 2.929 1.993 1.263.199 2.075-.511 2.477-1.126.138-.21-.067-.507-.346-.514Z"/><path fill="#DD8064" d="M43.008 258.913c-1.003-.305-1.971-.043-2.165.585-.19.628.47 1.385 1.475 1.69 1.006.305 1.975.043 2.165-.585.19-.628-.47-1.385-1.475-1.69Z"/><path fill="#1C2546" d="M52.748 239.429c-11.311-7.348-17.712 1.978-17.712 1.978s-8.756 1.972-5.042 13.317c0 0 3.301 8.412 5.041 8.467.768.024-1.944-8.55-.406-9.518.649-.407 2.81.097 3.503 1.051 1.103 1.52 2.272 2.623 2.198-1.642-.048-2.661.045-2.912.794-3.708.875-.934 7.485 2.232 9.195 2.902 4.948 1.939 9.96.484 10.69-3.327 1.363-7.078-1.01-4.813-8.26-9.52Z"/><path fill="#EB8E6C" d="M35.488 253.244c-1.095.118-1.81 1.693-2.015 2.726-.5 2.466 1.192 5.341 2.4 5.2 1.337-.156 2.801-4.126 1.609-6.437-.041-.082-.857-1.611-1.994-1.489Z"/><path fill="#C36252" d="m35.835 258.98.063.096c0-.005-.026-.039-.063-.096Z"/><path fill="#C36252" d="M36.503 255.823c-.54-.267-1.162-.018-1.468.352-.54.647-.327 1.785.019 2.563.145.324.425.839.771.898.037.006.447.026.075-.559-.03-.045-.052-.082-.078-.119-.027-.043-.064-.096-.101-.159-.171-.266-.104-.164-.011-.014a3.414 3.414 0 0 1-.418-.984c-.126-.558-.085-1.014.112-1.252.183-.218.57-.36.876-.209.223.111.376.357.425.658.018.135.115.236.238.237.16 0 .29-.164.265-.34-.071-.483-.328-.885-.705-1.072Z"/><path fill="#C36252" d="m35.821 258.958.015.022c-.037-.057-.082-.13-.127-.195l.011.014c.026.042.06.097.101.159Z"/><path fill="#C36252" d="M37.583 254.873c.056.151-.019.329-.164.384-.123.048-.257-.015-.31-.146-.137-.362-.428-.894-.986-1.143-.157-.071-.526-.236-.928-.087-.38.14-.589.487-.742.741-.387.641-.574 1.421-.551 2.319.04 1.669.805 3.132 1.296 3.304.153.053.183.2.217.37.093.464.242.902.681.978h.004c.22.037.32-.005.425-.349.04-.142.175-.231.305-.199.146.036.228.201.18.36-.12.4-.366.855-1.007.747-.834-.142-1.02-1.053-1.088-1.396l-.004-.025c-.707-.384-1.475-1.986-1.523-3.755-.03-1.269.331-2.145.64-2.657.176-.288.466-.769 1.018-.973.585-.217 1.095.011 1.285.097.712.319 1.077.982 1.252 1.43Z"/><path fill="#C36252" d="M36.416 257.208c-.295.218-.347.63-.37.832-.055.442.06.875.138.871.105-.006-.022-.794.444-1.331.238-.278.51-.341.488-.428-.023-.102-.417-.151-.7.056Z"/><path fill="#EB8E6C" d="M77.454 341.607c-1.255-.563-1.23-.433-2.891-1.131-1.207-.507-1.572-.723-2.388-.88-.582-.112-1.01-.119-1.759-.126-1.684-.014-2.526-.021-3.52 0 0 0-2.58.056-5.277-.377-1.613-.258-1.632-.505-4.65-1.256-3.8-.945-5.134-1.079-8.17-2.011-1.725-.53-2.627-.808-3.894-1.382-2.094-.95-2.738-1.605-5.28-3.017-2.567-1.426-3.852-2.139-4.65-2.136-4.15.018-8.766 7.576-6.91 10.682.636 1.069 2.182 1.634 5.279 2.765 1.743.638 3.1.942 3.39 1.005 2.862.628 3.488.225 7.038.629 2.806.319 2.769.611 6.286 1.005 1.379.155 1.643.139 3.894.377 2.809.298 4.213.446 4.903.628 3.033.804 2.716 1.882 5.655 2.64 1.983.511 2.25.051 5.15.753.786.191 1.043.292 3.267.88 3.137.83 3.57.879 4.024.629.835-.459.578-1.278 1.51-3.896.975-2.745 1.84-3.487 1.382-4.399-.206-.401-.932-.728-2.389-1.382ZM85.933 330.292c-.962-3.458-1.457-5.199-2.266-5.781-2.205-1.596-5.484-.228-6.032 0-2.6 1.087-5.25 3.769-4.773 5.906.157.707 1.025 1.477 2.765 3.017.984.871 1.539 1.223 3.14 2.639.742.655 1.115.982 1.383 1.257 2.415 2.45 2.027 4.212 3.517 4.901 1.476.68 3.745-.162 4.4-1.508.403-.827.057-1.557-.502-3.393-.962-3.173-.257-2.085-1.632-7.038Z"/><path fill="#C36252" d="m72.837 341.519-.064.176a89.918 89.918 0 0 1 5.648 2.26l.079-.172a94.191 94.191 0 0 0-3.648-1.51 90.623 90.623 0 0 0-2.015-.754ZM71.313 343.652l-.038.184a18.116 18.116 0 0 1 5.75 2.375l.1-.159a18.493 18.493 0 0 0-3.282-1.642 18.386 18.386 0 0 0-2.53-.758ZM69.431 346.292l-.044.181a28.237 28.237 0 0 1 6.762 2.756l.093-.163a28.413 28.413 0 0 0-6.81-2.774Z"/><path fill="#7193D8" d="m82.591 330.947-8.696 26.672 31.979-9.44 10.47-25.096-.939-.752-32.814 8.616Z"/><path fill="#B5AFAE" d="M39.923 365.343c-2.347-.533-9.568-4.724-10.723-2.519-.324.619-.484 1.366-.514 2.199.682.151 1.49.349 2.392.607 2.743.783 5.992 1.711 8.521 3.571.906.665 2.981 2.377 4.535 5.81.234-3.513-.868-8.911-4.21-9.668Z"/><path fill="#0C0C60" d="m74.752 359.301 32.061-9.619 9.531-26.599-32.814 8.615-8.778 27.603Z"/><path fill="#0796CA" d="M31.707 326.234c-3.819-2.08-4.594-1.879-5.134-2.933-.775-1.521 1.833-19.066-1.833-28.415-1.36-3.471-3.584-12.551-8.122-13.156-9.23-1.231-9.006 11.804-9.11 13.706-.145 2.702.216 4.728 1.1 8.983.908 4.366 1.363 6.549 1.832 8.432 3.79 15.144 1.688 17.063 4.952 21.632 4.244 5.944 12.087 8.695 13.383 7.333.455-.48-.238-1.119-.186-3.117.082-2.968.492-8.848 8.212-9.248.193-.009-1.01-.992-5.094-3.217Z"/><path fill="#3845B8" d="M59.547 352.129c-7.285-3.462-15.675-8.902-32.453-19.782-2.53-1.639-6.338-4.152-11.438-4.018-1.353.035-6.342.166-9.58 4.018-3.427 4.076-2.432 9.393-2.164 10.818 1.106 5.915 5.47 9.43 8.346 11.745 3.517 2.836 6.751 4.121 12.053 6.182 5.738 2.23 8.242 2.613 12.672 4.018 16.181 5.129 22.38 12.555 26.893 9.582.596-.395 1.636-2.221 3.707-5.873 2.57-4.524 3.853-6.786 3.711-8.345-.343-3.678-5.7-5.472-11.747-8.345Z"/><path fill="#7575D3" d="M105.636 364.56c-1.654.355-5.276 1.362-7.739 2.046-.96.267-1.814.505-2.216.609a.372.372 0 0 1-.325-.067c-.104-.083-.234-.196-.35-.295-1.047-.904-3.185-2.754-7.068-1.526a.38.38 0 0 0-.246.487c.068.19.272.293.466.232 3.484-1.105 5.343.501 6.356 1.376.407.349.686.593.992.593a.603.603 0 0 0 .119-.012c.205-.042.987-.259 2.474-.672 2.455-.683 6.077-1.689 7.69-2.036a.372.372 0 0 0 .29-.435.371.371 0 0 0-.443-.3ZM106.388 366.246a.374.374 0 0 0-.451-.28c-6.721 1.585-8.979 2.325-9.605 3.131-.12.156-.156.389-.235.851-.208 1.258-.644 3.875-3.137 5.609-2.563 1.783-6.624 2.179-12.072 1.177a.376.376 0 1 0-.138.739c1.994.367 3.812.55 5.451.55 3.01 0 5.418-.618 7.188-1.849 2.753-1.915 3.222-4.743 3.45-6.102.026-.147.052-.307.074-.419a.395.395 0 0 1 .12-.205c.879-.76 4.91-1.769 9.076-2.75a.375.375 0 0 0 .279-.452Z"/><path fill="#067EB4" d="M36.137 277.962c-2.504-7.2-1.222-9.843-.972-10.91.22-.926.734-1.885.734-1.885s-2.258 1.184-3.77 2.754c-.88.915-1.398 1.453-1.845 2.317-.57 1.105-.7 2.125-.723 4.572-.052 5.6.596 5.354.343 8.603-.13 1.704-.365 2.512.209 3.117 1.028 1.085 3.599.397 4.59.132 1.348-.361 1.844-1.235 2.395-.968.582.282.373 1.272.675 2.39.708 2.642 4.389 6.507 4.389 6.507s.808-2.182-2.705-8.385c-1.971-3.477-2.66-6.344-3.32-8.244ZM26.315 323.315a8.824 8.824 0 0 0-1.047-.135c-1.475-.104-2.95.161-4.389.785a.282.282 0 0 0 .231.515c1.353-.586 2.739-.833 4.121-.738.324.023.648.065.969.126a.282.282 0 0 0 .115-.553Z"/><path fill="#2F2F7C" d="M97.763 337.918c-.827-.329-1.837.251-2.25 1.294-.414 1.044-.079 2.156.748 2.485.828.329 1.833-.25 2.247-1.294.417-1.044.082-2.157-.745-2.485Z"/><path fill="#090951" d="M111.97 330.604c-4.591 9.258-11.04 14.475-13.537 16.448-7.97 6.305-16.531 8.992-23.014 10.143l-.667 2.107 32.061-9.619 9.531-26.6-1.55.407a46.43 46.43 0 0 1-2.824 7.114Z"/><path fill="#090949" d="M83.905 331.698a.281.281 0 0 0-.354.182l-4.9 15.153a.281.281 0 0 0 .537.174l4.9-15.154a.281.281 0 0 0-.183-.355Z"/><path fill="#090949" d="m96.288 328.432-12.56 3.298a.284.284 0 0 0-.201.344.283.283 0 0 0 .346.201l12.556-3.297a.28.28 0 0 0 .202-.345.281.281 0 0 0-.343-.201Z"/><path fill="#1C1C70" d="M36.79 364.767c-13.38-3.426-23.258-7.938-27.826-12.714a5.287 5.287 0 0 0-.115-.119l-.403.395c.034.031.068.069.112.113 4.639 4.852 14.61 9.419 28.09 12.871a.281.281 0 0 0 .342-.204.28.28 0 0 0-.2-.342Z"/><path fill="#D87150" d="M71.588 360.474c-.149-.013-.257.04-.28.186-.413 2.752-3.438 7.766-5.271 10.8-.391.65-.738 1.225-1.014 1.697a.28.28 0 0 0 .105.386.282.282 0 0 0 .384-.102c.272-.469.618-1.042 1.01-1.69 1.97-3.264 4.914-8.139 5.342-11.003.026-.161-.115-.259-.276-.274Z"/><path fill="#1C1C70" d="M64.596 360.554a.28.28 0 0 0-.365.154c-1.535 3.73-3.592 7.137-6.114 10.129a38.066 38.066 0 0 1-1.673 1.852.28.28 0 0 0 .007.396.28.28 0 0 0 .399-.005 36.853 36.853 0 0 0 1.695-1.88c2.563-3.037 4.65-6.493 6.207-10.276a.283.283 0 0 0-.156-.37Z"/><path fill="#1D5E82" d="m104.661 350.477-23.104 7.029a.283.283 0 0 0-.19.351.284.284 0 0 0 .354.188l23.104-7.029a.28.28 0 0 0 .186-.352.279.279 0 0 0-.35-.187Z"/><path fill="#8181E2" d="M175.547 262.477h-9.399v115.226h9.399V262.477ZM268.094 262.477h-9.399v115.226h9.399V262.477Z"/><path fill="#8181E2" d="M263.394 348.291h-92.55v7.796h92.55v-7.796Z"/><path fill="#404066" d="M286.553 268.714H147.641v29.031h138.912v-29.031Z"/><path fill="url(#m)" d="m208.889 268.714-22.201 29.031h12.991l22.201-29.031h-12.991Z"/><path fill="url(#n)" d="m182.907 268.714-22.204 29.031h12.991l22.202-29.031h-12.989Z"/><path fill="url(#o)" d="m156.923 268.714-9.282 12.136v16.895h.071l22.202-29.031h-12.991Z"/><path fill="url(#p)" d="m260.85 268.714-22.202 29.031h12.992l22.201-29.031H260.85Z"/><path fill="url(#q)" d="m286.556 269.079-21.923 28.666h12.991l8.932-11.68v-16.986Z"/><path fill="url(#r)" d="m234.866 268.714-22.202 29.031h12.991l22.202-29.031h-12.991Z"/><path fill="#404066" d="M286.553 305.575H147.641v29.03h138.912v-29.03Z"/><path fill="url(#s)" d="m208.889 305.575-22.201 29.03h12.991l22.201-29.03h-12.991Z"/><path fill="url(#t)" d="m182.907 305.575-22.204 29.03h12.991l22.202-29.03h-12.989Z"/><path fill="url(#u)" d="m156.923 305.575-9.282 12.138v16.892h.071l22.202-29.03h-12.991Z"/><path fill="url(#v)" d="m260.85 305.575-22.202 29.03h12.992l22.201-29.03H260.85Z"/><path fill="url(#w)" d="m286.556 305.939-21.923 28.666h12.991l8.932-11.679v-16.987Z"/><path fill="url(#x)" d="m234.866 305.575-22.202 29.03h12.991l22.202-29.03h-12.991Z"/><path fill="#F7A594" d="M517.737 215.195c2.838-.412 5.256 10.866 6.141 23.152.378 5.228-3.11 13.949-3.908 17.533-.95 4.263-2.56 6.531-2.54 11.193.012 2.83.616 4.836.923 6.006 2.562 9.737.488 22.184 0 25.116-1.428 8.582-3.869 18.047-4.022 23.933-.065 2.444 1.076 9.232.769 11.088-.312 1.887-2.616 2.963-4.138 4.833-.411.508-2.435 2.938-6.008 4.64-.542.259-2.279-1.126-.102-4.736.724-1.201 3-10.563 3.338-13.007.905-6.536.65-12.938.462-17.198-.687-15.635-4.651-34.042-4.949-39.216-.171-2.917 2.616-21.038 4.481-34.116 2.472-17.365 8.96-19.136 9.553-19.221Z"/><path fill="#600DCE" d="M460.457 178.198c-.329 1.482.607 2.742 5.895 8.449 3.984 4.302 6.587 6.97 10.219 10.22 2.938 2.625 7.26 5.715 9.729 6.538 1.277.426.792-.675 3.241-1.234 3.343-.761 6.406-3.729 7.075-6.485 2.106-8.699-17.343-24.926-30.264-21.617-.755.196-5.279 1.354-5.895 4.129Z"/><path fill="#ED8974" d="M515.025 306.016c1.061-5.435 2.086-9.72 2.276-15.424a57.242 57.242 0 0 0-.173-6.834c-.202-2.259-.494-3.945-.877-6.136-.977-5.565-1.553-6.547-1.578-9.465-.017-1.836.196-3.303.525-5.083 1.484-7.969 4.047-14.982 4.209-15.424 1.186-3.256 2.622-7.666 3.95-13.234a33.36 33.36 0 0 1 .522 3.931c.378 5.227-3.11 13.949-3.908 17.533-.95 4.263-2.56 6.53-2.54 11.193.012 2.83.616 4.836.923 6.005 2.562 9.738.488 22.185 0 25.117-1.428 8.582-3.869 18.047-4.022 23.933-.065 2.443 1.076 9.232.769 11.088a2.643 2.643 0 0 1-.264.794c-2.097-5.874-2.386-10.662-2.091-14.32.272-3.397 1.257-8.44 2.279-13.674Z"/><path fill="#F7A594" d="M526.207 229.401c3.811-2.775 11.934-5.347 15.649 3.247 2.324 5.375 3.428 20.238 3.524 24.869.088 4.448-.349 7.805.46 13.924a85.303 85.303 0 0 0 1.155 6.55c.943 4.333 1.973 7.421 2.31 8.463 2.095 6.434 5.302 16.281 6.238 27.299.196 2.318.69 8.761 1.062 13.895.108 1.481 1.212 3.153 1.498 4.521.988 4.713 2.305 10.409 1.598 11.613-.508.868-2.075.698-3.003.272-.323-.147-3.039 2.327-4.637-1.334-.939-2.157-1.728-11.21-1.728-11.21-.247-.919-5.665-12.771-9.113-24.035-1.249-4.081-3.431-14.545-4.85-23.204-.307-1.878-.599-3.641-1.155-6.005-.886-3.774-1.882-6.712-3.233-10.376-2.88-7.807-3.085-7.299-4.62-11.738-1.978-5.707-4.637-14.292-4.564-20.422.051-4.118 1.175-4.703 3.409-6.329Z"/><path fill="#ED8974" d="M545.383 257.517c.088 4.448-.349 7.805.46 13.924a84.291 84.291 0 0 0 1.155 6.55c.942 4.334 1.972 7.421 2.31 8.463 2.094 6.434 5.301 16.282 6.238 27.299.196 2.318.689 8.761 1.061 13.895.108 1.481 1.212 3.153 1.499 4.521.987 4.714 2.304 10.409 1.598 11.613a1.05 1.05 0 0 1-.31.329 130.403 130.403 0 0 0-3.181-13.205c-.971-3.284-1.053-3.105-1.575-5.083-1.919-7.268-.69-9.306-1.93-17.704a78.076 78.076 0 0 0-2.98-12.618c-1.169-3.598-1.382-3.343-2.98-8.062-1.147-3.395-2.492-7.416-3.505-12.797-.763-4.058-1.002-7.067-1.05-7.714-.23-2.991-.139-4.549-.176-7.711-.048-4.129-.258-6.465-.525-10.693-.241-3.812-.551-9.525-.883-18.144.454.65.874 1.402 1.249 2.268 2.324 5.375 3.428 20.238 3.525 24.869Z"/><path fill="#081C5E" d="M501.669 342.496c.451-.786.82-1.313 1.249-1.929 1.39-2.004 1.819-2.674 1.932-2.614.205.108-1.453 1.91-.738 2.807.523.655 2.299.23 3.236-.156.996-.409 1.827-.653 3.181-2.992 2.024-3.499 2.818-6.797 2.955-7.384.701-3.006.63-4.805 1.248-4.884.724-.094 1.615 2.261 1.706 2.5.235.627.502 1.331.454 2.27-.057 1.042-.471 1.777-1.025 2.728-.596 1.027-.803 1.07-1.929 2.613-.962 1.314-1.459 2.007-1.933 3.065a11.827 11.827 0 0 0-.795 2.501c-.125.65-.162 1.388-.227 2.841-.102 2.264-.04 2.613-.34 3.295-.148.332.037 2.043-7.498 1.475-.784-.059-1.252-.167-1.59-.567-.241-.284-.783-3.236-.684-3.863.071-.434.313-.863.798-1.706Z"/><path fill="#081C5E" d="M516.474 329.51c.222.139-.167.703-1.248 4.997-.329 1.297-.511 2.106-.645 3.142-.17 1.3-.19 2.356-.19 2.881 0 3.048-.102 4.58-.113 4.997-.012.372-1.099.44-1.099.077 0-.343-.198-1.64-.113-5.038.026-.976.008-1.594-.15-2.347-.239-1.129-.602-1.646-.758-2.122-.871-2.645 3.655-7.01 4.316-6.587ZM550.334 331.51c.131-.014.372 1.059.491 1.817.148.945.148 1.657.15 2.009.009.778.04 2.795.531 4.808.36 1.467.553 2.21 1.252 2.764.928.741 2.097.644 3.028.567.772-.062 2.767-.224 3.445-1.552.312-.607.307-1.376.304-1.552-.006-.622-.162-1.079-.227-1.286-.338-1.061-.202-1.413-.494-3.408-.375-2.583-.903-4.07-.832-4.09.086-.026.957 2.018 1.363 4.62.161 1.025.122 1.32.38 2.878.193 1.169.267 1.323.528 2.801.281 1.584.423 2.376.457 3.258.017.463-.04 1.243-.153 2.801-.148 2.066-.242 2.506-.605 2.878-.321.326-.775.423-1.666.607-1.538.313-2.88.588-4.393 0-.449-.176-1.098-.437-1.666-1.061-.474-.522-.803-1.198-1.062-2.954-.229-1.573-.13-2.16-.227-4.544a80.476 80.476 0 0 0-.227-3.559c-.187-2.273-.3-2.634-.377-4.089-.023-.386-.23-3.687 0-3.713Z"/><path fill="#0E1647" d="M530.764 145.095c2.077.253 6.317 5.049 8.049 8.971 1.121 2.534.709 2.918 1.688 4.007 2.637 2.926 6.448 1.087 11.074 3.877 2.429 1.465 3.738 3.392 4.192 4.078 2.131 3.213 3.902 8.988 1.311 12.709-3.045 4.373-10.543 3.661-14.46 2.497-9.743-2.894-14.789-13.764-15.56-21.991-.579-6.196.981-14.48 3.706-14.148Z"/><path fill="#600DCE" d="M513.929 174.915c5.176 2.077 1.135 9.274-.128 12.677-1.419 3.823-11.503 6.471-16.14 10.404-2.855 2.424-6.281 5.035-9.104 5.341-1.544.168-2.381.565-2.949-.769-1.913-4.498 4.01-8.761 6.669-12.195 1.269-1.64 12.953-18.952 21.652-15.458Z"/><path fill="#EB8E6C" d="M508.866 192.079c-1.019-9.048-1.791-13.248.61-16.941.636-.976 12.987-2.923 18.096-2.557 3.258.236 4.904.355 5.633.579 2.932.9 12.541 2.586 14.468 4.584 2.356 2.438-.159 8.948-1.345 13.372-.673 2.521-1.901 5.134-3.902 9.559-3.789 8.364-3.922 10.926-4.061 14.04-.497 11.11 7.029 12.867 7.963 40.461.045 1.297-1.856 1.465-4.197 2.061-10.141 2.579-17.187 2.242-17.187 2.242-9.434-.455-20.343-1.042-20.533-4.493-.897-16.165 7.532-31.97 7.631-40.008.077-6.496-1.507-8.113-3.176-22.899Z"/><path fill="#0E1647" d="M527.572 143.926c6.678 1.158 9.55 6.391 10.185 11.664.12 1.008.562 4.669-1.668 7.882-2.007 2.886-5.628 4.628-8.679 3.947-6.823-1.527-15.623-14.95-10.753-20.198 2.588-2.787 8.1-3.78 10.915-3.295Z"/><path fill="#F7A594" d="M518.331 176.455c.928-.712 3.579-3.675 3.982-5.148.462-1.703-.477-3.743-.352-5.27.292-3.55 11.724-8.704 11.119-6.448-2.083 7.762-.63 13.39 3.289 14.372 2.796.701-5.176 13.163-16.417 10.781-2.952-.624-3.755-7.253-1.913-9.104.34-.343-.596 1.501.292.817Z"/><path fill="#C36252" d="M522.239 169.514c2.753-.622 5.137-1.726 6.417-2.941 1.521-1.441 2.264-2.994 2.574-3.411a.944.944 0 0 1 .184.244c-1.166 7.745-9.169 8.852-9.578 8.929.477-1.028.684-1.879.403-2.821Z"/><path fill="#fff" d="M518.315 183.406c1.343-.943 3.837 2.75 8.304 2.628 3.573-.1 5.395-2.552 6.099-1.893.397.371.349 1.657-7.149 12.93-3.564 5.361-4.526 6.533-5.256 6.308-1.291-.4.068-4.597-1.158-12.194-.738-4.587-1.878-7.05-.84-7.779Z"/><path fill="#F7A594" d="M517.755 147.082c2.733-1.896 5.892-1.206 6.726-.991 3.607.937 5.481 3.866 6.224 5.029 2.614 4.087 2.066 8.301 1.902 9.417-.508 3.499-5.447 11.156-10.609 9.581-1.745-.531-2.863-1.49-3.928-3.099-1.416-2.146-1.339-4.229-2.003-6.247-.792-2.415-1.13-4.262-1.201-5.486-.045-.831-.797-5.647 2.889-8.204Z"/><path fill="#0E1647" d="M518.673 145.955c.216-.102.417-.218.624-.312a8.78 8.78 0 0 1 3.366-.755 10.83 10.83 0 0 1 3.67.554c3.922 1.319 5.653 4.671 6.343 5.999.942 1.828 1.254 2.568 1.37 4.166-3.062.84-16.227 2.631-17.507-4.41-.114-.619-2.234 3.712-.846 8.366-.729-1.467-4.609-9.952 2.98-13.608Z"/><path fill="#F7A594" d="M531.647 155.312c.891.054 1.529 1.303 1.736 2.132.497 1.978-.763 4.373-1.745 4.305-1.09-.077-2.426-3.236-1.55-5.154.032-.068.631-1.337 1.559-1.283Z"/><path fill="#F7A594" d="M530.925 157.441c.426-.239.937-.06 1.201.23.462.502.332 1.433.082 2.074-.105.27-.312.698-.59.758-.031.006-.363.04-.08-.451l.06-.105c.02-.029.04-.068.065-.111.145-.25.083-.145.003-.008a2.71 2.71 0 0 0 .312-.832c.083-.457.031-.823-.139-1.007-.156-.171-.474-.273-.715-.137-.176.097-.292.304-.318.548-.011.111-.085.196-.184.202-.131.005-.244-.122-.23-.267.04-.392.233-.73.533-.894Z"/><path fill="#C36252" d="M531.539 160.052c-.003-.003.017-.034.046-.08-.029.046-.046.08-.046.08ZM531.665 159.836l-.065.111-.014.025.082-.144-.003.008Z"/><path fill="#C36252" d="M530.013 156.714a.24.24 0 0 0 .144.304.195.195 0 0 0 .247-.131c.1-.298.315-.74.755-.962.125-.065.417-.213.75-.108.312.1.496.372.63.574.337.505.519 1.129.533 1.856.031 1.353-.531 2.568-.922 2.727-.122.048-.142.168-.162.307-.06.38-.162.74-.516.817-.176.04-.262.008-.358-.264-.04-.116-.151-.182-.256-.15-.116.034-.175.17-.133.298.114.32.332.678.846.567.67-.147.786-.894.829-1.172l.002-.023c.557-.337 1.119-1.663 1.087-3.099-.022-1.027-.349-1.725-.618-2.125-.154-.227-.409-.608-.863-.752-.483-.151-.886.051-1.036.13-.565.284-.834.834-.959 1.206Z"/><path fill="#C36252" d="M531.047 158.559c.25.165.304.497.332.661.063.355-.017.71-.079.71-.085 0-.011-.645-.409-1.062-.204-.215-.425-.255-.414-.326.017-.085.335-.139.57.017Z"/><path fill="#161237" d="M521.35 156.836a12.542 12.542 0 0 1 4.475-.979.416.416 0 0 1 .432.415.418.418 0 0 1-.398.414c-.885.028-1.765.153-2.616.377-.537.142-1.065.324-1.578.54a.415.415 0 0 1-.315-.767Z"/><path fill="#C36252" d="M519.56 159.03c.114-.02.219.048.233.15.102.741.165 1.496.185 2.248.011.358.008.664.008.934-.006.749-.006 1.124.227 1.319.29.242.906.179 1.748-.176.103-.042.219-.002.262.088h.002c.046.097-.008.213-.116.259a6.66 6.66 0 0 1-.468.176c-.784.255-1.357.238-1.712-.057-.36-.304-.36-.761-.354-1.59 0-.266.002-.567-.006-.922a19.76 19.76 0 0 0-.184-2.208c-.015-.102.062-.201.175-.221Z"/><path fill="#23173D" d="M523.301 157.957c.315-.068.658.276.766.767.108.493-.06.95-.377 1.018-.315.069-.659-.275-.767-.766-.108-.494.06-.951.378-1.019ZM517.543 158.905c.315-.071.658.276.766.767.108.493-.06.95-.375 1.018-.318.068-.661-.275-.769-.769-.108-.491.063-.948.378-1.016Z"/><path fill="#161237" d="M515.823 157.798a14.956 14.956 0 0 1 1.885-.383c.485-.065.965-.105 1.436-.116a.414.414 0 0 1 .425.417.414.414 0 0 1-.403.412 13.417 13.417 0 0 0-3.133.474.414.414 0 0 1-.21-.804Z"/><path fill="#FEFDFB" d="m520.081 165.662.591-.068a13 13 0 0 0 2.523-.55l1.064-.341c.241-.079.465.063.392.247-.219.554-1.3 1.419-2.433 1.677-1.123.256-1.952-.17-2.392-.57-.15-.133-.003-.363.255-.395Z"/><path fill="#DD8064" d="M525.759 159.819c.801-.284 1.595-.111 1.774.392.179.502-.326 1.138-1.13 1.424-.8.287-1.594.111-1.773-.389-.179-.502.326-1.14 1.129-1.427Z"/><path fill="#600DCE" d="M510.771 213.023c-.034-3.655-.965-7.285-2.27-16.994a132.8 132.8 0 0 1-.548-4.234c-1.019-9.048-1.757-13.64 1.507-16.875.516-.511 5.315-1.504 10.211-2.009.111.769-.196 7.458-.221 11.55-.023 3.281 1.552 18.504 2.049 17.128.383-1.053 4.174-7.013 5.244-8.052 3.023-5.173 3.968-6.442 4.504-7.137 2.381-3.088 3.108-3.159 5.012-5.656 1.056-1.388 2.333-3.341 3.482-5.974 3.369.837 7.822 2.108 8.9 3.224 2.356 2.44-1.132 8.698-2.318 13.122-.673 2.521-1.496 3.511-2.793 8.191-4.245 15.339 1.218 31.8 2.645 38.356 2.952 9.547 4.047 21.611 4.047 38.279 0 3.156-46.328 4.37-46.532.922-2.804-47.627 7.231-48.493 7.081-63.841Z"/><path fill="#050530" d="M539.792 156.033c.547 1.822.879 2.923 2.818 3.491.624.184 1.075.315 1.654.406 1.402.218 2.152.332 2.591.397.489.074.605.091.823.136.491.1 1.78.406 3.173 1.11 1.368.692 2.6 1.655 3.659 2.864l-.395.346a11.72 11.72 0 0 0-3.499-2.742 12.873 12.873 0 0 0-3.042-1.064c-.205-.04-.318-.057-.795-.13-.443-.066-1.192-.176-2.597-.398-.613-.093-1.078-.23-1.72-.42-2.211-.647-2.616-1.989-3.173-3.845-.706-2.339-1.668-5.54-6.734-9.721l.335-.405c5.188 4.282 6.178 7.571 6.902 9.975ZM517.947 153.275c.476.581.976.896 1.416 1.172a8.08 8.08 0 0 0 2.554 1.044l-.116.514a8.596 8.596 0 0 1-2.719-1.113c-.451-.284-1.011-.635-1.541-1.283a5.392 5.392 0 0 1-1.127-2.508l.519-.088a4.828 4.828 0 0 0 1.014 2.262Z"/><path fill="#9345FB" d="M543 196.205a19.515 19.515 0 0 1 3.522-4.126c-.659 2.296-1.468 3.397-2.708 7.878-4.246 15.337 1.218 31.797 2.645 38.356 2.952 9.547 4.047 21.611 4.047 38.279 0 .565-4.146.772-6.601 1.197 1.493-5.806.525-30.202-.043-33.687-1.254-7.682-1.629-9.428-3.019-16.432-1.184-5.971-2.515-12.992-1.076-21.444.636-3.738 1.147-6.74 3.233-10.021ZM521.902 201.027h.003a.482.482 0 0 1 .454.511c-1.123 19.5-.916 35.495-.178 56.445.258 7.396.638 12.814 1.121 19.67l.054.781a.485.485 0 1 1-.965.068l-.057-.781c-.483-6.868-.863-12.291-1.124-19.704-.738-20.979-.945-36.996.182-56.533a.483.483 0 0 1 .51-.457Z"/><path fill="#600DCE" d="M547.354 177.176c2.701.979 4.498 4.206 5.959 7.041.588 1.141 1.045 2.05 1.295 2.83 3.07 9.57 4.285 14.142 5.766 22.869.366 2.148.307 4.396-.596 5.335-1.305 1.362-4.518.871-6.544-.567-1.331-.94-2.117-2.66-3.638-6.06-.361-.806-.653-1.507-2.021-5.091-2.293-6.011-2.492-6.72-2.665-7.597-.477-2.407-.38-4.229-.244-6.545.145-2.421.363-13.058 2.688-12.215Z"/><path fill="#9345FB" d="M516.185 173.336c1.241-.417 2.742-.122 3.23.213.905.625-.76 3.525-1.07 5.248-.687 3.831.627 4.856 1.74 11.675 1.223 7.484 1.419 11.117 1.419 11.117s2.392-3.255 7.112-11.383a26.74 26.74 0 0 1 3.454-4.757c1.195-1.314 1.124-.965 1.966-1.958 1.601-1.885 2.333-3.687 4.538-6.672.304-.409.386-2.066 1.002-2.259.42-.131 2.467.865 4.57 1.447-.582 6.459-2.421 10.748-3.446 12.377-.372.587-1.078.661-1.782.607-4.297-.329-5.52-1.955-5.52-1.955l1.717 3.695a1.56 1.56 0 0 1-.412 1.853l-13.23 11.19-8.14-13.214a1.337 1.337 0 0 1-.076-1.529l3.487-5.586-6.465 1.414c-.632.139-.828-.432-.8-1.067.168-4.019 4.532-8.838 6.706-10.456Z"/><path fill="#600DCE" d="M535.622 173.706c-.259-1.085 7.089.859 7.444 1.961.099.309.125 1.841-.298 4.177-.679 3.738-3.519 7.986-3.519 7.986s-4.283-.224-6.497-1.839c-.837-.613 1.436 5.307 1.436 5.307s-11.556 11.92-12.719 10.739c-.568-.576 6.828-13.483 8.295-15.401.531-.69 6.281-11.168 5.858-12.93Z"/><path fill="#600DCE" d="M518.683 172.723s2.384-.352 2.143.026c-1.521 2.384-1.541 8.06-1.058 13.248.471 5.051 2.205 16.665 1.702 16.04-2.775-3.471-7.552-12.629-7.552-12.629 2.339-3.553 3.375-6.4 3.375-6.4s-.483-.244-1.771-.059c-3.264.465-4.748.803-4.748.803s-.097-2.617 2.537-6c4.288-5.508 5.372-5.029 5.372-5.029Z"/><path fill="#9345FB" d="M544.425 187.45a.487.487 0 0 1 .417.539c-.425 3.505-.312 6.13.341 7.819a.482.482 0 0 1-.244.604.487.487 0 0 1-.664-.267c-.718-1.856-.846-4.572-.395-8.27a.486.486 0 0 1 .545-.425Z"/><path fill="#6642BC" d="M507.087 186.803c.264 0 .482.213.485.479.012 1.053.094 2.713.667 4.343a.484.484 0 0 1-.914.323c-.624-1.768-.712-3.539-.723-4.654a.484.484 0 0 1 .485-.491Z"/><path fill="#6565A8" d="M612.612 300.698c-6.971-5.426-8.222-15.476-2.796-22.446 5.426-6.97 15.476-8.222 22.443-2.795 6.97 5.426 8.225 15.473 2.798 22.443-5.426 6.97-15.475 8.224-22.445 2.798Zm23.382-30.037a21.955 21.955 0 0 0-12.504-4.624l-16.608-5.772-168.479-131.148-10.174-22.831a30.172 30.172 0 0 0-1.002-3.023c-1.076-2.727-3.15-7.997-8.599-11.764-4.042-2.796-7.978-3.407-10.456-3.79-6.121-.95-10.764.352-14.496 1.397-3.661 1.028-6.247 1.753-6.346 3.032-.085 1.15 1.873 2.195 12.513 7.203 5.321 2.506 5.982 2.784 6.794 3.84 3.244 4.214 1.635 11.357-1.084 15.825-.278.454-5.268 8.428-11.642 7.969-2.528-.182-2.721-1.51-9.575-4.919-4.135-2.057-7.955-3.919-9.105-2.738-.513.53-.502 1.688.778 4.589 4.075 9.24 11.426 14.408 12.255 14.976 3.587 2.461 7.37 5.052 12.89 5.324l22.261 4.163-.235.301 168.478 131.151 10.728 17.473a21.944 21.944 0 0 0 6.494 8.199c9.603 7.476 23.498 5.744 30.974-3.859 7.475-9.604 5.744-23.499-3.86-30.974Z"/><path fill="#5D5D9B" d="M591.658 279.821 423.18 148.671l15.223-19.554 168.479 131.148-15.224 19.556Z"/><path fill="#575793" d="m401.156 144.207 22.262 4.164 14.987-19.254-10.174-22.831-27.075 37.921ZM603.169 298.561l-11.505-18.74 15.223-19.556 18.078 6.286-11.028 2.991a15.024 15.024 0 0 0-11.088 14.834l.32 14.185Z"/><path fill="#6565A8" d="M387.33 92.138c.099-1.28 2.685-2.004 6.346-3.032 3.732-1.045 8.375-2.347 14.496-1.398 2.478.384 6.414.995 10.456 3.791 5.449 3.767 7.523 9.037 8.599 11.764 2.713 6.896 2.103 12.992 1.722 15.476-1.311 8.576-5.965 13.971-7.605 15.819-1.601 1.808-5.024 5.582-10.836 7.872-1.882.741-5.137 1.984-9.354 1.777-5.52-.272-9.303-2.863-12.89-5.324-.829-.568-8.18-5.736-12.255-14.976-1.28-2.901-1.291-4.059-.778-4.589 1.15-1.181 4.97.684 9.105 2.738 6.854 3.409 7.047 4.737 9.575 4.919 6.374.459 11.364-7.515 11.642-7.969 2.719-4.468 4.328-11.611 1.084-15.825-.812-1.056-1.473-1.334-6.794-3.84-10.64-5.008-12.598-6.054-12.513-7.203ZM612.612 300.698c-6.97-5.426-8.221-15.476-2.795-22.446 5.426-6.97 15.476-8.222 22.446-2.795 6.967 5.426 8.222 15.472 2.795 22.443-5.426 6.97-15.475 8.224-22.446 2.798Zm23.383-30.038c-9.604-7.475-23.499-5.744-30.974 3.86-7.476 9.604-5.744 23.499 3.859 30.974 9.604 7.475 23.499 5.744 30.974-3.86 7.476-9.603 5.745-23.498-3.859-30.974Z"/><path fill="#F7A594" d="M517.319 221.412c.431-.173.823.08 1.317.253 1.118.391 2.159.164 3.195-.063.469-.102 1.368-.309 2.322-.942.766-.508 1.478-1.232 1.379-1.379-.088-.128-.803.204-1.442.502-1.498.698-1.725 1.079-2.508 1.13-.063.003-1.261.068-1.567-.565-.187-.386.043-.843.062-.877.406-.78 1.465-.641 3.134-1.317.982-.4.794-.519 1.569-.814.511-.199 1.601-.531 5.265-.066 2.08.267 2.046.415 2.886.378 1.657-.071 2.809-.69 3.823-1.192 4.328-2.134 4.376-1.246 8.088-3.261a38.646 38.646 0 0 0 4.765-3.071c2.682-2.063 2.736-2.741 3.95-3.008 2.924-.644 5.838 8.488 5.481 9.067-.585.951-18.828 7.223-20.153 7.484-.372.074-1.311.273-2.506.752-.386.154-1.958.801-3.951 2.257-1.918 1.404-2.094 1.998-3.448 2.446-.718.235-1.251.261-2.318.312-.247.011-2.296.091-4.453-.752-.349-.136-1.016-.42-1.002-.752.011-.309.607-.483.562-.627-.04-.131-.554-.026-1.252-.063-.53-.028-1.492-.082-1.694-.564-.043-.1-.108-.352.187-.815-.661.094-1.268-.199-1.504-.69-.125-.266-.184-.678 0-1.001.216-.381.599-.352.627-.565.057-.415-1.359-.639-1.441-1.317-.046-.358.289-.741.627-.88Z"/><path fill="#C36252" d="M518.076 223.668c.046-.096.185-.147.312-.116a18.209 18.209 0 0 0 4.666.502c.136-.002.253.077.258.179.006.105-.102.193-.238.196-.142.003-.284.006-.426.006a18.805 18.805 0 0 1-4.413-.525c-.133-.034-.204-.142-.159-.242ZM519.05 225.8c.023-.102.151-.17.29-.156a33.237 33.237 0 0 0 4.498.167c.142-.002.258.074.267.176v.003c.008.102-.103.193-.244.196a32.82 32.82 0 0 1-2.339-.008 33.91 33.91 0 0 1-2.256-.162c-.139-.014-.239-.111-.216-.216ZM522.075 227.287l1.033.082 1.135.094c.17.014.307.11.304.215 0 .106-.139.176-.309.162l-1.133-.093c-.346-.029-.689-.054-1.03-.083-.17-.011-.307-.108-.309-.213 0-.102.139-.178.309-.164ZM551.237 208.951a.316.316 0 0 1 .366-.27c.792.128 1.563.343 2.299.644a9.608 9.608 0 0 1 2.389 1.405.313.313 0 0 1 .04.451.309.309 0 0 1-.429.043 8.96 8.96 0 0 0-2.239-1.32 9.885 9.885 0 0 0-2.168-.604.315.315 0 0 1-.258-.349Z"/><path fill="#600DCE" d="M533.027 217.272c1.697-.647 3.877-.88 9.615-3.88 3.083-1.609 6.062-3.8 6.062-3.8 2.847-2.089 3.247-2.864 4.607-2.988 2.73-.25 5.962 2.432 6.626 5.656.097.468 1.014 1.26-.161 2.991-1.062 1.567-4.289 2.943-7.209 3.723 0 0-3.079 1.263-8.63 3.468-5.413 2.152-5.412 2.152-8.001 2.83-2.06.539-4.898-7.243-2.909-8Z"/><path fill="#F7A594" d="M452.199 170.66c.094-.179.267-.505.604-.832.537-.516 1.122-.678 1.76-.851.718-.199 1.235-.202 1.907-.204.948-.006 1.118.133 1.184.258.116.218-.25.525-.131.681.077.099.227 0 .525.094.082.025.327.102.477.312.159.218.068.383.213.482.127.091.224-.022.496.014.054.009.42.066.599.333.125.187.04.3.188.491.105.139.198.139.337.241.284.21.437.613.406.914-.031.315-.25.354-.533.78-.125.185-1.385 3.008 3.014 6.363.527.403-1.661.968-1.661.968-1.172-.42-8.974-3.678-9.876-5.594-.184-.392-.077-.693.051-1.467.284-1.717-.031-2.075.44-2.983Z"/><path fill="#C36252" d="M453.167 170.776a.11.11 0 0 0 .005.148.106.106 0 0 0 .156-.003c.242-.272.523-.695.713-.982.065-.099.133-.198.162-.241l.025-.023c.236-.176.46-.252.65-.309.63-.193 1.374-.335 1.748-.403a.104.104 0 0 0 .088-.122.105.105 0 0 0-.125-.088c-.38.065-1.135.21-1.773.406-.154.048-.443.136-.736.357-.034.023-.065.071-.218.304-.176.267-.463.695-.695.956ZM456.059 170.393c.131-.127 1.09-.547 1.729-.692a.106.106 0 0 1 .127.088.103.103 0 0 1-.079.122c-.633.142-1.538.553-1.629.638a28.642 28.642 0 0 0-1.379 1.612.107.107 0 0 1-.148.023.107.107 0 0 1-.026-.153c.33-.434 1.244-1.484 1.405-1.638ZM457.098 172.522c.347-.372.599-.639.84-1.039.074-.119.122-.213.165-.295.082-.159.136-.264.284-.389.187-.156.417-.258.689-.306a.11.11 0 0 1 .128.096.107.107 0 0 1-.088.117 1.185 1.185 0 0 0-.59.258c-.114.096-.153.173-.233.323a5.028 5.028 0 0 1-.17.31c-.253.417-.511.692-.866 1.073-.173.184-.357.366-.545.539a.11.11 0 0 1-.153-.009.107.107 0 0 1 .009-.153c.184-.167.363-.343.53-.525Z"/><path fill="#9345FB" d="M549.701 208.383a7.687 7.687 0 0 1 1.583-.434 7.613 7.613 0 0 1 3.678.338.483.483 0 0 1 .287.644.48.48 0 0 1-.607.27 6.554 6.554 0 0 0-3.204-.296 6.584 6.584 0 0 0-1.374.378.487.487 0 0 1-.619-.241v-.003a.484.484 0 0 1 .256-.656Z"/></g><defs><linearGradient id="n" x1="147.642" x2="286.554" y1="283.23" y2="283.23" gradientUnits="userSpaceOnUse"><stop stop-color="#36FF78"/><stop offset="1" stop-color="#0CFFFF"/></linearGradient><linearGradient id="b" x1="93.319" x2="527.827" y1="54.237" y2="325.443" gradientUnits="userSpaceOnUse"><stop stop-color="#FF0CF5"/><stop offset="1" stop-color="#0575E6"/></linearGradient><linearGradient id="d" x1="257.209" x2="368.542" y1="109.646" y2="109.646" gradientUnits="userSpaceOnUse"><stop stop-color="#A83AFE" stop-opacity=".4"/><stop offset="1" stop-color="#6E59FE" stop-opacity=".4"/></linearGradient><linearGradient id="e" x1="257.211" x2="368.543" y1="109.646" y2="109.646" gradientUnits="userSpaceOnUse"><stop stop-color="#A83AFE" stop-opacity=".2"/><stop offset="1" stop-color="#6E59FE" stop-opacity=".2"/></linearGradient><linearGradient id="f" x1="257.211" x2="368.543" y1="109.646" y2="109.646" gradientUnits="userSpaceOnUse"><stop stop-color="#A83AFE" stop-opacity=".7"/><stop offset="1" stop-color="#6E59FE" stop-opacity=".7"/></linearGradient><linearGradient id="g" x1="257.21" x2="368.543" y1="109.646" y2="109.646" gradientUnits="userSpaceOnUse"><stop stop-color="#A83AFE" stop-opacity=".3"/><stop offset="1" stop-color="#6E59FE" stop-opacity=".3"/></linearGradient><linearGradient id="h" x1="257.21" x2="368.543" y1="109.646" y2="109.646" gradientUnits="userSpaceOnUse"><stop stop-color="#A83AFE" stop-opacity=".9"/><stop offset="1" stop-color="#6E59FE" stop-opacity=".9"/></linearGradient><linearGradient id="i" x1="257.21" x2="368.543" y1="109.646" y2="109.646" gradientUnits="userSpaceOnUse"><stop stop-color="#A83AFE" stop-opacity=".1"/><stop offset="1" stop-color="#6E59FE" stop-opacity=".1"/></linearGradient><linearGradient id="j" x1="257.21" x2="368.543" y1="109.646" y2="109.646" gradientUnits="userSpaceOnUse"><stop stop-color="#A83AFE" stop-opacity=".5"/><stop offset="1" stop-color="#6E59FE" stop-opacity=".5"/></linearGradient><linearGradient id="k" x1="199.414" x2="312.875" y1="233.755" y2="233.755" gradientUnits="userSpaceOnUse"><stop stop-color="#A83AFE"/><stop offset="1" stop-color="#6E59FE"/></linearGradient><linearGradient id="l" x1="129.836" x2="495.909" y1="16.803" y2="16.803" gradientUnits="userSpaceOnUse"><stop stop-color="#A83AFE"/><stop offset="1" stop-color="#6E59FE"/></linearGradient><linearGradient id="m" x1="147.644" x2="286.556" y1="283.23" y2="283.23" gradientUnits="userSpaceOnUse"><stop stop-color="#36FF78"/><stop offset="1" stop-color="#0CFFFF"/></linearGradient><linearGradient id="c" x1="257.209" x2="368.542" y1="109.646" y2="109.646" gradientUnits="userSpaceOnUse"><stop stop-color="#A83AFE"/><stop offset="1" stop-color="#6E59FE"/></linearGradient><linearGradient id="o" x1="147.641" x2="286.553" y1="283.23" y2="283.23" gradientUnits="userSpaceOnUse"><stop stop-color="#36FF78"/><stop offset="1" stop-color="#0CFFFF"/></linearGradient><linearGradient id="p" x1="147.642" x2="286.554" y1="283.23" y2="283.23" gradientUnits="userSpaceOnUse"><stop stop-color="#36FF78"/><stop offset="1" stop-color="#0CFFFF"/></linearGradient><linearGradient id="q" x1="147.644" x2="286.556" y1="283.229" y2="283.229" gradientUnits="userSpaceOnUse"><stop stop-color="#36FF78"/><stop offset="1" stop-color="#0CFFFF"/></linearGradient><linearGradient id="r" x1="147.638" x2="286.55" y1="283.23" y2="283.23" gradientUnits="userSpaceOnUse"><stop stop-color="#36FF78"/><stop offset="1" stop-color="#0CFFFF"/></linearGradient><linearGradient id="s" x1="147.644" x2="286.556" y1="320.09" y2="320.09" gradientUnits="userSpaceOnUse"><stop stop-color="#36FF78"/><stop offset="1" stop-color="#0CFFFF"/></linearGradient><linearGradient id="t" x1="147.642" x2="286.554" y1="320.09" y2="320.09" gradientUnits="userSpaceOnUse"><stop stop-color="#36FF78"/><stop offset="1" stop-color="#0CFFFF"/></linearGradient><linearGradient id="u" x1="147.641" x2="286.553" y1="320.09" y2="320.09" gradientUnits="userSpaceOnUse"><stop stop-color="#36FF78"/><stop offset="1" stop-color="#0CFFFF"/></linearGradient><linearGradient id="v" x1="147.642" x2="286.554" y1="320.09" y2="320.09" gradientUnits="userSpaceOnUse"><stop stop-color="#36FF78"/><stop offset="1" stop-color="#0CFFFF"/></linearGradient><linearGradient id="w" x1="147.644" x2="286.556" y1="320.09" y2="320.09" gradientUnits="userSpaceOnUse"><stop stop-color="#36FF78"/><stop offset="1" stop-color="#0CFFFF"/></linearGradient><linearGradient id="x" x1="147.638" x2="286.55" y1="320.09" y2="320.09" gradientUnits="userSpaceOnUse"><stop stop-color="#36FF78"/><stop offset="1" stop-color="#0CFFFF"/></linearGradient><clipPath id="a"><path fill="#fff" d="M0 0h669.759v400H0z"/></clipPath></defs></svg>