<svg width="670" height="400" viewBox="0 0 670 400" fill="none" xmlns="http://www.w3.org/2000/svg">
<g clip-path="url(#clip0_2252_2400)">
<path d="M527.827 54.8521H97.9219V325.443H527.827V54.8521Z" fill="url(#paint0_linear_2252_2400)"/>
<path d="M518.713 63.9683H107.039V297.701H518.713V63.9683Z" fill="#DADAEF"/>
<path d="M573.14 393.419H52.6172L97.9261 325.442H527.831L573.14 393.419Z" fill="#3D5586"/>
<path d="M573.14 393.419H52.6172V399.98H573.14V393.419Z" fill="#06063D"/>
<path d="M518.713 366.069H107.039L127.183 331.064H500.757L518.713 366.069Z" fill="#06063D"/>
<path d="M109.984 366.069L128.659 333.619H499.195L515.843 366.069H109.984Z" fill="#12295B"/>
<path d="M109.984 366.069L128.659 333.619H499.195L515.843 366.069H109.984Z" fill="#12295B"/>
<path d="M109.984 366.069L128.659 333.619H499.195L515.843 366.069H109.984Z" fill="#12295B"/>
<path d="M408.983 390.473H218.391L225.196 367.621H402.178L408.983 390.473Z" fill="#1C1C70"/>
<path d="M220.945 390.473L227.101 369.81H400.274L406.429 390.473H220.945Z" fill="#173475"/>
<path d="M470.339 340.66L467.025 333.619H442.453L445.183 340.66H470.339Z" fill="#284372"/>
<path d="M446.574 338.622H467.127L465.731 335.654H445.425L446.574 338.622ZM473.547 342.695H443.787L439.477 331.581H468.314L473.547 342.695Z" fill="#181860"/>
<path d="M417.211 340.66L414.651 333.619H385.766L387.971 340.66H417.211Z" fill="#284372"/>
<path d="M389.466 338.622H414.301L413.223 335.654H388.535L389.466 338.622ZM420.116 342.695H386.474L382.992 331.581H416.075L420.116 342.695Z" fill="#181860"/>
<path d="M445.185 340.66L442.455 333.619H414.656L417.216 340.66H445.185Z" fill="#284372"/>
<path d="M418.636 338.622H442.205L441.056 335.654H417.557L418.636 338.622ZM448.154 342.695H415.784L411.742 331.581H443.843L448.154 342.695Z" fill="#181860"/>
<path d="M400.008 340.66L404.219 354.11H434.141L429.248 340.66H400.008Z" fill="#284372"/>
<path d="M405.717 352.075H431.231L427.822 342.695H402.78L405.717 352.075ZM437.046 356.147H402.723L397.234 338.623H430.675L437.046 356.147Z" fill="#181860"/>
<path d="M502.808 340.66L499.195 333.619H467.023L470.338 340.66H502.808Z" fill="#284372"/>
<path d="M471.631 338.622H499.472L497.951 335.654H470.232L471.631 338.622ZM506.142 342.695H469.046L463.812 331.581H500.437L506.142 342.695Z" fill="#181860"/>
<path d="M334.533 340.66L333.542 333.619H308.312V340.66H334.533Z" fill="#284372"/>
<path d="M310.346 338.622H332.187L331.77 335.654H310.346V338.622ZM336.873 342.695H306.273V331.581H335.312L336.873 342.695Z" fill="#181860"/>
<path d="M308.314 340.66V333.619H283.081L282.094 340.66H308.314Z" fill="#284372"/>
<path d="M284.436 338.622H306.277V335.654H284.853L284.436 338.622ZM310.349 342.695H279.75L281.311 331.581H310.349V342.695Z" fill="#181860"/>
<path d="M360.458 340.66L358.684 333.619H333.539L334.53 340.66H360.458Z" fill="#284372"/>
<path d="M336.306 338.622H357.849L357.103 335.654H335.886L336.306 338.622ZM363.074 342.695H332.764L331.203 331.581H360.276L363.074 342.695Z" fill="#181860"/>
<path d="M387.973 340.66L385.768 333.619H358.688L360.461 340.66H387.973Z" fill="#284372"/>
<path d="M362.049 338.622H385.202L384.271 335.654H361.303L362.049 338.622ZM390.744 342.695H358.874L356.078 331.581H387.265L390.744 342.695Z" fill="#181860"/>
<path d="M272.204 340.66H208.158L203.266 354.11H268.821L272.204 340.66Z" fill="#284372"/>
<path d="M206.182 352.075H267.239L269.601 342.695H209.594L206.182 352.075ZM270.415 356.147H200.367L206.741 338.623H274.825L270.415 356.147Z" fill="#181860"/>
<path d="M243.915 338.733H179.866L174.977 352.185H240.529L243.915 338.733Z" fill="#284372"/>
<path d="M177.878 350.148H238.937L241.296 340.771H181.289L177.878 350.148ZM242.11 354.223H172.062L178.437 336.698H246.521L242.11 354.223Z" fill="#181860"/>
<path d="M208.162 340.66H155.038L148.703 354.11H203.27L208.162 340.66Z" fill="#284372"/>
<path d="M151.912 352.075H201.844L205.255 342.695H156.328L151.912 352.075ZM204.696 356.147H145.492L153.742 338.623H211.07L204.696 356.147Z" fill="#181860"/>
<path d="M184.082 340.66H155.038L148.703 354.11H178.054L184.082 340.66Z" fill="#284372"/>
<path d="M151.912 352.075H176.733L180.936 342.695H156.328L151.912 352.075ZM179.372 356.147H145.492L153.745 338.623H187.225L179.372 356.147Z" fill="#181860"/>
<path d="M291.269 340.66H239.12L235.734 354.11H291.269V340.66Z" fill="#284372"/>
<path d="M238.342 352.075H289.225V342.695H240.7L238.342 352.075ZM293.297 356.147H233.117L237.527 338.623H293.297V356.147Z" fill="#181860"/>
<path d="M282.092 340.66L283.08 333.619H257.935L256.164 340.66H282.092Z" fill="#284372"/>
<path d="M258.772 338.622H280.318L280.735 335.654H259.521L258.772 338.622ZM283.857 342.695H253.547L256.345 331.581H285.421L283.857 342.695Z" fill="#181860"/>
<path d="M372.859 340.66L376.245 354.11H404.586L400.371 340.66H372.859Z" fill="#284372"/>
<path d="M377.833 352.075H401.814L398.877 342.695H375.475L377.833 352.075ZM407.36 356.147H374.657L370.25 338.623H401.871L407.36 356.147Z" fill="#181860"/>
<path d="M470.336 340.66L476.67 354.11H509.705L502.806 340.66H470.336Z" fill="#284372"/>
<path d="M477.961 352.075H506.372L501.562 342.695H473.545L477.961 352.075ZM513.038 356.147H475.378L467.125 338.623H504.048L513.038 356.147Z" fill="#181860"/>
<path d="M199.406 340.66L201.969 333.619H174.168L171.438 340.66H199.406Z" fill="#284372"/>
<path d="M174.417 338.622H197.987L199.065 335.654H175.569L174.417 338.622ZM200.839 342.695H168.469L172.78 331.581H204.88L200.839 342.695Z" fill="#181860"/>
<path d="M171.437 340.66L174.168 333.619H149.596L146.281 340.66H171.437Z" fill="#284372"/>
<path d="M149.498 338.622H170.051L171.2 335.654H150.897L149.498 338.622ZM172.84 342.695H143.078L148.311 331.581H177.148L172.84 342.695Z" fill="#181860"/>
<path d="M149.601 333.619H128.659L124.609 340.66H146.286L149.601 333.619Z" fill="#284372"/>
<path d="M128.127 338.622H144.993L146.39 335.654H129.836L128.127 338.622ZM147.576 342.695H121.086L127.48 331.581H152.809L147.576 342.695Z" fill="#181860"/>
<path d="M228.649 340.66L230.854 333.619H201.969L199.406 340.66H228.649Z" fill="#284372"/>
<path d="M202.315 338.622H227.151L228.081 335.654H203.394L202.315 338.622ZM230.145 342.695H196.5L200.541 331.581H233.624L230.145 342.695Z" fill="#181860"/>
<path d="M155.038 340.66H124.609L116.867 354.11H148.704L155.038 340.66Z" fill="#284372"/>
<path d="M120.388 352.075H147.411L151.827 342.695H125.783L120.388 352.075ZM149.994 356.147H113.344L123.43 338.623H158.247L149.994 356.147Z" fill="#181860"/>
<path d="M139.951 352.288L134.32 364.247H161.588L166.225 352.288H139.951Z" fill="#284372"/>
<path d="M137.529 362.209H160.193L163.253 354.322H141.241L137.529 362.209ZM162.983 366.284H131.109L138.658 350.25H169.198L162.983 366.284Z" fill="#181860"/>
<path d="M166.223 352.288L161.586 364.247H190.168L194.518 352.288H166.223Z" fill="#284372"/>
<path d="M164.566 362.209H188.748L191.615 354.322H167.625L164.566 362.209ZM191.601 366.284H158.617L164.835 350.25H197.43L191.601 366.284Z" fill="#181860"/>
<path d="M118.101 352.288L111.219 364.247H135.555L141.185 352.288H118.101Z" fill="#284372"/>
<path d="M114.736 362.209H134.259L137.974 354.322H119.277L114.736 362.209ZM136.845 366.284H107.695L116.922 350.25H144.394L136.845 366.284Z" fill="#181860"/>
<path d="M252.781 352.288H194.523L190.172 364.247H249.773L252.781 352.288Z" fill="#284372"/>
<path d="M193.081 362.209H248.184L250.17 354.322H195.947L193.081 362.209ZM251.359 366.284H187.266L193.095 350.25H255.395L251.359 366.284Z" fill="#181860"/>
<path d="M256.163 340.66L257.934 333.619H222.368L219.961 340.66H256.163Z" fill="#284372"/>
<path d="M222.813 338.622H254.576L255.325 335.654H223.826L222.813 338.622ZM257.752 342.695H217.117L220.914 331.581H260.55L257.752 342.695Z" fill="#181860"/>
<path d="M480.187 340.66H427.789L432.682 354.11H486.519L480.187 340.66Z" fill="#284372"/>
<path d="M434.106 352.075H483.309L478.893 342.695H430.698L434.106 352.075ZM489.729 356.147H431.254L424.883 338.623H481.478L489.729 356.147Z" fill="#181860"/>
<path d="M455.417 340.66H427.789L430.369 354.11H458.757L455.417 340.66Z" fill="#284372"/>
<path d="M432.054 352.075H456.157L453.827 342.695H430.255L432.054 352.075ZM461.365 356.147H428.688L425.328 338.623H457.015L461.365 356.147Z" fill="#181860"/>
<path d="M322.534 340.66H270.386L267 354.11H322.534V340.66Z" fill="#284372"/>
<path d="M269.615 352.075H320.498V342.695H271.974L269.615 352.075ZM324.571 356.147H264.391L268.801 338.623H324.571V356.147Z" fill="#181860"/>
<path d="M373.953 340.66H321.805V354.11H377.336L373.953 340.66Z" fill="#284372"/>
<path d="M323.838 352.075H374.724L372.363 342.695H323.838V352.075ZM379.949 356.147H319.766V338.623H375.538L379.949 356.147Z" fill="#181860"/>
<path d="M375.683 340.66H350.234V354.11H377.335L375.683 340.66Z" fill="#284372"/>
<path d="M352.268 352.075H375.032L373.879 342.695H352.268V352.075ZM379.635 356.147H348.195V338.623H377.484L379.635 356.147Z" fill="#181860"/>
<path d="M323.638 340.66H294.781V354.11H325.511L323.638 340.66Z" fill="#284372"/>
<path d="M296.823 352.075H323.179L321.874 342.695H296.823V352.075ZM327.859 356.147H292.75V338.623H325.418L327.859 356.147Z" fill="#181860"/>
<path d="M280.204 352.288L278.523 364.247H308.314V352.288H280.204Z" fill="#284372"/>
<path d="M280.865 362.209H306.277V354.322H281.975L280.865 362.209ZM310.349 366.284H276.18L278.433 350.25H310.349V366.284Z" fill="#181860"/>
<path d="M336.422 352.288L338.102 364.247H366.854L363.843 352.288H336.422Z" fill="#284372"/>
<path d="M339.87 362.209H364.241L362.257 354.322H338.764L339.87 362.209ZM369.465 366.284H336.331L334.078 350.25H365.433L369.465 366.284Z" fill="#181860"/>
<path d="M308.312 352.288V364.247H338.103L336.423 352.288H308.312Z" fill="#284372"/>
<path d="M310.346 362.209H335.758L334.651 354.322H310.346V362.209ZM340.443 366.284H306.273V350.25H338.19L340.443 366.284Z" fill="#181860"/>
<path d="M252.782 352.288L249.773 364.247H278.525L280.205 352.288H252.782Z" fill="#284372"/>
<path d="M252.381 362.209H276.751L277.858 354.322H254.368L252.381 362.209ZM280.293 366.284H247.156L251.192 350.25H282.543L280.293 366.284Z" fill="#181860"/>
<path d="M363.844 352.288L366.855 364.247H395.93L392.184 352.288H363.844Z" fill="#284372"/>
<path d="M368.443 362.209H393.159L390.69 354.322H366.459L368.443 362.209ZM398.705 366.284H365.267L361.234 350.25H393.681L398.705 366.284Z" fill="#181860"/>
<path d="M481.485 364.201H515.022L508.886 352.239H475.852L481.485 364.201Z" fill="#284372"/>
<path d="M482.775 362.163H511.689L507.642 354.277H479.06L482.775 362.163ZM518.355 366.236H480.193L472.641 350.204H510.131L518.355 366.236Z" fill="#181860"/>
<path d="M449.984 352.239L454.622 364.201H481.892L476.259 352.239H449.984Z" fill="#284372"/>
<path d="M456.021 362.163H478.688L474.973 354.277H452.964L456.021 362.163ZM485.107 366.236H453.234L447.016 350.204H477.556L485.107 366.236Z" fill="#181860"/>
<path d="M450.401 352.288H392.188L395.934 364.247H455.038L450.401 352.288Z" fill="#284372"/>
<path d="M397.426 362.209H452.06L449.004 354.322H394.957L397.426 362.209ZM458.009 366.284H394.434L389.414 350.25H451.791L458.009 366.284Z" fill="#181860"/>
<path d="M113.637 70.0504H518.713V63.9683H107.039V297.701H113.637V70.0504Z" fill="#CECEEF"/>
<path d="M474.607 271.926H151.138C139.374 271.926 129.836 262.388 129.836 250.624V21.2994C129.836 9.5347 139.374 -0.00244141 151.138 -0.00244141H474.607C486.37 -0.00244141 495.909 9.5347 495.909 21.2994V250.624C495.909 262.388 486.37 271.926 474.607 271.926Z" fill="white"/>
<path d="M263.203 205.321V196.537C263.203 195.791 263.373 195.229 263.708 194.857C264.046 194.482 264.489 194.295 265.037 194.295C265.61 194.295 266.064 194.482 266.399 194.857C266.736 195.229 266.904 195.791 266.904 196.537V205.519C266.904 206.541 267.017 207.392 267.247 208.079C267.474 208.763 267.88 209.294 268.462 209.674C269.041 210.052 269.855 210.239 270.903 210.239C272.347 210.239 273.369 209.856 273.968 209.087C274.564 208.32 274.865 207.154 274.865 205.593V196.537C274.865 195.782 275.029 195.22 275.361 194.848C275.693 194.479 276.139 194.295 276.695 194.295C277.251 194.295 277.703 194.479 278.046 194.848C278.392 195.22 278.562 195.782 278.562 196.537V205.321C278.562 206.748 278.423 207.94 278.145 208.894C277.867 209.85 277.342 210.687 276.57 211.411C275.906 212.027 275.134 212.475 274.254 212.756C273.375 213.037 272.344 213.179 271.164 213.179C269.762 213.179 268.553 213.029 267.54 212.725C266.526 212.421 265.701 211.953 265.059 211.317C264.421 210.682 263.952 209.867 263.652 208.877C263.354 207.883 263.203 206.697 263.203 205.321Z" fill="#B2B2ED"/>
<path d="M265.04 194.556C264.563 194.556 264.194 194.712 263.907 195.03C263.618 195.354 263.47 195.862 263.47 196.537V205.321C263.47 206.666 263.618 207.838 263.907 208.8C264.191 209.745 264.642 210.532 265.247 211.133C265.854 211.732 266.652 212.186 267.617 212.476C268.601 212.768 269.796 212.918 271.167 212.918C272.314 212.918 273.327 212.779 274.175 212.507C275.015 212.237 275.762 211.806 276.395 211.218C277.13 210.534 277.635 209.726 277.899 208.82C278.168 207.895 278.305 206.717 278.305 205.321V196.537C278.305 195.853 278.154 195.345 277.859 195.027C277.564 194.712 277.184 194.556 276.698 194.556C276.216 194.556 275.844 194.71 275.56 195.025C275.274 195.343 275.129 195.853 275.129 196.537V205.593C275.129 207.208 274.808 208.437 274.178 209.249C273.528 210.08 272.43 210.503 270.906 210.503C269.813 210.503 268.942 210.296 268.32 209.893C267.693 209.484 267.248 208.903 267.001 208.162C266.765 207.452 266.646 206.564 266.646 205.52V196.537C266.646 195.862 266.499 195.354 266.209 195.03C265.922 194.712 265.539 194.556 265.04 194.556ZM271.167 213.441C269.745 213.441 268.499 213.284 267.466 212.975C266.416 212.663 265.548 212.166 264.878 211.502C264.211 210.841 263.714 209.981 263.405 208.951C263.101 207.94 262.945 206.717 262.945 205.321V196.537C262.945 195.728 263.138 195.101 263.519 194.681C263.905 194.253 264.415 194.034 265.04 194.034C265.687 194.034 266.212 194.253 266.598 194.681C266.978 195.101 267.168 195.728 267.168 196.537V205.52C267.168 206.507 267.279 207.342 267.497 207.997C267.71 208.63 268.071 209.107 268.607 209.453C269.144 209.802 269.915 209.978 270.906 209.978C272.26 209.978 273.222 209.623 273.764 208.928C274.323 208.21 274.604 207.089 274.604 205.593V196.537C274.604 195.72 274.797 195.093 275.171 194.676C275.552 194.25 276.065 194.034 276.698 194.034C277.328 194.034 277.848 194.247 278.242 194.673C278.631 195.09 278.83 195.717 278.83 196.537V205.321C278.83 206.766 278.685 207.994 278.401 208.968C278.112 209.964 277.555 210.852 276.752 211.601C276.063 212.24 275.248 212.714 274.337 213.006C273.435 213.296 272.368 213.441 271.167 213.441Z" fill="#B2B2ED"/>
<path d="M288.755 197.386H286.263V202.965H288.755C289.626 202.965 290.356 202.875 290.94 202.69C291.525 202.508 291.973 202.21 292.28 201.793C292.586 201.379 292.74 200.834 292.74 200.161C292.74 199.358 292.504 198.7 292.03 198.195C291.499 197.655 290.407 197.386 288.755 197.386ZM289.652 205.755H286.263V210.926C286.263 211.664 286.087 212.226 285.741 212.606C285.392 212.989 284.952 213.179 284.419 213.179C283.862 213.179 283.414 212.992 283.073 212.612C282.733 212.234 282.562 211.681 282.562 210.949V196.875C282.562 196.06 282.75 195.479 283.124 195.13C283.496 194.781 284.092 194.607 284.904 194.607H289.652C291.054 194.607 292.135 194.715 292.89 194.931C293.636 195.138 294.283 195.484 294.828 195.964C295.37 196.446 295.785 197.037 296.066 197.735C296.35 198.43 296.489 199.216 296.489 200.088C296.489 201.949 295.918 203.357 294.772 204.316C293.625 205.276 291.919 205.755 289.652 205.755Z" fill="#B2B2ED"/>
<path d="M286.52 202.704H288.751C289.593 202.704 290.3 202.616 290.859 202.44C291.387 202.276 291.793 202.006 292.065 201.637C292.335 201.271 292.474 200.774 292.474 200.161C292.474 199.418 292.264 198.833 291.835 198.373C291.361 197.894 290.323 197.647 288.751 197.647H286.52V202.704ZM288.751 203.226H285.998V197.122H288.751C290.493 197.122 291.625 197.414 292.213 198.01C292.735 198.569 292.999 199.293 292.999 200.161C292.999 200.888 292.826 201.489 292.485 201.949C292.145 202.409 291.651 202.744 291.015 202.943C290.408 203.13 289.644 203.226 288.751 203.226ZM284.899 194.868C284.159 194.868 283.619 195.022 283.299 195.322C282.981 195.618 282.822 196.14 282.822 196.875V210.949C282.822 211.61 282.969 212.112 283.265 212.439C283.554 212.759 283.932 212.918 284.414 212.918C284.874 212.918 285.243 212.759 285.541 212.43C285.844 212.101 285.998 211.593 285.998 210.926V205.494H289.647C291.841 205.494 293.507 205.031 294.6 204.115C295.675 203.212 296.223 201.858 296.223 200.087C296.223 199.253 296.087 198.495 295.82 197.831C295.553 197.176 295.159 196.614 294.648 196.16C294.137 195.708 293.521 195.379 292.815 195.183C292.085 194.973 291.018 194.868 289.647 194.868H284.899ZM284.414 213.44C283.784 213.44 283.265 213.222 282.876 212.788C282.493 212.362 282.297 211.743 282.297 210.949V196.875C282.297 195.989 282.513 195.337 282.941 194.939C283.364 194.545 284.022 194.346 284.899 194.346H289.647C291.069 194.346 292.182 194.457 292.956 194.678C293.737 194.897 294.424 195.263 294.997 195.768C295.567 196.276 296.007 196.903 296.305 197.635C296.598 198.362 296.748 199.185 296.748 200.087C296.748 202.02 296.138 203.51 294.935 204.518C293.745 205.514 291.966 206.016 289.647 206.016H286.52V210.926C286.52 211.729 286.321 212.353 285.93 212.782C285.529 213.219 285.021 213.44 284.414 213.44Z" fill="#B2B2ED"/>
<path d="M303.3 197.533V209.93H306.103C306.716 209.93 307.199 209.913 307.548 209.879C307.897 209.845 308.257 209.762 308.632 209.629C309.007 209.496 309.33 209.311 309.603 209.07C310.84 208.023 311.459 206.221 311.459 203.664C311.459 201.861 311.186 200.51 310.644 199.614C310.099 198.717 309.43 198.146 308.632 197.902C307.835 197.655 306.873 197.533 305.743 197.533H303.3ZM301.869 194.607H306.688C307.943 194.607 309.018 194.724 309.915 194.956C310.812 195.189 311.626 195.623 312.356 196.265C314.257 197.891 315.208 200.366 315.208 203.689C315.208 204.785 315.114 205.784 314.921 206.689C314.731 207.594 314.436 208.412 314.039 209.138C313.638 209.865 313.128 210.514 312.506 211.088C312.015 211.528 311.481 211.88 310.9 212.146C310.318 212.413 309.694 212.598 309.024 212.705C308.357 212.813 307.602 212.867 306.765 212.867H301.943C301.27 212.867 300.762 212.768 300.422 212.564C300.081 212.359 299.86 212.073 299.758 211.704C299.653 211.335 299.602 210.855 299.602 210.265V196.875C299.602 196.078 299.78 195.499 300.135 195.144C300.493 194.786 301.072 194.607 301.869 194.607Z" fill="#B2B2ED"/>
<path d="M303.562 209.666H306.102C306.706 209.666 307.186 209.649 307.521 209.618C307.847 209.586 308.191 209.507 308.542 209.382C308.883 209.263 309.181 209.09 309.428 208.871C310.603 207.881 311.196 206.127 311.196 203.663C311.196 201.918 310.935 200.601 310.418 199.75C309.91 198.915 309.283 198.376 308.554 198.152C307.785 197.916 306.837 197.797 305.741 197.797H303.562V209.666ZM306.102 210.191H303.037V197.272H305.741C306.891 197.272 307.89 197.4 308.707 197.65C309.564 197.914 310.291 198.529 310.867 199.477C311.432 200.414 311.721 201.822 311.721 203.663C311.721 206.289 311.065 208.176 309.771 209.268C309.476 209.527 309.121 209.734 308.718 209.876C308.327 210.015 307.941 210.106 307.572 210.14C307.214 210.174 306.732 210.191 306.102 210.191ZM301.867 194.868C301.144 194.868 300.624 195.025 300.321 195.328C300.014 195.632 299.861 196.151 299.861 196.875V210.265C299.861 210.829 299.909 211.289 300.009 211.633C300.094 211.939 300.272 212.169 300.556 212.339C300.854 212.515 301.32 212.606 301.941 212.606H306.763C307.583 212.606 308.33 212.552 308.982 212.447C309.624 212.345 310.231 212.163 310.787 211.908C311.344 211.655 311.863 211.312 312.328 210.892C312.924 210.344 313.424 209.711 313.807 209.01C314.19 208.312 314.48 207.512 314.664 206.635C314.851 205.752 314.945 204.762 314.945 203.689C314.945 200.462 314.017 198.03 312.184 196.463C311.485 195.85 310.699 195.43 309.848 195.209C308.977 194.985 307.912 194.868 306.686 194.868H301.867ZM306.763 213.131H301.941C301.212 213.131 300.673 213.017 300.287 212.788C299.889 212.549 299.625 212.209 299.503 211.774C299.393 211.383 299.336 210.875 299.336 210.265V196.875C299.336 196.009 299.543 195.362 299.949 194.956C300.355 194.551 301.002 194.346 301.867 194.346H306.686C307.958 194.346 309.065 194.465 309.978 194.701C310.912 194.945 311.769 195.402 312.527 196.066C314.48 197.738 315.47 200.3 315.47 203.689C315.47 204.796 315.371 205.826 315.178 206.743C314.982 207.671 314.675 208.519 314.267 209.263C313.855 210.012 313.322 210.69 312.683 211.281C312.172 211.738 311.61 212.109 311.006 212.385C310.407 212.657 309.754 212.853 309.065 212.964C308.386 213.074 307.612 213.131 306.763 213.131Z" fill="#B2B2ED"/>
<path d="M321.847 205.729H327.302L324.549 198.194L321.847 205.729ZM329.172 210.801L328.301 208.508H320.877L320.002 210.849C319.662 211.763 319.372 212.382 319.131 212.699C318.89 213.02 318.496 213.179 317.948 213.179C317.482 213.179 317.071 213.009 316.716 212.668C316.358 212.328 316.18 211.942 316.18 211.51C316.18 211.261 316.219 211.005 316.305 210.738C316.387 210.472 316.523 210.103 316.716 209.629L321.385 197.771C321.518 197.431 321.68 197.022 321.867 196.543C322.052 196.066 322.253 195.669 322.463 195.353C322.676 195.038 322.954 194.783 323.297 194.587C323.644 194.394 324.069 194.295 324.575 194.295C325.091 194.295 325.52 194.394 325.863 194.587C326.209 194.783 326.487 195.036 326.7 195.342C326.91 195.649 327.089 195.978 327.234 196.333C327.378 196.685 327.566 197.156 327.79 197.746L332.561 209.529C332.932 210.426 333.12 211.079 333.12 211.485C333.12 211.908 332.944 212.296 332.592 212.651C332.237 213.003 331.811 213.179 331.315 213.179C331.023 213.179 330.773 213.128 330.566 213.023C330.358 212.921 330.185 212.779 330.043 212.6C329.902 212.421 329.751 212.149 329.589 211.777C329.428 211.408 329.288 211.082 329.172 210.801Z" fill="#B2B2ED"/>
<path d="M322.225 205.469H326.933L324.558 198.964L322.225 205.469ZM327.683 205.994H321.482L324.555 197.426L327.683 205.994ZM329.422 210.705C329.536 210.986 329.675 211.306 329.834 211.672C329.987 212.022 330.129 212.277 330.254 212.439C330.373 212.586 330.515 212.703 330.691 212.791C330.858 212.876 331.071 212.918 331.321 212.918C331.749 212.918 332.107 212.771 332.411 212.464C332.717 212.161 332.865 211.84 332.865 211.485C332.865 211.116 332.683 210.492 332.323 209.632L327.552 197.846C327.331 197.264 327.146 196.79 326.999 196.432C326.86 196.097 326.689 195.78 326.491 195.49C326.3 195.218 326.051 194.991 325.741 194.817C325.438 194.644 325.046 194.556 324.581 194.556C324.124 194.556 323.738 194.644 323.434 194.817C323.125 194.991 322.875 195.22 322.688 195.501C322.486 195.799 322.293 196.183 322.114 196.639L321.635 197.865L316.963 209.726C316.776 210.194 316.64 210.56 316.56 210.815C316.484 211.057 316.447 211.289 316.447 211.511C316.447 211.871 316.594 212.189 316.901 212.478C317.21 212.774 317.554 212.918 317.954 212.918C318.419 212.918 318.737 212.796 318.927 212.544C319.151 212.246 319.432 211.644 319.764 210.759L320.698 208.247H328.486L329.422 210.705ZM331.321 213.441C330.989 213.441 330.699 213.381 330.455 213.259C330.214 213.137 330.007 212.969 329.845 212.762C329.686 212.566 329.527 212.277 329.354 211.882C329.192 211.514 329.053 211.184 328.934 210.901L328.125 208.769H321.064L320.256 210.943C319.901 211.888 319.606 212.515 319.347 212.859C319.055 213.245 318.587 213.441 317.954 213.441C317.42 213.441 316.946 213.245 316.541 212.859C316.132 212.47 315.922 212.016 315.922 211.511C315.922 211.235 315.97 210.949 316.061 210.659C316.143 210.39 316.285 210.009 316.478 209.533L321.629 196.449C321.819 195.956 322.029 195.538 322.253 195.209C322.486 194.86 322.795 194.573 323.176 194.361C323.559 194.145 324.03 194.034 324.581 194.034C325.14 194.034 325.617 194.145 326 194.361C326.377 194.573 326.686 194.854 326.919 195.192C327.141 195.513 327.331 195.862 327.484 196.231C327.632 196.594 327.819 197.074 328.04 197.653L332.808 209.43C333.2 210.367 333.387 211.04 333.387 211.485C333.387 211.979 333.185 212.433 332.782 212.836C332.379 213.239 331.889 213.441 331.321 213.441Z" fill="#B2B2ED"/>
<path d="M345.453 197.658H341.418V210.926C341.418 211.689 341.247 212.257 340.907 212.626C340.566 212.995 340.127 213.179 339.587 213.179C339.04 213.179 338.594 212.992 338.248 212.62C337.904 212.246 337.731 211.681 337.731 210.926V197.658H333.696C333.066 197.658 332.594 197.519 332.288 197.241C331.981 196.963 331.828 196.597 331.828 196.14C331.828 195.666 331.987 195.291 332.308 195.019C332.626 194.744 333.088 194.607 333.696 194.607H345.453C346.095 194.607 346.569 194.749 346.881 195.03C347.193 195.314 347.349 195.683 347.349 196.14C347.349 196.597 347.19 196.963 346.875 197.241C346.56 197.519 346.086 197.658 345.453 197.658Z" fill="#B2B2ED"/>
<path d="M333.694 194.868C333.155 194.868 332.746 194.985 332.476 195.217C332.215 195.442 332.088 195.743 332.088 196.14C332.088 196.523 332.21 196.818 332.462 197.048C332.718 197.278 333.132 197.397 333.694 197.397H337.991V210.926C337.991 211.61 338.144 212.121 338.439 212.441C338.734 212.762 339.109 212.918 339.586 212.918C340.054 212.918 340.423 212.765 340.715 212.447C341.007 212.129 341.155 211.618 341.155 210.926V197.397H345.452C346.016 197.397 346.437 197.278 346.7 197.045C346.959 196.815 347.084 196.52 347.084 196.14C347.084 195.757 346.959 195.456 346.703 195.223C346.442 194.988 346.022 194.868 345.452 194.868H333.694ZM339.586 213.44C338.964 213.44 338.448 213.225 338.053 212.796C337.664 212.373 337.468 211.746 337.468 210.926V197.919H333.694C332.999 197.919 332.465 197.757 332.11 197.437C331.747 197.108 331.562 196.671 331.562 196.14C331.562 195.586 331.755 195.144 332.136 194.82C332.502 194.505 333.027 194.346 333.694 194.346H345.452C346.156 194.346 346.695 194.511 347.055 194.837C347.421 195.169 347.609 195.606 347.609 196.14C347.609 196.671 347.419 197.108 347.047 197.437C346.683 197.757 346.147 197.919 345.452 197.919H341.68V210.926C341.68 211.755 341.484 212.385 341.098 212.802C340.709 213.228 340.199 213.44 339.586 213.44Z" fill="#B2B2ED"/>
<path d="M361.572 197.46H353.24V201.944H360.914C361.479 201.944 361.899 202.071 362.177 202.324C362.455 202.577 362.594 202.911 362.594 203.326C362.594 203.743 362.458 204.081 362.182 204.342C361.91 204.603 361.484 204.733 360.914 204.733H353.24V209.93H361.859C362.441 209.93 362.878 210.063 363.173 210.333C363.468 210.602 363.616 210.963 363.616 211.411C363.616 211.843 363.468 212.195 363.173 212.464C362.878 212.734 362.441 212.867 361.859 212.867H351.807C351.001 212.867 350.422 212.691 350.07 212.334C349.715 211.976 349.539 211.397 349.539 210.602V196.875C349.539 196.341 349.618 195.91 349.777 195.572C349.934 195.235 350.18 194.991 350.518 194.837C350.853 194.684 351.284 194.607 351.807 194.607H361.572C362.163 194.607 362.6 194.738 362.886 194.999C363.173 195.26 363.318 195.604 363.318 196.026C363.318 196.458 363.173 196.804 362.886 197.068C362.6 197.329 362.163 197.46 361.572 197.46Z" fill="#B2B2ED"/>
<path d="M351.81 194.868C351.328 194.868 350.93 194.939 350.629 195.076C350.348 195.203 350.147 195.402 350.016 195.683C349.877 195.984 349.803 196.384 349.803 196.875V210.602C349.803 211.323 349.957 211.845 350.258 212.149C350.558 212.453 351.081 212.606 351.81 212.606H361.862C362.373 212.606 362.756 212.492 363 212.271C363.241 212.05 363.358 211.769 363.358 211.411C363.358 211.037 363.241 210.747 363 210.526C362.756 210.304 362.373 210.191 361.862 210.191H352.979V204.472H360.917C361.417 204.472 361.783 204.364 362.004 204.152C362.228 203.942 362.336 203.669 362.336 203.326C362.336 202.985 362.228 202.721 362.004 202.517C361.777 202.31 361.411 202.205 360.917 202.205H352.979V197.198H361.576C362.095 197.198 362.478 197.088 362.714 196.875C362.946 196.662 363.057 196.384 363.057 196.026C363.057 195.677 362.946 195.405 362.714 195.192C362.478 194.979 362.095 194.868 361.576 194.868H351.81ZM361.862 213.131H351.81C350.936 213.131 350.289 212.924 349.886 212.518C349.486 212.112 349.281 211.465 349.281 210.602V196.875C349.281 196.307 349.369 195.83 349.542 195.462C349.727 195.07 350.019 194.778 350.411 194.599C350.783 194.431 351.251 194.346 351.81 194.346H361.576C362.231 194.346 362.731 194.499 363.066 194.806C363.409 195.118 363.582 195.53 363.582 196.026C363.582 196.534 363.409 196.949 363.066 197.261C362.731 197.567 362.231 197.721 361.576 197.721H353.504V201.682H360.917C361.544 201.682 362.03 201.833 362.356 202.131C362.691 202.435 362.858 202.838 362.858 203.326C362.858 203.814 362.694 204.22 362.367 204.532C362.044 204.838 361.556 204.997 360.917 204.997H353.504V209.666H361.862C362.509 209.666 363.012 209.825 363.355 210.14C363.704 210.46 363.88 210.889 363.88 211.411C363.88 211.916 363.704 212.336 363.352 212.657C363.012 212.972 362.509 213.131 361.862 213.131Z" fill="#B2B2ED"/>
<path d="M300.211 66.6453C300.211 59.6501 305.881 53.9795 312.874 53.9795C319.87 53.9795 325.54 59.6501 325.54 66.6453C325.54 73.6404 319.87 79.311 312.874 79.311C305.881 79.311 300.211 73.6404 300.211 66.6453Z" fill="url(#paint1_linear_2252_2400)"/>
<path d="M300.211 152.645C300.211 145.649 305.881 139.979 312.874 139.979C319.87 139.979 325.54 145.649 325.54 152.645C325.54 159.64 319.87 165.311 312.874 165.311C305.881 165.311 300.211 159.64 300.211 152.645Z" fill="url(#paint2_linear_2252_2400)"/>
<path d="M269.877 122.312C262.881 122.312 257.211 116.641 257.211 109.646C257.211 102.65 262.881 96.9795 269.877 96.9795C276.873 96.9795 282.543 102.65 282.543 109.646C282.543 116.641 276.873 122.312 269.877 122.312Z" fill="url(#paint3_linear_2252_2400)"/>
<path d="M355.877 122.312C348.881 122.312 343.211 116.641 343.211 109.646C343.211 102.65 348.881 96.9795 355.877 96.9795C362.873 96.9795 368.543 102.65 368.543 109.646C368.543 116.641 362.873 122.312 355.877 122.312Z" fill="url(#paint4_linear_2252_2400)"/>
<path d="M291.428 149.006C286.482 153.953 278.461 153.953 273.515 149.006C268.568 144.059 268.568 136.042 273.515 131.095C278.461 126.149 286.482 126.149 291.428 131.095C296.372 136.042 296.372 144.059 291.428 149.006Z" fill="url(#paint5_linear_2252_2400)"/>
<path d="M352.239 88.1959C347.292 93.1423 339.272 93.1423 334.325 88.1959C329.381 83.2498 329.381 75.2302 334.325 70.2838C339.272 65.3377 347.292 65.3377 352.239 70.2838C357.185 75.2302 357.185 83.2498 352.239 88.1959Z" fill="url(#paint6_linear_2252_2400)"/>
<path d="M273.515 88.1959C268.568 83.2498 268.568 75.2302 273.515 70.2838C278.461 65.3377 286.482 65.3377 291.428 70.2838C296.372 75.2302 296.372 83.2498 291.428 88.1959C286.482 93.1423 278.461 93.1423 273.515 88.1959Z" fill="url(#paint7_linear_2252_2400)"/>
<path d="M334.325 149.006C329.381 144.059 329.381 136.042 334.325 131.095C339.272 126.149 347.292 126.149 352.239 131.095C357.185 136.042 357.185 144.059 352.239 149.006C347.292 153.953 339.272 153.953 334.325 149.006Z" fill="url(#paint8_linear_2252_2400)"/>
<path d="M483.275 1.29443C484.992 40.2575 481.527 72.2743 477.792 94.9714C470.149 141.403 464.865 173.515 440.066 205.003C412.753 239.689 377.34 253.837 359.898 260.807C346.451 266.179 333.657 269.429 318.094 271.926H476.251C487.112 271.926 495.915 263.123 495.915 252.262V19.6598C495.915 11.276 490.665 4.12223 483.275 1.29443Z" fill="#FCFCFC"/>
<path d="M426.339 228.32H199.414V239.19H426.339V228.32Z" fill="#DCDCF7"/>
<path d="M312.875 228.32H199.414V239.19H312.875V228.32Z" fill="url(#paint9_linear_2252_2400)"/>
<path d="M495.909 19.6599C495.909 8.80079 487.105 -0.00244141 476.244 -0.00244141H149.501C138.639 -0.00244141 129.836 8.80079 129.836 19.6599V33.6073H495.909V19.6599Z" fill="url(#paint10_linear_2252_2400)"/>
<path d="M443.172 16.8746C443.172 14.5568 445.051 12.6777 447.369 12.6777C449.688 12.6777 451.567 14.5568 451.567 16.8746C451.567 19.1924 449.688 21.0714 447.369 21.0714C445.051 21.0714 443.172 19.1924 443.172 16.8746Z" fill="white"/>
<path d="M426.336 16.8746C426.336 14.5568 428.218 12.6777 430.533 12.6777C432.852 12.6777 434.731 14.5568 434.731 16.8746C434.731 19.1924 432.852 21.0714 430.533 21.0714C428.218 21.0714 426.336 19.1924 426.336 16.8746Z" fill="white"/>
<path d="M468.4 16.8746C468.4 14.5568 466.521 12.6777 464.205 12.6777C461.887 12.6777 460.008 14.5568 460.008 16.8746C460.008 19.1924 461.887 21.0714 464.205 21.0714C466.521 21.0714 468.4 19.1924 468.4 16.8746Z" fill="white"/>
<path d="M668.914 292.243C668.92 292.229 668.925 292.221 668.931 292.207C668.925 292.218 668.92 292.229 668.914 292.243Z" fill="#E2E2FC"/>
<path d="M669.07 291.957C669.079 291.943 669.085 291.931 669.09 291.917C669.085 291.931 669.076 291.945 669.07 291.957Z" fill="#E2E2FC"/>
<path d="M669.273 291.565C669.282 291.551 669.29 291.534 669.296 291.52C669.288 291.534 669.282 291.551 669.273 291.565Z" fill="#E2E2FC"/>
<path d="M669.312 291.497C669.321 291.48 669.329 291.463 669.338 291.449C669.329 291.466 669.321 291.48 669.312 291.497Z" fill="#E2E2FC"/>
<path d="M669.422 291.287C669.49 291.157 669.555 291.029 669.621 290.898C669.555 291.029 669.49 291.16 669.422 291.287Z" fill="#E2E2FC"/>
<path d="M7.48446 330.978C-0.295139 336.655 -0.898769 350.961 0.826302 359.238C1.29576 361.476 2.22724 365.661 5.77425 369.129C11.0389 374.278 19.6494 375.473 26.4826 372.528C34.9515 368.877 45.1193 360.341 44.0649 352.382C42.3249 339.282 13.2223 326.792 7.48446 330.978Z" fill="#2F40A5"/>
<path d="M54.5264 370.559C51.8252 368.949 49.7088 367.958 47.1082 366.734C43.4121 364.99 43.2966 364.922 42.8197 364.879C40.0104 364.622 36.8584 366.342 35.4016 368.82C32.3538 374.001 35.2451 381.68 39.8055 382.265C45.9942 383.059 47.0188 377.226 51.3408 374.108C52.7156 373.118 58.2895 374.58 57.4251 372.877C57.1195 372.276 56.6986 371.851 54.5264 370.559Z" fill="#0F2251"/>
<path d="M37.9336 264.041C35.7764 264.697 34.1333 266.982 33.7607 267.524C33.2949 268.209 32.3448 269.596 32.3411 270.732C32.3262 275.854 51.533 281.75 53.4704 278.432C54.0964 277.356 52.7588 275.569 50.5829 272.657C48.9733 270.507 42.9896 262.504 37.9336 264.041Z" fill="#F7B000"/>
<path d="M39.925 365.343C37.5777 364.81 30.357 360.619 29.202 362.824C26.4635 368.064 35.1522 382.356 39.8096 382.265C43.5466 382.192 44.0347 376.077 44.098 375.426C44.4557 371.941 43.4012 366.13 39.925 365.343Z" fill="#C1BAB8"/>
<path d="M62.2746 278.661C58.6307 277.079 55.1321 277.231 51.3914 275.073C46.4472 272.22 42.427 267.567 39.886 264.402C38.5111 262.69 36.1862 260.042 36.4023 261.102C40.3703 280.677 15.992 280.079 13.8534 282.184C12.7542 283.266 10.7796 285.183 10.556 287.867C10.3138 290.71 12.2177 292.228 14.2222 295.933C16.3087 299.796 16.9421 303.135 17.5196 306.199C18.8237 313.083 17.6389 318.992 16.7856 323.064C15.1314 330.974 12.9852 332.807 14.4048 335.713C16.4801 339.966 23.3021 340.612 25.7686 340.846C31.6369 341.402 61.3469 339.765 63.7166 333.146C64.2084 331.771 65.4826 323.452 65.5497 321.414C65.6652 318.026 66.5855 304.43 67.7517 291.35C68.2212 286.063 68.8023 283.695 66.6637 281.178C65.6987 280.042 64.7299 279.727 62.2746 278.661Z" fill="#F9EFEF"/>
<path d="M93.341 362.438C87.2194 365.094 84.1158 364.664 83.0316 365.253C82.6292 365.471 78.7654 365.608 78.717 369.437C78.6648 373.493 74.9166 378.116 88.6129 378.092C89.3208 378.091 91.5973 377.866 96.1466 377.165C100.711 376.461 103.527 375.997 107.119 374.692C111.557 373.079 116.989 368.822 114.385 362.438C113.487 360.239 107.917 356.113 93.341 362.438Z" fill="#0F2251"/>
<path d="M74.5218 298.866C71.0567 288.605 71.9807 286.36 67.3942 281.502C65.8964 279.917 62.6921 277.242 60.505 278.482C55.5012 281.32 59.0371 297.987 60.4044 304.365C62.7927 315.485 71.2914 331.365 74.6894 332.604C74.9092 332.684 84.4363 327.212 84.8871 326.751C85.5988 326.017 80.3751 313.682 77.8228 307.482C76.7312 304.836 75.6544 302.221 74.5218 298.866Z" fill="#0796CA"/>
<path d="M67.6445 294.278C66.8919 292.78 63.5535 298.518 60.0214 302.554C60.163 303.22 60.2933 303.83 60.4051 304.365C62.7934 315.485 71.2921 331.365 74.6901 332.604C74.7534 332.628 75.67 332.147 76.9219 331.452C63.8367 319.888 71.8361 302.642 67.6445 294.278Z" fill="#067EB4"/>
<path d="M48.8586 270.345C48.5084 267.499 48.7692 264.374 48.1619 261.915C46.7051 256.044 38.2735 253.046 35.7809 255.104C34.2794 256.342 36.8465 262.909 35.4977 268.19C33.8546 274.652 29.5736 272.532 28.1317 273.426C26.1048 274.679 30.8813 277.328 33.3069 278.913C36.7197 281.141 43.6834 289.477 47.0553 287.918C52.849 285.237 52.3199 276.022 51.3959 275.073C50.6955 274.352 49.4286 274.994 48.8586 270.345Z" fill="#EB8E6C"/>
<path d="M66.0941 280.35C65.1291 279.215 64.1493 278.85 61.694 277.784C60.1962 277.133 54.3502 275.131 52.5954 274.332C52.7332 282.444 53.3406 284.839 52.9121 288.918C52.0291 297.36 53.2474 305.539 53.471 321.741C53.5641 328.545 53.0611 337.569 53.0164 341.564C58.024 340.36 62.5881 341.194 63.3854 338.976C63.8773 337.601 65.2261 330.763 65.2931 328.725C65.4086 325.336 67.633 309.642 67.1933 291.35C67.0667 286.044 68.2328 282.867 66.0941 280.35Z" fill="#0796CA"/>
<path d="M33.3941 276.872C32.2391 275.058 31.0505 273.42 29.8806 271.944C23.6808 277.557 10.7633 281.995 9.97338 284.968C9.57845 286.459 10.2193 285.136 9.99576 287.82C9.75731 290.663 11.6574 292.18 13.6619 295.885C15.7522 299.749 16.3819 303.088 16.9631 306.152C18.2634 313.036 17.0823 318.945 16.2291 323.017C14.5711 330.928 12.4287 332.76 13.8445 335.666C15.9198 339.919 22.7419 340.565 25.2121 340.799C27.4849 341.015 33.3495 340.9 39.8138 340.293C39.9219 336.336 40.1305 331.314 40.5441 325.544C41.6916 309.509 43.0031 299.519 41.8704 291.859C41.5351 289.582 40.0038 287.243 33.3941 276.872Z" fill="#0796CA"/>
<path d="M53.4176 277.689C53.2612 277.679 53.1307 277.792 53.1158 277.946C53.0003 279.367 52.4749 283.882 50.3735 286.634C49.8109 287.374 48.8646 288.612 47.2327 289.071C46.8862 289.169 46.5284 289.225 46.1633 289.243C46.0143 289.25 45.8988 289.374 45.8988 289.522V289.813H45.9286C46.4279 289.813 46.9159 289.746 47.3854 289.615C49.1999 289.104 50.217 287.773 50.8244 286.976C52.9928 284.135 53.5443 279.683 53.6784 277.992C53.6933 277.834 53.5741 277.699 53.4176 277.689Z" fill="#D0C4C4"/>
<path d="M53.3623 274.062C51.9949 272.741 48.8056 269.916 48.8056 270.625C48.8056 271.818 51.4994 274.332 52.5948 280.586C52.9525 282.614 52.5687 294.119 52.6209 293.555C52.6209 293.555 57.1963 289.158 56.9168 286.946C56.7641 285.751 55.4898 284.895 55.732 284.577C55.9779 284.251 57.2148 285.268 57.8035 284.873C58.7909 284.213 57.2671 280.09 55.732 277.32C54.6366 275.346 53.7386 274.427 53.3623 274.062Z" fill="#067EB4"/>
<path d="M100.658 324.929C96.9138 326.151 94.2722 327.354 94.1641 327.402C84.7153 331.706 67.8931 337.709 60.7841 339.765C38.9208 346.091 24.837 339.423 24.0024 342.547C22.8772 346.782 47.7101 362.908 74.3835 359.238C78.4596 358.677 92.3347 356.575 103.129 345.638C111.273 337.387 116.389 324.771 113.658 322.122C112.059 320.572 107.573 322.673 100.658 324.929Z" fill="#2F40A5"/>
<path d="M118.277 322.147C117.689 321.9 115.17 320.911 111.787 321.529C105.926 322.6 97.9565 332.323 78.4069 344.711C54.472 359.874 52.6612 362.029 53.0598 363.874C54.0546 368.444 68.1272 368.796 69.4424 368.819C82.1551 369.053 115.893 347.656 120.751 341.929C129.451 331.674 121.582 323.529 118.277 322.147Z" fill="#3845B8"/>
<path d="M51.3396 347.075V348.579L74.7491 359.302L100.469 348.029L95.5208 335.93L51.3396 347.075Z" fill="#7193D8"/>
<path d="M112.82 360.658C113.334 361.919 113.759 363.709 113.286 365.693C112.607 368.544 110.469 370.112 109.15 371.081C106.538 372.999 103.896 373.523 102.883 373.713C98.777 374.483 90.7441 375.629 80.0509 376.817C81.5449 377.615 84.153 378.1 88.6129 378.093C89.3208 378.091 91.5973 377.866 96.1466 377.165C100.711 376.461 103.527 375.997 107.119 374.692C111.557 373.08 116.989 368.822 114.385 362.438C114.165 361.9 113.666 361.246 112.82 360.658Z" fill="#0F2251"/>
<path d="M51.4256 346.895L73.8925 357.619L100.555 346.346L95.6031 334.247L51.4256 346.895Z" fill="#1F2B54"/>
<path d="M89.845 365.729C89.6028 365.751 89.0552 365.878 87.9635 366.132C85.6199 366.677 85.0647 366.965 83.973 366.965C83.4589 366.965 82.7696 366.9 81.6109 366.517C78.5557 365.506 76.1785 363.581 74.3901 362.328C70.7239 359.762 68.8908 358.479 66.972 358.619C62.3556 358.96 57.445 367.142 59.5538 371.292C60.6455 373.439 62.6425 372.592 73.4624 375.31C79.4908 376.824 83.6787 377.815 87.9895 377.474C91.231 377.218 92.8854 375.922 93.4554 375.421C93.8578 375.067 94.1149 374.76 94.1707 374.692C95.3518 373.276 96.6895 370.475 95.4078 368.201C94.2304 366.108 91.4657 365.582 89.845 365.729Z" fill="#EB8E6C"/>
<path d="M40.2209 268.112C37.7916 266.647 36.3945 263.651 35.8654 263.191C35.7834 263.309 35.9399 264.317 35.9027 264.448C36.4243 266.299 39.6509 274.101 49.8672 273.92C49.2971 273.023 48.9841 271.52 48.8574 270.345C45.0347 270.323 42.2664 269.346 40.2209 268.112Z" fill="#C36252"/>
<path d="M52.1166 242.755C48.6403 240.581 44.7879 241.614 43.7744 241.928C39.3854 243.289 37.2467 247.008 36.4009 248.485C33.4165 253.67 34.3405 258.831 34.605 260.194C35.4359 264.477 41.9674 273.621 48.2343 271.382C50.3543 270.625 51.6732 269.379 52.8879 267.333C54.5086 264.608 54.2926 262.048 54.993 259.524C55.8313 256.501 56.1405 254.206 56.1517 252.695C56.1629 251.668 56.8074 245.692 52.1166 242.755Z" fill="#EB8E6C"/>
<path d="M48.7192 255.671C48.0299 255.419 47.322 255.215 46.6104 255.063C45.474 254.821 44.3115 254.708 43.1491 254.725C42.8584 254.729 42.6274 254.972 42.6386 255.262V255.262C42.6535 255.535 42.8808 255.751 43.1528 255.747C44.2445 255.731 45.3324 255.836 46.398 256.063C47.0649 256.205 47.7281 256.396 48.3727 256.633C48.6298 256.727 48.913 256.598 49.0173 256.345C49.1253 256.076 48.9912 255.771 48.7192 255.671Z" fill="#49302A"/>
<path d="M50.8265 257.35C50.6849 257.331 50.562 257.42 50.5471 257.549C50.4651 258.465 50.4316 259.398 50.4502 260.326C50.4614 260.77 50.4801 261.146 50.495 261.477C50.5434 262.4 50.5695 262.863 50.29 263.118C49.951 263.431 49.1871 263.389 48.129 263.003C47.9986 262.956 47.8571 263.01 47.8086 263.125C47.7602 263.246 47.831 263.387 47.9651 263.437C48.17 263.511 48.3675 263.575 48.5538 263.626C49.5337 263.897 50.2379 263.841 50.6589 263.456C51.0874 263.064 51.0575 262.501 51.0054 261.479C50.9867 261.15 50.9681 260.778 50.957 260.341C50.9383 259.429 50.9719 258.512 51.0538 257.611C51.065 257.485 50.9644 257.368 50.8265 257.35Z" fill="#C36252"/>
<path d="M46.3874 256.475C45.9962 256.408 45.5938 256.852 45.4895 257.465C45.3852 258.079 45.6199 258.631 46.0111 258.698C46.406 258.764 46.8084 258.321 46.9127 257.707C47.0171 257.094 46.7824 256.542 46.3874 256.475Z" fill="#49302A"/>
<path d="M52.9343 257.626C52.5431 257.56 52.1369 258.003 52.0326 258.617C51.9282 259.23 52.163 259.782 52.558 259.848C52.9492 259.915 53.3553 259.472 53.4596 258.858C53.5639 258.245 53.3292 257.693 52.9343 257.626Z" fill="#49302A"/>
<path d="M55.2087 256.55C54.5791 256.401 53.9345 256.304 53.2862 256.259C52.7944 256.225 52.3026 256.222 51.8257 256.251C51.5873 256.266 51.3935 256.516 51.3972 256.804C51.4009 257.076 51.5835 257.281 51.8108 257.267C52.2579 257.24 52.7199 257.243 53.1856 257.275C53.7967 257.317 54.4077 257.41 55.0075 257.551C55.2236 257.602 55.4509 257.428 55.5143 257.162C55.5813 256.88 55.4435 256.604 55.2087 256.55Z" fill="#49302A"/>
<path d="M31.9462 274.762C32.1437 276.633 32.0953 278.167 31.7636 279.397C30.9067 282.578 29.8523 282.676 29.7852 285.889C29.7256 288.693 35.9403 288.622 38.5298 287.119C38.8465 286.935 39.3682 287.055 39.7109 286.981C38.4441 284.83 36.4694 281.744 33.3918 276.919C32.9149 276.17 32.4306 275.452 31.9462 274.762Z" fill="#0470A1"/>
<path d="M23.1631 290.618C21.2033 289.183 15.9908 286.636 10.0071 286.282C10.0556 286.541 10.0742 286.989 9.99966 287.867C9.7612 290.71 11.6613 292.227 13.6658 295.932C15.7561 299.796 16.3858 303.135 16.967 306.199C18.2673 313.083 17.0862 318.992 16.233 323.064C14.575 330.974 12.4326 332.807 13.8484 335.713C15.8194 339.754 22.0789 340.538 24.8137 340.807C34.7096 318.756 34.0463 298.587 23.1631 290.618Z" fill="#067EB4"/>
<path d="M50.4688 265.935L49.8168 265.922C48.8779 265.901 47.9278 265.763 46.9963 265.51L45.7854 265.182C45.5097 265.107 45.2973 265.335 45.4091 265.582C45.7444 266.32 47.0708 267.375 48.3376 267.575C49.6007 267.774 50.4129 267.064 50.8153 266.449C50.9532 266.239 50.7483 265.942 50.4688 265.935Z" fill="#FEFDFB"/>
<path d="M43.0076 258.913C42.0053 258.608 41.0367 258.87 40.8429 259.498C40.6529 260.126 41.3124 260.883 42.3183 261.188C43.3243 261.493 44.293 261.231 44.483 260.603C44.673 259.975 44.0136 259.218 43.0076 258.913Z" fill="#DD8064"/>
<path d="M52.7482 239.429C41.4365 232.081 35.0355 241.407 35.0355 241.407C35.0355 241.407 26.2797 243.379 29.9944 254.724C29.9944 254.724 33.2955 263.136 35.0355 263.191C35.803 263.215 33.0906 254.641 34.6293 253.673C35.2776 253.266 37.4387 253.77 38.1317 254.724C39.2346 256.244 40.4044 257.347 40.3299 253.082C40.2815 250.421 40.3746 250.17 41.1235 249.374C41.9991 248.44 48.6088 251.606 50.319 252.276C55.2669 254.215 60.2782 252.76 61.0084 248.949C62.3721 241.871 59.9988 244.136 52.7482 239.429Z" fill="#1C2546"/>
<path d="M35.4884 253.244C34.393 253.362 33.6776 254.937 33.4727 255.97C32.9734 258.436 34.665 261.311 35.8721 261.17C37.2097 261.014 38.674 257.044 37.4817 254.733C37.4407 254.651 36.6247 253.122 35.4884 253.244Z" fill="#EB8E6C"/>
<path d="M35.835 258.98C35.8723 259.035 35.8984 259.076 35.8984 259.076C35.8984 259.071 35.8723 259.037 35.835 258.98Z" fill="#C36252"/>
<path d="M36.5034 255.823C35.9631 255.556 35.3409 255.805 35.0354 256.175C34.4951 256.822 34.7075 257.96 35.054 258.738C35.1994 259.062 35.4787 259.577 35.8252 259.636C35.8625 259.642 36.2724 259.662 35.8998 259.077C35.87 259.032 35.8476 258.995 35.8215 258.958C35.7954 258.915 35.7582 258.862 35.7209 258.799C35.5495 258.533 35.6167 258.635 35.7098 258.785C35.5682 258.551 35.3819 258.197 35.2925 257.801C35.1658 257.243 35.2068 256.787 35.4043 256.549C35.5868 256.331 35.9743 256.189 36.2798 256.34C36.5033 256.451 36.6561 256.697 36.7046 256.998C36.7232 257.133 36.82 257.234 36.943 257.235C37.1032 257.235 37.2337 257.071 37.2076 256.895C37.1368 256.412 36.8797 256.01 36.5034 255.823Z" fill="#C36252"/>
<path d="M35.821 258.958L35.8359 258.98C35.7987 258.923 35.754 258.85 35.7093 258.785L35.7204 258.799C35.7465 258.841 35.78 258.896 35.821 258.958Z" fill="#C36252"/>
<path d="M37.583 254.873C37.6388 255.024 37.5644 255.202 37.419 255.257C37.2961 255.305 37.162 255.242 37.1099 255.111C36.972 254.749 36.6813 254.217 36.1225 253.968C35.966 253.897 35.5971 253.732 35.1947 253.881C34.8147 254.021 34.606 254.368 34.4533 254.622C34.0658 255.263 33.8795 256.043 33.9019 256.941C33.9428 258.61 34.7066 260.073 35.1984 260.245C35.3512 260.298 35.381 260.445 35.4146 260.615C35.5077 261.079 35.6567 261.517 36.0963 261.593H36.1001C36.3199 261.63 36.4206 261.588 36.5249 261.244C36.5659 261.102 36.7 261.013 36.8304 261.045C36.9757 261.081 37.0577 261.246 37.0093 261.405C36.89 261.805 36.644 262.26 36.0032 262.152C35.1686 262.01 34.9823 261.099 34.9153 260.756L34.9115 260.731C34.2036 260.347 33.4361 258.745 33.3876 256.976C33.3578 255.707 33.7193 254.831 34.0286 254.319C34.2037 254.031 34.4943 253.55 35.0457 253.346C35.6307 253.129 36.1411 253.357 36.3311 253.443C37.0428 253.762 37.4078 254.425 37.583 254.873Z" fill="#C36252"/>
<path d="M36.4155 257.208C36.1211 257.426 36.069 257.838 36.0466 258.04C35.9907 258.482 36.1062 258.915 36.1844 258.911C36.2888 258.905 36.1621 258.117 36.6279 257.58C36.8663 257.302 37.1383 257.239 37.1159 257.152C37.0935 257.05 36.6986 257.001 36.4155 257.208Z" fill="#C36252"/>
<path d="M77.4541 341.607C76.1985 341.044 76.2246 341.174 74.5629 340.476C73.3557 339.969 72.9906 339.753 72.1746 339.596C71.5934 339.484 71.1649 339.477 70.416 339.47C68.7319 339.456 67.8899 339.449 66.8951 339.47C66.8951 339.47 64.3168 339.526 61.6192 339.093C60.0059 338.835 59.9873 338.588 56.9694 337.837C53.169 336.892 51.8352 336.758 48.7986 335.826C47.0735 335.296 46.1719 335.018 44.9051 334.444C42.8111 333.494 42.1666 332.839 39.6256 331.427C37.0584 330.001 35.7729 329.288 34.9756 329.291C30.825 329.309 26.2087 336.867 28.0642 339.973C28.7013 341.042 30.2475 341.607 33.3437 342.738C35.0874 343.376 36.4437 343.68 36.7343 343.743C39.5957 344.371 40.2217 343.968 43.7724 344.372C46.578 344.691 46.5408 344.983 50.058 345.377C51.4365 345.532 51.7011 345.516 53.9515 345.754C56.7608 346.052 58.1654 346.2 58.8547 346.382C61.8875 347.186 61.5708 348.264 64.5105 349.022C66.4927 349.533 66.7609 349.073 69.6597 349.775C70.4458 349.966 70.7029 350.067 72.9273 350.655C76.0644 351.485 76.4966 351.534 76.9512 351.284C77.7858 350.825 77.5287 350.006 78.4602 347.388C79.4364 344.643 80.3007 343.901 79.8425 342.989C79.6375 342.588 78.9109 342.261 77.4541 341.607Z" fill="#EB8E6C"/>
<path d="M85.9328 330.292C84.9715 326.834 84.476 325.093 83.6675 324.511C81.4618 322.915 78.1831 324.283 77.6353 324.511C75.0347 325.598 72.3856 328.28 72.8625 330.417C73.019 331.124 73.8871 331.894 75.6271 333.434C76.6107 334.305 77.1658 334.657 78.7679 336.073C79.5094 336.728 79.882 337.055 80.1503 337.33C82.5647 339.78 82.1771 341.542 83.6675 342.231C85.1429 342.911 87.412 342.069 88.0678 340.723C88.4701 339.896 88.1236 339.166 87.5647 337.33C86.6035 334.157 87.3076 335.245 85.9328 330.292Z" fill="#EB8E6C"/>
<path d="M72.8367 341.519L72.7734 341.695C73.4478 341.938 74.1221 342.192 74.7816 342.449C76 342.922 77.2258 343.429 78.4218 343.955L78.5 343.783C77.3003 343.256 76.0707 342.748 74.8524 342.273C74.1892 342.016 73.5111 341.762 72.8367 341.519Z" fill="#C36252"/>
<path d="M71.3126 343.652L71.2754 343.836C72.1212 344.024 72.9632 344.277 73.7755 344.586C74.9044 345.016 75.9998 345.562 77.0244 346.211L77.125 346.052C76.0892 345.397 74.9826 344.845 73.8425 344.41C73.0228 344.098 72.1696 343.843 71.3126 343.652Z" fill="#C36252"/>
<path d="M69.4314 346.292L69.3866 346.473C70.3144 346.717 71.2421 347.012 72.14 347.35C73.5186 347.868 74.8673 348.5 76.149 349.229L76.2422 349.066C74.9493 348.332 73.5932 347.695 72.2071 347.175C71.3018 346.834 70.3666 346.537 69.4314 346.292Z" fill="#C36252"/>
<path d="M82.5912 330.947L73.8951 357.619L105.874 348.179L116.344 323.083L115.405 322.331L82.5912 330.947Z" fill="#7193D8"/>
<path d="M39.9235 365.343C37.5762 364.81 30.3555 360.619 29.2005 362.824C28.8763 363.443 28.7162 364.19 28.6864 365.023C29.3682 365.174 30.1767 365.372 31.0783 365.63C33.8206 366.413 37.0696 367.341 39.5994 369.201C40.5048 369.866 42.5801 371.578 44.1338 375.011C44.3685 371.498 43.2656 366.1 39.9235 365.343Z" fill="#B5AFAE"/>
<path d="M74.7519 359.301L106.813 349.682L116.344 323.083L83.5301 331.698L74.7519 359.301Z" fill="#0C0C60"/>
<path d="M31.7074 326.234C27.8884 324.154 27.1134 324.355 26.5732 323.301C25.7982 321.78 28.4062 304.235 24.74 294.886C23.38 291.415 21.1558 282.335 16.6177 281.73C7.38872 280.499 7.6122 293.534 7.50788 295.436C7.36257 298.138 7.72405 300.164 8.60708 304.419C9.51619 308.785 9.97071 310.968 10.4402 312.851C14.2294 327.995 12.128 329.914 15.3919 334.483C19.6356 340.427 27.4785 343.178 28.7751 341.816C29.2297 341.336 28.5367 340.697 28.5888 338.699C28.6708 335.731 29.0807 329.851 36.8006 329.451C36.9944 329.442 35.791 328.459 31.7074 326.234Z" fill="#0796CA"/>
<path d="M59.5465 352.129C52.2624 348.667 43.8717 343.227 27.0942 332.347C24.5643 330.708 20.7565 328.195 15.6558 328.329C14.3033 328.364 9.31442 328.495 6.07664 332.347C2.64886 336.423 3.64364 341.74 3.9119 343.165C5.01848 349.08 9.38143 352.595 12.2578 354.91C15.775 357.746 19.0091 359.031 24.311 361.092C30.0488 363.322 32.5526 363.705 36.9826 365.11C53.164 370.239 59.3638 377.665 63.8759 374.692C64.472 374.297 65.5115 372.471 67.5831 368.819C70.1539 364.295 71.4357 362.033 71.2941 360.474C70.9513 356.796 65.5935 355.002 59.5465 352.129Z" fill="#3845B8"/>
<path d="M105.636 364.56C103.982 364.915 100.36 365.922 97.8975 366.606C96.9362 366.873 96.083 367.111 95.6806 367.215C95.5688 367.245 95.4496 367.22 95.3564 367.148C95.2521 367.065 95.1217 366.952 95.0062 366.853C93.9592 365.949 91.8206 364.099 87.9383 365.327C87.7333 365.392 87.6216 365.612 87.6924 365.814C87.7595 366.004 87.9644 366.107 88.1581 366.046C91.6418 364.941 93.5009 366.547 94.5144 367.422C94.9205 367.771 95.2 368.015 95.5055 368.015C95.5465 368.015 95.5837 368.011 95.6247 368.003C95.8296 367.961 96.6121 367.744 98.0987 367.331C100.554 366.648 104.176 365.642 105.789 365.295C105.99 365.252 106.117 365.06 106.079 364.86C106.042 364.652 105.841 364.515 105.636 364.56Z" fill="#7575D3"/>
<path d="M106.388 366.246C106.343 366.044 106.138 365.918 105.937 365.966C99.2158 367.551 96.958 368.291 96.332 369.097C96.2128 369.253 96.1755 369.486 96.0972 369.948C95.8886 371.206 95.4527 373.823 92.9601 375.557C90.3967 377.34 86.3356 377.736 80.8883 376.734C80.6834 376.697 80.4896 376.829 80.4486 377.032C80.4076 377.236 80.5455 377.435 80.7504 377.473C82.7438 377.84 84.562 378.023 86.2013 378.023C89.2118 378.023 91.6187 377.405 93.3885 376.174C96.1419 374.259 96.6114 371.431 96.8387 370.072C96.8648 369.925 96.8908 369.765 96.9132 369.653C96.9318 369.573 96.9728 369.502 97.0324 369.448C97.9117 368.688 101.943 367.679 106.109 366.698C106.31 366.651 106.437 366.448 106.388 366.246Z" fill="#7575D3"/>
<path d="M36.1372 277.962C33.6334 270.762 34.9151 268.119 35.1647 267.052C35.3845 266.126 35.8988 265.167 35.8988 265.167C35.8988 265.167 33.6409 266.351 32.1282 267.921C31.2489 268.836 30.731 269.374 30.2839 270.238C29.7138 271.343 29.5834 272.363 29.5611 274.81C29.5089 280.41 30.1572 280.164 29.9038 283.413C29.7734 285.117 29.5387 285.925 30.1125 286.53C31.1408 287.615 33.7116 286.927 34.7027 286.662C36.0515 286.301 36.5471 285.427 37.0985 285.694C37.6797 285.976 37.471 286.966 37.7728 288.084C38.4807 290.726 42.1619 294.591 42.1619 294.591C42.1619 294.591 42.9704 292.409 39.4569 286.206C37.4859 282.729 36.7967 279.862 36.1372 277.962Z" fill="#067EB4"/>
<path d="M26.3152 323.315C25.9687 323.249 25.6185 323.204 25.2683 323.18C23.7928 323.076 22.3174 323.341 20.8792 323.965C20.7376 324.028 20.6742 324.199 20.7413 324.342C20.8046 324.482 20.9686 324.541 21.1101 324.48C22.4626 323.894 23.8487 323.647 25.231 323.742C25.5551 323.765 25.8793 323.807 26.1997 323.868C26.3525 323.896 26.4978 323.804 26.5313 323.654C26.5685 323.5 26.4679 323.345 26.3152 323.315Z" fill="#067EB4"/>
<path d="M97.7628 337.918C96.9357 337.589 95.926 338.169 95.5125 339.212C95.0989 340.256 95.4342 341.368 96.2614 341.697C97.0885 342.026 98.0944 341.447 98.508 340.403C98.9253 339.359 98.5899 338.246 97.7628 337.918Z" fill="#2F2F7C"/>
<path d="M111.97 330.604C107.379 339.862 100.93 345.079 98.4335 347.052C90.4639 353.357 81.9019 356.044 75.4189 357.195L74.7519 359.302L106.813 349.683L116.344 323.083L114.794 323.49C114.138 325.644 113.233 328.059 111.97 330.604Z" fill="#090951"/>
<path d="M83.9051 331.698C83.756 331.65 83.5996 331.732 83.5511 331.88L78.6517 347.033C78.6032 347.181 78.6852 347.34 78.8342 347.388C78.9795 347.436 79.1397 347.354 79.1882 347.207L84.0876 332.053C84.1361 331.905 84.0541 331.746 83.9051 331.698Z" fill="#090949"/>
<path d="M96.2878 328.432L83.728 331.73C83.579 331.769 83.4895 331.923 83.5268 332.074C83.5678 332.225 83.7205 332.315 83.8733 332.275L96.4295 328.978C96.5822 328.938 96.6717 328.784 96.6307 328.633C96.5934 328.483 96.4369 328.393 96.2878 328.432Z" fill="#090949"/>
<path d="M36.7891 364.767C23.4095 361.341 13.5323 356.829 8.96441 352.053C8.91969 352.006 8.88241 351.967 8.84888 351.934L8.44646 352.329C8.47999 352.36 8.51354 352.398 8.55825 352.442C13.1969 357.294 23.1674 361.861 36.6476 365.313C36.7966 365.352 36.9531 365.261 36.9903 365.109C37.0313 364.959 36.9381 364.806 36.7891 364.767Z" fill="#1C1C70"/>
<path d="M71.5884 360.474C71.4393 360.461 71.3313 360.514 71.3089 360.66C70.8954 363.412 67.87 368.426 66.0369 371.46C65.6457 372.11 65.2992 372.685 65.0234 373.157C64.9452 373.293 64.9899 373.465 65.1278 373.543C65.2619 373.62 65.4333 373.575 65.5116 373.441C65.7835 372.972 66.13 372.399 66.5212 371.751C68.4922 368.487 71.4356 363.612 71.8641 360.748C71.8902 360.587 71.7486 360.489 71.5884 360.474Z" fill="#D87150"/>
<path d="M64.5957 360.554C64.4504 360.496 64.2865 360.565 64.2306 360.708C62.6956 364.438 60.6389 367.845 58.1165 370.837C57.58 371.47 57.0211 372.092 56.4436 372.689C56.3356 372.8 56.3393 372.977 56.4511 373.085C56.5628 373.194 56.7417 373.193 56.8498 373.08C57.4347 372.474 58.0047 371.843 58.5449 371.2C61.1083 368.163 63.1949 364.707 64.7523 360.924C64.8119 360.779 64.741 360.612 64.5957 360.554Z" fill="#1C1C70"/>
<path d="M104.661 350.477L81.5569 357.506C81.4079 357.551 81.3222 357.708 81.3669 357.857C81.4116 358.006 81.5719 358.09 81.7209 358.045L104.825 351.016C104.974 350.971 105.056 350.814 105.011 350.664C104.967 350.515 104.81 350.431 104.661 350.477Z" fill="#1D5E82"/>
<path d="M175.547 262.477H166.148V377.703H175.547V262.477Z" fill="#8181E2"/>
<path d="M268.094 262.477H258.695V377.703H268.094V262.477Z" fill="#8181E2"/>
<path d="M263.394 348.291H170.844V356.087H263.394V348.291Z" fill="#8181E2"/>
<path d="M286.553 268.714H147.641V297.745H286.553V268.714Z" fill="#404066"/>
<path d="M208.889 268.714L186.688 297.745H199.679L221.88 268.714H208.889Z" fill="url(#paint11_linear_2252_2400)"/>
<path d="M182.907 268.714L160.703 297.745H173.694L195.896 268.714H182.907Z" fill="url(#paint12_linear_2252_2400)"/>
<path d="M156.923 268.714L147.641 280.85V297.745H147.712L169.914 268.714H156.923Z" fill="url(#paint13_linear_2252_2400)"/>
<path d="M260.85 268.714L238.648 297.745H251.64L273.841 268.714H260.85Z" fill="url(#paint14_linear_2252_2400)"/>
<path d="M286.556 269.079L264.633 297.745H277.624L286.556 286.065V269.079Z" fill="url(#paint15_linear_2252_2400)"/>
<path d="M234.866 268.714L212.664 297.745H225.655L247.857 268.714H234.866Z" fill="url(#paint16_linear_2252_2400)"/>
<path d="M286.553 305.575H147.641V334.605H286.553V305.575Z" fill="#404066"/>
<path d="M208.889 305.575L186.688 334.605H199.679L221.88 305.575H208.889Z" fill="url(#paint17_linear_2252_2400)"/>
<path d="M182.907 305.575L160.703 334.605H173.694L195.896 305.575H182.907Z" fill="url(#paint18_linear_2252_2400)"/>
<path d="M156.923 305.575L147.641 317.713V334.605H147.712L169.914 305.575H156.923Z" fill="url(#paint19_linear_2252_2400)"/>
<path d="M260.85 305.575L238.648 334.605H251.64L273.841 305.575H260.85Z" fill="url(#paint20_linear_2252_2400)"/>
<path d="M286.556 305.939L264.633 334.605H277.624L286.556 322.926V305.939Z" fill="url(#paint21_linear_2252_2400)"/>
<path d="M234.866 305.575L212.664 334.605H225.655L247.857 305.575H234.866Z" fill="url(#paint22_linear_2252_2400)"/>
<path d="M517.737 215.195C520.575 214.783 522.993 226.061 523.878 238.347C524.256 243.575 520.768 252.296 519.97 255.88C519.02 260.143 517.41 262.411 517.43 267.073C517.442 269.903 518.046 271.909 518.353 273.079C520.915 282.816 518.841 295.263 518.353 298.195C516.925 306.777 514.484 316.242 514.331 322.128C514.266 324.572 515.407 331.36 515.1 333.216C514.788 335.103 512.484 336.179 510.962 338.049C510.551 338.557 508.527 340.987 504.954 342.689C504.412 342.948 502.675 341.563 504.852 337.953C505.576 336.752 507.852 327.39 508.19 324.946C509.095 318.41 508.84 312.008 508.652 307.748C507.965 292.113 504.001 273.706 503.703 268.532C503.532 265.615 506.319 247.494 508.184 234.416C510.656 217.051 517.144 215.28 517.737 215.195Z" fill="#F7A594"/>
<path d="M460.457 178.198C460.128 179.68 461.064 180.94 466.352 186.647C470.336 190.949 472.939 193.617 476.571 196.867C479.509 199.492 483.831 202.582 486.3 203.405C487.577 203.831 487.092 202.73 489.541 202.171C492.884 201.41 495.947 198.442 496.616 195.686C498.722 186.987 479.273 170.76 466.352 174.069C465.597 174.265 461.073 175.423 460.457 178.198Z" fill="#600DCE"/>
<path d="M515.025 306.016C516.086 300.581 517.111 296.296 517.301 290.592C517.417 287.209 517.196 284.527 517.128 283.758C516.926 281.499 516.634 279.813 516.251 277.622C515.274 272.057 514.698 271.075 514.673 268.157C514.656 266.321 514.869 264.854 515.198 263.074C516.682 255.105 519.245 248.092 519.407 247.65C520.593 244.394 522.029 239.984 523.357 234.416C523.604 235.707 523.786 237.021 523.879 238.347C524.257 243.574 520.769 252.296 519.971 255.88C519.021 260.143 517.411 262.41 517.431 267.073C517.443 269.903 518.047 271.909 518.354 273.078C520.916 282.816 518.842 295.263 518.354 298.195C516.926 306.777 514.485 316.242 514.332 322.128C514.267 324.571 515.408 331.36 515.101 333.216C515.056 333.497 514.965 333.761 514.837 334.01C512.74 328.136 512.451 323.348 512.746 319.69C513.018 316.293 514.003 311.25 515.025 306.016Z" fill="#ED8974"/>
<path d="M526.207 229.401C530.018 226.626 538.141 224.054 541.856 232.648C544.18 238.023 545.284 252.886 545.38 257.517C545.468 261.965 545.031 265.322 545.84 271.441C546.235 274.415 546.794 277.06 546.995 277.991C547.938 282.324 548.968 285.412 549.305 286.454C551.4 292.888 554.607 302.735 555.543 313.753C555.739 316.071 556.233 322.514 556.605 327.648C556.713 329.129 557.817 330.801 558.103 332.169C559.091 336.882 560.408 342.578 559.701 343.782C559.193 344.65 557.626 344.48 556.698 344.054C556.375 343.907 553.659 346.381 552.061 342.72C551.122 340.563 550.333 331.51 550.333 331.51C550.086 330.591 544.668 318.739 541.22 307.475C539.971 303.394 537.789 292.93 536.37 284.271C536.063 282.393 535.771 280.63 535.215 278.266C534.329 274.492 533.333 271.554 531.982 267.89C529.102 260.083 528.897 260.591 527.362 256.152C525.384 250.445 522.725 241.86 522.798 235.73C522.849 231.612 523.973 231.027 526.207 229.401Z" fill="#F7A594"/>
<path d="M545.383 257.517C545.471 261.965 545.034 265.322 545.843 271.441C546.237 274.415 546.796 277.06 546.998 277.991C547.94 282.325 548.97 285.412 549.308 286.454C551.402 292.888 554.609 302.736 555.546 313.753C555.742 316.071 556.235 322.514 556.607 327.648C556.715 329.129 557.819 330.801 558.106 332.169C559.093 336.883 560.41 342.578 559.704 343.782C559.624 343.918 559.519 344.023 559.394 344.111C558.795 340.881 557.816 336.323 556.213 330.906C555.242 327.622 555.16 327.801 554.638 325.823C552.719 318.555 553.948 316.517 552.708 308.119C551.905 302.676 550.593 298.155 549.728 295.501C548.559 291.903 548.346 292.158 546.748 287.439C545.601 284.044 544.256 280.023 543.243 274.642C542.48 270.584 542.241 267.575 542.193 266.928C541.963 263.937 542.054 262.379 542.017 259.217C541.969 255.088 541.759 252.752 541.492 248.524C541.251 244.712 540.941 238.999 540.609 230.38C541.063 231.03 541.483 231.782 541.858 232.648C544.182 238.023 545.286 252.886 545.383 257.517Z" fill="#ED8974"/>
<path d="M501.669 342.496C502.12 341.71 502.489 341.183 502.918 340.567C504.308 338.563 504.737 337.893 504.85 337.953C505.055 338.061 503.397 339.863 504.112 340.76C504.635 341.415 506.411 340.99 507.348 340.604C508.344 340.195 509.175 339.951 510.529 337.612C512.553 334.113 513.347 330.815 513.484 330.228C514.185 327.222 514.114 325.423 514.732 325.344C515.456 325.25 516.347 327.605 516.438 327.844C516.673 328.471 516.94 329.175 516.892 330.114C516.835 331.156 516.421 331.891 515.867 332.842C515.271 333.869 515.064 333.912 513.938 335.455C512.976 336.769 512.479 337.462 512.005 338.52C511.494 339.667 511.287 340.635 511.21 341.021C511.085 341.671 511.048 342.409 510.983 343.862C510.881 346.126 510.943 346.475 510.643 347.157C510.495 347.489 510.68 349.2 503.145 348.632C502.361 348.573 501.893 348.465 501.555 348.065C501.314 347.781 500.772 344.829 500.871 344.202C500.942 343.768 501.184 343.339 501.669 342.496Z" fill="#081C5E"/>
<path d="M516.474 329.51C516.696 329.649 516.307 330.213 515.226 334.507C514.897 335.804 514.715 336.613 514.581 337.649C514.411 338.949 514.391 340.005 514.391 340.53C514.391 343.578 514.289 345.11 514.278 345.527C514.266 345.899 513.179 345.967 513.179 345.604C513.179 345.261 512.981 343.964 513.066 340.566C513.092 339.59 513.074 338.972 512.916 338.219C512.677 337.09 512.314 336.573 512.158 336.097C511.287 333.452 515.813 329.087 516.474 329.51Z" fill="#081C5E"/>
<path d="M550.334 331.51C550.465 331.496 550.706 332.569 550.825 333.327C550.973 334.272 550.973 334.984 550.975 335.336C550.984 336.114 551.015 338.131 551.506 340.144C551.866 341.611 552.059 342.354 552.758 342.908C553.686 343.649 554.855 343.552 555.786 343.475C556.558 343.413 558.553 343.251 559.231 341.923C559.543 341.316 559.538 340.547 559.535 340.371C559.529 339.749 559.373 339.292 559.308 339.085C558.97 338.024 559.106 337.672 558.814 335.677C558.439 333.094 557.911 331.607 557.982 331.587C558.068 331.561 558.939 333.605 559.345 336.207C559.506 337.232 559.467 337.527 559.725 339.085C559.918 340.254 559.992 340.408 560.253 341.886C560.534 343.47 560.676 344.262 560.71 345.144C560.727 345.607 560.67 346.387 560.557 347.945C560.409 350.011 560.315 350.451 559.952 350.823C559.631 351.149 559.177 351.246 558.286 351.43C556.748 351.743 555.406 352.018 553.893 351.43C553.444 351.254 552.795 350.993 552.227 350.369C551.753 349.847 551.424 349.171 551.165 347.415C550.936 345.842 551.035 345.255 550.938 342.871C550.876 341.336 550.779 340.132 550.711 339.312C550.524 337.039 550.411 336.678 550.334 335.223C550.311 334.837 550.104 331.536 550.334 331.51Z" fill="#081C5E"/>
<path d="M530.764 145.095C532.841 145.348 537.081 150.144 538.813 154.066C539.934 156.6 539.522 156.984 540.501 158.073C543.138 160.999 546.949 159.16 551.575 161.95C554.004 163.415 555.313 165.342 555.767 166.028C557.898 169.241 559.669 175.016 557.078 178.737C554.033 183.11 546.535 182.398 542.618 181.234C532.875 178.34 527.829 167.47 527.058 159.243C526.479 153.047 528.039 144.763 530.764 145.095Z" fill="#0E1647"/>
<path d="M513.929 174.915C519.105 176.992 515.064 184.189 513.801 187.592C512.382 191.415 502.298 194.063 497.661 197.996C494.806 200.42 491.38 203.031 488.557 203.337C487.013 203.505 486.176 203.902 485.608 202.568C483.695 198.07 489.618 193.807 492.277 190.373C493.546 188.733 505.23 171.421 513.929 174.915Z" fill="#600DCE"/>
<path d="M508.866 192.079C507.847 183.031 507.075 178.831 509.476 175.138C510.112 174.162 522.463 172.215 527.572 172.581C530.83 172.817 532.476 172.936 533.205 173.16C536.137 174.06 545.746 175.746 547.673 177.744C550.029 180.182 547.514 186.692 546.328 191.116C545.655 193.637 544.427 196.25 542.426 200.675C538.637 209.039 538.504 211.601 538.365 214.715C537.868 225.825 545.394 227.582 546.328 255.176C546.373 256.473 544.472 256.641 542.131 257.237C531.99 259.816 524.944 259.479 524.944 259.479C515.51 259.024 504.601 258.437 504.411 254.986C503.514 238.821 511.943 223.016 512.042 214.978C512.119 208.482 510.535 206.865 508.866 192.079Z" fill="#EB8E6C"/>
<path d="M527.572 143.926C534.25 145.084 537.122 150.317 537.757 155.59C537.877 156.598 538.319 160.259 536.089 163.472C534.082 166.358 530.461 168.1 527.41 167.419C520.587 165.892 511.787 152.469 516.657 147.221C519.245 144.434 524.757 143.441 527.572 143.926Z" fill="#0E1647"/>
<path d="M518.331 176.455C519.259 175.743 521.91 172.78 522.313 171.307C522.775 169.604 521.836 167.564 521.961 166.037C522.253 162.487 533.685 157.333 533.08 159.589C530.997 167.351 532.45 172.979 536.369 173.961C539.165 174.662 531.193 187.124 519.952 184.742C517 184.118 516.197 177.489 518.039 175.638C518.379 175.295 517.443 177.139 518.331 176.455Z" fill="#F7A594"/>
<path d="M522.239 169.514C524.992 168.892 527.376 167.788 528.656 166.573C530.177 165.132 530.92 163.579 531.23 163.162C531.306 163.236 531.369 163.318 531.414 163.406C530.248 171.151 522.245 172.258 521.836 172.335C522.313 171.307 522.52 170.456 522.239 169.514Z" fill="#C36252"/>
<path d="M518.315 183.406C519.658 182.463 522.152 186.156 526.619 186.034C530.192 185.934 532.014 183.482 532.718 184.141C533.115 184.512 533.067 185.798 525.569 197.071C522.005 202.432 521.043 203.604 520.313 203.379C519.022 202.979 520.381 198.782 519.155 191.185C518.417 186.598 517.277 184.135 518.315 183.406Z" fill="white"/>
<path d="M517.755 147.082C520.488 145.186 523.647 145.876 524.481 146.091C528.088 147.028 529.962 149.957 530.705 151.12C533.319 155.207 532.771 159.421 532.607 160.537C532.099 164.036 527.16 171.693 521.998 170.118C520.253 169.587 519.135 168.628 518.07 167.019C516.654 164.873 516.731 162.79 516.067 160.772C515.275 158.357 514.937 156.51 514.866 155.286C514.821 154.455 514.069 149.639 517.755 147.082Z" fill="#F7A594"/>
<path d="M518.673 145.955C518.889 145.853 519.09 145.737 519.297 145.643C520.461 145.118 521.622 144.919 522.663 144.888C524.397 144.84 525.802 145.263 526.333 145.442C530.255 146.761 531.986 150.113 532.676 151.441C533.618 153.269 533.93 154.009 534.046 155.607C530.984 156.447 517.819 158.238 516.539 151.197C516.425 150.578 514.305 154.909 515.693 159.563C514.964 158.096 511.084 149.611 518.673 145.955Z" fill="#0E1647"/>
<path d="M531.647 155.312C532.538 155.366 533.176 156.615 533.383 157.444C533.88 159.422 532.62 161.817 531.638 161.749C530.548 161.672 529.212 158.513 530.088 156.595C530.12 156.527 530.719 155.258 531.647 155.312Z" fill="#F7A594"/>
<path d="M530.925 157.441C531.351 157.202 531.862 157.381 532.126 157.671C532.588 158.173 532.458 159.104 532.208 159.745C532.103 160.015 531.896 160.443 531.618 160.503C531.587 160.509 531.255 160.543 531.538 160.052C531.561 160.012 531.578 159.981 531.598 159.947C531.618 159.918 531.638 159.879 531.663 159.836C531.808 159.586 531.746 159.691 531.666 159.828C531.774 159.635 531.919 159.334 531.978 158.996C532.061 158.539 532.009 158.173 531.839 157.989C531.683 157.818 531.365 157.716 531.124 157.852C530.948 157.949 530.832 158.156 530.806 158.4C530.795 158.511 530.721 158.596 530.622 158.602C530.491 158.607 530.378 158.48 530.392 158.335C530.432 157.943 530.625 157.605 530.925 157.441Z" fill="#F7A594"/>
<path d="M531.539 160.052C531.536 160.049 531.556 160.018 531.585 159.972C531.556 160.018 531.539 160.052 531.539 160.052Z" fill="#C36252"/>
<path d="M531.665 159.836C531.646 159.867 531.626 159.904 531.6 159.947L531.586 159.972C531.609 159.93 531.64 159.879 531.668 159.828L531.665 159.836Z" fill="#C36252"/>
<path d="M530.013 156.714C529.97 156.839 530.038 156.978 530.157 157.018C530.262 157.052 530.368 156.995 530.404 156.887C530.504 156.589 530.719 156.147 531.159 155.925C531.284 155.86 531.576 155.712 531.909 155.817C532.221 155.917 532.405 156.189 532.539 156.391C532.876 156.896 533.058 157.52 533.072 158.247C533.103 159.6 532.541 160.815 532.15 160.974C532.028 161.022 532.008 161.142 531.988 161.281C531.928 161.661 531.826 162.021 531.472 162.098C531.296 162.138 531.21 162.106 531.114 161.834C531.074 161.718 530.963 161.652 530.858 161.684C530.742 161.718 530.683 161.854 530.725 161.982C530.839 162.302 531.057 162.66 531.571 162.549C532.241 162.402 532.357 161.655 532.4 161.377L532.402 161.354C532.959 161.017 533.521 159.691 533.489 158.255C533.467 157.228 533.14 156.53 532.871 156.13C532.717 155.903 532.462 155.522 532.008 155.378C531.525 155.227 531.122 155.429 530.972 155.508C530.407 155.792 530.138 156.342 530.013 156.714Z" fill="#C36252"/>
<path d="M531.047 158.559C531.297 158.724 531.351 159.056 531.379 159.22C531.442 159.575 531.362 159.93 531.3 159.93C531.215 159.93 531.289 159.285 530.891 158.868C530.687 158.653 530.466 158.613 530.477 158.542C530.494 158.457 530.812 158.403 531.047 158.559Z" fill="#C36252"/>
<path d="M521.35 156.836C521.895 156.606 522.462 156.413 523.033 156.263C523.944 156.025 524.88 155.888 525.825 155.857C526.061 155.849 526.257 156.036 526.257 156.272C526.254 156.493 526.081 156.677 525.859 156.686C524.974 156.714 524.094 156.839 523.243 157.063C522.706 157.205 522.178 157.387 521.665 157.603C521.46 157.688 521.225 157.594 521.131 157.393C521.035 157.18 521.131 156.927 521.35 156.836Z" fill="#161237"/>
<path d="M519.56 159.03C519.674 159.01 519.779 159.078 519.793 159.18C519.895 159.921 519.958 160.676 519.978 161.428C519.989 161.786 519.986 162.092 519.986 162.362C519.98 163.111 519.98 163.486 520.213 163.681C520.503 163.923 521.119 163.86 521.961 163.505C522.064 163.463 522.18 163.503 522.223 163.593H522.225C522.271 163.69 522.217 163.806 522.109 163.852C521.944 163.92 521.791 163.979 521.641 164.028C520.857 164.283 520.284 164.266 519.929 163.971C519.569 163.667 519.569 163.21 519.575 162.381C519.575 162.115 519.577 161.814 519.569 161.459C519.549 160.718 519.487 159.978 519.385 159.251C519.37 159.149 519.447 159.05 519.56 159.03Z" fill="#C36252"/>
<path d="M523.301 157.957C523.616 157.889 523.959 158.233 524.067 158.724C524.175 159.217 524.007 159.674 523.69 159.742C523.375 159.811 523.031 159.467 522.923 158.976C522.815 158.482 522.983 158.025 523.301 157.957Z" fill="#23173D"/>
<path d="M517.543 158.905C517.858 158.834 518.201 159.181 518.309 159.672C518.417 160.165 518.249 160.622 517.934 160.69C517.616 160.758 517.273 160.415 517.165 159.921C517.057 159.43 517.228 158.973 517.543 158.905Z" fill="#23173D"/>
<path d="M515.823 157.798C516.445 157.631 517.075 157.5 517.708 157.415C518.193 157.35 518.673 157.31 519.144 157.299C519.379 157.293 519.572 157.483 519.569 157.716C519.567 157.94 519.391 158.122 519.166 158.128C518.726 158.139 518.275 158.176 517.818 158.238C517.219 158.318 516.621 158.44 516.033 158.602C515.82 158.658 515.599 158.533 515.534 158.321C515.466 158.096 515.596 157.861 515.823 157.798Z" fill="#161237"/>
<path d="M520.081 165.662L520.672 165.594C521.526 165.495 522.375 165.311 523.195 165.044L524.259 164.703C524.5 164.624 524.724 164.766 524.651 164.95C524.432 165.504 523.351 166.369 522.218 166.627C521.095 166.883 520.266 166.457 519.826 166.057C519.676 165.924 519.823 165.694 520.081 165.662Z" fill="#FEFDFB"/>
<path d="M525.759 159.819C526.56 159.535 527.354 159.708 527.533 160.211C527.712 160.713 527.207 161.349 526.403 161.635C525.603 161.922 524.809 161.746 524.63 161.246C524.451 160.744 524.956 160.106 525.759 159.819Z" fill="#DD8064"/>
<path d="M510.771 213.023C510.737 209.368 509.806 205.738 508.501 196.029C508.313 194.746 508.129 193.341 507.953 191.795C506.934 182.747 506.196 178.155 509.46 174.92C509.976 174.409 514.775 173.416 519.671 172.911C519.782 173.68 519.475 180.369 519.45 184.461C519.427 187.742 521.002 202.965 521.499 201.589C521.882 200.536 525.673 194.576 526.743 193.537C529.766 188.364 530.711 187.095 531.247 186.4C533.628 183.312 534.355 183.241 536.259 180.744C537.315 179.356 538.592 177.403 539.741 174.77C543.11 175.607 547.563 176.878 548.641 177.994C550.997 180.434 547.509 186.692 546.323 191.116C545.65 193.637 544.827 194.627 543.53 199.307C539.285 214.646 544.748 231.107 546.175 237.663C549.127 247.21 550.222 259.274 550.222 275.942C550.222 279.098 503.894 280.312 503.69 276.864C500.886 229.237 510.921 228.371 510.771 213.023Z" fill="#600DCE"/>
<path d="M539.792 156.033C540.339 157.855 540.671 158.956 542.61 159.524C543.234 159.708 543.685 159.839 544.264 159.93C545.666 160.148 546.416 160.262 546.855 160.327C547.344 160.401 547.46 160.418 547.678 160.463C548.169 160.563 549.458 160.869 550.851 161.573C552.219 162.265 553.451 163.228 554.51 164.437L554.115 164.783C553.099 163.625 551.921 162.705 550.616 162.041C549.242 161.349 547.94 161.051 547.574 160.977C547.369 160.937 547.256 160.92 546.779 160.847C546.336 160.781 545.587 160.671 544.182 160.449C543.569 160.356 543.104 160.219 542.462 160.029C540.251 159.382 539.846 158.04 539.289 156.184C538.583 153.845 537.621 150.644 532.555 146.463L532.89 146.058C538.078 150.34 539.068 153.629 539.792 156.033Z" fill="#050530"/>
<path d="M517.947 153.275C518.423 153.856 518.923 154.171 519.363 154.447C520.132 154.932 520.992 155.284 521.917 155.491L521.801 156.005C520.819 155.783 519.902 155.412 519.082 154.892C518.631 154.608 518.071 154.257 517.541 153.609C516.965 152.908 516.576 152.04 516.414 151.101L516.933 151.013C517.078 151.861 517.427 152.645 517.947 153.275Z" fill="#050530"/>
<path d="M543 196.205C544.033 194.579 545.242 193.217 546.522 192.079C545.863 194.375 545.054 195.476 543.814 199.957C539.568 215.294 545.032 231.754 546.459 238.313C549.411 247.86 550.506 259.924 550.506 276.592C550.506 277.157 546.36 277.364 543.905 277.789C545.398 271.983 544.43 247.587 543.862 244.102C542.608 236.42 542.233 234.674 540.843 227.67C539.659 221.699 538.328 214.678 539.767 206.226C540.403 202.488 540.914 199.486 543 196.205Z" fill="#9345FB"/>
<path d="M521.902 201.027H521.905C522.172 201.041 522.374 201.271 522.359 201.538C521.236 221.038 521.443 237.033 522.181 257.983C522.439 265.379 522.819 270.797 523.302 277.653L523.356 278.434C523.375 278.7 523.174 278.933 522.907 278.953C522.64 278.97 522.408 278.769 522.391 278.502L522.334 277.721C521.851 270.853 521.471 265.43 521.21 258.017C520.472 237.038 520.265 221.021 521.392 201.484C521.406 201.217 521.636 201.01 521.902 201.027Z" fill="#9345FB"/>
<path d="M547.354 177.176C550.055 178.155 551.852 181.382 553.313 184.217C553.901 185.358 554.358 186.267 554.608 187.047C557.678 196.617 558.893 201.189 560.374 209.916C560.74 212.064 560.681 214.312 559.778 215.251C558.473 216.613 555.26 216.122 553.234 214.684C551.903 213.744 551.117 212.024 549.596 208.624C549.235 207.818 548.943 207.117 547.575 203.533C545.282 197.522 545.083 196.813 544.91 195.936C544.433 193.529 544.53 191.707 544.666 189.391C544.811 186.97 545.029 176.333 547.354 177.176Z" fill="#600DCE"/>
<path d="M516.185 173.336C517.426 172.919 518.927 173.214 519.415 173.549C520.32 174.174 518.655 177.074 518.345 178.797C517.658 182.628 518.972 183.653 520.085 190.472C521.308 197.956 521.504 201.589 521.504 201.589C521.504 201.589 523.896 198.334 528.616 190.206C529.124 189.331 530.2 187.501 532.07 185.449C533.265 184.135 533.194 184.484 534.036 183.491C535.637 181.606 536.369 179.804 538.574 176.819C538.878 176.41 538.96 174.753 539.576 174.56C539.996 174.429 542.043 175.425 544.146 176.007C543.564 182.466 541.725 186.755 540.7 188.384C540.328 188.971 539.622 189.045 538.918 188.991C534.621 188.662 533.398 187.036 533.398 187.036L535.115 190.731C535.413 191.369 535.246 192.121 534.703 192.584L521.473 203.774L513.333 190.56C512.99 190.115 512.959 189.51 513.257 189.031L516.744 183.445L510.279 184.859C509.647 184.998 509.451 184.427 509.479 183.792C509.647 179.773 514.011 174.954 516.185 173.336Z" fill="#9345FB"/>
<path d="M535.622 173.706C535.363 172.621 542.711 174.565 543.066 175.667C543.165 175.976 543.191 177.508 542.768 179.844C542.089 183.582 539.249 187.83 539.249 187.83C539.249 187.83 534.966 187.606 532.752 185.991C531.915 185.378 534.188 191.298 534.188 191.298C534.188 191.298 522.632 203.218 521.469 202.037C520.901 201.461 528.297 188.554 529.764 186.636C530.295 185.946 536.045 175.468 535.622 173.706Z" fill="#600DCE"/>
<path d="M518.683 172.723C518.683 172.723 521.067 172.371 520.826 172.749C519.305 175.133 519.285 180.809 519.768 185.997C520.239 191.048 521.973 202.662 521.47 202.037C518.695 198.566 513.918 189.408 513.918 189.408C516.257 185.855 517.293 183.008 517.293 183.008C517.293 183.008 516.81 182.764 515.522 182.949C512.258 183.414 510.774 183.752 510.774 183.752C510.774 183.752 510.677 181.135 513.311 177.752C517.599 172.244 518.683 172.723 518.683 172.723Z" fill="#600DCE"/>
<path d="M544.425 187.45C544.686 187.487 544.874 187.725 544.842 187.989C544.417 191.494 544.53 194.119 545.183 195.808C545.274 196.04 545.163 196.302 544.939 196.412C544.683 196.534 544.377 196.412 544.275 196.145C543.557 194.289 543.429 191.573 543.88 187.875C543.912 187.606 544.156 187.416 544.425 187.45Z" fill="#9345FB"/>
<path d="M507.087 186.803C507.351 186.803 507.569 187.016 507.572 187.282C507.584 188.335 507.666 189.995 508.239 191.625C508.324 191.866 508.205 192.133 507.967 192.232C507.711 192.337 507.416 192.206 507.325 191.948C506.701 190.18 506.613 188.409 506.602 187.294C506.599 187.024 506.814 186.803 507.087 186.803Z" fill="#6642BC"/>
<path d="M612.612 300.698C605.641 295.272 604.39 285.222 609.816 278.252C615.242 271.282 625.292 270.03 632.259 275.457C639.229 280.883 640.484 290.93 635.057 297.9C629.631 304.87 619.582 306.124 612.612 300.698ZM635.994 270.661C632.265 267.757 627.886 266.242 623.49 266.037L606.882 260.265L438.403 129.117L428.229 106.286C427.959 105.301 427.63 104.293 427.227 103.263C426.151 100.536 424.077 95.2664 418.628 91.4992C414.586 88.7026 410.65 88.0921 408.172 87.7082C402.051 86.7588 397.408 88.0606 393.676 89.1064C390.015 90.1338 387.429 90.8586 387.33 92.1383C387.245 93.2871 389.203 94.3329 399.843 99.3409C405.164 101.847 405.825 102.125 406.637 103.181C409.881 107.395 408.272 114.538 405.553 119.006C405.275 119.46 400.285 127.434 393.911 126.975C391.383 126.793 391.19 125.465 384.336 122.056C380.201 119.999 376.381 118.137 375.231 119.318C374.718 119.848 374.729 121.006 376.009 123.907C380.084 133.147 387.435 138.315 388.264 138.883C391.851 141.344 395.634 143.935 401.154 144.207L423.415 148.37L423.18 148.671L591.658 279.822L602.386 297.295C603.814 300.414 605.99 303.244 608.88 305.494C618.483 312.97 632.378 311.238 639.854 301.635C647.329 292.031 645.598 278.136 635.994 270.661Z" fill="#6565A8"/>
<path d="M591.658 279.821L423.18 148.671L438.403 129.117L606.882 260.265L591.658 279.821Z" fill="#5D5D9B"/>
<path d="M401.156 144.207L423.418 148.371L438.405 129.117L428.231 106.286L401.156 144.207Z" fill="#575793"/>
<path d="M603.169 298.561L591.664 279.821L606.887 260.265L624.965 266.551L613.937 269.542C607.27 271.35 602.695 277.472 602.849 284.376L603.169 298.561Z" fill="#575793"/>
<path d="M387.33 92.1383C387.429 90.8586 390.015 90.1338 393.676 89.1064C397.408 88.0606 402.051 86.7588 408.172 87.7082C410.65 88.0921 414.586 88.7029 418.628 91.4992C424.077 95.2664 426.151 100.536 427.227 103.263C429.94 110.159 429.33 116.255 428.949 118.739C427.638 127.315 422.984 132.71 421.344 134.558C419.743 136.366 416.32 140.14 410.508 142.43C408.626 143.171 405.371 144.414 401.154 144.207C395.634 143.935 391.851 141.344 388.264 138.883C387.435 138.315 380.084 133.147 376.009 123.907C374.729 121.006 374.718 119.848 375.231 119.318C376.381 118.137 380.201 120.002 384.336 122.056C391.19 125.465 391.383 126.793 393.911 126.975C400.285 127.434 405.275 119.46 405.553 119.006C408.272 114.538 409.881 107.395 406.637 103.181C405.825 102.125 405.164 101.847 399.843 99.3409C389.203 94.3329 387.245 93.2871 387.33 92.1383Z" fill="#6565A8"/>
<path d="M612.612 300.698C605.642 295.272 604.391 285.222 609.817 278.252C615.243 271.282 625.293 270.03 632.263 275.457C639.23 280.883 640.485 290.929 635.058 297.9C629.632 304.87 619.583 306.124 612.612 300.698ZM635.995 270.66C626.391 263.185 612.496 264.916 605.021 274.52C597.545 284.124 599.277 298.019 608.88 305.494C618.484 312.969 632.379 311.238 639.854 301.634C647.33 292.031 645.599 278.136 635.995 270.66Z" fill="#6565A8"/>
<path d="M517.319 221.412C517.75 221.239 518.142 221.492 518.636 221.665C519.754 222.056 520.795 221.829 521.831 221.602C522.3 221.5 523.199 221.293 524.153 220.66C524.919 220.152 525.631 219.428 525.532 219.281C525.444 219.153 524.729 219.485 524.09 219.783C522.592 220.481 522.365 220.862 521.582 220.913C521.519 220.916 520.321 220.981 520.015 220.348C519.828 219.962 520.058 219.505 520.077 219.471C520.483 218.691 521.542 218.83 523.211 218.154C524.193 217.754 524.005 217.635 524.78 217.34C525.291 217.141 526.381 216.809 530.045 217.274C532.125 217.541 532.091 217.689 532.931 217.652C534.588 217.581 535.74 216.962 536.754 216.46C541.082 214.326 541.13 215.214 544.842 213.199C547.402 211.811 549.383 210.301 549.607 210.128C552.289 208.065 552.343 207.387 553.557 207.12C556.481 206.476 559.395 215.608 559.038 216.187C558.453 217.138 540.21 223.41 538.885 223.671C538.513 223.745 537.574 223.944 536.379 224.423C535.993 224.577 534.421 225.224 532.428 226.68C530.51 228.084 530.334 228.678 528.98 229.126C528.262 229.361 527.729 229.387 526.662 229.438C526.415 229.449 524.366 229.529 522.209 228.686C521.86 228.55 521.193 228.266 521.207 227.934C521.218 227.625 521.814 227.451 521.769 227.307C521.729 227.176 521.215 227.281 520.517 227.244C519.987 227.216 519.025 227.162 518.823 226.68C518.78 226.58 518.715 226.328 519.01 225.865C518.349 225.959 517.742 225.666 517.506 225.175C517.381 224.909 517.322 224.497 517.506 224.174C517.722 223.793 518.105 223.822 518.133 223.609C518.19 223.194 516.774 222.97 516.692 222.292C516.646 221.934 516.981 221.551 517.319 221.412Z" fill="#F7A594"/>
<path d="M518.076 223.668C518.122 223.572 518.261 223.521 518.388 223.552C519.569 223.836 520.781 224.003 521.996 224.046C522.347 224.06 522.702 224.063 523.054 224.054C523.19 224.052 523.307 224.131 523.312 224.233C523.318 224.338 523.21 224.426 523.074 224.429C522.932 224.432 522.79 224.435 522.648 224.435C522.421 224.435 522.194 224.432 521.97 224.423C520.713 224.378 519.456 224.205 518.235 223.91C518.102 223.876 518.031 223.768 518.076 223.668Z" fill="#C36252"/>
<path d="M519.05 225.8C519.073 225.698 519.201 225.63 519.34 225.644C520.072 225.721 520.812 225.775 521.548 225.803C522.308 225.831 523.077 225.834 523.838 225.811C523.98 225.809 524.096 225.885 524.105 225.987V225.99C524.113 226.092 524.002 226.183 523.861 226.186C523.514 226.197 523.168 226.203 522.819 226.203C522.385 226.203 521.951 226.195 521.522 226.178C520.77 226.149 520.012 226.095 519.266 226.016C519.127 226.002 519.027 225.905 519.05 225.8Z" fill="#C36252"/>
<path d="M522.075 227.287C522.418 227.315 522.762 227.341 523.108 227.369C523.485 227.4 523.866 227.432 524.243 227.463C524.413 227.477 524.55 227.573 524.547 227.678C524.547 227.784 524.408 227.854 524.238 227.84C523.863 227.809 523.485 227.778 523.105 227.747C522.759 227.718 522.416 227.693 522.075 227.664C521.905 227.653 521.768 227.556 521.766 227.451C521.766 227.349 521.905 227.273 522.075 227.287Z" fill="#C36252"/>
<path d="M551.237 208.951C551.259 208.772 551.427 208.653 551.603 208.681C552.395 208.809 553.166 209.024 553.902 209.325C554.781 209.686 555.585 210.16 556.291 210.73C556.43 210.843 556.45 211.048 556.331 211.181C556.223 211.309 556.033 211.329 555.902 211.224C555.241 210.687 554.489 210.245 553.663 209.904C552.971 209.623 552.244 209.419 551.495 209.3C551.327 209.271 551.217 209.115 551.237 208.951Z" fill="#C36252"/>
<path d="M533.027 217.272C534.724 216.625 536.904 216.392 542.642 213.392C545.725 211.783 548.704 209.592 548.704 209.592C551.551 207.503 551.951 206.728 553.311 206.604C556.041 206.354 559.273 209.036 559.937 212.26C560.034 212.728 560.951 213.52 559.776 215.251C558.714 216.818 555.487 218.194 552.567 218.974C552.567 218.974 549.488 220.237 543.937 222.442C538.524 224.594 538.525 224.594 535.936 225.272C533.876 225.811 531.038 218.029 533.027 217.272Z" fill="#600DCE"/>
<path d="M452.199 170.66C452.293 170.481 452.466 170.155 452.803 169.828C453.34 169.312 453.925 169.15 454.563 168.977C455.281 168.778 455.798 168.775 456.47 168.773C457.418 168.767 457.588 168.906 457.654 169.031C457.77 169.249 457.404 169.556 457.523 169.712C457.6 169.811 457.75 169.712 458.048 169.806C458.13 169.831 458.375 169.908 458.525 170.118C458.684 170.336 458.593 170.501 458.738 170.6C458.865 170.691 458.962 170.578 459.234 170.614C459.288 170.623 459.654 170.68 459.833 170.947C459.958 171.134 459.873 171.247 460.021 171.438C460.126 171.577 460.219 171.577 460.358 171.679C460.642 171.889 460.795 172.292 460.764 172.593C460.733 172.908 460.514 172.947 460.231 173.373C460.106 173.558 458.846 176.381 463.245 179.736C463.772 180.139 461.584 180.704 461.584 180.704C460.412 180.284 452.61 177.026 451.708 175.11C451.524 174.718 451.631 174.417 451.759 173.643C452.043 171.926 451.728 171.568 452.199 170.66Z" fill="#F7A594"/>
<path d="M453.167 170.776C453.13 170.819 453.133 170.884 453.172 170.924C453.218 170.969 453.289 170.967 453.328 170.921C453.57 170.649 453.851 170.226 454.041 169.939C454.106 169.84 454.174 169.741 454.203 169.698L454.228 169.675C454.464 169.499 454.688 169.423 454.878 169.366C455.508 169.173 456.252 169.031 456.626 168.963C456.686 168.954 456.725 168.898 456.714 168.841C456.706 168.781 456.649 168.742 456.589 168.753C456.209 168.818 455.454 168.963 454.816 169.159C454.662 169.207 454.373 169.295 454.08 169.516C454.046 169.539 454.015 169.587 453.862 169.82C453.686 170.087 453.399 170.515 453.167 170.776Z" fill="#C36252"/>
<path d="M456.059 170.393C456.19 170.266 457.149 169.846 457.788 169.701C457.847 169.689 457.904 169.726 457.915 169.789C457.927 169.846 457.89 169.899 457.836 169.911C457.203 170.053 456.298 170.464 456.207 170.549C456.054 170.697 455.143 171.744 454.828 172.161C454.794 172.207 454.728 172.218 454.68 172.184C454.629 172.15 454.618 172.082 454.654 172.031C454.984 171.597 455.898 170.547 456.059 170.393Z" fill="#C36252"/>
<path d="M457.098 172.522C457.445 172.15 457.697 171.883 457.938 171.483C458.012 171.364 458.06 171.27 458.103 171.188C458.185 171.029 458.239 170.924 458.387 170.799C458.574 170.643 458.804 170.541 459.076 170.493C459.139 170.484 459.198 170.527 459.204 170.589C459.21 170.643 459.173 170.697 459.116 170.706C458.881 170.745 458.682 170.83 458.526 170.964C458.412 171.06 458.373 171.137 458.293 171.287C458.251 171.37 458.199 171.469 458.123 171.597C457.87 172.014 457.612 172.289 457.257 172.67C457.084 172.854 456.9 173.036 456.712 173.209C456.667 173.248 456.599 173.243 456.559 173.2C456.519 173.155 456.522 173.087 456.568 173.047C456.752 172.88 456.931 172.704 457.098 172.522Z" fill="#C36252"/>
<path d="M549.701 208.383C550.217 208.182 550.748 208.034 551.284 207.949C552.496 207.756 553.759 207.872 554.962 208.287C555.226 208.378 555.357 208.673 555.249 208.931C555.153 209.169 554.886 209.286 554.642 209.201C553.583 208.835 552.508 208.735 551.438 208.905C550.972 208.979 550.512 209.107 550.064 209.283C549.826 209.377 549.553 209.272 549.445 209.042V209.039C549.326 208.789 549.443 208.485 549.701 208.383Z" fill="#9345FB"/>
</g>
<defs>
<linearGradient id="paint0_linear_2252_2400" x1="93.3186" y1="54.2368" x2="527.827" y2="325.443" gradientUnits="userSpaceOnUse">
<stop stop-color="#FF0CF5"/>
<stop offset="1" stop-color="#0575E6"/>
</linearGradient>
<linearGradient id="paint1_linear_2252_2400" x1="257.209" y1="109.646" x2="368.542" y2="109.646" gradientUnits="userSpaceOnUse">
<stop stop-color="#A83AFE"/>
<stop offset="1" stop-color="#6E59FE"/>
</linearGradient>
<linearGradient id="paint2_linear_2252_2400" x1="257.209" y1="109.646" x2="368.542" y2="109.646" gradientUnits="userSpaceOnUse">
<stop stop-color="#A83AFE" stop-opacity="0.4"/>
<stop offset="1" stop-color="#6E59FE" stop-opacity="0.4"/>
</linearGradient>
<linearGradient id="paint3_linear_2252_2400" x1="257.211" y1="109.646" x2="368.543" y2="109.646" gradientUnits="userSpaceOnUse">
<stop stop-color="#A83AFE" stop-opacity="0.2"/>
<stop offset="1" stop-color="#6E59FE" stop-opacity="0.2"/>
</linearGradient>
<linearGradient id="paint4_linear_2252_2400" x1="257.211" y1="109.646" x2="368.543" y2="109.646" gradientUnits="userSpaceOnUse">
<stop stop-color="#A83AFE" stop-opacity="0.7"/>
<stop offset="1" stop-color="#6E59FE" stop-opacity="0.7"/>
</linearGradient>
<linearGradient id="paint5_linear_2252_2400" x1="257.21" y1="109.646" x2="368.543" y2="109.646" gradientUnits="userSpaceOnUse">
<stop stop-color="#A83AFE" stop-opacity="0.3"/>
<stop offset="1" stop-color="#6E59FE" stop-opacity="0.3"/>
</linearGradient>
<linearGradient id="paint6_linear_2252_2400" x1="257.21" y1="109.646" x2="368.543" y2="109.646" gradientUnits="userSpaceOnUse">
<stop stop-color="#A83AFE" stop-opacity="0.9"/>
<stop offset="1" stop-color="#6E59FE" stop-opacity="0.9"/>
</linearGradient>
<linearGradient id="paint7_linear_2252_2400" x1="257.21" y1="109.646" x2="368.543" y2="109.646" gradientUnits="userSpaceOnUse">
<stop stop-color="#A83AFE" stop-opacity="0.1"/>
<stop offset="1" stop-color="#6E59FE" stop-opacity="0.1"/>
</linearGradient>
<linearGradient id="paint8_linear_2252_2400" x1="257.21" y1="109.646" x2="368.543" y2="109.646" gradientUnits="userSpaceOnUse">
<stop stop-color="#A83AFE" stop-opacity="0.5"/>
<stop offset="1" stop-color="#6E59FE" stop-opacity="0.5"/>
</linearGradient>
<linearGradient id="paint9_linear_2252_2400" x1="199.414" y1="233.755" x2="312.875" y2="233.755" gradientUnits="userSpaceOnUse">
<stop stop-color="#A83AFE"/>
<stop offset="1" stop-color="#6E59FE"/>
</linearGradient>
<linearGradient id="paint10_linear_2252_2400" x1="129.836" y1="16.8026" x2="495.909" y2="16.8026" gradientUnits="userSpaceOnUse">
<stop stop-color="#A83AFE"/>
<stop offset="1" stop-color="#6E59FE"/>
</linearGradient>
<linearGradient id="paint11_linear_2252_2400" x1="147.644" y1="283.23" x2="286.556" y2="283.23" gradientUnits="userSpaceOnUse">
<stop stop-color="#36FF78"/>
<stop offset="1" stop-color="#0CFFFF"/>
</linearGradient>
<linearGradient id="paint12_linear_2252_2400" x1="147.642" y1="283.23" x2="286.554" y2="283.23" gradientUnits="userSpaceOnUse">
<stop stop-color="#36FF78"/>
<stop offset="1" stop-color="#0CFFFF"/>
</linearGradient>
<linearGradient id="paint13_linear_2252_2400" x1="147.641" y1="283.23" x2="286.553" y2="283.23" gradientUnits="userSpaceOnUse">
<stop stop-color="#36FF78"/>
<stop offset="1" stop-color="#0CFFFF"/>
</linearGradient>
<linearGradient id="paint14_linear_2252_2400" x1="147.642" y1="283.23" x2="286.554" y2="283.23" gradientUnits="userSpaceOnUse">
<stop stop-color="#36FF78"/>
<stop offset="1" stop-color="#0CFFFF"/>
</linearGradient>
<linearGradient id="paint15_linear_2252_2400" x1="147.644" y1="283.229" x2="286.556" y2="283.229" gradientUnits="userSpaceOnUse">
<stop stop-color="#36FF78"/>
<stop offset="1" stop-color="#0CFFFF"/>
</linearGradient>
<linearGradient id="paint16_linear_2252_2400" x1="147.638" y1="283.23" x2="286.55" y2="283.23" gradientUnits="userSpaceOnUse">
<stop stop-color="#36FF78"/>
<stop offset="1" stop-color="#0CFFFF"/>
</linearGradient>
<linearGradient id="paint17_linear_2252_2400" x1="147.644" y1="320.09" x2="286.556" y2="320.09" gradientUnits="userSpaceOnUse">
<stop stop-color="#36FF78"/>
<stop offset="1" stop-color="#0CFFFF"/>
</linearGradient>
<linearGradient id="paint18_linear_2252_2400" x1="147.642" y1="320.09" x2="286.554" y2="320.09" gradientUnits="userSpaceOnUse">
<stop stop-color="#36FF78"/>
<stop offset="1" stop-color="#0CFFFF"/>
</linearGradient>
<linearGradient id="paint19_linear_2252_2400" x1="147.641" y1="320.09" x2="286.553" y2="320.09" gradientUnits="userSpaceOnUse">
<stop stop-color="#36FF78"/>
<stop offset="1" stop-color="#0CFFFF"/>
</linearGradient>
<linearGradient id="paint20_linear_2252_2400" x1="147.642" y1="320.09" x2="286.554" y2="320.09" gradientUnits="userSpaceOnUse">
<stop stop-color="#36FF78"/>
<stop offset="1" stop-color="#0CFFFF"/>
</linearGradient>
<linearGradient id="paint21_linear_2252_2400" x1="147.644" y1="320.09" x2="286.556" y2="320.09" gradientUnits="userSpaceOnUse">
<stop stop-color="#36FF78"/>
<stop offset="1" stop-color="#0CFFFF"/>
</linearGradient>
<linearGradient id="paint22_linear_2252_2400" x1="147.638" y1="320.09" x2="286.55" y2="320.09" gradientUnits="userSpaceOnUse">
<stop stop-color="#36FF78"/>
<stop offset="1" stop-color="#0CFFFF"/>
</linearGradient>
<clipPath id="clip0_2252_2400">
<rect width="669.759" height="400" fill="white"/>
</clipPath>
</defs>
</svg>
