<svg xmlns="http://www.w3.org/2000/svg" width="82" height="82" viewBox="0 0 82 82">
  <g id="Group_99" data-name="Group 99" transform="translate(-1063 -1346)">
    <g id="Ellipse_21" data-name="Ellipse 21" transform="translate(1063 1346)" fill="#fff" stroke="#707070" stroke-width="1" opacity="0.748">
      <circle cx="41" cy="41" r="41" stroke="none"/>
      <circle cx="41" cy="41" r="40.5" fill="none"/>
    </g>
    <g id="sports_esports_black_24dp_2_" data-name="sports_esports_black_24dp (2)" transform="translate(1084.71 1367.71)">
      <g id="Group_85" data-name="Group 85" transform="translate(-0.289 -0.289)">
        <rect id="Rectangle_91" data-name="Rectangle 91" width="40" height="40" transform="translate(-0.421 -0.421)" fill="none"/>
      </g>
      <g id="Group_87" data-name="Group 87" transform="translate(3.868 8.052)">
        <g id="Group_86" data-name="Group 86">
          <path id="Path_435" data-name="Path 435" d="M33.2,22.8l-1.75-12.3A6.416,6.416,0,0,0,25.088,5H10.543a6.416,6.416,0,0,0-6.357,5.506L2.436,22.8a4.086,4.086,0,0,0,4.046,4.672h0a4.07,4.07,0,0,0,2.89-1.2L13,22.659h9.632l3.612,3.612a4.1,4.1,0,0,0,2.89,1.2h0A4.089,4.089,0,0,0,33.2,22.8ZM16.21,14.632H13v3.211H11.394V14.632H8.183V13.027h3.211V9.816H13v3.211H16.21Zm6.422-1.605a1.605,1.605,0,1,1,1.605-1.605A1.61,1.61,0,0,1,22.632,13.027Zm3.211,4.816a1.605,1.605,0,1,1,1.605-1.605A1.61,1.61,0,0,1,25.842,17.843Z" transform="translate(-2.394 -5)" fill="#6953da"/>
        </g>
      </g>
    </g>
  </g>
</svg>
