<svg width="195" height="41" viewBox="0 0 195 41" fill="none" xmlns="http://www.w3.org/2000/svg">
<path d="M45.8247 21.679C45.8247 23.3124 46.1331 24.6321 46.7504 25.6382C47.3673 26.645 48.3312 27.1479 49.6415 27.1479C50.7809 27.1479 51.7015 26.7111 52.4043 25.8375C53.1066 24.9644 53.4583 23.578 53.4583 21.679C53.4583 20.0461 53.1495 18.7265 52.5326 17.7199C51.9153 16.7135 50.9517 16.2102 49.6415 16.2102C48.5022 16.2102 47.5808 16.6471 46.8785 17.5203C46.1758 18.394 45.8247 19.7804 45.8247 21.679ZM42.72 21.679C42.72 20.3501 42.886 19.2011 43.2184 18.2325C43.5504 17.2641 44.0204 16.4666 44.6283 15.8398C45.2359 15.2132 45.9622 14.748 46.8073 14.4441C47.6521 14.1406 48.5969 13.9883 49.6415 13.9883C50.8378 13.9883 51.8725 14.1736 52.7461 14.5437C53.6195 14.9141 54.3364 15.4366 54.8967 16.1104C55.4565 16.7845 55.8744 17.5916 56.15 18.5314C56.4249 19.4714 56.563 20.5209 56.563 21.679C56.563 23.0084 56.3966 24.157 56.0645 25.1256C55.732 26.0939 55.2622 26.8914 54.6546 27.5182C54.0466 28.1447 53.3203 28.6102 52.4755 28.9138C51.6305 29.2175 50.6855 29.3697 49.6415 29.3697C48.4452 29.3697 47.4098 29.1844 46.5367 28.814C45.6631 28.4439 44.9462 27.9219 44.3862 27.2475C43.8259 26.5737 43.4079 25.7663 43.1329 24.8263C42.8574 23.8865 42.72 22.8374 42.72 21.679Z" fill="white"/>
<path d="M61.7794 14.2772V16.983C62.1591 16.0716 62.7193 15.3692 63.4599 14.8755C64.2005 14.3819 65.0644 14.1348 66.0519 14.1348C67.4193 14.1348 68.5015 14.6288 69.299 15.6158C70.0966 16.6035 70.4954 18.1038 70.4954 20.1165V29.0887H67.647V20.1165C67.647 19.0339 67.4049 18.2178 66.9208 17.6667C66.4364 17.1163 65.7671 16.8407 64.9126 16.8407C63.9441 16.8407 63.1796 17.1067 62.6197 17.6382C62.0593 18.17 61.7794 18.8914 61.7794 19.803V29.0887H58.9312V14.2772H61.7794Z" fill="white"/>
<path d="M83.4597 20.2264C83.4976 19.8274 83.4549 19.4002 83.3316 18.9446C83.2079 18.4888 82.9991 18.0664 82.705 17.677C82.4103 17.2882 82.0306 16.9648 81.5657 16.7084C81.1001 16.4523 80.5545 16.3241 79.9277 16.3241C78.9023 16.3241 78.0665 16.6328 77.4211 17.2499C76.7754 17.867 76.3575 18.8592 76.1679 20.2264H83.4597ZM79.9277 13.9883C81.0857 13.9883 82.0784 14.1833 82.9044 14.5723C83.7304 14.9617 84.4041 15.5123 84.9268 16.2244C85.4487 16.9363 85.8239 17.7909 86.0517 18.7879C86.2797 19.785 86.365 20.8911 86.3081 22.1062H76.0825C76.1581 23.7205 76.6046 24.9024 77.4211 25.6524C78.2374 26.4029 79.301 26.7775 80.6114 26.7775C81.9786 26.7775 83.0845 26.5118 83.9297 25.98C84.7746 25.4486 85.4344 24.7553 85.9092 23.9006V26.8346C85.5105 27.5749 84.8742 28.183 84.001 28.6575C83.1272 29.1318 81.9972 29.3697 80.6114 29.3697C79.4721 29.3697 78.4323 29.2175 77.4924 28.9136C76.5524 28.6102 75.7452 28.1447 75.0712 27.5181C74.3971 26.8914 73.8795 26.0939 73.5191 25.1256C73.1581 24.157 72.9778 23.0084 72.9778 21.679C72.9778 20.3501 73.1437 19.2009 73.4761 18.2323C73.8083 17.2641 74.2782 16.4666 74.8862 15.8398C75.4937 15.2132 76.2249 14.748 77.0795 14.4441C77.934 14.1405 78.8832 13.9883 79.9277 13.9883Z" fill="white"/>
<path d="M91.3033 21.6809C91.3033 23.5229 91.6546 24.8569 92.3574 25.683C93.0595 26.509 93.9902 26.9219 95.1487 26.9219C96.288 26.9219 97.1948 26.4519 97.8688 25.5119C98.5428 24.5722 98.88 23.295 98.88 21.6809C98.88 20.0671 98.5428 18.7898 97.8688 17.8498C97.1948 16.9099 96.288 16.4399 95.1487 16.4399C93.9902 16.4399 93.0595 16.8529 92.3574 17.679C91.6546 18.5051 91.3033 19.8392 91.3033 21.6809ZM88.4551 14.2752H91.3033V16.8386C91.7969 15.8704 92.457 15.1537 93.283 14.6881C94.109 14.2232 95.0633 13.9902 96.1455 13.9902C97.0379 13.9902 97.8405 14.1755 98.5525 14.5457C99.2646 14.916 99.8771 15.4386 100.39 16.1124C100.902 16.7865 101.296 17.5936 101.572 18.5334C101.847 19.4734 101.985 20.5229 101.985 21.6809C101.985 22.8394 101.847 23.8885 101.572 24.8283C101.296 25.7683 100.902 26.5756 100.39 27.2495C99.8771 27.9238 99.2646 28.4458 98.5525 28.816C97.8405 29.1863 97.0379 29.3716 96.1455 29.3716C95.0633 29.3716 94.109 29.1388 93.283 28.6737C92.457 28.2085 91.7969 27.4916 91.3033 26.5231V33.5015H88.4551V14.2752Z" fill="white"/>
<path d="M107.542 7.72656H104.694V29.0893H107.542V7.72656Z" fill="white"/>
<path d="M112.564 25.5813C112.564 25.8852 112.65 26.1413 112.821 26.3502C112.991 26.5593 113.205 26.7304 113.461 26.8628C113.718 26.9959 113.993 27.0864 114.287 27.1335C114.582 27.1811 114.852 27.2047 115.099 27.2047C116.162 27.2047 117.065 26.9389 117.805 26.4071C118.546 25.8757 118.992 24.9166 119.144 23.5304C119.163 23.2269 119.172 22.942 119.172 22.6758V21.9069C118.735 22.1538 118.232 22.3673 117.663 22.5476C117.093 22.7283 116.457 22.8944 115.754 23.0462C114.786 23.3124 114.012 23.6492 113.433 24.0572C112.854 24.4659 112.564 24.9737 112.564 25.5813ZM114.957 20.9099C116.229 20.5872 117.25 20.293 118.019 20.0268C118.788 19.761 119.191 19.3531 119.229 18.8021V18.7452C119.229 18.0998 118.944 17.5773 118.375 17.1784C117.805 16.7797 117.055 16.5804 116.125 16.5804C114.757 16.5804 113.575 16.8509 112.578 17.392C111.581 17.9334 110.941 18.6595 110.656 19.5711V16.6944C110.921 15.8969 111.557 15.2465 112.564 14.7432C113.57 14.2401 114.757 13.9883 116.125 13.9883C117.017 13.9883 117.824 14.0879 118.546 14.2875C119.267 14.4869 119.884 14.8001 120.397 15.2272C120.91 15.6547 121.304 16.2055 121.579 16.8794C121.854 17.5537 121.992 18.3748 121.992 19.3432V29.0847H119.087V28.6858C119.106 28.5151 119.115 28.2493 119.115 27.8882C119.115 27.5279 119.125 27.0151 119.144 26.3502V26.1223C118.916 26.7489 118.631 27.2667 118.289 27.6747C117.948 28.0832 117.567 28.4153 117.15 28.6718C116.732 28.9279 116.291 29.1083 115.826 29.2128C115.36 29.317 114.9 29.3697 114.444 29.3697C112.944 29.3697 111.767 29.0232 110.912 28.3299C110.058 27.6368 109.63 26.7206 109.63 25.5813C109.63 24.442 110.115 23.4733 111.083 22.6758C112.051 21.8783 113.343 21.2901 114.957 20.9099Z" fill="white"/>
<path d="M123.225 14.2793H126.444L129.634 25.6727L133.137 14.2793H136.527L130.744 30.9992C130.307 32.2523 129.705 33.1541 128.936 33.7052C128.167 34.2556 127.127 34.5311 125.817 34.5311C125.665 34.5311 125.499 34.5167 125.318 34.4885C125.138 34.4599 124.924 34.4266 124.678 34.3889C124.545 34.3506 124.421 34.322 124.307 34.3032C124.193 34.2842 124.07 34.2556 123.937 34.2178V31.6259C124.07 31.6637 124.193 31.6923 124.307 31.7112C124.421 31.7301 124.545 31.7583 124.678 31.7966C124.924 31.8344 125.138 31.868 125.318 31.8963C125.499 31.9248 125.665 31.9392 125.817 31.9392C126.538 31.9392 127.056 31.8395 127.369 31.6401C127.683 31.4406 127.943 31.0464 128.153 30.458L128.295 30.0022L123.225 14.2793Z" fill="white"/>
<path d="M7.92308 13.7832C6.32404 16.5709 5.71615 19.7445 6.18529 22.9764C7.18069 29.329 12.5488 34.2793 18.9539 34.74C19.2986 34.7604 19.6206 34.7607 19.9654 34.7811C23.4417 34.7682 26.7714 33.4984 29.3444 31.1621C31.8775 28.8713 33.4741 25.7189 33.8343 22.3684C33.909 21.8698 33.75 21.408 33.4256 21.0429C33.1012 20.6778 32.637 20.472 32.144 20.4828L31.0526 20.5328C30.2177 20.566 29.5274 21.1693 29.4523 21.9898C28.8625 26.7506 24.7834 30.3446 19.9964 30.336C15.0583 30.3158 10.8798 26.4897 10.4725 21.5796C10.1951 17.6698 12.3338 13.9452 15.8493 12.2341C14.9612 11.4551 14.4154 10.3318 14.3798 9.13211C14.3546 8.7474 14.395 8.37987 14.4781 8.00954C11.764 9.17457 9.45061 11.2149 7.92308 13.7832Z" fill="white"/>
<path d="M19.3408 6.1922C18.4831 6.20542 17.6506 6.60335 17.1624 7.34362C16.403 8.53094 16.6775 10.1013 17.8477 10.9262C18.9951 11.7311 20.5455 11.4794 21.376 10.3947C21.376 10.3947 22.9019 9.11431 25.0524 9.8321C25.9725 10.1153 26.4299 11.2015 26.0157 12.0872C25.5615 13.0184 24.7426 13.9521 23.3089 14.3464C22.6078 14.4567 21.9262 14.8662 21.498 15.5382C21.1497 16.119 21.0435 16.7914 21.1709 17.427C21.1709 17.427 21.1779 21.1398 17.9313 22.0392C17.2501 22.1267 16.6086 22.4907 16.1775 23.1199C15.3526 24.29 15.6527 25.9232 16.8229 26.748C17.993 27.5729 19.6489 27.2928 20.451 26.1027C20.8848 25.5162 21.0082 24.7784 20.9007 24.12C20.6369 20.746 24.1404 19.5078 24.1404 19.5078C24.7988 19.4003 25.4403 19.0363 25.8514 18.4299C26.2824 17.8007 26.4086 17.1056 26.2783 16.4272C26.0573 13.0503 29.538 11.7922 29.538 11.7922C30.3046 11.6991 31.0033 11.2241 31.4259 10.4666C31.9999 9.39876 31.7394 8.0421 30.8513 7.26314C29.7838 6.36713 28.3077 6.4423 27.355 7.29884C24.571 9.6919 21.3542 7.11214 21.3542 7.11214C21.0526 6.76699 20.6911 6.49016 20.2097 6.34996C19.9448 6.23851 19.62 6.19538 19.3408 6.1922Z" fill="url(#paint0_linear_1710_26172)"/>
<path d="M149.819 35.5145C147.762 37.0125 145.301 37.8041 142.592 37.8041C141.571 37.8041 140.647 37.6889 139.827 37.4632C138.331 37.0521 137.2 36.2789 136.461 35.1677C135.723 34.0578 135.417 32.6837 135.571 31.0712C135.657 30.1734 135.891 29.1913 136.276 28.1299C138.565 21.8322 140.818 15.6355 143.11 9.33099C143.456 8.37813 144.378 7.74984 145.319 7.75038L145.319 7.74795H179.813L184.225 3.77639C185.141 2.95277 186.487 2.96414 187.23 3.80159C187.408 4.00234 187.536 4.23235 187.614 4.47755L192.8 17.9859C193.205 19.0445 192.636 20.3126 191.529 20.819C191.22 20.9607 190.901 21.0275 190.593 21.0272L190.592 21.0357H185.877C183.512 25.1876 180.059 28.8375 176.065 31.6892C171.778 34.7505 164.996 37.3347 159.872 37.4051L152.629 37.5043L152.63 37.5018C152.448 37.5018 152.266 37.4783 152.087 37.4292C150.979 37.1254 150.415 35.9577 150.828 34.8212L150.898 34.6271C150.554 34.9449 150.194 35.2409 149.819 35.5147L149.819 35.5145Z" fill="black"/>
<path fill-rule="evenodd" clip-rule="evenodd" d="M162.081 28.1009H159.722L161.32 23.7048H163.679C165.438 23.7048 166.021 24.5198 165.514 25.9135C165.015 27.2859 163.84 28.1009 162.081 28.1009ZM165.153 20.3594H158.29L152.834 35.3705H157.08L158.506 31.446H161.122C165.218 31.446 168.563 29.3231 169.803 25.9135C171.05 22.4823 169.249 20.3594 165.153 20.3594ZM142.795 35.6708C147.234 35.6708 150.763 33.1617 152.392 28.6799L155.417 20.3594H151.235L148.257 28.5511C147.322 31.1246 145.875 32.1538 144.117 32.1538C142.337 32.1538 141.639 31.1246 142.574 28.5511L145.552 20.3594H141.306L138.281 28.6799C136.652 33.162 138.357 35.6708 142.795 35.6708Z" fill="url(#paint1_linear_1710_26172)"/>
<path fill-rule="evenodd" clip-rule="evenodd" d="M145.117 9.87891H177.767L167.745 18.9H141.837L145.117 9.87891Z" fill="white"/>
<path fill-rule="evenodd" clip-rule="evenodd" d="M170.452 18.9042L185.571 5.29492L190.796 18.9042H184.695C180.29 27.7158 170.547 33.5841 161.078 35.0097C170.376 31.9206 174.813 24.0494 176.736 18.9042H170.452Z" fill="url(#paint2_linear_1710_26172)"/>
<path d="M165.771 17.1572H168.467L169.844 15.9168H167.787L169.346 11.6272H167.782L165.771 17.1574L165.771 17.1572ZM162.45 15.9486L162.818 14.9374H165.275L165.7 13.7681H163.243L163.582 12.8358H166.371L166.81 11.627H162.473L160.463 17.1572H164.903L165.342 15.9486H162.45ZM160.6 11.6272L157.758 15.2298L157.567 11.6272H155.876L156.228 17.1574H157.769L162.149 11.6272H160.6ZM151.287 15.9486L151.655 14.9374H154.112L154.537 13.7681H152.08L152.419 12.8358H155.208L155.647 11.627H151.31L149.3 17.1572H153.74L154.179 15.9486H151.287ZM144.481 17.1572H148.683L149.134 15.9168H146.496L148.055 11.6272H146.491L144.481 17.1574L144.481 17.1572Z" fill="black"/>
<defs>
<linearGradient id="paint0_linear_1710_26172" x1="36.4246" y1="28.0569" x2="13.6528" y2="8.08345" gradientUnits="userSpaceOnUse">
<stop stop-color="white"/>
<stop offset="1" stop-color="white"/>
</linearGradient>
<linearGradient id="paint1_linear_1710_26172" x1="168.898" y1="32.1243" x2="153.445" y2="11.8775" gradientUnits="userSpaceOnUse">
<stop stop-color="#0575E6"/>
<stop offset="1" stop-color="#FF0CF5"/>
</linearGradient>
<linearGradient id="paint2_linear_1710_26172" x1="189.444" y1="28.127" x2="163.308" y2="11.1455" gradientUnits="userSpaceOnUse">
<stop stop-color="#0575E6"/>
<stop offset="1" stop-color="#FF0CF5"/>
</linearGradient>
</defs>
</svg>
