<svg xmlns="http://www.w3.org/2000/svg" width="82" height="82" viewBox="0 0 82 82">
  <g id="Group_101" data-name="Group 101" transform="translate(-221 -1346)">
    <g id="Ellipse_19" data-name="Ellipse 19" transform="translate(221 1346)" fill="#fff" stroke="#707070" stroke-width="1" opacity="0.748">
      <circle cx="41" cy="41" r="41" stroke="none"/>
      <circle cx="41" cy="41" r="40.5" fill="none"/>
    </g>
    <g id="live_tv_black_24dp" transform="translate(244.677 1369.677)">
      <path id="Path_433" data-name="Path 433" d="M0,0H34.646V34.646H0Z" fill="none"/>
      <path id="Path_434" data-name="Path 434" d="M29.872,7.774H18.915l4.749-4.749L22.654,2,16.88,7.774,11.105,2,10.08,3.025l4.764,4.749H3.887A2.886,2.886,0,0,0,1,10.662V27.985a2.9,2.9,0,0,0,2.887,2.887H29.872a2.9,2.9,0,0,0,2.887-2.887V10.662A2.886,2.886,0,0,0,29.872,7.774Zm0,20.21H3.887V10.662H29.872ZM12.549,13.549V25.1l10.105-5.774Z" transform="translate(0.444 0.887)" fill="#425cda"/>
    </g>
  </g>
</svg>
