<svg xmlns="http://www.w3.org/2000/svg" xmlns:xlink="http://www.w3.org/1999/xlink" width="636" height="621" fill="none" xmlns:v="https://vecta.io/nano"><g filter="url(#A)"><path d="M410.002 407L427.001 407C537.458 407 627.002 317.457 627.001 206.999L627 -14.9998" stroke="url(#B)" stroke-width="10"/></g><path d="M205 621c113.218 0 205-91.782 205-205s-91.782-205-205-205S0 302.782 0 416s91.782 205 205 205z" fill="url(#C)"/><g fill-rule="evenodd"><path d="M240.875 445.725h16.4a5.13 5.13 0 0 0 5.125-5.125 5.13 5.13 0 0 0-5.125-5.125h-16.4a5.13 5.13 0 0 0-5.125 5.125 5.13 5.13 0 0 0 5.125 5.125zm0-30.75h57.4a5.13 5.13 0 0 0 5.125-5.125 5.13 5.13 0 0 0-5.125-5.125h-57.4a5.13 5.13 0 0 0-5.125 5.125 5.13 5.13 0 0 0 5.125 5.125z" fill="#fff"/><path d="M5.125 549.25h328a5.13 5.13 0 0 0 5.125-5.125 5.13 5.13 0 0 0-5.125-5.125h-328A5.13 5.13 0 0 0 0 544.125a5.13 5.13 0 0 0 5.125 5.125z" fill="url(#D)"/><path d="M105.904 539H5.125A5.13 5.13 0 0 0 0 544.125a5.13 5.13 0 0 0 5.125 5.125h100.779a5.13 5.13 0 0 0 5.125-5.125 5.13 5.13 0 0 0-5.125-5.125z" fill="#fff"/><path d="M205 491.85h15.375c2.83 0 5.125 2.295 5.125 5.125v20.162c0 6.879 4.569 12.92 11.188 14.794a15.38 15.38 0 0 0 17.281-6.737l19.019-30.904c.933-1.516 2.585-2.44 4.365-2.44h45.522a15.38 15.38 0 0 0 15.375-15.375V368.85a15.38 15.38 0 0 0-15.375-15.375h-82a5.13 5.13 0 0 0-5.125 5.125 5.13 5.13 0 0 0 5.125 5.125h82c2.83 0 5.125 2.295 5.125 5.125v107.625c0 2.83-2.295 5.125-5.125 5.125h-45.522c-5.34 0-10.296 2.77-13.095 7.318l-19.019 30.904c-1.201 1.953-3.553 2.87-5.76 2.246s-3.729-2.638-3.729-4.931v-20.162a15.38 15.38 0 0 0-15.375-15.375H205a5.13 5.13 0 0 0-5.125 5.125A5.13 5.13 0 0 0 205 491.85h0z" fill="url(#E)"/><path d="M78.925 460.762l-1.83-129.62a15.37 15.37 0 0 1 4.425-11.011c2.889-2.931 6.833-4.581 10.948-4.581H225.5c4.077 0 7.989 1.619 10.872 4.503s4.503 6.794 4.503 10.872v129.837l-38.771 6.11-7.536 36.94-9.839 1.025-30.979-41.792-74.825-2.283h0z" fill="url(#F)"/><path d="M246 453.925V325.8c0-4.078-1.62-7.989-4.503-10.872s-6.795-4.503-10.872-4.503h-143.5c-4.078 0-7.989 1.619-10.872 4.503s-4.503 6.794-4.503 10.872v128.125c0 4.077 1.62 7.989 4.503 10.872a15.38 15.38 0 0 0 10.872 4.503h66.022c1.78 0 3.432.923 4.365 2.438 0 .001 19.019 30.906 19.019 30.906 3.605 5.858 10.663 8.609 17.281 6.736S205 501.465 205 494.587v-20.162c0-2.83 2.295-5.125 5.125-5.125h20.5A15.38 15.38 0 0 0 246 453.925h0zm-10.25 0c0 2.83-2.295 5.125-5.125 5.125h-20.5a15.38 15.38 0 0 0-15.375 15.375v20.162c0 2.292-1.523 4.306-3.729 4.931s-4.559-.293-5.76-2.246l-19.019-30.905c-2.799-4.548-7.755-7.317-13.095-7.317H87.125c-1.359 0-2.663-.54-3.624-1.501A5.13 5.13 0 0 1 82 453.925V325.8a5.13 5.13 0 0 1 5.125-5.125h143.5a5.13 5.13 0 0 1 5.125 5.125v128.125h0z" fill="url(#G)"/><path d="M175.985 394.888c-3.195 9.016-13.11 13.741-22.125 10.545s-13.741-13.11-10.546-22.124 13.11-13.742 22.126-10.547a9.57 9.57 0 0 0 12.212-5.82 9.57 9.57 0 0 0-5.82-12.21c-18.968-6.724-39.825 3.217-46.548 22.185s3.217 39.825 22.185 46.548 39.825-3.217 46.548-22.185c1.764-4.976-.844-10.448-5.82-12.212s-10.448.845-12.212 5.82h0z" fill="url(#H)"/></g><defs><filter id="A" x="406.002" y="-15" width="229.999" height="435" filterUnits="userSpaceOnUse" color-interpolation-filters="sRGB"><feFlood flood-opacity="0" result="A"/><feColorMatrix in="SourceAlpha" values="0 0 0 0 0 0 0 0 0 0 0 0 0 0 0 0 0 0 127 0" result="B"/><feOffset dy="4"/><feGaussianBlur stdDeviation="2"/><feComposite in2="B" operator="out"/><feColorMatrix values="0 0 0 0 0 0 0 0 0 0 0 0 0 0 0 0 0 0 0.25 0"/><feBlend in2="A"/><feBlend in="SourceGraphic"/></filter><linearGradient id="B" x1="-100.022" y1="1420.81" x2="478.422" y2="-311.193" xlink:href="#I"><stop stop-color="#fa8080"/><stop offset=".495" stop-color="#bf74bb"/><stop offset=".847" stop-color="#1f1f1f"/><stop offset="1" stop-color="#5a43de"/></linearGradient><linearGradient id="C" x1="72.059" y1="259.996" x2="359.076" y2="551.168" xlink:href="#I"><stop stop-color="#ff0cf5"/><stop offset="1" stop-color="#0575e6"/></linearGradient><linearGradient id="D" x1="0" y1="544.125" x2="320.825" y2="544.125" xlink:href="#I"><stop stop-color="#3aa0fe"/><stop offset="1" stop-color="#59fef4"/></linearGradient><linearGradient id="E" x1="148.625" y1="435.475" x2="333.125" y2="435.475" xlink:href="#I"><stop stop-color="#3aa0fe"/><stop offset="1" stop-color="#59fef4"/></linearGradient><linearGradient id="F" x1="-184.506" y1="338.669" x2="-184.506" y2="499.127" xlink:href="#I"><stop stop-color="#36ff78" stop-opacity=".8"/><stop offset="1" stop-color="#0cffff" stop-opacity=".15"/></linearGradient><linearGradient id="G" x1="92.25" y1="315.55" x2="235.75" y2="487.75" xlink:href="#I"><stop stop-color="#36ff78"/><stop offset="1" stop-color="#0cffff"/></linearGradient><linearGradient id="H" x1="148.576" y1="364.593" x2="179.308" y2="407.462" xlink:href="#I"><stop stop-color="#ff0cf5"/><stop offset="1" stop-color="#0575e6"/></linearGradient><linearGradient id="I" gradientUnits="userSpaceOnUse"/></defs></svg>