<svg width="36" height="36" viewBox="0 0 36 36" fill="none" xmlns="http://www.w3.org/2000/svg">
<path d="M33.5996 8.32444C32.4512 8.83444 31.2176 9.17764 29.9228 9.33244C31.2452 8.54044 32.2592 7.28644 32.7368 5.79124C31.5008 6.52444 30.1304 7.05724 28.6712 7.34524C27.5036 6.10084 25.8404 5.32324 23.9996 5.32324C20.4644 5.32324 17.5988 8.19004 17.5988 11.724C17.5988 12.2256 17.6564 12.7152 17.7644 13.182C12.4448 12.9156 7.72884 10.3668 4.57044 6.49324C4.02084 7.43884 3.70524 8.53804 3.70524 9.71284C3.70524 11.9328 4.83444 13.8924 6.55164 15.0396C5.50284 15.006 4.51524 14.718 3.65244 14.2392C3.65244 14.2668 3.65244 14.292 3.65244 14.3196C3.65244 17.4216 5.85804 20.0088 8.78724 20.5956C8.25084 20.742 7.68444 20.82 7.10004 20.82C6.68844 20.82 6.28644 20.7792 5.89644 20.706C6.71124 23.2488 9.07524 25.1004 11.876 25.152C9.68604 26.8692 6.92604 27.8928 3.92604 27.8928C3.41004 27.8928 2.90004 27.8628 2.39844 27.8028C5.23164 29.6184 8.59524 30.678 12.2108 30.678C23.9852 30.678 30.422 20.9244 30.422 12.4656C30.422 12.1884 30.416 11.9124 30.404 11.6376C31.6556 10.734 32.7416 9.60724 33.5996 8.32444Z" fill="url(#paint0_linear_2437_1558)"/>
<defs>
<linearGradient id="paint0_linear_2437_1558" x1="33.5996" y1="5.32324" x2="2.39844" y2="5.32324" gradientUnits="userSpaceOnUse">
<stop stop-color="#A83AFE"/>
<stop offset="1" stop-color="#6E59FE"/>
</linearGradient>
</defs>
</svg>
