<svg width="36" height="36" viewBox="0 0 36 36" fill="none" xmlns="http://www.w3.org/2000/svg">
<path d="M11.9973 3.59998C7.36647 3.59998 3.59961 7.37032 3.59961 12.0023V24.0023C3.59961 28.6331 7.36995 32.4 12.002 32.4H24.002C28.6328 32.4 32.3996 28.6296 32.3996 23.9976V11.9976C32.3996 7.36683 28.6293 3.59998 23.9973 3.59998H11.9973ZM26.3996 8.39998C27.062 8.39998 27.5996 8.93758 27.5996 9.59998C27.5996 10.2624 27.062 10.8 26.3996 10.8C25.7372 10.8 25.1996 10.2624 25.1996 9.59998C25.1996 8.93758 25.7372 8.39998 26.3996 8.39998ZM17.9996 10.8C21.9704 10.8 25.1996 14.0292 25.1996 18C25.1996 21.9708 21.9704 25.2 17.9996 25.2C14.0288 25.2 10.7996 21.9708 10.7996 18C10.7996 14.0292 14.0288 10.8 17.9996 10.8ZM17.9996 13.2C16.7266 13.2 15.5057 13.7057 14.6055 14.6059C13.7053 15.506 13.1996 16.7269 13.1996 18C13.1996 19.273 13.7053 20.4939 14.6055 21.3941C15.5057 22.2943 16.7266 22.8 17.9996 22.8C19.2726 22.8 20.4935 22.2943 21.3937 21.3941C22.2939 20.4939 22.7996 19.273 22.7996 18C22.7996 16.7269 22.2939 15.506 21.3937 14.6059C20.4935 13.7057 19.2726 13.2 17.9996 13.2Z" fill="url(#paint0_linear_2437_1556)"/>
<defs>
<linearGradient id="paint0_linear_2437_1556" x1="32.3996" y1="3.59998" x2="3.59961" y2="3.59998" gradientUnits="userSpaceOnUse">
<stop stop-color="#A83AFE"/>
<stop offset="1" stop-color="#6E59FE"/>
</linearGradient>
</defs>
</svg>
