<svg width="36" height="36" viewBox="0 0 36 36" fill="none" xmlns="http://www.w3.org/2000/svg">
<path d="M30.1442 8.33524C27.2354 5.99764 22.6358 5.60164 22.4414 5.58484C22.1342 5.55844 21.8426 5.73244 21.7166 6.01324C21.7118 6.02284 21.455 6.76804 21.2066 7.48684C24.587 8.07844 26.8838 9.39124 27.0062 9.46324C27.5798 9.79684 27.7718 10.5324 27.437 11.1048C27.215 11.4864 26.813 11.7 26.4002 11.7C26.195 11.7 25.9886 11.6484 25.799 11.538C25.7654 11.5176 22.3958 9.60004 18.0026 9.60004C13.6082 9.60004 10.2374 11.5188 10.2038 11.538C9.6314 11.8704 8.897 11.6748 8.56459 11.1012C8.23219 10.53 8.4254 9.79684 8.99659 9.46324C9.119 9.39124 11.4242 8.07364 14.8142 7.48324C14.5526 6.75604 14.2886 6.02284 14.2838 6.01324C14.1578 5.73124 13.8662 5.55364 13.559 5.58484C13.3646 5.60044 8.765 5.99644 5.8178 8.36644C4.277 9.78964 1.2002 18.1104 1.2002 25.3044C1.2002 25.4316 1.2326 25.5552 1.2962 25.6656C3.4214 29.3976 9.215 30.3744 10.535 30.4164C10.5434 30.4176 10.5506 30.4176 10.5578 30.4176C10.7906 30.4176 11.0102 30.306 11.1482 30.1176L12.5762 28.1832C9.44419 27.4284 7.7882 26.2416 7.68859 26.1684C7.1558 25.776 7.04059 25.0248 7.43299 24.4908C7.82419 23.9592 8.57299 23.8416 9.10579 24.2316C9.15019 24.2604 12.2066 26.4 18.0002 26.4C23.8166 26.4 26.8646 24.252 26.8946 24.2304C27.4274 23.844 28.1786 23.9604 28.5686 24.4956C28.9574 25.0284 28.8446 25.7748 28.3142 26.166C28.2146 26.2392 26.567 27.4236 23.4422 28.1784L24.8522 30.1164C24.9902 30.306 25.2098 30.4164 25.4426 30.4164C25.451 30.4164 25.4582 30.4164 25.4654 30.4152C26.7866 30.3732 32.5802 29.3964 34.7042 25.6644C34.7678 25.554 34.8002 25.4304 34.8002 25.3032C34.8002 18.1104 31.7234 9.78964 30.1442 8.33524ZM13.2002 22.8C11.8742 22.8 10.8002 21.4572 10.8002 19.8C10.8002 18.1428 11.8742 16.8 13.2002 16.8C14.5262 16.8 15.6002 18.1428 15.6002 19.8C15.6002 21.4572 14.5262 22.8 13.2002 22.8ZM22.8002 22.8C21.4742 22.8 20.4002 21.4572 20.4002 19.8C20.4002 18.1428 21.4742 16.8 22.8002 16.8C24.1262 16.8 25.2002 18.1428 25.2002 19.8C25.2002 21.4572 24.1262 22.8 22.8002 22.8Z" fill="url(#paint0_linear_2437_1560)"/>
<defs>
<linearGradient id="paint0_linear_2437_1560" x1="34.8002" y1="5.5813" x2="1.2002" y2="5.5813" gradientUnits="userSpaceOnUse">
<stop stop-color="#A83AFE"/>
<stop offset="1" stop-color="#6E59FE"/>
</linearGradient>
</defs>
</svg>
