<svg width="30" height="30" viewBox="0 0 30 30" fill="none" xmlns="http://www.w3.org/2000/svg">
<path d="M14.9996 0.599976C7.04721 0.599976 0.599609 7.04758 0.599609 15C0.599609 22.2192 5.91801 28.1808 12.8468 29.2224V18.816H9.28401V15.0312H12.8468V12.5124C12.8468 8.34238 14.8784 6.51238 18.344 6.51238C20.0036 6.51238 20.882 6.63598 21.2972 6.69118V9.99478H18.9332C17.462 9.99478 16.9484 11.3904 16.9484 12.9624V15.0312H21.26L20.6756 18.816H16.9484V29.2524C23.9768 28.2996 29.3996 22.29 29.3996 15C29.3996 7.04758 22.952 0.599976 14.9996 0.599976Z" fill="url(#paint0_linear_2437_1555)"/>
<defs>
<linearGradient id="paint0_linear_2437_1555" x1="29.3996" y1="0.599976" x2="0.599609" y2="0.599976" gradientUnits="userSpaceOnUse">
<stop stop-color="#A83AFE"/>
<stop offset="1" stop-color="#6E59FE"/>
</linearGradient>
</defs>
</svg>
