<svg width="120" height="120" viewBox="0 0 120 120" fill="none" xmlns="http://www.w3.org/2000/svg">
<g clip-path="url(#clip0_1048_915)">
<path fill-rule="evenodd" clip-rule="evenodd" d="M11.7559 58H5.00587C2.24586 58 0.00585938 55.761 0.00585938 53V31C0.00585938 28.239 2.24586 26 5.00587 26H30.8758C29.6558 23.536 29.0059 20.802 29.0059 18C29.0059 8.059 37.0659 0 47.006 0C52.116 0 56.726 2.12999 60.006 5.54999C63.276 2.12999 67.896 0 73.006 0C82.9461 0 91.0061 8.059 91.0061 18C91.0061 20.802 90.3459 23.536 89.1259 26H115.006C117.766 26 120.006 28.239 120.006 31V53C120.006 55.761 117.766 58 115.006 58H108.256V115C108.256 117.761 106.016 120 103.256 120H16.7559C13.9959 120 11.7559 117.761 11.7559 115V58ZM47.006 36C27.0159 36 10.0059 36 10.0059 36V48C10.0059 48 12.5159 48 16.7559 48H103.256C107.486 48 110.006 48 110.006 48V36C110.006 36 92.9961 36 73.006 36H47.006ZM55.006 18C55.006 13.582 51.426 10 47.006 10C42.586 10 39.006 13.582 39.006 18C39.006 20.122 39.8458 22.157 41.3458 23.657C42.8458 25.157 44.886 26 47.006 26H55.006V18ZM73.006 26C75.126 26 77.1559 25.157 78.656 23.657C80.156 22.157 81.0061 20.122 81.0061 18C81.0061 13.582 77.426 10 73.006 10C68.586 10 65.006 13.582 65.006 18V26H73.006ZM21.7559 58V110C21.7559 110 37.686 110 55.006 110V58H21.7559ZM65.006 110C82.3261 110 98.2561 110 98.2561 110V58H65.006V110Z" fill="url(#paint0_linear_1048_915)"/>
</g>
<defs>
<linearGradient id="paint0_linear_1048_915" x1="0.00585938" y1="0" x2="120.006" y2="120" gradientUnits="userSpaceOnUse">
<stop stop-color="#FF0CF5"/>
<stop offset="1" stop-color="#0575E6"/>
</linearGradient>
<clipPath id="clip0_1048_915">
<rect width="120" height="120" fill="white"/>
</clipPath>
</defs>
</svg>
