<svg xmlns="http://www.w3.org/2000/svg" xmlns:xlink="http://www.w3.org/1999/xlink" width="720" height="410" fill="none" xmlns:v="https://vecta.io/nano"><g filter="url(#A)"><path d="M197 228L739 227.998" stroke="url(#B)" stroke-width="10"/></g><g clip-path="url(#I)"><path d="M205 410c113.218 0 205-91.782 205-205S318.218 0 205 0 0 91.782 0 205s91.782 205 205 205z" fill="url(#C)"/><g fill-rule="evenodd"><path d="M208.438 136.594v29.007c0 11.578 5.22 21.947 13.432 28.876-13.095 1.705-24.849 7.707-33.797 16.545a5.13 5.13 0 0 0-.044 7.248 5.13 5.13 0 0 0 7.248.045c8.813-8.706 20.921-14.084 34.276-14.084h49.635c26.928 0 48.79 21.862 48.79 48.79v78.208a5.13 5.13 0 0 0 5.125 5.125 5.13 5.13 0 0 0 5.125-5.125v-78.208c0-29.981-22.396-54.773-51.357-58.544 8.212-6.929 13.432-17.298 13.432-28.876v-29.007c0-7.96-2.467-15.347-6.676-21.437l-.016-.023-.005-.008c-6.82-9.848-18.199-16.304-31.074-16.304h-16.323c-20.846 0-37.771 16.925-37.771 37.772zm10.25 12.031v16.976c0 15.189 12.332 27.521 27.521 27.521h16.323c15.19 0 27.521-12.332 27.521-27.521v-29.007a27.81 27.81 0 0 0-.099-2.357c-3.824 5.651-9.573 9.142-15.359 11.274-8.726 3.215-17.455 3.133-18.4 3.114h-37.507zm65.53-28.971c-5.038-6.439-12.882-10.582-21.686-10.582h-16.323c-15.189 0-27.521 12.332-27.521 27.522v1.781h37.562l.158.002s7.32.214 14.643-2.484c6.213-2.288 12.521-6.858 13.167-16.239z" fill="url(#D)"/><path d="M5.125 338.25h328a5.13 5.13 0 0 0 5.125-5.125 5.13 5.13 0 0 0-5.125-5.125h-328A5.13 5.13 0 0 0 0 333.125a5.13 5.13 0 0 0 5.125 5.125z" fill="url(#E)"/><path d="M105.904 328H5.125A5.13 5.13 0 0 0 0 333.125a5.13 5.13 0 0 0 5.125 5.125h100.779a5.13 5.13 0 0 0 5.125-5.125 5.13 5.13 0 0 0-5.125-5.125z" fill="#fff"/></g><path d="M210.5 215.25H79.438L97 335.883h135.786L210.5 215.25z" fill="url(#F)"/><g fill-rule="evenodd"><path d="M165.619 272.721c-1.775 5.009-7.283 7.635-12.292 5.859s-7.635-7.284-5.859-12.293 7.283-7.634 12.293-5.859c2.764.98 5.804-.468 6.784-3.233a5.32 5.32 0 0 0-3.234-6.785c-10.538-3.735-22.127 1.788-25.862 12.326s1.788 22.127 12.326 25.862 22.128-1.787 25.863-12.325a5.32 5.32 0 0 0-3.234-6.785 5.32 5.32 0 0 0-6.785 3.233z" fill="url(#G)"/><path d="M87.012 210.125a15.37 15.37 0 0 0-15.147 18.009l16.924 97.311c1.288 7.407 7.744 12.796 15.262 12.74l118.601-.882c4.522-.034 8.801-2.057 11.696-5.531s4.115-8.047 3.333-12.501l-16.919-96.428c-1.291-7.354-7.677-12.718-15.143-12.718H87.012zm0 10.25h118.606c2.488 0 4.617 1.788 5.048 4.239l16.918 96.428a5.12 5.12 0 0 1-1.111 4.167c-.965 1.158-2.391 1.833-3.899 1.844l-118.601.882c-2.506.019-4.657-1.777-5.087-4.246l-16.924-97.311c-.259-1.49.154-3.019 1.128-4.176a5.12 5.12 0 0 1 3.922-1.827z" fill="url(#H)"/><path d="M295.2 237.625h-34.85a5.13 5.13 0 0 0-5.125 5.125 5.13 5.13 0 0 0 5.125 5.125h34.85a5.13 5.13 0 0 0 5.125-5.125 5.13 5.13 0 0 0-5.125-5.125z" fill="#fff"/></g></g><defs><filter id="A" x="193" y="222.998" width="550" height="18.002" filterUnits="userSpaceOnUse" color-interpolation-filters="sRGB"><feFlood flood-opacity="0" result="A"/><feColorMatrix in="SourceAlpha" values="0 0 0 0 0 0 0 0 0 0 0 0 0 0 0 0 0 0 127 0" result="B"/><feOffset dy="4"/><feGaussianBlur stdDeviation="2"/><feComposite in2="B" operator="out"/><feColorMatrix values="0 0 0 0 0 0 0 0 0 0 0 0 0 0 0 0 0 0 0.25 0"/><feBlend in2="A"/><feBlend in="SourceGraphic"/></filter><linearGradient id="B" x1="-696.846" y1="-498.906" x2="1035.15" y2="79.537" xlink:href="#J"><stop stop-color="#fa8080"/><stop offset=".495" stop-color="#bf74bb"/><stop offset=".847" stop-color="#1f1f1f"/><stop offset="1" stop-color="#5a43de"/></linearGradient><linearGradient id="C" x1="72.059" y1="48.996" x2="359.076" y2="340.168" xlink:href="#J"><stop stop-color="#ff0cf5"/><stop offset="1" stop-color="#0575e6"/></linearGradient><linearGradient id="D" x1="342.35" y1="340.168" x2="210.125" y2="98.822" xlink:href="#J"><stop stop-color="#3aa0fe"/><stop offset="1" stop-color="#59fef4"/></linearGradient><linearGradient id="E" x1="0" y1="333.125" x2="320.825" y2="333.125" xlink:href="#J"><stop stop-color="#3aa0fe"/><stop offset="1" stop-color="#59fef4"/></linearGradient><linearGradient id="F" x1="-164.967" y1="229.983" x2="-164.967" y2="332.244" xlink:href="#J"><stop stop-color="#36ff78" stop-opacity=".8"/><stop offset="1" stop-color="#0cffff" stop-opacity=".15"/></linearGradient><linearGradient id="G" x1="150.391" y1="255.889" x2="167.466" y2="279.707" xlink:href="#J"><stop stop-color="#ff0cf5"/><stop offset="1" stop-color="#0575e6"/></linearGradient><linearGradient id="H" x1="71.751" y1="213.2" x2="224.476" y2="331.075" xlink:href="#J"><stop stop-color="#36ff78"/><stop offset="1" stop-color="#0cffff"/></linearGradient><clipPath id="I"><path fill="#fff" d="M0 0h410v410H0z"/></clipPath><linearGradient id="J" gradientUnits="userSpaceOnUse"/></defs></svg>