<svg xmlns="http://www.w3.org/2000/svg" width="120" height="120" fill="none" xmlns:v="https://vecta.io/nano"><g clip-path="url(#B)"><path fill-rule="evenodd" d="M60.001 14.477C45.576-4.682 22.281-2.976 10.083 8.996-2.7 21.541-3.657 46.618 9.113 71.709 17.578 89.45 39.15 107.356 57.252 119.2c1.669 1.092 3.829 1.092 5.498 0 18.109-11.849 39.691-29.764 48.162-47.537 12.747-25.061 11.786-50.126-.992-62.667C97.721-2.976 74.426-4.682 60.001 14.477zm-43.01 50.567l1.073 2.178.06.122c7.361 15.48 25.79 30.828 41.877 41.68 16.087-10.852 34.516-26.2 41.877-41.68l.061-.123c6.445-12.651 9.137-25.279 7.848-35.653-.778-6.256-3.01-11.641-6.896-15.455-9.646-9.466-28.778-8.845-38.423 10.088a5.01 5.01 0 0 1-8.933 0C45.889 7.268 26.757 6.647 17.112 16.113c-3.887 3.814-6.119 9.199-6.896 15.455-.873 7.026.08 15.086 2.789 23.489h15.216l9.54-14.698c1.064-1.639 2.988-2.509 4.926-2.229s3.534 1.66 4.086 3.533l6.934 23.5 5.091-7.864c.923-1.425 2.508-2.286 4.209-2.286h14.027c2.765 0 5.009 2.237 5.009 4.993S79.799 65 77.034 65H65.736l-9.541 14.737c-1.062 1.641-2.986 2.514-4.925 2.234s-3.537-1.659-4.09-3.533l-6.938-23.516-5.09 7.841a5.01 5.01 0 0 1-4.206 2.281H16.991z" fill="url(#A)"/></g><defs><linearGradient id="A" x1=".002" y1=".019" x2="121.002" y2="120.019" gradientUnits="userSpaceOnUse"><stop stop-color="#ff0cf5"/><stop offset="1" stop-color="#0575e6"/></linearGradient><clipPath id="B"><path fill="#fff" d="M0 0h120v120H0z"/></clipPath></defs></svg>