<svg xmlns="http://www.w3.org/2000/svg" width="120" height="120" fill="none" xmlns:v="https://vecta.io/nano"><g clip-path="url(#B)"><path fill-rule="evenodd" d="M21 28.023L2.324 36.616C.907 37.268 0 38.682 0 40.237v75.767c0 2.203 1.791 3.988 4 3.988h112c2.209 0 4-1.785 4-3.988V40.237c0-1.555-.907-2.969-2.324-3.621L99 28.023 98.979 3.98c0-2.194-1.778-3.976-3.979-3.988H25.021c-1.064-.006-2.087.412-2.842 1.161A3.98 3.98 0 0 0 21 3.98v24.043zM8 66.35v45.667h104V66.35L61.915 93.585a4.08 4.08 0 0 1-1.904.487H60c-.649.001-1.306-.156-1.915-.487L8 66.35zm21-35.836v.027.089 38.054l31 16.858 31-16.858V30.513l-.021-22.566L29 7.989v22.525zM8 42.789v14.476l13 7.069V36.807L8 42.789zm91-5.982v27.527l13-7.069V42.789l-13-5.982zM72.7 49.592a9.53 9.53 0 0 1-1.325 4.875c-.883 1.517-2.183 2.767-3.9 3.75s-3.742 1.558-6.075 1.725v4.05h-3.2v-4.1c-3.333-.3-6.017-1.308-8.05-3.025s-3.083-4.042-3.15-6.975h7.5c.2 2.4 1.433 3.85 3.7 4.35v-9.55c-2.4-.6-4.333-1.2-5.8-1.8s-2.733-1.567-3.8-2.9-1.6-3.15-1.6-5.45c0-2.9 1.042-5.267 3.125-7.1s4.775-2.883 8.075-3.15v-4.05h3.2v4.05c3.2.267 5.758 1.233 7.675 2.9s2.992 3.967 3.225 6.9h-7.55c-.1-.967-.442-1.808-1.025-2.525s-1.358-1.225-2.325-1.525v9.45c2.5.633 4.475 1.242 5.925 1.825s2.708 1.533 3.775 2.85 1.6 3.125 1.6 5.425zm-11.3 4.75c1.267-.233 2.258-.75 2.975-1.55s1.075-1.767 1.075-2.9c0-1.1-.35-1.983-1.05-2.65s-1.7-1.217-3-1.65v8.75zm-7.1-20.15c0 1.1.333 1.992 1 2.675s1.633 1.242 2.9 1.675v-8.65c-1.2.167-2.15.617-2.85 1.35s-1.05 1.717-1.05 2.95z" fill="url(#A)"/></g><defs><linearGradient id="A" x1="0" y1="-.008" x2="120" y2="119.992" gradientUnits="userSpaceOnUse"><stop stop-color="#ff0cf5"/><stop offset="1" stop-color="#0575e6"/></linearGradient><clipPath id="B"><path fill="#fff" d="M0 0h120v120H0z"/></clipPath></defs></svg>