<svg width="120" height="120" viewBox="0 0 120 120" fill="none" xmlns="http://www.w3.org/2000/svg">
<g clip-path="url(#clip0_1048_908)">
<path fill-rule="evenodd" clip-rule="evenodd" d="M20.098 61.9226L2.09801 49.1324C0.243463 47.814 -0.480525 45.3989 0.342617 43.2748L12.0449 13.2455C12.521 12.0206 13.4633 11.035 14.6633 10.5045L36.3723 0.927247C36.7392 0.762327 37.1262 0.642143 37.5328 0.571606C39.3873 0.246734 41.1921 0.998778 42.2929 2.40457C42.2929 2.40655 42.2929 2.40858 42.3029 2.41057C42.6896 2.90831 42.9873 3.4885 43.1658 4.13129C43.1162 3.95246 43.007 3.32061 42.3029 2.41057C46.4384 7.71184 52.7856 10.8095 59.5096 10.8095C66.2336 10.8095 72.5808 7.70981 76.7263 2.40457C76.7263 2.40457 76.7459 2.38174 76.7558 2.36982C78.1542 0.610349 80.5543 0.0122876 82.6171 0.91239L82.6271 0.918333C82.7659 0.978936 104.356 10.5045 104.356 10.5045C105.556 11.035 106.498 12.0206 106.974 13.2455L118.677 43.2748C119.5 45.3989 118.776 47.814 116.921 49.1324L98.9213 61.9226V114.537C98.9213 117.281 96.6998 119.504 93.9626 119.504H25.0566C22.3195 119.504 20.098 117.281 20.098 114.537V61.9226ZM98.9213 49.7434L108.025 43.2718L98.485 18.7694L81.9329 11.4662C76.0122 17.3715 67.9691 20.7444 59.5096 20.7444C51.0501 20.7444 43.007 17.3715 37.0863 11.4662L20.5343 18.7694L10.9939 43.2718L20.098 49.7434V43.547C20.098 40.805 22.3195 38.5795 25.0566 38.5795C27.7938 38.5795 30.0153 40.805 30.0153 43.547V109.569H89.0039V43.547C89.0039 40.805 91.2254 38.5795 93.9626 38.5795C96.6998 38.5795 98.9213 40.805 98.9213 43.547V49.7434Z" fill="url(#paint0_linear_1048_908)"/>
</g>
<defs>
<linearGradient id="paint0_linear_1048_908" x1="-0.153247" y1="0.497091" x2="119.275" y2="119.294" gradientUnits="userSpaceOnUse">
<stop stop-color="#FF0CF5"/>
<stop offset="1" stop-color="#0575E6"/>
</linearGradient>
<clipPath id="clip0_1048_908">
<rect width="120" height="120" fill="white"/>
</clipPath>
</defs>
</svg>
