<svg xmlns="http://www.w3.org/2000/svg" xmlns:xlink="http://www.w3.org/1999/xlink" width="260" height="260" fill="none" xmlns:v="https://vecta.io/nano"><g clip-path="url(#G)"><path d="M130 260c71.797 0 130-58.203 130-130S201.797 0 130 0 0 58.203 0 130s58.203 130 130 130z" fill="url(#A)"/><g fill-rule="evenodd"><path d="M132.18 86.621v18.394c0 7.343 3.311 13.918 8.519 18.312-8.305 1.081-15.758 4.888-21.433 10.492a3.25 3.25 0 0 0-.028 4.596c1.261 1.276 3.32 1.289 4.596.029 5.589-5.521 13.268-8.931 21.736-8.931h31.477c17.076 0 30.94 13.864 30.94 30.94v49.595a3.25 3.25 0 1 0 6.5 0v-49.595c0-19.013-14.203-34.734-32.569-37.126 5.208-4.394 8.519-10.969 8.519-18.312V86.621c0-5.047-1.565-9.732-4.234-13.594l-.01-.014-.003-.005c-4.326-6.245-11.541-10.339-19.706-10.339h-10.351c-13.22 0-23.953 10.733-23.953 23.953zm6.5 7.63v10.765c0 9.633 7.821 17.453 17.453 17.453h10.351c9.632 0 17.453-7.82 17.453-17.453V86.621c0-.504-.022-1.002-.063-1.494-2.426 3.584-6.071 5.797-9.74 7.149-5.534 2.039-11.07 1.987-11.669 1.975H138.68zm41.556-18.372c-3.195-4.083-8.169-6.711-13.752-6.711h-10.351c-9.632 0-17.453 7.82-17.453 17.453v1.13h23.82l.1.001s4.643.136 9.286-1.575c3.94-1.451 7.941-4.349 8.35-10.298z" fill="url(#B)"/><path d="M3.25 214.5h208a3.25 3.25 0 1 0 0-6.5h-208a3.25 3.25 0 1 0 0 6.5z" fill="url(#C)"/><path d="M67.159 208H3.25a3.25 3.25 0 1 0 0 6.5h63.909c1.793 0 3.25-1.456 3.25-3.25s-1.457-3.25-3.25-3.25z" fill="#fff"/></g><path d="M133.488 136.5H50.375l11.137 76.499h86.108L133.488 136.5z" fill="url(#D)"/><g fill-rule="evenodd"><path d="M105.027 172.945a6.11 6.11 0 0 1-7.796 3.715 6.11 6.11 0 0 1-3.715-7.795 6.11 6.11 0 0 1 7.795-3.716c1.753.622 3.681-.297 4.303-2.05s-.298-3.681-2.051-4.303c-6.683-2.368-14.032 1.135-16.4 7.817s1.134 14.032 7.816 16.4 14.032-1.133 16.401-7.816c.621-1.753-.298-3.681-2.051-4.302a3.37 3.37 0 0 0-4.302 2.05z" fill="url(#E)"/><path d="M55.178 133.25a9.75 9.75 0 0 0-9.606 11.421l10.732 61.709a9.75 9.75 0 0 0 9.678 8.079l75.21-.56a9.75 9.75 0 0 0 9.53-11.434l-10.729-61.15a9.75 9.75 0 0 0-9.603-8.065H55.178zm0 6.5h75.213a3.25 3.25 0 0 1 3.201 2.688l10.729 61.15a3.25 3.25 0 0 1-3.177 3.811l-75.21.56a3.25 3.25 0 0 1-3.226-2.693l-10.732-61.709a3.25 3.25 0 0 1 3.202-3.807z" fill="url(#F)"/><path d="M187.2 150.689h-22.1c-1.794 0-3.25 1.457-3.25 3.25a3.25 3.25 0 0 0 3.25 3.25h22.1a3.25 3.25 0 0 0 3.25-3.25c0-1.793-1.456-3.25-3.25-3.25z" fill="#fff"/></g></g><defs><linearGradient id="A" x1="45.696" y1="31.071" x2="227.707" y2="215.716" xlink:href="#H"><stop stop-color="#ff0cf5"/><stop offset="1" stop-color="#0575e6"/></linearGradient><linearGradient id="B" x1="217.1" y1="215.716" x2="133.25" y2="62.668" xlink:href="#H"><stop stop-color="#3aa0fe"/><stop offset="1" stop-color="#59fef4"/></linearGradient><linearGradient id="C" x1="0" y1="211.25" x2="203.45" y2="211.25" xlink:href="#H"><stop stop-color="#3aa0fe"/><stop offset="1" stop-color="#59fef4"/></linearGradient><linearGradient id="D" x1="-104.613" y1="145.843" x2="-104.613" y2="210.691" xlink:href="#H"><stop stop-color="#36ff78" stop-opacity=".8"/><stop offset="1" stop-color="#0cffff" stop-opacity=".15"/></linearGradient><linearGradient id="E" x1="95.37" y1="162.271" x2="106.197" y2="177.375" xlink:href="#H"><stop stop-color="#ff0cf5"/><stop offset="1" stop-color="#0575e6"/></linearGradient><linearGradient id="F" x1="45.5" y1="135.2" x2="142.35" y2="209.95" xlink:href="#H"><stop stop-color="#36ff78"/><stop offset="1" stop-color="#0cffff"/></linearGradient><clipPath id="G"><path fill="#fff" d="M0 0h260v260H0z"/></clipPath><linearGradient id="H" gradientUnits="userSpaceOnUse"/></defs></svg>