<svg width="80" height="80" viewBox="0 0 80 80" fill="none" xmlns="http://www.w3.org/2000/svg">
<g filter="url(#filter0_f_10_3077)">
<rect x="37.3303" y="20.0854" width="22.6061" height="23.0592" fill="#B74C25"/>
</g>
<g filter="url(#filter1_f_10_3077)">
<rect x="37.3303" y="38.9517" width="22.6061" height="20.9629" fill="#7722A4"/>
</g>
<g filter="url(#filter2_f_10_3077)">
<rect x="20.1063" y="20.085" width="21.5296" height="23.0592" fill="#D1A62E"/>
</g>
<g filter="url(#filter3_f_10_3077)">
<rect x="20.1062" y="37.9037" width="21.5296" height="22.011" fill="#A72652"/>
</g>
<g filter="url(#filter4_d_10_3077)">
<rect x="19" y="19" width="42" height="42" fill="url(#paint0_linear_10_3077)"/>
</g>
<path d="M33.9898 35.4321C33.9126 35.4906 32.5497 36.2408 32.5497 37.9089C32.5497 39.8383 34.284 40.5208 34.3359 40.5377C34.3279 40.5793 34.0604 41.4725 33.4215 42.3826C32.8518 43.1835 32.2568 43.9831 31.3517 43.9831C30.4467 43.9831 30.2137 43.4695 29.1689 43.4695C28.1507 43.4695 27.7886 44 26.9607 44C26.1329 44 25.5552 43.2589 24.891 42.3488C24.1217 41.2801 23.5001 39.6199 23.5001 38.0441C23.5001 35.5166 25.1825 34.1762 26.8383 34.1762C27.7181 34.1762 28.4515 34.7405 29.0038 34.7405C29.5296 34.7405 30.3495 34.1424 31.3504 34.1424C31.7298 34.1424 33.0927 34.1762 33.9898 35.4321ZM30.8752 33.0724C31.2892 32.5926 31.582 31.927 31.582 31.2613C31.582 31.169 31.574 31.0754 31.5567 31C30.8832 31.0247 30.082 31.4381 29.5988 31.9855C29.2195 32.4067 28.8654 33.0724 28.8654 33.7472C28.8654 33.8486 28.8827 33.95 28.8907 33.9825C28.9333 33.9903 29.0025 33.9994 29.0717 33.9994C29.676 33.9994 30.436 33.6041 30.8752 33.0724Z" fill="url(#paint1_linear_10_3077)"/>
<path d="M37.5321 44V34.1357H39.8973L42.6249 41.3545H42.7479L45.4686 34.1357H47.8339V44H45.995V37.2871H44.9764L46.9452 34.4092L43.329 44H42.037L38.4276 34.4092L40.3895 37.2871H39.371V44H37.5321ZM52.4481 44V36.084H52.3251L49.9052 37.7656V35.9062L52.455 34.1357H54.5126V44H52.4481Z" fill="url(#paint2_linear_10_3077)"/>
<defs>
<filter id="filter0_f_10_3077" x="17.3303" y="0.0853975" width="62.6061" height="63.0592" filterUnits="userSpaceOnUse" color-interpolation-filters="sRGB">
<feFlood flood-opacity="0" result="BackgroundImageFix"/>
<feBlend mode="normal" in="SourceGraphic" in2="BackgroundImageFix" result="shape"/>
<feGaussianBlur stdDeviation="10" result="effect1_foregroundBlur_10_3077"/>
</filter>
<filter id="filter1_f_10_3077" x="17.3303" y="18.9517" width="62.6061" height="60.9629" filterUnits="userSpaceOnUse" color-interpolation-filters="sRGB">
<feFlood flood-opacity="0" result="BackgroundImageFix"/>
<feBlend mode="normal" in="SourceGraphic" in2="BackgroundImageFix" result="shape"/>
<feGaussianBlur stdDeviation="10" result="effect1_foregroundBlur_10_3077"/>
</filter>
<filter id="filter2_f_10_3077" x="0.106323" y="0.0850441" width="61.5295" height="63.0592" filterUnits="userSpaceOnUse" color-interpolation-filters="sRGB">
<feFlood flood-opacity="0" result="BackgroundImageFix"/>
<feBlend mode="normal" in="SourceGraphic" in2="BackgroundImageFix" result="shape"/>
<feGaussianBlur stdDeviation="10" result="effect1_foregroundBlur_10_3077"/>
</filter>
<filter id="filter3_f_10_3077" x="0.106201" y="17.9037" width="61.5295" height="62.011" filterUnits="userSpaceOnUse" color-interpolation-filters="sRGB">
<feFlood flood-opacity="0" result="BackgroundImageFix"/>
<feBlend mode="normal" in="SourceGraphic" in2="BackgroundImageFix" result="shape"/>
<feGaussianBlur stdDeviation="10" result="effect1_foregroundBlur_10_3077"/>
</filter>
<filter id="filter4_d_10_3077" x="16" y="16" width="48" height="48" filterUnits="userSpaceOnUse" color-interpolation-filters="sRGB">
<feFlood flood-opacity="0" result="BackgroundImageFix"/>
<feColorMatrix in="SourceAlpha" type="matrix" values="0 0 0 0 0 0 0 0 0 0 0 0 0 0 0 0 0 0 127 0" result="hardAlpha"/>
<feMorphology radius="1" operator="dilate" in="SourceAlpha" result="effect1_dropShadow_10_3077"/>
<feOffset/>
<feGaussianBlur stdDeviation="1"/>
<feComposite in2="hardAlpha" operator="out"/>
<feColorMatrix type="matrix" values="0 0 0 0 1 0 0 0 0 1 0 0 0 0 1 0 0 0 0.17 0"/>
<feBlend mode="normal" in2="BackgroundImageFix" result="effect1_dropShadow_10_3077"/>
<feBlend mode="normal" in="SourceGraphic" in2="effect1_dropShadow_10_3077" result="shape"/>
</filter>
<linearGradient id="paint0_linear_10_3077" x1="19" y1="19.8936" x2="61.8936" y2="61.4468" gradientUnits="userSpaceOnUse">
<stop offset="0.156296" stop-color="#2E2E33"/>
<stop offset="0.567476" stop-color="#0B0B0D"/>
</linearGradient>
<linearGradient id="paint1_linear_10_3077" x1="23.5001" y1="38.5841" x2="34.3345" y2="38.5841" gradientUnits="userSpaceOnUse">
<stop stop-color="#737A8D"/>
<stop offset="1" stop-color="#EAEBFF"/>
</linearGradient>
<linearGradient id="paint2_linear_10_3077" x1="37.0905" y1="39.8953" x2="56.336" y2="40.0754" gradientUnits="userSpaceOnUse">
<stop stop-color="#E8E9FD"/>
<stop offset="1" stop-color="white"/>
</linearGradient>
</defs>
</svg>
