<svg width="42" height="42" viewBox="0 0 42 42" fill="none" xmlns="http://www.w3.org/2000/svg">
<path d="M0 -1.43051e-05H42V42H0V-1.43051e-05Z" fill="#00AAE7"/>
<path d="M0 -1.43051e-05V32.3186H32.3185V-1.43051e-05H0Z" fill="url(#paint0_linear_10_3054)"/>
<path d="M32.3188 32.3187V42H42V32.3187H32.3188Z" fill="url(#paint1_linear_10_3054)"/>
<path d="M5.75518 21.0553C5.75518 21.8448 6.00267 22.504 6.49766 23.0327C7.00015 23.5615 7.62639 23.8259 8.37637 23.8259C8.87136 23.8259 9.31385 23.7136 9.70384 23.4891C10.0938 23.2573 10.4276 22.9168 10.7051 22.4677L11.7738 23.087C11.4438 23.6955 10.9751 24.1736 10.3676 24.5213C9.76759 24.869 9.08885 25.0428 8.33137 25.0428C7.1539 25.0428 6.18642 24.6698 5.42893 23.9237C4.67895 23.1776 4.30396 22.2287 4.30396 21.077C4.30396 19.947 4.6977 19.0017 5.48518 18.2411C6.27266 17.4733 7.25514 17.0894 8.43262 17.0894C9.1901 17.0894 9.85009 17.256 10.4126 17.5892C10.9826 17.9152 11.4288 18.386 11.7513 19.0017L10.6376 19.6754C10.3601 19.2045 10.0413 18.8605 9.68134 18.6432C9.32885 18.4186 8.90136 18.3063 8.39887 18.3063C7.63389 18.3063 7.00015 18.5671 6.49766 19.0886C6.00267 19.6102 5.75518 20.2657 5.75518 21.0553Z" fill="url(#paint2_linear_10_3054)"/>
<path d="M12.3458 21.077C12.3458 19.947 12.7358 19.0017 13.5157 18.2411C14.2957 17.4733 15.2707 17.0894 16.4407 17.0894C17.6107 17.0894 18.5819 17.4697 19.3544 18.2303C20.1269 18.9836 20.5131 19.9253 20.5131 21.0553C20.5131 22.1852 20.1231 23.1341 19.3431 23.9019C18.5631 24.6625 17.5919 25.0428 16.4294 25.0428C15.2595 25.0428 14.2845 24.6661 13.5045 23.9128C12.732 23.1522 12.3458 22.207 12.3458 21.077ZM13.797 21.0553C13.797 21.8448 14.0482 22.504 14.5507 23.0327C15.0532 23.5615 15.6832 23.8259 16.4407 23.8259C17.1907 23.8259 17.8131 23.5651 18.3081 23.0436C18.8031 22.5221 19.0506 21.8665 19.0506 21.077C19.0506 20.2947 18.7994 19.6391 18.2969 19.1104C17.7944 18.5743 17.1719 18.3063 16.4294 18.3063C15.6719 18.3063 15.042 18.5671 14.5395 19.0886C14.0445 19.6102 13.797 20.2657 13.797 21.0553Z" fill="url(#paint3_linear_10_3054)"/>
<path d="M26.5984 21.6883L28.6679 24.869H26.9787L25.1217 21.921H23.3206V24.869H21.8998V17.1113H25.5132C26.4529 17.1113 27.1801 17.3182 27.6947 17.7319C28.2093 18.1382 28.4666 18.7145 28.4666 19.4608C28.4666 20.0223 28.3025 20.4951 27.9744 20.8793C27.6537 21.2635 27.195 21.5332 26.5984 21.6883ZM27.0123 19.5051C27.0123 19.1283 26.8818 18.8401 26.6207 18.6406C26.3597 18.4338 25.9831 18.3303 25.4909 18.3303H23.3206V20.7131H25.4349C25.9271 20.7131 26.3112 20.6059 26.5872 20.3917C26.8706 20.1774 27.0123 19.8819 27.0123 19.5051Z" fill="url(#paint4_linear_10_3054)"/>
<path d="M33.9072 23.8042C34.4088 23.8042 34.8641 23.7136 35.273 23.5325C35.6897 23.3442 36.1026 23.0472 36.5116 22.6416L37.3681 23.5325C36.8897 24.0323 36.3495 24.409 35.7476 24.6625C35.1534 24.916 34.5052 25.0428 33.803 25.0428C32.5761 25.0428 31.569 24.6734 30.7819 23.9345C30.0025 23.1885 29.6129 22.2359 29.6129 21.077C29.6129 19.9542 30.0025 19.009 30.7819 18.2411C31.5613 17.4733 32.5375 17.0894 33.7104 17.0894C34.9065 17.0894 35.8749 17.4552 36.6157 18.1868C37.3565 18.9112 37.7269 19.8528 37.7269 21.0118C37.7269 21.1132 37.7192 21.2146 37.7038 21.316C37.6961 21.4102 37.6806 21.5152 37.6575 21.6311H31.1523C31.2681 22.2903 31.5767 22.819 32.0783 23.2174C32.5876 23.6086 33.1973 23.8042 33.9072 23.8042ZM33.722 18.2955C33.0661 18.2955 32.5027 18.4947 32.032 18.8931C31.5613 19.2842 31.2681 19.8094 31.1523 20.4685H36.2106C36.118 19.7876 35.8518 19.2552 35.4119 18.8713C34.9721 18.4874 34.4088 18.2955 33.722 18.2955Z" fill="url(#paint5_linear_10_3054)"/>
<path d="M37.2562 17.1392V17.2025H37.4543V17.7693H37.5216V17.2025H37.7197V17.1392H37.2562Z" fill="white"/>
<path d="M38.4034 17.2566V17.7693H38.4707V17.1392H38.4122L38.1512 17.4815L37.8902 17.1392H37.8318V17.7693H37.8995V17.2566L38.1512 17.5892L38.4034 17.2566Z" fill="white"/>
<path d="M4.69092 3.75502H5.72159V4.78569H4.69092V3.75502Z" fill="white"/>
<path d="M5.69594 9.1248V5.40923H4.71661V9.12113H5.69594V9.1248Z" fill="white"/>
<path d="M12.1808 9.16148V8.25184C12.0377 8.25184 11.9167 8.24451 11.8286 8.22984C11.7259 8.21517 11.6489 8.17849 11.5976 8.12714C11.5462 8.07579 11.5132 8.00243 11.4949 7.9034C11.4802 7.8117 11.4729 7.69066 11.4729 7.54394V6.24918H12.1808V5.40923H11.4729V3.96409H10.4935V7.55495C10.4935 7.85938 10.5192 8.11613 10.5706 8.32153C10.6219 8.52327 10.7099 8.68832 10.831 8.81303C10.952 8.93774 11.1134 9.02577 11.3078 9.08079C11.5059 9.1358 11.7553 9.16148 12.0524 9.16148H12.1808Z" fill="white"/>
<path d="M17.7853 9.1248V3.67799H16.806V9.1248H17.7853Z" fill="white"/>
<path d="M9.55088 5.77602C9.27946 5.48259 8.898 5.33588 8.41384 5.33588C8.17909 5.33588 7.96269 5.38356 7.77196 5.47892C7.57756 5.57429 7.41617 5.70633 7.28413 5.87506L7.23278 5.94475V5.88239V5.40923H6.26813V9.12113H7.24012V7.14414V7.27985C7.24012 7.25785 7.24012 7.23584 7.24012 7.21383C7.25112 6.86538 7.33548 6.60863 7.49687 6.44358C7.66926 6.26752 7.87833 6.17949 8.11674 6.17949C8.39917 6.17949 8.61557 6.26752 8.75862 6.43624C8.898 6.60496 8.97136 6.84338 8.97136 7.14781V7.15881V9.12113H9.95802V7.01577C9.96169 6.48759 9.82231 6.06945 9.55088 5.77602Z" fill="white"/>
<path d="M13.3911 6.9204C13.3911 6.64898 13.7029 6.17582 14.3741 6.17215C15.0453 6.17215 15.3608 6.64531 15.3608 6.91673L13.3911 6.9204ZM16.2998 7.26151C16.2998 6.99376 16.2521 6.74434 16.1604 6.5096C16.065 6.27852 15.933 6.07312 15.7679 5.89706C15.5992 5.721 15.3975 5.58529 15.1627 5.48626C14.928 5.38723 14.6675 5.33954 14.3851 5.33954C14.1174 5.33954 13.8643 5.39089 13.6295 5.48993C13.3948 5.59263 13.1894 5.72834 13.017 5.90073C12.8446 6.07312 12.7052 6.27852 12.6062 6.51327C12.5035 6.74801 12.4558 7.0011 12.4558 7.26885C12.4558 7.53661 12.5035 7.78969 12.5989 8.02443C12.6942 8.25918 12.8299 8.46458 12.9987 8.63697C13.1674 8.80936 13.3764 8.94874 13.6185 9.04777C13.8606 9.15047 14.1284 9.20182 14.4145 9.20182C15.2434 9.20182 15.7569 8.82403 16.065 8.47192L15.3608 7.93641C15.2141 8.11246 14.8619 8.35088 14.4218 8.35088C14.1467 8.35088 13.9193 8.28852 13.7469 8.16015C13.5745 8.03544 13.4571 7.85938 13.3948 7.64297L13.3838 7.60996H16.2997L16.2998 7.26151Z" fill="white"/>
<path d="M19.3406 8.7896C19.3185 8.84483 19.2854 8.89454 19.2467 8.93321C19.208 8.97187 19.1583 9.00501 19.1031 9.0271C19.0479 9.0492 18.9926 9.06024 18.9263 9.06024C18.8656 9.06024 18.8048 9.0492 18.7496 9.0271C18.6944 9.00501 18.6446 8.97187 18.606 8.93321C18.5673 8.89454 18.5342 8.84483 18.5121 8.7896C18.49 8.73436 18.4789 8.67913 18.4789 8.61285C18.4789 8.55209 18.49 8.49133 18.5121 8.4361C18.5342 8.38086 18.5673 8.33115 18.606 8.29249C18.6446 8.25382 18.6944 8.22068 18.7496 8.19859C18.8048 8.1765 18.8601 8.16545 18.9263 8.16545C18.9871 8.16545 19.0479 8.1765 19.1031 8.19859C19.1583 8.22068 19.208 8.25382 19.2467 8.29249C19.2854 8.33115 19.3185 8.38086 19.3406 8.4361C19.3627 8.49133 19.3737 8.54657 19.3737 8.61285C19.3737 8.67913 19.3627 8.73436 19.3406 8.7896ZM19.429 8.40296C19.4014 8.33668 19.3627 8.28144 19.313 8.23173C19.2633 8.18202 19.208 8.14336 19.1418 8.11574C19.0755 8.08812 19.0037 8.07155 18.9319 8.07155C18.8545 8.07155 18.7882 8.08812 18.722 8.11574C18.6557 8.14336 18.6005 8.18202 18.5507 8.23173C18.501 8.28144 18.4624 8.33668 18.4348 8.40296C18.4071 8.46924 18.3906 8.54104 18.3906 8.61285C18.3906 8.69018 18.4071 8.75646 18.4348 8.82274C18.4624 8.88902 18.501 8.94425 18.5507 8.99396C18.6005 9.04367 18.6557 9.08234 18.722 9.10996C18.7882 9.13757 18.8601 9.15414 18.9319 9.15414C19.0092 9.15414 19.0755 9.13757 19.1418 9.10996C19.208 9.08234 19.2633 9.04367 19.313 8.99396C19.3627 8.94425 19.4014 8.88902 19.429 8.82274C19.4566 8.75646 19.4732 8.68465 19.4732 8.61285C19.4732 8.54104 19.4566 8.46924 19.429 8.40296Z" fill="white"/>
<path d="M18.9705 8.56866C18.9539 8.56866 18.9374 8.56866 18.9153 8.56866H18.8324V8.39191H18.9153C18.9318 8.39191 18.9484 8.39191 18.9705 8.39191C18.9871 8.39191 19.0036 8.39743 19.0202 8.40296C19.0368 8.40848 19.0478 8.41953 19.0534 8.43057C19.0644 8.44162 19.0644 8.45819 19.0644 8.48029C19.0644 8.50238 19.0589 8.51895 19.0534 8.53C19.0423 8.54104 19.0313 8.55209 19.0202 8.55761C19.0036 8.56314 18.9871 8.56866 18.9705 8.56866ZM19.0313 8.66256C19.0755 8.65703 19.1086 8.64046 19.1362 8.61285C19.1638 8.58523 19.1804 8.54657 19.1804 8.49133C19.1804 8.43057 19.1638 8.38639 19.1252 8.35325C19.092 8.32011 19.0313 8.30354 18.9595 8.30354H18.7164V8.92768H18.8324V8.6736H18.9153L19.0699 8.92768H19.1914L19.0313 8.66256Z" fill="white"/>
<defs>
<linearGradient id="paint0_linear_10_3054" x1="-4.65469e-08" y1="-1.43517e-05" x2="41.9986" y2="41.9987" gradientUnits="userSpaceOnUse">
<stop stop-color="#1284CB"/>
<stop offset="0.429664" stop-color="#009FE7"/>
<stop offset="1" stop-color="#1284C9"/>
</linearGradient>
<linearGradient id="paint1_linear_10_3054" x1="3.79268e-05" y1="6.38819e-06" x2="41.9986" y2="41.9987" gradientUnits="userSpaceOnUse">
<stop stop-color="#1284CB"/>
<stop offset="0.429664" stop-color="#009FE7"/>
<stop offset="1" stop-color="#1284C9"/>
</linearGradient>
<linearGradient id="paint2_linear_10_3054" x1="20.9654" y1="16.8924" x2="20.9654" y2="24.9777" gradientUnits="userSpaceOnUse">
<stop stop-color="white"/>
<stop offset="1" stop-color="#AEEBFD"/>
</linearGradient>
<linearGradient id="paint3_linear_10_3054" x1="20.9654" y1="16.8924" x2="20.9654" y2="24.9777" gradientUnits="userSpaceOnUse">
<stop stop-color="white"/>
<stop offset="1" stop-color="#AEEBFD"/>
</linearGradient>
<linearGradient id="paint4_linear_10_3054" x1="21.3864" y1="16.733" x2="21.3864" y2="24.9798" gradientUnits="userSpaceOnUse">
<stop stop-color="white"/>
<stop offset="1" stop-color="#AEEBFD"/>
</linearGradient>
<linearGradient id="paint5_linear_10_3054" x1="21.4583" y1="16.8924" x2="21.4583" y2="24.9777" gradientUnits="userSpaceOnUse">
<stop stop-color="white"/>
<stop offset="1" stop-color="#AEEBFD"/>
</linearGradient>
</defs>
</svg>
