<svg width="175" height="175" viewBox="0 0 175 175" fill="none" xmlns="http://www.w3.org/2000/svg">
<circle cx="87.5" cy="87.5" r="80.5" fill="#151515" stroke="url(#paint0_linear_3064_2956)" stroke-width="14"/>
<path fill-rule="evenodd" clip-rule="evenodd" d="M77.4892 112.747C74.3499 115.023 70.223 116.405 65.705 116.405C55.8846 116.405 47.9116 109.874 47.9116 101.831C47.9116 93.7873 55.8846 87.2568 65.705 87.2568H101.292C111.112 87.2568 119.085 93.7873 119.085 101.831C119.085 109.874 111.112 116.405 101.292 116.405C96.7737 116.405 92.6468 115.023 89.5075 112.747C85.823 110.076 81.1737 110.076 77.4892 112.747Z" fill="url(#paint1_linear_3064_2956)"/>
<path fill-rule="evenodd" clip-rule="evenodd" d="M81.5867 80.6218H77.2475C76.1913 80.6218 75.3342 81.3235 75.3342 82.1889V85.6901H65.7066C54.8301 85.6901 46 92.9226 46 101.831C46 110.74 54.8301 117.972 65.7066 117.972C70.7117 117.972 75.2806 116.442 78.7589 113.921C81.6671 111.814 85.3329 111.814 88.2411 113.921C91.7194 116.442 96.2883 117.972 101.293 117.972C112.168 117.972 121 110.74 121 101.831C121 92.9226 112.168 85.6901 101.293 85.6901H91.6658V82.1889C91.6658 81.3235 90.8087 80.6218 89.7525 80.6218H85.4133V75.1906C85.4133 72.5942 87.9847 70.4893 91.1531 70.4893H102.633C105.17 70.4893 107.603 69.6637 109.398 68.1944C111.193 66.7248 112.199 64.7317 112.199 62.6538C112.199 57.2902 112.199 50.4304 112.199 50.4304C112.199 49.5653 111.342 48.8633 110.286 48.8633C109.23 48.8633 108.372 49.5653 108.372 50.4304C108.372 50.4304 108.372 57.2902 108.372 62.6538C108.372 63.9005 107.768 65.0965 106.693 65.9782C105.614 66.8598 104.156 67.3551 102.633 67.3551H91.1531C85.8686 67.3551 81.5867 70.8632 81.5867 75.1906V80.6218ZM76.2219 111.574C73.4209 113.605 69.7398 114.838 65.7066 114.838C56.9423 114.838 49.8265 109.01 49.8265 101.831C49.8265 94.6527 56.9423 88.8243 65.7066 88.8243H101.293C110.056 88.8243 117.173 94.6527 117.173 101.831C117.173 109.01 110.056 114.838 101.293 114.838C97.2602 114.838 93.5791 113.605 90.7781 111.574C86.3163 108.339 80.6837 108.339 76.2219 111.574ZM79.1607 85.6901H87.8393V83.756H83.5H79.1607V85.6901Z" fill="url(#paint2_linear_3064_2956)"/>
<path fill-rule="evenodd" clip-rule="evenodd" d="M74.0266 100.461C74.4858 100.461 74.9069 100.605 75.2131 100.862C75.5575 101.119 75.7104 101.467 75.7104 101.831C75.7104 102.195 75.5575 102.542 75.2131 102.799C74.9069 103.056 74.4858 103.204 74.0266 103.204H68.5932V107.676C68.5932 108.037 68.4016 108.388 68.0955 108.645C67.7894 108.902 67.3686 109.046 66.9094 109.046C66.4502 109.046 66.0295 108.902 65.7233 108.645C65.4172 108.388 65.2256 108.037 65.2256 107.676V103.204H59.7922C59.333 103.204 58.9119 103.056 58.6058 102.799C58.2614 102.542 58.1084 102.195 58.1084 101.831C58.1084 101.467 58.2614 101.119 58.6058 100.862C58.9119 100.605 59.333 100.461 59.7922 100.461H65.2256V95.9888C65.2256 95.6253 65.4172 95.2773 65.7233 95.0203C66.0295 94.7633 66.4502 94.6191 66.9094 94.6191C67.3686 94.6191 67.7894 94.7633 68.0955 95.0203C68.4016 95.2773 68.5932 95.6253 68.5932 95.9888V100.461H74.0266ZM101.463 94.6191C103.108 94.6191 104.409 95.6973 104.409 97.0262C104.409 98.3519 103.108 99.4302 101.463 99.4302C99.8558 99.4302 98.5549 98.3519 98.5549 97.0262C98.5549 95.6973 99.8558 94.6191 101.463 94.6191ZM101.463 104.232C103.108 104.232 104.409 105.31 104.409 106.639C104.409 107.968 103.108 109.046 101.463 109.046C99.8558 109.046 98.5549 107.968 98.5549 106.639C98.5549 105.31 99.8558 104.232 101.463 104.232ZM110.264 101.831C110.264 103.16 108.963 104.238 107.356 104.238C105.711 104.238 104.409 103.16 104.409 101.831C104.409 100.505 105.711 99.4239 107.356 99.4239C108.963 99.4239 110.264 100.505 110.264 101.831ZM98.5549 101.831C98.5549 103.16 97.2155 104.238 95.6084 104.238C94.0013 104.238 92.6619 103.16 92.6619 101.831C92.6619 100.505 94.0013 99.4239 95.6084 99.4239C97.2155 99.4239 98.5549 100.505 98.5549 101.831Z" fill="white"/>
<defs>
<linearGradient id="paint0_linear_3064_2956" x1="51.5" y1="-8.62411e-06" x2="226" y2="265" gradientUnits="userSpaceOnUse">
<stop stop-color="#EA15F5"/>
<stop offset="1" stop-color="#0C73E7"/>
</linearGradient>
<linearGradient id="paint1_linear_3064_2956" x1="58.0642" y1="88.6672" x2="101.856" y2="123.291" gradientUnits="userSpaceOnUse">
<stop stop-color="#A83AFE" stop-opacity="0.2"/>
<stop offset="1" stop-color="#6E59FE" stop-opacity="0.2"/>
</linearGradient>
<linearGradient id="paint2_linear_3064_2956" x1="55.1837" y1="62.3403" x2="103.502" y2="122.624" gradientUnits="userSpaceOnUse">
<stop stop-color="#FF0CF5"/>
<stop offset="1" stop-color="#0575E6"/>
</linearGradient>
</defs>
</svg>
