<svg width="175" height="175" viewBox="0 0 175 175" fill="none" xmlns="http://www.w3.org/2000/svg">
<circle cx="87.5" cy="87.5" r="80.5" fill="#151515" stroke="url(#paint0_linear_2975_3205)" stroke-width="14"/>
<path d="M111.422 104.569C113.14 102.141 114 99.5397 114 96.7656C114 93.084 112.963 90.19 110.887 88.0819C108.811 85.9737 106.364 84.4531 103.543 83.5199C100.722 82.5867 96.8794 81.6118 92.0156 80.5986V65.472C93.8969 65.9522 95.4047 66.7654 96.5389 67.9131C97.6732 69.0608 98.3385 70.4069 98.5331 71.9548H113.222C112.768 67.26 110.677 63.5784 106.947 60.91C103.218 58.2416 98.2413 56.6954 92.0156 56.268V49.7852H85.7899V56.268C79.3697 56.6954 74.1323 58.3761 70.0798 61.3102C66.0272 64.2443 64 68.0331 64 72.6751C64 76.3567 65.037 79.2652 67.1128 81.3989C69.1887 83.5327 71.6518 85.0806 74.5058 86.041C77.3599 87.0014 81.1206 87.9618 85.7899 88.9222V104.209C81.3794 103.409 78.9805 101.088 78.5914 97.2459H64C64.1304 101.941 66.1732 105.662 70.1284 108.411C74.0837 111.159 79.3055 112.773 85.7899 113.253V119.816H92.0156V113.333C96.5545 113.066 100.494 112.145 103.835 110.572C107.175 108.998 109.704 106.997 111.422 104.569Z" fill="url(#paint1_linear_2975_3205)"/>
<path d="M111.422 104.569C113.14 102.141 114 99.5397 114 96.7656C114 93.084 112.963 90.19 110.887 88.0819C108.811 85.9737 106.364 84.4531 103.543 83.5199C100.722 82.5867 96.8794 81.6118 92.0156 80.5986V65.472C93.8969 65.9522 95.4047 66.7654 96.5389 67.9131C97.6732 69.0608 98.3385 70.4069 98.5331 71.9548H113.222C112.768 67.26 110.677 63.5784 106.947 60.91C103.218 58.2416 98.2413 56.6954 92.0156 56.268V49.7852H85.7899V56.268C79.3697 56.6954 74.1323 58.3761 70.0798 61.3102C66.0272 64.2443 64 68.0331 64 72.6751C64 76.3567 65.037 79.2652 67.1128 81.3989C69.1887 83.5327 71.6518 85.0806 74.5058 86.041C77.3599 87.0014 81.1206 87.9618 85.7899 88.9222V104.209C81.3794 103.409 78.9805 101.088 78.5914 97.2459H64C64.1304 101.941 66.1732 105.662 70.1284 108.411C74.0837 111.159 79.3055 112.773 85.7899 113.253V119.816H92.0156V113.333C96.5545 113.066 100.494 112.145 103.835 110.572C107.175 108.998 109.704 106.997 111.422 104.569Z" stroke="black"/>
<path d="M86 80C83.6131 80 81.3239 79.2098 79.636 77.8033C77.9482 76.3968 77 74.4891 77 72.5C77 70.5109 77.9482 68.6032 79.636 67.1967C81.3239 65.7902 83.613 65 86 65L86 72.5V80Z" fill="#151515"/>
<path d="M92 90C94.1217 90 96.1566 90.7375 97.6569 92.0503C99.1571 93.363 100 95.1435 100 97C100 98.8565 99.1571 100.637 97.6569 101.95C96.1566 103.262 94.1217 104 92 104L92 97V90Z" fill="#151515"/>
<defs>
<linearGradient id="paint0_linear_2975_3205" x1="51.5" y1="-8.62411e-06" x2="226" y2="265" gradientUnits="userSpaceOnUse">
<stop stop-color="#EA15F5"/>
<stop offset="1" stop-color="#0C73E7"/>
</linearGradient>
<linearGradient id="paint1_linear_2975_3205" x1="-27.4397" y1="17.3711" x2="161.046" y2="246.461" gradientUnits="userSpaceOnUse">
<stop stop-color="#FF0CF5"/>
<stop offset="1" stop-color="#0575E6"/>
</linearGradient>
</defs>
</svg>
