<svg width="644" height="546" viewBox="0 0 644 546" fill="none" xmlns="http://www.w3.org/2000/svg">
<circle cx="216.712" cy="399.306" r="15" transform="rotate(-44.5616 216.712 399.306)" fill="url(#paint0_linear_3064_2962)"/>
<circle cx="510" cy="50" r="20" fill="url(#paint1_linear_3064_2962)"/>
<path d="M534 313.664C539.523 313.664 544 309.538 544 304.449C544 299.36 539.523 295.234 534 295.234C528.477 295.234 524 299.36 524 304.449C524 309.538 528.477 313.664 534 313.664Z" fill="url(#paint2_linear_3064_2962)"/>
<path d="M534 313.664C539.523 313.664 544 309.538 544 304.449C544 299.36 539.523 295.234 534 295.234C528.477 295.234 524 299.36 524 304.449C524 309.538 528.477 313.664 534 313.664Z" fill="url(#paint3_linear_3064_2962)"/>
<path d="M359 75.0073C364.523 75.0073 369 70.8818 369 65.7927C369 60.7036 364.523 56.5781 359 56.5781C353.477 56.5781 349 60.7036 349 65.7927C349 70.8818 353.477 75.0073 359 75.0073Z" fill="url(#paint4_linear_3064_2962)"/>
<g clip-path="url(#clip0_3064_2962)">
<path fill-rule="evenodd" clip-rule="evenodd" d="M207.405 308.956C204.425 308.956 202.005 307.124 202.005 304.866C202.005 302.607 204.425 300.775 207.405 300.775H216.931C219.912 300.775 222.331 302.607 222.331 304.866C222.331 307.124 219.912 308.956 216.931 308.956H207.405ZM333.766 266.345C330.785 266.345 328.366 264.512 328.366 262.254C328.366 259.996 330.785 258.163 333.766 258.163H358.606C361.587 258.163 364.006 259.996 364.006 262.254C364.006 264.512 361.587 266.345 358.606 266.345H333.766ZM266.233 300.627L273.869 306.42L260.768 316.345L261.665 317.024C262.68 317.793 264.052 318.218 265.488 318.218C266.914 318.218 268.296 317.793 269.3 317.024L279.182 309.537C281.299 307.934 284.712 307.934 286.829 309.537C288.935 311.133 288.935 313.718 286.829 315.322L279.571 320.82L280.63 321.622C281.645 322.391 283.016 322.825 284.442 322.825C285.878 322.825 287.25 322.391 288.265 321.622L298.245 314.062C300.351 312.466 303.774 312.466 305.88 314.062C307.986 315.666 307.986 318.251 305.88 319.846L300.782 323.716L301.333 324.134C302.37 324.927 303.807 325.353 305.275 325.328C306.755 325.304 308.148 324.821 309.142 323.995L334.338 303.025C335.364 302.174 336.811 301.683 338.334 301.683H358.606C361.587 301.683 364.006 303.516 364.006 305.774C364.006 308.032 361.587 309.865 358.606 309.865H340.721L317.134 329.501C314.153 331.98 309.963 333.428 305.535 333.51C301.107 333.584 296.829 332.291 293.697 329.918L292.801 329.239C290.306 330.385 287.412 331.007 284.442 331.007C280.154 331.007 276.029 329.706 272.994 327.406L270.78 325.729C269.084 326.171 267.302 326.4 265.488 326.4C261.19 326.4 257.064 325.107 254.029 322.808L252.657 321.769C250.605 322.571 248.327 323.005 245.983 323.005C242.138 323.005 238.455 321.843 235.734 319.789C230.085 315.502 230.085 308.556 235.734 304.276L256.621 288.453C258.727 286.857 262.151 286.857 264.257 288.453C266.363 290.048 266.363 292.642 264.257 294.237L243.37 310.061C241.933 311.149 241.933 312.916 243.37 314.005C244.061 314.528 245 314.823 245.983 314.823C246.955 314.823 247.895 314.528 248.575 314.005L266.233 300.627ZM207.405 266.414C204.425 266.414 202.005 264.582 202.005 262.323C202.005 260.065 204.425 258.232 207.405 258.232H245.13L256.005 249.991C266.546 242.003 283.643 242.003 294.194 249.991L312.338 263.735C315.276 265.967 316.928 268.993 316.928 272.149C316.928 275.306 315.276 278.332 312.338 280.566H312.328C309.39 282.799 305.394 284.051 301.225 284.051C297.057 284.051 293.06 282.799 290.112 280.566L278.686 271.906C276.58 270.309 276.58 267.717 278.686 266.121C280.792 264.523 284.215 264.523 286.321 266.121L297.758 274.78C298.676 275.477 299.919 275.869 301.225 275.869C302.521 275.869 303.774 275.477 304.692 274.78V274.778C305.621 274.081 306.128 273.136 306.128 272.149C306.128 271.163 305.621 270.217 304.692 269.52L286.559 255.776C280.23 250.983 269.97 250.983 263.641 255.776L251.189 265.216C250.174 265.983 248.802 266.414 247.365 266.414H207.405Z" fill="url(#paint5_linear_3064_2962)"/>
</g>
<path fill-rule="evenodd" clip-rule="evenodd" d="M30.2937 188.366L35.167 193.394C41.844 200.775 52.4292 204.324 65.0059 204.074C82.9024 203.714 104.969 195.612 124.596 180.599C144.222 165.592 156.934 147.1 160.614 130.955C163.205 119.594 161.359 109.332 154.684 101.925C154.643 101.88 154.602 101.835 154.558 101.79L144.505 91.953L144.5 91.9465C137.789 85.3304 127.656 82.1476 115.734 82.392C97.8369 82.7456 75.7698 90.8534 56.1435 105.867C36.5179 120.874 23.8058 139.365 20.125 155.51C17.5342 166.872 19.3805 177.127 26.0554 184.54C27.3296 185.955 28.7467 187.228 30.2937 188.366ZM34.3275 184.174C39.8288 188.102 47.3055 189.838 55.7981 189.665C72.5921 189.33 93.226 181.563 111.643 167.482C130.06 153.395 142.144 136.138 145.597 120.989C147.763 111.493 146.515 102.877 140.937 96.6851C135.36 90.4869 126.394 87.7736 115.866 87.9858C99.0719 88.3201 78.4381 96.0872 60.021 110.168C41.6039 124.256 29.5199 141.513 26.0666 156.661C23.9014 166.158 25.149 174.774 30.727 180.965C31.7639 182.116 32.918 183.152 34.1768 184.065C34.2277 184.097 34.2787 184.135 34.3275 184.174ZM66.9722 117.884C53.7089 128.03 44.8723 140.246 41.9717 150.694C39.8434 158.359 40.8734 165.155 45.1682 169.926C49.4637 174.69 56.5237 176.876 65.0917 176.362C76.7717 175.661 91.4292 169.906 104.692 159.767C117.955 149.621 126.792 137.404 129.692 126.956C131.821 119.292 130.791 112.496 126.496 107.725C122.2 102.961 115.14 100.775 106.572 101.289C94.8923 101.99 80.2348 107.744 66.9722 117.884ZM70.8491 122.192C82.9708 112.92 96.292 107.513 106.967 106.87C113.304 106.49 118.647 107.77 121.824 111.3C125.001 114.83 125.384 119.903 123.811 125.574C121.16 135.122 112.937 146.187 100.815 155.459C88.6932 164.731 75.372 170.138 64.6968 170.781C58.3596 171.16 53.0167 169.881 49.8398 166.351C46.6635 162.821 46.2797 157.748 47.8532 152.077C50.504 142.529 58.7273 131.463 70.8491 122.192Z" fill="url(#paint6_linear_3064_2962)"/>
<path d="M212.467 124.704C218.247 124.704 222.933 120.386 222.933 115.059C222.933 109.733 218.247 105.415 212.467 105.415C206.686 105.415 202 109.733 202 115.059C202 120.386 206.686 124.704 212.467 124.704Z" fill="url(#paint7_linear_3064_2962)"/>
<path d="M423.444 394.649C433.078 394.649 440.888 387.453 440.888 378.575C440.888 369.698 433.078 362.501 423.444 362.501C413.81 362.501 406 369.698 406 378.575C406 387.453 413.81 394.649 423.444 394.649Z" fill="url(#paint8_linear_3064_2962)"/>
<path fill-rule="evenodd" clip-rule="evenodd" d="M366.54 343.809C366.844 343.053 367.629 342.549 368.501 342.549C369.378 342.549 370.164 343.053 370.467 343.809C371.383 346.088 372.377 348.563 372.88 349.823C373.093 350.351 373.544 350.767 374.117 350.963C375.484 351.427 378.171 352.342 380.644 353.186C381.465 353.466 382.011 354.19 382.011 354.998C382.011 355.802 381.465 356.525 380.644 356.805C378.171 357.645 375.484 358.565 374.117 359.029C373.544 359.225 373.093 359.641 372.88 360.168C372.377 361.424 371.383 363.904 370.467 366.183C370.164 366.939 369.378 367.439 368.501 367.439C367.629 367.439 366.844 366.939 366.54 366.183C365.628 363.904 364.63 361.424 364.127 360.168C363.914 359.641 363.463 359.225 362.89 359.029C361.527 358.565 358.836 357.645 356.367 356.805C355.542 356.525 355 355.802 355 354.998C355 354.19 355.542 353.466 356.367 353.186C358.836 352.342 361.527 351.427 362.89 350.963C363.463 350.767 363.914 350.351 364.127 349.823C364.63 348.563 365.628 346.088 366.54 343.809Z" fill="url(#paint9_linear_3064_2962)"/>
<path fill-rule="evenodd" clip-rule="evenodd" d="M54.5398 261.479C54.8436 260.724 55.6291 260.22 56.5014 260.22C57.378 260.22 58.1636 260.724 58.4673 261.479C59.3831 263.759 60.3769 266.234 60.8804 267.494C61.093 268.022 61.5443 268.438 62.1172 268.634C63.4843 269.098 66.1707 270.013 68.6444 270.857C69.4646 271.137 70.0114 271.861 70.0114 272.669C70.0114 273.473 69.4646 274.196 68.6444 274.476C66.1707 275.316 63.4843 276.236 62.1172 276.7C61.5443 276.896 61.093 277.312 60.8804 277.839C60.3769 279.095 59.3831 281.574 58.4673 283.854C58.1636 284.61 57.378 285.11 56.5014 285.11C55.6291 285.11 54.8436 284.61 54.5398 283.854C53.6284 281.574 52.6302 279.095 52.1268 277.839C51.9141 277.312 51.4628 276.896 50.8899 276.7C49.5272 276.236 46.8365 275.316 44.3671 274.476C43.5425 274.196 43 273.473 43 272.669C43 271.861 43.5425 271.137 44.3671 270.857C46.8365 270.013 49.5272 269.098 50.8899 268.634C51.4628 268.438 51.9141 268.022 52.1268 267.494C52.6302 266.234 53.6284 263.759 54.5398 261.479Z" fill="url(#paint10_linear_3064_2962)"/>
<path fill-rule="evenodd" clip-rule="evenodd" d="M269.54 79.9531C269.844 79.1973 270.629 78.6934 271.501 78.6934C272.378 78.6934 273.164 79.1973 273.467 79.9531C274.383 82.2325 275.377 84.7079 275.88 85.9676C276.093 86.4955 276.544 86.9113 277.117 87.1073C278.484 87.5712 281.171 88.487 283.644 89.3308C284.465 89.6107 285.011 90.3345 285.011 91.1423C285.011 91.9461 284.465 92.67 283.644 92.9499C281.171 93.7897 278.484 94.7094 277.117 95.1733C276.544 95.3692 276.093 95.7852 275.88 96.313C275.377 97.5687 274.383 100.048 273.467 102.328C273.164 103.083 272.378 103.583 271.501 103.583C270.629 103.583 269.844 103.083 269.54 102.328C268.628 100.048 267.63 97.5687 267.127 96.313C266.914 95.7852 266.463 95.3692 265.89 95.1733C264.527 94.7094 261.836 93.7897 259.367 92.9499C258.542 92.67 258 91.9461 258 91.1423C258 90.3345 258.542 89.6107 259.367 89.3308C261.836 88.487 264.527 87.5712 265.89 87.1073C266.463 86.9113 266.914 86.4955 267.127 85.9676C267.63 84.7079 268.628 82.2325 269.54 79.9531Z" fill="url(#paint11_linear_3064_2962)"/>
<path fill-rule="evenodd" clip-rule="evenodd" d="M374.54 478.942C374.844 478.187 375.629 477.683 376.501 477.683C377.378 477.683 378.164 478.187 378.467 478.942C379.383 481.222 380.377 483.697 380.88 484.957C381.093 485.485 381.544 485.901 382.117 486.097C383.484 486.56 386.171 487.476 388.644 488.32C389.465 488.6 390.011 489.324 390.011 490.132C390.011 490.935 389.465 491.659 388.644 491.939C386.171 492.779 383.484 493.699 382.117 494.163C381.544 494.358 381.093 494.774 380.88 495.302C380.377 496.558 379.383 499.037 378.467 501.317C378.164 502.073 377.378 502.572 376.501 502.572C375.629 502.572 374.844 502.073 374.54 501.317C373.628 499.037 372.63 496.558 372.127 495.302C371.914 494.774 371.463 494.358 370.89 494.163C369.527 493.699 366.836 492.779 364.367 491.939C363.542 491.659 363 490.935 363 490.132C363 489.324 363.542 488.6 364.367 488.32C366.836 487.476 369.527 486.56 370.89 486.097C371.463 485.901 371.914 485.485 372.127 484.957C372.63 483.697 373.628 481.222 374.54 478.942Z" fill="url(#paint12_linear_3064_2962)"/>
<path d="M591.576 364.458C594.282 364.458 596.475 363 596.475 361.202C596.475 359.403 594.282 357.945 591.576 357.945C588.869 357.945 586.676 359.403 586.676 361.202C586.676 363 588.869 364.458 591.576 364.458Z" fill="url(#paint13_linear_3064_2962)"/>
<path d="M532.113 462.565C537.525 462.565 541.912 459.649 541.912 456.052C541.912 452.455 537.525 449.539 532.113 449.539C526.701 449.539 522.313 452.455 522.313 456.052C522.313 459.649 526.701 462.565 532.113 462.565Z" fill="url(#paint14_linear_3064_2962)"/>
<path d="M296.499 536.969C310.029 536.969 320.997 527.204 320.997 515.158C320.997 503.113 310.029 493.348 296.499 493.348C282.968 493.348 272 503.113 272 515.158C272 527.204 282.968 536.969 296.499 536.969Z" fill="url(#paint15_linear_3064_2962)"/>
<path d="M330.5 183.739C335.747 183.739 340 179.82 340 174.985C340 170.151 335.747 166.231 330.5 166.231C325.253 166.231 321 170.151 321 174.985C321 179.82 325.253 183.739 330.5 183.739Z" fill="url(#paint16_linear_3064_2962)"/>
<path d="M634.2 219.324C639.612 219.324 644 216.408 644 212.811C644 209.214 639.612 206.298 634.2 206.298C628.788 206.298 624.401 209.214 624.401 212.811C624.401 216.408 628.788 219.324 634.2 219.324Z" fill="url(#paint17_linear_3064_2962)"/>
<path d="M570.004 68.5429C575.416 68.5429 579.803 65.6269 579.803 62.0297C579.803 58.4326 575.416 55.5166 570.004 55.5166C564.591 55.5166 560.204 58.4326 560.204 62.0297C560.204 65.6269 564.591 68.5429 570.004 68.5429Z" fill="url(#paint18_linear_3064_2962)"/>
<path d="M421.255 18.9066C426.778 18.9066 431.255 14.7811 431.255 9.69201C431.255 4.60296 426.778 0.477539 421.255 0.477539C415.733 0.477539 411.255 4.60296 411.255 9.69201C411.255 14.7811 415.733 18.9066 421.255 18.9066Z" fill="url(#paint19_linear_3064_2962)"/>
<path fill-rule="evenodd" clip-rule="evenodd" d="M12.5098 406.043L9.85955 414.278C5.64885 425.883 8.5915 438.943 17.355 451.535C29.8258 469.457 54.2397 486.529 85.1485 496.615C116.058 506.694 146.419 507.485 167.928 500.656C183.072 495.845 193.922 487.255 198.166 475.634C198.192 475.56 198.215 475.491 198.235 475.422L203.067 458.782L203.069 458.776C206.36 447.63 203.284 435.273 194.975 423.334C182.504 405.419 158.09 388.341 127.182 378.255C96.2729 368.175 65.9121 367.385 44.402 374.22C29.2586 379.032 18.4086 387.615 14.1638 399.242C13.3541 401.46 12.8058 403.728 12.5098 406.043ZM20.1666 407.387C19.2385 415.539 22.2239 424.262 28.1418 432.766C39.8454 449.58 62.8905 465.429 91.8949 474.892C120.9 484.349 149.382 485.309 169.566 478.899C182.22 474.881 191.545 467.969 195.091 458.256C198.637 448.543 195.807 437.67 188.47 427.129C176.767 410.316 153.721 394.473 124.716 385.01C95.7118 375.547 67.2303 374.587 47.0456 380.996C34.3913 385.021 25.0679 391.926 21.5218 401.639C20.8624 403.441 20.4235 405.287 20.1932 407.164C20.1866 407.241 20.178 407.317 20.1666 407.387ZM120.297 397.109C99.4094 390.297 79.0588 389.33 64.7866 393.224C54.3164 396.085 46.9957 401.58 44.2656 409.055C41.534 416.537 43.7111 425.13 50.0869 433.48C58.7773 444.873 75.4273 455.975 96.3153 462.787C117.203 469.598 137.553 470.565 151.826 466.671C162.296 463.81 169.616 458.315 172.347 450.84C175.078 443.358 172.901 434.771 166.526 426.416C157.835 415.029 141.185 403.927 120.297 397.109ZM117.832 403.864C136.922 410.091 152.267 420.062 160.21 430.471C164.925 436.646 167.01 442.906 164.991 448.436C162.97 453.967 157.244 457.681 149.501 459.796C136.456 463.356 117.87 462.265 98.78 456.038C79.6895 449.811 64.3458 439.834 56.4023 429.424C51.6873 423.249 49.6026 416.99 51.6221 411.459C53.6417 405.928 59.3679 402.214 67.1114 400.1C80.1557 396.539 98.7415 397.637 117.832 403.864Z" fill="url(#paint20_linear_3064_2962)"/>
<path fill-rule="evenodd" clip-rule="evenodd" d="M521.092 180.763L527.747 176.596C537.43 170.954 543.368 160.898 545.266 148.34C547.967 130.469 542.461 107.387 528.563 85.8029C514.659 64.2159 495.536 49.0383 477.552 43.1816C464.888 39.0557 452.735 39.4935 443.021 45.1346C442.963 45.1655 442.908 45.2051 442.846 45.2417L429.746 53.9174L429.737 53.9202C420.928 59.6988 415.495 69.3577 413.698 81.2659C410.991 99.1338 416.501 122.21 430.405 143.797C444.303 165.381 463.426 180.559 481.416 186.418C494.07 190.547 506.227 190.103 515.947 184.465C517.796 183.387 519.511 182.153 521.092 180.763ZM516.962 176.179C522.455 171.233 525.761 164.028 527.042 155.546C529.574 138.777 524.212 117.176 511.165 96.9176C498.123 76.6618 480.317 62.2813 463.437 56.7801C452.861 53.3284 442.694 53.3978 434.58 58.1129C426.463 62.8193 421.761 71.3804 420.175 81.8948C417.637 98.6609 423.005 120.265 436.046 140.52C449.094 160.779 466.9 175.16 483.774 180.658C494.359 184.107 504.517 184.04 512.637 179.328C514.144 178.453 515.534 177.445 516.811 176.313C516.86 176.27 516.907 176.219 516.962 176.179ZM446.166 134.649C455.556 149.239 468.111 159.701 479.661 164.011C488.137 167.171 496.158 167.07 502.408 163.447C508.654 159.816 512.408 153.079 513.304 144.481C514.531 132.751 510.444 117.377 501.054 102.787C491.661 88.2018 479.106 77.7398 467.55 73.4273C459.074 70.2673 451.056 70.3625 444.809 73.9939C438.556 77.6223 434.806 84.353 433.906 92.9571C432.683 104.681 436.767 120.061 446.166 134.649ZM451.804 131.378C443.218 118.045 439.301 104.045 440.418 93.3197C441.081 86.9614 443.493 81.8165 448.12 79.1311C452.737 76.4485 458.661 76.7575 464.927 79.0933C475.488 83.0376 486.828 92.7305 495.413 106.063C503.999 119.396 507.916 133.396 506.797 144.112C506.13 150.476 503.718 155.621 499.101 158.304C494.474 160.989 488.55 160.68 482.287 158.339C471.729 154.403 460.389 144.711 451.804 131.378Z" fill="url(#paint21_linear_3064_2962)"/>
<path d="M70 154.5L80.5 127L106 135L70 154.5Z" stroke="#5C09D9" stroke-width="4" stroke-linecap="round"/>
<path d="M70 154.5L80.5 127L106 135L70 154.5Z" stroke="#5C09D9" stroke-width="4" stroke-linecap="round"/>
<path d="M92.0469 408.649C93.9304 405.86 97.4412 404.667 100.634 405.731L117.395 411.318L129.407 415.758C133.723 417.353 135.598 422.422 133.359 426.442L121.109 448.435C119.342 451.607 115.557 453.058 112.123 451.88L81.3822 441.332C76.713 439.73 74.8383 434.131 77.601 430.04L92.0469 408.649Z" fill="#151515" stroke="url(#paint22_linear_3064_2962)" stroke-width="5"/>
<path d="M112.433 438C110.77 439.981 108.042 441.249 105.012 441.461C101.997 441.672 98.8708 440.82 96.4783 438.813C94.2489 436.942 93.2836 434.024 93.4099 430.82C93.5368 427.6 94.7669 424.39 96.5323 422.286C98.1643 420.341 100.851 419.183 103.883 419.082C106.902 418.981 110.065 419.943 112.492 421.979C114.741 423.866 115.683 426.672 115.558 429.715C115.431 432.784 114.214 435.876 112.433 438Z" fill="#151515" stroke="#5C09D9" stroke-width="4"/>
<circle cx="123.5" cy="424.5" r="1.5" fill="white"/>
<path d="M478.463 123.707L480.127 123.003L485.73 120.634L479.039 106.769L475.172 105.348L458.785 112.277L463.666 122.391L474.041 125.577L477.042 124.308L478.463 123.707Z" stroke="#5607CA" stroke-width="17"/>
<path d="M470.871 117.008L472.759 116.209L470.087 110.674L462.751 113.776L465.422 119.312L468.487 118.016L470.871 117.008Z" stroke="url(#paint23_linear_3064_2962)" stroke-width="16"/>
<rect width="2.28243" height="6.85875" transform="matrix(-0.921044 0.389458 0.434651 0.900599 467.003 109.501)" fill="#5607CA"/>
<rect width="2.28243" height="6.85875" transform="matrix(-0.921044 0.389458 0.434651 0.900599 462.799 111.279)" fill="#5607CA"/>
<path fill-rule="evenodd" clip-rule="evenodd" d="M304.621 425.38C304.897 424.694 305.609 424.238 306.402 424.238C307.198 424.238 307.909 424.694 308.185 425.38C308.229 425.491 308.262 425.571 308.277 425.611C308.284 425.628 308.3 425.641 308.319 425.648C308.361 425.662 308.447 425.692 308.567 425.732C309.312 425.987 309.808 426.643 309.808 427.375C309.808 428.106 309.312 428.762 308.567 429.016C308.447 429.056 308.361 429.087 308.319 429.101C308.3 429.107 308.284 429.12 308.277 429.138C308.262 429.178 308.229 429.258 308.185 429.368C307.909 430.054 307.198 430.51 306.402 430.51C305.609 430.51 304.897 430.054 304.621 429.368C304.557 429.205 304.519 429.111 304.519 429.111C304.519 429.111 304.417 429.075 304.239 429.016C303.495 428.762 303 428.106 303 427.375C303 426.643 303.495 425.987 304.239 425.732C304.417 425.673 304.519 425.638 304.519 425.638C304.519 425.638 304.557 425.544 304.621 425.38Z" fill="url(#paint24_linear_3064_2962)"/>
<path fill-rule="evenodd" clip-rule="evenodd" d="M121.621 247.54C121.897 246.853 122.609 246.397 123.402 246.397C124.198 246.397 124.909 246.853 125.185 247.54C125.229 247.65 125.262 247.73 125.277 247.77C125.284 247.788 125.3 247.8 125.319 247.807C125.361 247.821 125.447 247.852 125.567 247.892C126.312 248.146 126.808 248.802 126.808 249.534C126.808 250.265 126.312 250.921 125.567 251.175C125.447 251.215 125.361 251.246 125.319 251.26C125.3 251.267 125.284 251.279 125.277 251.297C125.262 251.337 125.229 251.417 125.185 251.527C124.909 252.214 124.198 252.669 123.402 252.669C122.609 252.669 121.897 252.214 121.621 251.527C121.557 251.364 121.519 251.27 121.519 251.27C121.519 251.27 121.417 251.235 121.239 251.175C120.495 250.921 120 250.265 120 249.534C120 248.802 120.495 248.146 121.239 247.892C121.417 247.832 121.519 247.797 121.519 247.797C121.519 247.797 121.557 247.703 121.621 247.54Z" fill="url(#paint25_linear_3064_2962)"/>
<path fill-rule="evenodd" clip-rule="evenodd" d="M454.621 224.503C454.897 223.817 455.609 223.361 456.402 223.361C457.198 223.361 457.909 223.817 458.185 224.503C458.229 224.614 458.262 224.694 458.277 224.734C458.284 224.751 458.3 224.764 458.319 224.771C458.361 224.785 458.447 224.815 458.567 224.855C459.312 225.11 459.808 225.766 459.808 226.498C459.808 227.229 459.312 227.885 458.567 228.139C458.447 228.179 458.361 228.21 458.319 228.224C458.3 228.231 458.284 228.243 458.277 228.261C458.262 228.301 458.229 228.381 458.185 228.491C457.909 229.177 457.198 229.633 456.402 229.633C455.609 229.633 454.897 229.177 454.621 228.491C454.557 228.328 454.519 228.234 454.519 228.234C454.519 228.234 454.417 228.199 454.239 228.139C453.495 227.885 453 227.229 453 226.498C453 225.766 453.495 225.11 454.239 224.855C454.417 224.796 454.519 224.761 454.519 224.761C454.519 224.761 454.557 224.667 454.621 224.503Z" fill="url(#paint26_linear_3064_2962)"/>
<path fill-rule="evenodd" clip-rule="evenodd" d="M182.621 73.3853C182.897 72.6991 183.609 72.2432 184.402 72.2432C185.198 72.2432 185.909 72.6991 186.185 73.3853C186.229 73.4957 186.262 73.5756 186.277 73.6156C186.284 73.6332 186.3 73.646 186.319 73.6524C186.361 73.6668 186.447 73.6972 186.567 73.7372C187.312 73.9915 187.808 74.6474 187.808 75.38C187.808 76.111 187.312 76.7669 186.567 77.0212C186.447 77.0612 186.361 77.0916 186.319 77.106C186.3 77.1124 186.284 77.1252 186.277 77.1428C186.262 77.1828 186.229 77.2627 186.185 77.3731C185.909 78.0593 185.198 78.5152 184.402 78.5152C183.609 78.5152 182.897 78.0593 182.621 77.3731C182.557 77.2099 182.519 77.1155 182.519 77.1155C182.519 77.1155 182.417 77.0804 182.239 77.0212C181.495 76.7669 181 76.111 181 75.38C181 74.6474 181.495 73.9915 182.239 73.7372C182.417 73.678 182.519 73.6428 182.519 73.6428C182.519 73.6428 182.557 73.5485 182.621 73.3853Z" fill="url(#paint27_linear_3064_2962)"/>
<path fill-rule="evenodd" clip-rule="evenodd" d="M638.621 475.139C638.897 474.453 639.609 473.997 640.402 473.997C641.198 473.997 641.909 474.453 642.185 475.139C642.229 475.25 642.262 475.33 642.277 475.37C642.284 475.387 642.3 475.4 642.319 475.406C642.361 475.421 642.447 475.451 642.567 475.491C643.312 475.745 643.808 476.401 643.808 477.134C643.808 477.865 643.312 478.521 642.567 478.775C642.447 478.815 642.361 478.845 642.319 478.86C642.3 478.866 642.284 478.879 642.277 478.897C642.262 478.937 642.229 479.017 642.185 479.127C641.909 479.813 641.198 480.269 640.402 480.269C639.609 480.269 638.897 479.813 638.621 479.127C638.557 478.964 638.519 478.869 638.519 478.869C638.519 478.869 638.417 478.834 638.239 478.775C637.495 478.521 637 477.865 637 477.134C637 476.401 637.495 475.745 638.239 475.491C638.417 475.432 638.519 475.397 638.519 475.397C638.519 475.397 638.557 475.302 638.621 475.139Z" fill="url(#paint28_linear_3064_2962)"/>
<path d="M534.467 545.809C540.247 545.809 544.933 541.49 544.933 536.164C544.933 530.837 540.247 526.52 534.467 526.52C528.686 526.52 524 530.837 524 536.164C524 541.49 528.686 545.809 534.467 545.809Z" fill="url(#paint29_linear_3064_2962)"/>
<path d="M534.467 545.809C540.247 545.809 544.933 541.49 544.933 536.164C544.933 530.837 540.247 526.52 534.467 526.52C528.686 526.52 524 530.837 524 536.164C524 541.49 528.686 545.809 534.467 545.809Z" fill="url(#paint30_linear_3064_2962)"/>
<path fill-rule="evenodd" clip-rule="evenodd" d="M411.588 417.66L415.74 424.404C421.301 434.19 432.263 440.536 446.456 443.063C466.656 446.657 493.584 442.472 519.583 429.992C545.575 417.505 564.722 399.566 573.102 382.251C578.998 370.061 579.619 358.127 574.072 348.309C574.037 348.251 574.002 348.193 573.96 348.135L565.252 334.832L565.245 334.826C559.453 325.889 548.903 320.057 535.443 317.665C515.242 314.077 488.315 318.257 462.316 330.743C436.324 343.223 417.177 361.162 408.797 378.477C402.901 390.668 402.28 402.601 407.827 412.419C408.888 414.297 410.144 416.046 411.588 417.66ZM417.219 413.853C422.369 419.498 430.309 423.118 439.897 424.822C458.855 428.191 484.08 424.07 508.474 412.361C532.868 400.647 550.982 383.955 558.846 367.707C563.78 357.516 564.638 347.557 559.998 339.352C555.365 331.148 546.007 326.094 534.117 323.979C515.159 320.61 489.941 324.731 465.54 336.44C441.146 348.155 423.032 364.846 415.175 381.094C410.241 391.285 409.376 401.245 414.016 409.449C414.882 410.973 415.907 412.393 417.08 413.699C417.128 413.75 417.177 413.802 417.219 413.853ZM471.325 346.663C453.755 355.099 440.615 366.852 434.608 377.943C430.205 386.083 429.577 393.947 433.149 400.267C436.722 406.581 444.076 410.612 453.838 411.943C467.145 413.763 485.127 410.574 502.696 402.138C520.259 393.702 533.406 381.949 539.406 370.858C543.816 362.718 544.444 354.854 540.872 348.534C537.299 342.22 529.945 338.189 520.183 336.858C506.869 335.038 488.895 338.227 471.325 346.663ZM474.548 352.366C490.604 344.657 506.995 341.551 519.157 343.217C526.379 344.2 532.045 346.836 534.682 351.511C537.327 356.179 536.427 361.966 533.161 367.984C527.677 378.123 515.529 388.726 499.473 396.435C483.41 404.144 467.026 407.25 454.864 405.585C447.642 404.601 441.976 401.965 439.332 397.29C436.694 392.622 437.594 386.836 440.853 380.817C446.344 370.678 458.492 360.075 474.548 352.366Z" fill="url(#paint31_linear_3064_2962)"/>
<path d="M482.093 369.236L481.829 369.105L481.457 368.981L481.139 368.904L480.661 368.788L480.236 368.717L479.811 368.647L479.438 368.623L479.066 368.599L478.693 368.575L478.321 368.551L477.416 368.564L476.509 368.676L476.029 368.759L475.388 368.903L474.96 369.032L474.426 369.168L473.999 369.298L473.517 369.48L472.982 369.716L472.393 370.006L471.964 370.234L471.589 370.41L471.267 370.631L470.945 370.852L470.461 371.234L470.031 371.562L469.653 371.937L469.33 372.258L468.845 372.739L468.412 373.267L468.034 373.741L467.708 374.261L467.381 374.881L467.054 375.5L466.834 376.013L466.614 376.626L466.392 377.338L466.223 378.096L466.107 378.9L466.042 379.85L466.033 380.547L466.129 381.437L466.279 382.173L466.483 382.955L466.687 383.637L466.947 384.167L467.311 384.888L467.677 385.41L468.096 385.979L468.464 386.401L468.832 386.824C469.007 386.978 469.383 387.284 469.411 387.331C469.457 387.407 469.888 387.781 470.096 387.931" stroke="#593CE5" stroke-width="7.6" stroke-linecap="square" stroke-linejoin="round"/>
<path d="M469.072 387.192L469.464 387.527L469.856 387.861L470.248 388.196L470.603 388.472L471.024 388.712L471.445 388.952L471.829 389.133L472.212 389.315L472.596 389.496L472.943 389.62L473.393 389.765L473.946 389.931L474.358 390.018L474.874 390.127L475.39 390.235L475.972 390.307L476.62 390.343L477.164 390.356L477.775 390.333L478.452 390.274L479.025 390.193L479.599 390.112L480.605 389.87L481.905 389.388L482.668 389.044L483.328 388.679L483.856 388.387L484.479 387.963L485.131 387.445L485.811 386.832L486.199 386.46L486.455 386.161L486.645 385.898L486.834 385.636L487.119 385.242L487.432 384.753L487.898 383.944L488.261 383.113L488.492 382.355L488.714 381.444L488.863 380.417L488.895 379.768L488.891 379.062L488.804 378.086L488.659 377.299L488.531 376.819L488.329 376.222L487.903 375.275L487.433 374.118L487.164 373.557L486.97 373.113L486.768 372.516L486.594 371.824L486.515 371.001L486.453 370.484L486.428 370.025L486.47 369.53L486.667 368.16L486.803 367.533L487.092 366.586L487.331 365.981L487.578 365.529L487.92 364.945L488.205 364.552L488.584 364.026L489.096 363.428L489.512 362.961L489.995 362.458L490.449 362.049L491.006 361.663L491.959 361.056L492.751 360.618L493.712 360.165L494.644 359.807L495.313 359.594L496.29 359.447L497.033 359.351L498.019 359.357L499.212 359.406L500.169 359.507L501.032 359.739L501.931 360.029L503.111 360.479L503.842 360.784C503.842 360.784 505 362 504.403 361.196C503.806 360.392 505.002 361.574 505.002 361.574" stroke="url(#paint32_linear_3064_2962)" stroke-width="7.8" stroke-linecap="round" stroke-linejoin="round"/>
<path d="M506.035 362.597C506.225 362.789 506.278 362.824 506.339 362.856L506.708 363.244L507.04 363.726L507.535 364.528L507.895 365.232L508.086 365.775L508.277 366.318L508.595 367.276L508.804 368.359L508.822 368.898L508.803 369.533L508.703 370.515L508.576 371.274L508.341 372.158L508.149 372.789L507.52 374.079L506.794 375.176L506.18 375.99L505.679 376.521L505.037 377.112L504.255 377.764L503.65 378.261L502.732 378.816L502.241 379.029L501.646 379.208L500.949 379.354L499.835 379.525L498.861 379.634L498.445 379.658L497.439 379.704L496.746 379.691L495.918 379.581L494.954 379.373L494.337 379.171L493.686 378.906L492.901 378.543L492.185 378.149L491.334 377.658L490.52 377.072L489.945 376.617L489.407 376.068L488.973 375.552L488.706 375.198L488.473 374.909" stroke="#451490" stroke-width="8.1" stroke-linecap="round" stroke-linejoin="round"/>
<defs>
<linearGradient id="paint0_linear_3064_2962" x1="208.029" y1="390.754" x2="243.734" y2="430.655" gradientUnits="userSpaceOnUse">
<stop stop-color="#151515"/>
<stop offset="1" stop-color="#37373A"/>
</linearGradient>
<linearGradient id="paint1_linear_3064_2962" x1="495.5" y1="39" x2="525" y2="64" gradientUnits="userSpaceOnUse">
<stop stop-color="#151515"/>
<stop offset="1" stop-color="#373639"/>
</linearGradient>
<linearGradient id="paint2_linear_3064_2962" x1="527.515" y1="297.437" x2="540.358" y2="311.576" gradientUnits="userSpaceOnUse">
<stop stop-color="#FF0CF5"/>
<stop offset="1" stop-color="#0575E6"/>
</linearGradient>
<linearGradient id="paint3_linear_3064_2962" x1="527.515" y1="297.437" x2="540.358" y2="311.576" gradientUnits="userSpaceOnUse">
<stop stop-color="#FF0CF5"/>
<stop offset="1" stop-color="#0575E6"/>
</linearGradient>
<linearGradient id="paint4_linear_3064_2962" x1="352.515" y1="58.7805" x2="365.358" y2="72.92" gradientUnits="userSpaceOnUse">
<stop stop-color="#151515"/>
<stop offset="1" stop-color="#353437"/>
</linearGradient>
<linearGradient id="paint5_linear_3064_2962" x1="202.005" y1="244" x2="330.802" y2="368" gradientUnits="userSpaceOnUse">
<stop stop-color="#C708BF"/>
<stop offset="1" stop-color="#0973DE"/>
</linearGradient>
<linearGradient id="paint6_linear_3064_2962" x1="168.027" y1="147.287" x2="29.0867" y2="122.146" gradientUnits="userSpaceOnUse">
<stop stop-color="#670CF5"/>
<stop offset="1" stop-color="#400092"/>
</linearGradient>
<linearGradient id="paint7_linear_3064_2962" x1="204.446" y1="107.192" x2="217.738" y2="124.974" gradientUnits="userSpaceOnUse">
<stop stop-color="#151515"/>
<stop offset="1" stop-color="#413F43"/>
</linearGradient>
<linearGradient id="paint8_linear_3064_2962" x1="410.076" y1="365.462" x2="432.23" y2="395.098" gradientUnits="userSpaceOnUse">
<stop stop-color="#A83AFE" stop-opacity="0.6"/>
<stop offset="1" stop-color="#6E59FE" stop-opacity="0.6"/>
</linearGradient>
<linearGradient id="paint9_linear_3064_2962" x1="355.135" y1="341.873" x2="377.289" y2="371.509" gradientUnits="userSpaceOnUse">
<stop stop-color="#A83AFE"/>
<stop offset="1" stop-color="#6E59FE"/>
</linearGradient>
<linearGradient id="paint10_linear_3064_2962" x1="43.1345" y1="259.544" x2="65.2889" y2="289.18" gradientUnits="userSpaceOnUse">
<stop stop-color="#A83AFE"/>
<stop offset="1" stop-color="#6E59FE"/>
</linearGradient>
<linearGradient id="paint11_linear_3064_2962" x1="258.135" y1="78.0175" x2="280.289" y2="107.654" gradientUnits="userSpaceOnUse">
<stop stop-color="#A83AFE"/>
<stop offset="1" stop-color="#6E59FE"/>
</linearGradient>
<linearGradient id="paint12_linear_3064_2962" x1="363.135" y1="477.007" x2="385.289" y2="506.643" gradientUnits="userSpaceOnUse">
<stop stop-color="#A83AFE"/>
<stop offset="1" stop-color="#6E59FE"/>
</linearGradient>
<linearGradient id="paint13_linear_3064_2962" x1="587.821" y1="358.545" x2="591.731" y2="365.797" gradientUnits="userSpaceOnUse">
<stop stop-color="#A83AFE" stop-opacity="0.6"/>
<stop offset="1" stop-color="#6E59FE" stop-opacity="0.6"/>
</linearGradient>
<linearGradient id="paint14_linear_3064_2962" x1="524.603" y1="450.739" x2="532.423" y2="465.242" gradientUnits="userSpaceOnUse">
<stop stop-color="#A83AFE" stop-opacity="0.6"/>
<stop offset="1" stop-color="#6E59FE" stop-opacity="0.6"/>
</linearGradient>
<linearGradient id="paint15_linear_3064_2962" x1="286.676" y1="508.964" x2="329.085" y2="555.898" gradientUnits="userSpaceOnUse">
<stop stop-color="#151515"/>
<stop offset="1" stop-color="#727179" stop-opacity="0.6"/>
</linearGradient>
<linearGradient id="paint16_linear_3064_2962" x1="323.22" y1="167.844" x2="335.285" y2="183.984" gradientUnits="userSpaceOnUse">
<stop stop-color="#151515"/>
<stop offset="1" stop-color="#3A393C"/>
</linearGradient>
<linearGradient id="paint17_linear_3064_2962" x1="626.691" y1="207.498" x2="634.51" y2="222" gradientUnits="userSpaceOnUse">
<stop stop-color="#E1DCFE" stop-opacity="0.6"/>
<stop offset="1" stop-color="#7E67FD" stop-opacity="0.6"/>
</linearGradient>
<linearGradient id="paint18_linear_3064_2962" x1="562.494" y1="56.7165" x2="570.314" y2="71.2191" gradientUnits="userSpaceOnUse">
<stop stop-color="#A83AFE" stop-opacity="0.6"/>
<stop offset="1" stop-color="#6E59FE" stop-opacity="0.6"/>
</linearGradient>
<linearGradient id="paint19_linear_3064_2962" x1="413.592" y1="2.17516" x2="426.292" y2="19.1642" gradientUnits="userSpaceOnUse">
<stop stop-color="#151515"/>
<stop offset="1" stop-color="#363538"/>
</linearGradient>
<linearGradient id="paint20_linear_3064_2962" x1="40.4798" y1="370.911" x2="153.563" y2="503.342" gradientUnits="userSpaceOnUse">
<stop stop-color="#3B0169"/>
<stop offset="1" stop-color="#5F47FE"/>
</linearGradient>
<linearGradient id="paint21_linear_3064_2962" x1="511.088" y1="186.781" x2="459.502" y2="39.5054" gradientUnits="userSpaceOnUse">
<stop stop-color="#670CF5"/>
<stop offset="1" stop-color="#400092"/>
</linearGradient>
<linearGradient id="paint22_linear_3064_2962" x1="90.0002" y1="406" x2="113" y2="457.5" gradientUnits="userSpaceOnUse">
<stop stop-color="#451491"/>
<stop offset="1" stop-color="#5635D7"/>
</linearGradient>
<linearGradient id="paint23_linear_3064_2962" x1="462.942" y1="105.02" x2="473.614" y2="130.258" gradientUnits="userSpaceOnUse">
<stop stop-color="#ED14F4"/>
<stop offset="1" stop-color="#3A5FE9"/>
</linearGradient>
<linearGradient id="paint24_linear_3064_2962" x1="301.056" y1="422.125" x2="309.917" y2="433.98" gradientUnits="userSpaceOnUse">
<stop stop-color="#E1DCFE"/>
<stop offset="1" stop-color="#7E67FD"/>
</linearGradient>
<linearGradient id="paint25_linear_3064_2962" x1="118.056" y1="244.284" x2="126.917" y2="256.139" gradientUnits="userSpaceOnUse">
<stop stop-color="#E1DCFE"/>
<stop offset="1" stop-color="#7E67FD"/>
</linearGradient>
<linearGradient id="paint26_linear_3064_2962" x1="451.056" y1="221.248" x2="459.917" y2="233.103" gradientUnits="userSpaceOnUse">
<stop stop-color="#E1DCFE"/>
<stop offset="1" stop-color="#7E67FD"/>
</linearGradient>
<linearGradient id="paint27_linear_3064_2962" x1="179.056" y1="70.1301" x2="187.917" y2="81.9846" gradientUnits="userSpaceOnUse">
<stop stop-color="#E1DCFE"/>
<stop offset="1" stop-color="#7E67FD"/>
</linearGradient>
<linearGradient id="paint28_linear_3064_2962" x1="635.056" y1="471.884" x2="643.917" y2="483.738" gradientUnits="userSpaceOnUse">
<stop stop-color="#E1DCFE"/>
<stop offset="1" stop-color="#7E67FD"/>
</linearGradient>
<linearGradient id="paint29_linear_3064_2962" x1="526.446" y1="528.296" x2="539.738" y2="546.078" gradientUnits="userSpaceOnUse">
<stop stop-color="#E1DCFE" stop-opacity="0.6"/>
<stop offset="1" stop-color="#7E67FD" stop-opacity="0.6"/>
</linearGradient>
<linearGradient id="paint30_linear_3064_2962" x1="526.446" y1="528.296" x2="539.738" y2="546.078" gradientUnits="userSpaceOnUse">
<stop stop-color="#E1DCFE" stop-opacity="0.6"/>
<stop offset="1" stop-color="#7E67FD" stop-opacity="0.6"/>
</linearGradient>
<linearGradient id="paint31_linear_3064_2962" x1="560.64" y1="406.285" x2="430.966" y2="346.545" gradientUnits="userSpaceOnUse">
<stop stop-color="#3B0169"/>
<stop offset="1" stop-color="#5F47FE"/>
</linearGradient>
<linearGradient id="paint32_linear_3064_2962" x1="492" y1="359" x2="472.225" y2="403.26" gradientUnits="userSpaceOnUse">
<stop stop-color="#4B20AA"/>
<stop offset="1" stop-color="#4F28BB"/>
</linearGradient>
<clipPath id="clip0_3064_2962">
<rect width="162" height="90" fill="white" transform="translate(202 244)"/>
</clipPath>
</defs>
</svg>
