<svg width="1656" height="447" viewBox="0 0 1656 447" fill="none" xmlns="http://www.w3.org/2000/svg">
<path fill-rule="evenodd" clip-rule="evenodd" d="M508.54 44.2597C508.844 43.5039 509.629 43 510.501 43C511.378 43 512.164 43.5039 512.467 44.2597C513.383 46.5392 514.377 49.0146 514.88 50.2743C515.093 50.8021 515.544 51.218 516.117 51.4139C517.484 51.8778 520.171 52.7936 522.644 53.6374C523.465 53.9173 524.011 54.6412 524.011 55.449C524.011 56.2528 523.465 56.9766 522.644 57.2565C520.171 58.0963 517.484 59.016 516.117 59.4799C515.544 59.6759 515.093 60.0918 514.88 60.6197C514.377 61.8754 513.383 64.3548 512.467 66.6342C512.164 67.39 511.378 67.8898 510.501 67.8898C509.629 67.8898 508.844 67.39 508.54 66.6342C507.628 64.3548 506.63 61.8754 506.127 60.6197C505.914 60.0918 505.463 59.6759 504.89 59.4799C503.527 59.016 500.836 58.0963 498.367 57.2565C497.542 56.9766 497 56.2528 497 55.449C497 54.6412 497.542 53.9173 498.367 53.6374C500.836 52.7936 503.527 51.8778 504.89 51.4139C505.463 51.218 505.914 50.8021 506.127 50.2743C506.63 49.0146 507.628 46.5392 508.54 44.2597Z" fill="url(#paint0_linear_3764_4372)"/>
<path fill-rule="evenodd" clip-rule="evenodd" d="M508.54 44.2597C508.844 43.5039 509.629 43 510.501 43C511.378 43 512.164 43.5039 512.467 44.2597C513.383 46.5392 514.377 49.0146 514.88 50.2743C515.093 50.8021 515.544 51.218 516.117 51.4139C517.484 51.8778 520.171 52.7936 522.644 53.6374C523.465 53.9173 524.011 54.6412 524.011 55.449C524.011 56.2528 523.465 56.9766 522.644 57.2565C520.171 58.0963 517.484 59.016 516.117 59.4799C515.544 59.6759 515.093 60.0918 514.88 60.6197C514.377 61.8754 513.383 64.3548 512.467 66.6342C512.164 67.39 511.378 67.8898 510.501 67.8898C509.629 67.8898 508.844 67.39 508.54 66.6342C507.628 64.3548 506.63 61.8754 506.127 60.6197C505.914 60.0918 505.463 59.6759 504.89 59.4799C503.527 59.016 500.836 58.0963 498.367 57.2565C497.542 56.9766 497 56.2528 497 55.449C497 54.6412 497.542 53.9173 498.367 53.6374C500.836 52.7936 503.527 51.8778 504.89 51.4139C505.463 51.218 505.914 50.8021 506.127 50.2743C506.63 49.0146 507.628 46.5392 508.54 44.2597Z" fill="url(#paint1_linear_3764_4372)"/>
<path fill-rule="evenodd" clip-rule="evenodd" d="M1024.54 1.25975C1024.84 0.503934 1025.63 0 1026.5 0C1027.38 0 1028.16 0.503934 1028.47 1.25975C1029.38 3.53918 1030.38 6.01459 1030.88 7.27428C1031.09 7.80215 1031.54 8.21798 1032.12 8.41394C1033.48 8.87782 1036.17 9.79362 1038.64 10.6374C1039.46 10.9173 1040.01 11.6412 1040.01 12.449C1040.01 13.2528 1039.46 13.9766 1038.64 14.2565C1036.17 15.0963 1033.48 16.016 1032.12 16.4799C1031.54 16.6759 1031.09 17.0918 1030.88 17.6197C1030.38 18.8754 1029.38 21.3548 1028.47 23.6342C1028.16 24.39 1027.38 24.8898 1026.5 24.8898C1025.63 24.8898 1024.84 24.39 1024.54 23.6342C1023.63 21.3548 1022.63 18.8754 1022.13 17.6197C1021.91 17.0918 1021.46 16.6759 1020.89 16.4799C1019.53 16.016 1016.84 15.0963 1014.37 14.2565C1013.54 13.9766 1013 13.2528 1013 12.449C1013 11.6412 1013.54 10.9173 1014.37 10.6374C1016.84 9.79362 1019.53 8.87782 1020.89 8.41394C1021.46 8.21798 1021.91 7.80215 1022.13 7.27428C1022.63 6.01459 1023.63 3.53918 1024.54 1.25975Z" fill="url(#paint2_linear_3764_4372)"/>
<path fill-rule="evenodd" clip-rule="evenodd" d="M1024.54 1.25975C1024.84 0.503934 1025.63 0 1026.5 0C1027.38 0 1028.16 0.503934 1028.47 1.25975C1029.38 3.53918 1030.38 6.01459 1030.88 7.27428C1031.09 7.80215 1031.54 8.21798 1032.12 8.41394C1033.48 8.87782 1036.17 9.79362 1038.64 10.6374C1039.46 10.9173 1040.01 11.6412 1040.01 12.449C1040.01 13.2528 1039.46 13.9766 1038.64 14.2565C1036.17 15.0963 1033.48 16.016 1032.12 16.4799C1031.54 16.6759 1031.09 17.0918 1030.88 17.6197C1030.38 18.8754 1029.38 21.3548 1028.47 23.6342C1028.16 24.39 1027.38 24.8898 1026.5 24.8898C1025.63 24.8898 1024.84 24.39 1024.54 23.6342C1023.63 21.3548 1022.63 18.8754 1022.13 17.6197C1021.91 17.0918 1021.46 16.6759 1020.89 16.4799C1019.53 16.016 1016.84 15.0963 1014.37 14.2565C1013.54 13.9766 1013 13.2528 1013 12.449C1013 11.6412 1013.54 10.9173 1014.37 10.6374C1016.84 9.79362 1019.53 8.87782 1020.89 8.41394C1021.46 8.21798 1021.91 7.80215 1022.13 7.27428C1022.63 6.01459 1023.63 3.53918 1024.54 1.25975Z" fill="url(#paint3_linear_3764_4372)"/>
<path fill-rule="evenodd" clip-rule="evenodd" d="M1186.54 129.26C1186.84 128.504 1187.63 128 1188.5 128C1189.38 128 1190.16 128.504 1190.47 129.26C1191.38 131.539 1192.38 134.015 1192.88 135.274C1193.09 135.802 1193.54 136.218 1194.12 136.414C1195.48 136.878 1198.17 137.794 1200.64 138.637C1201.46 138.917 1202.01 139.641 1202.01 140.449C1202.01 141.253 1201.46 141.977 1200.64 142.257C1198.17 143.096 1195.48 144.016 1194.12 144.48C1193.54 144.676 1193.09 145.092 1192.88 145.62C1192.38 146.875 1191.38 149.355 1190.47 151.634C1190.16 152.39 1189.38 152.89 1188.5 152.89C1187.63 152.89 1186.84 152.39 1186.54 151.634C1185.63 149.355 1184.63 146.875 1184.13 145.62C1183.91 145.092 1183.46 144.676 1182.89 144.48C1181.53 144.016 1178.84 143.096 1176.37 142.257C1175.54 141.977 1175 141.253 1175 140.449C1175 139.641 1175.54 138.917 1176.37 138.637C1178.84 137.794 1181.53 136.878 1182.89 136.414C1183.46 136.218 1183.91 135.802 1184.13 135.274C1184.63 134.015 1185.63 131.539 1186.54 129.26Z" fill="url(#paint4_linear_3764_4372)"/>
<path fill-rule="evenodd" clip-rule="evenodd" d="M1186.54 129.26C1186.84 128.504 1187.63 128 1188.5 128C1189.38 128 1190.16 128.504 1190.47 129.26C1191.38 131.539 1192.38 134.015 1192.88 135.274C1193.09 135.802 1193.54 136.218 1194.12 136.414C1195.48 136.878 1198.17 137.794 1200.64 138.637C1201.46 138.917 1202.01 139.641 1202.01 140.449C1202.01 141.253 1201.46 141.977 1200.64 142.257C1198.17 143.096 1195.48 144.016 1194.12 144.48C1193.54 144.676 1193.09 145.092 1192.88 145.62C1192.38 146.875 1191.38 149.355 1190.47 151.634C1190.16 152.39 1189.38 152.89 1188.5 152.89C1187.63 152.89 1186.84 152.39 1186.54 151.634C1185.63 149.355 1184.63 146.875 1184.13 145.62C1183.91 145.092 1183.46 144.676 1182.89 144.48C1181.53 144.016 1178.84 143.096 1176.37 142.257C1175.54 141.977 1175 141.253 1175 140.449C1175 139.641 1175.54 138.917 1176.37 138.637C1178.84 137.794 1181.53 136.878 1182.89 136.414C1183.46 136.218 1183.91 135.802 1184.13 135.274C1184.63 134.015 1185.63 131.539 1186.54 129.26Z" fill="url(#paint5_linear_3764_4372)"/>
<path fill-rule="evenodd" clip-rule="evenodd" d="M1357.54 350.26C1357.84 349.504 1358.63 349 1359.5 349C1360.38 349 1361.16 349.504 1361.47 350.26C1362.38 352.539 1363.38 355.015 1363.88 356.274C1364.09 356.802 1364.54 357.218 1365.12 357.414C1366.48 357.878 1369.17 358.794 1371.64 359.637C1372.46 359.917 1373.01 360.641 1373.01 361.449C1373.01 362.253 1372.46 362.977 1371.64 363.257C1369.17 364.096 1366.48 365.016 1365.12 365.48C1364.54 365.676 1364.09 366.092 1363.88 366.62C1363.38 367.875 1362.38 370.355 1361.47 372.634C1361.16 373.39 1360.38 373.89 1359.5 373.89C1358.63 373.89 1357.84 373.39 1357.54 372.634C1356.63 370.355 1355.63 367.875 1355.13 366.62C1354.91 366.092 1354.46 365.676 1353.89 365.48C1352.53 365.016 1349.84 364.096 1347.37 363.257C1346.54 362.977 1346 362.253 1346 361.449C1346 360.641 1346.54 359.917 1347.37 359.637C1349.84 358.794 1352.53 357.878 1353.89 357.414C1354.46 357.218 1354.91 356.802 1355.13 356.274C1355.63 355.015 1356.63 352.539 1357.54 350.26Z" fill="url(#paint6_linear_3764_4372)"/>
<path fill-rule="evenodd" clip-rule="evenodd" d="M1357.54 350.26C1357.84 349.504 1358.63 349 1359.5 349C1360.38 349 1361.16 349.504 1361.47 350.26C1362.38 352.539 1363.38 355.015 1363.88 356.274C1364.09 356.802 1364.54 357.218 1365.12 357.414C1366.48 357.878 1369.17 358.794 1371.64 359.637C1372.46 359.917 1373.01 360.641 1373.01 361.449C1373.01 362.253 1372.46 362.977 1371.64 363.257C1369.17 364.096 1366.48 365.016 1365.12 365.48C1364.54 365.676 1364.09 366.092 1363.88 366.62C1363.38 367.875 1362.38 370.355 1361.47 372.634C1361.16 373.39 1360.38 373.89 1359.5 373.89C1358.63 373.89 1357.84 373.39 1357.54 372.634C1356.63 370.355 1355.63 367.875 1355.13 366.62C1354.91 366.092 1354.46 365.676 1353.89 365.48C1352.53 365.016 1349.84 364.096 1347.37 363.257C1346.54 362.977 1346 362.253 1346 361.449C1346 360.641 1346.54 359.917 1347.37 359.637C1349.84 358.794 1352.53 357.878 1353.89 357.414C1354.46 357.218 1354.91 356.802 1355.13 356.274C1355.63 355.015 1356.63 352.539 1357.54 350.26Z" fill="url(#paint7_linear_3764_4372)"/>
<path fill-rule="evenodd" clip-rule="evenodd" d="M675.54 301.26C675.844 300.504 676.629 300 677.501 300C678.378 300 679.164 300.504 679.467 301.26C680.383 303.539 681.377 306.015 681.88 307.274C682.093 307.802 682.544 308.218 683.117 308.414C684.484 308.878 687.171 309.794 689.644 310.637C690.465 310.917 691.011 311.641 691.011 312.449C691.011 313.253 690.465 313.977 689.644 314.257C687.171 315.096 684.484 316.016 683.117 316.48C682.544 316.676 682.093 317.092 681.88 317.62C681.377 318.875 680.383 321.355 679.467 323.634C679.164 324.39 678.378 324.89 677.501 324.89C676.629 324.89 675.844 324.39 675.54 323.634C674.628 321.355 673.63 318.875 673.127 317.62C672.914 317.092 672.463 316.676 671.89 316.48C670.527 316.016 667.836 315.096 665.367 314.257C664.542 313.977 664 313.253 664 312.449C664 311.641 664.542 310.917 665.367 310.637C667.836 309.794 670.527 308.878 671.89 308.414C672.463 308.218 672.914 307.802 673.127 307.274C673.63 306.015 674.628 303.539 675.54 301.26Z" fill="url(#paint8_linear_3764_4372)"/>
<path fill-rule="evenodd" clip-rule="evenodd" d="M675.54 301.26C675.844 300.504 676.629 300 677.501 300C678.378 300 679.164 300.504 679.467 301.26C680.383 303.539 681.377 306.015 681.88 307.274C682.093 307.802 682.544 308.218 683.117 308.414C684.484 308.878 687.171 309.794 689.644 310.637C690.465 310.917 691.011 311.641 691.011 312.449C691.011 313.253 690.465 313.977 689.644 314.257C687.171 315.096 684.484 316.016 683.117 316.48C682.544 316.676 682.093 317.092 681.88 317.62C681.377 318.875 680.383 321.355 679.467 323.634C679.164 324.39 678.378 324.89 677.501 324.89C676.629 324.89 675.844 324.39 675.54 323.634C674.628 321.355 673.63 318.875 673.127 317.62C672.914 317.092 672.463 316.676 671.89 316.48C670.527 316.016 667.836 315.096 665.367 314.257C664.542 313.977 664 313.253 664 312.449C664 311.641 664.542 310.917 665.367 310.637C667.836 309.794 670.527 308.878 671.89 308.414C672.463 308.218 672.914 307.802 673.127 307.274C673.63 306.015 674.628 303.539 675.54 301.26Z" fill="url(#paint9_linear_3764_4372)"/>
<path fill-rule="evenodd" clip-rule="evenodd" d="M1581.54 80.2597C1581.84 79.5039 1582.63 79 1583.5 79C1584.38 79 1585.16 79.5039 1585.47 80.2597C1586.38 82.5392 1587.38 85.0146 1587.88 86.2743C1588.09 86.8021 1588.54 87.218 1589.12 87.4139C1590.48 87.8778 1593.17 88.7936 1595.64 89.6374C1596.46 89.9173 1597.01 90.6412 1597.01 91.449C1597.01 92.2528 1596.46 92.9766 1595.64 93.2565C1593.17 94.0963 1590.48 95.016 1589.12 95.4799C1588.54 95.6759 1588.09 96.0918 1587.88 96.6197C1587.38 97.8754 1586.38 100.355 1585.47 102.634C1585.16 103.39 1584.38 103.89 1583.5 103.89C1582.63 103.89 1581.84 103.39 1581.54 102.634C1580.63 100.355 1579.63 97.8754 1579.13 96.6197C1578.91 96.0918 1578.46 95.6759 1577.89 95.4799C1576.53 95.016 1573.84 94.0963 1571.37 93.2565C1570.54 92.9766 1570 92.2528 1570 91.449C1570 90.6412 1570.54 89.9173 1571.37 89.6374C1573.84 88.7936 1576.53 87.8778 1577.89 87.4139C1578.46 87.218 1578.91 86.8021 1579.13 86.2743C1579.63 85.0146 1580.63 82.5392 1581.54 80.2597Z" fill="url(#paint10_linear_3764_4372)"/>
<path fill-rule="evenodd" clip-rule="evenodd" d="M1581.54 80.2597C1581.84 79.5039 1582.63 79 1583.5 79C1584.38 79 1585.16 79.5039 1585.47 80.2597C1586.38 82.5392 1587.38 85.0146 1587.88 86.2743C1588.09 86.8021 1588.54 87.218 1589.12 87.4139C1590.48 87.8778 1593.17 88.7936 1595.64 89.6374C1596.46 89.9173 1597.01 90.6412 1597.01 91.449C1597.01 92.2528 1596.46 92.9766 1595.64 93.2565C1593.17 94.0963 1590.48 95.016 1589.12 95.4799C1588.54 95.6759 1588.09 96.0918 1587.88 96.6197C1587.38 97.8754 1586.38 100.355 1585.47 102.634C1585.16 103.39 1584.38 103.89 1583.5 103.89C1582.63 103.89 1581.84 103.39 1581.54 102.634C1580.63 100.355 1579.63 97.8754 1579.13 96.6197C1578.91 96.0918 1578.46 95.6759 1577.89 95.4799C1576.53 95.016 1573.84 94.0963 1571.37 93.2565C1570.54 92.9766 1570 92.2528 1570 91.449C1570 90.6412 1570.54 89.9173 1571.37 89.6374C1573.84 88.7936 1576.53 87.8778 1577.89 87.4139C1578.46 87.218 1578.91 86.8021 1579.13 86.2743C1579.63 85.0146 1580.63 82.5392 1581.54 80.2597Z" fill="url(#paint11_linear_3764_4372)"/>
<path fill-rule="evenodd" clip-rule="evenodd" d="M181.54 55.2597C181.844 54.5039 182.629 54 183.501 54C184.378 54 185.164 54.5039 185.467 55.2597C186.383 57.5392 187.377 60.0146 187.88 61.2743C188.093 61.8021 188.544 62.218 189.117 62.4139C190.484 62.8778 193.171 63.7936 195.644 64.6374C196.465 64.9173 197.011 65.6412 197.011 66.449C197.011 67.2528 196.465 67.9766 195.644 68.2565C193.171 69.0963 190.484 70.016 189.117 70.4799C188.544 70.6759 188.093 71.0918 187.88 71.6197C187.377 72.8754 186.383 75.3548 185.467 77.6342C185.164 78.39 184.378 78.8898 183.501 78.8898C182.629 78.8898 181.844 78.39 181.54 77.6342C180.628 75.3548 179.63 72.8754 179.127 71.6197C178.914 71.0918 178.463 70.6759 177.89 70.4799C176.527 70.016 173.836 69.0963 171.367 68.2565C170.542 67.9766 170 67.2528 170 66.449C170 65.6412 170.542 64.9173 171.367 64.6374C173.836 63.7936 176.527 62.8778 177.89 62.4139C178.463 62.218 178.914 61.8021 179.127 61.2743C179.63 60.0146 180.628 57.5392 181.54 55.2597Z" fill="url(#paint12_linear_3764_4372)"/>
<path fill-rule="evenodd" clip-rule="evenodd" d="M181.54 55.2597C181.844 54.5039 182.629 54 183.501 54C184.378 54 185.164 54.5039 185.467 55.2597C186.383 57.5392 187.377 60.0146 187.88 61.2743C188.093 61.8021 188.544 62.218 189.117 62.4139C190.484 62.8778 193.171 63.7936 195.644 64.6374C196.465 64.9173 197.011 65.6412 197.011 66.449C197.011 67.2528 196.465 67.9766 195.644 68.2565C193.171 69.0963 190.484 70.016 189.117 70.4799C188.544 70.6759 188.093 71.0918 187.88 71.6197C187.377 72.8754 186.383 75.3548 185.467 77.6342C185.164 78.39 184.378 78.8898 183.501 78.8898C182.629 78.8898 181.844 78.39 181.54 77.6342C180.628 75.3548 179.63 72.8754 179.127 71.6197C178.914 71.0918 178.463 70.6759 177.89 70.4799C176.527 70.016 173.836 69.0963 171.367 68.2565C170.542 67.9766 170 67.2528 170 66.449C170 65.6412 170.542 64.9173 171.367 64.6374C173.836 63.7936 176.527 62.8778 177.89 62.4139C178.463 62.218 178.914 61.8021 179.127 61.2743C179.63 60.0146 180.628 57.5392 181.54 55.2597Z" fill="url(#paint13_linear_3764_4372)"/>
<path d="M1217.5 87.6217C1231.03 87.6217 1242 77.8564 1242 65.8107C1242 53.7649 1231.03 44 1217.5 44C1203.97 44 1193 53.7649 1193 65.8107C1193 77.8564 1203.97 87.6217 1217.5 87.6217Z" fill="url(#paint14_linear_3764_4372)"/>
<path d="M1529.5 409.622C1543.03 409.622 1554 399.856 1554 387.811C1554 375.765 1543.03 366 1529.5 366C1515.97 366 1505 375.765 1505 387.811C1505 399.856 1515.97 409.622 1529.5 409.622Z" fill="url(#paint15_linear_3764_4372)"/>
<path d="M674.499 65.6217C688.029 65.6217 698.997 55.8564 698.997 43.8107C698.997 31.7649 688.029 22 674.499 22C660.968 22 650 31.7649 650 43.8107C650 55.8564 660.968 65.6217 674.499 65.6217Z" fill="url(#paint16_linear_3764_4372)"/>
<path d="M275.499 81.6217C289.029 81.6217 299.997 71.8564 299.997 59.8107C299.997 47.7649 289.029 38 275.499 38C261.968 38 251 47.7649 251 59.8107C251 71.8564 261.968 81.6217 275.499 81.6217Z" fill="url(#paint17_linear_3764_4372)"/>
<path d="M24.4986 309.622C38.0288 309.622 48.9972 299.856 48.9972 287.811C48.9972 275.765 38.0288 266 24.4986 266C10.9684 266 0 275.765 0 287.811C0 299.856 10.9684 309.622 24.4986 309.622Z" fill="url(#paint18_linear_3764_4372)"/>
<path d="M459.499 446.622C473.029 446.622 483.997 436.856 483.997 424.811C483.997 412.765 473.029 403 459.499 403C445.968 403 435 412.765 435 424.811C435 436.856 445.968 446.622 459.499 446.622Z" fill="url(#paint19_linear_3764_4372)"/>
<path d="M1078.5 360.622C1092.03 360.622 1103 350.856 1103 338.811C1103 326.765 1092.03 317 1078.5 317C1064.97 317 1054 326.765 1054 338.811C1054 350.856 1064.97 360.622 1078.5 360.622Z" fill="url(#paint20_linear_3764_4372)"/>
<path fill-rule="evenodd" clip-rule="evenodd" d="M1424.62 89.1421C1424.9 88.4559 1425.61 88 1426.4 88C1427.2 88 1427.91 88.4559 1428.19 89.1421C1428.23 89.2525 1428.26 89.3325 1428.28 89.3725C1428.28 89.3901 1428.3 89.4029 1428.32 89.4093C1428.36 89.4237 1428.45 89.4541 1428.57 89.494C1429.31 89.7484 1429.81 90.4042 1429.81 91.1368C1429.81 91.8679 1429.31 92.5237 1428.57 92.778C1428.45 92.818 1428.36 92.8484 1428.32 92.8628C1428.3 92.8692 1428.28 92.882 1428.28 92.8996C1428.26 92.9396 1428.23 93.0196 1428.19 93.1299C1427.91 93.8162 1427.2 94.272 1426.4 94.272C1425.61 94.272 1424.9 93.8162 1424.62 93.1299C1424.56 92.9668 1424.52 92.8724 1424.52 92.8724C1424.52 92.8724 1424.42 92.8372 1424.24 92.778C1423.49 92.5237 1423 91.8679 1423 91.1368C1423 90.4042 1423.49 89.7484 1424.24 89.494C1424.42 89.4349 1424.52 89.3997 1424.52 89.3997C1424.52 89.3997 1424.56 89.3053 1424.62 89.1421Z" fill="url(#paint21_linear_3764_4372)"/>
<path fill-rule="evenodd" clip-rule="evenodd" d="M849.621 39.1421C849.897 38.4559 850.609 38 851.402 38C852.198 38 852.909 38.4559 853.185 39.1421C853.229 39.2525 853.262 39.3325 853.277 39.3725C853.284 39.3901 853.3 39.4029 853.319 39.4093C853.361 39.4237 853.447 39.4541 853.567 39.494C854.312 39.7484 854.808 40.4042 854.808 41.1368C854.808 41.8679 854.312 42.5237 853.567 42.778C853.447 42.818 853.361 42.8484 853.319 42.8628C853.3 42.8692 853.284 42.882 853.277 42.8996C853.262 42.9396 853.229 43.0196 853.185 43.1299C852.909 43.8162 852.198 44.272 851.402 44.272C850.609 44.272 849.897 43.8162 849.621 43.1299C849.557 42.9668 849.519 42.8724 849.519 42.8724C849.519 42.8724 849.417 42.8372 849.239 42.778C848.495 42.5237 848 41.8679 848 41.1368C848 40.4042 848.495 39.7484 849.239 39.494C849.417 39.4349 849.519 39.3997 849.519 39.3997C849.519 39.3997 849.557 39.3053 849.621 39.1421Z" fill="url(#paint22_linear_3764_4372)"/>
<path fill-rule="evenodd" clip-rule="evenodd" d="M1650.62 342.142C1650.9 341.456 1651.61 341 1652.4 341C1653.2 341 1653.91 341.456 1654.19 342.142C1654.23 342.253 1654.26 342.332 1654.28 342.372C1654.28 342.39 1654.3 342.403 1654.32 342.409C1654.36 342.424 1654.45 342.454 1654.57 342.494C1655.31 342.748 1655.81 343.404 1655.81 344.137C1655.81 344.868 1655.31 345.524 1654.57 345.778C1654.45 345.818 1654.36 345.848 1654.32 345.863C1654.3 345.869 1654.28 345.882 1654.28 345.9C1654.26 345.94 1654.23 346.02 1654.19 346.13C1653.91 346.816 1653.2 347.272 1652.4 347.272C1651.61 347.272 1650.9 346.816 1650.62 346.13C1650.56 345.967 1650.52 345.872 1650.52 345.872C1650.52 345.872 1650.42 345.837 1650.24 345.778C1649.49 345.524 1649 344.868 1649 344.137C1649 343.404 1649.49 342.748 1650.24 342.494C1650.42 342.435 1650.52 342.4 1650.52 342.4C1650.52 342.4 1650.56 342.305 1650.62 342.142Z" fill="url(#paint23_linear_3764_4372)"/>
<path fill-rule="evenodd" clip-rule="evenodd" d="M390.621 57.1421C390.897 56.4559 391.609 56 392.402 56C393.198 56 393.909 56.4559 394.185 57.1421C394.229 57.2525 394.262 57.3325 394.277 57.3725C394.284 57.3901 394.3 57.4029 394.319 57.4093C394.361 57.4237 394.447 57.4541 394.567 57.494C395.312 57.7484 395.808 58.4042 395.808 59.1368C395.808 59.8679 395.312 60.5237 394.567 60.778C394.447 60.818 394.361 60.8484 394.319 60.8628C394.3 60.8692 394.284 60.882 394.277 60.8996C394.262 60.9396 394.229 61.0196 394.185 61.1299C393.909 61.8162 393.198 62.272 392.402 62.272C391.609 62.272 390.897 61.8162 390.621 61.1299C390.557 60.9668 390.519 60.8724 390.519 60.8724C390.519 60.8724 390.417 60.8372 390.239 60.778C389.495 60.5237 389 59.8679 389 59.1368C389 58.4042 389.495 57.7484 390.239 57.494C390.417 57.4349 390.519 57.3997 390.519 57.3997C390.519 57.3997 390.557 57.3053 390.621 57.1421Z" fill="url(#paint24_linear_3764_4372)"/>
<path fill-rule="evenodd" clip-rule="evenodd" d="M597.621 142.142C597.897 141.456 598.609 141 599.402 141C600.198 141 600.909 141.456 601.185 142.142C601.229 142.253 601.262 142.332 601.277 142.372C601.284 142.39 601.3 142.403 601.319 142.409C601.361 142.424 601.447 142.454 601.567 142.494C602.312 142.748 602.808 143.404 602.808 144.137C602.808 144.868 602.312 145.524 601.567 145.778C601.447 145.818 601.361 145.848 601.319 145.863C601.3 145.869 601.284 145.882 601.277 145.9C601.262 145.94 601.229 146.02 601.185 146.13C600.909 146.816 600.198 147.272 599.402 147.272C598.609 147.272 597.897 146.816 597.621 146.13C597.557 145.967 597.519 145.872 597.519 145.872C597.519 145.872 597.417 145.837 597.239 145.778C596.495 145.524 596 144.868 596 144.137C596 143.404 596.495 142.748 597.239 142.494C597.417 142.435 597.519 142.4 597.519 142.4C597.519 142.4 597.557 142.305 597.621 142.142Z" fill="url(#paint25_linear_3764_4372)"/>
<path fill-rule="evenodd" clip-rule="evenodd" d="M305.621 311.142C305.897 310.456 306.609 310 307.402 310C308.198 310 308.909 310.456 309.185 311.142C309.229 311.253 309.262 311.332 309.277 311.372C309.284 311.39 309.3 311.403 309.319 311.409C309.361 311.424 309.447 311.454 309.567 311.494C310.312 311.748 310.808 312.404 310.808 313.137C310.808 313.868 310.312 314.524 309.567 314.778C309.447 314.818 309.361 314.848 309.319 314.863C309.3 314.869 309.284 314.882 309.277 314.9C309.262 314.94 309.229 315.02 309.185 315.13C308.909 315.816 308.198 316.272 307.402 316.272C306.609 316.272 305.897 315.816 305.621 315.13C305.557 314.967 305.519 314.872 305.519 314.872C305.519 314.872 305.417 314.837 305.239 314.778C304.495 314.524 304 313.868 304 313.137C304 312.404 304.495 311.748 305.239 311.494C305.417 311.435 305.519 311.4 305.519 311.4C305.519 311.4 305.557 311.305 305.621 311.142Z" fill="url(#paint26_linear_3764_4372)"/>
<defs>
<linearGradient id="paint0_linear_3764_4372" x1="497.135" y1="42.3242" x2="519.289" y2="71.9603" gradientUnits="userSpaceOnUse">
<stop stop-color="#A83AFE"/>
<stop offset="1" stop-color="#6E59FE"/>
</linearGradient>
<linearGradient id="paint1_linear_3764_4372" x1="497.135" y1="42.3242" x2="519.289" y2="71.9603" gradientUnits="userSpaceOnUse">
<stop stop-color="#A83AFE"/>
<stop offset="1" stop-color="#6E59FE"/>
</linearGradient>
<linearGradient id="paint2_linear_3764_4372" x1="1013.13" y1="-0.675833" x2="1035.29" y2="28.9603" gradientUnits="userSpaceOnUse">
<stop stop-color="#A83AFE"/>
<stop offset="1" stop-color="#6E59FE"/>
</linearGradient>
<linearGradient id="paint3_linear_3764_4372" x1="1013.13" y1="-0.675833" x2="1035.29" y2="28.9603" gradientUnits="userSpaceOnUse">
<stop stop-color="#A83AFE"/>
<stop offset="1" stop-color="#6E59FE"/>
</linearGradient>
<linearGradient id="paint4_linear_3764_4372" x1="1175.13" y1="127.324" x2="1197.29" y2="156.96" gradientUnits="userSpaceOnUse">
<stop stop-color="#A83AFE"/>
<stop offset="1" stop-color="#6E59FE"/>
</linearGradient>
<linearGradient id="paint5_linear_3764_4372" x1="1175.13" y1="127.324" x2="1197.29" y2="156.96" gradientUnits="userSpaceOnUse">
<stop stop-color="#A83AFE"/>
<stop offset="1" stop-color="#6E59FE"/>
</linearGradient>
<linearGradient id="paint6_linear_3764_4372" x1="1346.13" y1="348.324" x2="1368.29" y2="377.96" gradientUnits="userSpaceOnUse">
<stop stop-color="#A83AFE"/>
<stop offset="1" stop-color="#6E59FE"/>
</linearGradient>
<linearGradient id="paint7_linear_3764_4372" x1="1346.13" y1="348.324" x2="1368.29" y2="377.96" gradientUnits="userSpaceOnUse">
<stop stop-color="#A83AFE"/>
<stop offset="1" stop-color="#6E59FE"/>
</linearGradient>
<linearGradient id="paint8_linear_3764_4372" x1="664.135" y1="299.324" x2="686.289" y2="328.96" gradientUnits="userSpaceOnUse">
<stop stop-color="#A83AFE"/>
<stop offset="1" stop-color="#6E59FE"/>
</linearGradient>
<linearGradient id="paint9_linear_3764_4372" x1="664.135" y1="299.324" x2="686.289" y2="328.96" gradientUnits="userSpaceOnUse">
<stop stop-color="#A83AFE"/>
<stop offset="1" stop-color="#6E59FE"/>
</linearGradient>
<linearGradient id="paint10_linear_3764_4372" x1="1570.13" y1="78.3242" x2="1592.29" y2="107.96" gradientUnits="userSpaceOnUse">
<stop stop-color="#A83AFE"/>
<stop offset="1" stop-color="#6E59FE"/>
</linearGradient>
<linearGradient id="paint11_linear_3764_4372" x1="1570.13" y1="78.3242" x2="1592.29" y2="107.96" gradientUnits="userSpaceOnUse">
<stop stop-color="#A83AFE"/>
<stop offset="1" stop-color="#6E59FE"/>
</linearGradient>
<linearGradient id="paint12_linear_3764_4372" x1="170.135" y1="53.3242" x2="192.289" y2="82.9603" gradientUnits="userSpaceOnUse">
<stop stop-color="#A83AFE"/>
<stop offset="1" stop-color="#6E59FE"/>
</linearGradient>
<linearGradient id="paint13_linear_3764_4372" x1="170.135" y1="53.3242" x2="192.289" y2="82.9603" gradientUnits="userSpaceOnUse">
<stop stop-color="#A83AFE"/>
<stop offset="1" stop-color="#6E59FE"/>
</linearGradient>
<linearGradient id="paint14_linear_3764_4372" x1="1207.68" y1="59.6166" x2="1250.09" y2="106.55" gradientUnits="userSpaceOnUse">
<stop stop-color="#151515"/>
<stop offset="1" stop-color="#727179" stop-opacity="0.6"/>
</linearGradient>
<linearGradient id="paint15_linear_3764_4372" x1="1519.68" y1="381.617" x2="1562.09" y2="428.55" gradientUnits="userSpaceOnUse">
<stop stop-color="#151515"/>
<stop offset="1" stop-color="#727179" stop-opacity="0.6"/>
</linearGradient>
<linearGradient id="paint16_linear_3764_4372" x1="664.676" y1="37.6166" x2="707.085" y2="84.5501" gradientUnits="userSpaceOnUse">
<stop stop-color="#151515"/>
<stop offset="1" stop-color="#727179" stop-opacity="0.6"/>
</linearGradient>
<linearGradient id="paint17_linear_3764_4372" x1="265.676" y1="53.6166" x2="308.085" y2="100.55" gradientUnits="userSpaceOnUse">
<stop stop-color="#151515"/>
<stop offset="1" stop-color="#727179" stop-opacity="0.6"/>
</linearGradient>
<linearGradient id="paint18_linear_3764_4372" x1="14.6763" y1="281.617" x2="57.0854" y2="328.55" gradientUnits="userSpaceOnUse">
<stop stop-color="#151515"/>
<stop offset="1" stop-color="#727179" stop-opacity="0.6"/>
</linearGradient>
<linearGradient id="paint19_linear_3764_4372" x1="449.676" y1="418.617" x2="492.085" y2="465.55" gradientUnits="userSpaceOnUse">
<stop stop-color="#151515"/>
<stop offset="1" stop-color="#727179" stop-opacity="0.6"/>
</linearGradient>
<linearGradient id="paint20_linear_3764_4372" x1="1068.68" y1="332.617" x2="1111.09" y2="379.55" gradientUnits="userSpaceOnUse">
<stop stop-color="#151515"/>
<stop offset="1" stop-color="#727179" stop-opacity="0.6"/>
</linearGradient>
<linearGradient id="paint21_linear_3764_4372" x1="1421.06" y1="85.8869" x2="1429.92" y2="97.7414" gradientUnits="userSpaceOnUse">
<stop stop-color="#E1DCFE"/>
<stop offset="1" stop-color="#7E67FD"/>
</linearGradient>
<linearGradient id="paint22_linear_3764_4372" x1="846.056" y1="35.8869" x2="854.917" y2="47.7414" gradientUnits="userSpaceOnUse">
<stop stop-color="#E1DCFE"/>
<stop offset="1" stop-color="#7E67FD"/>
</linearGradient>
<linearGradient id="paint23_linear_3764_4372" x1="1647.06" y1="338.887" x2="1655.92" y2="350.741" gradientUnits="userSpaceOnUse">
<stop stop-color="#E1DCFE"/>
<stop offset="1" stop-color="#7E67FD"/>
</linearGradient>
<linearGradient id="paint24_linear_3764_4372" x1="387.056" y1="53.8869" x2="395.917" y2="65.7414" gradientUnits="userSpaceOnUse">
<stop stop-color="#E1DCFE"/>
<stop offset="1" stop-color="#7E67FD"/>
</linearGradient>
<linearGradient id="paint25_linear_3764_4372" x1="594.056" y1="138.887" x2="602.917" y2="150.741" gradientUnits="userSpaceOnUse">
<stop stop-color="#E1DCFE"/>
<stop offset="1" stop-color="#7E67FD"/>
</linearGradient>
<linearGradient id="paint26_linear_3764_4372" x1="302.056" y1="307.887" x2="310.917" y2="319.741" gradientUnits="userSpaceOnUse">
<stop stop-color="#E1DCFE"/>
<stop offset="1" stop-color="#7E67FD"/>
</linearGradient>
</defs>
</svg>
