<svg width="473" height="64" viewBox="0 0 473 64" fill="none" xmlns="http://www.w3.org/2000/svg">
<path d="M41.016 4.62V12.432H25.476V63H15.9V12.432H0.276V4.62H41.016ZM76.3341 15.96C79.8621 15.96 82.9981 16.716 85.7421 18.228C88.5421 19.74 90.7261 21.98 92.2941 24.948C93.9181 27.916 94.7301 31.5 94.7301 35.7V63H85.2381V37.128C85.2381 32.984 84.2021 29.82 82.1301 27.636C80.0581 25.396 77.2301 24.276 73.6461 24.276C70.0621 24.276 67.2061 25.396 65.0781 27.636C63.0061 29.82 61.9701 32.984 61.9701 37.128V63H52.3941V0.839999H61.9701V22.092C63.5941 20.132 65.6381 18.62 68.1021 17.556C70.6221 16.492 73.3661 15.96 76.3341 15.96ZM105.433 39.648C105.433 35 106.385 30.884 108.289 27.3C110.249 23.716 112.881 20.944 116.185 18.984C119.545 16.968 123.241 15.96 127.273 15.96C130.913 15.96 134.077 16.688 136.765 18.144C139.509 19.544 141.693 21.308 143.317 23.436V16.716H152.977V63H143.317V56.112C141.693 58.296 139.481 60.116 136.681 61.572C133.881 63.028 130.689 63.756 127.105 63.756C123.129 63.756 119.489 62.748 116.185 60.732C112.881 58.66 110.249 55.804 108.289 52.164C106.385 48.468 105.433 44.296 105.433 39.648ZM143.317 39.816C143.317 36.624 142.645 33.852 141.301 31.5C140.013 29.148 138.305 27.356 136.177 26.124C134.049 24.892 131.753 24.276 129.289 24.276C126.825 24.276 124.529 24.892 122.401 26.124C120.273 27.3 118.537 29.064 117.193 31.416C115.905 33.712 115.261 36.456 115.261 39.648C115.261 42.84 115.905 45.64 117.193 48.048C118.537 50.456 120.273 52.304 122.401 53.592C124.585 54.824 126.881 55.44 129.289 55.44C131.753 55.44 134.049 54.824 136.177 53.592C138.305 52.36 140.013 50.568 141.301 48.216C142.645 45.808 143.317 43.008 143.317 39.816ZM190.587 15.96C194.227 15.96 197.475 16.716 200.331 18.228C203.243 19.74 205.511 21.98 207.135 24.948C208.759 27.916 209.571 31.5 209.571 35.7V63H200.079V37.128C200.079 32.984 199.043 29.82 196.971 27.636C194.899 25.396 192.071 24.276 188.487 24.276C184.903 24.276 182.047 25.396 179.919 27.636C177.847 29.82 176.811 32.984 176.811 37.128V63H167.235V16.716H176.811V22.008C178.379 20.104 180.367 18.62 182.775 17.556C185.239 16.492 187.843 15.96 190.587 15.96ZM241.777 39.9L263.113 63H250.177L233.041 43.092V63H223.465V0.839999H233.041V36.96L249.841 16.716H263.113L241.777 39.9ZM338.417 4.62L319.097 41.832V63H309.521V41.832L290.117 4.62H300.785L314.309 33.264L327.833 4.62H338.417ZM367.773 63.756C363.405 63.756 359.457 62.776 355.929 60.816C352.401 58.8 349.629 56 347.613 52.416C345.597 48.776 344.589 44.576 344.589 39.816C344.589 35.112 345.625 30.94 347.697 27.3C349.769 23.66 352.597 20.86 356.181 18.9C359.765 16.94 363.769 15.96 368.193 15.96C372.617 15.96 376.621 16.94 380.205 18.9C383.789 20.86 386.617 23.66 388.689 27.3C390.761 30.94 391.797 35.112 391.797 39.816C391.797 44.52 390.733 48.692 388.605 52.332C386.477 55.972 383.565 58.8 379.869 60.816C376.229 62.776 372.197 63.756 367.773 63.756ZM367.773 55.44C370.237 55.44 372.533 54.852 374.661 53.676C376.845 52.5 378.609 50.736 379.953 48.384C381.297 46.032 381.969 43.176 381.969 39.816C381.969 36.456 381.325 33.628 380.037 31.332C378.749 28.98 377.041 27.216 374.913 26.04C372.785 24.864 370.489 24.276 368.025 24.276C365.561 24.276 363.265 24.864 361.137 26.04C359.065 27.216 357.413 28.98 356.181 31.332C354.949 33.628 354.333 36.456 354.333 39.816C354.333 44.8 355.593 48.664 358.113 51.408C360.689 54.096 363.909 55.44 367.773 55.44ZM444.859 16.716V63H435.283V57.54C433.771 59.444 431.783 60.956 429.319 62.076C426.911 63.14 424.335 63.672 421.591 63.672C417.951 63.672 414.675 62.916 411.763 61.404C408.907 59.892 406.639 57.652 404.959 54.684C403.335 51.716 402.523 48.132 402.523 43.932V16.716H412.015V42.504C412.015 46.648 413.051 49.84 415.123 52.08C417.195 54.264 420.023 55.356 423.607 55.356C427.191 55.356 430.019 54.264 432.091 52.08C434.219 49.84 435.283 46.648 435.283 42.504V16.716H444.859ZM471.186 4.62L470.094 45.36H462.114L461.022 4.62H471.186ZM466.398 63.588C464.662 63.588 463.206 63 462.03 61.824C460.854 60.648 460.266 59.192 460.266 57.456C460.266 55.72 460.854 54.264 462.03 53.088C463.206 51.912 464.662 51.324 466.398 51.324C468.078 51.324 469.506 51.912 470.682 53.088C471.858 54.264 472.446 55.72 472.446 57.456C472.446 59.192 471.858 60.648 470.682 61.824C469.506 63 468.078 63.588 466.398 63.588Z" fill="url(#paint0_linear_2940_2890)"/>
<defs>
<linearGradient id="paint0_linear_2940_2890" x1="-34.9136" y1="-16.1436" x2="882.756" y2="-105.35" gradientUnits="userSpaceOnUse">
<stop stop-color="#36FF78"/>
<stop offset="1" stop-color="#0CFFFF"/>
</linearGradient>
</defs>
</svg>
